<?xml version="1.0" standalone="no"?>
<!DOCTYPE svg PUBLIC "-//W3C//DTD SVG 20010904//EN"
 "http://www.w3.org/TR/2001/REC-SVG-20010904/DTD/svg10.dtd">
<svg version="1.0" xmlns="http://www.w3.org/2000/svg"
 width="2000.000000pt" height="2000.000000pt" viewBox="0 0 2000.000000 2000.000000"
 preserveAspectRatio="xMidYMid meet">
<metadata>
Created by potrace 1.16, written by Peter Selinger 2001-2019
</metadata>
<g transform="translate(0.000000,2000.000000) scale(0.100000,-0.100000)"
fill="#000000" stroke="none">
<path d="M10101 16224 c-12 -9 -26 -12 -32 -9 -13 9 -113 -91 -104 -104 3 -6
2 -11 -4 -11 -12 0 -26 -46 -23 -70 1 -8 -9 -28 -23 -44 -19 -23 -24 -37 -20
-57 5 -20 1 -30 -12 -37 -10 -6 -15 -14 -11 -18 4 -4 0 -12 -9 -19 -9 -7 -16
-25 -15 -44 0 -19 -4 -31 -12 -31 -15 0 -39 -47 -31 -60 3 -5 -4 -19 -15 -30
-13 -13 -19 -28 -15 -40 4 -12 -3 -27 -21 -45 -19 -19 -24 -32 -20 -50 4 -17
0 -31 -14 -45 -11 -11 -23 -32 -26 -47 -4 -16 -16 -40 -27 -55 -13 -18 -18
-35 -13 -51 4 -17 1 -27 -9 -30 -7 -3 -21 -20 -30 -37 -13 -25 -14 -35 -4 -46
9 -11 7 -18 -10 -31 -12 -10 -22 -31 -23 -48 -1 -16 -11 -40 -22 -53 -12 -14
-20 -37 -20 -59 0 -23 -7 -44 -19 -56 -16 -16 -17 -21 -6 -28 11 -6 10 -9 -5
-15 -12 -5 -16 -13 -12 -28 3 -13 -2 -29 -15 -42 -12 -13 -22 -38 -23 -61 -1
-21 -10 -50 -19 -64 -10 -14 -15 -33 -12 -42 4 -8 2 -18 -4 -22 -6 -3 -8 -17
-5 -31 4 -17 1 -26 -10 -30 -18 -7 -40 -78 -33 -105 3 -11 0 -22 -7 -27 -20
-11 -37 -70 -23 -76 9 -3 9 -7 -1 -14 -8 -6 -11 -18 -7 -34 5 -19 2 -29 -11
-36 -10 -6 -15 -16 -11 -25 3 -9 2 -19 -4 -23 -6 -3 -8 -12 -5 -20 3 -7 0 -16
-5 -20 -6 -3 -8 -16 -5 -29 4 -14 0 -28 -10 -36 -9 -8 -13 -21 -10 -35 4 -13
1 -26 -5 -29 -6 -4 -8 -13 -5 -20 2 -7 2 -16 -2 -20 -4 -4 -8 -21 -8 -38 -2
-38 -7 -57 -17 -74 -5 -7 -6 -17 -2 -22 3 -5 1 -13 -5 -16 -6 -4 -8 -15 -5
-25 3 -10 1 -21 -5 -25 -7 -4 -9 -19 -5 -35 4 -18 0 -40 -10 -60 -11 -20 -14
-43 -10 -63 5 -25 4 -29 -5 -17 -9 12 -11 8 -6 -17 3 -19 1 -33 -4 -33 -6 0
-10 -28 -9 -62 1 -99 -1 -118 -12 -118 -7 0 -9 -10 -5 -25 4 -15 2 -25 -5 -25
-7 0 -8 -18 -4 -55 5 -37 4 -55 -3 -55 -7 0 -11 -26 -11 -67 1 -128 -3 -183
-11 -183 -11 0 -19 -49 -9 -56 5 -3 9 -41 9 -85 0 -60 -4 -84 -16 -96 -11 -11
-12 -19 -5 -26 7 -7 11 -55 11 -117 0 -62 -4 -110 -11 -117 -7 -7 -5 -15 7
-27 14 -15 16 -32 11 -117 -3 -59 -1 -99 4 -99 10 0 10 -13 10 -187 0 -56 4
-93 10 -93 6 0 8 -17 3 -45 -4 -31 -3 -45 5 -45 7 0 9 -9 5 -25 -4 -16 -2 -25
6 -25 8 0 10 -9 6 -24 -3 -14 -2 -28 4 -31 6 -3 10 -25 10 -48 -1 -106 1 -132
10 -117 8 12 10 11 10 -7 0 -12 -5 -23 -11 -25 -8 -3 -7 -8 2 -19 19 -20 23
-37 21 -81 -1 -20 3 -40 8 -43 5 -3 7 -12 3 -20 -3 -8 0 -15 6 -15 14 0 14
-27 0 -32 -6 -2 -2 -15 11 -30 15 -20 19 -34 14 -54 -4 -17 -2 -29 7 -35 12
-7 12 -11 1 -18 -11 -6 -10 -11 4 -25 9 -10 18 -27 20 -39 1 -12 5 -29 9 -38
3 -10 2 -20 -4 -23 -12 -8 6 -66 20 -66 5 0 9 -9 9 -19 0 -11 5 -23 11 -27 6
-4 8 -20 5 -38 -6 -33 10 -96 27 -107 5 -4 11 -25 12 -48 1 -22 10 -52 19 -65
8 -14 18 -43 22 -65 4 -22 15 -47 24 -56 14 -12 17 -26 13 -50 -4 -24 0 -42
16 -63 11 -17 21 -37 21 -45 0 -9 5 -19 11 -22 6 -4 8 -13 5 -20 -2 -7 2 -22
10 -33 8 -12 14 -25 13 -29 -4 -24 4 -45 26 -71 15 -18 23 -37 19 -46 -3 -8 4
-29 15 -45 12 -16 21 -39 21 -51 0 -11 12 -32 27 -46 21 -19 24 -27 14 -33
-10 -7 -10 -14 3 -38 8 -17 23 -33 32 -37 10 -4 14 -12 10 -22 -3 -9 3 -28 14
-44 11 -15 20 -35 20 -43 0 -9 7 -22 15 -31 9 -8 16 -18 16 -21 0 -2 1 -10 3
-17 3 -7 7 -26 11 -42 3 -16 14 -30 25 -33 22 -6 26 -18 10 -28 -6 -3 1 -22
15 -45 14 -22 25 -49 25 -60 0 -11 4 -20 10 -20 5 0 7 -6 4 -14 -3 -8 5 -21
17 -30 19 -13 20 -17 9 -31 -12 -15 -11 -19 9 -35 17 -12 20 -19 11 -22 -10
-3 -8 -10 8 -26 17 -17 21 -29 16 -49 -5 -20 -4 -24 6 -18 10 6 12 3 8 -13 -4
-13 1 -31 12 -45 12 -15 16 -32 13 -50 -3 -15 -1 -27 5 -27 6 0 8 -9 5 -21 -4
-13 2 -27 16 -40 18 -17 20 -27 15 -56 -4 -24 -3 -34 3 -30 6 4 13 -3 16 -15
4 -12 2 -25 -4 -29 -7 -4 -4 -12 7 -23 12 -12 16 -33 16 -72 0 -30 4 -52 9
-49 5 4 6 -7 3 -25 -4 -20 -3 -30 5 -30 8 0 10 -8 6 -20 -4 -11 -2 -20 4 -20
6 0 10 -12 10 -27 0 -16 1 -53 4 -83 2 -30 0 -61 -5 -67 -6 -7 -7 -21 -3 -30
7 -17 8 -16 15 2 6 13 9 -6 9 -56 1 -41 -4 -80 -10 -86 -7 -7 -6 -15 5 -26 12
-11 16 -35 16 -84 0 -45 -3 -63 -9 -54 -6 10 -8 -22 -5 -85 3 -64 1 -92 -5
-79 -8 18 -9 19 -16 2 -4 -9 -3 -23 3 -30 5 -6 8 -37 5 -67 -2 -30 -4 -67 -4
-82 0 -16 -5 -28 -11 -28 -5 0 -7 -7 -4 -16 3 -8 -1 -23 -10 -32 -11 -10 -13
-17 -5 -20 13 -4 15 -32 2 -32 -5 0 -9 -15 -9 -32 0 -60 -17 -151 -29 -155
-14 -5 -46 53 -40 70 6 18 -12 47 -29 47 -8 0 -13 4 -9 9 9 15 -17 61 -34 62
-10 0 -12 2 -4 6 9 3 5 18 -14 51 -14 26 -31 52 -37 57 -19 18 -53 70 -60 93
-4 12 -16 27 -27 32 -10 6 -19 15 -19 20 0 8 -18 38 -61 100 -6 9 -24 37 -40
63 -16 26 -36 47 -44 47 -8 0 -12 6 -9 13 2 7 -6 22 -18 34 -13 11 -34 39 -48
62 -13 23 -30 41 -36 41 -7 0 -16 10 -20 22 -9 30 -56 88 -70 88 -7 0 -11 8
-10 17 0 9 -9 22 -22 29 -13 6 -23 14 -23 18 2 19 -1 24 -23 35 -13 7 -23 19
-22 25 1 12 -33 58 -91 124 -13 13 -23 29 -23 33 0 5 -6 9 -13 9 -7 0 -21 16
-30 35 -9 19 -23 35 -31 35 -7 0 -13 8 -12 17 0 9 -8 22 -19 28 -11 6 -21 17
-23 24 -1 7 -9 20 -17 28 -8 8 -15 17 -15 21 0 4 -18 27 -40 51 -22 25 -40 48
-40 52 0 4 -9 11 -20 14 -11 3 -20 15 -20 25 0 26 -47 93 -72 103 -12 4 -18
13 -14 22 3 8 -1 21 -9 29 -8 8 -15 22 -15 30 0 9 -9 25 -20 36 -11 11 -20 24
-20 30 0 20 -24 60 -37 60 -7 0 -13 11 -13 24 0 13 -10 39 -23 57 -13 19 -21
41 -19 48 2 7 -5 31 -16 54 -11 23 -25 70 -31 104 -6 34 -18 74 -26 90 -9 16
-13 39 -9 56 3 16 1 34 -6 42 -8 10 -10 31 -5 65 5 34 3 50 -4 50 -7 0 -9 10
-5 25 4 16 2 25 -6 25 -8 0 -10 8 -7 21 3 11 1 34 -5 50 -7 21 -7 33 1 43 9
11 8 18 -4 30 -9 9 -14 20 -10 25 3 5 1 12 -5 16 -6 4 -8 11 -5 16 4 5 3 15
-2 22 -10 15 -10 18 -12 71 0 26 -8 51 -17 60 -8 9 -13 20 -9 26 3 5 1 17 -4
27 -6 10 -13 34 -16 54 -3 21 -12 42 -20 49 -8 7 -15 27 -15 46 0 18 -6 39
-12 46 -7 7 -13 19 -14 26 -1 6 -2 20 -2 31 -1 10 -13 34 -26 54 -13 19 -22
37 -20 40 9 9 -50 117 -64 117 -9 0 -12 6 -8 15 3 8 -3 30 -14 48 -10 17 -31
57 -47 87 -36 71 -64 110 -74 104 -5 -3 -6 1 -3 9 6 17 -45 96 -63 97 -7 0
-13 11 -13 25 0 14 -6 28 -13 31 -7 2 -27 27 -43 54 -16 27 -35 50 -41 50 -7
0 -13 9 -13 20 0 12 -9 24 -22 29 -13 5 -22 11 -20 15 5 14 0 24 -29 57 -17
19 -36 41 -42 50 -7 8 -21 22 -32 30 -11 7 -20 21 -20 29 0 8 -9 19 -20 25
-11 6 -21 17 -23 25 -2 8 -18 29 -37 45 -18 17 -39 40 -45 53 -7 15 -17 21
-26 18 -9 -3 -12 -1 -9 4 6 10 -16 34 -208 227 -167 168 -258 253 -272 253 -8
0 -12 6 -9 14 3 9 -6 21 -23 32 -15 9 -50 38 -78 65 -27 26 -79 75 -114 108
-35 34 -67 61 -71 61 -9 0 -140 132 -140 141 0 4 -21 25 -47 46 -26 21 -142
131 -256 246 -115 114 -215 207 -222 207 -7 0 -15 7 -19 15 -3 8 -14 15 -24
15 -11 0 -25 7 -32 15 -7 9 -19 14 -26 11 -7 -3 -16 -1 -19 4 -9 14 -36 12
-65 -5 -14 -8 -35 -19 -47 -24 -12 -6 -40 -33 -62 -61 -34 -43 -41 -59 -41
-97 0 -26 -6 -51 -15 -59 -11 -12 -12 -19 -3 -33 9 -15 8 -22 -6 -36 -13 -13
-14 -20 -5 -31 8 -10 10 -43 6 -107 -4 -63 -3 -87 4 -77 7 11 8 -1 4 -38 -5
-36 -3 -57 6 -68 7 -8 12 -37 11 -65 0 -32 3 -49 11 -49 8 0 8 -3 -1 -9 -11
-7 -11 -11 2 -24 9 -8 13 -22 10 -30 -3 -8 -1 -18 5 -22 6 -3 11 -19 11 -34 0
-15 6 -36 14 -47 8 -10 12 -29 10 -40 -3 -12 -1 -25 5 -28 6 -4 11 -18 11 -32
0 -13 5 -24 11 -24 6 0 8 -9 4 -20 -4 -12 0 -31 9 -45 9 -13 16 -35 16 -49 0
-30 20 -76 32 -76 5 0 7 -12 4 -27 -4 -19 1 -41 14 -65 11 -21 20 -47 20 -58
0 -10 9 -24 21 -30 11 -7 18 -18 15 -25 -2 -7 1 -21 8 -31 7 -9 11 -25 9 -35
-3 -9 4 -26 15 -37 11 -11 20 -26 19 -34 -1 -19 51 -128 62 -128 5 0 9 -11 8
-24 0 -29 51 -139 99 -213 19 -29 34 -59 34 -67 0 -7 9 -21 19 -30 11 -10 18
-23 15 -30 -3 -7 4 -21 16 -31 11 -10 20 -23 20 -29 0 -6 15 -34 33 -62 18
-28 48 -76 66 -108 19 -32 40 -60 47 -63 8 -3 14 -11 14 -18 0 -7 18 -32 40
-55 22 -23 40 -48 40 -55 0 -8 6 -20 13 -27 7 -7 22 -28 32 -45 11 -18 25 -33
31 -33 6 0 11 -8 10 -17 0 -9 8 -22 19 -28 11 -6 21 -16 22 -23 2 -6 11 -20
20 -31 10 -10 27 -30 38 -45 30 -39 55 -68 115 -136 30 -34 59 -70 64 -79 6
-9 35 -41 65 -73 31 -31 85 -88 121 -127 36 -39 73 -71 82 -71 11 0 15 -5 12
-14 -3 -8 13 -29 43 -52 26 -22 70 -60 98 -85 117 -107 143 -130 198 -174 31
-25 57 -50 57 -55 0 -7 55 -46 83 -58 5 -2 46 -42 93 -89 46 -46 88 -82 92
-79 4 2 20 -13 36 -35 17 -21 38 -39 48 -39 10 0 18 -4 18 -10 0 -5 15 -23 33
-39 17 -17 88 -82 157 -145 69 -63 137 -129 152 -146 16 -19 32 -29 39 -24 7
4 9 3 5 -4 -3 -6 1 -17 10 -24 43 -34 404 -404 404 -414 0 -6 15 -22 33 -35
17 -13 32 -31 32 -39 0 -8 9 -19 20 -25 11 -6 21 -17 23 -25 2 -8 18 -29 35
-46 50 -48 87 -93 99 -120 6 -13 17 -24 23 -24 7 0 12 -8 11 -17 0 -9 8 -22
19 -28 11 -6 21 -17 23 -25 2 -8 7 -17 11 -20 4 -3 20 -26 36 -53 17 -26 38
-50 48 -53 9 -3 17 -14 17 -24 0 -10 6 -25 14 -32 7 -8 16 -23 20 -35 4 -11
16 -23 27 -26 12 -3 19 -11 16 -19 -6 -17 24 -68 39 -68 7 0 10 -8 8 -18 -3
-10 12 -42 35 -75 23 -32 41 -64 41 -72 0 -8 8 -23 18 -33 10 -10 16 -24 14
-30 -2 -7 3 -15 12 -18 8 -3 12 -12 9 -20 -4 -10 2 -17 16 -21 21 -5 30 -23
11 -23 -18 0 -11 -18 20 -49 24 -23 29 -36 24 -55 -4 -19 0 -31 18 -49 16 -16
25 -36 25 -57 0 -19 7 -38 16 -45 10 -7 17 -26 17 -42 0 -17 10 -43 22 -58 15
-19 21 -39 19 -60 -1 -19 4 -39 13 -48 9 -9 16 -22 16 -31 0 -8 5 -18 10 -21
6 -4 8 -21 4 -42 -4 -24 -3 -34 3 -30 6 4 13 -3 16 -15 4 -12 2 -25 -4 -29 -7
-4 -4 -13 7 -23 11 -12 17 -33 16 -62 0 -24 4 -44 9 -44 6 0 7 -16 4 -37 -5
-28 -4 -34 4 -23 9 12 11 11 11 -7 0 -12 -4 -23 -9 -25 -5 -2 -3 -21 5 -43 19
-52 26 -155 12 -172 -5 -7 -7 -21 -3 -30 7 -17 8 -16 15 2 5 11 9 -64 9 -175
0 -111 -4 -186 -9 -175 -7 18 -8 19 -15 2 -4 -9 -2 -23 4 -30 7 -9 9 -39 5
-83 -3 -38 -6 -79 -6 -91 0 -13 -5 -23 -10 -23 -6 0 -8 -12 -4 -30 3 -19 1
-30 -5 -30 -7 0 -9 -12 -5 -35 4 -21 3 -35 -3 -35 -5 0 -10 -17 -10 -37 0 -33
-4 -64 -11 -83 -1 -3 -2 -9 -1 -13 1 -4 -6 -15 -15 -24 -12 -13 -13 -18 -2
-24 11 -7 11 -11 -1 -18 -9 -6 -11 -18 -7 -36 5 -19 2 -31 -8 -39 -17 -13 -39
-86 -25 -86 5 0 9 -10 9 -22 0 -19 -2 -20 -10 -8 -8 11 -10 -2 -10 -45 2 -181
0 -216 -16 -232 -11 -11 -12 -19 -5 -26 14 -14 14 -130 0 -144 -7 -7 -5 -15 6
-27 13 -13 16 -34 15 -104 -1 -48 1 -134 4 -192 5 -72 3 -112 -5 -127 -7 -12
-8 -30 -4 -40 7 -16 9 -15 15 7 11 34 12 20 10 -75 -1 -44 -6 -85 -11 -91 -6
-8 -4 -18 7 -29 13 -12 15 -27 11 -64 -8 -68 -1 -74 87 -76 42 -1 80 1 84 4
12 8 32 91 25 107 -3 7 3 21 12 30 11 12 13 20 6 27 -6 6 -11 20 -11 31 0 18
2 19 11 6 7 -11 8 -4 4 27 -4 23 -3 48 2 55 4 7 8 32 9 55 1 24 6 49 11 55 15
19 23 58 12 58 -5 0 -9 10 -9 23 0 18 2 19 11 7 8 -11 9 -5 4 23 -3 20 -2 43
2 50 7 11 10 34 14 105 1 12 6 22 11 22 6 0 8 12 5 27 -3 16 1 32 10 41 10 10
11 18 4 25 -6 6 -11 20 -11 31 0 18 2 18 10 6 8 -11 10 0 10 40 0 96 3 120 13
120 5 0 6 15 3 35 -5 23 -3 35 4 35 8 0 9 18 5 58 -4 39 -3 53 4 42 7 -10 10
8 9 60 0 41 0 170 1 285 1 116 -1 261 -4 323 -5 78 -3 112 4 112 6 0 11 18 11
40 0 22 -5 40 -11 40 -7 0 -9 31 -4 103 3 56 6 110 6 119 0 10 5 18 11 18 6 0
8 13 4 35 -5 24 -3 35 5 35 6 0 9 7 6 15 -4 8 -1 17 4 21 6 3 8 15 6 25 -7 25
11 88 29 107 10 9 13 24 9 42 -5 21 -2 31 12 38 10 6 15 14 11 17 -4 4 0 14 8
23 10 10 14 25 10 44 -4 20 -2 28 9 28 15 0 51 58 42 67 -3 2 6 21 19 40 13
20 22 44 19 53 -4 12 1 19 15 23 13 3 22 17 26 36 4 17 10 31 14 31 12 0 71
100 65 110 -3 5 1 10 9 10 8 0 18 9 21 20 4 11 16 32 28 45 12 14 31 37 42 52
11 15 39 46 63 70 23 25 40 49 37 54 -4 5 1 9 9 9 8 0 24 14 36 31 12 16 40
41 62 55 22 14 42 33 45 42 3 10 24 33 48 52 24 19 76 62 117 96 40 34 83 64
95 68 12 4 25 16 28 27 4 10 14 19 24 19 9 0 36 18 59 41 23 22 46 37 51 34 5
-3 18 6 29 20 11 14 25 25 31 25 5 0 15 9 21 20 6 11 19 20 29 20 16 0 33 11
81 52 8 7 64 52 125 100 158 125 159 126 380 333 181 170 344 334 441 446 43
49 89 96 102 105 12 8 21 22 20 30 -2 8 8 20 22 27 14 7 26 22 28 34 2 12 12
25 23 28 10 4 19 10 19 15 0 5 12 23 28 40 52 57 77 87 92 109 8 13 23 32 33
43 9 12 17 24 17 28 0 4 20 29 45 56 25 27 59 73 75 102 17 28 34 52 38 52 4
0 20 21 37 48 16 26 32 49 35 52 7 7 61 79 87 117 12 18 20 39 17 47 -3 8 3
16 15 19 22 5 61 75 53 96 -3 8 0 11 6 7 12 -7 52 39 52 60 0 7 8 21 18 31 32
32 182 292 176 306 -3 8 2 16 13 19 11 3 44 56 86 138 38 74 77 145 88 159 11
13 17 31 15 38 -3 7 -1 13 4 13 10 0 25 39 21 58 -1 7 5 15 14 18 22 9 50 64
33 64 -7 0 -4 8 8 18 28 22 49 62 34 62 -7 0 3 14 20 32 20 20 30 38 27 50 -3
10 -1 18 4 18 13 0 71 120 65 135 -3 8 2 19 10 25 22 19 77 138 71 154 -3 8 0
17 8 20 23 8 49 67 35 76 -15 9 -4 30 15 30 15 0 32 46 21 57 -3 3 3 13 15 21
11 8 18 20 15 27 -2 7 3 16 12 20 13 5 14 8 3 14 -11 7 -10 11 6 19 24 13 113
164 113 192 0 12 7 28 15 36 18 18 19 42 5 79 -8 20 -7 34 3 55 12 23 12 31 0
54 -7 14 -18 26 -24 26 -6 0 -9 6 -6 13 7 19 1 26 -66 80 -32 26 -63 45 -68
41 -6 -3 -20 4 -32 17 -13 14 -22 18 -25 11 -2 -7 -11 -12 -20 -12 -13 0 -14
2 -4 9 8 5 -16 8 -58 8 -45 0 -67 -3 -58 -9 8 -5 -2 -6 -26 -2 -31 5 -37 4
-31 -6 6 -10 4 -12 -7 -7 -9 3 -28 -1 -43 -9 -16 -8 -36 -12 -46 -9 -10 4 -25
-3 -37 -16 -13 -14 -27 -19 -40 -15 -11 4 -29 -1 -45 -14 -14 -11 -31 -20 -39
-20 -7 0 -31 -11 -53 -25 -22 -13 -49 -25 -61 -25 -11 0 -29 -7 -40 -15 -10
-8 -26 -15 -35 -15 -9 0 -33 -12 -54 -26 -21 -14 -44 -23 -52 -20 -18 7 -56
-12 -48 -23 2 -5 -12 -12 -33 -16 -20 -4 -48 -13 -62 -20 -14 -7 -40 -19 -57
-25 -18 -7 -33 -16 -33 -21 0 -5 -7 -9 -15 -9 -8 0 -15 -5 -15 -11 0 -7 -9 -9
-22 -6 -13 4 -31 -1 -45 -13 -13 -10 -31 -16 -39 -13 -7 3 -17 -2 -20 -11 -3
-9 -23 -20 -45 -26 -21 -6 -45 -17 -53 -25 -8 -8 -20 -15 -26 -15 -18 0 -90
-40 -90 -50 0 -5 -8 -9 -17 -7 -22 2 -185 -80 -196 -100 -5 -8 -16 -11 -27 -8
-11 3 -22 0 -27 -8 -4 -8 -24 -22 -43 -31 -19 -9 -53 -27 -75 -40 -22 -14 -54
-31 -71 -39 -17 -8 -35 -20 -38 -26 -4 -6 -16 -11 -27 -11 -10 0 -24 -9 -31
-21 -7 -11 -35 -32 -63 -45 -27 -13 -66 -34 -85 -46 -134 -87 -159 -104 -160
-114 0 -7 -11 -15 -24 -18 -13 -3 -42 -24 -65 -46 -22 -22 -46 -40 -52 -40
-14 0 -53 -31 -130 -102 -34 -32 -65 -58 -69 -58 -14 0 -100 -90 -100 -105 0
-9 -8 -14 -22 -12 -19 2 -23 -3 -21 -21 3 -19 -1 -23 -20 -20 -18 2 -22 -1
-19 -21 2 -19 -2 -22 -17 -18 -14 3 -25 -3 -37 -22 -18 -27 -84 -100 -146
-161 -20 -19 -38 -42 -40 -49 -2 -8 -10 -22 -18 -31 -37 -42 -65 -81 -62 -87
2 -4 -5 -10 -14 -14 -10 -3 -25 -17 -34 -30 -61 -98 -78 -125 -100 -154 -14
-18 -35 -52 -45 -76 -11 -24 -35 -66 -53 -94 -18 -27 -30 -56 -27 -64 3 -7 -6
-24 -20 -37 -16 -15 -25 -34 -25 -53 0 -19 -10 -40 -26 -56 -15 -15 -23 -32
-20 -41 3 -8 -4 -24 -15 -35 -14 -14 -19 -28 -15 -44 4 -16 1 -25 -10 -29 -10
-4 -14 -12 -10 -23 5 -11 -1 -23 -16 -35 -18 -13 -21 -19 -10 -29 17 -18 15
-24 -13 -55 -20 -21 -24 -34 -20 -55 5 -20 1 -30 -10 -37 -10 -5 -18 -23 -19
-40 -1 -17 -5 -34 -8 -38 -4 -4 -5 -17 -2 -29 3 -13 -1 -28 -10 -37 -10 -11
-13 -27 -10 -50 4 -24 1 -38 -9 -47 -13 -10 -18 -8 -32 19 -9 17 -13 35 -10
40 9 14 -13 50 -31 50 -11 0 -13 6 -9 19 4 13 -1 27 -14 40 -10 10 -17 22 -14
25 3 2 -7 20 -21 39 -14 19 -26 42 -26 52 0 10 -11 33 -25 51 -15 19 -22 39
-19 49 7 18 -14 65 -34 78 -9 6 -11 18 -7 35 4 16 1 28 -7 34 -11 6 -11 10 0
17 11 6 10 12 -5 26 -11 12 -14 20 -6 22 12 4 6 40 -11 62 -7 9 -11 69 -10
165 0 179 4 216 22 235 11 11 11 16 1 22 -9 5 -8 12 6 25 11 12 14 19 6 22
-14 5 -15 32 -1 32 6 0 10 11 10 23 0 13 7 39 16 57 9 18 19 53 22 79 3 25 8
48 11 51 12 9 31 61 31 82 0 12 8 30 17 40 9 11 17 35 17 53 0 19 4 35 9 35 9
0 50 87 50 107 0 7 7 15 14 18 9 3 12 12 8 24 -4 14 0 23 13 30 11 6 26 30 35
53 30 84 43 113 61 141 10 15 16 36 13 47 -3 13 3 24 19 35 18 11 24 25 24 50
0 19 4 35 10 35 5 0 15 19 21 43 7 23 21 54 32 70 11 16 17 40 15 57 -2 20 3
34 17 43 13 10 19 27 19 56 1 23 6 45 13 49 17 11 34 62 28 82 -7 21 4 52 15
45 13 -8 32 60 25 88 -5 18 -2 28 11 35 11 6 15 16 11 26 -5 11 -3 15 5 10 7
-5 9 0 6 14 -4 12 -2 25 3 28 5 3 6 16 3 29 -4 14 0 26 8 32 20 11 29 41 15
47 -9 3 -9 7 1 14 8 5 14 27 15 48 0 22 6 50 13 63 7 13 10 30 7 39 -5 11 -3
13 7 7 10 -6 12 -2 8 19 -3 14 -1 29 4 32 5 3 6 19 3 35 -4 18 -2 36 5 44 6 8
8 20 4 26 -5 8 -3 9 6 4 10 -6 12 -2 7 15 -3 13 0 28 8 37 12 11 12 18 2 34
-10 16 -9 21 1 28 10 6 11 19 7 45 -5 23 -3 41 5 51 6 8 9 19 5 25 -3 5 1 17
10 26 12 12 13 20 6 27 -6 6 -11 22 -11 37 0 20 2 22 11 10 7 -11 8 2 3 43 -4
34 -2 57 3 57 6 0 9 43 8 103 -1 56 0 106 2 110 3 5 4 95 3 200 -1 106 -2 240
-3 300 0 59 -5 107 -10 107 -5 0 -7 24 -3 58 5 43 4 53 -4 42 -9 -11 -10 -4
-5 33 3 26 2 47 -2 47 -10 0 -14 28 -14 93 1 26 -4 47 -10 47 -6 0 -8 14 -4
38 5 27 4 33 -4 22 -9 -13 -11 -13 -11 3 0 9 4 17 10 17 11 0 2 29 -17 51 -9
11 -12 30 -8 60 5 33 4 40 -4 29 -9 -13 -11 -13 -11 3 0 9 4 17 9 17 5 0 7 9
4 20 -3 11 -9 18 -13 15 -5 -3 -6 4 -3 15 3 12 -1 22 -10 26 -11 4 -15 19 -14
51 0 28 -5 49 -14 55 -10 7 -11 11 -2 14 14 6 5 36 -14 47 -10 6 -12 18 -8 37
3 15 2 31 -4 34 -6 4 -8 13 -5 20 3 8 0 17 -6 21 -6 4 -8 16 -5 27 4 12 0 27
-10 38 -12 13 -15 27 -10 48 3 17 2 33 -4 36 -6 4 -8 13 -4 21 3 8 0 15 -6 15
-7 0 -9 9 -5 24 3 15 -1 34 -11 50 -11 17 -15 35 -10 55 3 16 2 32 -4 35 -6 4
-8 13 -4 21 3 8 0 15 -6 15 -14 0 -14 27 0 32 8 3 7 8 -2 19 -18 18 -21 31
-26 99 -2 30 -8 56 -13 58 -6 2 -7 15 -4 28 3 13 1 31 -6 39 -6 7 -14 40 -16
72 -3 32 -11 61 -17 65 -9 6 -9 10 -1 16 14 9 0 52 -16 52 -8 0 -9 11 -5 31 5
22 3 34 -6 40 -12 7 -12 10 -1 18 11 6 10 11 -4 25 -19 20 -26 51 -25 119 0
26 -4 47 -10 47 -7 0 -8 15 -4 41 5 31 4 40 -5 34 -8 -5 -10 -2 -6 11 3 11 -1
32 -9 48 -8 15 -13 32 -10 36 2 4 -2 28 -11 52 -15 45 -77 108 -106 108 -7 0
-26 8 -43 17 -40 22 -136 26 -164 7z m61 -711 c2 -16 -1 -36 -7 -47 -7 -13 -7
-20 3 -23 6 -3 12 -17 12 -33 0 -16 6 -31 13 -34 9 -5 9 -7 0 -12 -12 -5 0
-58 18 -78 5 -6 9 -27 9 -47 0 -21 7 -44 15 -53 8 -8 12 -21 9 -29 -3 -8 -1
-18 5 -22 6 -3 11 -19 11 -35 0 -16 4 -31 9 -34 4 -3 6 -16 4 -29 -3 -14 2
-31 11 -40 9 -8 16 -31 16 -51 0 -19 4 -37 9 -40 5 -3 7 -15 4 -26 -3 -12 0
-20 7 -20 6 0 9 -8 5 -19 -3 -10 1 -24 10 -31 11 -9 14 -22 10 -42 -5 -21 -2
-35 10 -48 11 -12 14 -26 10 -40 -4 -12 -1 -27 5 -35 7 -8 12 -33 12 -55 -1
-24 3 -38 9 -34 6 3 7 -5 4 -23 -5 -21 -4 -24 4 -13 9 13 11 13 11 -2 0 -9 -5
-18 -11 -20 -8 -3 -7 -9 4 -19 17 -17 25 -68 14 -86 -4 -6 -1 -18 7 -26 9 -8
13 -24 10 -38 -5 -19 -4 -21 5 -9 9 13 11 13 11 -2 0 -9 -5 -18 -11 -20 -8 -3
-7 -9 3 -19 15 -15 18 -29 19 -91 0 -21 5 -38 11 -38 6 0 8 -10 4 -24 -4 -15
-1 -26 7 -29 9 -3 9 -9 0 -25 -10 -17 -10 -24 1 -34 15 -15 16 -28 16 -118 0
-45 3 -60 10 -50 7 11 10 8 10 -16 0 -16 -5 -35 -11 -41 -7 -7 -6 -15 5 -26
12 -12 14 -27 10 -61 -4 -26 -3 -46 2 -46 13 0 18 -97 18 -370 -1 -288 -4
-361 -21 -378 -10 -10 -10 -17 0 -33 10 -16 9 -21 -1 -28 -9 -5 -11 -21 -7
-52 4 -27 3 -39 -2 -31 -6 8 -10 -11 -11 -54 0 -40 -5 -70 -12 -74 -7 -4 -9
-16 -5 -29 4 -12 2 -21 -4 -21 -15 0 -30 -62 -19 -77 6 -7 4 -24 -5 -45 -8
-18 -12 -39 -9 -47 3 -9 0 -11 -8 -6 -10 6 -12 2 -8 -13 4 -12 2 -25 -3 -28
-6 -3 -7 -15 -3 -26 3 -12 0 -24 -10 -31 -21 -16 -39 -77 -23 -77 7 0 4 -5 -6
-11 -12 -7 -16 -17 -12 -30 5 -13 1 -25 -10 -33 -9 -6 -18 -28 -19 -47 -2 -20
-13 -49 -25 -65 -12 -17 -24 -43 -26 -60 -2 -16 -4 -30 -4 -31 -1 -2 -1 -6 0
-10 0 -3 -7 -10 -16 -15 -9 -6 -15 -19 -13 -32 1 -12 -7 -31 -20 -44 -16 -16
-21 -29 -16 -47 4 -15 2 -25 -5 -25 -13 0 -43 -55 -34 -64 4 -4 -3 -13 -15
-22 -24 -16 -75 -111 -69 -128 2 -6 -5 -17 -14 -26 -10 -8 -26 -40 -36 -70
-10 -30 -22 -54 -27 -52 -10 2 -13 499 -2 509 3 3 6 -17 6 -46 0 -32 4 -50 10
-46 6 3 10 28 10 56 0 27 -4 49 -10 49 -6 0 -10 122 -10 345 0 223 4 345 10
345 6 0 10 13 10 29 0 17 -4 33 -10 36 -5 3 -10 -3 -10 -14 0 -12 -4 -21 -9
-21 -11 0 -2 131 11 146 5 8 3 18 -7 28 -13 12 -15 26 -9 61 4 28 2 45 -4 45
-5 0 -10 15 -11 33 -1 71 -7 123 -14 134 -4 7 -5 30 -2 50 5 28 4 34 -4 23 -9
-12 -11 -11 -11 7 0 12 5 23 11 25 8 3 6 9 -4 20 -10 10 -18 40 -21 77 -5 65
-21 104 -39 98 -7 -2 -14 -12 -16 -23 -2 -10 -12 -32 -23 -47 -11 -15 -17 -35
-14 -44 4 -10 -2 -25 -15 -39 -16 -17 -20 -30 -15 -48 4 -15 2 -26 -4 -26 -5
0 -10 -13 -10 -29 0 -17 -5 -33 -11 -37 -6 -3 -8 -17 -5 -29 3 -13 2 -27 -4
-30 -6 -3 -7 -17 -4 -31 4 -16 2 -24 -6 -24 -8 0 -11 -10 -7 -29 4 -17 -2 -51
-13 -83 -11 -33 -15 -57 -9 -62 12 -13 12 -63 -1 -68 -7 -2 -7 -28 -1 -78 6
-47 6 -79 0 -84 -5 -6 -9 2 -9 23 0 19 -4 30 -10 26 -13 -8 -13 -65 1 -65 13
0 11 -968 -3 -976 -5 -3 -6 -19 -3 -35 5 -20 2 -34 -9 -44 -13 -13 -13 -20 -3
-36 10 -16 9 -21 -3 -29 -12 -7 -12 -12 -2 -22 16 -16 15 -40 -2 -63 -13 -18
-14 -17 -30 13 -9 18 -14 37 -11 42 3 5 -3 27 -15 49 -11 22 -20 47 -20 55 0
8 -8 20 -17 25 -10 6 -14 11 -10 11 4 0 2 10 -5 23 -7 12 -13 35 -14 51 -1 17
-11 36 -23 45 -17 13 -20 23 -15 48 5 24 2 35 -15 49 -15 13 -21 30 -21 61 0
23 -4 44 -10 48 -5 3 -7 12 -3 20 3 9 -1 23 -8 32 -16 18 -20 46 -19 113 0 34
-3 41 -10 30 -8 -11 -9 -5 -4 23 4 25 3 37 -6 37 -7 0 -9 8 -5 20 4 11 2 20
-4 20 -6 0 -10 12 -9 28 0 15 -2 53 -6 86 -4 38 -3 63 5 72 6 8 8 22 4 31 -7
17 -8 16 -15 -2 -6 -14 -9 -1 -9 41 -1 33 4 65 10 71 7 7 6 15 -5 26 -23 23
-24 371 -1 394 10 10 12 19 6 27 -11 14 -19 126 -8 126 4 0 7 -5 7 -11 0 -5 5
-7 10 -4 13 8 13 45 0 45 -6 0 -7 28 -4 73 4 39 6 83 6 96 0 13 7 31 15 39 10
10 11 18 4 25 -14 14 -14 47 -1 47 7 0 9 14 5 38 -5 29 -4 34 5 22 9 -12 10
-5 6 31 -3 27 0 55 8 70 18 35 26 69 15 69 -5 0 -9 7 -9 15 0 8 5 15 10 15 6
0 8 11 4 25 -3 14 -2 25 4 25 5 0 10 21 10 47 1 25 7 50 13 54 6 3 9 13 7 20
-3 8 2 20 10 28 10 10 11 16 3 19 -6 2 -11 11 -11 20 0 15 2 15 11 2 8 -11 9
-7 5 18 -4 24 0 41 15 62 15 20 20 36 15 54 -4 15 -2 26 4 26 5 0 10 13 10 28
0 16 8 44 17 63 10 19 18 54 18 79 0 29 8 57 23 80 15 23 21 44 18 62 -4 19 0
30 11 37 11 6 16 21 15 47 -1 27 1 34 8 25 7 -12 10 -8 15 15 4 16 10 39 15
52 7 16 6 22 -3 22 -6 0 -1 9 13 19 20 16 22 22 12 34 -11 12 -8 20 13 42 22
25 31 51 26 79 -1 4 6 14 15 21 10 7 17 26 17 45 0 21 9 41 25 57 16 16 22 31
19 45 -4 13 4 33 21 56 16 22 25 45 24 63 -2 20 2 29 12 29 19 0 39 37 32 56
-3 8 -1 14 4 14 11 0 84 140 76 147 -2 3 5 14 16 25 11 11 18 28 15 38 -3 12
6 26 25 40 20 15 27 25 20 32 -13 13 17 98 34 98 7 0 14 -12 16 -27z m-3830
-2814 c32 -33 63 -57 69 -54 6 4 17 -2 25 -14 8 -12 21 -21 29 -21 7 0 16 -9
20 -19 3 -11 16 -23 28 -27 12 -4 24 -10 27 -14 5 -8 128 -100 133 -100 2 0
23 -18 47 -40 24 -22 47 -40 51 -40 4 0 21 -12 37 -27 90 -86 195 -172 209
-174 4 0 28 -24 53 -53 25 -29 59 -62 75 -74 30 -21 260 -255 317 -322 16 -19
44 -51 61 -71 18 -19 39 -46 47 -59 14 -21 41 -54 73 -90 8 -8 28 -41 46 -72
18 -32 39 -58 47 -58 8 0 12 -4 9 -10 -3 -5 20 -54 52 -107 31 -54 73 -129 92
-166 19 -38 40 -71 47 -74 9 -3 11 -15 8 -33 -4 -19 0 -34 12 -47 11 -10 20
-30 22 -44 3 -29 24 -79 34 -79 3 0 4 -9 1 -20 -3 -12 1 -22 11 -26 11 -4 14
-14 10 -33 -5 -21 -3 -23 6 -11 9 12 10 11 5 -8 -4 -14 -1 -28 10 -38 10 -10
13 -24 9 -36 -4 -13 -1 -24 7 -29 12 -7 12 -10 1 -18 -11 -6 -10 -11 4 -25 16
-17 23 -39 28 -96 1 -14 5 -32 8 -40 7 -19 25 -86 33 -122 8 -39 -15 -36 -40
5 -28 46 -28 47 -8 48 12 1 10 3 -7 8 -14 4 -27 16 -29 26 -5 29 -70 115 -87
115 -8 0 -14 7 -14 15 0 7 -6 18 -13 22 -7 4 -18 20 -24 36 -7 15 -19 27 -27
27 -9 0 -13 6 -11 13 3 6 -14 33 -37 59 -72 78 -99 112 -111 136 -5 12 -14 22
-18 22 -5 0 -21 19 -36 42 -16 23 -35 50 -43 59 -26 29 -50 63 -50 71 0 4 -6
8 -14 8 -8 0 -13 8 -12 17 0 10 -9 22 -21 28 -13 5 -23 18 -23 28 0 10 -8 21
-17 25 -10 4 -18 14 -18 22 0 8 -10 20 -23 26 -13 6 -22 15 -21 19 3 9 -19 41
-53 77 -16 16 -36 41 -45 56 -10 15 -26 33 -36 41 -10 7 -22 24 -27 37 -5 13
-16 24 -24 24 -7 0 -16 10 -20 23 -3 13 -13 33 -23 44 -10 12 -25 31 -33 43
-8 13 -25 34 -37 48 -13 14 -23 28 -23 33 0 14 -42 22 -50 10 -4 -7 -5 -53 -3
-104 2 -51 4 -101 4 -112 0 -11 5 -23 12 -28 9 -7 9 -10 0 -13 -12 -5 -8 -25
16 -79 5 -11 21 -51 36 -90 15 -38 33 -74 41 -78 8 -4 14 -17 14 -28 0 -13 8
-23 21 -26 11 -3 18 -11 15 -19 -3 -7 4 -22 15 -35 10 -12 19 -26 19 -30 0 -4
6 -14 13 -21 7 -7 23 -34 35 -59 13 -26 35 -60 50 -75 36 -39 55 -75 44 -86
-9 -9 -32 8 -116 85 -17 15 -46 40 -64 55 -64 54 -252 241 -252 251 0 6 -5 11
-10 11 -6 0 -20 16 -31 35 -12 19 -27 35 -35 35 -7 0 -11 6 -9 13 3 6 -13 31
-34 54 -22 23 -42 51 -46 61 -3 11 -15 22 -27 25 -13 4 -19 11 -15 21 4 9 0
22 -8 29 -7 8 -20 30 -29 51 -9 21 -22 36 -32 36 -9 0 -14 6 -11 14 7 17 -51
119 -63 111 -5 -3 -11 -1 -15 5 -3 5 -1 10 4 10 20 0 11 28 -14 48 -15 12 -23
26 -19 35 6 18 -24 69 -36 62 -13 -8 -23 16 -12 27 7 7 3 22 -14 49 -13 21
-24 50 -24 64 0 14 -11 37 -24 50 -15 15 -22 32 -19 43 3 12 -2 22 -13 26 -15
6 -16 9 -5 15 11 7 9 13 -7 29 -12 12 -21 29 -21 39 1 42 -12 88 -26 95 -17
10 -21 38 -5 38 10 0 -5 50 -18 60 -14 10 -31 75 -26 96 3 12 1 25 -5 28 -5 4
-8 13 -4 21 3 8 0 15 -6 15 -14 0 -14 27 0 32 8 3 7 8 -2 19 -20 21 -24 37
-21 93 1 31 -3 55 -12 65 -11 13 -14 47 -7 69 4 10 23 -6 73 -59z m7508 -628
c0 -5 -7 -14 -15 -21 -8 -7 -15 -18 -15 -25 0 -7 -6 -15 -14 -18 -8 -3 -23
-18 -32 -32 -14 -21 -15 -28 -4 -35 14 -9 5 -30 -14 -30 -18 0 -36 -43 -29
-69 4 -14 1 -21 -10 -21 -17 0 -29 -24 -21 -44 3 -8 -6 -25 -20 -39 -14 -15
-26 -36 -26 -48 0 -12 -8 -31 -17 -41 -9 -10 -17 -27 -18 -38 -1 -11 -13 -38
-27 -59 -16 -25 -24 -48 -21 -61 4 -13 0 -20 -9 -20 -22 0 -43 -51 -26 -62 10
-6 5 -15 -20 -34 -23 -18 -31 -31 -27 -44 4 -12 -2 -27 -14 -39 -12 -12 -21
-32 -21 -46 0 -15 -6 -25 -14 -25 -16 0 -26 -21 -26 -55 0 -12 -7 -25 -15 -29
-13 -5 -80 -132 -87 -166 -2 -8 -10 -20 -18 -27 -8 -6 -12 -14 -9 -18 4 -3 -4
-17 -17 -30 -25 -25 -32 -55 -12 -55 6 0 8 -3 4 -7 -4 -5 -13 -8 -19 -8 -7 0
-21 -19 -33 -41 -11 -23 -33 -62 -47 -87 -15 -25 -24 -53 -21 -61 4 -10 1 -16
-9 -16 -16 0 -147 -225 -147 -253 0 -9 -8 -21 -18 -26 -11 -6 -43 -52 -73
-103 -29 -51 -57 -97 -61 -103 -49 -61 -68 -91 -64 -102 3 -7 -1 -13 -8 -13
-8 0 -19 -13 -26 -30 -7 -16 -16 -30 -21 -30 -5 0 -11 -10 -14 -22 -3 -13 -24
-41 -45 -62 -22 -22 -40 -46 -40 -53 0 -7 -9 -21 -20 -30 -11 -10 -20 -25 -20
-35 0 -10 -6 -18 -14 -18 -8 0 -18 -9 -21 -20 -3 -11 -10 -20 -15 -20 -5 0
-29 -31 -54 -69 -26 -38 -65 -89 -89 -114 -23 -24 -51 -56 -62 -71 -11 -15
-30 -39 -42 -52 -13 -14 -23 -31 -23 -39 0 -8 -5 -15 -10 -15 -6 0 -39 -30
-73 -67 -34 -37 -116 -121 -181 -187 -66 -67 -118 -127 -117 -134 1 -8 -5 -12
-16 -10 -12 2 -35 -13 -59 -37 -61 -61 -143 -134 -172 -153 -15 -9 -34 -24
-43 -32 -9 -8 -29 -24 -43 -35 -33 -25 -38 -29 -108 -87 -31 -27 -60 -48 -65
-48 -5 0 -27 -16 -49 -36 -21 -19 -48 -40 -59 -45 -40 -19 -66 -37 -89 -58
-12 -11 -27 -21 -33 -21 -5 0 -18 -9 -28 -20 -10 -11 -23 -20 -30 -20 -7 0
-20 -9 -30 -20 -10 -11 -23 -20 -30 -20 -6 0 -26 -11 -45 -25 -18 -13 -37 -22
-41 -19 -5 3 -9 -1 -9 -9 0 -14 -52 -57 -70 -57 -14 0 -13 15 4 29 7 6 16 24
19 39 3 15 15 37 26 49 12 12 21 27 21 34 0 6 9 22 20 36 12 16 18 34 14 45
-3 12 2 25 17 37 12 10 23 27 24 39 0 11 14 39 30 61 15 23 25 44 22 48 -4 3
3 19 14 35 12 16 19 34 16 42 -3 7 3 18 13 24 20 12 71 106 69 126 -3 25 2 36
16 36 8 0 16 6 16 13 1 6 2 17 3 22 0 6 11 21 24 35 12 13 22 34 22 47 0 13 6
23 14 23 15 0 76 109 76 134 0 8 7 16 15 20 8 3 20 16 25 28 6 13 31 57 56 98
26 41 47 81 48 87 1 7 11 23 23 35 11 13 36 49 54 81 19 32 43 73 54 91 80
136 96 163 104 176 4 8 16 29 25 45 10 17 23 42 29 58 6 15 15 27 19 27 3 0
20 27 37 59 21 42 26 61 18 65 -7 2 -4 5 5 5 19 1 42 36 34 50 -3 5 1 12 10
15 9 3 14 12 12 18 -3 7 2 19 9 26 8 8 11 23 8 33 -4 13 -1 21 12 26 24 9 33
23 33 56 0 35 -22 36 -56 2 -14 -14 -31 -25 -38 -25 -7 0 -21 -9 -31 -20 -10
-11 -26 -22 -35 -25 -10 -3 -28 -21 -41 -40 -13 -19 -29 -35 -35 -35 -15 0
-188 -177 -192 -196 -2 -8 -7 -12 -11 -10 -4 3 -23 -14 -42 -36 -19 -23 -46
-55 -61 -71 -16 -16 -28 -33 -28 -37 0 -3 -13 -21 -30 -40 -16 -18 -27 -37
-24 -41 3 -5 -1 -9 -9 -9 -14 0 -108 -127 -147 -198 -8 -14 -21 -32 -29 -38
-8 -6 -11 -18 -8 -28 5 -12 -1 -19 -18 -26 -14 -5 -25 -14 -25 -18 0 -5 -21
-40 -46 -78 -25 -38 -41 -70 -35 -72 19 -6 12 -22 -9 -22 -12 0 -26 -12 -35
-30 -9 -16 -13 -30 -10 -30 3 0 -5 -10 -16 -21 -15 -15 -18 -23 -9 -29 8 -5 5
-9 -9 -13 -13 -3 -29 -23 -41 -49 -11 -25 -33 -62 -50 -83 -20 -25 -28 -45
-24 -57 4 -14 0 -21 -15 -25 -12 -3 -24 -16 -27 -28 -3 -13 -13 -26 -21 -29
-9 -4 -13 -14 -10 -26 3 -13 0 -20 -9 -20 -8 0 -19 -10 -26 -22 -7 -12 -37
-58 -67 -102 -29 -45 -54 -90 -55 -101 0 -11 -12 -25 -24 -31 -13 -6 -19 -13
-12 -16 9 -3 9 -10 -1 -31 -7 -15 -17 -26 -23 -24 -15 5 -20 57 -7 70 6 6 11
31 11 55 0 26 6 50 16 59 11 11 12 19 5 26 -15 15 -14 77 0 77 8 0 10 15 5 46
-4 30 -1 57 8 78 23 52 25 65 13 69 -8 2 -6 10 6 22 15 14 16 20 5 26 -10 7
-10 11 -1 17 7 4 12 26 12 48 -2 42 2 62 14 82 5 6 6 16 2 21 -3 5 0 13 6 16
5 4 8 13 5 21 -3 7 -1 16 4 19 5 3 7 18 4 34 -4 21 -1 30 11 35 12 4 15 13 11
30 -4 15 0 28 10 36 10 9 13 22 9 42 -5 20 -2 30 9 34 18 7 41 79 30 95 -3 6
4 22 17 35 15 16 23 36 22 59 -1 19 5 39 13 46 8 6 11 15 8 20 -3 5 -1 9 5 9
6 0 15 10 22 21 9 17 8 23 -2 30 -11 7 -10 13 7 27 23 18 74 114 74 139 0 8
11 29 25 45 16 18 23 37 20 48 -4 12 1 19 15 23 15 4 20 13 20 36 0 20 5 31
14 31 8 0 20 16 27 35 7 19 16 35 20 35 4 0 12 14 19 30 7 17 16 30 20 30 12
0 72 99 65 110 -3 5 -2 10 4 10 17 0 71 64 66 78 -2 6 2 12 10 12 8 0 20 11
27 24 16 31 77 103 146 173 29 30 50 58 47 63 -3 6 0 7 7 5 11 -5 108 83 108
97 0 6 99 108 105 108 17 0 115 82 115 98 0 4 13 13 29 20 16 7 41 24 55 37
15 14 31 25 36 25 5 0 17 8 27 18 26 27 130 102 142 102 5 0 18 11 29 25 11
14 27 25 35 25 8 0 20 7 27 15 7 8 25 21 41 30 16 8 42 22 58 30 16 9 32 22
35 30 3 8 14 15 24 15 11 0 25 7 32 16 8 8 27 22 44 30 79 38 123 63 135 78 7
9 22 16 32 16 11 0 19 5 19 10 0 6 11 10 25 10 13 0 29 8 34 19 6 10 23 21 39
24 16 3 36 12 43 20 8 7 26 17 41 20 15 4 33 14 42 22 8 8 21 15 29 15 8 0 31
11 51 25 20 14 43 25 50 25 6 0 21 7 32 15 10 8 29 15 41 15 12 0 24 4 27 8 4
7 90 50 184 92 23 11 61 28 85 40 23 11 47 20 53 20 6 0 23 9 38 21 15 11 34
18 42 15 18 -7 57 11 49 24 -3 4 13 11 34 15 22 3 47 13 58 20 10 8 26 15 36
15 10 0 20 7 24 15 3 9 13 15 22 13 9 -1 26 4 39 10 12 7 27 10 32 7 11 -7 54
14 46 23 -7 6 62 50 82 51 6 1 12 -3 12 -8z m-3743 -5868 c-4 -17 -4 -17 -12
0 -4 9 -4 25 0 35 8 16 8 16 12 0 3 -10 3 -26 0 -35z"/>
<path d="M10130 15480 c0 -5 5 -10 10 -10 6 0 10 5 10 10 0 6 -4 10 -10 10 -5
0 -10 -4 -10 -10z"/>
<path d="M14170 12100 c0 -18 4 -29 10 -25 6 3 10 15 10 25 0 10 -4 22 -10 25
-6 4 -10 -7 -10 -25z"/>
</g>
</svg>
