<?xml version="1.0" standalone="no"?>
<!DOCTYPE svg PUBLIC "-//W3C//DTD SVG 20010904//EN"
 "http://www.w3.org/TR/2001/REC-SVG-20010904/DTD/svg10.dtd">
<svg version="1.0" xmlns="http://www.w3.org/2000/svg"
 width="2000.000000pt" height="2000.000000pt" viewBox="0 0 2000.000000 2000.000000"
 preserveAspectRatio="xMidYMid meet">
<metadata>
Created by potrace 1.16, written by Peter Selinger 2001-2019
</metadata>
<g transform="translate(0.000000,2000.000000) scale(0.100000,-0.100000)"
fill="#000000" stroke="none">
<path d="M10991 17951 c-12 -12 -27 -21 -35 -21 -17 0 -41 -28 -32 -37 3 -3
-4 -11 -16 -17 -13 -6 -24 -20 -27 -31 -2 -11 -10 -24 -18 -28 -8 -5 -11 -16
-8 -28 4 -13 2 -19 -8 -19 -17 0 -47 -42 -47 -65 0 -8 -5 -15 -10 -15 -6 0
-14 -8 -17 -17 -4 -10 -17 -31 -30 -47 -14 -17 -21 -36 -18 -46 4 -12 -1 -19
-15 -23 -16 -4 -20 -12 -18 -33 2 -18 -2 -29 -9 -29 -7 0 -28 -25 -48 -54 -26
-41 -32 -57 -22 -63 9 -5 7 -8 -4 -8 -22 0 -55 -50 -40 -59 7 -5 -1 -16 -20
-30 -24 -18 -29 -28 -25 -47 5 -17 2 -24 -9 -24 -17 0 -55 -73 -55 -107 0 -13
-4 -23 -10 -23 -12 0 -41 -55 -33 -64 3 -3 -6 -15 -21 -27 -19 -15 -26 -28
-23 -41 3 -11 -2 -27 -13 -38 -11 -11 -23 -32 -26 -47 -4 -16 -14 -33 -23 -40
-9 -6 -13 -15 -9 -19 4 -4 0 -13 -10 -21 -12 -10 -14 -16 -4 -19 18 -8 15 -21
-8 -27 -11 -3 -22 -17 -25 -33 -7 -33 -20 -63 -47 -116 -11 -21 -16 -38 -12
-38 4 0 0 -6 -11 -13 -13 -10 -16 -21 -11 -41 6 -23 3 -29 -14 -33 -18 -5 -25
-25 -21 -60 1 -6 -10 -24 -24 -39 -19 -20 -25 -37 -24 -59 2 -21 -4 -38 -20
-54 -17 -17 -22 -30 -17 -52 3 -15 1 -31 -4 -34 -16 -10 -40 -68 -35 -85 3 -9
-4 -25 -15 -35 -11 -10 -20 -26 -20 -36 0 -10 -5 -21 -10 -24 -8 -5 -7 -11 1
-21 10 -12 7 -19 -10 -38 -16 -17 -21 -31 -16 -45 4 -13 2 -21 -5 -21 -8 0
-10 -9 -5 -27 5 -21 1 -31 -17 -44 -18 -14 -23 -28 -24 -68 0 -31 -7 -57 -16
-68 -21 -23 -38 -89 -27 -100 11 -11 0 -53 -13 -53 -6 0 -7 -11 -4 -25 4 -14
2 -25 -3 -25 -6 0 -7 -7 -4 -17 4 -10 2 -14 -4 -10 -16 10 -22 -14 -10 -41 8
-18 6 -27 -14 -48 -20 -21 -21 -27 -9 -35 13 -7 13 -10 1 -18 -7 -5 -10 -14
-7 -20 4 -6 2 -11 -5 -11 -8 0 -10 -11 -6 -34 3 -20 0 -45 -9 -62 -8 -16 -12
-39 -9 -51 3 -13 1 -23 -5 -23 -6 0 -8 -11 -4 -26 5 -21 4 -25 -6 -19 -10 6
-11 -2 -6 -38 4 -27 3 -48 -3 -51 -6 -4 -7 -14 -4 -23 4 -10 2 -14 -4 -10 -16
10 -26 -25 -11 -35 11 -6 10 -10 0 -17 -9 -6 -11 -19 -7 -45 4 -21 3 -41 -3
-49 -6 -7 -11 -28 -11 -47 0 -54 -4 -85 -12 -90 -13 -10 -20 -48 -9 -55 13 -8
13 -55 0 -55 -7 0 -8 -18 -4 -50 4 -34 3 -50 -4 -50 -7 0 -11 -22 -11 -57 1
-111 -4 -173 -13 -173 -5 0 -7 -13 -3 -30 4 -20 3 -30 -5 -30 -8 0 -10 -14 -5
-49 4 -29 3 -51 -3 -55 -6 -3 -11 -32 -11 -64 -2 -95 -3 -102 -13 -102 -5 0
-7 -20 -3 -47 4 -31 3 -43 -3 -35 -7 11 -10 11 -15 -2 -3 -8 -2 -18 3 -21 14
-9 12 -55 -1 -55 -8 0 -10 -14 -6 -42 4 -29 -1 -60 -14 -97 -12 -37 -16 -58
-9 -65 13 -13 13 -46 0 -46 -7 0 -8 -13 -4 -35 4 -23 2 -35 -5 -35 -7 0 -11
-20 -11 -52 0 -90 -3 -118 -13 -118 -5 0 -6 -15 -3 -35 5 -23 3 -35 -4 -35 -8
0 -10 -15 -5 -50 5 -33 3 -50 -4 -50 -7 0 -10 -25 -10 -67 1 -113 -1 -133 -11
-133 -6 0 -8 -15 -4 -40 5 -27 3 -40 -5 -40 -8 0 -10 -15 -5 -50 4 -33 3 -50
-4 -50 -7 0 -11 -26 -11 -67 1 -132 -3 -183 -12 -183 -6 0 -7 -26 -3 -67 5
-49 4 -64 -5 -59 -15 10 -27 -22 -12 -37 12 -12 16 -177 4 -177 -5 0 -9 -80
-9 -177 -2 -246 -5 -293 -16 -293 -5 0 -7 -13 -3 -30 4 -20 3 -30 -5 -30 -8 0
-10 -12 -5 -40 5 -28 3 -40 -5 -40 -9 0 -10 -15 -6 -54 5 -36 3 -56 -4 -61 -6
-4 -9 -13 -6 -21 3 -8 1 -14 -5 -14 -7 0 -8 -14 -4 -39 4 -23 2 -42 -4 -45 -6
-4 -8 -13 -4 -21 3 -8 0 -15 -7 -15 -9 0 -11 -11 -7 -36 4 -24 1 -47 -9 -66
-8 -16 -12 -38 -8 -50 4 -13 2 -18 -4 -14 -5 3 -13 -2 -17 -11 -3 -10 -1 -19
4 -21 14 -5 14 -32 1 -32 -5 0 -9 -19 -9 -42 1 -59 -3 -78 -14 -78 -5 0 -6
-12 -3 -26 4 -15 3 -23 -3 -20 -14 9 -19 -17 -7 -37 8 -13 8 -20 -3 -26 -9 -6
-12 -18 -7 -35 4 -16 0 -38 -9 -57 -11 -19 -14 -42 -10 -62 4 -21 3 -27 -3
-19 -8 11 -10 11 -15 -1 -3 -8 0 -20 6 -26 9 -9 9 -14 -2 -20 -10 -7 -12 -21
-7 -54 5 -29 3 -48 -4 -52 -6 -4 -8 -16 -4 -27 4 -13 2 -18 -4 -14 -5 3 -13
-2 -17 -11 -3 -10 -1 -19 4 -21 6 -2 11 -13 11 -25 0 -16 -3 -18 -9 -8 -7 11
-9 11 -13 0 -3 -8 0 -22 6 -32 8 -13 8 -20 -3 -26 -10 -6 -12 -19 -7 -45 5
-24 2 -45 -9 -67 -9 -17 -14 -41 -11 -52 3 -12 -1 -25 -11 -32 -13 -10 -13
-14 -2 -34 11 -16 11 -23 2 -29 -7 -4 -11 -27 -10 -55 1 -26 -3 -51 -9 -55
-16 -10 -28 -52 -15 -52 6 0 11 -10 11 -22 0 -17 -3 -19 -9 -10 -7 11 -9 11
-14 -1 -3 -8 -1 -19 4 -24 6 -6 6 -19 0 -36 -6 -15 -8 -40 -5 -56 4 -16 1 -32
-5 -35 -6 -4 -8 -18 -5 -32 4 -15 2 -24 -5 -24 -7 0 -9 -9 -5 -25 4 -16 2 -25
-6 -25 -8 0 -9 -10 -5 -30 4 -20 3 -30 -5 -30 -8 0 -10 -11 -6 -35 5 -23 2
-45 -9 -66 -9 -17 -14 -41 -11 -52 3 -12 -1 -25 -11 -32 -13 -10 -13 -14 -2
-34 12 -18 12 -23 0 -30 -10 -6 -12 -19 -8 -40 5 -22 0 -43 -15 -72 -17 -34
-19 -42 -7 -50 11 -7 10 -11 -6 -23 -16 -12 -17 -16 -6 -30 8 -9 10 -23 6 -33
-4 -10 -8 -45 -10 -77 -2 -32 -8 -62 -14 -65 -6 -4 -6 -12 -1 -21 9 -15 3 -69
-10 -83 -4 -4 -5 -30 -2 -57 4 -40 2 -50 -11 -50 -11 0 -16 18 -22 78 -12 145
-13 247 -2 261 9 10 7 16 -7 26 -12 9 -16 20 -11 34 4 13 2 21 -5 21 -8 0 -10
13 -5 40 5 28 3 40 -5 40 -6 0 -10 6 -7 13 2 6 0 26 -4 42 -5 17 -5 45 0 62 9
31 -1 68 -12 42 -3 -8 -6 -3 -6 12 -1 14 5 31 12 38 10 10 8 15 -6 26 -14 10
-17 21 -12 49 5 23 3 36 -3 36 -7 0 -11 77 -10 230 0 151 3 230 10 230 6 0 8
12 5 27 -3 18 0 31 10 38 13 10 13 15 2 34 -11 17 -11 23 -2 29 12 8 14 21 14
135 0 26 4 47 10 47 5 0 7 27 3 70 -4 39 -3 70 2 70 5 0 7 70 5 159 -2 97 1
166 7 178 6 10 7 25 3 32 -7 11 -10 11 -15 0 -3 -8 -4 21 -1 64 3 47 1 77 -5
77 -5 0 -10 21 -9 48 0 26 -2 63 -4 82 -2 19 1 41 6 47 12 17 0 46 -14 37 -9
-5 -10 1 -5 20 4 16 2 26 -4 26 -7 0 -9 13 -4 35 4 21 2 35 -4 35 -11 0 -14
27 -12 115 1 35 -10 66 -21 59 -7 -4 -9 1 -4 15 4 12 2 21 -4 21 -7 0 -11 23
-11 55 0 41 -4 57 -16 62 -8 3 -13 12 -10 19 3 8 0 14 -6 14 -7 0 -9 13 -5 35
3 19 2 37 -3 40 -5 3 -11 19 -15 35 -4 17 -10 30 -15 30 -4 0 -10 22 -14 50
-4 31 -14 57 -27 69 -12 11 -18 24 -15 30 4 5 2 12 -4 16 -6 4 -8 10 -5 15 8
14 -6 40 -22 40 -11 0 -14 7 -10 21 6 24 -11 70 -31 82 -7 5 -10 17 -7 28 4
12 -1 31 -11 47 -10 15 -19 32 -19 37 -1 27 -18 53 -35 58 -16 4 -19 11 -14
34 4 21 0 33 -15 47 -11 10 -18 22 -15 27 6 11 -22 66 -37 71 -7 2 -13 17 -15
33 -2 17 -11 37 -21 45 -10 8 -19 26 -20 40 -1 14 -11 33 -23 42 -11 9 -20 20
-19 25 4 23 -3 45 -18 61 -10 9 -18 22 -18 27 0 24 -50 115 -63 115 -9 0 -13
7 -9 20 3 11 -2 30 -11 42 -10 13 -26 40 -37 62 -11 21 -25 40 -31 43 -7 2
-10 12 -7 22 2 9 -7 29 -20 43 -14 15 -22 29 -19 32 7 8 -19 59 -36 69 -8 5
-11 19 -8 35 7 37 -31 101 -73 123 -19 10 -39 23 -45 29 -13 13 -76 13 -76 -1
0 -5 -4 -8 -10 -4 -5 3 -24 -1 -43 -9 -38 -15 -77 -70 -77 -107 0 -19 2 -21
10 -9 6 9 10 -36 12 -130 2 -86 -1 -148 -7 -154 -13 -14 -13 -428 -1 -438 13
-9 8 -109 -7 -126 -9 -11 -7 -17 6 -26 9 -7 17 -26 17 -42 0 -16 2 -60 5 -99
4 -38 6 -82 6 -97 0 -16 5 -28 11 -28 6 0 8 -13 3 -36 -4 -25 -2 -39 6 -44 6
-4 12 -27 13 -51 1 -24 5 -49 9 -56 4 -7 5 -24 1 -38 -4 -15 -2 -25 5 -25 6 0
8 -7 5 -15 -4 -8 -1 -15 5 -15 6 0 8 -11 5 -30 -5 -20 -3 -30 6 -30 7 0 10 -6
7 -13 -3 -8 -1 -20 3 -28 5 -8 4 -19 -3 -27 -9 -11 -7 -17 7 -27 10 -8 15 -18
12 -23 -3 -6 -1 -12 5 -14 5 -2 11 -19 11 -38 1 -19 6 -38 12 -42 8 -6 6 -11
-4 -18 -12 -8 -11 -12 8 -30 15 -15 21 -28 17 -41 -4 -11 -2 -26 4 -33 6 -7
12 -32 14 -56 2 -26 10 -46 20 -52 12 -6 15 -16 11 -34 -4 -14 -2 -24 5 -24 5
0 10 -12 10 -27 0 -51 13 -93 34 -104 15 -8 17 -13 7 -19 -10 -6 -8 -14 9 -36
13 -16 19 -35 15 -46 -3 -11 4 -31 18 -51 13 -17 23 -39 24 -47 1 -8 2 -25 3
-36 0 -12 10 -24 21 -27 16 -4 19 -11 14 -37 -5 -23 -1 -39 15 -60 11 -16 21
-41 21 -55 0 -14 8 -33 18 -43 10 -10 17 -23 15 -29 -2 -6 3 -18 12 -26 8 -9
15 -23 15 -32 0 -8 7 -18 16 -22 8 -3 13 -12 10 -19 -7 -17 13 -64 27 -64 5 0
7 -9 4 -19 -2 -11 6 -38 19 -61 13 -23 24 -47 24 -54 0 -6 9 -29 20 -50 10
-22 17 -42 15 -47 -8 -11 6 -40 16 -33 5 3 9 -6 9 -19 0 -14 7 -30 15 -37 9
-8 13 -21 9 -32 -7 -24 13 -75 33 -82 10 -4 13 -14 8 -35 -7 -31 8 -70 32 -84
8 -5 11 -17 7 -33 -4 -15 -2 -24 5 -24 7 0 9 -9 5 -24 -4 -18 0 -30 15 -43 22
-18 28 -43 12 -43 -6 0 -6 -12 1 -31 8 -23 13 -28 20 -17 6 9 7 6 3 -10 -5
-17 -1 -27 12 -37 14 -10 15 -16 6 -26 -12 -12 -7 -36 14 -57 15 -16 17 -32 3
-32 -16 0 -11 -18 11 -39 15 -14 19 -26 14 -41 -5 -15 -2 -26 6 -31 12 -8 11
-11 -1 -19 -13 -9 -13 -12 1 -23 9 -6 14 -18 11 -25 -2 -7 4 -22 13 -32 12
-13 15 -27 10 -49 -4 -20 -3 -31 4 -31 14 0 14 -27 0 -32 -5 -2 -7 -11 -4 -21
4 -9 12 -14 17 -11 6 4 8 -2 3 -15 -3 -11 -2 -21 3 -21 10 0 14 -20 13 -77 -1
-25 3 -43 10 -43 7 0 8 -11 4 -30 -4 -20 -3 -30 5 -30 8 0 10 -12 5 -40 -4
-26 -3 -40 4 -40 6 0 8 -7 5 -15 -4 -8 -1 -21 4 -28 7 -8 9 -38 6 -75 -4 -41
-2 -62 5 -62 15 0 14 -63 -1 -79 -11 -10 -10 -15 5 -25 20 -15 23 -76 5 -95
-11 -10 -9 -15 5 -26 19 -13 20 -110 22 -1438 0 -196 4 -357 9 -357 4 0 6 -74
5 -165 -2 -91 0 -165 5 -165 5 0 7 -52 4 -115 -3 -69 0 -115 5 -115 6 0 8 -40
5 -100 -3 -56 -1 -103 4 -106 5 -3 7 -74 6 -157 -1 -84 1 -158 5 -165 5 -7 7
-46 6 -87 -1 -41 1 -78 4 -82 13 -12 7 -33 -8 -33 -8 0 -15 -5 -15 -10 0 -6 7
-13 15 -16 19 -8 21 -124 3 -143 -11 -10 -9 -15 5 -26 14 -10 18 -27 18 -77 1
-166 7 -325 14 -341 4 -11 5 -59 2 -108 -3 -53 -2 -89 4 -89 12 0 12 -93 -1
-106 -11 -11 -2 -54 12 -54 7 0 8 -18 4 -49 -4 -31 -3 -52 4 -56 7 -5 10 -49
7 -131 -2 -68 0 -124 4 -124 14 0 11 -134 -3 -149 -11 -10 -9 -15 6 -26 16
-13 18 -22 12 -80 -5 -47 -3 -65 5 -65 8 0 10 -16 6 -55 -3 -30 -2 -57 3 -60
4 -3 7 -59 6 -125 -1 -66 2 -120 6 -120 11 0 10 -122 -1 -139 -5 -8 -7 -21 -4
-28 5 -12 7 -12 14 -1 5 8 9 -8 9 -42 0 -32 -5 -62 -12 -69 -11 -10 -9 -15 6
-26 16 -12 18 -23 13 -70 -3 -30 -2 -57 3 -60 4 -3 7 -59 6 -125 -1 -66 2
-120 6 -120 13 0 9 -135 -4 -149 -11 -10 -9 -15 6 -26 16 -12 18 -23 13 -75
-5 -42 -3 -60 5 -60 8 0 9 -33 5 -114 -5 -115 -5 -115 34 -135 22 -12 48 -21
58 -21 26 0 51 32 50 66 0 82 4 124 12 124 6 0 7 21 3 50 -6 43 -4 53 12 65
15 11 17 16 7 26 -17 17 -17 131 0 148 10 10 8 15 -7 26 -16 13 -18 22 -12 80
5 46 3 65 -5 65 -6 0 -9 9 -6 20 3 11 1 37 -4 59 -6 26 -5 50 2 68 8 22 7 30
-7 40 -14 11 -15 15 -3 29 11 14 11 18 -5 30 -16 11 -17 16 -5 30 11 14 11 18
-5 29 -10 8 -15 18 -12 23 3 5 1 24 -4 42 -5 19 -6 49 -1 70 9 38 -1 76 -12
49 -3 -8 -5 74 -6 181 0 111 4 186 9 175 13 -32 23 5 10 39 -10 28 -5 71 12
93 6 7 8 18 6 25 -3 7 2 19 11 25 14 11 14 14 1 24 -11 8 -12 12 -2 16 6 2 12
18 12 34 0 16 4 29 8 29 14 0 32 48 32 85 0 19 4 35 9 35 12 0 31 56 31 91 0
16 4 29 9 29 12 0 31 56 31 91 0 16 4 29 9 29 15 0 32 56 26 82 -5 18 -2 29 8
35 24 14 39 52 32 83 -4 19 -2 31 8 37 22 13 37 48 37 87 0 20 4 36 9 36 14 0
33 64 25 84 -4 11 3 25 21 42 22 21 26 31 23 62 -4 30 0 41 20 60 20 19 23 29
18 57 -6 28 -3 36 15 45 14 8 19 18 16 31 -3 10 -1 22 4 25 6 3 7 14 4 25 -4
12 -1 21 8 25 20 7 41 59 33 80 -4 10 4 28 19 46 17 19 23 37 20 49 -4 11 0
26 10 35 9 9 14 22 11 29 -3 8 2 16 10 19 8 3 14 20 15 43 1 44 11 75 24 74 6
0 10 16 10 36 0 25 7 44 23 60 15 15 22 34 22 61 0 27 5 42 16 46 10 4 13 13
9 25 -3 11 -1 22 5 26 5 3 10 17 10 31 0 13 9 33 21 45 14 14 19 29 16 46 -3
18 5 39 26 69 25 36 28 46 17 58 -10 13 -9 17 4 22 10 4 15 12 12 19 -3 8 2
16 11 19 11 5 14 15 9 41 -5 27 -4 35 8 35 20 0 39 37 33 61 -3 13 4 29 20 45
21 21 24 32 20 60 -4 25 -2 34 8 34 15 0 50 58 41 67 -3 3 3 17 14 31 13 15
18 33 14 47 -4 15 0 24 11 29 9 3 13 10 10 16 -3 5 -2 10 4 10 11 0 55 90 65
133 3 15 10 27 15 27 13 0 61 85 61 109 0 12 6 21 14 21 15 0 52 57 62 96 3
13 15 31 26 38 28 20 69 79 64 92 -2 6 6 16 20 23 13 6 24 16 24 22 0 7 7 17
14 23 8 6 16 18 18 26 2 8 12 19 23 25 11 6 20 17 20 25 0 8 16 29 35 45 19
17 74 69 121 116 47 47 119 112 158 143 40 32 75 64 78 72 3 8 9 11 14 8 5 -3
35 21 67 53 32 32 82 79 111 106 28 26 49 52 46 57 -3 6 -1 10 5 10 15 0 120
111 120 127 0 6 8 14 18 17 10 3 49 49 87 101 38 52 72 95 76 95 4 0 15 13 26
29 10 16 42 63 71 105 29 42 50 82 46 88 -4 6 -3 8 3 5 12 -8 43 34 43 58 0 8
5 15 10 15 6 0 16 12 22 28 7 15 20 38 30 51 10 14 16 32 13 43 -4 12 -1 18 9
18 18 0 72 96 68 122 -2 11 3 18 12 18 15 0 31 34 22 48 -3 5 6 19 19 30 14
12 25 32 25 43 0 12 11 37 24 54 16 21 23 40 19 54 -4 14 -1 21 9 21 19 0 38
42 31 69 -4 15 -1 21 11 21 15 0 21 21 18 63 -1 9 3 17 8 17 16 0 50 63 44 82
-3 9 3 25 14 36 13 13 18 28 15 46 -4 19 1 31 17 44 13 10 24 27 25 38 1 10 6
27 10 37 4 9 5 24 1 32 -3 8 3 19 13 25 10 5 22 25 25 44 4 20 23 64 43 98 24
42 37 80 41 114 4 48 2 54 -32 92 -20 22 -46 40 -59 41 -105 5 -106 5 -219
-67 -20 -12 -47 -38 -59 -57 -13 -19 -29 -35 -35 -35 -7 0 -40 -27 -75 -60
-35 -33 -67 -60 -71 -60 -14 0 -112 -106 -109 -118 1 -8 -5 -12 -16 -11 -11 2
-42 -20 -80 -59 -35 -34 -68 -62 -73 -62 -6 0 -10 -8 -8 -17 2 -10 -4 -19 -14
-21 -28 -6 -148 -131 -141 -147 3 -9 -1 -15 -11 -15 -18 0 -161 -138 -152
-147 3 -3 -11 -19 -31 -35 -20 -16 -44 -42 -54 -57 -9 -16 -33 -45 -53 -64
-20 -20 -36 -40 -36 -44 0 -8 -48 -66 -91 -109 -12 -12 -18 -27 -14 -34 4 -7
-1 -13 -14 -17 -12 -3 -21 -12 -21 -21 0 -8 -15 -30 -33 -47 -19 -18 -42 -50
-52 -71 -10 -22 -24 -43 -31 -47 -8 -4 -14 -16 -14 -26 0 -11 -7 -22 -16 -25
-10 -4 -14 -14 -11 -25 3 -13 -1 -21 -14 -24 -10 -3 -21 -18 -25 -33 -4 -16
-15 -40 -25 -53 -10 -13 -17 -27 -14 -31 3 -5 -8 -21 -24 -37 -23 -23 -28 -36
-24 -58 4 -19 2 -26 -5 -21 -11 7 -45 -35 -40 -50 1 -5 -6 -23 -15 -41 -9 -18
-17 -39 -17 -48 0 -8 -9 -24 -21 -36 -15 -15 -19 -28 -14 -50 4 -17 2 -29 -3
-29 -13 0 -54 -69 -47 -80 3 -5 1 -18 -5 -30 -5 -11 -15 -29 -20 -41 -6 -11
-8 -28 -5 -38 3 -10 -1 -24 -10 -31 -9 -8 -13 -21 -10 -34 5 -16 4 -18 -4 -7
-8 12 -11 10 -16 -12 -4 -15 -5 -34 -1 -42 3 -8 -6 -27 -20 -42 -20 -21 -24
-34 -20 -58 5 -23 1 -35 -15 -48 -11 -10 -18 -25 -15 -32 3 -8 1 -17 -4 -20
-6 -4 -10 -17 -10 -31 0 -13 -9 -33 -21 -45 -14 -14 -19 -29 -16 -47 4 -18 -2
-35 -18 -54 -15 -17 -23 -40 -23 -64 0 -20 -4 -39 -9 -43 -17 -13 -35 -60 -29
-77 4 -11 -1 -26 -15 -40 -12 -13 -23 -39 -26 -59 -2 -19 -13 -52 -24 -71 -11
-20 -19 -46 -17 -58 1 -12 -8 -36 -20 -54 -15 -20 -22 -43 -21 -61 2 -17 -4
-35 -14 -46 -10 -10 -16 -24 -13 -31 3 -7 1 -16 -5 -20 -5 -3 -7 -15 -4 -25 5
-14 -1 -28 -20 -45 -21 -19 -26 -31 -22 -52 4 -18 -1 -34 -14 -48 -11 -12 -21
-37 -22 -57 -1 -19 -10 -44 -20 -55 -9 -10 -17 -25 -17 -33 0 -8 -5 -20 -12
-27 -8 -8 -8 -15 2 -26 10 -13 9 -17 -4 -22 -11 -4 -15 -13 -11 -22 4 -10 -3
-23 -17 -34 -18 -13 -20 -20 -11 -29 9 -9 6 -19 -13 -45 -21 -26 -24 -39 -18
-68 5 -28 3 -36 -9 -36 -16 0 -30 -26 -22 -40 3 -5 1 -11 -5 -15 -5 -3 -7 -17
-4 -31 5 -18 2 -24 -10 -24 -19 0 -39 -46 -32 -74 3 -12 -5 -31 -20 -49 -18
-22 -24 -38 -21 -56 4 -18 -1 -33 -15 -48 -11 -12 -23 -39 -25 -60 -2 -21 -12
-46 -21 -57 -14 -15 -14 -20 -3 -24 10 -3 8 -9 -10 -22 -19 -15 -21 -21 -11
-33 11 -12 8 -20 -13 -43 -20 -22 -25 -36 -22 -59 3 -23 -2 -36 -20 -53 -19
-17 -23 -29 -19 -48 5 -19 0 -33 -20 -56 -20 -25 -24 -38 -20 -61 5 -23 1 -33
-14 -44 -11 -8 -20 -22 -20 -32 0 -9 -5 -22 -12 -29 -9 -9 -9 -15 0 -24 17
-17 15 -25 -8 -31 -17 -4 -20 -10 -14 -33 5 -18 3 -25 -3 -21 -15 9 -24 -18
-11 -31 8 -8 7 -13 -6 -18 -11 -4 -15 -13 -10 -26 4 -13 2 -18 -4 -14 -16 10
-31 -46 -18 -67 8 -14 8 -21 -4 -30 -25 -20 -43 -64 -36 -90 4 -17 0 -30 -15
-42 -11 -11 -17 -25 -15 -32 3 -7 2 -13 -3 -13 -10 0 -61 -96 -61 -115 0 -7
-7 -15 -15 -19 -8 -3 -15 -16 -15 -29 0 -13 -9 -32 -19 -41 -28 -25 -36 -6
-38 89 -1 44 -5 189 -9 322 -5 177 -3 243 5 243 14 0 15 57 1 65 -6 4 -10 -7
-10 -25 0 -17 -4 -29 -9 -26 -11 7 -1 148 12 165 9 10 7 16 -7 26 -13 10 -16
21 -11 49 5 23 3 36 -4 36 -6 0 -10 16 -9 37 1 21 -2 74 -5 117 -4 52 -3 84 4
93 6 7 8 21 4 30 -7 17 -8 16 -15 -2 -6 -14 -9 -4 -9 35 0 30 3 61 8 69 5 8 7
21 4 28 -5 12 -7 12 -15 1 -6 -8 -8 18 -4 75 3 48 1 87 -4 87 -9 0 -14 202
-14 578 0 396 5 622 14 622 5 0 6 34 3 75 -5 67 -4 77 13 90 15 11 17 16 6 26
-7 8 -12 40 -11 83 0 47 3 64 9 51 7 -18 8 -19 15 -2 4 9 2 23 -4 31 -8 10
-10 42 -5 107 4 52 6 118 5 147 -1 33 2 52 9 52 8 0 10 13 5 41 -6 33 -4 43
12 54 14 11 16 16 6 26 -15 16 -18 83 -3 74 14 -9 24 23 12 38 -5 6 -7 41 -5
77 3 36 5 78 4 94 0 17 7 35 17 42 14 10 15 15 5 25 -15 15 -17 69 -3 69 6 0
7 19 4 48 -4 31 -2 42 4 34 8 -11 10 -11 15 1 3 7 2 19 -2 26 -4 6 -6 37 -3
69 2 31 4 72 3 90 -1 17 4 32 9 32 6 0 8 17 4 43 -4 27 -2 37 4 29 7 -11 10
-11 15 2 3 8 2 18 -3 21 -6 4 -10 21 -9 38 0 27 2 29 9 12 7 -18 8 -19 15 -2
4 9 2 23 -3 30 -7 8 -9 33 -5 62 3 28 5 58 5 68 -1 9 4 17 10 17 7 0 8 17 4
50 -5 35 -3 50 5 50 7 0 9 9 5 26 -5 19 -2 30 11 39 13 10 15 16 6 26 -6 8 -9
30 -7 49 3 19 5 54 5 78 1 23 5 42 11 42 5 0 6 9 3 21 -5 14 -1 25 10 33 15
11 16 15 4 34 -12 19 -11 23 6 36 15 10 17 17 8 27 -14 18 -8 85 13 135 11 26
13 39 5 42 -16 5 -13 23 7 38 14 10 15 15 4 25 -6 7 -12 22 -12 33 0 16 2 18
9 7 13 -20 20 8 9 38 -5 13 -5 37 0 55 5 17 7 37 5 44 -3 6 1 12 7 12 9 0 11
10 7 30 -4 18 -2 30 4 30 7 0 8 15 4 43 -4 27 -3 37 3 28 14 -20 22 8 10 32
-7 13 -5 35 7 69 9 28 14 57 10 65 -3 9 3 22 12 29 16 12 16 15 3 23 -13 9
-12 12 5 25 15 11 17 17 7 28 -13 16 -5 111 8 103 4 -3 11 3 15 12 3 10 1 19
-4 21 -6 2 -11 13 -11 25 0 16 3 18 9 8 7 -11 9 -11 13 0 3 8 0 22 -6 32 -8
13 -8 20 2 26 7 4 12 19 11 32 -4 46 1 90 10 85 5 -3 12 2 16 11 3 10 1 19 -4
21 -6 2 -11 13 -11 25 0 16 3 18 9 8 7 -11 9 -11 13 0 3 8 0 22 -6 32 -8 13
-8 20 2 26 7 4 12 19 11 32 -4 46 1 90 10 85 5 -3 12 2 16 11 3 10 1 19 -4 21
-6 2 -11 13 -11 25 0 16 3 18 9 8 7 -11 9 -11 13 0 3 8 0 22 -6 32 -8 13 -8
20 1 25 7 4 12 23 13 42 1 81 3 99 12 94 5 -4 7 10 3 33 -4 25 -3 33 3 24 15
-20 22 9 8 32 -8 13 -8 20 1 25 6 4 11 18 11 32 -1 57 6 100 15 100 5 0 7 12
4 27 -3 18 0 31 11 39 14 10 15 15 5 25 -7 7 -13 22 -13 33 0 16 2 18 9 7 13
-20 20 8 9 38 -5 13 -4 37 1 57 5 18 7 43 4 54 -3 12 0 20 6 20 8 0 10 12 6
38 -4 24 -3 32 3 24 7 -11 10 -11 15 2 3 8 2 18 -3 21 -6 4 -10 18 -10 33 0
19 3 23 9 13 14 -21 20 8 9 47 -5 19 -5 46 1 68 5 19 7 42 4 50 -3 8 3 21 13
29 15 11 17 16 7 26 -18 18 -16 40 5 55 14 10 15 15 5 25 -15 15 -18 73 -3 64
14 -9 24 23 12 38 -6 7 -8 42 -5 87 3 41 5 96 4 123 -1 28 3 47 9 47 7 0 9 13
4 35 -4 24 -3 35 6 35 9 0 10 14 5 50 -4 33 -3 50 4 50 6 0 10 26 11 63 0 34
0 74 1 90 0 15 4 27 9 27 5 0 7 15 4 33 -4 21 -3 28 4 19 7 -11 10 -11 15 2 3
8 2 18 -3 21 -6 4 -10 14 -10 23 0 13 2 14 9 3 13 -20 21 8 9 31 -4 10 -5 30
-1 45 4 16 6 36 4 46 -1 9 2 17 8 17 6 0 7 7 4 17 -4 10 -2 14 4 10 6 -4 14 1
18 10 3 10 1 19 -4 21 -14 5 -14 32 -1 32 5 0 9 12 8 28 -1 50 9 93 28 106 14
10 17 26 16 70 -1 33 3 56 9 56 6 0 8 9 4 21 -5 13 -3 19 3 15 5 -3 12 1 16 9
3 8 0 15 -7 15 -9 0 -8 3 1 9 9 5 11 17 6 34 -4 18 -2 27 5 27 19 0 43 70 37
103 -4 21 1 37 20 62 20 26 24 41 19 64 -4 20 -2 32 8 38 23 14 39 53 32 82
-5 23 -2 29 16 34 16 4 20 11 16 26 -3 12 -1 24 4 27 5 3 7 10 4 15 -4 5 6 24
20 43 19 25 24 41 20 59 -5 19 -2 27 13 31 13 4 22 19 27 42 6 34 23 69 67
142 11 18 17 40 14 48 -4 10 3 23 18 35 13 10 27 31 31 46 3 16 13 35 21 45 9
9 14 22 13 30 -3 26 1 38 16 38 18 0 34 28 28 51 -4 12 0 19 9 19 8 0 21 12
29 28 7 15 22 38 31 51 10 14 16 32 13 43 -5 12 -1 18 10 18 9 0 21 13 26 30
6 17 14 30 18 30 13 0 73 99 66 110 -3 5 1 10 9 10 17 0 40 36 32 49 -3 5 3
11 14 14 14 3 20 14 20 31 0 16 6 26 15 26 16 0 65 71 65 94 0 9 8 20 19 25
19 10 67 91 54 91 -4 0 4 12 18 28 37 40 81 111 74 121 -2 5 2 15 11 22 21 17
67 117 59 129 -3 5 3 14 14 20 12 6 23 25 27 45 3 20 12 39 19 43 20 12 34 47
28 70 -4 15 -1 22 10 22 16 0 27 20 27 53 0 11 7 29 16 38 9 10 19 35 21 56 2
21 11 46 20 55 9 10 18 42 21 73 2 30 8 55 12 55 12 0 30 74 23 98 -4 15 1 30
14 45 25 27 37 73 22 82 -6 4 -7 14 -3 24 3 9 8 34 10 56 6 67 8 75 17 75 5 0
6 16 2 36 -5 28 -2 39 12 49 14 11 16 16 6 26 -13 13 -18 91 -6 102 3 4 5 171
4 372 -1 201 1 371 6 377 4 7 6 59 4 116 -3 91 -1 105 16 117 14 11 16 16 6
26 -7 7 -13 33 -13 59 0 28 3 40 9 32 7 -11 9 -11 14 1 3 7 1 20 -4 28 -13 20
-11 69 2 69 8 0 10 15 5 49 -4 31 -3 52 4 56 6 4 8 15 5 25 -3 11 0 20 10 24
18 7 15 26 -16 92 -29 62 -55 80 -121 83 -46 2 -61 -2 -77 -18z m-8 -413 c-3
-57 -9 -104 -14 -106 -12 -5 -11 -49 1 -57 6 -3 10 1 10 9 0 9 3 16 8 16 5 0
7 -676 1 -700 0 -3 -4 6 -9 20 -7 23 -8 23 -15 6 -5 -11 -3 -26 3 -37 7 -11 9
-45 6 -96 -4 -43 -6 -90 -5 -105 0 -16 -4 -28 -10 -28 -6 0 -8 -18 -4 -47 4
-31 3 -43 -3 -35 -7 11 -10 11 -15 -2 -3 -8 -2 -18 3 -21 13 -8 13 -45 1 -45
-6 0 -10 -19 -10 -42 -1 -72 -2 -79 -11 -73 -5 3 -12 -7 -16 -22 -3 -15 -7
-33 -9 -39 -2 -6 2 -17 8 -24 9 -10 9 -14 0 -17 -7 -3 -13 -20 -13 -39 0 -19
-3 -34 -8 -34 -12 0 -32 -76 -32 -120 0 -23 -5 -40 -11 -40 -7 0 -9 -10 -5
-27 4 -19 4 -23 -3 -14 -7 11 -10 9 -16 -8 -3 -11 -4 -30 0 -40 4 -13 0 -23
-11 -29 -11 -6 -15 -17 -12 -30 4 -13 1 -20 -6 -19 -6 1 -11 -10 -11 -25 -1
-15 -9 -36 -19 -47 -16 -17 -35 -72 -38 -108 -1 -7 -7 -14 -15 -17 -7 -3 -13
-14 -13 -24 0 -11 -11 -36 -25 -56 -13 -20 -22 -42 -19 -49 2 -7 -7 -24 -21
-37 -14 -13 -25 -31 -25 -41 0 -9 -7 -22 -15 -29 -9 -7 -14 -19 -11 -26 3 -7
-8 -27 -25 -44 -17 -16 -28 -34 -25 -39 3 -5 -1 -12 -10 -15 -8 -3 -22 -23
-30 -43 -9 -21 -22 -42 -28 -48 -25 -21 -86 -116 -86 -134 0 -10 -7 -24 -15
-31 -8 -7 -29 -37 -46 -66 -17 -30 -37 -54 -45 -54 -18 0 -18 21 1 46 8 10 15
26 15 35 0 9 7 20 16 23 10 4 13 13 9 25 -4 13 2 26 16 39 11 11 18 25 14 31
-3 6 -1 11 5 11 7 0 10 12 8 29 -1 18 5 37 17 51 11 12 19 37 20 58 0 25 9 46
24 61 18 18 22 30 17 56 -5 27 -2 39 19 61 21 23 25 35 21 59 -5 23 -2 33 16
47 17 13 23 27 23 62 0 33 5 49 20 60 14 10 20 26 20 60 0 33 5 49 19 59 12 9
17 20 13 31 -4 9 -2 16 4 16 7 0 9 10 4 27 -5 21 -1 31 15 43 15 11 21 29 23
63 2 31 9 51 21 60 11 8 18 28 20 53 1 24 11 52 24 69 35 44 27 91 -17 100
-13 2 -29 9 -36 15 -28 24 -81 -36 -61 -69 4 -5 -5 -22 -19 -37 -14 -15 -25
-37 -25 -50 0 -13 -11 -40 -25 -60 -14 -21 -23 -44 -20 -52 3 -7 -4 -25 -15
-39 -11 -14 -20 -33 -20 -42 0 -9 -7 -29 -16 -46 -8 -16 -16 -43 -17 -59 -1
-17 -12 -40 -24 -53 -16 -15 -23 -34 -23 -63 0 -27 -4 -40 -14 -40 -18 0 -27
-26 -20 -56 4 -14 2 -24 -4 -24 -13 0 -42 -57 -42 -82 0 -10 -9 -27 -21 -39
-15 -15 -19 -28 -14 -50 4 -17 2 -29 -4 -29 -16 0 -43 -67 -36 -89 4 -15 2
-21 -9 -21 -17 0 -32 -42 -21 -60 4 -6 1 -17 -5 -26 -17 -20 -43 1 -34 29 4
12 2 17 -4 13 -19 -11 -24 14 -8 39 9 13 13 30 10 38 -3 8 2 17 11 21 10 4 15
12 11 22 -3 8 -2 13 3 9 13 -7 17 10 13 56 -3 29 -11 44 -33 60 -29 20 -29 20
-64 -8 -42 -32 -68 -82 -67 -124 0 -18 -4 -29 -13 -29 -19 0 -29 -20 -17 -32
8 -8 8 -17 0 -32 -6 -12 -14 -34 -17 -50 -6 -29 -31 -49 -31 -25 0 6 -8 18
-17 25 -17 13 -17 15 -1 27 11 9 14 18 8 27 -5 8 -5 19 -1 25 5 5 12 31 15 58
4 26 11 45 16 42 16 -10 40 102 27 123 -5 7 -1 26 7 44 9 17 14 40 10 50 -3
10 -1 18 5 18 6 0 7 7 4 17 -4 10 -2 14 4 10 16 -10 22 14 9 42 -8 19 -7 26 8
37 11 8 16 20 12 29 -3 9 -2 14 3 11 5 -3 11 1 15 9 3 8 0 15 -7 15 -8 0 -8 3
2 9 8 5 11 16 7 29 -5 14 0 28 14 42 17 17 20 28 15 52 -5 22 -4 29 5 23 8 -5
11 1 9 22 -2 18 5 41 20 62 17 23 22 40 17 61 -4 23 0 36 20 57 18 20 24 36
22 60 -2 22 4 39 21 57 16 17 21 31 16 46 -5 15 -1 29 13 43 31 35 43 62 31
74 -7 7 -2 19 16 38 23 22 26 33 22 61 -4 25 -2 34 8 34 20 0 38 38 31 66 -4
16 -2 24 7 24 18 0 41 44 34 63 -3 8 5 24 20 37 17 15 23 28 19 43 -3 14 3 28
20 44 18 17 23 29 18 48 -5 19 -2 25 10 25 16 0 52 58 42 68 -4 3 3 16 15 28
14 15 20 31 16 44 -3 13 0 20 9 20 16 0 77 118 70 137 -3 7 1 13 9 13 16 0 39
36 30 49 -8 13 5 41 20 41 11 0 125 186 208 340 16 30 36 62 43 71 8 9 12 23
9 31 -4 9 0 18 9 21 9 4 13 13 10 22 -4 9 -1 15 9 15 13 0 14 -16 10 -102z
m-66 -1400 c-3 -8 -6 -5 -6 6 -1 11 2 17 5 13 3 -3 4 -12 1 -19z m-940 -840
c-3 -8 -6 -5 -6 6 -1 11 2 17 5 13 3 -3 4 -12 1 -19z m-27 -317 c0 -5 -7 -14
-15 -21 -8 -7 -15 -19 -15 -26 0 -8 -7 -14 -15 -14 -11 0 -13 8 -9 33 10 57
12 59 34 47 11 -6 20 -14 20 -19z m-1990 -2045 c0 -8 7 -19 15 -26 18 -15 10
-31 -13 -24 -15 5 -15 4 -2 -8 9 -7 26 -34 38 -60 13 -28 29 -48 38 -48 11 0
14 -5 10 -16 -8 -20 36 -99 59 -108 10 -3 14 -13 11 -23 -3 -10 5 -36 18 -58
13 -22 38 -68 55 -102 18 -35 36 -63 42 -63 6 0 8 -4 5 -9 -7 -11 22 -71 34
-71 5 0 7 -6 4 -13 -3 -8 2 -20 10 -27 9 -7 14 -16 11 -20 -7 -11 53 -123 70
-133 8 -4 12 -14 9 -22 -4 -8 3 -31 15 -50 12 -20 21 -47 21 -59 0 -13 9 -35
20 -49 11 -14 20 -37 20 -51 0 -14 10 -36 22 -48 13 -13 21 -32 20 -45 -4 -28
18 -83 33 -83 6 0 10 -23 10 -51 0 -41 5 -54 23 -67 18 -14 21 -24 16 -48 -4
-21 -1 -36 9 -46 9 -9 13 -24 10 -37 -3 -14 0 -23 12 -27 13 -5 15 -14 10 -45
-5 -29 -3 -39 6 -39 10 0 10 -3 2 -11 -6 -6 -9 -18 -6 -26 5 -12 7 -12 15 -1
6 8 7 0 3 -25 -4 -25 -1 -44 9 -59 11 -15 13 -34 9 -65 -4 -30 -2 -43 6 -43 8
0 12 -15 10 -45 -2 -25 2 -50 9 -57 15 -15 16 -84 2 -93 -6 -3 -13 2 -16 12
-3 10 -10 25 -15 33 -5 8 -13 24 -18 35 -11 25 -167 175 -183 175 -12 0 -27
17 -65 75 -43 67 -72 91 -91 78 -12 -8 -16 -22 -15 -49 2 -28 0 -35 -7 -24
-11 16 -12 12 -12 -40 0 -52 1 -56 12 -40 8 12 10 9 10 -12 0 -15 -4 -29 -10
-33 -5 -3 -7 -12 -4 -20 4 -8 10 -13 14 -10 4 3 10 -7 13 -20 2 -14 1 -28 -3
-30 -13 -8 2 -60 23 -76 11 -9 21 -29 22 -45 1 -16 3 -39 3 -51 1 -12 10 -30
21 -40 21 -21 35 -90 19 -95 -6 -2 -3 -11 7 -21 9 -10 15 -24 12 -31 -3 -8 1
-17 9 -20 17 -7 16 -86 -1 -87 -13 -2 -54 73 -48 88 3 7 0 13 -6 13 -6 0 -11
12 -11 28 0 15 -12 45 -27 67 -15 22 -28 45 -29 50 -3 12 -45 125 -65 173 -7
17 -17 32 -21 32 -4 0 -8 11 -8 24 0 14 -5 28 -10 31 -6 4 -8 15 -5 26 4 12 1
21 -9 25 -11 4 -16 19 -16 49 0 24 -4 47 -10 50 -5 3 -10 17 -10 31 0 14 -7
27 -15 30 -10 4 -12 15 -8 35 4 22 1 35 -14 49 -15 13 -21 32 -21 67 -1 26 -6
49 -11 51 -5 2 -7 12 -4 22 3 11 0 20 -6 20 -7 0 -9 9 -5 25 3 14 2 31 -3 38
-15 18 -22 56 -12 62 4 3 6 12 3 20 -4 8 -10 12 -15 9 -6 -3 -7 5 -3 20 4 18
2 26 -6 26 -9 0 -11 11 -7 35 4 22 2 35 -5 35 -7 0 -8 13 -5 34 4 22 1 36 -6
39 -8 2 -12 26 -11 65 1 34 -3 62 -8 62 -5 0 -6 16 -2 35 4 23 2 35 -5 35 -6
0 -11 21 -11 53 -2 126 -5 172 -12 177 -9 7 -12 606 -3 620 8 13 25 3 25 -14z
m857 -1628 c-3 -8 -6 -5 -6 6 -1 11 2 17 5 13 3 -3 4 -12 1 -19z m3103 -1923
c0 -10 -25 -62 -42 -87 -10 -14 -15 -33 -12 -42 3 -9 1 -16 -5 -16 -6 0 -8 -7
-4 -15 3 -9 -2 -22 -12 -29 -10 -7 -18 -27 -19 -44 0 -18 -7 -34 -15 -37 -7
-3 -11 -12 -7 -20 3 -8 -1 -27 -8 -42 -27 -54 -36 -78 -38 -103 -2 -14 -9 -30
-16 -35 -7 -6 -14 -25 -14 -42 -1 -18 -7 -34 -13 -37 -17 -6 -38 -66 -23 -66
6 0 -1 -12 -16 -26 -14 -15 -26 -33 -26 -40 0 -7 -9 -29 -21 -48 -11 -19 -18
-40 -14 -46 3 -5 2 -10 -4 -10 -13 0 -44 -57 -39 -72 2 -6 -9 -23 -24 -39 -15
-15 -28 -34 -28 -42 0 -8 -7 -20 -15 -27 -15 -13 -45 -67 -45 -82 0 -5 -14
-23 -31 -40 -16 -17 -28 -36 -25 -43 2 -7 -4 -15 -15 -18 -10 -3 -23 -16 -28
-29 -5 -12 -23 -40 -40 -62 -17 -21 -31 -43 -31 -47 0 -5 -6 -9 -12 -9 -13 -1
-68 -80 -68 -98 0 -5 -7 -15 -15 -22 -12 -10 -16 -8 -25 15 -17 44 -12 76 16
102 15 13 23 30 20 38 -3 9 1 15 10 15 8 0 18 8 21 18 4 9 15 28 25 41 10 14
16 32 13 43 -4 12 -1 18 9 18 8 0 20 9 26 20 8 15 8 20 -2 20 -7 0 -2 6 12 13
53 26 32 97 -29 97 -34 0 -96 -45 -115 -83 -8 -18 -35 -53 -60 -80 -25 -26
-46 -51 -46 -56 0 -5 -7 -12 -16 -15 -8 -3 -12 -11 -9 -16 9 -14 -14 -42 -28
-33 -7 4 -8 0 -4 -12 8 -20 -10 -48 -25 -39 -15 10 2 137 21 151 13 9 14 14 4
24 -7 7 -13 27 -13 44 0 20 3 26 9 17 7 -11 9 -11 14 2 3 8 2 18 -3 21 -6 4
-10 11 -10 16 0 6 4 8 9 5 13 -9 19 16 8 34 -6 11 -1 30 17 64 17 32 24 57 20
73 -5 19 -2 25 13 29 14 4 32 31 54 80 19 41 37 74 40 74 7 0 71 89 95 132 6
10 15 18 20 17 5 -1 14 7 19 17 6 11 17 20 25 22 8 2 19 10 23 18 7 12 74 68
146 121 13 10 32 26 42 36 11 9 22 17 25 17 4 0 25 19 47 43 43 43 63 58 107
77 25 11 170 157 170 172 0 4 7 8 15 8 8 0 15 -2 15 -5z"/>
</g>
</svg>
