<?xml version="1.0" standalone="no"?>
<!DOCTYPE svg PUBLIC "-//W3C//DTD SVG 20010904//EN"
 "http://www.w3.org/TR/2001/REC-SVG-20010904/DTD/svg10.dtd">
<svg version="1.0" xmlns="http://www.w3.org/2000/svg"
 width="2000.000000pt" height="2000.000000pt" viewBox="0 0 2000.000000 2000.000000"
 preserveAspectRatio="xMidYMid meet">
<metadata>
Created by potrace 1.16, written by Peter Selinger 2001-2019
</metadata>
<g transform="translate(0.000000,2000.000000) scale(0.100000,-0.100000)"
fill="#000000" stroke="none">
<path d="M9825 17340 c-3 -5 -3 -15 0 -20 4 -6 2 -16 -4 -23 -5 -7 -10 -28
-10 -47 1 -76 -4 -120 -13 -120 -6 0 -7 -11 -4 -25 4 -16 2 -25 -5 -25 -8 0
-9 -11 -5 -31 4 -21 1 -35 -9 -46 -10 -9 -12 -19 -7 -27 5 -6 7 -31 5 -56 -3
-25 -5 -57 -4 -72 0 -16 -4 -28 -10 -28 -6 0 -8 -9 -4 -20 4 -12 0 -26 -10
-36 -12 -12 -13 -20 -6 -27 14 -14 14 -50 1 -42 -15 9 -24 -23 -12 -38 7 -8 9
-33 5 -62 -4 -28 -6 -67 -5 -87 1 -21 -3 -38 -8 -38 -6 0 -7 -20 -4 -47 4 -36
3 -44 -5 -33 -8 11 -9 -4 -5 -57 4 -44 3 -73 -3 -73 -5 0 -9 -135 -9 -345 -1
-190 3 -345 8 -345 12 0 10 -64 -3 -77 -7 -7 -6 -15 5 -26 11 -11 14 -25 10
-46 -4 -18 -2 -31 4 -31 10 0 14 -28 13 -90 0 -19 5 -38 12 -42 9 -6 9 -10 1
-15 -18 -13 20 -83 44 -83 7 0 20 -7 28 -15 23 -23 66 -18 97 11 26 24 28 31
23 77 -15 152 -16 176 -6 182 6 4 10 -9 10 -35 0 -25 4 -39 10 -35 14 9 13 85
-1 85 -9 0 -10 85 -5 328 4 180 7 405 6 500 -1 94 2 172 7 172 4 0 8 124 8
275 0 151 -3 275 -7 275 -4 0 -7 8 -7 18 -1 61 -8 110 -20 131 -10 18 -10 25
-1 31 9 5 6 13 -10 27 -15 15 -19 27 -15 45 4 16 -1 32 -14 50 -12 14 -21 33
-21 41 0 8 -7 18 -16 21 -21 8 -22 8 -29 -4z"/>
<path d="M11184 15063 c-3 -10 -4 -20 -2 -23 2 -3 -8 -17 -20 -30 -25 -26 -72
-122 -72 -146 0 -8 -4 -14 -9 -14 -5 0 -14 -15 -21 -32 -7 -18 -21 -42 -31
-53 -9 -11 -19 -29 -21 -40 -1 -11 -11 -29 -20 -39 -16 -18 -23 -37 -19 -58 0
-5 -3 -8 -7 -8 -13 0 -32 -48 -26 -63 3 -8 -7 -22 -21 -31 -20 -13 -26 -24
-22 -42 2 -13 0 -24 -4 -24 -16 0 -109 -198 -109 -232 0 -9 -13 -32 -30 -51
-21 -24 -26 -37 -18 -45 12 -12 3 -32 -16 -32 -14 0 -61 -105 -59 -133 1 -9
-10 -29 -24 -43 -19 -19 -24 -32 -20 -54 5 -23 1 -31 -18 -44 -19 -12 -25 -25
-25 -51 0 -19 -4 -35 -9 -35 -9 0 -45 -83 -42 -95 1 -3 -5 -13 -14 -22 -9 -8
-14 -22 -11 -29 3 -8 -6 -25 -20 -39 -18 -18 -25 -34 -21 -50 2 -16 -3 -31
-14 -41 -11 -10 -19 -30 -19 -45 0 -17 -10 -38 -26 -54 -18 -18 -24 -33 -21
-47 4 -12 -2 -31 -14 -47 -11 -15 -21 -38 -22 -51 -1 -14 -9 -32 -19 -42 -10
-10 -20 -30 -23 -45 -4 -16 -13 -40 -21 -55 -8 -16 -12 -28 -7 -28 4 0 0 -5
-10 -11 -13 -8 -15 -14 -7 -29 8 -15 6 -21 -10 -30 -15 -8 -43 -75 -42 -100 0
-3 -6 -9 -15 -13 -10 -6 -13 -17 -9 -33 5 -19 -1 -34 -23 -61 -17 -20 -28 -40
-25 -45 3 -5 -2 -18 -11 -28 -10 -11 -18 -33 -19 -51 -1 -17 -9 -37 -19 -43
-9 -7 -19 -30 -21 -50 -3 -20 -12 -44 -21 -52 -8 -9 -13 -20 -10 -25 4 -5 1
-9 -4 -9 -6 0 -11 -9 -11 -19 0 -11 -5 -23 -10 -26 -6 -4 -8 -10 -5 -15 3 -4
-2 -11 -11 -14 -12 -5 -15 -14 -10 -37 4 -23 2 -31 -12 -36 -25 -10 -33 -25
-26 -55 4 -20 0 -29 -15 -37 -10 -6 -22 -25 -26 -43 -4 -18 -14 -41 -22 -50
-9 -9 -16 -30 -17 -45 0 -16 -11 -39 -22 -51 -12 -13 -20 -31 -17 -40 2 -10
-1 -31 -7 -46 -15 -39 -34 -20 -32 32 1 27 -9 60 -33 108 -19 38 -35 74 -35
81 0 6 -11 25 -25 42 -19 21 -24 36 -20 54 5 18 2 28 -10 34 -9 6 -16 14 -16
19 2 21 -31 103 -44 108 -8 3 -11 13 -8 24 2 11 -4 38 -16 61 -11 23 -18 48
-15 56 3 7 -4 19 -16 25 -14 8 -19 17 -15 30 3 10 1 21 -5 25 -5 3 -10 20 -10
36 0 19 -9 38 -24 52 -17 16 -22 30 -19 52 3 22 -2 37 -20 57 -17 18 -23 34
-20 52 3 15 -4 45 -18 73 -13 26 -25 57 -25 68 -1 10 -6 21 -12 23 -6 2 -9 9
-6 16 3 8 -2 16 -11 19 -11 5 -14 14 -10 30 5 18 2 26 -11 31 -14 5 -15 9 -6
15 10 6 8 14 -8 34 -13 17 -19 34 -15 46 3 11 -1 25 -9 34 -8 8 -12 17 -9 21
3 3 1 11 -5 18 -5 7 -13 31 -17 53 -4 22 -15 48 -23 58 -9 10 -17 36 -17 59
-1 25 -7 45 -17 52 -9 7 -19 32 -22 56 -4 29 -13 50 -26 60 -16 12 -19 22 -14
47 5 25 1 37 -19 57 -17 17 -23 32 -20 50 3 16 -3 36 -16 55 -12 16 -21 40
-21 54 0 14 -6 27 -14 30 -9 4 -12 14 -9 25 2 11 0 23 -6 26 -6 4 -11 20 -11
36 0 16 -11 42 -26 59 -14 17 -23 35 -19 40 3 6 -3 29 -14 51 -11 23 -23 55
-27 73 -3 17 -17 48 -30 68 -12 20 -21 39 -18 42 3 3 0 16 -7 29 -7 12 -14 32
-16 43 -2 11 -12 32 -23 47 -11 15 -20 32 -20 39 0 6 -9 28 -19 48 -10 20 -25
51 -31 69 -7 17 -16 32 -20 32 -4 0 -10 18 -14 41 -5 29 -12 43 -26 46 -23 6
-26 19 -7 26 8 4 3 14 -15 31 -16 14 -28 36 -28 49 0 32 -18 46 -55 43 -65 -4
-112 -49 -85 -81 8 -10 10 -31 5 -64 -4 -31 -3 -51 4 -56 14 -8 14 -58 0 -72
-7 -7 -6 -15 6 -26 12 -12 14 -27 10 -54 -5 -30 -4 -35 5 -23 9 12 10 7 5 -22
-3 -22 -1 -39 6 -43 7 -5 8 -27 4 -66 -5 -40 -3 -59 4 -59 14 0 14 -53 0 -67
-7 -7 -6 -15 6 -26 10 -11 13 -25 9 -42 -4 -15 -2 -25 5 -25 11 0 13 -19 12
-132 0 -39 4 -68 9 -68 13 0 13 -53 -1 -67 -7 -7 -5 -15 7 -28 14 -14 15 -21
6 -36 -9 -14 -8 -21 2 -32 16 -15 18 -33 16 -129 0 -41 4 -68 10 -68 13 0 13
-53 -1 -67 -7 -7 -5 -15 7 -28 14 -14 15 -21 6 -36 -9 -14 -8 -21 4 -33 9 -9
13 -24 9 -35 -3 -11 -1 -22 5 -26 8 -5 9 -28 5 -71 -6 -47 -4 -64 5 -64 9 0
10 -14 5 -52 -4 -38 -3 -49 4 -38 9 12 11 10 11 -11 0 -14 -5 -30 -11 -36 -7
-7 -6 -15 6 -27 10 -9 14 -24 10 -35 -3 -11 -1 -22 6 -26 7 -5 9 -25 4 -60 -4
-34 -2 -55 4 -60 14 -8 14 -58 0 -72 -14 -14 -3 -47 12 -37 8 5 9 -6 5 -37 -6
-34 -5 -41 4 -29 9 12 10 7 5 -22 -3 -22 -1 -39 6 -43 7 -5 8 -27 4 -66 -5
-40 -3 -59 4 -59 14 0 14 -53 0 -67 -7 -7 -6 -15 6 -26 10 -11 13 -25 9 -42
-4 -15 -2 -25 5 -25 11 0 13 -19 12 -132 0 -39 4 -68 9 -68 13 0 13 -53 -1
-67 -7 -7 -5 -15 7 -28 14 -14 15 -21 6 -36 -9 -14 -8 -21 2 -32 16 -15 18
-33 17 -129 0 -39 4 -68 9 -68 6 0 10 -15 10 -33 0 -18 5 -38 11 -44 8 -8 8
-13 0 -18 -7 -3 -28 10 -49 31 -20 21 -52 46 -70 56 -17 10 -41 27 -52 38 -11
11 -29 20 -39 20 -11 0 -21 4 -23 9 -3 10 -95 81 -104 81 -3 0 -42 27 -86 60
-43 33 -85 60 -93 60 -7 0 -15 7 -19 15 -3 8 -10 15 -17 15 -6 0 -20 11 -31
25 -11 14 -28 25 -38 25 -10 0 -20 7 -24 15 -3 8 -11 15 -18 15 -7 0 -19 9
-26 20 -7 11 -17 20 -23 20 -6 0 -20 11 -31 25 -11 14 -24 25 -29 25 -5 0 -18
9 -29 20 -11 11 -27 20 -35 20 -8 0 -15 4 -15 9 0 4 -67 61 -150 126 -82 65
-150 121 -150 126 0 4 -8 10 -17 13 -10 4 -37 24 -61 46 -24 22 -46 40 -50 40
-4 0 -26 17 -49 38 -23 20 -54 46 -68 57 -13 11 -36 30 -50 43 -15 12 -29 22
-33 22 -4 0 -26 18 -50 40 -24 22 -49 40 -57 40 -8 0 -15 4 -15 8 0 10 -135
112 -148 112 -6 0 -12 7 -16 15 -3 8 -11 15 -18 15 -7 0 -19 9 -26 20 -7 11
-16 20 -21 20 -5 0 -31 20 -57 45 -25 25 -53 45 -60 45 -8 0 -14 5 -14 10 0 6
-8 14 -17 17 -9 4 -25 15 -35 25 -10 10 -24 18 -32 18 -8 0 -17 9 -21 19 -3
11 -18 24 -33 30 -37 15 -63 32 -83 56 -10 12 -36 30 -58 40 -22 11 -41 26
-41 32 0 7 -12 16 -27 19 -16 4 -34 16 -42 26 -7 11 -23 24 -35 29 -31 14 -61
33 -81 49 -9 8 -25 19 -35 25 -10 5 -40 25 -66 43 -47 33 -47 33 -95 -14 -27
-27 -49 -51 -49 -54 0 -17 64 -100 77 -100 8 0 12 -4 9 -9 -3 -4 8 -23 25 -42
17 -19 43 -51 56 -71 14 -21 29 -38 33 -38 4 0 11 -11 14 -25 4 -14 14 -25 23
-25 9 0 13 -3 10 -6 -10 -11 12 -44 30 -44 9 0 13 -3 10 -6 -10 -11 12 -44 30
-44 9 0 13 -3 10 -6 -9 -9 11 -44 26 -44 7 0 18 -14 26 -31 8 -18 25 -41 38
-53 14 -11 31 -34 38 -51 7 -16 26 -45 41 -62 62 -69 74 -85 74 -94 0 -5 7 -9
15 -9 8 0 15 -8 15 -17 0 -21 47 -76 73 -86 9 -3 17 -14 17 -24 0 -24 50 -93
68 -93 8 0 12 -3 9 -6 -10 -10 12 -44 29 -44 8 0 13 -4 10 -9 -3 -5 5 -20 18
-34 13 -13 44 -57 70 -96 26 -39 51 -71 55 -71 4 0 13 -11 19 -25 6 -14 19
-25 27 -25 9 0 14 -4 11 -9 -5 -7 19 -44 52 -82 59 -67 83 -97 88 -111 3 -10
9 -18 14 -18 5 0 12 -9 15 -20 3 -11 14 -20 22 -20 9 0 13 -3 10 -6 -10 -11
12 -44 30 -44 9 0 13 -3 10 -6 -10 -10 12 -44 28 -44 8 0 14 -4 12 -9 -3 -13
22 -49 56 -79 15 -14 27 -30 27 -36 0 -19 53 -86 68 -86 8 0 12 -3 9 -6 -10
-10 12 -44 29 -44 8 0 13 -4 10 -9 -3 -5 4 -20 17 -33 12 -14 29 -35 37 -48 8
-12 26 -33 38 -45 13 -12 29 -31 35 -42 39 -64 53 -83 63 -83 6 0 11 -6 11
-13 0 -15 43 -77 54 -77 3 0 19 -19 35 -42 38 -56 43 -63 79 -101 16 -18 30
-38 31 -45 2 -8 4 -15 6 -15 46 -23 62 -35 58 -42 -5 -11 -31 -11 -70 0 -19 5
-22 4 -10 -4 11 -8 -18 -11 -107 -11 -69 0 -123 4 -123 9 0 6 -32 7 -75 4 -57
-5 -75 -3 -75 7 0 9 -16 11 -64 5 -43 -4 -66 -3 -71 5 -4 7 -19 9 -36 5 -19
-4 -29 -3 -29 5 0 7 -13 9 -37 5 -30 -5 -35 -4 -23 5 12 9 5 10 -32 6 -28 -3
-50 -1 -54 5 -4 7 -24 8 -54 4 -31 -4 -50 -3 -55 5 -4 6 -20 8 -41 4 -22 -4
-34 -2 -34 5 0 7 -16 9 -47 5 -37 -4 -45 -3 -33 6 11 8 1 9 -42 4 -41 -4 -58
-3 -58 5 0 8 -20 10 -69 6 -45 -4 -72 -2 -76 5 -4 6 -20 8 -41 4 -22 -4 -34
-2 -34 5 0 7 -16 9 -47 5 -37 -4 -45 -3 -33 6 11 8 1 9 -42 4 -40 -4 -58 -3
-58 5 0 7 -25 11 -72 10 -103 -1 -119 1 -136 18 -10 10 -18 11 -25 4 -6 -6
-25 -11 -41 -11 -25 0 -28 2 -16 11 11 7 0 8 -38 4 -32 -4 -58 -3 -65 4 -7 6
-42 10 -78 10 -110 -1 -129 1 -129 11 0 6 -19 7 -47 4 -37 -4 -45 -3 -33 6 11
8 2 9 -41 4 -39 -4 -59 -2 -64 6 -5 8 -26 9 -70 5 -42 -5 -65 -3 -70 4 -4 7
-19 9 -41 5 -22 -4 -34 -2 -34 5 0 8 -13 9 -40 5 -27 -5 -40 -3 -40 5 0 8 -15
10 -50 5 -30 -4 -50 -3 -50 3 0 13 -128 9 -162 -5 -14 -6 -38 -27 -53 -46 -24
-32 -26 -39 -16 -64 15 -35 68 -69 128 -83 27 -6 65 -19 85 -30 20 -10 43 -19
51 -19 7 0 31 -9 52 -19 22 -10 45 -16 53 -14 7 3 24 -5 37 -17 16 -15 37 -23
57 -23 20 0 42 -8 55 -20 14 -12 36 -20 55 -20 18 0 40 -5 48 -12 19 -16 61
-30 78 -26 8 1 21 -4 30 -12 20 -17 62 -32 80 -28 8 1 21 -4 30 -12 20 -17 62
-32 80 -28 8 1 21 -4 30 -12 20 -17 62 -32 81 -28 7 1 24 -8 37 -20 13 -12 37
-22 56 -23 18 -1 44 -9 58 -18 14 -9 38 -20 55 -24 16 -4 36 -13 43 -20 7 -7
19 -11 26 -8 8 3 17 1 20 -5 4 -6 13 -8 21 -5 8 3 29 -6 48 -20 19 -14 44 -26
56 -26 12 0 29 -7 37 -15 8 -8 21 -12 28 -9 8 3 17 1 20 -5 4 -6 13 -8 20 -5
7 3 30 -6 51 -20 21 -14 48 -26 60 -26 12 0 28 -7 35 -15 7 -8 28 -17 47 -21
19 -4 51 -14 71 -24 20 -10 41 -16 48 -13 6 2 28 -7 49 -21 21 -14 45 -26 54
-26 9 0 34 -9 56 -20 22 -11 46 -20 54 -20 7 0 19 -7 25 -16 7 -9 28 -16 52
-17 22 -1 53 -11 72 -23 18 -13 39 -21 47 -18 8 3 29 -6 48 -20 19 -14 44 -26
57 -26 13 0 31 -7 41 -16 9 -8 37 -17 61 -19 23 -1 56 -8 72 -14 27 -11 28
-13 13 -28 -13 -13 -19 -14 -31 -3 -13 10 -16 10 -16 -4 0 -9 -7 -16 -16 -16
-9 0 -33 -8 -53 -19 -20 -10 -53 -26 -73 -34 -21 -9 -38 -22 -38 -28 0 -6 -9
-9 -19 -6 -11 2 -33 -4 -50 -14 -18 -11 -37 -19 -45 -19 -7 0 -30 -12 -51 -26
-21 -14 -43 -23 -50 -20 -7 2 -27 -4 -44 -15 -18 -11 -46 -21 -64 -23 -17 -2
-36 -11 -42 -19 -6 -9 -29 -18 -50 -20 -21 -3 -44 -12 -50 -21 -7 -9 -19 -16
-28 -16 -9 0 -19 -5 -22 -11 -4 -6 -13 -8 -20 -5 -8 3 -25 -4 -39 -15 -14 -11
-31 -19 -38 -18 -19 3 -68 -12 -68 -21 0 -4 -17 -10 -38 -14 -22 -3 -50 -14
-63 -24 -13 -11 -39 -19 -56 -19 -18 0 -41 -7 -51 -16 -10 -10 -26 -17 -35
-17 -10 0 -25 -4 -35 -9 -43 -23 -99 -46 -114 -47 -10 -1 -23 -6 -30 -11 -7
-6 -29 -13 -49 -17 -21 -4 -49 -16 -63 -27 -15 -12 -32 -19 -39 -16 -7 3 -30
-4 -52 -14 -21 -10 -46 -19 -54 -19 -9 0 -32 -10 -51 -22 -19 -13 -50 -23 -68
-24 -18 -1 -40 -9 -50 -18 -10 -9 -29 -16 -43 -16 -13 0 -35 -9 -49 -20 -14
-11 -36 -20 -48 -20 -13 0 -36 -8 -50 -19 -15 -10 -44 -21 -64 -25 -22 -4 -42
-15 -48 -26 -6 -12 -20 -19 -33 -18 -12 1 -36 -5 -52 -13 -17 -9 -51 -25 -78
-37 -26 -12 -66 -30 -90 -40 -23 -11 -57 -25 -74 -32 -18 -7 -33 -16 -33 -21
0 -4 -18 -13 -41 -19 -22 -6 -43 -18 -46 -26 -3 -9 -12 -13 -21 -9 -8 3 -29
-6 -48 -20 -18 -14 -40 -25 -49 -25 -9 0 -27 -11 -41 -25 -25 -25 -25 -25 2
-72 37 -64 41 -68 58 -54 8 7 25 9 40 5 16 -4 26 -2 26 5 0 11 17 13 128 11
41 0 62 3 62 11 0 8 15 9 48 5 36 -5 43 -4 32 4 -12 9 -5 10 28 6 23 -4 42 -2
42 3 0 9 37 13 122 12 26 -1 50 4 53 9 4 6 23 7 46 4 28 -5 39 -3 39 6 0 9 10
10 35 6 22 -4 35 -3 35 4 0 10 19 12 128 11 39 -1 62 3 62 10 0 8 15 9 48 5
36 -5 43 -4 32 4 -12 9 -5 10 28 6 25 -4 42 -2 42 4 0 10 16 11 114 11 28 0
55 4 62 10 8 6 32 8 61 4 37 -5 45 -4 33 5 -12 9 -4 10 35 5 35 -4 45 -3 35 4
-15 11 13 13 128 11 33 0 52 4 52 11 0 8 13 9 40 5 27 -4 40 -3 40 5 0 7 12 9
35 5 22 -4 35 -3 35 4 0 5 15 10 33 10 17 0 60 0 95 0 39 0 62 4 62 11 0 8 15
9 48 5 33 -5 43 -4 32 3 -12 9 -10 11 11 11 14 0 30 -5 36 -11 7 -7 14 -6 24
3 15 15 35 18 114 19 28 0 55 5 62 10 6 6 28 7 47 3 25 -4 36 -3 36 6 0 9 11
10 35 6 21 -4 35 -3 35 3 0 10 36 13 138 11 32 0 52 4 52 11 0 8 15 9 48 5 36
-5 43 -4 32 4 -12 9 -5 10 28 6 23 -4 42 -2 42 3 0 8 50 13 124 12 22 0 45 4
52 10 8 6 32 8 61 4 35 -5 44 -4 33 4 -12 9 -11 11 8 11 13 0 32 5 43 11 12 6
27 8 35 5 19 -7 6 -36 -16 -36 -17 0 -36 -40 -31 -67 1 -7 -5 -13 -13 -13 -17
0 -65 -88 -58 -108 2 -6 -3 -12 -12 -12 -17 0 -49 -53 -39 -64 4 -3 -1 -6 -10
-6 -10 0 -17 -4 -17 -9 0 -4 -12 -24 -27 -43 -16 -20 -35 -46 -43 -58 -8 -13
-25 -34 -37 -48 -13 -13 -20 -28 -17 -33 3 -5 -2 -9 -10 -9 -17 0 -39 -34 -29
-44 3 -3 -1 -6 -10 -6 -17 0 -51 -53 -40 -64 4 -3 -1 -6 -10 -6 -10 0 -17 -4
-17 -9 0 -6 -12 -23 -26 -38 -15 -15 -38 -46 -53 -68 -14 -22 -32 -46 -39 -53
-7 -8 -10 -18 -7 -23 4 -5 0 -9 -8 -9 -8 0 -32 -26 -53 -57 -22 -32 -45 -64
-52 -71 -7 -8 -10 -18 -7 -23 4 -5 0 -9 -9 -9 -8 0 -27 -21 -43 -46 -15 -25
-38 -57 -50 -71 -13 -14 -20 -29 -17 -34 3 -5 -1 -9 -10 -9 -8 0 -27 -21 -43
-46 -15 -25 -38 -57 -50 -71 -13 -14 -20 -29 -17 -34 3 -5 -1 -9 -9 -9 -9 0
-29 -21 -46 -47 -39 -61 -80 -115 -124 -163 -8 -8 -20 -26 -27 -40 -7 -14 -20
-32 -29 -41 -9 -9 -23 -26 -31 -39 -8 -12 -25 -33 -37 -46 -13 -14 -23 -29
-23 -34 0 -5 -10 -20 -22 -34 -13 -13 -30 -34 -38 -46 -8 -12 -27 -35 -42 -53
-16 -17 -28 -39 -28 -49 0 -10 -7 -18 -15 -18 -8 0 -15 -4 -15 -8 0 -8 -11
-23 -60 -80 -11 -13 -20 -30 -20 -37 0 -11 -23 -40 -95 -116 -8 -9 -15 -22
-15 -30 0 -8 -19 -34 -41 -58 -63 -68 -79 -100 -79 -156 1 -46 4 -52 37 -77
53 -41 82 -37 145 20 47 43 133 112 196 160 12 9 33 27 45 38 19 18 66 56 204
162 12 9 39 32 60 50 21 19 50 40 65 48 16 8 28 21 28 30 0 8 4 13 9 10 4 -3
26 11 47 30 21 19 51 42 67 50 15 8 27 19 27 24 0 5 9 12 20 15 11 3 20 13 20
21 0 8 4 14 9 14 8 0 48 29 121 89 150 123 209 174 214 187 3 8 10 14 16 14
16 0 120 79 127 96 3 8 9 14 15 14 5 0 43 26 85 58 41 31 84 64 96 72 12 8 36
27 52 42 17 16 38 31 48 34 9 3 17 9 17 13 0 4 45 43 100 86 55 42 100 81 100
86 0 5 7 9 15 9 8 0 23 8 33 18 10 9 26 22 34 27 48 31 76 54 111 88 21 20 42
37 47 37 10 0 110 101 110 112 0 4 7 8 16 8 11 0 14 -5 9 -17 -4 -10 -8 -31
-11 -47 -2 -16 -9 -33 -15 -37 -8 -4 -9 -26 -4 -67 4 -40 3 -62 -5 -67 -6 -4
-8 -15 -5 -26 4 -11 0 -26 -10 -35 -12 -13 -13 -19 -3 -31 9 -11 9 -16 -1 -22
-8 -5 -10 -21 -5 -49 4 -28 3 -42 -5 -42 -6 0 -11 -19 -10 -47 0 -65 -4 -93
-14 -93 -5 0 -6 -19 -2 -42 5 -33 4 -40 -5 -28 -9 12 -10 7 -5 -22 4 -24 2
-38 -4 -38 -6 0 -10 -20 -9 -47 3 -54 -1 -71 -20 -92 -11 -11 -11 -16 -1 -22
9 -5 8 -11 -4 -24 -14 -13 -14 -20 -4 -36 10 -16 9 -21 -2 -28 -9 -6 -12 -18
-7 -35 4 -16 0 -38 -9 -57 -10 -19 -14 -41 -10 -60 4 -18 3 -29 -4 -29 -7 0
-9 -10 -5 -25 4 -16 2 -25 -6 -25 -8 0 -10 -10 -6 -34 5 -25 1 -43 -15 -70
-11 -20 -16 -36 -10 -36 6 0 11 -7 11 -15 0 -8 -5 -15 -10 -15 -6 0 -8 -11 -4
-25 4 -16 2 -25 -5 -25 -7 0 -11 -15 -10 -37 3 -45 -1 -63 -20 -82 -9 -11 -10
-16 -2 -19 14 -5 15 -32 1 -32 -6 0 -8 -11 -4 -25 4 -16 2 -25 -6 -25 -8 0
-10 -10 -6 -34 4 -21 2 -37 -4 -41 -6 -4 -9 -13 -6 -21 3 -7 1 -16 -5 -20 -5
-3 -7 -15 -3 -26 4 -15 3 -18 -6 -13 -10 6 -11 -1 -6 -29 4 -21 3 -36 -3 -36
-5 0 -8 -17 -8 -37 1 -45 -3 -62 -22 -82 -9 -11 -10 -16 -2 -19 6 -2 11 -11
11 -20 0 -15 -2 -15 -10 -2 -7 11 -10 6 -9 -20 1 -85 -10 -148 -28 -168 -10
-10 -10 -17 0 -33 9 -15 9 -21 0 -27 -7 -4 -12 -16 -12 -27 -1 -64 -15 -162
-24 -171 -3 -3 -4 -20 -1 -38 5 -25 3 -28 -6 -16 -9 12 -10 6 -5 -27 5 -29 3
-43 -4 -43 -7 0 -11 -20 -11 -52 1 -70 -2 -98 -13 -98 -4 0 -5 -21 -2 -47 5
-37 4 -45 -5 -33 -9 11 -10 3 -5 -37 4 -33 3 -53 -3 -53 -6 0 -10 -31 -10 -72
0 -40 -3 -87 -7 -103 -8 -35 17 -64 57 -69 13 -1 29 -6 36 -10 30 -18 103 71
89 108 -3 8 0 17 8 20 20 7 51 69 36 74 -16 5 -14 22 4 22 18 0 38 35 33 58
-2 9 4 24 14 32 10 8 20 28 22 44 3 16 12 36 20 45 8 9 17 28 20 43 2 15 14
39 25 55 11 15 22 37 24 48 2 11 9 30 15 43 7 12 9 22 5 22 -4 0 2 7 13 16 13
11 15 17 7 20 -18 8 -16 24 1 24 13 0 54 86 48 103 -1 4 2 7 7 7 9 0 37 70 32
79 -2 2 1 7 6 10 12 7 63 119 63 136 0 7 6 18 14 24 8 7 18 27 22 44 3 18 15
44 25 59 11 14 19 34 19 43 0 9 9 28 19 41 11 13 17 33 14 43 -3 11 5 28 21
44 16 16 26 37 26 54 0 17 8 33 19 40 21 13 35 53 18 53 -7 1 -5 6 4 13 22 17
79 135 79 164 0 12 4 23 10 23 17 0 40 56 28 68 -12 12 -2 32 17 32 7 0 19 16
25 36 7 20 28 68 47 106 19 38 33 77 31 86 -2 9 5 25 15 35 10 10 15 22 12 26
-2 5 2 12 11 15 13 5 14 9 4 21 -14 16 -5 35 15 35 15 0 32 46 21 57 -3 3 2
12 12 19 16 11 42 74 41 98 0 5 3 12 8 15 18 12 63 124 57 143 -3 12 0 18 10
18 14 0 20 12 17 33 0 4 4 7 10 7 7 0 9 9 5 24 -4 18 -1 25 12 28 15 4 42 63
43 95 0 5 7 12 15 16 8 4 14 16 14 25 0 10 9 35 20 57 11 22 20 49 20 61 0 12
6 24 12 26 7 3 13 19 14 36 2 35 21 65 35 56 16 -9 10 -42 -8 -47 -17 -4 -17
-5 0 -6 9 0 17 -8 17 -16 0 -9 7 -18 15 -21 8 -4 15 -17 15 -29 0 -33 10 -55
25 -55 19 0 29 -20 17 -32 -13 -13 15 -61 29 -52 5 3 9 -5 9 -18 0 -13 9 -41
20 -63 11 -22 20 -45 20 -53 0 -7 8 -27 17 -45 9 -18 16 -36 15 -40 -4 -12 28
-67 38 -67 6 0 10 -6 10 -12 0 -25 21 -87 33 -100 7 -7 13 -24 15 -38 1 -14 9
-30 17 -36 8 -6 15 -23 15 -37 0 -14 8 -30 17 -36 10 -5 15 -13 11 -17 -4 -3
-2 -16 4 -28 6 -11 13 -32 14 -45 2 -13 10 -31 18 -40 8 -9 18 -36 22 -60 4
-24 14 -47 25 -54 13 -8 16 -19 12 -38 -3 -18 1 -33 14 -46 10 -10 19 -32 21
-48 1 -17 8 -34 15 -40 8 -5 12 -16 10 -22 -3 -7 2 -15 10 -18 8 -4 14 -21 15
-43 1 -20 8 -42 17 -48 8 -6 15 -25 15 -43 0 -17 6 -34 13 -37 7 -2 14 -19 15
-37 1 -17 9 -37 17 -43 8 -6 15 -19 15 -28 0 -9 7 -19 15 -23 10 -3 15 -16 14
-32 -4 -46 1 -59 21 -64 16 -4 19 -11 14 -37 -5 -23 -1 -39 15 -60 11 -16 21
-39 21 -52 0 -28 9 -42 32 -51 13 -5 16 -14 11 -41 -4 -28 -1 -39 20 -59 14
-15 25 -37 25 -53 0 -15 7 -33 16 -39 9 -7 16 -21 16 -33 0 -11 12 -34 26 -51
16 -20 23 -37 19 -50 -6 -19 51 -151 65 -151 4 0 11 -16 14 -35 4 -20 16 -39
28 -46 14 -8 17 -13 9 -18 -16 -10 6 -61 26 -61 7 0 13 -11 13 -24 0 -35 10
-56 26 -56 8 0 14 -10 14 -24 0 -38 10 -56 31 -56 16 0 18 -5 13 -25 -5 -19 1
-32 27 -57 35 -36 42 -36 107 -7 41 19 53 41 31 55 -7 4 -8 20 -4 42 4 23 2
37 -6 43 -10 6 -10 11 -1 22 10 12 10 18 -1 28 -15 16 -19 41 -17 117 0 32 -4
52 -11 52 -8 0 -9 15 -5 48 5 35 4 43 -4 32 -9 -11 -10 -5 -5 28 5 29 3 42 -5
42 -7 0 -9 8 -5 19 3 11 1 22 -5 26 -7 5 -9 26 -4 61 5 40 3 54 -6 54 -9 0
-10 10 -6 35 5 23 3 35 -4 35 -8 0 -10 13 -5 40 5 27 3 40 -5 40 -7 0 -9 8 -5
19 3 11 1 22 -5 26 -7 4 -8 27 -4 66 5 42 3 59 -5 59 -8 0 -10 12 -6 38 5 27
4 33 -4 22 -9 -13 -11 -12 -11 6 0 11 5 25 11 31 7 7 6 14 -3 24 -16 16 -20
41 -18 117 0 29 -4 52 -10 52 -13 0 -13 43 1 57 7 7 5 15 -6 27 -13 13 -14 20
-6 30 9 11 8 17 -2 27 -15 16 -19 41 -17 117 0 32 -4 52 -11 52 -7 0 -9 12 -5
35 4 22 3 35 -4 35 -13 0 -13 33 1 47 7 7 6 15 -5 26 -9 8 -13 22 -10 30 3 8
0 18 -6 22 -7 5 -9 25 -4 61 4 39 3 54 -6 54 -8 0 -10 12 -5 43 5 32 4 39 -5
27 -9 -12 -10 -7 -5 23 3 22 2 37 -4 37 -11 0 -13 19 -12 113 0 34 -4 57 -10
57 -8 0 -9 15 -5 45 5 30 4 45 -4 45 -6 0 -8 10 -4 25 4 15 2 25 -5 25 -11 0
-13 18 -11 113 0 36 -4 57 -11 57 -8 0 -9 15 -5 48 5 33 4 43 -3 32 -9 -13
-11 -12 -11 6 0 11 5 25 11 31 7 7 6 15 -5 26 -9 8 -13 22 -10 30 3 8 0 18 -6
22 -7 5 -9 25 -4 61 4 37 3 54 -5 54 -6 0 -11 16 -11 35 0 19 -6 44 -12 55 -9
14 -9 23 -2 30 13 13 65 -24 61 -43 -1 -7 3 -11 9 -10 6 1 22 -9 34 -22 13
-14 27 -25 32 -25 12 0 71 -42 81 -57 4 -7 13 -13 19 -13 6 0 35 -20 64 -45
28 -25 57 -45 62 -45 5 0 12 -7 16 -15 3 -8 12 -15 19 -15 8 0 22 -9 32 -20
10 -11 24 -20 31 -20 7 0 18 -9 24 -20 6 -11 15 -20 21 -20 5 0 29 -20 53 -45
25 -25 49 -45 55 -45 6 0 11 -7 11 -15 0 -8 4 -15 9 -15 4 0 31 -18 59 -40 27
-22 54 -40 60 -40 5 0 22 -18 37 -40 15 -22 36 -42 46 -45 10 -3 29 -19 42
-34 12 -15 30 -32 39 -37 9 -5 65 -52 124 -104 60 -52 112 -95 116 -95 4 0 20
-17 35 -37 26 -34 94 -88 112 -88 4 0 20 -18 37 -39 16 -22 38 -45 49 -50 34
-18 54 -34 115 -91 33 -30 89 -77 126 -105 37 -27 99 -75 138 -106 39 -30 87
-64 106 -75 19 -10 41 -27 49 -37 7 -10 23 -23 35 -28 35 -16 66 -35 89 -56
12 -10 40 -28 62 -39 22 -10 42 -21 45 -24 35 -35 40 -34 84 9 40 39 43 46 35
73 -8 30 -20 46 -66 90 -13 12 -23 27 -23 33 0 6 -18 36 -40 66 -23 30 -49 65
-58 78 -9 13 -24 31 -32 40 -8 9 -30 40 -49 69 -18 28 -40 52 -48 52 -8 0 -12
4 -9 8 5 8 -62 108 -102 152 -23 25 -33 39 -56 75 -22 33 -33 48 -57 73 -9 9
-31 41 -49 70 -17 28 -38 52 -46 52 -9 0 -13 4 -10 9 3 4 -3 19 -14 31 -11 13
-20 27 -20 31 0 4 -10 19 -22 33 -13 13 -30 34 -38 46 -66 97 -115 160 -126
160 -6 0 -17 14 -23 30 -5 17 -16 37 -23 44 -7 7 -20 24 -28 37 -8 12 -25 33
-37 46 -12 12 -24 30 -27 40 -3 10 -19 33 -36 51 -17 19 -37 47 -45 63 -9 16
-22 29 -30 29 -8 0 -14 4 -13 9 4 11 -19 46 -49 78 -12 12 -24 32 -28 43 -3
11 -13 20 -21 20 -8 0 -14 7 -14 15 0 21 -61 105 -77 105 -7 0 -12 3 -12 7 3
21 -2 33 -16 33 -8 0 -14 3 -14 8 3 19 -3 33 -23 56 -13 13 -30 34 -38 46 -8
12 -24 32 -35 45 -11 13 -33 44 -48 69 -16 25 -35 46 -43 46 -9 0 -12 4 -9 10
3 5 -5 21 -19 35 -15 14 -26 30 -26 34 0 4 -9 19 -20 32 -28 34 -30 37 -74
102 -21 31 -45 57 -53 57 -9 0 -13 6 -10 14 4 9 -4 16 -24 20 -17 3 -29 12
-29 21 0 11 6 15 18 11 62 -17 162 -28 242 -27 34 1 41 -2 30 -10 -11 -7 -1
-8 38 -4 37 5 52 3 52 -5 0 -8 12 -10 40 -5 24 4 46 3 53 -4 7 -6 33 -10 58
-10 84 1 119 -3 119 -12 0 -6 16 -7 38 -4 28 5 34 4 22 -5 -11 -8 -4 -9 33 -4
31 4 47 3 47 -4 0 -7 22 -11 53 -12 100 0 107 -1 107 -10 0 -5 15 -7 33 -4 25
5 29 3 17 -6 -12 -9 -7 -10 23 -5 20 3 43 2 50 -2 6 -4 28 -9 47 -10 47 -2 78
-8 86 -16 3 -3 20 -4 38 -1 25 5 28 3 16 -6 -12 -9 -7 -10 23 -5 20 3 43 2 50
-2 12 -8 52 -12 112 -13 24 0 27 -3 15 -11 -11 -8 -5 -9 23 -4 24 4 37 2 37
-5 0 -8 11 -9 30 -5 18 4 30 3 30 -4 0 -5 19 -10 43 -10 48 1 84 -4 93 -14 3
-3 20 -4 38 -1 25 5 28 3 16 -6 -12 -9 -7 -10 23 -5 22 3 37 2 37 -4 0 -6 24
-10 53 -10 83 -1 97 -3 97 -12 0 -5 15 -6 33 -3 25 5 29 3 17 -6 -12 -9 -6
-10 28 -5 27 5 42 3 42 -4 0 -6 21 -11 53 -10 89 1 107 -1 107 -12 0 -6 15 -7
38 -4 28 5 34 4 22 -5 -11 -8 -4 -9 33 -4 32 4 47 3 47 -5 0 -7 23 -11 63 -11
114 1 137 0 137 -10 0 -6 16 -8 40 -4 28 5 40 3 40 -5 0 -9 16 -11 55 -6 31 3
55 2 55 -4 0 -5 39 -9 88 -9 244 -1 275 -2 288 -12 32 -28 74 19 74 83 0 25
-6 36 -27 49 -16 8 -33 13 -39 11 -7 -2 -28 7 -48 21 -21 14 -43 23 -50 20 -8
-3 -30 6 -50 20 -21 14 -43 23 -50 20 -8 -3 -30 6 -50 20 -21 14 -43 23 -51
20 -7 -3 -30 6 -51 19 -20 14 -42 23 -49 21 -7 -3 -29 6 -49 20 -21 14 -43 23
-51 20 -7 -3 -30 6 -51 19 -20 14 -42 23 -49 21 -7 -3 -29 6 -49 20 -21 14
-43 23 -51 20 -7 -3 -30 6 -51 19 -20 14 -43 23 -51 20 -8 -3 -23 4 -34 16
-18 20 -37 26 -66 22 -7 -1 -29 9 -49 23 -20 13 -43 22 -51 19 -8 -3 -23 4
-34 16 -18 20 -37 26 -66 22 -7 -1 -29 9 -49 23 -20 13 -43 22 -51 19 -8 -3
-23 4 -34 16 -18 20 -37 26 -66 22 -7 -1 -29 9 -49 23 -20 13 -43 22 -51 19
-8 -3 -23 4 -34 16 -18 20 -37 26 -66 22 -7 -1 -29 9 -49 23 -20 13 -43 22
-51 19 -8 -3 -23 4 -34 16 -19 20 -35 25 -70 22 -9 -1 -19 7 -22 19 -5 19 -26
26 -72 21 -11 -1 -27 8 -36 21 -12 16 -27 22 -52 21 -27 -1 -36 4 -40 18 -5
18 -27 25 -72 20 -11 -1 -27 8 -36 21 -12 16 -27 22 -52 21 -27 -1 -36 4 -40
18 -5 18 -27 25 -72 20 -11 -1 -27 8 -36 21 -12 16 -27 22 -52 21 -27 -1 -36
4 -40 18 -5 18 -27 25 -72 20 -11 -1 -27 8 -36 21 -12 16 -27 22 -52 21 -27
-1 -36 4 -40 18 -5 18 -27 25 -72 20 -11 -1 -27 8 -36 21 -13 16 -27 22 -53
21 -26 -1 -36 3 -36 14 0 11 -7 13 -28 8 -20 -4 -33 -1 -41 9 -11 13 -9 17 14
26 14 5 36 10 47 10 11 0 37 8 57 18 97 49 128 62 149 62 12 0 30 8 40 18 11
11 36 22 57 25 20 3 45 13 55 22 9 8 31 17 49 19 18 2 42 13 54 24 12 12 31
20 42 20 11 -1 36 6 55 14 19 9 51 19 71 22 20 4 44 15 54 26 9 10 29 18 45
18 15 -1 38 6 51 16 13 9 40 16 61 16 26 0 44 7 55 20 13 14 30 20 60 20 31 0
48 6 60 20 10 12 30 20 48 20 16 0 50 10 75 21 25 12 58 23 74 25 16 2 42 11
59 19 17 8 40 15 51 15 33 0 66 12 61 21 -3 4 11 11 32 14 21 3 61 15 88 26
28 12 63 23 78 25 16 2 38 11 50 19 12 8 35 15 52 16 30 0 79 16 60 19 -19 3
30 19 58 19 16 1 40 10 54 21 14 11 39 20 55 20 17 0 42 8 56 19 15 10 44 21
66 24 21 3 46 13 56 22 9 8 23 15 31 15 8 0 32 9 54 20 22 11 44 20 51 20 6 0
28 11 48 25 20 13 43 22 52 18 9 -3 23 3 35 16 18 20 32 25 52 22 5 -1 21 8
37 19 15 11 35 20 43 20 8 0 26 9 40 20 14 11 31 20 37 20 7 0 25 8 41 17 25
15 29 24 29 59 0 53 -30 94 -68 93 -25 0 -25 -1 -7 -10 14 -6 4 -8 -32 -4 -37
4 -53 2 -53 -6 0 -8 -13 -10 -39 -5 -24 4 -42 2 -46 -5 -4 -6 -32 -8 -76 -4
-49 4 -69 3 -69 -6 0 -8 -12 -10 -39 -5 -25 4 -42 2 -47 -5 -4 -7 -26 -9 -63
-5 -43 5 -52 4 -41 -4 12 -9 5 -10 -27 -6 -25 4 -44 2 -49 -5 -4 -7 -26 -8
-65 -4 -41 5 -64 3 -74 -5 -10 -8 -32 -10 -67 -5 -38 4 -49 3 -38 -4 12 -8 7
-11 -21 -11 -19 0 -40 5 -46 11 -7 7 -15 6 -27 -6 -10 -10 -24 -14 -36 -10
-12 4 -27 1 -35 -5 -10 -8 -33 -10 -70 -5 -38 4 -61 3 -70 -5 -10 -8 -30 -10
-60 -6 -32 5 -45 4 -45 -5 0 -8 -13 -9 -45 -5 -29 5 -45 3 -45 -3 0 -11 -21
-12 -139 -12 -36 0 -71 -5 -78 -11 -8 -6 -34 -8 -70 -4 -44 5 -54 4 -43 -4 12
-9 4 -10 -32 -6 -28 3 -48 2 -48 -4 0 -10 -18 -11 -152 -11 -49 0 -78 -4 -78
-11 0 -7 -19 -8 -57 -4 -44 5 -54 4 -43 -4 12 -9 4 -10 -32 -6 -28 3 -48 2
-48 -4 0 -10 -18 -11 -152 -11 -49 0 -78 -4 -78 -11 0 -7 -19 -8 -57 -4 -44 5
-54 4 -43 -4 12 -9 4 -10 -32 -6 -32 4 -48 2 -48 -5 0 -8 -13 -9 -39 -5 -24 4
-42 2 -46 -5 -4 -6 -32 -8 -76 -4 -49 4 -69 3 -69 -6 0 -8 -13 -10 -40 -6 -26
3 -51 0 -70 -10 -32 -15 -76 -14 -74 2 1 6 11 15 22 21 25 13 72 61 72 74 0 5
8 17 19 27 10 10 39 47 64 83 56 79 75 103 105 136 12 14 30 38 40 52 22 35
31 47 65 83 15 16 27 33 27 38 0 5 23 32 50 61 28 29 50 56 50 61 0 5 12 21
28 37 15 16 34 39 42 52 8 13 27 36 43 52 15 16 25 33 22 39 -4 5 1 9 9 9 15
0 39 33 31 42 -3 3 6 11 20 18 14 7 25 17 25 21 0 8 21 33 79 94 16 17 40 47
55 69 14 21 37 49 51 62 15 13 23 29 20 34 -3 6 1 10 9 10 15 0 39 33 31 42
-3 3 6 11 20 18 14 7 25 17 25 21 0 8 23 35 88 105 18 19 30 39 27 45 -4 5 1
9 9 9 16 0 39 33 30 43 -3 3 3 8 13 11 16 6 62 67 88 117 5 10 14 19 20 19 6
0 21 14 35 30 14 17 42 50 63 73 20 22 37 45 37 49 0 4 11 19 25 34 13 14 22
30 19 35 -3 5 1 9 10 9 8 0 27 21 44 48 16 26 45 65 65 86 44 47 97 124 97
143 0 7 6 13 14 13 8 0 36 32 62 72 27 40 57 80 66 90 10 10 15 24 12 32 -3 8
2 17 14 20 11 4 26 21 33 38 7 16 23 40 37 53 13 12 30 33 37 46 37 64 38 68
25 84 -7 9 -19 14 -26 11 -8 -3 -11 0 -8 9 13 34 -72 47 -101 15 -10 -11 -24
-20 -32 -20 -7 0 -16 -7 -19 -15 -4 -8 -12 -15 -20 -15 -8 0 -33 -19 -57 -43
-24 -23 -55 -48 -70 -54 -15 -7 -27 -17 -27 -23 0 -5 -7 -10 -15 -10 -9 0 -18
-7 -21 -15 -4 -8 -11 -15 -18 -15 -6 0 -33 -20 -60 -45 -26 -25 -52 -45 -56
-45 -4 0 -15 -9 -25 -20 -10 -11 -24 -20 -32 -20 -7 0 -16 -7 -19 -15 -4 -8
-11 -15 -18 -15 -6 0 -33 -20 -60 -45 -26 -25 -52 -45 -56 -45 -4 0 -15 -9
-25 -20 -10 -11 -24 -20 -32 -20 -7 0 -16 -7 -19 -15 -4 -8 -12 -15 -20 -15
-7 0 -23 -13 -36 -30 -12 -16 -28 -30 -35 -30 -8 0 -16 -7 -19 -15 -4 -8 -12
-15 -20 -15 -7 0 -17 -6 -21 -13 -4 -7 -20 -18 -35 -24 -16 -7 -28 -17 -28
-23 0 -5 -6 -10 -12 -10 -7 0 -34 -19 -59 -43 -26 -24 -59 -48 -73 -55 -14 -6
-26 -16 -26 -22 0 -5 -6 -10 -13 -10 -13 0 -41 -19 -77 -53 -8 -8 -46 -38 -85
-67 -38 -29 -72 -56 -75 -60 -3 -4 -15 -10 -27 -14 -12 -4 -25 -16 -28 -27 -4
-10 -13 -19 -21 -19 -7 0 -19 -9 -26 -20 -7 -11 -19 -20 -26 -20 -7 0 -15 -6
-18 -14 -3 -8 -16 -17 -29 -20 -13 -3 -42 -24 -65 -46 -23 -22 -46 -40 -51
-40 -5 0 -14 -9 -21 -20 -7 -11 -19 -20 -26 -20 -7 0 -15 -6 -18 -14 -3 -8
-16 -17 -28 -20 -20 -5 -42 -20 -86 -59 -54 -47 -119 -97 -128 -97 -11 0 -27
-13 -110 -87 -26 -24 -53 -43 -60 -43 -7 0 -15 -7 -18 -15 -4 -8 -12 -15 -20
-15 -7 0 -25 -11 -40 -25 -15 -14 -31 -25 -35 -25 -5 0 -9 -5 -9 -10 0 -6 -16
-27 -35 -47 -26 -27 -38 -34 -47 -25 -8 8 -7 17 4 34 9 14 13 36 11 55 -4 22
0 38 12 49 11 12 13 20 6 27 -14 14 -14 64 -1 72 5 3 10 27 9 53 0 65 4 92 14
92 5 0 6 18 2 40 -5 28 -3 40 5 40 8 0 9 10 5 29 -4 18 -2 32 5 36 7 4 9 18 6
31 -4 14 0 37 9 55 10 19 14 41 10 60 -4 19 -3 29 5 29 7 0 9 8 5 19 -3 11 -1
22 5 26 7 4 9 19 5 36 -4 18 -2 36 5 44 6 8 8 20 4 26 -5 8 -3 9 6 4 10 -6 12
-1 7 23 -4 20 -2 32 4 32 6 0 9 7 5 15 -3 8 0 15 6 15 7 0 8 13 4 38 -4 26 -1
45 9 60 10 13 13 32 9 49 -4 23 -3 25 6 13 9 -12 11 -10 7 13 -2 15 0 30 5 33
5 3 6 19 3 36 -5 21 -2 35 10 48 10 11 14 26 10 38 -3 11 -1 23 5 27 6 4 9 13
6 21 -3 7 -1 16 5 20 6 3 7 19 4 36 -5 21 -2 35 10 48 10 11 14 26 10 38 -3
11 -1 23 5 27 6 4 9 13 6 21 -3 7 -1 16 5 20 6 3 7 19 4 35 -5 21 0 39 15 64
12 19 17 35 11 35 -6 0 -11 7 -11 15 0 8 5 15 11 15 6 0 9 7 6 15 -4 8 -2 17
4 21 6 3 7 19 4 35 -5 20 -1 38 10 55 11 17 14 35 10 55 -4 19 -3 29 5 29 7 0
10 7 7 15 -4 8 -1 17 4 21 6 4 8 20 4 40 -4 22 0 44 10 64 10 20 14 42 10 61
-4 19 -3 29 5 29 8 0 9 10 5 30 -4 19 -3 30 4 30 6 0 11 20 10 48 0 71 4 96
19 111 9 10 10 17 3 24 -6 6 -11 22 -11 36 0 21 2 23 11 11 7 -11 8 0 4 38 -4
32 -3 52 3 52 6 0 10 43 9 108 0 59 1 181 3 272 4 165 4 165 -19 168 -15 3
-24 -2 -27 -15z m-6027 -3825 c-3 -8 -6 -5 -6 6 -1 11 2 17 5 13 3 -3 4 -12 1
-19z"/>
<path d="M14475 14990 c-10 -11 -24 -20 -31 -20 -7 0 -18 -9 -24 -20 -6 -11
-17 -20 -25 -20 -8 0 -19 -9 -25 -20 -6 -11 -15 -20 -21 -20 -11 0 -63 -36
-91 -62 -10 -10 -22 -18 -27 -18 -4 0 -21 -18 -36 -40 -15 -22 -34 -40 -42
-40 -7 0 -16 -7 -19 -15 -4 -8 -13 -15 -21 -15 -16 0 -73 -56 -73 -71 0 -5 -6
-9 -13 -9 -8 0 -22 -9 -32 -20 -10 -11 -23 -20 -30 -20 -6 0 -26 -20 -45 -45
-19 -25 -39 -45 -44 -45 -6 -1 -25 -13 -43 -28 -22 -19 -32 -37 -34 -62 -6
-79 -2 -87 52 -115 48 -24 53 -24 75 -10 13 8 30 15 39 15 9 0 18 6 21 14 3 8
16 17 29 20 14 4 29 15 35 26 6 11 20 20 31 20 11 0 22 7 25 15 4 8 12 15 19
15 6 0 25 12 41 26 16 14 43 37 59 52 17 14 30 31 30 36 0 5 7 12 16 15 31 11
109 85 109 103 0 12 7 17 23 15 18 -2 22 3 20 21 -3 19 1 23 20 20 18 -2 22 1
20 20 -3 19 1 23 20 20 17 -2 22 2 21 20 0 17 4 21 18 16 10 -3 18 0 18 6 0 5
17 27 37 47 34 33 50 54 69 92 10 20 -18 66 -41 66 -11 0 -28 8 -37 18 -24 23
-71 22 -93 -3z"/>
<path d="M5204 14962 c-27 -21 -39 -59 -24 -76 6 -8 10 -18 8 -22 -3 -11 29
-60 60 -94 13 -14 36 -43 50 -65 15 -22 32 -44 38 -50 5 -5 22 -29 37 -52 15
-24 34 -43 42 -43 8 0 14 -4 13 -10 -3 -10 17 -39 62 -89 14 -15 32 -38 40
-51 28 -43 111 -120 135 -126 16 -4 36 1 58 15 32 20 34 23 34 81 0 39 -4 64
-13 71 -8 6 -14 16 -14 22 0 20 -102 167 -116 167 -8 0 -14 5 -14 10 0 29
-116 160 -141 160 -13 0 -18 6 -16 23 2 18 -2 21 -21 19 -20 -3 -23 0 -17 17
4 14 0 23 -15 31 -11 6 -20 9 -20 7 0 -3 -17 13 -39 34 -44 44 -90 52 -127 21z"/>
<path d="M2951 10324 c-18 -15 -33 -39 -37 -60 -5 -30 -2 -40 21 -64 15 -16
35 -29 44 -29 9 0 233 0 499 0 265 0 482 -4 482 -8 0 -9 1004 -6 1038 3 29 8
55 68 47 106 -4 15 -20 39 -36 52 -30 26 -30 26 -1029 26 -999 -1 -999 -1
-1029 -26z"/>
<path d="M15248 10343 c7 -3 16 -2 19 1 4 3 -2 6 -13 5 -11 0 -14 -3 -6 -6z"/>
<path d="M15320 10336 c0 -4 -61 -7 -135 -4 -79 2 -135 0 -135 -6 0 -5 -30 -6
-72 -2 -47 4 -68 3 -59 -3 15 -9 -54 -14 -177 -12 -29 1 -58 -1 -63 -5 -6 -3
-33 -7 -59 -8 -47 -1 -81 -18 -67 -32 7 -7 117 -17 176 -16 18 0 40 -6 49 -14
10 -11 18 -12 25 -5 6 6 27 11 46 11 28 0 33 -3 21 -11 -11 -7 0 -8 38 -4 31
4 58 3 65 -3 11 -9 80 -14 180 -13 20 0 37 -4 37 -9 0 -6 17 -8 43 -4 31 4 38
3 27 -5 -11 -8 2 -9 48 -4 41 4 62 2 62 -5 0 -10 59 -14 173 -13 20 0 37 -4
37 -10 0 -6 16 -8 45 -3 30 4 45 3 45 -5 0 -7 21 -9 63 -6 41 4 55 2 42 -4
-18 -8 -19 -9 -2 -16 9 -4 23 -2 31 4 8 7 45 9 107 6 52 -3 225 -5 384 -4 160
1 316 1 348 1 34 0 57 4 57 10 0 7 18 9 50 5 32 -4 50 -2 50 4 0 7 12 8 30 4
17 -4 30 -2 30 3 0 9 36 14 100 13 14 0 32 2 40 6 8 3 30 6 48 8 35 2 58 23
43 38 -5 5 -31 10 -60 11 -28 1 -54 6 -57 9 -4 4 -26 4 -48 1 -32 -4 -38 -3
-26 6 12 9 3 10 -38 5 -31 -4 -58 -3 -65 3 -11 10 -68 14 -174 12 -24 0 -43 5
-43 11 0 7 -15 8 -45 3 -31 -4 -45 -3 -45 5 0 8 -17 9 -55 5 -36 -5 -55 -3
-55 4 0 6 -26 10 -67 10 -190 0 -247 3 -233 12 10 6 -17 7 -75 4 -51 -3 -85
-2 -78 3 7 5 -59 7 -152 5 -91 -3 -165 0 -165 4 0 5 -65 9 -145 9 -80 0 -145
-4 -145 -9z"/>
<path d="M13853 6203 c-4 -9 1 -29 10 -45 9 -17 17 -38 17 -48 0 -10 5 -22 11
-25 5 -4 15 -19 20 -33 17 -44 72 -122 86 -122 8 0 11 -5 8 -10 -7 -12 173
-190 191 -190 7 0 14 -7 18 -15 3 -8 15 -15 26 -15 11 0 20 -4 20 -10 0 -5 9
-10 20 -10 11 0 20 -4 20 -10 0 -5 5 -10 12 -10 6 0 19 -7 29 -16 11 -10 25
-13 38 -9 24 7 28 33 6 41 -10 4 -13 13 -10 25 4 11 -2 26 -14 38 -12 12 -21
33 -21 47 0 18 -6 28 -21 31 -11 3 -18 11 -15 18 10 28 -143 217 -191 236 -13
5 -23 15 -23 24 0 8 -9 15 -20 15 -10 0 -24 9 -30 20 -6 11 -20 20 -31 20 -11
0 -22 7 -25 15 -6 15 -41 30 -60 27 -6 -1 -17 5 -24 13 -16 20 -39 19 -47 -2z"/>
<path d="M5570 6125 c-7 -8 -21 -15 -31 -15 -10 0 -24 -9 -31 -20 -7 -11 -18
-20 -25 -20 -7 0 -22 -8 -32 -17 -10 -10 -37 -35 -59 -55 -23 -21 -46 -38 -51
-38 -6 0 -11 -6 -11 -13 0 -7 -14 -21 -30 -30 -17 -10 -37 -30 -44 -45 -8 -15
-31 -44 -50 -65 -19 -20 -33 -43 -30 -51 3 -8 -3 -16 -15 -19 -16 -4 -21 -13
-21 -36 0 -17 -4 -31 -10 -31 -22 0 -8 -30 30 -64 22 -20 44 -36 49 -36 5 0
20 12 33 28 13 15 31 28 39 30 7 2 26 19 42 37 15 19 37 37 48 40 14 5 18 12
14 26 -5 14 -2 19 13 19 10 0 27 9 37 20 10 12 34 30 52 41 18 11 33 24 33 29
0 4 32 39 71 77 104 100 123 168 57 206 -37 21 -62 22 -78 2z"/>
<path d="M9803 5171 c-18 -15 -33 -32 -33 -38 0 -5 -7 -24 -16 -41 -12 -25
-13 -36 -4 -53 9 -15 9 -24 1 -32 -8 -8 -11 -5 -11 12 0 12 -4 19 -10 16 -14
-9 -12 -42 3 -49 10 -5 10 -7 0 -12 -16 -7 -18 -124 -2 -124 7 0 10 -340 8
-1115 -1 -1115 -1 -1115 22 -1134 16 -12 42 -18 76 -19 47 -1 55 2 73 28 20
28 20 37 20 1259 1 982 -2 1235 -12 1252 -13 23 -69 79 -78 78 -3 0 -20 -12
-37 -28z m-43 -261 c0 -21 -4 -42 -10 -45 -6 -4 -10 13 -10 45 0 32 4 49 10
45 6 -3 10 -24 10 -45z"/>
<path d="M9941 2734 c0 -11 3 -14 6 -6 3 7 2 16 -1 19 -3 4 -6 -2 -5 -13z"/>
</g>
</svg>
