<?xml version="1.0" standalone="no"?>
<!DOCTYPE svg PUBLIC "-//W3C//DTD SVG 20010904//EN"
 "http://www.w3.org/TR/2001/REC-SVG-20010904/DTD/svg10.dtd">
<svg version="1.0" xmlns="http://www.w3.org/2000/svg"
 width="2000.000000pt" height="2000.000000pt" viewBox="0 0 2000.000000 2000.000000"
 preserveAspectRatio="xMidYMid meet">
<metadata>
Created by potrace 1.16, written by Peter Selinger 2001-2019
</metadata>
<g transform="translate(0.000000,2000.000000) scale(0.100000,-0.100000)"
fill="#000000" stroke="none">
<path d="M9895 12399 c-34 -30 -61 -84 -46 -94 13 -7 4 -134 -9 -150 -6 -8 -9
-23 -5 -35 4 -12 2 -20 -5 -20 -7 0 -10 -8 -7 -20 3 -11 1 -20 -5 -20 -6 0 -8
-14 -5 -32 3 -21 -3 -49 -15 -78 -14 -29 -17 -45 -9 -48 15 -5 14 -21 -5 -39
-11 -11 -12 -19 -5 -26 13 -13 15 -97 3 -97 -4 0 -8 -150 -9 -332 -2 -900 -2
-1776 1 -1805 2 -19 12 -40 27 -52 29 -25 103 -37 132 -23 12 6 30 13 40 16
12 4 17 16 17 41 0 19 5 35 11 35 7 0 9 9 6 21 -3 13 0 28 9 36 9 9 12 23 8
35 -4 13 1 26 15 40 15 13 20 26 15 40 -4 13 -2 18 4 14 7 -4 11 9 11 36 1 72
2 78 13 78 7 0 8 16 4 45 -5 29 -4 45 3 45 8 0 9 24 5 73 -4 52 -3 68 5 57 8
-11 11 -2 10 40 0 79 3 93 19 109 10 10 11 16 3 19 -6 2 -11 13 -11 25 0 18 2
19 11 7 8 -11 9 -5 4 23 -3 20 -2 43 2 50 4 6 9 28 10 47 4 86 7 100 15 100 6
0 7 17 3 40 -4 26 -3 40 4 40 8 0 9 22 5 70 -4 44 -3 70 3 70 6 0 10 31 10 73
0 350 0 786 0 850 0 42 -4 77 -9 77 -12 0 -10 104 3 117 7 7 5 15 -6 27 -13
12 -15 26 -10 56 4 26 3 40 -4 40 -5 0 -10 12 -10 28 -1 163 -2 186 -12 172
-6 -10 -8 1 -3 35 5 40 3 54 -10 64 -9 7 -16 23 -16 35 0 37 -56 70 -123 72
-51 2 -62 -1 -92 -27z"/>
<path d="M7458 9192 c-34 -31 -38 -39 -38 -84 0 -29 7 -62 17 -79 17 -29 67
-56 92 -51 7 2 23 -7 34 -19 13 -14 22 -18 25 -11 2 7 11 12 20 12 15 0 15 -2
2 -11 -11 -8 -5 -9 23 -4 22 3 37 2 37 -4 0 -6 21 -10 48 -10 97 0 112 -1 112
-12 0 -7 16 -8 45 -3 25 3 45 2 45 -2 0 -5 261 -8 585 -6 409 2 585 0 585 -8
0 -6 22 -9 62 -5 40 3 78 -1 105 -10 41 -14 73 -12 73 5 0 12 -47 48 -73 56
-11 3 -30 15 -41 25 -11 11 -30 19 -43 19 -12 0 -27 9 -33 20 -8 15 -17 19
-34 14 -17 -4 -27 1 -40 20 -12 19 -25 26 -49 26 -17 0 -41 7 -51 15 -10 8
-23 12 -27 9 -5 -3 -9 0 -9 7 0 7 -8 9 -21 6 -12 -3 -37 3 -57 14 -20 10 -45
16 -56 13 -11 -4 -16 -2 -12 4 4 7 -7 11 -31 11 -58 1 -73 4 -73 13 0 5 -13 7
-30 3 -20 -4 -30 -3 -30 5 0 8 -9 10 -26 6 -14 -4 -31 -2 -38 3 -6 5 -27 10
-46 10 -126 1 -160 3 -160 11 0 4 -37 6 -82 3 -46 -2 -78 -1 -71 4 6 4 -120 7
-280 5 -168 -1 -286 1 -279 6 8 5 -18 9 -65 8 -74 -1 -80 -2 -115 -34z"/>
<path d="M10900 8998 c0 -5 -73 -8 -162 -9 -266 -2 -326 -4 -334 -12 -13 -12
37 -57 76 -67 20 -5 47 -21 60 -35 17 -18 30 -23 47 -19 17 5 23 2 23 -10 0
-20 43 -38 74 -30 14 3 27 -1 35 -10 7 -8 19 -12 27 -9 8 3 21 -2 28 -12 7
-10 18 -15 24 -11 6 3 29 -3 51 -15 24 -12 48 -18 61 -14 12 4 20 2 20 -5 0
-7 8 -9 20 -5 13 4 31 0 46 -10 15 -10 33 -13 46 -9 15 4 18 3 13 -6 -6 -10 1
-11 28 -6 21 4 38 2 42 -4 4 -6 22 -7 44 -4 24 4 41 2 45 -5 4 -6 18 -8 32 -5
15 4 24 2 24 -5 0 -8 13 -9 40 -5 27 4 40 3 40 -5 0 -7 19 -9 60 -5 33 3 60 1
60 -3 0 -4 86 -8 190 -8 105 0 190 4 190 9 0 5 30 6 68 2 49 -5 63 -3 52 5
-11 8 -2 9 35 4 35 -4 46 -3 35 4 -16 11 -6 12 93 11 26 0 47 4 47 10 0 5 6 7
14 4 8 -3 17 -1 20 4 3 6 16 8 28 4 14 -3 19 -1 14 6 -7 12 29 26 45 17 13 -8
70 14 85 33 5 8 17 13 25 12 26 -4 36 0 63 25 15 14 33 25 40 25 14 0 52 37
45 44 -18 16 -53 26 -71 20 -13 -4 -18 -2 -14 4 6 10 -18 12 -122 12 -14 0
-20 4 -17 11 5 7 -6 8 -32 4 -30 -5 -35 -4 -23 5 12 9 7 10 -23 5 -20 -3 -43
-2 -50 2 -12 8 -78 15 -134 14 -18 -1 -33 4 -33 9 0 6 -15 8 -40 4 -27 -4 -40
-3 -40 5 0 8 -17 9 -55 5 -34 -4 -55 -3 -55 3 0 6 -28 10 -62 11 -35 0 -120 1
-190 1 -71 1 -128 4 -128 9 0 4 -128 7 -285 7 -157 0 -285 -3 -285 -7z"/>
<path d="M9757 8269 c-48 -39 -64 -68 -46 -80 9 -6 10 -12 4 -16 -6 -5 -10
-239 -10 -665 0 -361 3 -651 7 -645 4 7 8 -25 8 -71 0 -63 -4 -87 -16 -99 -11
-11 -12 -19 -5 -26 13 -13 16 -317 4 -317 -5 0 -8 -67 -8 -150 0 -82 3 -150 8
-150 11 0 8 -115 -4 -127 -7 -7 -6 -15 6 -26 10 -11 13 -25 9 -42 -4 -15 -2
-25 5 -25 5 0 10 -12 10 -27 1 -16 1 -50 1 -78 0 -36 3 -46 10 -35 8 13 10 13
10 -2 0 -9 -5 -18 -11 -20 -8 -3 -6 -10 5 -20 9 -9 13 -24 10 -32 -4 -10 0
-18 10 -22 14 -5 16 -15 10 -50 -5 -35 -2 -50 16 -79 12 -19 27 -35 35 -35 7
0 18 -7 25 -15 14 -17 85 -20 103 -5 7 6 20 16 30 23 11 7 20 25 20 39 1 14 6
24 11 21 4 -3 5 14 1 37 -5 30 -4 41 4 36 8 -5 11 6 11 36 0 83 3 107 13 101
6 -3 7 10 2 36 -5 28 -3 41 5 41 6 0 8 5 5 10 -3 6 1 17 10 26 10 10 12 20 7
28 -5 6 -7 34 -5 61 2 28 4 65 4 83 -1 17 4 32 9 32 7 0 8 24 4 68 -4 50 -3
63 6 52 8 -11 9 0 6 45 -16 185 -16 216 -5 237 7 13 11 47 10 76 -2 32 2 52 8
52 14 0 15 107 1 115 -6 4 -10 -15 -10 -50 0 -34 -4 -54 -10 -50 -12 7 -1 255
12 271 5 8 3 18 -8 29 -13 13 -15 27 -10 71 4 35 2 54 -4 54 -6 0 -10 20 -9
48 1 26 -1 79 -3 117 -3 39 -1 75 4 82 6 7 7 21 3 30 -7 17 -8 16 -15 -2 -7
-16 -9 -13 -9 15 -1 20 4 41 10 47 7 7 6 15 -6 26 -12 12 -14 26 -9 52 4 21 2
35 -4 35 -9 0 -18 250 -14 425 1 48 -1 65 -8 55 -8 -12 -10 -11 -10 8 0 12 4
22 9 22 15 0 -6 70 -25 84 -9 7 -14 18 -10 24 3 5 -4 32 -16 59 -12 26 -22 59
-22 73 -1 15 -18 43 -42 68 -52 54 -92 57 -147 11z"/>
<path d="M10100 6364 c0 -27 4 -43 10 -39 6 3 10 24 10 46 0 21 -4 39 -10 39
-5 0 -10 -21 -10 -46z"/>
</g>
</svg>
