<?xml version="1.0" standalone="no"?>
<!DOCTYPE svg PUBLIC "-//W3C//DTD SVG 20010904//EN"
 "http://www.w3.org/TR/2001/REC-SVG-20010904/DTD/svg10.dtd">
<svg version="1.0" xmlns="http://www.w3.org/2000/svg"
 width="2000.000000pt" height="2000.000000pt" viewBox="0 0 2000.000000 2000.000000"
 preserveAspectRatio="xMidYMid meet">
<metadata>
Created by potrace 1.16, written by Peter Selinger 2001-2019
</metadata>
<g transform="translate(0.000000,2000.000000) scale(0.100000,-0.100000)"
fill="#000000" stroke="none">
<path d="M9762 13453 c-6 -3 -10 -9 -7 -14 4 -5 0 -6 -7 -4 -8 3 -33 -9 -57
-26 -39 -29 -42 -35 -37 -64 5 -25 3 -34 -10 -39 -11 -4 -14 -13 -11 -27 3
-13 -1 -28 -9 -37 -11 -10 -12 -18 -5 -25 14 -14 14 -47 1 -47 -6 0 -10 -27
-10 -62 1 -90 0 -98 -12 -98 -6 0 -8 -11 -5 -27 3 -16 -1 -32 -9 -41 -11 -11
-12 -17 -3 -28 6 -8 8 -21 4 -31 -9 -20 -17 -84 -16 -125 0 -16 -4 -28 -10
-28 -5 0 -7 -11 -3 -25 4 -16 2 -25 -6 -25 -8 0 -10 -9 -6 -25 4 -14 3 -31 -1
-38 -7 -11 -10 -34 -14 -104 -1 -13 -5 -23 -11 -23 -5 0 -6 -9 -3 -20 4 -12 2
-20 -5 -20 -8 0 -10 -11 -6 -35 5 -24 3 -35 -5 -35 -8 0 -10 -12 -6 -36 4 -23
0 -50 -9 -72 -9 -21 -12 -49 -8 -71 4 -28 3 -33 -6 -21 -9 12 -10 5 -5 -27 5
-28 3 -43 -4 -43 -6 0 -11 -23 -11 -57 0 -90 -1 -103 -12 -103 -6 0 -8 -14 -4
-35 5 -26 3 -40 -9 -52 -12 -11 -13 -19 -6 -26 13 -13 15 -87 2 -87 -4 0 -8
-46 -7 -102 1 -125 -6 -211 -17 -219 -5 -4 -10 -24 -11 -47 -1 -22 -7 -47 -14
-55 -14 -16 -56 -12 -72 9 -6 7 -17 11 -24 8 -7 -3 -21 4 -31 16 -10 11 -26
20 -36 20 -10 0 -23 9 -29 19 -5 11 -19 22 -29 26 -11 3 -36 21 -57 40 -21 19
-43 35 -48 35 -6 0 -22 16 -36 35 -14 19 -32 37 -41 40 -9 3 -35 26 -58 50
-23 25 -49 45 -57 45 -7 0 -14 6 -15 13 0 6 -63 71 -138 142 -76 72 -140 138
-144 148 -3 9 -13 17 -24 17 -10 0 -29 16 -42 35 -13 19 -31 35 -40 35 -10 0
-30 18 -47 39 -16 22 -45 47 -64 56 -19 10 -47 24 -62 31 -31 17 -64 18 -73 3
-4 -6 -13 -8 -21 -5 -12 5 -66 -32 -87 -59 -18 -23 12 -165 35 -165 5 0 7 -3
5 -7 -8 -14 12 -53 28 -53 11 0 15 -10 15 -35 0 -24 6 -39 20 -47 12 -8 20
-24 20 -38 0 -14 4 -30 8 -36 5 -5 15 -25 22 -44 15 -37 50 -93 63 -98 4 -2 5
-7 2 -12 -3 -5 2 -15 10 -24 9 -8 16 -18 15 -21 -2 -28 3 -38 20 -42 11 -3 18
-9 15 -13 -8 -13 17 -60 31 -60 8 0 11 -6 8 -15 -4 -8 -1 -15 7 -15 7 0 9 -3
6 -6 -8 -8 19 -59 47 -92 11 -12 21 -28 22 -35 4 -26 47 -87 61 -87 8 0 13 -6
10 -12 -7 -20 21 -68 39 -68 10 0 14 -6 11 -14 -3 -8 3 -24 14 -37 10 -12 19
-26 19 -30 0 -4 6 -14 14 -21 7 -8 23 -33 35 -56 11 -22 39 -67 62 -99 22 -32
45 -68 50 -80 5 -13 14 -23 22 -23 7 0 13 -10 14 -21 1 -12 11 -30 22 -40 11
-10 22 -27 26 -39 3 -11 11 -20 16 -20 5 0 17 -18 25 -41 10 -25 26 -44 41
-50 44 -16 14 -27 -67 -23 -48 2 -82 -1 -86 -7 -4 -7 -26 -8 -58 -4 -39 5 -48
4 -36 -5 12 -9 4 -10 -32 -6 -27 3 -48 2 -48 -3 0 -9 -41 -12 -149 -12 -30 0
-60 -4 -68 -10 -8 -8 -35 -9 -76 -5 -46 5 -58 4 -47 -5 11 -8 1 -9 -42 -5 -38
4 -58 3 -58 -4 0 -7 -23 -11 -57 -10 -111 1 -318 -8 -335 -15 -9 -4 -110 -5
-223 -3 -113 1 -205 -1 -205 -6 0 -4 -11 -5 -24 -2 -14 3 -28 2 -31 -4 -3 -5
-14 -10 -24 -10 -20 0 -85 -57 -94 -82 -3 -10 -2 -20 4 -23 5 -4 7 -21 4 -38
-3 -18 -2 -37 2 -43 15 -20 95 -74 104 -68 5 2 22 -2 39 -11 16 -8 30 -13 30
-9 0 3 11 -1 25 -10 13 -9 35 -16 48 -16 12 0 28 -5 34 -11 5 -5 28 -12 49
-15 21 -3 49 -14 61 -26 15 -14 37 -22 62 -22 21 -1 44 -6 52 -13 8 -7 37 -17
64 -24 28 -6 58 -15 68 -21 10 -5 23 -6 29 -2 7 5 8 2 3 -6 -6 -10 -3 -12 13
-8 12 4 25 2 28 -4 3 -5 12 -7 20 -4 7 3 33 -4 58 -14 24 -11 51 -17 60 -14 9
4 16 1 16 -6 0 -7 7 -10 16 -6 8 3 29 -1 45 -9 16 -9 34 -13 39 -10 5 3 12 0
15 -6 4 -5 13 -8 20 -5 7 2 16 2 20 -2 3 -4 18 -8 33 -9 39 -3 60 -8 68 -15 3
-4 13 -4 22 -1 10 5 13 3 8 -6 -6 -9 -1 -12 15 -11 13 1 29 1 34 0 11 -3 68
-9 103 -11 12 -1 22 -6 22 -11 0 -6 7 -8 15 -5 8 4 17 2 21 -4 3 -6 12 -8 20
-5 7 3 16 1 19 -4 4 -6 17 -7 30 -4 16 4 26 0 33 -11 5 -10 20 -19 33 -20 39
-4 40 -5 35 -14 -4 -5 -2 -11 4 -13 5 -1 13 -24 16 -50 6 -40 4 -48 -9 -48 -9
0 -23 -13 -32 -29 -8 -17 -25 -37 -37 -45 -82 -56 -440 -417 -446 -450 -2 -9
-9 -16 -15 -16 -14 0 -77 -74 -77 -89 0 -6 -3 -10 -7 -9 -11 4 -103 -96 -103
-111 0 -6 -5 -11 -10 -11 -11 0 -74 -64 -120 -122 -14 -17 -43 -51 -65 -75
-22 -23 -51 -57 -65 -73 -14 -17 -40 -47 -57 -67 -18 -20 -33 -42 -33 -50 0
-7 -7 -13 -15 -13 -16 0 -38 -34 -28 -43 3 -4 -6 -11 -21 -16 -15 -6 -26 -18
-26 -28 0 -10 -9 -24 -20 -31 -11 -7 -20 -19 -20 -27 0 -8 -6 -15 -13 -15 -16
0 -67 -58 -67 -76 0 -8 -6 -14 -14 -14 -15 0 -59 -40 -89 -81 -42 -57 21 -180
100 -195 34 -6 93 11 93 28 0 5 20 17 45 28 25 11 45 24 45 31 0 7 9 9 22 6
15 -4 35 5 72 35 28 23 56 47 61 52 9 10 41 33 86 61 40 25 75 49 84 59 17 19
74 56 84 56 5 0 18 10 28 23 10 12 31 29 47 37 16 8 42 28 58 43 15 16 32 26
37 23 5 -4 18 5 29 19 11 14 23 25 27 25 3 0 27 15 53 33 26 17 54 37 63 42
38 23 75 49 84 59 15 16 73 56 81 56 3 0 20 11 38 25 17 14 42 33 55 42 13 10
34 29 48 42 13 13 26 22 29 19 6 -7 133 87 151 111 6 9 14 13 18 9 7 -6 137
87 143 103 2 5 11 9 19 9 8 0 29 11 47 25 17 14 42 33 55 42 13 10 32 26 42
36 11 9 25 17 32 17 8 0 24 11 37 25 13 14 29 25 37 25 7 0 13 9 13 19 0 20
26 36 35 21 3 -4 2 -16 -2 -26 -4 -10 0 -22 10 -29 15 -11 19 -27 26 -91 0 -6
10 -22 22 -35 15 -18 19 -32 14 -56 -4 -20 -2 -33 5 -33 13 0 13 -33 -1 -47
-7 -7 -5 -15 7 -27 13 -14 15 -27 10 -67 -4 -31 -3 -49 4 -49 6 0 10 -25 10
-60 0 -33 -3 -60 -7 -60 -5 0 -8 -121 -8 -270 0 -148 4 -270 8 -270 7 0 9 -43
9 -277 0 -51 4 -93 9 -93 13 0 11 -94 -2 -107 -7 -7 -5 -15 6 -27 13 -12 15
-26 10 -56 -4 -24 -3 -40 3 -40 10 0 14 -53 14 -207 1 -49 5 -83 11 -83 6 0 8
-26 4 -70 -3 -41 -2 -70 4 -70 13 0 11 -144 -2 -157 -7 -7 -6 -15 5 -26 9 -9
16 -22 16 -30 0 -24 50 -50 103 -54 57 -4 117 26 117 57 0 10 9 35 21 54 12
20 21 51 21 70 0 21 6 37 15 40 8 3 13 14 12 23 0 10 0 20 1 23 1 3 4 31 6 63
2 34 9 64 18 73 13 12 13 19 3 35 -10 16 -9 21 2 28 8 5 11 16 6 30 -4 13 -1
28 5 36 7 8 10 22 6 30 -3 9 1 35 9 58 9 25 12 57 8 80 -3 24 -2 37 5 37 7 0
9 7 5 17 -4 11 -3 14 5 9 9 -5 12 5 11 36 -2 76 3 118 13 118 6 0 7 7 4 16 -3
8 1 22 9 30 12 12 12 19 2 35 -9 14 -9 22 -1 27 6 4 11 27 11 52 0 25 8 59 17
75 9 17 12 31 6 33 -6 2 -10 13 -10 25 0 18 2 19 11 7 8 -11 9 -5 4 23 -3 22
-2 37 4 37 6 0 10 17 10 38 -1 63 3 92 13 92 6 0 8 14 4 35 -4 21 -3 35 3 35
6 0 8 13 5 33 -4 21 -3 28 4 19 6 -9 9 5 9 42 0 31 5 61 10 68 15 19 23 58 12
58 -5 0 -9 10 -9 23 0 18 2 19 11 7 7 -11 8 -3 4 30 -4 33 -3 41 4 30 8 -11
11 0 11 45 0 92 1 105 12 105 5 0 7 13 3 30 -4 19 -3 30 4 30 6 0 8 13 5 33
-4 25 -3 29 5 17 9 -12 11 -4 10 35 -2 84 3 125 13 125 6 0 7 7 4 16 -3 8 1
23 10 31 13 13 13 17 2 24 -11 7 -11 9 1 9 9 0 11 8 7 23 -4 17 1 30 19 47 16
15 23 30 19 42 -5 16 1 18 45 18 28 0 51 -4 51 -10 0 -5 7 -10 15 -10 8 0 15
-4 15 -10 0 -5 4 -10 10 -10 5 0 29 -18 51 -40 23 -22 48 -40 56 -40 7 0 16
-7 20 -16 8 -21 46 -62 61 -66 7 -2 31 -20 54 -40 23 -21 47 -38 54 -38 6 0
19 -11 28 -25 9 -14 23 -25 31 -25 8 0 15 -4 15 -10 0 -16 95 -100 114 -100 1
0 22 -18 46 -40 24 -22 48 -40 53 -40 6 0 25 -18 44 -39 18 -22 42 -43 53 -46
11 -4 20 -13 20 -21 0 -8 4 -14 9 -14 5 0 20 -9 33 -20 58 -49 128 -100 138
-100 5 0 10 -4 10 -8 0 -11 167 -152 180 -152 5 0 10 -7 10 -15 0 -8 9 -19 20
-25 11 -6 20 -9 20 -6 0 2 13 -8 28 -22 62 -60 169 -146 197 -159 17 -8 41
-21 55 -28 14 -8 33 -15 43 -15 29 0 80 26 116 61 32 31 33 34 27 91 -8 64
-45 145 -65 140 -8 -2 -11 3 -8 10 5 15 -27 71 -110 193 -29 42 -53 81 -53 86
0 5 -9 14 -20 21 -11 7 -20 21 -20 30 0 9 -6 21 -14 25 -7 4 -28 36 -46 71
-18 34 -39 62 -47 62 -8 0 -13 6 -10 13 8 21 -20 77 -39 77 -11 0 -14 5 -10
17 7 18 -25 72 -87 145 -12 14 -31 38 -42 53 -40 52 -126 135 -141 135 -10 0
-13 6 -10 18 4 13 -3 25 -24 40 -16 12 -37 36 -45 52 -9 17 -22 30 -30 30 -8
0 -14 3 -14 8 4 22 -4 33 -27 42 -17 7 -24 15 -20 25 3 9 -3 24 -14 35 -11 11
-20 26 -20 34 0 7 -7 19 -15 26 -8 7 -15 18 -15 25 0 7 -12 29 -26 50 -14 21
-23 44 -20 51 3 8 -1 14 -9 14 -8 0 -15 7 -15 15 0 12 12 14 60 10 34 -2 62 0
66 6 3 6 22 8 45 4 27 -5 39 -3 39 5 0 8 13 10 43 5 30 -4 38 -3 27 4 -15 10
-3 11 110 12 19 0 40 5 47 10 7 7 30 8 55 4 33 -5 40 -4 28 5 -12 9 -7 10 23
5 20 -3 37 -2 37 3 0 9 45 14 120 13 19 0 40 5 46 10 7 6 28 7 48 3 25 -4 36
-3 36 6 0 9 11 10 35 6 20 -4 35 -3 35 2 0 10 64 15 149 13 24 -1 50 4 57 10
9 8 33 9 69 5 39 -4 55 -3 55 5 0 8 18 10 60 6 38 -4 60 -3 60 3 0 7 62 11
168 11 92 0 181 1 197 2 39 3 75 16 75 28 0 5 6 9 13 9 34 0 47 25 52 100 2
41 1 80 -3 85 -21 29 -88 68 -121 70 -60 3 -102 16 -95 27 5 7 -1 9 -15 5 -14
-3 -52 6 -97 24 -41 16 -79 27 -84 24 -5 -3 -24 1 -42 8 -18 8 -39 12 -47 9
-9 -3 -11 0 -6 8 6 10 2 12 -13 8 -12 -4 -24 -2 -27 2 -3 4 -20 8 -37 8 -39 1
-65 6 -74 15 -4 4 -19 4 -33 1 -21 -5 -23 -3 -11 6 12 9 9 11 -17 6 -18 -3
-33 -1 -33 3 0 5 -21 10 -47 10 -81 1 -93 3 -93 12 0 5 -15 6 -32 3 -26 -5
-30 -3 -18 6 12 9 6 10 -27 5 -27 -4 -43 -3 -43 3 0 9 -31 12 -142 13 -16 0
-28 4 -28 10 0 5 -18 7 -42 3 -33 -4 -40 -3 -28 6 11 8 4 9 -32 4 -32 -4 -48
-3 -48 5 0 10 -30 12 -170 11 -27 0 -32 2 -20 10 11 8 2 9 -32 4 -35 -4 -48
-3 -48 6 0 9 -11 10 -36 6 -20 -4 -41 -3 -48 3 -6 5 -27 10 -46 10 -94 -1
-124 2 -110 12 11 7 1 8 -30 4 -35 -5 -42 -4 -30 5 12 9 7 10 -23 5 -20 -3
-43 -2 -50 2 -6 4 -40 8 -73 9 -34 1 -67 5 -73 8 -16 10 -2 29 15 22 9 -3 18
2 21 12 4 9 12 22 17 28 6 6 18 21 26 34 8 12 25 34 38 48 42 50 47 56 69 85
12 17 20 34 17 38 -3 5 2 9 10 9 17 0 39 34 29 44 -3 3 1 6 10 6 18 0 40 33
30 44 -3 3 1 6 10 6 18 0 40 33 30 44 -3 3 1 6 10 6 9 0 21 9 27 21 7 11 19
29 28 39 9 11 27 32 40 47 13 15 34 41 48 56 13 16 22 33 19 38 -4 5 1 9 9 9
16 0 39 33 30 43 -3 3 3 8 14 11 10 4 29 26 41 51 12 25 28 45 35 45 6 0 23
13 36 30 14 16 34 41 45 54 11 13 29 36 40 50 11 15 32 40 48 57 15 17 25 34
22 40 -4 5 1 9 9 9 17 0 39 34 29 44 -3 3 1 6 10 6 16 0 45 39 30 41 -4 0 2 4
15 9 12 6 22 18 22 30 0 11 7 20 15 20 8 0 20 10 26 23 7 12 16 25 21 28 17
11 57 72 52 80 -3 5 2 9 10 9 8 0 20 9 26 21 7 11 20 29 31 40 10 10 16 25 13
34 -4 9 2 18 15 23 22 8 71 69 71 88 0 7 8 19 19 26 25 18 72 88 65 99 -3 5 1
9 8 9 12 0 86 104 139 195 13 22 29 46 36 53 7 7 10 19 7 27 -4 9 0 15 7 15
18 1 72 89 65 106 -10 25 -71 48 -135 50 -60 2 -68 -1 -125 -40 -57 -39 -74
-52 -121 -95 -11 -11 -30 -22 -42 -26 -13 -3 -23 -13 -23 -21 0 -8 -7 -14 -15
-14 -9 0 -18 -7 -21 -15 -4 -8 -13 -15 -21 -15 -14 0 -49 -24 -95 -65 -10 -8
-22 -15 -27 -15 -5 0 -16 -6 -24 -14 -24 -24 -147 -116 -156 -116 -4 0 -27
-18 -52 -40 -24 -22 -48 -40 -53 -40 -5 0 -16 -7 -25 -15 -34 -32 -121 -95
-131 -95 -6 0 -21 -10 -33 -23 -12 -13 -50 -45 -84 -71 -35 -27 -63 -53 -63
-57 0 -5 -7 -9 -15 -9 -8 0 -24 -9 -35 -20 -11 -11 -24 -20 -29 -20 -10 0 -34
-19 -104 -82 -23 -21 -45 -38 -49 -38 -4 0 -24 -16 -45 -36 -21 -20 -63 -57
-93 -83 -118 -99 -306 -264 -315 -276 -25 -31 -145 -30 -145 1 0 7 -9 19 -20
26 -13 8 -18 19 -14 34 3 12 -1 28 -10 37 -18 18 -21 37 -6 37 6 0 7 28 3 75
-4 51 -2 79 6 89 9 11 8 17 -5 30 -13 14 -15 28 -9 71 4 37 3 55 -4 55 -7 0
-11 18 -10 43 1 23 -1 74 -4 112 -3 41 -1 75 5 82 6 7 7 21 3 30 -7 17 -8 16
-15 -2 -7 -16 -9 -13 -9 15 -1 20 4 41 10 47 7 7 6 15 -6 26 -10 11 -13 25 -9
42 3 14 2 25 -4 25 -9 0 -13 50 -13 143 0 21 -4 37 -11 37 -7 0 -9 15 -5 45 4
29 3 45 -4 45 -7 0 -8 14 -4 40 4 25 3 40 -3 40 -12 0 -13 8 -13 88 0 29 -4
52 -10 52 -7 0 -8 15 -4 43 5 32 3 38 -5 27 -8 -11 -9 -6 -4 23 3 21 2 37 -3
37 -11 0 -13 14 -14 89 0 37 -3 50 -10 40 -7 -11 -9 -9 -9 8 0 12 5 23 11 25
8 3 6 10 -5 20 -9 9 -16 21 -15 25 1 4 0 10 -1 13 -7 18 -11 51 -11 87 -1 24
-5 45 -9 48 -5 3 -7 12 -3 20 3 8 0 15 -6 15 -7 0 -9 10 -5 26 4 15 2 29 -4
33 -7 4 -12 44 -13 94 -2 82 -4 89 -28 106 -40 28 -65 39 -79 34z"/>
</g>
</svg>
