<?xml version="1.0" standalone="no"?>
<!DOCTYPE svg PUBLIC "-//W3C//DTD SVG 20010904//EN"
 "http://www.w3.org/TR/2001/REC-SVG-20010904/DTD/svg10.dtd">
<svg version="1.0" xmlns="http://www.w3.org/2000/svg"
 width="2000.000000pt" height="2000.000000pt" viewBox="0 0 2000.000000 2000.000000"
 preserveAspectRatio="xMidYMid meet">
<metadata>
Created by potrace 1.16, written by Peter Selinger 2001-2019
</metadata>
<g transform="translate(0.000000,2000.000000) scale(0.100000,-0.100000)"
fill="#000000" stroke="none">
<path d="M8472 15937 c-15 -4 -60 -5 -99 -2 -46 3 -73 1 -73 -5 0 -12 -50 -13
-69 -1 -8 5 -21 7 -28 4 -12 -5 -12 -7 -1 -14 9 -6 5 -9 -12 -9 -15 0 -32 6
-39 13 -10 10 -15 9 -24 -4 -13 -16 -35 -20 -107 -20 -24 0 -48 -5 -52 -12 -6
-9 -12 -9 -26 0 -10 6 -25 8 -32 3 -10 -6 -10 -9 1 -14 8 -3 -1 -4 -19 -1 -20
3 -45 -1 -63 -10 -17 -9 -39 -13 -55 -9 -17 4 -29 2 -35 -7 -6 -11 -11 -11
-20 -2 -6 6 -18 9 -26 6 -12 -5 -12 -7 -1 -15 8 -6 2 -7 -19 -3 -18 4 -33 2
-33 -3 0 -10 -18 -13 -67 -12 -19 0 -33 -5 -33 -12 0 -9 -3 -9 -11 -1 -14 14
-42 5 -32 -10 4 -6 0 -8 -11 -4 -9 4 -28 0 -40 -9 -15 -9 -34 -12 -50 -8 -16
4 -26 2 -26 -5 0 -6 -7 -8 -15 -5 -8 4 -33 -3 -55 -15 -22 -11 -46 -18 -55
-15 -8 4 -15 1 -15 -6 0 -7 -8 -9 -20 -5 -11 4 -34 -1 -53 -10 -17 -10 -49
-18 -69 -20 -21 -1 -50 -11 -65 -21 -15 -10 -45 -19 -66 -20 -21 0 -49 -9 -66
-22 -23 -16 -38 -20 -62 -15 -25 5 -35 2 -48 -16 -11 -14 -30 -22 -56 -25 -46
-4 -77 -15 -87 -30 -4 -6 -23 -11 -43 -12 -20 -1 -49 -11 -66 -23 -17 -13 -37
-20 -48 -16 -10 3 -33 -5 -55 -20 -22 -15 -46 -23 -55 -20 -10 3 -34 -6 -55
-20 -24 -16 -45 -23 -59 -19 -15 3 -32 -2 -49 -15 -14 -12 -35 -21 -46 -21
-10 0 -36 -11 -56 -25 -24 -16 -45 -23 -59 -19 -15 3 -32 -2 -49 -15 -14 -12
-35 -21 -46 -21 -10 0 -36 -12 -57 -26 -21 -14 -43 -23 -51 -20 -7 3 -29 -6
-50 -20 -20 -14 -42 -23 -50 -20 -7 3 -29 -6 -50 -20 -20 -14 -42 -23 -50 -20
-7 3 -29 -6 -50 -20 -20 -14 -43 -23 -50 -20 -7 3 -23 -3 -36 -13 -23 -19 -23
-19 2 -40 14 -11 33 -19 43 -17 9 2 17 0 17 -5 0 -5 19 -7 43 -4 27 3 35 2 23
-3 -15 -6 -16 -11 -7 -16 7 -5 24 -3 37 4 18 10 30 11 47 3 13 -6 30 -8 37 -3
10 6 9 9 -1 13 -8 3 -2 6 13 6 15 1 29 -3 33 -9 3 -5 12 -7 20 -4 8 4 12 11 9
16 -4 6 2 8 15 3 12 -3 21 -2 21 4 0 9 25 12 95 12 16 0 33 5 37 12 6 9 12 9
26 0 10 -6 25 -8 32 -3 10 6 10 9 -1 14 -8 3 1 4 19 1 17 -2 32 0 32 5 0 5 12
9 28 9 56 -1 121 6 128 14 11 10 52 9 59 -3 3 -5 13 -6 21 -3 13 5 13 8 2 15
-8 6 2 8 30 4 25 -4 42 -2 42 4 0 5 17 9 38 8 20 0 68 2 107 5 43 4 74 2 82
-5 7 -5 21 -7 30 -3 17 7 16 8 -2 15 -14 6 -6 9 30 9 28 0 56 -3 64 -8 8 -5
21 -7 28 -4 12 5 12 7 1 15 -8 6 21 8 80 5 50 -2 92 -1 92 4 0 5 108 9 240 9
133 0 240 -4 240 -9 0 -5 38 -6 85 -3 57 3 85 1 85 -6 0 -7 25 -9 75 -5 52 4
75 2 75 -5 0 -11 32 -13 175 -12 26 0 35 -3 27 -9 -11 -7 -11 -9 2 -14 8 -3
18 -2 21 3 4 6 18 10 33 10 19 0 23 -3 14 -9 -11 -7 -11 -9 2 -14 8 -3 18 -2
21 3 8 13 45 13 45 0 0 -5 17 -9 38 -9 70 2 112 -3 112 -12 0 -5 11 -7 25 -3
16 4 25 2 25 -6 0 -7 8 -9 20 -5 11 3 20 2 20 -4 0 -5 19 -10 43 -10 62 0 77
-3 77 -14 0 -5 9 -7 20 -4 11 3 20 1 20 -5 0 -6 9 -8 20 -5 11 3 20 1 20 -4 0
-5 15 -9 33 -9 49 1 67 -2 67 -12 0 -5 10 -6 21 -3 13 5 19 3 15 -3 -3 -5 1
-12 9 -16 8 -3 15 0 15 7 0 8 3 8 9 -2 6 -9 18 -12 36 -7 19 5 33 2 46 -10 11
-10 33 -17 49 -17 16 0 27 -4 24 -9 -6 -9 6 -11 55 -8 21 1 31 -2 27 -9 -7
-11 37 -26 52 -17 12 7 82 -15 77 -24 -8 -13 53 -32 83 -26 23 6 34 1 55 -20
20 -20 32 -25 52 -20 20 5 34 0 57 -19 22 -18 38 -25 54 -21 15 4 35 -2 60
-19 20 -14 45 -25 55 -25 10 0 33 -9 50 -19 17 -11 37 -17 44 -15 7 3 29 -6
50 -20 21 -14 43 -26 49 -26 17 0 109 -49 117 -62 4 -6 22 -11 40 -11 18 0 40
-8 51 -19 10 -10 26 -18 36 -18 11 0 29 -9 42 -20 13 -11 30 -20 38 -20 8 0
27 -11 43 -25 16 -13 36 -22 44 -19 9 4 15 0 15 -9 0 -10 19 -22 49 -32 27 -9
52 -23 55 -31 3 -7 15 -14 26 -14 11 0 28 -9 37 -20 10 -11 23 -20 30 -20 6 0
39 -18 72 -40 33 -22 67 -40 75 -40 8 0 20 -9 26 -20 6 -11 16 -17 25 -14 9 4
15 0 15 -9 0 -8 17 -22 38 -30 21 -8 44 -22 51 -31 8 -9 19 -16 26 -16 6 0 20
-9 30 -20 10 -11 22 -20 28 -20 5 0 27 -16 48 -35 22 -19 45 -35 52 -35 8 0
24 -11 37 -25 13 -14 29 -25 36 -25 7 0 26 -12 42 -27 55 -52 111 -93 126 -93
9 0 16 -7 16 -15 0 -8 9 -15 20 -15 10 0 24 -9 30 -20 6 -11 17 -20 24 -20 8
0 21 -11 29 -24 20 -29 32 -40 106 -96 33 -25 60 -50 60 -57 1 -7 11 -18 24
-24 23 -12 95 -79 235 -216 46 -46 88 -83 93 -83 5 0 9 -6 9 -14 0 -19 29 -48
41 -41 5 4 6 0 3 -8 -3 -8 13 -28 40 -49 25 -19 43 -38 40 -41 -3 -3 23 -34
57 -69 35 -35 64 -70 64 -78 0 -8 9 -19 20 -25 11 -6 21 -17 23 -25 2 -8 7
-17 11 -20 5 -3 13 -15 20 -27 6 -13 18 -23 26 -23 8 0 15 -9 15 -20 0 -11 8
-24 18 -28 9 -4 18 -13 20 -20 5 -25 55 -92 69 -92 8 0 11 -5 8 -10 -7 -11 60
-120 73 -120 4 0 13 -13 19 -30 6 -17 19 -30 28 -30 11 0 15 -5 11 -15 -3 -8
1 -21 9 -28 7 -8 20 -30 29 -51 9 -21 22 -36 32 -36 11 0 14 -5 10 -16 -7 -17
68 -154 84 -154 6 0 9 -3 9 -7 -3 -21 2 -33 15 -33 8 0 12 -8 9 -22 -3 -16 6
-34 27 -56 16 -19 28 -38 24 -43 -3 -5 2 -12 11 -15 9 -4 14 -13 10 -22 -3 -8
14 -56 38 -106 24 -50 47 -103 51 -119 3 -15 15 -36 24 -45 10 -10 16 -24 14
-30 -2 -7 4 -15 13 -18 12 -5 13 -9 5 -14 -9 -5 -7 -16 6 -41 10 -19 17 -40
16 -47 -2 -7 4 -15 12 -18 8 -3 13 -11 10 -19 -3 -7 2 -20 11 -29 9 -9 14 -20
11 -24 -3 -5 1 -17 8 -28 8 -10 12 -24 9 -31 -3 -7 2 -16 11 -19 11 -4 14 -13
10 -30 -4 -15 -2 -24 6 -24 8 0 10 -9 6 -25 -4 -17 0 -31 14 -45 11 -11 18
-25 15 -30 -8 -12 15 -90 27 -90 4 0 8 -13 8 -29 0 -17 5 -33 10 -36 6 -3 7
-17 4 -31 -4 -13 -2 -24 4 -24 6 0 8 -9 5 -20 -3 -11 -1 -20 4 -20 5 0 9 -16
9 -36 0 -20 6 -40 15 -45 11 -8 11 -12 2 -16 -17 -6 -6 -53 19 -77 15 -14 18
-26 13 -57 -5 -27 -3 -39 5 -39 8 0 10 -9 6 -25 -4 -14 -2 -25 4 -25 14 0 12
-27 -2 -34 -10 -3 -9 -8 2 -18 20 -18 24 -35 22 -90 -2 -28 2 -48 8 -48 13 0
13 -37 0 -45 -5 -3 -6 -13 -3 -21 5 -13 7 -13 14 -2 6 9 9 5 9 -12 0 -15 -6
-32 -12 -39 -11 -10 -9 -15 6 -26 11 -9 16 -20 12 -30 -3 -9 -3 -22 1 -28 8
-12 15 -109 15 -229 1 -38 5 -68 9 -68 14 0 11 -174 -3 -189 -11 -10 -10 -15
5 -25 25 -19 25 -213 0 -232 -15 -10 -16 -15 -5 -25 14 -15 18 -209 3 -209 -4
0 -8 -21 -9 -47 -2 -114 -8 -189 -15 -200 -4 -6 -4 -18 -1 -27 4 -9 1 -16 -6
-16 -9 0 -11 -10 -6 -31 4 -24 2 -35 -11 -44 -15 -11 -15 -15 -4 -29 11 -13
11 -22 2 -42 -6 -14 -9 -29 -6 -34 3 -5 1 -12 -5 -15 -7 -4 -7 -12 -2 -18 4
-7 5 -25 1 -42 -3 -16 -7 -23 -8 -15 -1 13 -2 13 -11 0 -6 -9 -5 -17 3 -22 8
-5 6 -12 -8 -23 -14 -12 -16 -18 -7 -21 14 -6 17 -34 3 -34 -5 0 -8 -18 -7
-40 0 -25 -5 -44 -15 -52 -22 -17 -33 -65 -16 -71 8 -4 9 -8 1 -14 -6 -4 -11
-24 -12 -43 0 -19 -6 -36 -11 -38 -6 -2 -8 -8 -5 -14 3 -5 -2 -16 -12 -23 -17
-13 -17 -16 -4 -26 10 -7 11 -12 4 -15 -7 -3 -10 -14 -7 -24 3 -12 0 -20 -6
-20 -17 0 -41 -63 -34 -89 4 -15 -2 -33 -17 -53 -18 -24 -20 -32 -9 -39 11 -6
10 -9 -5 -15 -12 -5 -16 -13 -12 -28 3 -13 -2 -28 -15 -42 -11 -12 -20 -36
-21 -59 -1 -24 -10 -47 -25 -63 -13 -14 -24 -33 -24 -43 -1 -11 -2 -25 -3 -31
-1 -7 -7 -17 -13 -21 -7 -4 -13 -21 -13 -37 0 -17 -4 -30 -10 -30 -5 0 -16
-17 -25 -37 -42 -96 -157 -332 -190 -388 -13 -22 -22 -48 -19 -57 4 -12 0 -18
-10 -18 -9 0 -27 -21 -41 -47 -14 -27 -36 -66 -49 -88 -13 -22 -21 -45 -19
-52 3 -7 -1 -13 -8 -13 -8 0 -22 -12 -31 -28 -9 -15 -33 -49 -52 -77 -20 -27
-36 -56 -36 -62 0 -7 -4 -13 -10 -13 -5 0 -12 -11 -16 -25 -3 -14 -14 -31 -24
-38 -9 -6 -29 -32 -44 -56 -16 -24 -46 -62 -67 -85 -22 -22 -37 -46 -35 -53 3
-7 -1 -13 -9 -13 -8 0 -19 -9 -25 -21 -7 -11 -19 -29 -28 -39 -9 -11 -28 -33
-42 -51 -14 -17 -39 -45 -55 -62 -17 -18 -42 -49 -55 -69 -14 -21 -31 -38 -37
-38 -7 0 -19 -13 -27 -29 -8 -15 -31 -42 -50 -59 -25 -22 -34 -36 -29 -48 5
-14 2 -16 -15 -12 -16 5 -28 -1 -42 -19 -11 -14 -20 -32 -20 -39 0 -8 -5 -14
-11 -14 -6 0 -39 -29 -74 -65 -36 -36 -69 -65 -75 -65 -7 0 -9 -8 -5 -21 6
-19 4 -21 -15 -16 -16 4 -24 1 -27 -11 -3 -9 -31 -39 -63 -67 -32 -27 -93 -83
-136 -122 -44 -40 -86 -75 -94 -78 -8 -3 -26 -21 -40 -40 -14 -19 -41 -43 -60
-54 -19 -10 -53 -35 -74 -55 -22 -20 -57 -48 -79 -63 -21 -15 -58 -44 -80 -65
-23 -21 -48 -38 -55 -38 -7 0 -15 -7 -18 -15 -4 -8 -12 -15 -19 -15 -8 0 -22
-11 -33 -25 -11 -14 -27 -25 -36 -25 -8 0 -23 -11 -32 -25 -9 -14 -24 -25 -33
-25 -10 0 -35 -15 -57 -33 -21 -18 -56 -40 -76 -49 -21 -10 -38 -22 -38 -28 0
-5 -7 -10 -15 -10 -8 0 -19 -9 -25 -20 -6 -11 -20 -20 -31 -20 -11 0 -22 -7
-25 -15 -4 -8 -14 -15 -25 -15 -10 0 -26 -8 -36 -19 -10 -10 -30 -21 -45 -25
-15 -3 -32 -15 -38 -26 -6 -11 -21 -20 -34 -20 -13 0 -29 -7 -36 -15 -7 -8
-18 -15 -25 -15 -6 0 -20 -9 -30 -20 -10 -11 -27 -20 -38 -20 -11 0 -35 -14
-54 -30 -18 -17 -41 -30 -49 -30 -9 0 -27 -9 -41 -20 -14 -11 -34 -20 -44 -20
-10 0 -20 -4 -23 -9 -3 -4 -19 -11 -35 -14 -16 -4 -38 -16 -49 -27 -11 -12
-26 -21 -33 -20 -27 4 -38 0 -58 -21 -11 -12 -27 -19 -35 -16 -8 3 -31 -5 -52
-19 -20 -14 -42 -23 -50 -20 -7 3 -29 -6 -49 -20 -24 -16 -44 -22 -59 -18 -16
4 -32 -3 -54 -21 -19 -16 -39 -24 -49 -21 -10 3 -31 -3 -48 -14 -16 -11 -44
-20 -60 -20 -17 0 -40 -7 -51 -15 -12 -8 -24 -11 -28 -8 -3 3 -6 1 -6 -5 0 -7
-14 -12 -31 -12 -39 0 -109 -20 -109 -32 0 -4 -20 -8 -44 -8 -27 0 -48 -6 -56
-15 -7 -9 -20 -13 -30 -10 -9 3 -31 -2 -49 -11 -23 -11 -36 -13 -43 -6 -12 12
-41 4 -32 -9 3 -5 0 -9 -5 -9 -6 0 -11 4 -11 10 0 5 -7 7 -15 4 -8 -4 -12 -11
-9 -16 4 -6 -2 -8 -15 -3 -11 3 -21 2 -21 -3 0 -9 -12 -11 -77 -13 -24 0 -43
-5 -43 -11 0 -5 -9 -6 -20 -3 -12 4 -20 2 -20 -5 0 -8 -9 -10 -25 -6 -14 4
-25 2 -25 -3 0 -9 -17 -11 -117 -11 -25 0 -43 -5 -43 -11 0 -7 -12 -9 -35 -5
-24 5 -35 3 -35 -5 0 -8 -12 -10 -40 -5 -25 4 -40 2 -40 -4 0 -6 -19 -10 -42
-9 -131 3 -246 -7 -271 -24 -29 -19 -34 -32 -16 -42 6 -4 9 -29 7 -58 -3 -44
0 -52 16 -55 11 -2 26 -10 34 -18 8 -9 23 -12 38 -8 14 4 24 2 24 -4 0 -6 31
-11 78 -11 42 0 96 0 120 -1 23 0 42 -5 42 -10 0 -7 19 -8 53 -5 33 4 47 3 39
-3 -11 -8 -11 -10 1 -15 7 -3 20 -1 28 4 17 11 109 12 109 1 0 -7 84 -9 455
-9 366 0 435 2 435 9 0 11 82 10 99 -1 8 -5 21 -7 28 -4 12 5 12 7 1 14 -9 6
-3 9 17 9 17 0 36 -4 44 -9 8 -5 21 -7 28 -4 12 5 12 7 1 14 -8 6 1 9 27 10
83 0 141 5 157 13 9 4 25 3 35 -3 11 -5 25 -6 32 -2 11 7 11 10 0 14 -8 3 -5
6 8 6 12 1 24 -3 28 -9 3 -5 12 -7 20 -4 8 4 13 10 10 14 -6 10 8 12 75 12 25
0 48 5 52 11 5 9 10 9 19 0 6 -6 18 -9 26 -6 12 5 12 7 1 15 -9 7 -4 8 15 4
16 -4 39 0 57 9 18 9 40 13 56 9 17 -4 29 -2 35 7 6 10 9 10 9 2 0 -7 7 -10
16 -6 13 5 13 8 2 15 -8 6 -2 7 18 3 22 -4 35 -1 44 10 9 11 22 14 43 9 20 -4
32 -2 38 7 6 10 9 10 9 2 0 -7 7 -10 15 -7 8 4 12 11 8 17 -4 6 0 8 11 4 9 -4
27 0 40 8 13 9 31 12 41 9 10 -4 21 -1 26 7 6 10 9 10 9 2 0 -7 7 -10 15 -7 8
4 12 11 8 17 -4 7 0 8 12 3 11 -4 22 -2 26 6 5 7 25 13 46 14 21 0 54 8 73 18
19 10 50 20 69 21 19 2 47 13 63 25 16 12 36 19 47 15 10 -3 33 5 55 20 22 15
46 23 55 20 10 -3 33 5 52 18 20 13 50 24 69 25 23 0 40 8 51 23 9 12 22 19
30 17 8 -3 38 8 66 24 29 16 57 27 62 23 6 -3 18 3 28 14 10 10 31 19 47 19
18 0 36 8 47 21 9 11 27 21 38 21 12 0 30 9 42 21 11 11 27 18 34 15 8 -3 25
4 38 15 14 10 33 19 42 19 9 0 27 12 42 26 14 14 31 23 39 20 8 -3 26 6 40 19
15 14 35 25 44 25 10 0 23 6 29 13 6 8 29 19 51 26 22 6 40 16 40 22 0 5 11
14 25 19 14 5 28 17 31 25 4 8 14 15 24 15 26 0 170 86 170 101 0 5 9 9 20 9
11 0 25 9 32 20 7 11 21 20 30 20 10 0 23 9 30 20 7 11 21 20 30 20 10 0 23 9
30 20 7 11 20 20 30 20 9 0 35 18 58 40 23 22 48 40 56 40 7 0 33 19 57 43 23
24 50 46 60 50 9 3 17 11 17 17 0 5 5 10 11 10 15 0 139 99 139 111 0 5 10 13
23 18 47 18 252 208 248 229 -1 9 4 12 17 8 21 -7 48 17 37 33 -3 6 0 9 7 6 7
-3 53 37 103 91 50 52 117 123 150 158 33 35 69 76 80 91 11 16 38 48 60 71
54 59 77 87 75 98 -1 5 9 14 22 20 13 6 23 18 23 26 0 8 9 20 20 25 11 6 20
17 20 25 0 8 9 20 20 26 11 5 19 18 19 27 -1 9 4 17 11 17 6 0 17 12 24 27 7
15 21 33 32 41 11 8 18 20 15 28 -3 8 1 14 9 14 8 0 20 10 26 23 7 12 23 35
36 51 13 16 22 35 19 42 -3 8 1 14 8 14 8 0 19 14 26 30 7 17 16 30 19 30 14
0 60 81 55 95 -4 9 0 15 10 15 8 0 22 12 30 28 8 15 30 52 50 82 20 31 34 62
31 71 -4 11 1 18 14 22 11 3 23 17 27 32 4 16 15 36 25 46 11 11 19 26 19 35
0 9 9 27 20 42 16 20 18 27 8 34 -10 6 -8 8 4 8 11 0 28 22 48 61 17 34 28 64
26 67 -3 2 4 14 15 25 20 21 44 91 40 115 -1 6 3 12 9 12 10 0 60 102 60 122
0 5 9 22 20 36 15 18 19 34 15 54 -5 21 -3 28 9 28 10 0 16 9 16 24 0 14 4 28
10 31 6 3 10 12 10 20 0 8 11 31 25 51 16 24 23 44 19 59 -4 15 0 24 11 29 11
4 15 13 12 25 -3 12 1 22 10 25 12 5 13 9 3 21 -11 13 -9 19 8 36 21 19 28 47
23 94 -1 11 8 27 20 36 17 12 23 30 27 73 2 31 9 56 14 56 6 0 7 12 4 28 -4
18 -4 22 3 13 12 -18 25 21 22 68 -1 21 4 38 14 45 12 9 18 35 22 95 5 67 10
87 27 103 15 14 17 22 9 25 -7 3 -13 12 -13 21 0 13 2 14 9 4 7 -11 9 -11 14
1 3 8 1 19 -4 24 -7 7 -5 24 6 49 9 21 13 49 10 61 -3 13 -1 23 5 23 7 0 9 8
5 21 -5 14 -3 19 3 15 15 -9 21 16 10 37 -6 12 -6 29 0 47 6 16 8 31 4 34 -3
4 3 13 14 22 13 11 15 17 7 20 -7 3 -13 15 -13 27 0 16 3 18 9 9 7 -11 9 -11
14 2 3 8 2 18 -3 21 -13 8 -13 45 0 45 5 0 9 28 10 63 0 34 0 74 1 90 0 15 5
27 11 27 7 0 8 14 4 42 -4 26 -3 44 4 48 8 5 9 27 2 74 -6 47 -5 71 3 84 8 12
11 120 11 380 -1 199 2 362 6 362 12 0 10 38 -2 45 -5 3 -10 1 -10 -4 0 -6 -3
-11 -8 -11 -11 0 -2 82 11 99 9 10 7 16 -6 26 -20 14 -22 46 -4 64 10 10 8 15
-7 26 -10 8 -16 20 -13 28 3 8 1 32 -4 54 -5 23 -5 53 0 70 9 32 -1 68 -12 42
-3 -8 -6 -5 -6 8 -1 12 3 24 9 28 5 3 6 13 3 21 -5 13 -8 13 -15 2 -6 -9 -8
-1 -4 22 3 19 -1 53 -8 75 -8 22 -11 55 -8 74 4 26 2 32 -8 26 -10 -6 -11 -2
-6 19 4 15 2 26 -4 26 -14 0 -12 27 3 34 8 3 7 9 -7 20 -13 11 -18 28 -18 65
0 28 -4 51 -8 51 -5 0 -6 9 -3 20 3 11 1 20 -5 20 -6 0 -8 9 -5 20 3 12 0 20
-8 20 -7 0 -9 3 -6 6 3 4 2 15 -4 26 -8 14 -7 24 2 35 11 12 10 17 -3 27 -11
8 -14 21 -11 39 4 19 1 29 -11 33 -12 5 -16 17 -15 43 3 49 -10 88 -23 70 -6
-10 -7 -7 -3 10 5 15 2 26 -6 31 -7 5 -12 22 -12 39 0 17 -4 31 -9 31 -5 0 -7
9 -3 19 3 11 -3 35 -14 56 -10 20 -17 44 -14 55 3 12 -2 22 -16 29 -17 10 -21
21 -21 61 0 37 -5 55 -20 70 -11 11 -20 33 -20 50 0 20 -9 40 -25 56 -14 14
-23 29 -20 34 9 15 -15 91 -31 97 -8 3 -12 13 -9 23 3 9 -4 28 -15 43 -11 14
-20 32 -20 41 0 9 -4 16 -10 16 -5 0 -7 7 -4 15 4 8 -1 17 -10 21 -11 4 -14
13 -11 25 4 12 1 21 -9 25 -9 3 -14 10 -11 14 3 5 -4 18 -17 29 -12 12 -19 24
-15 27 8 9 -21 64 -34 64 -6 0 -9 6 -6 13 6 16 -20 67 -34 67 -6 0 -9 7 -5 15
6 17 -40 115 -55 115 -5 0 -9 8 -9 19 0 10 -8 29 -18 42 -10 13 -23 36 -30 52
-6 15 -18 27 -27 27 -9 0 -15 9 -15 24 0 14 -7 31 -15 40 -8 8 -15 19 -15 25
0 12 -41 77 -65 104 -9 10 -20 29 -25 42 -5 14 -14 25 -20 25 -5 0 -10 7 -10
14 0 8 -11 27 -25 42 -14 15 -25 33 -25 41 0 7 -6 16 -14 19 -8 3 -17 15 -20
27 -7 27 -46 71 -70 80 -12 5 -15 13 -11 28 5 15 2 22 -14 26 -12 3 -21 11
-21 18 0 7 -9 24 -20 37 -11 12 -36 41 -55 63 -19 22 -35 43 -35 46 0 4 -20
27 -44 53 -25 25 -46 54 -48 63 -2 10 -13 23 -26 29 -12 6 -19 14 -15 17 3 4
-14 26 -38 50 -24 24 -64 65 -88 93 -77 87 -356 364 -366 364 -5 0 -32 27 -60
60 -27 33 -53 60 -57 60 -4 0 -44 33 -91 73 -46 39 -121 101 -167 137 -45 36
-97 77 -115 93 -18 15 -37 27 -43 27 -6 0 -29 18 -52 40 -23 22 -48 40 -55 40
-7 0 -29 16 -48 35 -19 19 -41 35 -49 35 -8 0 -25 11 -37 24 -13 14 -29 22
-36 20 -6 -3 -20 6 -29 20 -9 15 -21 26 -27 26 -5 0 -23 9 -39 20 -17 11 -43
29 -60 40 -16 11 -35 20 -42 20 -8 0 -21 9 -31 20 -9 11 -26 20 -37 20 -11 0
-20 7 -20 15 0 15 -11 19 -39 15 -7 -1 -20 8 -28 19 -8 12 -22 21 -32 21 -10
0 -28 11 -41 25 -13 14 -34 25 -47 25 -13 0 -23 5 -23 10 0 6 -11 10 -25 10
-14 0 -25 6 -25 13 0 13 -59 47 -81 47 -6 0 -17 7 -25 15 -9 8 -27 18 -42 22
-15 3 -32 13 -38 21 -6 8 -25 15 -43 14 -17 0 -31 3 -31 8 0 12 -54 40 -77 40
-10 0 -24 9 -31 20 -7 11 -23 20 -37 20 -13 0 -39 9 -56 19 -17 11 -38 17 -45
14 -8 -3 -24 7 -35 21 -17 22 -27 26 -49 21 -22 -5 -34 0 -54 20 -20 20 -33
25 -51 21 -16 -4 -36 2 -61 19 -23 15 -45 23 -56 19 -12 -3 -30 4 -50 21 -24
20 -38 25 -60 21 -21 -4 -38 0 -57 15 -15 11 -43 22 -62 24 -19 1 -49 11 -68
20 -18 10 -50 19 -70 20 -20 2 -51 10 -69 20 -18 9 -39 14 -47 11 -8 -3 -15 0
-15 5 0 7 -9 9 -22 5 -14 -3 -41 3 -66 15 -23 12 -49 18 -57 15 -8 -3 -15 -1
-15 4 0 5 -17 9 -37 9 -52 -1 -73 3 -68 12 3 4 -2 9 -10 13 -8 3 -15 1 -15 -4
0 -6 -8 -10 -17 -10 -14 0 -15 2 -5 9 11 7 11 9 -1 14 -8 3 -20 0 -26 -6 -9
-9 -14 -9 -19 0 -4 7 -23 12 -42 12 -76 1 -90 3 -84 13 4 7 -5 8 -26 3 -25 -5
-31 -4 -25 5 6 10 0 11 -27 6 -19 -3 -38 -3 -42 1 -7 7 -45 11 -128 13 -16 0
-28 5 -28 11 0 5 -18 7 -42 3 -28 -4 -38 -2 -30 4 11 8 11 10 -1 15 -7 3 -20
1 -28 -4 -17 -11 -73 -12 -83 -1 -4 4 -49 8 -99 8 -510 8 -651 8 -675 1z m396
-241 c3 -3 -2 -6 -11 -6 -9 0 -17 -4 -17 -10 0 -13 37 -13 45 1 5 7 42 8 113
3 59 -4 126 -6 150 -5 23 1 42 -3 42 -9 0 -6 19 -7 48 -4 31 4 42 2 34 -4 -11
-7 -11 -10 2 -15 8 -3 18 -2 21 3 4 6 18 10 33 9 15 0 21 -3 13 -6 -26 -11 11
-21 42 -12 18 5 45 5 63 0 18 -5 35 -6 38 -3 4 3 12 -3 19 -12 12 -16 16 -17
36 -5 18 12 23 12 30 0 5 -8 16 -11 30 -6 11 3 26 3 33 -2 11 -6 35 -10 96
-15 6 -1 12 -6 12 -11 0 -5 9 -7 20 -4 11 3 20 1 20 -5 0 -5 12 -7 30 -3 20 4
30 3 30 -5 0 -7 8 -9 20 -5 10 3 33 -1 50 -10 18 -9 38 -14 46 -11 8 3 14 0
14 -5 0 -6 9 -9 20 -6 11 3 20 2 20 -3 0 -4 18 -7 41 -7 23 0 45 -6 49 -13 4
-7 22 -13 39 -14 17 0 31 -4 31 -8 0 -5 18 -8 40 -8 22 0 40 -4 40 -8 0 -12
78 -35 90 -27 5 3 20 0 32 -7 13 -7 29 -11 37 -9 7 1 10 -2 7 -8 -8 -13 29
-24 54 -16 13 4 30 -1 46 -14 15 -11 30 -18 35 -15 5 3 9 0 9 -6 0 -8 9 -10
26 -6 19 5 33 0 56 -19 22 -19 38 -25 55 -20 15 3 33 -2 52 -16 16 -12 42 -21
57 -21 15 0 42 -11 61 -24 19 -12 40 -21 47 -18 8 3 30 -6 51 -20 21 -14 44
-26 51 -26 8 0 27 -8 45 -19 17 -10 39 -16 50 -14 10 3 19 0 19 -6 0 -13 51
-40 67 -34 6 2 21 -5 32 -16 12 -12 31 -21 44 -21 12 0 28 -9 34 -19 7 -11 25
-22 42 -26 16 -3 35 -13 42 -21 6 -8 21 -14 34 -14 12 0 32 -9 45 -20 13 -11
33 -20 45 -20 13 0 26 -7 29 -15 3 -9 23 -23 43 -32 21 -8 42 -21 46 -29 4 -8
19 -14 32 -14 14 0 29 -8 35 -20 6 -11 19 -20 29 -20 10 0 24 -7 31 -15 7 -8
19 -15 28 -15 8 0 24 -9 36 -21 29 -29 94 -69 111 -69 8 0 15 -7 15 -15 0 -14
11 -19 36 -16 6 1 19 -10 28 -24 9 -14 24 -25 34 -25 9 0 23 -9 30 -20 7 -11
21 -20 31 -20 10 0 21 -7 25 -15 3 -8 29 -30 58 -49 29 -19 68 -48 87 -65 19
-17 37 -31 40 -31 5 0 57 -45 111 -94 8 -8 22 -16 30 -18 8 -2 19 -12 25 -23
6 -11 17 -20 24 -20 15 0 114 -87 208 -182 34 -35 69 -63 77 -63 9 0 15 -4 13
-9 -1 -5 31 -41 71 -80 39 -40 72 -75 72 -79 0 -4 20 -24 44 -45 25 -20 47
-46 51 -56 3 -11 23 -33 43 -48 20 -15 37 -35 37 -43 0 -8 10 -19 23 -25 12
-5 22 -15 22 -21 0 -5 13 -23 30 -39 16 -16 42 -47 57 -69 15 -23 30 -43 33
-46 4 -3 16 -22 29 -42 12 -21 29 -38 37 -38 7 0 11 -6 9 -12 -3 -7 8 -27 24
-44 16 -17 36 -45 45 -62 9 -18 23 -32 32 -32 8 0 12 -5 9 -10 -9 -14 55 -110
72 -110 8 0 11 -5 8 -10 -8 -13 17 -53 57 -92 17 -16 27 -32 24 -35 -8 -9 27
-63 41 -63 7 0 10 -6 7 -14 -6 -15 27 -82 55 -113 11 -12 17 -24 14 -27 -9 -8
27 -46 44 -46 16 0 18 -17 2 -22 -13 -4 58 -137 78 -145 8 -3 11 -13 8 -24 -4
-12 3 -27 19 -44 14 -14 26 -34 26 -43 0 -20 14 -43 26 -45 5 -1 8 -10 7 -19
-4 -28 15 -68 32 -68 11 0 14 -6 9 -25 -3 -14 -2 -25 2 -25 9 0 34 -69 34 -93
0 -8 9 -26 20 -40 11 -14 20 -29 19 -34 -4 -25 4 -47 27 -70 14 -14 23 -31 20
-39 -3 -7 -1 -16 3 -19 5 -3 7 -14 4 -26 -4 -15 0 -22 15 -26 17 -4 19 -11 15
-36 -3 -24 1 -40 18 -62 13 -16 22 -38 21 -48 -2 -11 -1 -31 3 -45 5 -21 8
-23 16 -11 7 10 8 6 3 -13 -5 -22 -3 -28 11 -28 14 0 16 -6 12 -29 -8 -37 9
-97 28 -105 17 -6 20 -37 6 -51 -11 -12 4 -55 19 -55 6 0 10 -6 8 -12 -1 -7 3
-23 10 -35 7 -13 10 -34 6 -49 -5 -19 -4 -25 5 -20 6 4 11 3 11 -3 0 -5 -6
-12 -12 -15 -9 -3 -8 -9 6 -20 20 -16 29 -49 28 -104 0 -18 4 -30 9 -27 5 4 9
0 9 -9 0 -8 -6 -17 -12 -20 -10 -3 -8 -8 4 -19 11 -9 15 -21 11 -36 -3 -13 1
-29 11 -40 13 -14 16 -28 10 -56 -5 -27 -4 -36 5 -31 6 4 11 1 11 -8 0 -8 -4
-17 -10 -21 -5 -3 -6 -13 -3 -21 5 -13 7 -13 14 -2 6 9 9 7 9 -9 0 -12 -6 -24
-12 -27 -9 -3 -7 -9 6 -20 16 -13 20 -28 19 -81 0 -36 3 -65 8 -65 14 0 11
-44 -3 -59 -11 -10 -9 -15 5 -26 14 -10 17 -21 12 -49 -5 -22 -3 -36 3 -36 11
0 12 -17 14 -167 0 -51 5 -93 9 -93 5 0 9 -142 9 -315 0 -174 -4 -315 -9 -315
-5 0 -9 -42 -9 -92 -1 -150 -4 -198 -13 -198 -5 0 -7 -19 -3 -42 4 -28 2 -38
-4 -30 -7 11 -10 11 -15 -2 -3 -8 -2 -18 3 -21 14 -9 12 -55 -1 -55 -8 0 -9
-13 -5 -40 5 -30 1 -49 -15 -81 -18 -34 -20 -42 -8 -50 11 -7 10 -11 -6 -23
-17 -14 -18 -17 -5 -26 13 -8 13 -11 1 -19 -10 -6 -12 -19 -7 -41 4 -21 0 -44
-10 -66 -9 -19 -14 -37 -10 -41 3 -3 -2 -12 -12 -20 -12 -10 -14 -16 -4 -19
15 -7 16 -34 2 -34 -7 0 -8 -13 -4 -35 4 -24 2 -35 -5 -35 -17 0 -46 -73 -32
-78 6 -2 11 -8 11 -13 0 -6 -5 -7 -11 -3 -8 4 -9 -3 -4 -26 6 -26 3 -34 -15
-47 -17 -12 -21 -22 -16 -44 3 -17 1 -29 -5 -29 -7 0 -8 -11 -4 -30 5 -23 3
-32 -10 -36 -12 -5 -15 -14 -11 -33 3 -14 3 -20 -1 -12 -4 10 -9 8 -18 -9 -9
-18 -10 -28 -2 -41 9 -14 6 -21 -13 -37 -18 -15 -24 -29 -24 -63 -1 -31 -7
-49 -21 -61 -16 -14 -17 -19 -6 -27 11 -7 9 -11 -8 -21 -15 -7 -20 -17 -17
-27 4 -9 -1 -24 -11 -35 -9 -10 -18 -36 -19 -58 -1 -21 -11 -52 -23 -68 -11
-17 -21 -35 -21 -42 0 -7 -9 -25 -20 -40 -14 -20 -19 -37 -14 -55 5 -21 2 -27
-15 -32 -21 -5 -37 -43 -32 -75 1 -10 -4 -18 -12 -18 -14 0 -42 -49 -32 -58 3
-3 -7 -20 -21 -39 -14 -18 -23 -37 -20 -42 3 -4 -3 -16 -14 -26 -11 -10 -20
-27 -20 -37 0 -11 -9 -31 -20 -45 -11 -14 -17 -29 -14 -34 3 -5 -4 -17 -15
-27 -11 -9 -21 -24 -23 -32 -2 -8 -8 -19 -15 -25 -7 -5 -23 -29 -35 -52 -13
-22 -44 -76 -70 -119 -27 -43 -48 -86 -48 -96 0 -10 -7 -18 -15 -18 -9 0 -21
-12 -28 -28 -6 -15 -17 -33 -24 -40 -7 -7 -13 -22 -13 -33 0 -10 -6 -19 -13
-19 -12 0 -107 -127 -107 -143 0 -3 -10 -17 -22 -30 -30 -30 -51 -63 -49 -72
1 -4 -8 -13 -21 -19 -13 -6 -23 -18 -23 -26 0 -8 -9 -20 -20 -25 -11 -6 -20
-17 -20 -25 0 -8 -9 -20 -20 -25 -11 -6 -20 -17 -20 -25 0 -8 -9 -20 -20 -25
-11 -6 -20 -17 -20 -25 0 -12 -53 -73 -164 -187 -17 -17 -31 -35 -31 -40 0 -9
-365 -370 -446 -441 -27 -24 -72 -66 -101 -92 -29 -27 -65 -57 -80 -66 -33
-21 -54 -39 -90 -77 -15 -15 -43 -38 -63 -50 -19 -12 -44 -30 -55 -40 -11 -11
-44 -37 -72 -58 -29 -22 -53 -44 -53 -49 0 -6 -7 -10 -16 -10 -16 0 -92 -53
-140 -97 -14 -13 -31 -23 -39 -23 -8 0 -20 -9 -27 -20 -7 -11 -21 -20 -30 -20
-10 0 -23 -9 -30 -20 -7 -11 -19 -20 -26 -20 -7 0 -25 -8 -40 -19 -15 -10 -51
-33 -79 -51 -29 -19 -53 -37 -53 -42 0 -4 -9 -8 -20 -8 -10 0 -27 -8 -37 -19
-10 -10 -30 -21 -45 -25 -16 -3 -28 -11 -28 -16 0 -6 -9 -10 -19 -10 -10 0
-29 -11 -42 -25 -13 -13 -33 -25 -44 -25 -25 0 -40 -10 -48 -33 -5 -12 -13
-16 -25 -13 -10 4 -29 -4 -46 -19 -16 -14 -37 -25 -47 -25 -10 0 -27 -9 -37
-20 -10 -11 -26 -18 -34 -15 -8 3 -27 -6 -42 -20 -15 -14 -33 -25 -39 -24 -25
3 -37 -2 -56 -22 -11 -12 -25 -19 -33 -16 -7 2 -29 -3 -48 -13 -45 -23 -94
-42 -99 -40 -2 1 -8 -5 -13 -13 -5 -9 -21 -15 -38 -15 -16 1 -40 -6 -54 -15
-14 -10 -34 -17 -45 -17 -11 0 -23 -5 -26 -10 -4 -6 -10 -8 -15 -5 -4 2 -18
-4 -31 -14 -13 -10 -38 -18 -56 -18 -17 0 -44 -8 -60 -19 -15 -10 -44 -19 -64
-19 -19 -1 -54 -11 -77 -23 -23 -12 -49 -19 -58 -15 -9 3 -20 0 -25 -8 -6 -10
-9 -10 -9 -2 0 7 -7 10 -15 7 -8 -4 -12 -11 -9 -16 4 -6 -2 -8 -15 -3 -11 3
-21 2 -21 -3 0 -10 -18 -13 -67 -12 -18 0 -33 -4 -33 -9 0 -5 -9 -7 -20 -4
-11 3 -20 0 -20 -6 0 -5 -7 -8 -15 -5 -8 4 -15 1 -15 -4 0 -10 -15 -12 -90
-13 -14 -1 -30 -5 -37 -11 -7 -5 -26 -7 -43 -3 -20 4 -30 3 -30 -5 0 -9 -11
-10 -35 -6 -21 4 -35 3 -35 -3 0 -6 -17 -10 -37 -9 -21 1 -76 -2 -123 -5 -126
-9 -397 -10 -411 -2 -18 12 18 35 52 35 26 0 53 8 106 32 11 6 26 8 31 4 6 -3
14 -2 17 4 4 6 16 8 27 5 14 -5 21 -1 25 15 4 16 11 20 26 16 12 -3 37 3 56
14 20 10 48 21 64 25 15 3 37 15 48 26 11 11 26 18 33 16 8 -3 28 3 45 14 17
10 43 19 56 19 14 0 30 9 37 20 7 11 21 20 31 20 25 0 77 28 77 41 0 7 10 9
25 5 18 -5 27 -1 34 13 6 11 26 21 51 25 22 3 43 13 46 21 4 8 14 15 24 15 9
0 34 13 55 30 21 17 46 30 56 30 11 0 19 5 19 10 0 6 9 10 20 10 12 0 32 11
46 25 14 14 36 25 49 25 13 0 28 6 32 13 4 7 19 18 33 25 77 38 164 91 172
105 5 10 18 17 29 17 11 0 22 7 25 15 4 8 12 15 20 15 8 0 37 16 64 35 27 19
54 35 59 35 5 0 18 10 28 23 10 13 31 27 46 31 15 3 27 10 27 15 0 5 20 21 45
36 25 14 52 37 61 50 9 14 25 25 35 25 11 0 19 7 19 15 0 8 7 15 15 15 8 0 41
21 73 46 31 25 67 53 79 62 13 9 34 27 48 40 15 12 29 22 33 22 4 0 20 18 36
40 17 22 34 40 39 40 17 0 72 53 69 66 -2 9 3 11 12 8 10 -4 35 15 71 55 31
33 65 63 76 66 13 5 18 12 14 24 -4 13 0 17 17 17 17 -1 22 4 21 20 -2 15 3
20 20 20 17 -1 21 4 20 20 -2 17 2 21 16 17 13 -3 25 4 37 23 11 16 47 57 82
92 34 35 60 67 57 71 -2 5 16 23 40 40 25 18 45 37 45 42 0 5 17 27 38 48 20
21 46 50 57 65 34 46 54 70 91 111 19 22 44 56 54 76 10 19 32 48 48 65 36 36
74 99 65 107 -3 4 1 7 9 7 9 0 25 15 37 33 11 17 27 41 34 52 54 76 87 135 87
154 0 12 6 21 15 21 8 0 28 27 45 59 16 33 34 62 40 66 5 3 10 14 10 24 0 10
11 28 25 41 14 13 25 30 25 37 0 8 7 25 16 38 9 14 13 25 8 25 -4 0 -1 6 8 13
16 12 64 100 70 127 2 8 8 19 14 25 6 5 17 26 24 45 8 19 21 46 31 60 18 28
59 120 62 141 2 8 10 25 20 39 9 13 17 39 17 57 0 17 5 35 11 39 17 10 69 130
69 159 0 14 4 25 9 25 12 0 34 55 34 86 0 15 8 35 19 46 14 14 18 27 14 44 -4
14 -2 24 4 24 7 0 9 8 5 21 -5 14 -1 25 13 34 14 10 21 31 25 71 4 37 12 61
21 66 10 6 16 23 16 48 0 21 5 40 11 42 6 2 11 24 12 50 1 25 5 44 9 41 5 -2
8 14 8 36 0 23 4 41 8 41 4 0 13 14 20 32 9 25 9 34 -1 40 -9 6 -9 10 1 16 7
5 13 29 14 55 0 26 5 47 10 47 5 0 6 5 3 11 -4 6 1 17 11 25 14 11 15 17 7 20
-7 3 -13 13 -13 22 0 13 2 14 9 4 7 -11 9 -11 14 1 3 8 1 19 -6 26 -7 7 -7 17
1 35 6 13 8 33 5 45 -3 12 -1 21 6 21 7 0 9 9 5 25 -4 15 -2 25 5 25 6 0 8 12
5 33 -4 21 -3 28 4 19 8 -11 10 -11 15 1 3 8 1 19 -5 25 -7 7 -7 20 0 41 6 17
8 46 5 66 -4 24 -2 35 7 35 8 0 10 8 6 26 -5 19 -2 30 11 39 14 11 16 16 6 26
-15 15 -18 89 -4 89 5 0 8 19 8 43 0 71 0 789 1 840 0 27 -4 47 -10 47 -7 0
-9 20 -5 60 4 33 3 60 -2 60 -5 0 -7 18 -4 40 3 22 2 40 -4 40 -9 0 -13 21
-13 88 0 29 -4 41 -12 36 -8 -5 -9 1 -4 21 4 17 3 31 -3 35 -6 3 -12 24 -14
46 -1 21 -6 44 -10 51 -4 7 -5 24 -1 38 3 14 2 25 -4 25 -6 0 -8 9 -5 20 3 12
-1 28 -10 38 -9 9 -15 35 -15 57 0 61 -1 67 -14 59 -8 -5 -9 -2 -5 9 3 10 2
17 -4 17 -6 0 -8 9 -4 20 4 12 0 31 -9 44 -8 13 -12 33 -9 45 3 11 1 21 -4 21
-5 0 -10 17 -10 37 -1 21 -6 39 -12 41 -6 2 -11 16 -11 32 0 43 -10 65 -22 48
-7 -9 -8 -7 -5 10 3 12 1 22 -4 22 -5 0 -9 18 -9 40 0 35 -13 74 -30 90 -3 3
-7 18 -8 34 -1 16 -6 34 -11 40 -5 6 -12 27 -16 46 -4 19 -16 47 -26 62 -11
14 -19 33 -19 42 0 9 -5 16 -11 16 -5 0 -7 5 -3 11 6 10 -1 32 -42 127 -7 17
-21 32 -29 32 -11 0 -14 6 -9 24 4 16 -10 52 -45 123 -28 54 -51 104 -51 111
0 6 -7 15 -16 20 -9 5 -15 12 -14 16 4 14 -19 66 -29 66 -6 0 -10 3 -9 8 3 17
-15 62 -33 78 -10 9 -19 25 -19 34 0 9 -11 31 -25 50 -14 19 -25 38 -25 43 0
4 -11 23 -25 41 -14 18 -25 37 -25 42 0 5 -10 20 -22 34 -22 24 -40 56 -52 93
-3 11 -15 21 -26 24 -11 3 -20 10 -19 17 3 25 -2 36 -17 36 -8 0 -13 4 -10 9
10 16 -6 42 -31 52 -16 6 -23 15 -19 24 3 8 -3 23 -13 32 -10 10 -26 33 -35
51 -10 18 -25 41 -34 50 -9 9 -31 40 -49 67 -18 28 -50 70 -73 93 -22 24 -40
47 -40 52 0 5 -8 11 -19 15 -10 3 -18 13 -17 22 0 9 -8 22 -19 27 -11 6 -20
18 -20 26 0 8 -10 19 -22 25 -13 5 -23 15 -23 21 0 22 -199 228 -217 225 -7
-1 -12 6 -10 16 2 19 -170 193 -191 193 -6 0 -9 6 -6 13 6 17 -21 41 -36 32
-5 -3 -10 -1 -10 5 0 16 -160 160 -305 274 -28 22 -59 48 -70 58 -44 40 -69
58 -82 58 -7 0 -13 5 -13 10 0 6 -12 16 -26 22 -14 6 -41 27 -60 45 -20 18
-44 33 -54 33 -10 0 -25 11 -34 25 -9 14 -24 25 -34 25 -9 0 -23 9 -30 20 -7
11 -20 20 -30 20 -9 0 -23 9 -30 20 -7 11 -21 20 -32 20 -10 0 -24 9 -30 20
-6 11 -16 18 -21 14 -6 -3 -21 6 -34 20 -13 14 -33 26 -45 26 -11 0 -20 5 -20
11 0 5 -15 16 -34 24 -19 8 -37 19 -41 25 -3 5 -16 10 -28 10 -12 0 -28 9 -35
20 -7 11 -21 20 -32 20 -10 0 -30 11 -44 25 -14 14 -34 25 -46 25 -11 0 -20 5
-20 10 0 6 -9 10 -20 10 -11 0 -20 5 -20 10 0 6 -9 10 -20 10 -11 0 -20 6 -20
14 0 8 -10 18 -22 21 -13 4 -43 16 -68 27 -25 12 -54 25 -65 29 -69 25 -85 32
-85 40 0 10 -40 24 -62 20 -10 -1 -18 2 -18 8 0 14 -52 39 -68 34 -7 -3 -22 7
-34 22 -13 17 -27 25 -39 22 -10 -3 -34 3 -52 13 -19 11 -37 17 -40 14 -2 -3
-20 4 -40 15 -19 11 -38 17 -43 13 -4 -4 -4 -2 -1 4 9 15 -20 26 -45 18 -12
-3 -30 4 -50 21 -22 19 -38 25 -55 20 -16 -4 -33 1 -50 15 -14 11 -29 17 -34
14 -5 -3 -9 0 -9 6 0 8 -9 10 -24 6 -28 -7 -58 2 -51 15 8 11 -69 31 -90 23
-12 -5 -23 0 -34 13 -18 24 -61 40 -61 24 0 -18 -25 -13 -62 12 -41 29 -78 40
-78 24 0 -9 -2 -9 -8 0 -4 6 -18 11 -32 10 -31 -1 -53 5 -61 17 -4 5 -21 9
-38 10 -17 0 -31 4 -31 8 0 5 -15 8 -32 8 -50 -1 -68 2 -68 13 0 5 -9 7 -20 4
-11 -3 -20 -1 -20 5 0 6 -9 8 -20 5 -11 -3 -20 -1 -20 3 0 5 -17 9 -37 9 -58
1 -73 4 -73 13 0 5 -15 7 -32 3 -22 -4 -28 -3 -20 3 11 8 11 10 -1 15 -8 3
-20 0 -26 -6 -9 -9 -14 -9 -19 0 -4 7 -23 12 -42 13 -81 1 -99 3 -93 13 3 5
-7 6 -26 2 -21 -4 -31 -3 -31 5 0 8 -10 9 -30 5 -18 -4 -30 -3 -30 3 0 9 -31
12 -142 13 -16 0 -28 4 -28 10 0 5 -18 7 -42 3 -28 -4 -38 -2 -30 4 11 8 11
10 -1 15 -7 3 -20 1 -28 -4 -19 -12 -66 -11 -74 1 -3 5 -32 10 -63 9 -130 -1
-192 2 -192 10 0 5 -35 7 -77 4 -50 -3 -73 -1 -65 5 11 8 11 10 -1 15 -8 3
-18 2 -23 -3 -13 -13 -208 -17 -212 -5 -4 11 125 54 174 59 17 2 37 7 45 12 8
4 30 9 49 10 51 2 52 3 44 16 -5 8 -2 9 11 4 11 -4 25 0 37 11 14 13 23 15 36
7 20 -13 45 -7 35 9 -4 6 0 8 10 4 10 -3 17 -2 17 4 0 5 11 7 25 3 14 -3 25
-2 25 3 0 10 3 11 60 14 19 1 38 7 42 13 5 8 10 8 19 -1 6 -6 18 -9 26 -6 12
5 12 7 1 15 -9 7 -4 8 15 4 15 -4 27 -2 27 3 0 5 12 9 28 9 15 -1 37 2 48 6
12 3 32 3 45 -2 31 -12 58 -4 38 10 -9 6 -2 7 24 3 23 -4 37 -2 37 5 0 13 47
13 55 0 3 -5 13 -6 21 -3 13 5 13 7 2 14 -8 6 4 9 32 8 25 -1 91 1 147 5 67 5
103 3 108 -3 8 -14 45 -14 45 -1 0 6 -7 10 -16 10 -8 0 -13 3 -11 8 6 8 426 7
435 -2z"/>
<path d="M14737 9564 c-4 -4 -7 -14 -7 -23 0 -11 3 -12 11 -4 6 6 10 16 7 23
-2 6 -7 8 -11 4z"/>
</g>
</svg>
