<?xml version="1.0" standalone="no"?>
<!DOCTYPE svg PUBLIC "-//W3C//DTD SVG 20010904//EN"
 "http://www.w3.org/TR/2001/REC-SVG-20010904/DTD/svg10.dtd">
<svg version="1.0" xmlns="http://www.w3.org/2000/svg"
 width="2000.000000pt" height="2000.000000pt" viewBox="0 0 2000.000000 2000.000000"
 preserveAspectRatio="xMidYMid meet">
<metadata>
Created by potrace 1.16, written by Peter Selinger 2001-2019
</metadata>
<g transform="translate(0.000000,2000.000000) scale(0.100000,-0.100000)"
fill="#000000" stroke="none">
<path d="M10226 16638 c5 -8 -4 -9 -33 -5 -27 5 -46 2 -61 -9 -12 -8 -26 -13
-31 -10 -5 3 -20 -3 -34 -14 -14 -11 -30 -20 -36 -20 -6 0 -11 -5 -11 -10 0
-6 -13 -24 -30 -42 -16 -17 -30 -39 -30 -48 0 -10 -7 -20 -15 -24 -8 -3 -15
-12 -15 -21 0 -9 -9 -35 -20 -57 -11 -23 -17 -50 -14 -61 3 -10 -1 -26 -9 -35
-18 -21 -37 -78 -29 -86 3 -3 -3 -16 -14 -29 -32 -35 -45 -72 -31 -87 9 -10 9
-14 -1 -17 -20 -8 -44 -63 -38 -88 4 -15 -1 -28 -15 -40 -11 -11 -17 -25 -15
-32 3 -7 1 -13 -5 -13 -6 0 -9 -13 -7 -29 1 -16 -3 -35 -10 -43 -6 -8 -13 -23
-15 -34 -2 -10 -7 -27 -12 -37 -4 -10 -5 -21 -1 -24 3 -4 -1 -14 -9 -23 -9
-10 -15 -21 -14 -26 1 -5 -3 -22 -9 -37 -7 -16 -10 -33 -6 -38 3 -5 -4 -20
-14 -34 -11 -14 -18 -34 -15 -44 3 -10 0 -22 -6 -25 -6 -4 -8 -18 -5 -31 4
-17 0 -26 -16 -35 -15 -8 -20 -18 -17 -31 3 -10 1 -19 -5 -19 -5 0 -7 -12 -3
-29 5 -24 2 -32 -15 -41 -15 -8 -20 -18 -17 -31 3 -10 1 -19 -5 -19 -5 0 -8
-11 -6 -24 1 -13 -6 -33 -16 -45 -11 -12 -19 -34 -18 -52 0 -17 -8 -43 -18
-58 -11 -14 -21 -37 -23 -51 -1 -14 -8 -35 -15 -47 -7 -13 -10 -23 -7 -23 4 0
-1 -7 -10 -17 -11 -11 -15 -26 -11 -44 4 -21 1 -28 -14 -32 -12 -3 -21 -18
-26 -43 -3 -22 -13 -47 -21 -56 -9 -9 -16 -30 -17 -45 -1 -15 -9 -39 -19 -54
-9 -14 -20 -39 -23 -57 -4 -18 -11 -32 -15 -32 -5 0 -14 -12 -20 -27 -5 -16
-19 -47 -30 -70 -11 -23 -17 -47 -14 -54 4 -6 -2 -17 -14 -25 -13 -10 -21 -26
-21 -45 0 -16 -5 -29 -10 -29 -11 0 -33 -45 -35 -68 0 -7 -5 -16 -11 -20 -16
-10 -36 -51 -30 -61 3 -4 -6 -18 -20 -30 -17 -15 -24 -29 -21 -42 3 -12 0 -19
-8 -19 -14 0 -31 -36 -26 -58 1 -7 -5 -15 -14 -18 -19 -8 -78 -121 -70 -134 3
-5 -4 -14 -15 -20 -11 -6 -34 -39 -51 -73 -18 -34 -35 -64 -39 -67 -4 -3 -31
-45 -61 -95 -30 -49 -56 -92 -59 -95 -19 -17 -69 -104 -64 -111 3 -5 -2 -9
-10 -9 -8 0 -17 -8 -21 -19 -3 -10 -14 -29 -25 -42 -70 -85 -150 -201 -144
-210 3 -5 -2 -9 -10 -9 -17 0 -39 -34 -29 -44 3 -3 -1 -6 -10 -6 -10 0 -17 -4
-17 -9 0 -4 -10 -20 -22 -34 -13 -14 -32 -38 -43 -53 -11 -14 -31 -39 -45 -55
-14 -15 -34 -40 -45 -55 -70 -95 -510 -551 -552 -573 -13 -6 -23 -17 -24 -24
0 -7 -35 -40 -77 -75 -94 -77 -187 -157 -225 -194 -16 -16 -31 -28 -34 -28 -3
0 -25 -16 -49 -35 -23 -19 -45 -35 -49 -35 -4 0 -31 -20 -59 -45 -29 -25 -57
-45 -61 -45 -5 0 -15 -7 -24 -15 -9 -8 -25 -23 -37 -33 -12 -11 -33 -22 -47
-26 -14 -3 -28 -15 -32 -26 -3 -10 -12 -17 -19 -14 -7 3 -21 -4 -31 -16 -10
-11 -23 -20 -30 -20 -7 0 -20 -9 -30 -20 -10 -11 -23 -20 -30 -20 -6 0 -22
-11 -35 -25 -13 -14 -27 -25 -32 -25 -5 0 -35 -17 -66 -37 -31 -21 -64 -41
-72 -46 -8 -4 -33 -18 -55 -32 -22 -13 -53 -31 -70 -39 -16 -9 -48 -27 -70
-40 -22 -14 -57 -32 -77 -41 -20 -9 -39 -23 -42 -32 -4 -9 -13 -13 -22 -9 -10
4 -29 -5 -50 -24 -19 -16 -42 -30 -50 -30 -9 0 -27 -9 -41 -20 -14 -11 -34
-20 -45 -20 -10 0 -21 -7 -25 -16 -4 -11 -13 -14 -29 -10 -18 5 -27 0 -40 -19
-10 -15 -24 -24 -33 -22 -20 4 -71 -20 -71 -34 0 -6 -8 -9 -17 -6 -22 4 -73
-19 -73 -34 0 -6 -8 -9 -17 -6 -22 4 -73 -19 -73 -34 0 -6 -9 -9 -20 -6 -12 3
-35 -5 -56 -20 -20 -13 -42 -22 -50 -19 -7 3 -29 -6 -50 -20 -20 -14 -42 -23
-49 -20 -7 2 -28 -6 -46 -19 -19 -12 -47 -22 -62 -22 -16 0 -41 -9 -56 -20
-15 -11 -39 -20 -54 -20 -15 0 -39 -9 -54 -19 -16 -10 -45 -20 -66 -21 -24 -1
-48 -10 -61 -22 -13 -12 -31 -21 -42 -20 -38 4 -65 -1 -59 -11 3 -5 -3 -10
-14 -10 -10 0 -21 -4 -23 -10 -1 -5 -26 -11 -55 -14 -28 -2 -65 -12 -82 -21
-18 -9 -36 -13 -41 -10 -5 3 -37 -5 -72 -19 -34 -14 -65 -23 -69 -21 -9 6 -70
-15 -89 -30 -8 -7 -30 -12 -48 -12 -18 0 -46 -9 -63 -22 -17 -13 -37 -20 -48
-16 -10 3 -33 -5 -55 -20 -21 -14 -43 -25 -49 -23 -18 3 -57 -12 -57 -22 0 -9
-40 -25 -53 -22 -5 1 -22 -9 -39 -23 -16 -14 -38 -25 -49 -25 -10 0 -19 -4
-19 -10 0 -5 -7 -10 -15 -10 -25 0 -65 -23 -65 -38 0 -8 -6 -12 -14 -9 -8 3
-24 -5 -37 -19 -12 -13 -28 -24 -34 -24 -7 0 -21 -8 -33 -17 -12 -10 -32 -27
-46 -38 -47 -37 -91 -80 -91 -89 0 -5 -7 -12 -17 -15 -26 -9 -168 -150 -168
-166 0 -8 -6 -15 -13 -15 -15 0 -67 -74 -67 -96 0 -19 32 -34 61 -28 19 5 21
4 9 -6 -12 -9 -11 -11 10 -9 14 1 28 0 33 -1 4 -1 19 -4 35 -5 37 -4 60 -10
68 -17 3 -4 13 -4 22 -1 11 5 13 3 7 -7 -6 -10 -2 -11 19 -6 15 4 32 3 39 -1
6 -4 18 -8 27 -9 32 -5 50 -10 56 -16 3 -4 13 -4 22 -1 10 5 13 3 8 -6 -6 -9
-2 -12 10 -11 11 1 21 1 24 0 3 -1 20 -3 37 -5 18 -1 49 -10 68 -19 19 -10 39
-14 44 -11 5 3 13 0 16 -6 4 -5 13 -8 21 -5 7 3 34 -4 59 -15 25 -11 49 -17
55 -14 5 3 37 -6 70 -20 33 -14 65 -23 70 -20 5 3 37 -6 71 -20 34 -15 71 -28
83 -29 46 -6 85 -19 81 -26 -2 -4 13 -7 35 -7 23 0 48 -7 58 -16 19 -17 68
-32 93 -29 8 2 24 -6 34 -18 11 -12 37 -22 66 -26 27 -4 49 -10 49 -15 0 -5 9
-9 19 -9 11 0 23 -5 26 -10 3 -6 17 -7 31 -4 16 4 26 1 30 -9 5 -15 48 -32 71
-28 7 1 26 -8 42 -20 17 -12 44 -22 61 -21 16 0 30 -3 30 -8 0 -15 42 -33 72
-32 15 0 28 -3 28 -8 0 -13 53 -38 68 -33 7 3 24 -5 37 -17 15 -14 36 -23 55
-22 16 0 30 -4 30 -9 0 -5 17 -17 38 -26 20 -8 53 -24 73 -34 20 -11 42 -19
49 -19 7 0 18 -7 25 -16 6 -9 25 -16 41 -16 17 0 34 -8 42 -19 7 -11 22 -19
33 -19 12 0 32 -9 46 -20 14 -11 32 -20 40 -20 8 0 26 -9 40 -20 14 -11 33
-20 43 -20 9 0 27 -11 40 -25 16 -17 30 -23 45 -19 17 4 24 0 28 -15 3 -14 13
-21 29 -21 14 0 35 -11 48 -25 13 -14 32 -25 43 -25 11 0 30 -11 43 -25 13
-14 32 -25 42 -25 11 0 25 -7 32 -15 7 -8 21 -15 31 -15 10 0 23 -9 29 -20 6
-11 19 -20 29 -20 10 0 24 -7 31 -15 7 -8 16 -15 20 -15 4 0 35 -18 68 -40 33
-22 64 -40 69 -40 5 0 20 -11 33 -25 13 -14 29 -25 35 -25 7 0 20 -9 30 -20
10 -11 23 -20 30 -20 7 0 20 -9 30 -20 10 -11 23 -20 30 -20 7 0 20 -9 30 -20
10 -11 22 -20 27 -20 11 0 116 -76 141 -102 10 -10 27 -18 37 -18 11 0 20 -6
20 -14 0 -8 8 -17 18 -20 10 -3 37 -23 59 -44 23 -20 52 -44 64 -52 31 -22 81
-62 106 -85 12 -11 32 -28 45 -37 72 -54 106 -82 133 -108 29 -28 67 -63 198
-181 34 -31 109 -103 167 -160 58 -57 108 -102 113 -101 4 1 7 -5 7 -13 0 -17
94 -115 110 -115 6 0 8 -4 5 -10 -3 -5 13 -30 37 -54 81 -83 167 -176 162
-176 -3 0 0 -9 6 -20 6 -11 18 -20 26 -20 8 0 13 -4 10 -9 -6 -9 12 -34 67
-92 15 -16 27 -34 27 -39 0 -6 8 -10 17 -10 9 0 13 -3 10 -6 -10 -10 12 -44
28 -44 7 0 19 -15 25 -34 6 -19 14 -36 18 -38 4 -2 20 -22 36 -45 16 -24 33
-43 38 -43 5 0 14 -13 19 -30 6 -16 18 -30 26 -30 8 0 12 -4 9 -9 -6 -9 60
-113 76 -119 4 -2 8 -8 8 -13 0 -18 104 -169 116 -169 7 0 12 -8 11 -17 0 -10
16 -44 36 -76 20 -31 37 -59 37 -62 0 -3 15 -28 33 -57 18 -29 39 -65 46 -81
8 -15 21 -27 29 -27 7 0 12 -6 9 -12 -6 -19 64 -148 80 -148 10 0 12 -6 8 -20
-4 -13 2 -28 19 -45 14 -14 25 -29 24 -33 -4 -12 24 -72 33 -72 5 0 8 -3 7 -7
-4 -16 13 -51 28 -57 8 -3 13 -10 9 -16 -7 -12 22 -70 36 -70 6 0 8 -8 4 -18
-3 -11 3 -29 15 -45 11 -14 20 -31 20 -39 0 -8 6 -20 13 -26 6 -7 12 -16 13
-20 0 -4 3 -14 7 -22 3 -8 8 -28 12 -44 3 -15 14 -30 24 -33 12 -3 18 -14 18
-34 0 -16 10 -43 22 -60 12 -16 19 -34 16 -39 -7 -12 22 -70 36 -70 6 0 8 -8
4 -19 -8 -25 11 -71 30 -71 11 0 14 -6 9 -25 -4 -16 1 -37 15 -61 12 -19 19
-39 16 -44 -3 -5 0 -14 7 -22 7 -7 14 -20 16 -28 2 -8 9 -21 15 -29 6 -7 12
-29 13 -49 0 -21 8 -40 19 -49 13 -9 19 -27 20 -53 1 -25 9 -48 22 -62 15 -16
20 -31 16 -49 -3 -16 1 -32 12 -42 9 -10 13 -17 9 -17 -4 0 1 -9 10 -19 11
-12 15 -27 12 -39 -7 -22 9 -73 27 -84 7 -4 12 -30 12 -59 0 -39 5 -54 20 -65
12 -9 20 -28 21 -52 1 -21 11 -59 23 -84 11 -26 18 -54 15 -62 -3 -9 -2 -16 3
-16 4 0 8 -18 8 -41 0 -28 6 -44 18 -50 13 -8 16 -18 11 -48 -4 -27 -2 -42 10
-54 9 -8 13 -22 10 -30 -3 -8 -1 -18 5 -22 6 -3 11 -19 11 -36 0 -16 3 -29 8
-29 4 0 7 -18 7 -39 0 -24 8 -47 18 -59 14 -15 17 -29 11 -57 -5 -28 -4 -36 5
-31 8 6 10 0 6 -21 -5 -22 -4 -25 5 -13 9 12 10 9 5 -13 -3 -16 -1 -35 5 -42
6 -8 13 -35 15 -60 1 -26 9 -54 17 -62 16 -16 43 -4 136 58 24 16 47 29 52 29
5 0 18 12 29 26 11 15 36 34 54 44 41 22 179 159 172 170 -3 5 4 11 14 15 11
3 23 15 26 26 4 10 10 19 15 19 12 0 53 72 52 93 0 9 5 17 11 17 16 0 39 38
32 51 -4 5 3 18 15 27 14 11 23 29 23 47 0 16 8 36 18 44 10 9 21 32 24 51 3
19 15 54 26 77 14 30 19 52 14 73 -5 22 -3 32 9 36 15 6 23 33 30 102 1 19 7
37 13 40 17 11 34 78 28 105 -5 18 -2 28 11 35 11 6 17 21 16 41 0 17 4 33 9
37 5 3 7 15 3 26 -4 13 1 27 16 43 13 14 23 39 25 64 1 23 10 50 20 61 9 10
18 37 19 59 1 26 9 46 20 54 12 9 20 28 21 51 1 20 10 45 20 56 12 13 18 34
17 60 -1 28 2 40 12 40 17 0 30 30 13 30 -7 1 -5 6 6 14 9 7 17 25 17 39 0 13
7 27 15 31 10 3 15 19 15 46 0 22 4 40 9 40 19 0 49 65 44 94 -4 20 -2 27 5
22 15 -9 35 31 28 58 -4 16 2 30 19 46 16 15 23 30 19 42 -3 10 -1 18 4 18 11
0 93 146 90 158 -1 4 3 17 10 28 6 12 8 24 5 28 -3 3 1 6 11 6 13 0 16 5 11
19 -4 13 1 27 14 40 12 12 21 32 21 46 0 16 6 25 15 25 8 0 15 7 15 15 0 8 5
15 10 15 6 0 10 8 10 18 0 10 7 27 15 38 8 10 15 27 15 37 0 9 9 26 20 37 12
12 18 25 15 30 -3 5 6 20 20 34 14 15 23 31 20 36 -3 6 -2 10 3 10 12 0 50 73
45 88 -3 6 2 12 10 12 16 0 67 89 60 108 -3 6 2 12 11 12 21 0 48 43 40 64 -4
10 -1 16 8 16 17 0 69 75 71 102 1 10 6 18 12 18 5 0 24 23 40 52 17 28 35 56
40 62 26 29 65 86 65 95 0 6 4 11 8 11 4 0 16 15 27 33 10 17 23 37 27 42 5 6
17 21 28 34 11 13 20 29 20 36 0 6 14 24 30 39 17 15 28 31 25 36 -4 6 1 10 9
10 15 0 43 39 29 41 -4 0 2 4 15 9 12 5 22 18 22 29 0 11 9 22 19 26 11 3 22
14 26 23 3 9 30 43 60 75 30 32 53 62 51 66 -3 3 11 17 29 30 19 13 37 31 40
42 3 10 26 36 51 58 32 28 42 44 38 56 -6 14 -3 16 14 11 16 -6 24 -1 36 21
17 33 181 196 214 213 14 6 21 17 18 25 -3 9 0 12 10 8 10 -3 17 1 21 13 3 11
43 51 89 89 45 39 111 96 144 128 34 31 64 57 67 57 3 0 28 18 55 40 28 22 54
40 58 40 4 0 12 11 18 25 6 14 18 25 26 25 8 0 29 15 47 32 19 18 39 33 44 33
6 0 31 16 55 35 25 19 54 41 65 48 11 7 35 22 53 33 17 12 32 25 32 30 0 5 7
9 15 9 8 0 25 10 37 23 26 26 48 39 101 63 20 9 37 22 37 30 0 7 6 11 14 8 9
-3 21 5 31 20 10 14 25 26 35 26 10 0 23 7 30 15 7 8 21 15 31 15 10 0 23 9
29 20 6 11 19 20 29 20 10 0 30 12 45 27 14 14 29 23 33 20 3 -4 18 2 33 13
16 11 32 20 37 20 6 0 18 9 28 20 10 11 26 20 35 20 9 0 34 13 56 30 21 16 47
30 57 30 9 0 17 4 17 9 0 5 13 11 29 14 16 3 35 12 42 20 8 7 26 17 40 20 14
4 36 16 49 27 13 11 31 20 42 20 10 0 26 8 37 19 10 10 31 18 45 19 15 0 36 9
47 21 19 20 32 25 53 22 5 -1 16 4 25 12 18 16 49 30 71 32 8 1 21 3 28 4 6 0
12 8 12 17 0 11 6 15 19 11 11 -2 33 3 49 13 16 10 43 21 61 25 18 4 42 16 52
26 10 10 35 21 55 23 20 3 43 11 53 19 9 8 31 15 50 15 18 0 43 9 55 20 11 11
36 20 55 20 20 0 43 9 56 22 13 12 29 20 36 19 20 -4 73 11 80 22 3 5 20 11
37 13 46 6 75 16 94 33 10 9 24 13 32 10 19 -7 76 11 95 31 8 7 24 11 36 8 12
-3 31 1 42 9 12 8 28 12 37 9 8 -3 25 1 37 10 13 9 32 13 45 10 12 -3 25 -1
28 5 4 5 13 8 20 5 8 -3 17 0 21 5 3 6 10 9 15 6 5 -3 26 1 46 10 20 8 46 12
59 9 13 -3 26 -1 29 5 4 5 13 8 21 4 8 -3 15 0 15 7 0 7 8 9 21 5 13 -4 27 -1
39 10 11 10 26 15 36 11 20 -8 82 11 106 31 10 9 25 13 34 9 9 -4 32 3 51 14
19 11 41 20 49 20 8 0 26 11 40 25 14 14 31 24 37 23 14 -3 71 34 108 71 39
40 59 77 59 111 0 18 6 33 15 37 13 4 14 15 9 49 -3 24 -2 44 3 44 5 0 9 18
10 40 1 22 -3 40 -8 40 -6 0 -8 9 -4 19 3 11 1 22 -5 26 -5 3 -10 16 -10 29 0
38 -21 86 -37 86 -9 0 -13 6 -9 15 6 16 -100 129 -113 120 -5 -2 -19 7 -31 20
-14 15 -35 25 -51 25 -15 0 -29 7 -32 14 -3 8 -23 18 -44 22 -21 4 -55 16 -75
26 -21 11 -42 17 -47 13 -6 -3 -23 0 -38 8 -15 8 -34 12 -42 9 -9 -3 -11 0 -6
8 6 10 2 12 -13 8 -12 -4 -24 -3 -27 2 -2 4 -23 7 -46 7 -23 0 -44 6 -49 12
-4 8 -18 10 -36 6 -23 -5 -26 -4 -14 5 12 9 11 11 -10 9 -14 -1 -29 0 -35 1
-5 2 -21 4 -35 6 -30 3 -46 7 -83 23 -16 6 -32 9 -37 6 -5 -3 -11 -1 -15 5 -3
5 -17 7 -30 4 -12 -3 -26 -1 -30 5 -10 17 -74 41 -91 34 -8 -3 -23 2 -33 11
-11 10 -36 19 -57 22 -22 2 -43 10 -49 18 -5 7 -31 16 -57 20 -32 5 -48 12
-48 21 0 15 -40 30 -74 27 -11 0 -30 8 -44 18 -13 11 -28 17 -33 15 -4 -3 -28
6 -52 19 -24 14 -47 23 -49 20 -3 -3 -30 8 -59 24 -30 16 -59 28 -65 25 -7 -2
-28 7 -48 21 -21 14 -44 22 -56 19 -11 -3 -20 0 -20 6 0 14 -51 40 -68 34 -8
-3 -22 4 -33 16 -11 12 -24 19 -29 16 -10 -6 -60 15 -60 26 0 10 -41 24 -59
20 -7 -1 -22 7 -33 18 -19 21 -29 25 -59 22 -9 -1 -19 4 -22 12 -3 8 -18 17
-34 20 -15 3 -39 15 -53 27 -14 12 -37 24 -52 27 -16 3 -28 8 -28 12 0 7 -27
21 -123 66 -31 15 -60 32 -63 37 -3 5 -12 7 -20 4 -7 -3 -18 3 -23 13 -6 9
-28 23 -49 29 -22 7 -43 19 -46 27 -3 8 -16 15 -29 15 -13 0 -32 9 -42 20 -10
11 -26 20 -35 20 -9 0 -25 9 -35 20 -10 11 -26 20 -36 20 -10 0 -23 9 -29 20
-6 11 -19 20 -29 20 -10 0 -24 7 -31 15 -7 8 -16 15 -20 15 -4 0 -35 18 -68
40 -33 22 -64 40 -69 40 -5 0 -20 11 -33 25 -13 14 -29 25 -35 25 -7 0 -20 9
-30 20 -10 11 -23 20 -30 20 -7 0 -20 9 -30 20 -10 12 -24 19 -31 16 -7 -3
-16 3 -19 14 -3 10 -18 23 -33 28 -15 6 -39 22 -54 36 -15 15 -38 31 -50 37
-45 20 -68 36 -88 62 -12 15 -27 27 -35 27 -7 0 -15 7 -19 15 -3 8 -13 15 -22
15 -9 0 -28 12 -43 28 -24 25 -97 88 -174 152 -77 64 -221 197 -323 298 -34
34 -67 62 -73 62 -6 0 -11 6 -11 14 0 20 -29 48 -42 40 -6 -4 -8 -3 -5 2 8 13
0 24 -58 76 -27 24 -51 49 -52 55 -1 5 -29 38 -62 72 -33 34 -63 71 -66 81 -3
11 -15 22 -26 25 -11 4 -18 9 -15 12 9 10 -14 43 -30 43 -8 0 -13 4 -10 9 3 5
-6 21 -19 35 -14 15 -25 31 -25 37 0 5 -7 9 -16 9 -8 0 -13 4 -9 10 3 5 -3 18
-14 29 -11 11 -27 34 -36 50 -8 17 -22 31 -31 31 -8 0 -13 4 -10 8 4 7 -30 66
-57 97 -19 22 -173 262 -184 288 -7 15 -20 27 -29 27 -8 0 -14 6 -11 13 3 6
-7 32 -21 57 -14 25 -43 77 -64 115 -20 39 -41 69 -47 68 -5 -2 -9 5 -9 15 2
24 -31 89 -48 96 -10 4 -13 13 -10 24 4 12 -3 28 -19 44 -15 16 -23 32 -19 41
3 10 -4 26 -20 42 -14 14 -23 32 -20 40 4 8 0 17 -8 20 -8 3 -14 13 -15 23 -3
28 -33 92 -44 92 -5 0 -8 4 -5 9 10 15 -23 81 -40 81 -11 0 -13 6 -9 20 7 21
-20 80 -36 80 -6 0 -9 7 -5 15 3 8 -3 31 -14 51 -11 19 -18 39 -15 44 2 4 -2
13 -10 20 -8 7 -15 20 -15 30 0 10 -7 23 -15 30 -8 7 -15 26 -15 42 0 16 -6
31 -15 34 -8 4 -15 16 -15 29 0 26 -25 91 -38 99 -5 3 -9 19 -10 36 0 18 -8
43 -17 56 -9 14 -13 29 -10 34 3 5 -4 18 -16 29 -12 11 -18 25 -14 31 4 7 2
16 -6 21 -7 4 -14 24 -15 44 0 20 -10 45 -21 58 -11 12 -20 35 -21 51 -1 16
-8 37 -16 45 -7 9 -16 30 -19 46 -3 17 -11 44 -18 60 -7 17 -13 37 -14 45 -4
29 -34 90 -45 90 -6 0 -10 8 -9 18 3 37 -2 61 -16 75 -8 8 -19 34 -24 58 -6
24 -16 48 -24 54 -10 7 -13 21 -10 38 3 17 1 27 -6 27 -7 0 -11 6 -10 13 3 26
-2 37 -16 37 -17 0 -20 16 -5 25 12 7 -6 51 -34 82 -11 13 -16 26 -13 30 4 3
2 12 -3 19 -6 6 -10 16 -9 20 4 22 -2 34 -16 34 -16 0 -20 16 -6 24 13 9 2 42
-24 70 -13 14 -22 37 -23 57 0 21 -8 39 -22 49 -13 10 -19 22 -15 32 7 19 -20
78 -36 78 -6 0 -8 7 -5 16 15 39 -141 217 -202 229 -15 4 -35 11 -45 16 -10 6
-28 7 -39 3 -14 -4 -18 -2 -14 5 4 6 0 11 -9 11 -10 0 -13 -5 -9 -12z"/>
</g>
</svg>
