<?xml version="1.0" encoding="UTF-8"?>
<svg version="1.1" xmlns="http://www.w3.org/2000/svg" viewBox="950 1700 2650 1100"><path d="M0 0c10.475 6.32 14.833 15.783 19.75 26.5l1 2c.62 9.405-.484 18.6-1.938 27.875l-.326 2.12C6.656 134.315-21.25 208.655-52.25 278.5l-1.54 3.487A2563.342 2563.342 0 0 1-65.25 307.5l-1.583 3.486c-13.856 30.418-28.51 60.662-44.902 89.8-1.776 3.182-3.52 6.38-5.261 9.581-8.115 14.89-16.513 29.563-25.36 44.034-1.93 3.157-3.844 6.322-5.757 9.487-9 14.821-18.427 29.31-28.147 43.664a906.706 906.706 0 0 0-5.256 7.888c-3.783 5.688-7.432 11.016-12.484 15.687-9.23 8.65-13.126 21.105-13.625 33.438.404 19.328 9.115 37.355 21.375 51.937l2.113 2.605c14.195 16.739 33.785 27.284 55.762 29.145 2.374.106 4.75.189 7.125.25l3.953.156c45.574 1.311 83.927-23.078 116.45-52.794a482.592 482.592 0 0 1 4.85-4.356c6.225-5.514 12.15-11.288 18.005-17.189 1.639-1.651 3.28-3.3 4.923-4.948 3.486-3.496 6.966-6.995 10.445-10.495 4.045-4.07 8.093-8.137 12.144-12.2a3462.87 3462.87 0 0 0 4.804-4.837c4.783-4.807 9.597-9.52 14.766-13.912 1.688-1.45 3.302-2.956 4.906-4.496 27.556-26.443 62.445-50.17 101.754-51.93l3.348-.16c21.571-.53 44.05 4.133 60.304 19.225 5.387 5.255 9.637 10.876 13.407 17.39 1.983 3.38 3.27 5.165 6.94 6.545 2.846.365 2.846.365 6.039.41l3.799.121c1.404.036 2.81.07 4.215.103l4.528.126c4.204.114 8.408.212 12.612.305 2.688.06 5.375.123 8.062.186 35.938.83 71.88.968 107.824.994 4.415.003 8.83.01 13.243.018 32.6.06 65.137-.02 97.677-2.262l3.444-.23a773.696 773.696 0 0 0 18.93-1.52l2.758-.25c98.85-9.042 199.832-34.181 293.727-111.043 1.928-1.763 3.896-3.457 5.89-5.145 10.092-8.796 19.428-18.595 27.828-29.007 5.704-7.002 10.525-12.84 19.422-15.805 9.904-.837 17.272.35 25.312 6.25 5.038 5.155 7.109 10.089 7.22 17.281-1.542 7.165-6.047 12.784-10.657 18.283l-1.733 2.1a360.554 360.554 0 0 1-12.962 14.724 192.293 192.293 0 0 0-5.43 6.176c-7.86 9.037-16.595 17.475-25.75 25.187-1.012.885-2.022 1.772-3.031 2.66-21.962 19.237-46.344 35.409-71.97 49.34l-2.695 1.482c-78.66 43.084-170.188 60.086-386.356 70.643l-3.372-.004c-17.297-.021-34.594-.07-51.89-.12-15.25-.044-30.498-.085-45.747-.107-6.564-.01-13.128-.03-19.693-.057-4.044-.015-8.088-.021-12.131-.026-1.874-.003-3.748-.01-5.622-.021-2.55-.016-5.1-.018-7.652-.017l-2.252-.022c-3.685.016-6.502.132-9.59 2.25-1.699 1.927-1.699 1.927-3.25 4.188-8.01 10.567-18.685 17.768-32.031 19.628-11.787.796-21.604-2.35-30.685-9.91-7.406-6.937-12.105-15.746-12.473-26.03.316-6.628 2.019-12.263 6.126-17.5 1.995-2.62 2.342-3.55 2.937-7-.436-3.46-.436-3.46-2.438-6.376-4.027-2.527-6.087-2.503-10.714-1.824-30.265 7.183-52.844 27.89-72.736 50.835C79.74 583.527 70.361 593.003 61 602.438l-2.577 2.616c-5.907 5.917-12.126 11.253-18.673 16.447-1.157.942-2.313 1.884-3.469 2.828-9.492 7.585-19.42 14.438-29.53 21.172l-1.922 1.29c-44.698 29.893-100.49 48.6-154.484 38.253-38.355-8.035-68.496-29.66-90.117-62.221-3.402-5.348-6.427-10.908-9.418-16.494-2.624-5.768-2.624-5.768-7.06-9.828-3.359-.537-5.854-.72-8.816 1.14-2.167 1.865-4.174 3.826-6.184 5.86-.964.964-1.93 1.928-2.895 2.89a1341.673 1341.673 0 0 0-4.678 4.698 169.606 169.606 0 0 1-10.447 9.713c-2.307 1.98-4.546 4.026-6.793 6.075-4.241 3.824-8.593 7.474-13.035 11.062a495.804 495.804 0 0 0-6.96 5.75c-10.42 8.72-21.157 16.89-32.192 24.813l-2.252 1.618A1089.93 1089.93 0 0 1-365.25 680.5l-1.872 1.295c-39.995 27.515-94.99 62.313-145.948 53.428-11.117-2.527-20.471-7.18-28.18-15.723l-1.422-1.445c-10.93-11.664-15.454-29.26-16.926-44.82-.847-3.55-1.972-5.253-4.652-7.735-3.667-1.455-5.912-1.448-9.567.056-3.086 1.612-6.07 3.344-9.058 5.131l-3.35 1.94a1622.413 1622.413 0 0 0-10.025 5.873 2081.21 2081.21 0 0 1-10.625 6.125l-2.557 1.467c-22.176 12.647-45 24.89-69.818 31.408l-2.137.591c-7.78 1.876-15.646 1.747-23.602 1.726-2.425-.003-4.85.02-7.278.045-17.242.074-35.406-2.15-48.533-14.65-10.983-12.965-12.676-27.847-12.7-44.148l-.007-2.219c-.014-11.367.786-22.356 2.6-33.593 1.507-8.831 1.507-8.831-1.468-16.812-3.423-2.307-4.825-2.286-8.875-1.938-2.615.946-2.615.946-5.148 2.387l-2.995 1.575-3.232 1.726c-50.525 26.032-108.316 43.055-165.344 43.55-.969.01-1.938.018-2.938.027-3.964.03-7.928.05-11.892.04-2.953-.002-5.904.026-8.856.058l-2.705-.03c-4.46.07-6.292.186-9.874 3.066l-2.016 2.6c-.61.744-1.222 1.488-1.852 2.254l-1.773 2.308c-7.945 10.017-16.238 18.62-26.375 26.438l-3.055 2.46c-27.34 21.885-63.084 37.917-98.668 34.145-15.373-2.505-28.542-9.285-38.277-21.605-6.501-9.305-10.173-19.06-13-30l-.746-2.86c-2.902-13.209-1.298-27.213.21-40.502.78-7.718 1.087-16.005-3.526-22.576-7.874-5.528-16.564-7.268-25.856-9.011a992.037 992.037 0 0 1-6.977-1.34c-3.96-.77-7.922-1.53-11.885-2.286-19.065-3.64-37.974-7.664-56.829-12.265-32.694-9.005-32.694-9.005-65.39-5.16-2.583 2.411-2.978 3.82-3.418 7.36.488 4.249 1.713 6.37 4.105 9.89 11.568 17.702 15.93 37.3 12.188 58.25-10.027 44.726-49.218 76.112-85.803 99.746-4.286 2.711-8.66 5.254-13.072 7.754l-2.515 1.436c-41.88 23.752-87.26 40.31-134.485 49.502l-2.24.436c-42.233 8.135-94.27 12.708-132.635-10.75-14.78-10.057-24.538-22.978-28.832-40.51-.852-4.491-1.312-8.905-1.453-13.47l-.083-2.295c-.045-1.492-.068-2.984-.065-4.476-.098-3.708-.65-5.808-2.672-8.94-3.662-2.345-5.263-2.341-9.436-1.605-5.104 1.325-9.977 3.222-14.896 5.107-69.63 25.65-144.623 33.047-217.887 40.977-138.335 8.093-138.335 8.093-263.8 57.586-2.422 4.616-3.77 9.436-5.188 14.438-4.014 13.287-9.653 24.884-19.812 34.562l-1.738 1.762c-10.149 9.615-23.62 11.783-37.016 11.48-17.461-.783-32.786-10.165-44.559-22.617-7.53-8.823-11.262-18.92-10.988-30.508 1.092-11.324 7.013-18.369 15.171-25.828 8.514-6.921 19.26-11.372 29.704-14.368 2.55-.97 3.762-1.785 5.426-3.922 1.047-3.44 1.26-5.298 0-8.688-5.88-6.797-17.53-7.59-26-8.312-16.627-.788-33.82-1.34-50 3l-2.35.586c-20.052 5.063-38.601 13.492-51.177 30.527-1.939 2.484-3.501 3.8-6.473 4.887-6.296.723-10.784-.344-16-4-4.23-4.105-6.204-7.566-6.562-13.438.12-9.105 5.2-14.021 11.203-20.343 28.03-27.266 69.812-37.724 107.95-37.452 21.681.417 42.985 4.343 62.41 14.232l3.23 1.617c12.657 6.844 23.42 17.654 31.645 29.383 1.792 3.03 1.792 3.03 4.125 4 4.964.293 8.664-.3 13.297-2.055l3.614-1.349 3.84-1.47c1.333-.502 2.667-1.001 4-1.5 3.422-1.28 6.84-2.573 10.255-3.87 4.301-1.63 8.607-3.25 12.916-4.862 2.172-.812 4.34-1.63 6.507-2.456 14.766-5.542 29.724-9.363 45.198-12.313l2.642-.51c47.366-9.084 95.353-14.352 143.257-19.686 62.384-6.858 62.384-6.858 124.476-15.93l2.806-.465c41.87-7.002 83.296-16.95 123.194-31.535l1.921-.699c13.838-5.04 27.4-10.687 40.767-16.862l3.348-1.496c6.742-3.214 11.125-6.77 15.895-12.503 3.024-3.564 6.465-6.484 10.07-9.44l2.006-1.658c21.553-17.568 45.603-31.02 70.55-43.153 1.808-.88 3.614-1.764 5.42-2.648 13.62-6.673 27.3-13.166 41.132-19.39 14.289-6.409 14.289-6.409 28.33-13.34l2.022-1.024c2.521-1.35 4.317-2.466 5.962-4.835.868-2.932.385-5.037-.422-7.953-2.33-2.915-5.11-4.17-8.46-5.715l-3.337-1.56-3.578-1.662c-29.235-13.795-56.169-30.738-79.625-53.063l-2.172-2.012c-18.744-17.882-32.41-42.49-33.232-68.645-.127-10.346 1.198-19.525 4.404-29.343l.84-2.715c9.214-26.198 33.975-45.612 57.99-57.468 35.105-16.695 77.17-20.353 114.112-7.556 23.204 8.332 51.157 22.55 64.152 44.595 3.253 7.304 3.015 15.875.406 23.332-3.388 7.408-8.83 13.932-16.434 17.16-6.009 1.898-11.364 2.39-17.222-.226-6.568-3.993-8.868-10.23-11.57-17.124-5.234-12.312-14.396-20.256-26.274-25.996-6.855-2.62-13.673-4.52-21-5l-2.11-.156c-16.175-.652-34.297 3.95-46.652 14.687-8.48 8.691-15.072 22.316-15.293 34.478.29 8.175 2.33 14.749 6.055 21.992l1.36 2.668c13.236 23.096 39.16 37.742 61.64 50.332l2.785 1.574c17.13 9.628 34.778 18.181 52.479 26.7 8.662 4.18 17.211 8.318 25.37 13.432 14.23 7.786 38.93 4.64 54.418 3.938 57.426-2.578 57.426-2.578 82.948 2.356 2.83.53 5.661 1.056 8.492 1.582l4.732.88 2.44.454c1.636.305 3.27.612 4.906.92a748.752 748.752 0 0 0 37.118 6.04l2.268.312c13.09 1.792 25.984 3.016 39.204 3.052 2.14.01 4.277.041 6.416.073 21.71.165 37.263-6.408 53.44-20.722 19.326-17.027 41.18-25.55 65.984-31.59l2.171-.543c19.595-4.864 42.49-2.654 60.455 7.008 12.493 8.075 20.3 19.614 23.407 34.075 1.033 5.257 1.28 10.329 1.312 15.675l.044 2.837c.046 2.962.08 5.924.112 8.885-1.189 20.155-1.189 20.155 5.5 38.063 5.54 2.954 9.621 3.354 15.812 2.875l2.601-.17c2.866-.206 5.726-.449 8.587-.705l3.082-.274c71.323-6.67 143.003-36.286 196.918-83.726l1.812-1.533a149.392 149.392 0 0 0 10.81-10.201c.79-.821 1.58-1.643 2.396-2.489a605.59 605.59 0 0 0 4.828-5.101c6.047-6.23 10.967-9.11 19.591-10.05 9.557 1.005 16.213 3.976 22.563 11.374 3.316 4.97 4.851 10.253 4.566 16.23-1.245 6.09-4.535 11.411-7.566 16.77l-2.234 3.984-1.174 2.094-1.217 2.172-1.261 2.252c-13.592 24.446-26.427 50.204-33.114 77.498l-.734 2.945c-2.172 10.064-3.258 21.76 1.734 31.055 4.057 5.216 8.728 7.36 15.14 8.32 47.965 2.447 102.442-45.675 136.86-73.32l1.924-1.542c12.232-9.818 24.212-19.895 35.834-30.43 4.346-3.93 8.72-7.816 13.305-11.466 2.915-2.543 5.324-5.197 7.828-8.132 3.104-3.575 6.335-7.029 9.557-10.497a543.793 543.793 0 0 0 9.303-10.308c9.065-10.07 21.911-22.985 35.816-24.996 4.17-.206 6.913.134 10.746 1.87 4.769 4.436 8.375 10.065 9.688 16.5.117 7.054-1.81 11.026-6.438 16.188a1129.94 1129.94 0 0 0-3.308 3.925l-1.671 1.971c-2.34 2.831-4.474 5.787-6.583 8.79l-1.215 1.728c-.83 1.182-1.659 2.365-2.486 3.548a694.27 694.27 0 0 1-4.132 5.803c-37.328 49.023-37.328 49.023-51.168 107.047.972 4.595 2.463 7.426 5.688 10.875 9.486 6.086 20.243 4.413 30.8 2.21 49.146-11.283 95.545-45.987 133.78-77.657 2.475-2.04 4.982-4.042 7.482-6.053 5-4.09 9.744-8.426 14.477-12.82a239.22 239.22 0 0 1 6.836-6.055c5.251-4.548 10.06-9.558 14.937-14.5a983.565 983.565 0 0 1 8.672-8.602c10.186-10.018 10.186-10.018 19.367-20.945 1.96-2.453 1.96-2.453 4.17-4.469 6.725-6.554 6.895-13.816 7.72-22.714 1.188-12.71 4.01-24.895 7.07-37.27l.83-3.388c22.241-89.593 57.11-177.474 146.756-366.147 1.768-3.083 3.463-6.203 5.155-9.328C-88.3 72.187-74.086 49.783-57.249 30.5l2.195-2.527C-21.885-9.532-21.885-9.532 0 0zm-65.125 119.562-1.978 3.614c-1.72 3.144-3.427 6.295-5.132 9.448-.986 1.822-1.975 3.642-2.966 5.462-13.98 25.698-26.908 51.801-39.05 78.414l-1.544 3.365c-27.372 59.723-50.75 121.28-72.456 183.26l-.915 2.613c-.844 2.412-1.684 4.825-2.523 7.239l-.748 2.145c-1.952 5.646-3.449 10.348-2.814 16.378 2.429 3.286 4.123 4.708 8 6 3.677 0 5.032-.88 8-3 1.7-2.124 1.7-2.124 3.059-4.629l1.646-2.845 1.732-3.087 1.84-3.223c10.501-18.488 20.375-37.323 30.155-56.199 1.672-3.219 3.355-6.432 5.04-9.645 7.491-14.316 14.706-28.722 21.527-43.37l1.724-3.68c17.041-36.433 32.712-73.454 46.513-111.236.743-2.03 1.493-4.058 2.245-6.085 7.8-21.054 14.375-42.41 20.518-64l.96-3.364c2.173-7.704 2.173-7.704 2.04-15.636-1.99-2.984-3.385-4.603-6.938-5.477-10.23-.736-13.749 9.797-17.937 17.54zm-996.637 434.06c-3.536 4.464-4.111 9.174-3.984 14.714 1.743 11.116 8.917 20.305 17.496 27.164 6.26 4.41 12.167 8.275 20 8 2.863-1.182 4.405-2.06 6.062-4.68 5.106-12.636 4.911-32.502-.132-44.965-2.213-4.307-4.152-7.797-8.93-9.355-11.126-1.47-22.24 1.488-30.512 9.121zm-58.488 32.878c-14.434 15.896-19.945 40.172-19.127 60.992.87 13.733 5.509 28.08 16.049 37.453 7.808 5.842 15.449 6.712 25.078 5.555 20.607-4.859 36.695-22.907 49.562-38.688l1.43-1.708c1.906-2.44 2.973-4.15 3.215-7.268-1.797-3.479-4.65-4.506-8.082-6.023a1852.19 1852.19 0 0 1-4.367-2.07l-2.34-1.096c-4.183-1.984-8.303-4.086-12.418-6.21l-2.351-1.172c-8.397-4.339-14.645-9.881-19.65-17.89l-1.258-1.944c-3.457-5.373-6.78-10.832-10.05-16.32-2.27-3.502-3.544-5.26-7.567-6.485-3.815-.153-5.04.7-8.125 2.875zm-390 25-2.975.797c-34.222 9.42-67.156 25.092-97.025 44.203l-2.333 1.491c-15.708 10.116-30.646 21.158-44.667 33.51l-1.562 1.37c-14.167 12.5-34.098 30.661-36.25 50.693.716 8.25 7.863 17.424 13.812 22.937 14.623 12.103 33.325 16.398 52 15 64.951-6.556 134.449-45.94 178-94 3.91-5.036 5.707-10.317 7.625-16.312l.906-2.725c4.63-14.163 7.961-30.6 1.661-44.803-3.807-6.903-9.18-11.374-16.622-14.027-6.763-1.931-12.987-2.645-20.007-2.57l-3.167.027c-10.153.222-19.606 1.782-29.396 4.41zm-803 231c-2.881 4.235-4.39 9.245-4.062 14.375.808 3.67.808 3.67 3.187 6.125 3.776 1.97 5.638 2.125 9.875 1.5 7.284-2.69 15.164-7.101 19.16-14.004.945-2.092.945-2.092 1.84-4.996-4.571-4.692-6.307-6.141-12.926-6.234l-2.324-.016-2.277-.062c-4.875-.035-8.322.48-12.473 3.312z" fill="#FFFFFF" transform="translate(2972.25,1750.5)"/><path d="M0 0c3.84.122 5.545 1.116 8.188 3.875 12.265 15.32 21.587 34.188 30.25 51.75.1-7.165.031-14.229-.5-21.375-.761-10.864-.59-21.74-.5-32.625 6.625-1.125 6.625-1.125 10 0 1.338 3.34 1.233 6.981 1.388 10.538l.09 1.963c.096 2.137.186 4.275.275 6.413l.199 4.484c.137 3.135.272 6.27.405 9.406.17 3.995.344 7.989.52 11.983.137 3.09.271 6.18.405 9.27l.192 4.414c.198 4.508.374 9.017.526 13.528.035 1.032.07 2.064.108 3.127l.055 2.73.055 2.313c-.217 1.83-.217 1.83-2.217 3.83-2.813.438-2.813.438-6 0-3.93-3.367-6.188-6.776-8.461-11.39l-1.909-3.807-.991-2.005c-7.472-15.085-15.74-29.51-24.64-43.798l.007 1.659c.023 5.76.038 11.52.048 17.28.005 2.142.012 4.285.02 6.427.128 32.08.128 32.08-2.46 35.429-1.615 1.205-1.615 1.205-4.115 1.705-2.5-.5-2.5-.5-4.133-2.538-1.698-3.682-1.773-6.886-1.723-10.858 0-.78-.003-1.56-.005-2.362-.003-2.566.015-5.13.034-7.696l.005-5.352c.005-3.733.02-7.465.041-11.197.029-4.794.04-9.588.044-14.383.004-3.68.014-7.36.026-11.04.006-1.77.01-3.538.014-5.306.007-2.464.02-4.928.036-7.391l.004-2.232C-4.67.82-4.67.82 0 0zm39.438 57.625 1 2z" fill="#FFFFFF" transform="translate(2344.5625,2659.375)"/><path d="M0 0c6.427 5.203 10.198 11.286 11.164 19.566.256 7.405-2.175 12.863-6.238 18.957l1.812 1.563c4.528 5.045 5.71 10.848 6.375 17.437l.24 2.212c.717 7.196 1.238 14.575.573 21.788-2 2-2 2-5.438 2.438-3.562-.437-3.562-.437-5.25-2.355-1.825-4.286-1.803-8.216-1.875-12.832.255-11.464.255-11.464-4.437-21.25-2.246-.059-2.246-.059-4.75.313-.84.1-1.681.198-2.547.3-2.91.417-5.807.904-8.704 1.387l-1 33c-3.411 1.706-7.248 1.054-11 1-.883-10.22-1.15-20.358-1.133-30.609 0-1.545-.002-3.09-.003-4.634-.001-3.203 0-6.407.005-9.61.006-4.11.003-8.218-.003-12.327a4875.17 4875.17 0 0 1 0-9.522c0-1.516 0-3.033-.003-4.55-.003-2.105 0-4.21.006-6.316l.003-3.627c.126-2.804.126-2.804 1.126-4.804C-20.32-4.84-9.394-6.687 0 0zm-21.074 8.523 1 29c10.14-2.21 10.14-2.21 17.375-8.687 2.115-4.31 2.555-7.6 1.626-12.313C-2.71 12.74-4.482 9.49-8.063 7.316c-4.866-1.918-8.267-.69-13.011 1.207z" fill="#FFFFFF" transform="translate(2100.07421875,2662.4765625)"/><path d="M0 0C2.98.33 5.36.607 7.938 2.188 9.594 5.014 8.73 6.832 8 10c-1.104 3.097-2.384 6.107-3.688 9.125l-1.075 2.54C.75 27.467-1.976 33.047-5.066 38.555-6.246 41.645-6.125 42.894-5 46a102.454 102.454 0 0 0 4.5 6.375c4.145 5.6 7.858 11.33 11.363 17.349a121.448 121.448 0 0 0 6.762 10.339c2.054 2.993 2.38 3.638 2.312 7.437C19 90 19 90 18 91c-3.125.562-3.125.562-7 0-5.528-4.798-9.395-11.384-13.188-17.562l-1.537-2.46A366.236 366.236 0 0 1-12 57c-3.4 3.866-5.023 8.48-6.938 13.188A2780.014 2780.014 0 0 1-23 80l-1.04 2.55-1.026 2.438-.909 2.193C-27 89-27 89-30 91c-5.444-.444-5.444-.444-8-3 .339-4.78 1.505-8.795 3.328-13.203l1.426-3.473 1.496-3.574 1.45-3.527 1.44-3.489 1.416-3.44C-26 54-26 54-24.383 50.982c2.748-4.844 2.748-4.844 2.997-10.204-1.033-2.233-2.237-4.097-3.677-6.09l-1.413-2.174c-2.364-3.584-4.899-7.042-7.434-10.506l-1.38-1.893a133.193 133.193 0 0 0-2.66-3.474c-2.073-2.714-3.031-4.487-3.448-7.91C-41 6-41 6-39 4c3.393-.452 5.322-.412 8.273 1.383 3.956 3.797 6.634 8.242 9.54 12.867A13312499 13312499 0 0 1-15 28c2.065-2.606 3.608-5.057 4.902-8.117l1.01-2.34a8295.5 8295.5 0 0 0 2.04-4.813C-5.064 8.13-2.927 4.071 0 0z" fill="#FFFFFF" transform="translate(1803,2655)"/><path d="M0 0c2.562 2.312 2.562 2.312 4 5-.25 3.812-.25 3.812-1 7-4.255-.355-7.3-1.01-11.062-3.062C-11.578 7.088-13.969 6.297-18 7c-4.847 2.471-7.217 4.848-9 10-.476 3.484-.728 6.716 1.062 9.875 3.531 2.05 7.314 2.857 11.301 3.516C-4.94 32.02 2.89 36.148 9 44c4.057 6.338 5.013 12.587 4 20-1.743 7.158-4.718 12.078-11 16-10.098 5.387-21.736 7.008-32.938 4-5.72-2.242-9.585-6.981-12.238-12.402-.916-2.887-1.09-5.262-1.074-8.285l-.016-2.887C-44 58-44 58-42 56c2.938-.375 2.938-.375 6 0 3.388 2.783 3.743 6.759 4.473 10.879.47 2.4.47 2.4 2.527 5.12 6.39 2.13 14.4 2.196 20.562-.688C-4.547 69.007-2.022 66.045 0 62c.565-5.53.354-9.388-3-14v-2c-5.6-2.538-11.633-3.64-17.607-4.969-6.027-1.425-10.958-3.068-15.038-8.03l-1.167-2-1.208-2c-2.903-5.922-2.778-12.429-.855-18.625 4.487-8.076 9.545-12.21 18.25-15.188C-13.078-5.352-6.32-4.315 0 0z" fill="#FFFFFF" transform="translate(2692,2662)"/><path d="M0 0c2 3 2 3 1.625 5.688L1 8c-10.71 4.228-22.694 3.11-34 3l.035 1.879a208.723 208.723 0 0 1-.539 17.022c-.07 1.03-.07 1.03-.144 2.08-.115 1.673-.233 3.346-.352 5.018l3.09.076c3.775.094 7.55.194 11.327.296 1.635.044 3.27.085 4.906.125 2.348.058 4.696.122 7.044.187l2.223.05C-.228 37.886-.228 37.886 2 39c-.312 3.375-.312 3.375-1 7-3.725 2.484-5.63 2.232-10.074 2.195l-2.072-.008a999.16 999.16 0 0 1-6.542-.062c-1.48-.01-2.96-.02-4.44-.027-3.624-.02-7.247-.06-10.872-.098l-1 26c7.777-.366 7.777-.366 15.554-.748 6.588-.287 12.91-.139 19.446.748.688 2.812.688 2.812 1 6-1.788 2.592-2.96 2.987-6 4-1.558.147-3.12.247-4.684.316l-2.795.128-2.958.118-3.01.125C-40.077 85.58-40.077 85.58-44 83c-2.493-7.946-2.189-15.784-2.012-24.035l.069-4.343c.048-3.02.103-6.04.164-9.06.08-3.851.143-7.703.203-11.555.047-2.985.099-5.97.152-8.954.025-1.42.05-2.84.073-4.26.12-6.997.279-13.87 1.352-20.793 5.302-.168 10.604-.329 15.906-.482 1.802-.053 3.604-.109 5.406-.166 2.596-.083 5.193-.157 7.79-.23l2.425-.083C-8.21-1.075-4.153-1.125 0 0z" fill="#FFFFFF" transform="translate(2014,2661)"/><path d="M0 0c2 3 2 3 1.625 5.688L1 8c-10.708 4.227-22.714 3.084-34 3l-1 26 7.367.184c2.35.061 4.7.125 7.05.188 1.635.044 3.27.085 4.906.125 2.348.058 4.696.122 7.044.187l2.223.05C-.228 37.886-.228 37.886 2 39c-.312 3.375-.312 3.375-1 7-3.725 2.484-5.63 2.232-10.074 2.195l-2.072-.008a999.16 999.16 0 0 1-6.542-.062c-1.48-.01-2.96-.02-4.44-.027-3.624-.02-7.247-.06-10.872-.098l-1 26c7.823-.366 7.823-.366 15.644-.748 6.25-.272 12.179-.31 18.356.748l2 2c-.062 2.438-.062 2.438-1 5-4.603 3.92-9.814 3.554-15.562 3.688l-2.983.096c-2.818.087-5.636.153-8.455.216l-3.902.125C-40.447 85.338-40.447 85.338-44 83c-2.527-8.018-2.187-15.962-2.012-24.29.024-1.472.047-2.944.069-4.417.048-3.07.103-6.142.164-9.213.08-3.921.143-7.843.203-11.764.047-3.036.099-6.07.152-9.106.025-1.446.05-2.891.073-4.337.034-2.024.074-4.047.115-6.07l.065-3.478c.18-3.49.628-6.875 1.172-10.325 5.302-.168 10.604-.329 15.906-.482 1.802-.053 3.604-.109 5.406-.166 2.596-.083 5.193-.157 7.79-.23l2.425-.083C-8.21-1.075-4.153-1.125 0 0z" fill="#FFFFFF" transform="translate(1714,2661)"/><path d="M0 0C1.354 2.71 1.065 5.01 1 8c-8.626 2.753-17.05 3.153-26.062 3.062l-2.624-.013c-2.104-.013-4.21-.03-6.314-.05a686384.75 686384.75 0 0 1 .062 11.875l.026 3.418.01 3.262.016 3.015C-34 35-34 35-35 37l3.09.076c3.775.094 7.55.194 11.327.296 1.635.044 3.27.085 4.906.125 2.348.058 4.696.122 7.044.187l2.223.05c5.182.152 5.182.152 7.41 1.266.25 2.812.25 2.812 0 6-2.342 2.48-3.766 2.974-7.176 3.356l-3.707-.028a2875672.2 2875672.2 0 0 1-12.472-.094C-32.672 48.164-32.672 48.164-35 47v27c8.152-.366 8.152-.366 16.302-.748C-12.33 72.986-6.3 73 0 74c1 1 1 1 1.062 4.062L1 81c-4.66 2.699-8.197 3.422-13.559 3.582l-2.142.069a491.17 491.17 0 0 1-4.465.113c-2.261.05-4.52.125-6.78.204-1.454.04-2.908.078-4.362.115-1.306.033-2.614.067-3.961.1-3.972-.194-6.977-.945-10.73-2.182-.82-3.587-1.126-6.898-1.13-10.574l-.009-3.323.007-3.576-.003-3.736c0-3.284.003-6.57.01-9.854.002-3.268-.005-6.537-.01-9.805C-46.14 28.057-45.907 14.048-45 0c5.283-.168 10.567-.329 15.85-.482 1.796-.053 3.591-.109 5.387-.166 2.589-.083 5.178-.158 7.767-.23l2.41-.083C-8.932-1.085-4.57-.964 0 0z" fill="#FFFFFF" transform="translate(2596,2661)"/><path d="M0 0c.04 2.333.042 4.667 0 7-8.625 2.753-17.053 3.153-26.062 3.062L-35 10v26c3.664.09 3.664.09 7.402.184 2.357.061 4.713.125 7.07.188 1.642.044 3.284.085 4.926.125 2.356.058 4.711.122 7.067.187l2.238.05c5.183.152 5.183.152 6.297 1.266.312 2.875.312 2.875 0 6-2.359 2.496-3.77 2.976-7.208 3.34-1.236-.015-2.472-.03-3.745-.047l-2-.013c-2.1-.017-4.198-.054-6.297-.092a2200.13 2200.13 0 0 0-4.281-.042c-3.492-.03-6.98-.089-10.47-.146l-2 26c8.152-.366 8.152-.366 16.302-.748C-13.33 71.986-7.3 72-1 73c1 1 1 1 1.188 3.938C0 80 0 80-2 82c-2.846.936-5.58 1.177-8.562 1.316l-2.649.128-2.79.118-2.854.125c-21.677.9-21.677.9-26.146-1.687-1.85-4.343-2.247-8.076-2.23-12.766V67.25c.004-2.167.023-4.334.042-6.5l.02-4.572C-47.06 37.115-46.53 18.055-46-1c5.283-.168 10.567-.329 15.85-.482 1.796-.053 3.591-.109 5.387-.166 2.589-.083 5.178-.158 7.767-.23l2.41-.083C-2.287-2.287-2.287-2.287 0 0z" fill="#FFFFFF" transform="translate(2286,2662)"/><path d="M0 0C3.523-.07 7.046-.114 10.57-.152l3.005-.062c9.516-.077 15.619 1.872 22.812 8.37C43.076 15.17 45.97 22.341 46 32c-.635 8.217-4.583 14.488-10.25 20.312C27.91 57.125 21.168 58.627 12 58l.488 2.922c.633 4.445.696 8.844.7 13.328l.037 2.43c.015 5.96.015 5.96-2.225 9.32-3.312-.188-3.312-.188-7-1C.025 80.534.444 75.195.316 69.53l-.1-3.174C-.16 53.074-.108 39.786-.063 26.5A11094.52 11094.52 0 0 1 0 0zm13 10c-1.406 1.178-1.406 1.178-1.114 4.51 0 1.56.006 3.12.016 4.681l.005 2.486c.005 2.629.018 5.258.03 7.886.006 1.778.01 3.556.014 5.334.012 4.368.03 8.736.05 13.104l3.853-.452 2.167-.255c5.247-.777 9.512-3.415 12.917-7.418C34.493 34.92 34.76 31.015 34 25c-2.346-6.247-7.154-10.916-13-14-2.82-.78-5.035-.948-8-1z" fill="#FFFFFF" transform="translate(1872,2660)"/><path d="M0 0c2.303 1.922 3.39 3.37 5 6-.186 4.186-.186 4.186-2 6-2.977.425-5.127.571-7.707-1.117L-6.437 9.5c-2.66-2.05-3.646-2.515-7.126-3.125C-17.872 7.16-20.285 8.67-23 12c-8.59 13.312-9.532 29.045-7.566 44.383 1.674 7.468 5.538 13.035 12.003 17.18 3.713.633 6.853.066 10.563-.563l.875-2.312C-6 68-6 68-4 65c3-.312 3-.312 6 0 2 2 2 2 2.5 4.625C3.766 74.578 1.63 77.6-2 81c-6.224 3.829-12.797 4.979-20 4-7.214-2.164-12.623-9.201-16.312-15.562-7.515-16.699-5.946-37.83.12-54.618C-35.031 7.343-31.066.372-24-4c7.747-2.727 17.265-.257 24 4z" fill="#FFFFFF" transform="translate(2492,2662)"/><path d="M0 0c.812 3.562.812 3.562 1 7L0 8h-5v64h6c2 2 2 2 2.438 4.438C3 79 3 79 1.188 80.688-5.648 83.502-12.773 84.808-20 83l-3-2c.312-2.375.312-2.375 1-5 3-2 3-2 7-2l-.214-1.868c-.847-8.154-.941-16.253-.91-24.445 0-.694 0-1.39.002-2.105C-16.104 33.368-15.723 21.194-15 9l-3.871.145c-2.179.08-2.179.08-4.13-.145-2.062-2.312-2.062-2.312-3-5 1-3 1-3 3.125-4.125C-16.183-2.162-6.21-4.222 0 0z" fill="#FFFFFF" transform="translate(2187,2663)"/></svg>