<?xml version="1.0" encoding="UTF-8"?>
<svg version="1.1" xmlns="http://www.w3.org/2000/svg" viewBox="950 1700 2650 1100">
<path d="M0 0 C6.52822165 4.54283465 10.04722024 10.58674532 13.6484375 17.51953125 C14.16784912 18.50336792 14.16784912 18.50336792 14.69775391 19.50708008 C19.29264083 28.83389441 18.24742756 37.46722182 16.7734375 47.51953125 C16.50104248 49.41058594 16.50104248 49.41058594 16.22314453 51.33984375 C4.60674922 129.82595504 -24.32095127 205.74680102 -88.73510742 348.56982422 C-89.72357461 350.57596718 -90.71045089 352.58288754 -91.69726562 354.58984375 C-99.19485135 369.8216826 -106.88822441 384.91796249 -115.15478516 399.75048828 C-116.85327258 402.81029834 -118.53094538 405.88099065 -120.20703125 408.953125 C-128.54556186 424.17952404 -137.33986848 439.04627055 -146.44042969 453.82666016 C-148.12269742 456.57472337 -149.77249352 459.34045702 -151.41113281 462.11474609 C-158.35312349 473.84785667 -165.66712639 485.27700715 -173.26513672 496.59570312 C-175.12622825 499.36878394 -176.97960836 502.14690401 -178.83203125 504.92578125 C-180.0334152 506.72294977 -181.23522229 508.51983552 -182.4375 510.31640625 C-182.98135345 511.13107361 -183.52520691 511.94574097 -184.08554077 512.78509521 C-192.70927562 525.61517655 -192.70927562 525.61517655 -197.2265625 530.01953125 C-207.17460318 540.21627295 -210.0390625 551.25386024 -210.0390625 565.08129883 C-209.67670705 586.82880258 -196.66726199 608.4015447 -181.44799805 623.33154297 C-165.00821369 638.79729012 -146.07726508 645.80645482 -123.7265625 646.58203125 C-122.40785156 646.63488281 -121.08914062 646.68773438 -119.73046875 646.7421875 C-70.97392846 648.08426848 -31.54024152 619.81476432 2.66358376 588.07077599 C4.19566681 586.65395126 5.73442241 585.24487261 7.27616882 583.83857727 C14.30440864 577.41591474 21.14381917 570.84145478 27.84839821 564.08223534 C29.47474091 562.44276975 31.10450238 560.80676491 32.73503113 559.17146301 C36.18822596 555.70702576 39.63738815 552.23859188 43.0859375 548.76953125 C47.10783211 544.72384838 51.13146473 540.67992332 55.159338 536.64019203 C56.74991618 535.04322549 58.33740948 533.44323822 59.92475891 531.84306335 C65.20158086 526.53950893 70.55858604 521.41280531 76.2734375 516.58203125 C77.30675164 515.68186361 78.33933541 514.78085671 79.37109375 513.87890625 C110.09818793 487.48356316 145.47992376 466.99591327 187.2734375 469.58203125 C208.39736001 471.19147297 228.08765185 478.17073276 242.2734375 494.58203125 C244.90045513 498.11416377 247.19631508 501.82624629 249.43359375 505.61328125 C251.79011634 509.41573808 253.0227524 511.16513622 257.2734375 512.58203125 C259.20960284 512.72793704 261.15012195 512.81820298 263.09082031 512.87915039 C264.93728149 512.93906914 264.93728149 512.93906914 266.82104492 513.00019836 C268.20620451 513.0396516 269.59137773 513.07862843 270.9765625 513.1171875 C271.69949493 513.13841864 272.42242737 513.15964977 273.16726685 513.18152428 C278.9522877 513.35111669 284.73773087 513.50047146 290.5234375 513.64453125 C291.83117378 513.67763649 291.83117378 513.67763649 293.16532898 513.71141052 C330.0372119 514.63693138 366.91010831 514.80536444 403.79153943 514.82697529 C408.24904806 514.8296974 412.70653995 514.83522947 417.16404182 514.84342813 C449.57335285 514.90271644 481.92804396 514.89362867 514.2734375 512.58203125 C515.03362749 512.52836269 515.79381748 512.47469414 516.57704353 512.41939926 C602.60984791 506.32641997 689.25708054 490.47249772 812.2734375 417.58203125 C812.94600586 417.05222656 813.61857422 416.52242187 814.31152344 415.9765625 C826.90116509 406.01838658 838.59662624 395.33425941 849.99310303 384.03659058 C851.41634577 382.62621969 852.8431271 381.21942247 854.27001953 379.81274414 C861.19640443 372.89440023 867.37779963 365.56423188 873.40307617 357.85839844 C875.23845555 355.62460685 876.81268509 354.31232762 879.2734375 352.83203125 C879.9334375 352.4246875 880.5934375 352.01734375 881.2734375 351.59765625 C887.51091641 348.43018649 895.3595814 348.66307777 902.03515625 350.23046875 C908.6790367 352.61127736 913.6745352 356.43076449 917.4375 362.44140625 C919.5535602 367.86010247 919.29127952 375.18816341 916.9609375 380.51953125 C913.7141204 386.06905551 909.15830086 390.82811743 904.92675781 395.64160156 C903.72660764 397.05016529 902.55790876 398.48571893 901.40917969 399.93652344 C895.35646936 407.57064855 888.71456282 414.44773518 881.80859375 421.30761719 C879.90129418 423.20419064 878.00493691 425.1112343 876.109375 427.01953125 C869.13519263 434.00125658 862.03451426 440.47525427 854.2734375 446.58203125 C853.24537321 447.4448071 852.22195845 448.31321429 851.20703125 449.19140625 C784.50854043 506.39136395 696.7953306 534.89306939 611.45574951 549.21484375 C609.21743305 549.59145435 606.98002359 549.97314888 604.74267578 550.35546875 C573.00136042 555.75582822 541.27656887 559.20652744 509.1484375 561.26953125 C508.21799622 561.33046967 507.28755493 561.39140808 506.32891846 561.45419312 C473.5243176 563.56563923 440.69813933 563.71308948 407.8400135 563.59606552 C401.15258332 563.57250434 394.46515557 563.55956112 387.7776947 563.54837036 C368.79552271 563.51531865 349.81339904 563.47281256 330.83129883 563.41064453 C320.2750289 563.37616039 309.71879095 563.35233709 299.16247076 563.3404361 C292.51524837 563.33235593 285.8682399 563.31116745 279.22108662 563.28023124 C275.10948277 563.26425572 270.99794059 563.26081125 266.88630867 563.26100159 C264.98070901 563.25857679 263.07510794 563.25098523 261.16955185 563.23787308 C258.57186282 563.22073749 255.97481422 563.22205309 253.37709045 563.22799683 C252.24514105 563.21386586 252.24514105 563.21386586 251.09032398 563.19944942 C246.62365145 563.23370863 243.84285896 563.86990298 240.2734375 566.58203125 C238.76062949 568.13493135 237.30347559 569.74348468 235.8984375 571.39453125 C226.84262234 581.65878303 217.33905749 588.47884537 203.2734375 589.58203125 C190.92318425 589.72040944 181.21126772 585.16516668 172.36328125 576.76953125 C165.82399556 569.88314971 163.09003845 563.0073469 162.7734375 553.51953125 C163.00819305 545.79775053 165.03637783 540.60508486 169.5859375 534.45703125 C171.59400038 531.60745877 171.59400038 531.60745877 171.2109375 527.89453125 C170.3116285 524.7169728 169.89341406 523.46841437 167.2734375 521.58203125 C161.60748475 518.74905488 153.57445448 521.94045862 147.9609375 523.70703125 C126.36825546 531.09485977 110.37951177 546.28203957 94.5859375 562.14453125 C93.68810547 563.03849609 92.79027344 563.93246094 91.86523438 564.85351562 C87.4026499 569.32263869 83.07903659 573.84483469 78.96508789 578.63647461 C75.85653003 582.21160776 72.58840171 585.63824561 69.3359375 589.08203125 C68.67142578 589.78972656 68.00691406 590.49742187 67.32226562 591.2265625 C60.27134593 598.70833374 53.09478754 605.90656895 45.2734375 612.58203125 C44.36207031 613.38253906 43.45070313 614.18304687 42.51171875 615.0078125 C22.20579992 632.70889996 -0.8254494 648.19574965 -24.7265625 660.58203125 C-25.43329102 660.95634277 -26.14001953 661.3306543 -26.86816406 661.71630859 C-68.65521032 683.65498295 -121.08347958 693.71933223 -166.90380859 679.55322266 C-188.05077613 672.67653084 -205.55858525 661.83989058 -221.7265625 646.58203125 C-222.46390625 645.90914062 -223.20125 645.23625 -223.9609375 644.54296875 C-236.25556139 632.90231421 -244.40162717 618.38608889 -252.5390625 603.71386719 C-255.20859953 598.8341452 -255.20859953 598.8341452 -258.7265625 594.58203125 C-261.97012826 593.82789772 -261.97012826 593.82789772 -265.7265625 594.58203125 C-267.6504192 595.90447191 -267.6504192 595.90447191 -269.48046875 597.66015625 C-270.17817383 598.29622803 -270.87587891 598.9322998 -271.59472656 599.58764648 C-272.29823242 600.24579346 -273.00173828 600.90394043 -273.7265625 601.58203125 C-274.37592773 602.18281494 -275.02529297 602.78359863 -275.69433594 603.40258789 C-277.65168947 605.22377986 -279.59646987 607.05761067 -281.5390625 608.89453125 C-290.44139949 617.26749547 -299.33376013 625.55914525 -308.8515625 633.23828125 C-311.42031717 635.33237473 -313.94728592 637.46416466 -316.46459961 639.61914062 C-322.82041454 645.05641944 -329.32422409 650.24380829 -336.00341797 655.27978516 C-337.77234938 656.61663414 -339.53288124 657.96403436 -341.29296875 659.3125 C-358.33888997 672.30970939 -375.8819842 684.47397839 -394.42578125 695.23681641 C-396.62329311 696.52165197 -398.80213921 697.83279844 -400.9765625 699.15625 C-434.90443607 719.71410537 -477.66583786 740.73751219 -518.44921875 732.86328125 C-532.62742282 729.28401755 -542.90096014 721.69300467 -550.8515625 709.58203125 C-557.3505666 698.55379842 -560.16814865 686.78874988 -562.29589844 674.28295898 C-563.18673807 668.26001079 -563.18673807 668.26001079 -566.7265625 663.58203125 C-570.1881268 662.36472923 -572.5460794 662.13626673 -576.01660156 663.44677734 C-578.69301001 664.79239544 -581.26869235 666.25206644 -583.8515625 667.76953125 C-584.81658691 668.31617432 -585.78161133 668.86281738 -586.77587891 669.42602539 C-589.77000934 671.12695875 -592.74888871 672.8524842 -595.7265625 674.58203125 C-597.48092445 675.58871603 -599.23609863 676.59398699 -600.9921875 677.59765625 C-603.55744852 679.06449889 -606.12255528 680.53157359 -608.68579102 682.00195312 C-628.50161641 693.34952436 -648.41170782 704.57836972 -670.1015625 711.95703125 C-670.76591309 712.18382568 -671.43026367 712.41062012 -672.11474609 712.64428711 C-684.16591653 716.53303618 -695.74727647 718.07658858 -708.33959961 717.97314453 C-710.65864055 717.95706884 -712.97593344 717.97308505 -715.29492188 717.9921875 C-732.71175912 718.01690288 -750.53413043 715.67406853 -763.5390625 703.0234375 C-776.45539355 688.60788945 -777.45860727 669.63775553 -776.93652344 651.21142578 C-776.45571778 642.90019679 -775.25724014 634.645053 -774.06176758 626.41040039 C-773.87767334 625.10578857 -773.6935791 623.80117676 -773.50390625 622.45703125 C-773.33109131 621.29945313 -773.15827637 620.141875 -772.98022461 618.94921875 C-772.66082339 614.70939039 -772.61445668 610.43554095 -774.8515625 606.70703125 C-777.76609664 604.95831076 -780.35532015 604.81346366 -783.7265625 604.58203125 C-786.92533126 605.57735301 -786.92533126 605.57735301 -790.03125 607.30859375 C-790.61928406 607.60767639 -791.20731812 607.90675903 -791.81317139 608.21490479 C-793.08380732 608.86117544 -794.35085314 609.5145442 -795.61456299 610.17425537 C-799.04887428 611.9592955 -802.51901785 613.67099617 -805.9921875 615.37890625 C-806.71109161 615.73262299 -807.42999573 616.08633972 -808.17068481 616.45077515 C-860.3379723 641.85528413 -917.9005699 653.84914146 -975.70410156 653.96289062 C-978.58702545 653.97237705 -981.46887862 654.00600722 -984.3515625 654.04296875 C-985.22232422 654.03792328 -986.09308594 654.03287781 -986.99023438 654.02767944 C-991.04156215 654.09379263 -993.18200272 654.23804423 -996.67822266 656.4465332 C-999.07985981 658.95036159 -1001.07944541 661.57421005 -1003.1015625 664.39453125 C-1027.07218872 696.48387043 -1066.50435224 720.57895711 -1106.1015625 726.95703125 C-1125.53495372 729.15917955 -1143.30038169 727.08044046 -1159.50390625 715.6171875 C-1174.80475081 702.95685848 -1181.64852789 683.46346931 -1184.4140625 664.33203125 C-1185.01649415 657.1028514 -1184.67303252 650.1971296 -1183.7265625 643.01953125 C-1183.00507178 636.9758588 -1182.48907434 630.98275195 -1182.4140625 624.89453125 C-1182.39730469 623.65316406 -1182.38054687 622.41179688 -1182.36328125 621.1328125 C-1182.88637489 616.01999398 -1184.10459833 612.10871412 -1187.90429688 608.53222656 C-1198.26078024 601.37586072 -1213.38932644 600.15323901 -1225.5352478 598.04351807 C-1246.61801108 594.36583115 -1267.41045436 589.8028029 -1288.1809082 584.65600586 C-1321.42146181 575.81207611 -1321.42146181 575.81207611 -1354.7265625 579.58203125 C-1356.57654518 582.93615415 -1357.15187671 585.70291466 -1356.4609375 589.51953125 C-1355.14350074 593.2195664 -1352.80111063 596.31315193 -1350.63671875 599.56640625 C-1339.9941196 616.36821923 -1336.84643431 636.29554672 -1340.3828125 655.8359375 C-1341.29201308 659.53152436 -1342.39866103 663.01600506 -1343.7265625 666.58203125 C-1343.96262207 667.22156738 -1344.19868164 667.86110352 -1344.44189453 668.52001953 C-1348.46425436 679.16073028 -1354.01523198 688.43070874 -1360.7265625 697.58203125 C-1361.37753906 698.47792969 -1362.02851562 699.37382812 -1362.69921875 700.296875 C-1373.45959735 714.18054441 -1386.70449381 726.92393584 -1400.90283203 737.25 C-1402.89170421 738.70264881 -1404.85342573 740.1883564 -1406.81640625 741.67578125 C-1475.78865781 793.35458561 -1578.31628615 830.07712246 -1665.1484375 818.33203125 C-1688.59899498 814.69279914 -1711.93716928 807.33029915 -1727.7265625 788.58203125 C-1737.72987411 774.8296374 -1740.8168132 761.48241673 -1741.15625 744.83789062 C-1741.33077044 739.99131264 -1741.53279726 736.49164043 -1744.7265625 732.58203125 C-1748.54004992 730.67528754 -1752.24538987 731.15527726 -1756.22119141 732.30078125 C-1759.18086651 733.34580624 -1762.11006961 734.45388067 -1765.0390625 735.58203125 C-1811.75089994 752.8958605 -1860.46234108 762.36599681 -1909.7265625 768.9453125 C-1910.82989489 769.0935742 -1911.93322727 769.2418359 -1913.06999397 769.39459038 C-1939.55077911 772.94007126 -1966.09912897 775.81407964 -1992.6640625 778.64453125 C-2053.87125703 784.98792716 -2053.87125703 784.98792716 -2114.6640625 794.39453125 C-2115.56585236 794.55744659 -2116.46764221 794.72036194 -2117.39675903 794.88821411 C-2157.32214382 802.12726878 -2196.01702126 812.5373227 -2233.7265625 827.58203125 C-2234.63857422 827.93571777 -2235.55058594 828.2894043 -2236.49023438 828.65380859 C-2238.78703076 829.54536363 -2241.07090006 830.46263037 -2243.3515625 831.39453125 C-2244.54007813 831.87535156 -2245.72859375 832.35617187 -2246.953125 832.8515625 C-2252.87611384 836.54717385 -2253.73186815 843.79134624 -2255.4765625 850.14453125 C-2260.31321318 866.88256907 -2268.74097601 881.90697541 -2283.7265625 891.58203125 C-2298.34285164 898.91754715 -2313.59274613 899.62374279 -2329.16015625 894.90234375 C-2339.63580167 891.02417491 -2347.91167857 885.52096095 -2355.7265625 877.58203125 C-2356.38527344 876.92203125 -2357.04398438 876.26203125 -2357.72265625 875.58203125 C-2365.88368418 866.8769348 -2369.16516991 857.46712325 -2369.7265625 845.58203125 C-2369.29115443 835.63787283 -2364.30214956 827.76007576 -2357.2890625 820.95703125 C-2348.09629113 813.16584834 -2337.17239248 808.36973802 -2325.82958984 804.5715332 C-2322.2153257 803.3289304 -2320.91743492 802.86833988 -2318.7265625 799.58203125 C-2318.15655372 794.70919285 -2318.15655372 794.70919285 -2320.29296875 790.49609375 C-2323.33144119 788.10628397 -2326.34788248 787.26153786 -2330.0390625 786.39453125 C-2331.31394531 786.07097656 -2332.58882812 785.74742187 -2333.90234375 785.4140625 C-2342.78206916 783.48210998 -2351.50165711 783.3393968 -2360.5390625 783.33203125 C-2361.27954834 783.33135651 -2362.02003418 783.33068176 -2362.78295898 783.32998657 C-2374.0161718 783.3462591 -2384.79596316 783.82905928 -2395.7265625 786.58203125 C-2396.77505371 786.83146484 -2396.77505371 786.83146484 -2397.84472656 787.0859375 C-2416.06949357 791.51300641 -2437.36534996 800.40678724 -2447.7890625 816.83203125 C-2450.1606564 820.19816452 -2451.84657101 821.23895727 -2455.7265625 822.58203125 C-2462.05791181 823.29686101 -2466.45050071 822.19320243 -2471.7265625 818.58203125 C-2476.43130537 813.75347936 -2477.9108601 809.44719038 -2478.08984375 802.7421875 C-2476.81461366 795.15936769 -2470.83965151 789.85540518 -2465.7265625 784.58203125 C-2465.00726562 783.83695313 -2464.28796875 783.091875 -2463.546875 782.32421875 C-2442.37730395 761.88715881 -2411.2987841 752.22060437 -2382.7265625 748.58203125 C-2381.70820313 748.45054687 -2380.68984375 748.3190625 -2379.640625 748.18359375 C-2345.29479256 744.62394165 -2307.63865598 750.12391389 -2279.9140625 771.95703125 C-2272.77211481 778.06818237 -2266.36845358 784.72557626 -2261.796875 792.98828125 C-2260.65776557 794.90341473 -2260.65776557 794.90341473 -2257.7265625 796.58203125 C-2250.60240213 797.57767374 -2244.37363358 794.60315369 -2237.7890625 792.14453125 C-2236.55357666 791.69368164 -2235.31809082 791.24283203 -2234.04516602 790.77832031 C-2227.06217324 788.227033 -2220.10795965 785.59926593 -2213.15625 782.96411133 C-2145.56835637 757.39254942 -2070.97343631 753.17612728 -1999.67385864 745.1668396 C-1911.38879373 735.24722851 -1821.46505975 724.92693336 -1729.59228516 685.84033203 C-1726.899053 684.65776954 -1724.18709626 683.54732801 -1721.45703125 682.453125 C-1710.5973824 677.94542715 -1703.48002475 672.0817939 -1695.48828125 663.515625 C-1690.13588392 657.79551619 -1684.06577922 653.15112913 -1677.7265625 648.58203125 C-1676.77547607 647.89633057 -1676.77547607 647.89633057 -1675.80517578 647.19677734 C-1666.41268363 640.48520851 -1656.75139158 634.30219034 -1646.7265625 628.58203125 C-1645.98889648 628.15905762 -1645.25123047 627.73608398 -1644.49121094 627.30029297 C-1619.17932505 612.88933689 -1592.60616063 600.75820623 -1566.06794739 588.80708313 C-1565.41646225 588.51367538 -1564.76497711 588.22026764 -1564.09375 587.91796875 C-1563.13857735 587.48782722 -1563.13857735 587.48782722 -1562.16410828 587.04899597 C-1555.75538058 584.15605854 -1549.39920198 581.15653481 -1543.06445312 578.10546875 C-1540.3062173 576.78025344 -1537.63358546 575.5510389 -1534.7265625 574.58203125 C-1533.51395373 570.94420493 -1533.33111698 568.40467126 -1533.7265625 564.58203125 C-1537.95470559 559.00565164 -1544.05597308 556.79242444 -1550.2890625 553.95703125 C-1576.41713526 541.71842034 -1601.14766002 527.31864033 -1622.453125 507.66796875 C-1624.5655049 505.72980575 -1626.72654322 503.87179854 -1628.9140625 502.01953125 C-1649.55376787 483.88783789 -1662.6688719 458.20211882 -1664.94921875 430.91796875 C-1665.77109175 407.26231973 -1655.65184675 386.23599095 -1640.1640625 368.95703125 C-1614.65435121 341.83508962 -1576.72078432 327.57874977 -1539.89453125 326.37890625 C-1501.49196885 325.77311503 -1466.96769367 337.53041887 -1437.7265625 362.58203125 C-1436.82421875 363.33742188 -1435.921875 364.0928125 -1434.9921875 364.87109375 C-1426.80185172 371.92253668 -1422.31089002 377.65577114 -1420.8828125 388.55859375 C-1420.38382698 398.21396363 -1423.8720241 405.10243257 -1430.0390625 412.26953125 C-1436.13877099 417.51811762 -1441.46132543 420.85009299 -1449.7265625 420.58203125 C-1454.77520722 419.65644638 -1458.1775996 418.31778167 -1461.7265625 414.58203125 C-1463.61718085 411.35146008 -1465.16630675 407.98199154 -1466.7265625 404.58203125 C-1474.08906999 388.62651363 -1483.16266563 380.07240547 -1499.6875 373.58203125 C-1519.03270082 367.2165153 -1539.27995343 371.13759014 -1557.21484375 379.78125 C-1567.85425665 385.90029058 -1574.69681764 399.11899698 -1578.328125 410.4609375 C-1580.6023746 422.56797214 -1578.290642 434.04137816 -1571.9296875 444.55078125 C-1569.97120385 447.33966196 -1567.9106489 449.96666692 -1565.7265625 452.58203125 C-1564.69015625 453.84466797 -1564.69015625 453.84466797 -1563.6328125 455.1328125 C-1538.26671608 484.68063859 -1498.06071903 501.60388158 -1463.91223145 518.55786133 C-1460.65613468 520.17553997 -1457.40238952 521.79793465 -1454.1484375 523.41992188 C-1445.4273783 527.76645746 -1445.4273783 527.76645746 -1436.6975708 532.09538269 C-1434.76020768 533.06481051 -1432.83149969 534.05179213 -1430.91326904 535.05854797 C-1426.49995387 537.35970464 -1422.82402045 539.18664861 -1417.7734375 539.5078125 C-1416.22462891 539.61899414 -1416.22462891 539.61899414 -1414.64453125 539.73242188 C-1413.07638672 539.81266602 -1413.07638672 539.81266602 -1411.4765625 539.89453125 C-1410.44660156 539.96736328 -1409.41664062 540.04019531 -1408.35546875 540.11523438 C-1397.32125669 540.8348569 -1386.30793897 540.7015426 -1375.2668457 540.22583008 C-1362.58539345 539.68193032 -1349.9092961 539.44814123 -1337.21694946 539.40478516 C-1335.46202921 539.39806539 -1333.70711796 539.38793576 -1331.95223999 539.37402344 C-1315.04531096 539.25029881 -1298.91679503 540.91071225 -1282.38034058 544.38250732 C-1267.7157497 547.44321471 -1252.99625821 549.86660071 -1238.1640625 551.95703125 C-1236.82093994 552.14755066 -1236.82093994 552.14755066 -1235.45068359 552.34191895 C-1221.47481913 554.31391419 -1207.75221583 555.78357806 -1193.62158203 555.82226562 C-1191.49341463 555.83195453 -1189.36622313 555.86308625 -1187.23828125 555.89453125 C-1166.40003315 556.05745711 -1150.54681042 550.57334878 -1134.7265625 536.58203125 C-1113.58898283 518.18662408 -1090.67636237 508.78785441 -1063.6640625 502.70703125 C-1062.72498047 502.49159668 -1061.78589844 502.27616211 -1060.81835938 502.05419922 C-1041.02336917 497.81492435 -1017.71553324 501.96024146 -1000.55078125 512.55078125 C-988.59795491 521.14755815 -983.21435584 533.11505235 -980.70544434 547.30566406 C-978.97404995 558.1281575 -979.25685632 569.10817155 -979.21533203 580.03808594 C-979.1995633 582.91755132 -979.16659503 585.7964797 -979.1328125 588.67578125 C-979.13583374 589.53844604 -979.13885498 590.40111084 -979.14196777 591.28991699 C-979.05844924 598.10749143 -978.1064339 604.69733865 -973.6640625 610.08203125 C-965.2438679 614.38170509 -954.60481449 612.38295499 -945.5390625 611.51953125 C-944.8233609 611.45301361 -944.1076593 611.38649597 -943.37026978 611.31796265 C-896.4994746 606.86994392 -852.45915135 591.95556913 -810.7265625 570.58203125 C-809.30561279 569.855 -809.30561279 569.855 -807.85595703 569.11328125 C-789.69860627 559.71590949 -772.6422742 548.40667497 -756.7265625 535.58203125 C-755.81132812 534.85886719 -754.89609375 534.13570312 -753.953125 533.390625 C-742.13277449 523.92418384 -731.00974732 513.44787356 -720.671875 502.3828125 C-717.07424448 499.05247581 -712.82521484 498.63849723 -708.11328125 498.51171875 C-700.4262136 498.88139386 -693.29251942 500.86103273 -687.83984375 506.55078125 C-686.32931685 508.51117452 -684.981236 510.44993406 -683.7265625 512.58203125 C-683.38455811 513.15074951 -683.04255371 513.71946777 -682.69018555 514.30541992 C-680.08503557 520.460227 -680.71169705 527.89353473 -683.02490234 534.02148438 C-684.53376053 536.92518124 -686.11328796 539.75233048 -687.82119751 542.54351807 C-689.33546882 545.02167797 -690.77738596 547.53966385 -692.22605896 550.05654907 C-692.97140239 551.34995381 -693.72007669 552.64144478 -694.47206116 553.93099976 C-710.99992091 582.310476 -734.97731063 624.33880238 -728.7265625 658.58203125 C-727.0186942 663.89164161 -724.58004896 667.64736502 -719.7265625 670.58203125 C-704.88938186 676.40053346 -687.02206415 669.5747295 -673.13085938 663.66503906 C-650.3230445 653.39133204 -629.0789374 640.04435124 -608.7265625 625.58203125 C-607.63432373 624.80859375 -607.63432373 624.80859375 -606.52001953 624.01953125 C-596.36568427 616.81253024 -586.42371071 609.39281219 -576.7265625 601.58203125 C-576.08477051 601.06640625 -575.44297852 600.55078125 -574.78173828 600.01953125 C-566.20119529 593.11693345 -557.712394 586.11466089 -549.34179688 578.95898438 C-547.67821707 577.54081779 -546.00760374 576.13127808 -544.3359375 574.72265625 C-528.85946181 561.63891082 -514.30266292 547.79581508 -501.1015625 532.39453125 C-476.64521761 504.19924642 -476.64521761 504.19924642 -460.67578125 502.34375 C-455.13759492 502.16201332 -452.07901095 502.83690119 -447.7265625 506.58203125 C-442.26175934 512.35910887 -440.18081093 518.14530131 -440.29785156 525.95776367 C-441.06812318 530.6728261 -443.90194921 533.63564378 -446.9765625 537.14453125 C-448.27412355 538.71473479 -449.56832946 540.28771619 -450.859375 541.86328125 C-451.51196289 542.64960938 -452.16455078 543.4359375 -452.83691406 544.24609375 C-455.68050898 547.76127671 -458.27588337 551.43067107 -460.8515625 555.14453125 C-461.58101074 556.19193481 -461.58101074 556.19193481 -462.32519531 557.26049805 C-463.30407023 558.66694058 -464.28193996 560.07408327 -465.25878906 561.48193359 C-466.72927911 563.58591819 -468.22017812 565.67375433 -469.71875 567.7578125 C-504.87968422 615.41981955 -504.87968422 615.41981955 -516.7265625 671.58203125 C-515.5069233 676.37976859 -513.51201859 679.41015009 -509.2890625 682.01953125 C-494.46043878 688.52331358 -475.96272611 682.24804535 -461.53271484 676.73291016 C-425.87023043 662.1067616 -393.2460822 640.92005686 -362.7265625 617.58203125 C-362.08444824 617.09154297 -361.44233398 616.60105469 -360.78076172 616.09570312 C-353.28339489 610.34204652 -346.00918834 604.35323067 -338.828125 598.2109375 C-335.9020765 595.71476075 -332.91299498 593.30276491 -329.9140625 590.89453125 C-325.98538828 587.7003483 -322.35566978 584.37148857 -318.87109375 580.69921875 C-317.01753126 578.86929003 -315.12368645 577.1867918 -313.1484375 575.4921875 C-307.91628988 570.94827364 -303.05169066 566.05309143 -298.1640625 561.14453125 C-296.8037793 559.79004883 -296.8037793 559.79004883 -295.41601562 558.40820312 C-290.30884436 553.29362479 -285.41901002 548.07723691 -280.7265625 542.58203125 C-279.58771859 541.28489243 -278.44708937 539.98931889 -277.3046875 538.6953125 C-276.19512961 537.42854559 -275.08575379 536.16161918 -273.9765625 534.89453125 C-273.41324219 534.25708984 -272.84992187 533.61964844 -272.26953125 532.96289062 C-266.68896368 526.57096394 -264.3864534 522.30503745 -263.8515625 513.83203125 C-260.51694274 474.58556889 -247.02811675 435.77905122 -234.7265625 398.58203125 C-234.40860718 397.61827576 -234.09065186 396.65452026 -233.76306152 395.66156006 C-219.8258994 353.45263265 -204.64129961 311.69349208 -187.7265625 270.58203125 C-187.44637268 269.89959351 -187.16618286 269.21715576 -186.87750244 268.51403809 C-169.79718831 226.91890595 -151.47502453 185.98251832 -131.7265625 145.58203125 C-131.23414062 144.57382324 -130.74171875 143.56561523 -130.234375 142.52685547 C-112.26913405 105.85816098 -92.21200999 68.65080372 -66.7265625 36.58203125 C-66.01628906 35.68097656 -65.30601562 34.77992187 -64.57421875 33.8515625 C-25.63006801 -14.67462884 -25.63006801 -14.67462884 0 0 Z M-60.7265625 104.58203125 C-62.46266403 107.00458918 -62.46266403 107.00458918 -63.8984375 109.75390625 C-64.47166748 110.79442139 -65.04489746 111.83493652 -65.63549805 112.90698242 C-66.54682495 114.60238159 -66.54682495 114.60238159 -67.4765625 116.33203125 C-68.12926035 117.52943666 -68.78267876 118.72644955 -69.43676758 119.9230957 C-71.1871548 123.1346042 -72.92157306 126.35445419 -74.6506958 129.57745361 C-75.72828076 131.58523276 -76.80889457 133.59135631 -77.89013672 135.59716797 C-92.03416649 161.85954807 -105.38013932 188.42126094 -117.7265625 215.58203125 C-118.17485413 216.56629089 -118.17485413 216.56629089 -118.63220215 217.57043457 C-136.42081963 256.64695381 -152.66078283 296.38054963 -167.7265625 336.58203125 C-168.0679425 337.49293518 -168.40932251 338.40383911 -168.76104736 339.34234619 C-176.5604451 360.17477789 -184.25144832 381.04605834 -191.6640625 402.01953125 C-191.91376801 402.72485992 -192.16347351 403.4301886 -192.42074585 404.15689087 C-193.11794372 406.12966087 -193.81173619 408.10358601 -194.50390625 410.078125 C-194.88796631 411.17310303 -195.27202637 412.26808105 -195.66772461 413.39624023 C-198.64325635 421.8609766 -198.64325635 421.8609766 -197.7265625 430.58203125 C-195.24256453 433.7353975 -195.24256453 433.7353975 -191.7265625 435.58203125 C-188.12074471 435.99552894 -188.12074471 435.99552894 -184.7265625 434.58203125 C-180.04655326 429.73013519 -176.97406487 424.07642953 -173.7265625 418.20703125 C-172.88170288 416.69496094 -172.88170288 416.69496094 -172.01977539 415.15234375 C-162.12941592 397.39611999 -152.56394879 379.47608737 -143.21044922 361.43212891 C-141.72780305 358.58441397 -140.23134827 355.74439218 -138.73046875 352.90625 C-101.94665982 283.23423319 -71.03109459 209.16395404 -48.7265625 133.58203125 C-48.40510254 132.50711426 -48.08364258 131.43219727 -47.75244141 130.32470703 C-46.85076782 127.29036317 -45.97128342 124.25066886 -45.1015625 121.20703125 C-44.84125244 120.32732666 -44.58094238 119.44762207 -44.31274414 118.54125977 C-42.93047511 113.55145011 -42.40861842 109.72860287 -43.7265625 104.58203125 C-46.48012714 101.42353063 -48.07295912 100.67540316 -52.2265625 100.08203125 C-56.3716355 100.67418454 -57.68605659 101.77144938 -60.7265625 104.58203125 Z M-1064.7265625 551.58203125 C-1068.56277284 556.61705731 -1069.23090332 561.3282051 -1068.7265625 567.58203125 C-1066.93375935 573.44347575 -1064.44582978 578.6938514 -1060.7265625 583.58203125 C-1060.25734375 584.20722656 -1059.788125 584.83242187 -1059.3046875 585.4765625 C-1054.63780231 591.28794572 -1049.15270739 594.90160281 -1042.7265625 598.58203125 C-1041.086875 599.54109375 -1041.086875 599.54109375 -1039.4140625 600.51953125 C-1036.20166549 601.78954867 -1034.15003891 602.09191072 -1030.7265625 601.58203125 C-1027.45292705 599.6476103 -1026.02409651 598.25148278 -1024.4765625 594.76953125 C-1022.78422783 587.57710892 -1022.51480654 580.63629012 -1022.4765625 573.26953125 C-1022.4559375 572.28791016 -1022.4353125 571.30628906 -1022.4140625 570.29492188 C-1022.36564644 561.15033866 -1023.86353584 552.86639771 -1029.7265625 545.58203125 C-1033.80052181 541.83040718 -1037.23915549 542.14543007 -1042.56640625 542.30078125 C-1051.09836236 543.0601148 -1058.14869026 546.07497542 -1064.7265625 551.58203125 Z M-1123.7265625 584.58203125 C-1138.82743592 603.80628964 -1143.2715809 627.75340975 -1141.7265625 651.58203125 C-1140.11195271 663.77881351 -1134.93192452 675.2791557 -1125.7265625 683.58203125 C-1118.29885692 689.06628698 -1110.73049587 689.6706424 -1101.7265625 688.58203125 C-1079.42322815 683.36334256 -1062.29558801 663.48478721 -1048.95703125 646.01953125 C-1047.55508281 643.65189997 -1047.55508281 643.65189997 -1047.59765625 641 C-1049.27784688 637.40125259 -1052.13703182 636.42689616 -1055.6015625 634.89453125 C-1057.05940643 634.2035349 -1058.51640198 633.51074651 -1059.97265625 632.81640625 C-1060.74464355 632.45482422 -1061.51663086 632.09324219 -1062.31201172 631.72070312 C-1081.99102942 622.44032511 -1092.98497218 612.74037369 -1103.859375 593.8984375 C-1104.20540771 593.3096582 -1104.55144043 592.72087891 -1104.90795898 592.11425781 C-1105.85602564 590.49373329 -1106.78227445 588.86050099 -1107.70703125 587.2265625 C-1110.07294437 584.1284519 -1112.12809985 582.99901722 -1115.7265625 581.58203125 C-1118.96541347 581.58203125 -1120.97507008 582.93319684 -1123.7265625 584.58203125 Z M-1629.7265625 665.58203125 C-1630.45746094 666.09942871 -1631.18835937 666.61682617 -1631.94140625 667.14990234 C-1657.10321539 685.06581283 -1688.89732848 708.42002884 -1697.7265625 739.58203125 C-1697.90561815 749.25103623 -1690.49409093 757.5779895 -1684.1875 764.26171875 C-1674.06913253 773.8018938 -1659.63469056 779.21538464 -1645.7265625 779.58203125 C-1644.83839844 779.63230469 -1643.95023438 779.68257812 -1643.03515625 779.734375 C-1586.29348469 781.54605034 -1525.19171387 746.01652362 -1482.7265625 711.58203125 C-1481.82679688 710.87304688 -1480.92703125 710.1640625 -1480 709.43359375 C-1457.31534238 691.32509184 -1445.0894614 674.72316323 -1440.7265625 645.58203125 C-1439.70847118 634.82915664 -1440.92668831 624.946102 -1447.9375 616.3984375 C-1455.9511308 608.26232762 -1465.84653107 605.25073436 -1477.07080078 605.11352539 C-1478.54009033 605.12887329 -1478.54009033 605.12887329 -1480.0390625 605.14453125 C-1481.08304199 605.15282959 -1482.12702148 605.16112793 -1483.20263672 605.16967773 C-1534.70411837 606.26586894 -1588.62626898 636.37636861 -1629.7265625 665.58203125 Z M-2314.7265625 839.58203125 C-2318.69829864 844.76735343 -2320.16091377 848.91455003 -2320.06640625 855.3515625 C-2319.84392404 857.87849027 -2319.84392404 857.87849027 -2317.6640625 860.64453125 C-2313.88165621 863.13930986 -2312.20200389 863.25334746 -2307.7265625 862.58203125 C-2299.10808612 860.142537 -2291.65588015 853.97600773 -2286.7265625 846.58203125 C-2286.56844862 843.52932662 -2286.56844862 843.52932662 -2287.7265625 840.58203125 C-2292.33132605 837.58014722 -2296.42880535 837.14440853 -2301.7890625 837.26953125 C-2302.83030273 837.26469727 -2302.83030273 837.26469727 -2303.89257812 837.25976562 C-2307.91712473 837.30180742 -2311.16935283 837.6511597 -2314.7265625 839.58203125 Z " fill="#2A2723" transform="translate(2975.7265625,1752.41796875)"/>
<path d="M0 0 C7.6875 -0.2265625 7.6875 -0.2265625 10.5 1.8125 C11.36820334 2.84670194 12.19603904 3.91510486 13 5 C13.57032959 5.74813965 14.14065918 6.4962793 14.72827148 7.26708984 C19.86511908 14.17993082 24.31099708 21.32804312 28.5625 28.8125 C29.5381189 30.51575439 29.5381189 30.51575439 30.53344727 32.25341797 C34.9654795 40.04163292 39.20585544 47.88023538 43 56 C42.85578252 52.56243029 42.70955232 49.12494959 42.5625 45.6875 C42.51810791 44.64746826 42.47371582 43.60743652 42.42797852 42.53588867 C42.17690713 36.75242185 41.89783777 30.97206663 41.57128906 25.19238281 C40.5196681 6.48581144 40.5196681 6.48581144 41 2 C41.66 1.34 42.32 0.68 43 0 C45.1640625 0.0234375 45.1640625 0.0234375 47.625 0.375 C48.44226562 0.48585938 49.25953125 0.59671875 50.1015625 0.7109375 C50.72804688 0.80632813 51.35453125 0.90171875 52 1 C53.06864995 19.22460385 54.09453568 37.44024372 54.67114258 55.68823242 C54.91368196 63.20695311 55.31675151 70.69273182 55.9140625 78.19140625 C56 81 56 81 55 84 C51.8125 84.75 51.8125 84.75 48 85 C43.50792538 82.21735327 41.41943428 78.659871 39.1796875 74.0234375 C38.66853142 73.00527954 38.66853142 73.00527954 38.14704895 71.96655273 C37.42142121 70.52018363 36.70067735 69.07135553 35.98446655 67.62030029 C34.12534285 63.85786961 32.2268656 60.1155693 30.32421875 56.375 C29.95196671 55.64243988 29.57971466 54.90987976 29.19618225 54.15512085 C25.27285209 46.48856451 20.90570025 39.13094491 16.1940918 31.92333984 C14.37740398 28.99717615 12.69924219 25.99578024 11 23 C11.00666183 23.73027405 11.01332367 24.4605481 11.02018738 25.21295166 C11.08032603 32.09881101 11.12598842 38.98463106 11.15543652 45.87068558 C11.1710852 49.41081201 11.19230836 52.95072123 11.22631836 56.49072266 C11.26518288 60.56154452 11.27971574 64.63213861 11.29296875 68.703125 C11.30845261 69.97303284 11.32393646 71.24294067 11.33988953 72.55133057 C11.34022942 74.32271393 11.34022942 74.32271393 11.34057617 76.12988281 C11.34723801 77.16912903 11.35389984 78.20837524 11.36076355 79.27911377 C10.9523129 82.35965713 10.06133839 83.72342171 8 86 C5.6568787 85.74438677 3.32156597 85.40729228 1 85 C-0.55879555 81.88240889 -0.12952133 78.57485514 -0.11352539 75.15380859 C-0.11367142 74.34397018 -0.11381744 73.53413177 -0.1139679 72.69975281 C-0.11326977 70.01595404 -0.10548204 67.33222419 -0.09765625 64.6484375 C-0.09579171 62.79041583 -0.09436798 60.93239367 -0.09336853 59.07437134 C-0.08954615 54.17857512 -0.07971823 49.28280845 -0.06866455 44.38702393 C-0.05844444 39.39343669 -0.05386962 34.39984468 -0.04882812 29.40625 C-0.03809573 19.60415366 -0.02102264 9.80207929 0 0 Z " fill="#2A2723" transform="translate(2341,2660)"/>
<path d="M0 0 C4.86593162 4.3607256 8.56372569 11.29169317 9.015625 17.80078125 C9.1684322 28.84110169 9.1684322 28.84110169 5.8125 33.875 C5.2246875 35.050625 5.2246875 35.050625 4.625 36.25 C4.356875 36.78625 4.08875 37.3225 3.8125 37.875 C4.410625 38.535 5.00875 39.195 5.625 39.875 C12.43986649 49.22110261 11.97059207 60.32676049 11.875 71.4375 C11.87048828 72.44619141 11.86597656 73.45488281 11.86132812 74.49414062 C11.84966769 76.95449147 11.83330378 79.41471239 11.8125 81.875 C9.01379973 83.27435013 6.90751208 83.12765405 3.8125 82.875 C1.44982132 81.19850837 0.87895627 80.2156831 0.32006836 77.35058594 C0.26471924 76.36348633 0.20937012 75.37638672 0.15234375 74.359375 C0.08080078 73.27269531 0.00925781 72.18601562 -0.06445312 71.06640625 C-0.12568359 69.93074219 -0.18691406 68.79507813 -0.25 67.625 C-0.11433089 56.59536007 -0.11433089 56.59536007 -4.1875 46.875 C-8.62458284 46.58562503 -12.57488282 47.06278529 -16.9453125 47.88671875 C-17.92902832 48.07065186 -18.91274414 48.25458496 -19.92626953 48.4440918 C-20.67247559 48.5862915 -21.41868164 48.72849121 -22.1875 48.875 C-22.18226318 49.86943115 -22.17702637 50.8638623 -22.17163086 51.88842773 C-22.15357959 55.56533921 -22.14206754 59.24224675 -22.13256836 62.91918945 C-22.12752843 64.51294614 -22.1206965 66.10669819 -22.11206055 67.70043945 C-22.09998001 69.98650253 -22.09426845 72.27250467 -22.08984375 74.55859375 C-22.08468246 75.27526718 -22.07952118 75.99194061 -22.07420349 76.73033142 C-22.07400737 78.44563672 -22.12557993 80.16081266 -22.1875 81.875 C-23.1875 82.875 -23.1875 82.875 -25.25390625 82.97265625 C-26.48947266 82.95525391 -26.48947266 82.95525391 -27.75 82.9375 C-28.98943359 82.92396484 -28.98943359 82.92396484 -30.25390625 82.91015625 C-31.21103516 82.89275391 -31.21103516 82.89275391 -32.1875 82.875 C-33.3845283 79.28391509 -33.37128244 75.97871496 -33.40869141 72.23828125 C-33.4201973 71.4623764 -33.43170319 70.68647156 -33.44355774 69.88705444 C-33.48025973 67.32057654 -33.50989756 64.75407383 -33.5390625 62.1875 C-33.56217799 60.40535128 -33.58556832 58.62320611 -33.60922241 56.84106445 C-33.65767723 53.10533738 -33.70260826 49.36958838 -33.74511719 45.63378906 C-33.79995338 40.84177701 -33.86378752 36.0499345 -33.93029213 31.2580719 C-33.98033209 27.57788295 -34.0254708 23.89764636 -34.06913376 20.21737671 C-34.09071837 18.45028733 -34.11386857 16.68321636 -34.1385994 14.91616821 C-34.17243381 12.44804675 -34.19964499 9.97993895 -34.22509766 7.51171875 C-34.23647263 6.77915863 -34.2478476 6.04659851 -34.25956726 5.2918396 C-34.28532439 2.19361216 -34.17599874 -0.15950377 -33.1875 -3.125 C-10.12840909 -6.75227273 -10.12840909 -6.75227273 0 0 Z M-22.1875 6.875 C-22.39022358 16.89855489 -21.76789956 26.87347189 -21.1875 36.875 C-19.75531905 36.58259875 -18.32460249 36.28301958 -16.89453125 35.98046875 C-16.09764893 35.81442139 -15.3007666 35.64837402 -14.47973633 35.47729492 C-9.72314809 34.22748097 -6.47819912 31.69628239 -3.75 27.6875 C-1.53504339 23.36879799 -1.87729966 19.45652856 -3.1875 14.875 C-5.23254738 11.06698074 -7.29115612 7.878834 -11.1875 5.875 C-15.1131425 5.59459696 -18.41430461 5.84895564 -22.1875 6.875 Z " fill="#2A2723" transform="translate(2102.1875,2663.125)"/>
<path d="M0 0 C6.875 1.875 6.875 1.875 8 3 C8.33694854 7.48996019 7.66520097 10.44693357 5.734375 14.484375 C5.01701172 16.01191406 5.01701172 16.01191406 4.28515625 17.5703125 C3.77855469 18.61960937 3.27195312 19.66890625 2.75 20.75 C0.81427081 24.82468455 -1.10247578 28.9073868 -3 33 C-3.44359863 33.9278833 -3.88719727 34.8557666 -4.34423828 35.81176758 C-6.67479 40.68625429 -6.67479 40.68625429 -6.2109375 45.85546875 C-5.60507813 46.62503906 -4.99921875 47.39460938 -4.375 48.1875 C-3.70210937 49.09886719 -3.02921875 50.01023437 -2.3359375 50.94921875 C-1.56507812 51.95597656 -0.79421875 52.96273437 0 54 C1.70210982 56.47672676 3.34825128 58.9895063 5 61.5 C5.8535562 62.77645009 6.7077161 64.05249672 7.5625 65.328125 C10.31355445 69.45470667 12.98051509 73.63254798 15.625 77.828125 C16.72613755 79.56742182 17.85811797 81.28717696 19 83 C19.25 86.0625 19.25 86.0625 19 89 C17 91 17 91 14.1875 91.375 C10.09566417 90.89360755 8.98794727 89.8479556 6 87 C3.86822188 84.08294631 1.99739175 81.02562527 0.125 77.9375 C-0.92957178 76.23169929 -1.98425883 74.52596983 -3.0390625 72.8203125 C-3.54469727 71.99563477 -4.05033203 71.17095703 -4.57128906 70.32128906 C-6.43244458 67.29738841 -8.33662515 64.30361252 -10.25 61.3125 C-10.79140625 60.46300781 -11.3328125 59.61351563 -11.890625 58.73828125 C-12.25671875 58.16464844 -12.6228125 57.59101563 -13 57 C-17.64887982 65.8824751 -21.80674564 74.51418378 -24.796875 84.109375 C-26.10593697 87.25452388 -27.30966854 88.92431356 -30 91 C-33.625 91 -33.625 91 -37 90 C-38.28833008 88.22094727 -38.28833008 88.22094727 -39 86 C-38.63549805 83.82788086 -38.63549805 83.82788086 -37.76171875 81.46484375 C-37.44001709 80.58175537 -37.11831543 79.69866699 -36.78686523 78.78881836 C-36.24267944 77.37741577 -36.24267944 77.37741577 -35.6875 75.9375 C-35.1462146 74.48259155 -35.1462146 74.48259155 -34.59399414 72.99829102 C-31.7323627 65.47770558 -28.42882176 58.21389354 -24.70776367 51.07983398 C-24.15439331 49.98650757 -24.15439331 49.98650757 -23.58984375 48.87109375 C-23.25847412 48.24130615 -22.92710449 47.61151855 -22.58569336 46.96264648 C-21.53242175 43.43315482 -22.59556498 40.79077182 -24.22753906 37.59985352 C-24.73510742 36.78444092 -25.24267578 35.96902832 -25.765625 35.12890625 C-26.32636719 34.22462891 -26.88710937 33.32035156 -27.46484375 32.38867188 C-28.05394531 31.45603516 -28.64304687 30.52339844 -29.25 29.5625 C-29.82363281 28.63373047 -30.39726563 27.70496094 -30.98828125 26.74804688 C-33.43498832 22.83275822 -35.82575806 19.0648207 -38.90234375 15.61328125 C-41.98365877 11.77454801 -41.40887216 9.74291706 -41 5 C-38.11138291 3.55569145 -36.20352299 3.62311494 -33 4 C-28.42905524 7.86362718 -25.51137299 12.57578414 -22.375 17.625 C-21.42798786 19.14021942 -20.47758629 20.65332692 -19.5234375 22.1640625 C-19.11013184 22.82873535 -18.69682617 23.4934082 -18.27099609 24.17822266 C-16.99702245 26.00426785 -15.62023039 27.47878696 -14 29 C-13.67 27.845 -13.34 26.69 -13 25.5 C-11.40284086 20.68548664 -9.2604434 16.2166066 -7 11.6875 C-6.65582031 10.99398437 -6.31164063 10.30046875 -5.95703125 9.5859375 C-4.21566009 6.14989862 -2.46069243 2.99127924 0 0 Z " fill="#2A2723" transform="translate(1804,2655)"/>
<path d="M0 0 C1.93359375 1.47265625 1.93359375 1.47265625 2.93359375 3.47265625 C2.97381766 5.80564285 2.97679622 8.13972291 2.93359375 10.47265625 C-0.18915113 11.846664 -1.27540984 11.3942799 -4.56640625 10.16015625 C-6.42982516 9.26172213 -8.28762595 8.34130705 -10.06640625 7.28515625 C-13.2647446 5.9858313 -15.65222075 6.06059938 -19.06640625 6.47265625 C-24.08324726 9.65642073 -26.35771276 12.6429961 -28.06640625 18.47265625 C-28.04201728 23.26876866 -28.04201728 23.26876866 -25.484375 27.09375 C-22.26623245 28.92897507 -19.05099976 29.28792063 -15.44140625 29.78515625 C-5.82034308 31.36580614 1.67217377 34.87998882 7.75390625 42.765625 C12.1193116 49.08245327 13.81809698 55.50189428 12.4609375 63.12890625 C10.32942437 70.86292112 7.26206454 76.33740635 0.18359375 80.37109375 C-9.95608878 85.33531332 -21.21239942 86.2953114 -32.06640625 82.97265625 C-38.62789729 80.24755982 -41.56349687 75.75173126 -44.44140625 69.47265625 C-45.24373049 65.6214999 -45.32462165 62.41044105 -45.06640625 58.47265625 C-44.40640625 57.48265625 -43.74640625 56.49265625 -43.06640625 55.47265625 C-39.56640625 55.16015625 -39.56640625 55.16015625 -36.06640625 55.47265625 C-33.24036312 58.29869938 -33.31982843 61.10573529 -32.7265625 64.96484375 C-31.9842216 67.78486067 -31.0459777 69.3452132 -29.06640625 71.47265625 C-22.69387583 73.59683306 -14.67828074 73.65524918 -8.50390625 70.84765625 C-4.34160647 68.33622642 -1.95407903 65.2691156 -0.46875 60.58984375 C0.47513301 55.91624828 -0.40741605 52.6024825 -2.375 48.33203125 C-7.81708202 42.34951152 -16.71633732 41.12107578 -24.26367188 39.49414062 C-30.45864019 38.02103767 -33.50761646 35.81594606 -37.4296875 30.69140625 C-41.11862303 24.0118522 -41.34868332 16.40140873 -39.44140625 9.0703125 C-36.75236675 2.81589473 -31.76841519 -0.86990838 -25.67578125 -3.59765625 C-15.87128821 -7.01997929 -8.63703593 -5.48404621 0 0 Z " fill="#2A2723" transform="translate(2693.06640625,2662.52734375)"/>
<path d="M0 0 C0.04092937 2.33297433 0.04241723 4.66705225 0 7 C-8.62530751 9.75275772 -17.0529913 10.15263497 -26.0625 10.0625 C-30.4865625 10.0315625 -30.4865625 10.0315625 -35 10 C-35 18.58 -35 27.16 -35 36 C-31.33583984 36.09087891 -31.33583984 36.09087891 -27.59765625 36.18359375 C-25.24125937 36.24533798 -22.8849127 36.30874433 -20.52856445 36.37231445 C-18.88635697 36.41572297 -17.24410261 36.45739358 -15.60180664 36.49731445 C-13.24611255 36.5548744 -10.89065572 36.61860892 -8.53515625 36.68359375 C-7.79660904 36.70030624 -7.05806183 36.71701874 -6.2971344 36.73423767 C-1.11387171 36.88612829 -1.11387171 36.88612829 0 38 C0.3125 40.875 0.3125 40.875 0 44 C-2.35854708 46.49551138 -3.77051792 46.97563718 -7.20800781 47.34057617 C-8.44389648 47.32486572 -9.67978516 47.30915527 -10.953125 47.29296875 C-11.94345734 47.28660149 -11.94345734 47.28660149 -12.95379639 47.28010559 C-15.05295391 47.26337435 -17.15113496 47.22573551 -19.25 47.1875 C-20.67706942 47.17244584 -22.10415396 47.15875871 -23.53125 47.14648438 C-27.02114817 47.11349001 -30.5104787 47.06174743 -34 47 C-34.99455909 49.98367726 -35.19559632 52.2004192 -35.31640625 55.32421875 C-35.35830078 56.35224609 -35.40019531 57.38027344 -35.44335938 58.43945312 C-35.48267578 59.51130859 -35.52199219 60.58316406 -35.5625 61.6875 C-35.60568359 62.77095703 -35.64886719 63.85441406 -35.69335938 64.97070312 C-35.79946838 67.64700791 -35.90152361 70.32340526 -36 73 C-35.25951416 72.96447021 -34.51902832 72.92894043 -33.75610352 72.89233398 C-30.35853139 72.73344994 -26.96056725 72.58540083 -23.5625 72.4375 C-22.39783203 72.38142578 -21.23316406 72.32535156 -20.03320312 72.26757812 C-13.55270412 71.99375422 -7.41454357 71.98149729 -1 73 C0 74 0 74 0.1875 76.9375 C0 80 0 80 -2 82 C-4.84604901 82.93622021 -7.58074603 83.17671329 -10.5625 83.31640625 C-11.43640381 83.35854248 -12.31030762 83.40067871 -13.21069336 83.4440918 C-14.59140015 83.50270386 -14.59140015 83.50270386 -16 83.5625 C-16.94174072 83.6035083 -17.88348145 83.6445166 -18.85375977 83.68676758 C-40.33263421 84.57933373 -40.33263421 84.57933373 -45 82 C-46.76004559 78.49962577 -47.24910299 75.63879992 -47.24291992 71.74853516 C-47.24599655 70.72200836 -47.24907318 69.69548157 -47.25224304 68.6378479 C-47.24505753 67.53274872 -47.23787201 66.42764954 -47.23046875 65.2890625 C-47.23001053 64.12990326 -47.22955231 62.97074402 -47.2290802 61.77645874 C-47.22605814 59.31352724 -47.21817322 56.85059764 -47.20581055 54.38769531 C-47.18787032 50.70109916 -47.18529898 47.0147597 -47.18554688 43.328125 C-47.16274014 28.52917397 -46.79211234 13.77784155 -46 -1 C-40.71659769 -1.16843638 -35.43303388 -1.32890388 -30.14916992 -1.48217773 C-28.35385725 -1.53535662 -26.55860629 -1.59066504 -24.76342773 -1.64819336 C-22.17445172 -1.73078205 -19.58534623 -1.8055631 -16.99609375 -1.87890625 C-16.20101913 -1.90594131 -15.40594452 -1.93297638 -14.58677673 -1.96083069 C-2.28598298 -2.28598298 -2.28598298 -2.28598298 0 0 Z " fill="#2A2723" transform="translate(1716,2662)"/>
<path d="M0 0 C0.04092937 2.33297433 0.04241723 4.66705225 0 7 C-8.62530751 9.75275772 -17.0529913 10.15263497 -26.0625 10.0625 C-30.4865625 10.0315625 -30.4865625 10.0315625 -35 10 C-35 18.58 -35 27.16 -35 36 C-31.33583984 36.09087891 -31.33583984 36.09087891 -27.59765625 36.18359375 C-25.24125937 36.24533798 -22.8849127 36.30874433 -20.52856445 36.37231445 C-18.88635697 36.41572297 -17.24410261 36.45739358 -15.60180664 36.49731445 C-13.24611255 36.5548744 -10.89065572 36.61860892 -8.53515625 36.68359375 C-7.79660904 36.70030624 -7.05806183 36.71701874 -6.2971344 36.73423767 C-1.11387171 36.88612829 -1.11387171 36.88612829 0 38 C0.3125 40.875 0.3125 40.875 0 44 C-2.35854708 46.49551138 -3.77051792 46.97563718 -7.20800781 47.34057617 C-8.44389648 47.32486572 -9.67978516 47.30915527 -10.953125 47.29296875 C-11.94345734 47.28660149 -11.94345734 47.28660149 -12.95379639 47.28010559 C-15.05295391 47.26337435 -17.15113496 47.22573551 -19.25 47.1875 C-20.67706942 47.17244584 -22.10415396 47.15875871 -23.53125 47.14648438 C-27.02114817 47.11349001 -30.5104787 47.06174743 -34 47 C-34.99455909 49.98367726 -35.19559632 52.2004192 -35.31640625 55.32421875 C-35.35830078 56.35224609 -35.40019531 57.38027344 -35.44335938 58.43945312 C-35.48267578 59.51130859 -35.52199219 60.58316406 -35.5625 61.6875 C-35.60568359 62.77095703 -35.64886719 63.85441406 -35.69335938 64.97070312 C-35.79946838 67.64700791 -35.90152361 70.32340526 -36 73 C-35.25951416 72.96447021 -34.51902832 72.92894043 -33.75610352 72.89233398 C-30.35853139 72.73344994 -26.96056725 72.58540083 -23.5625 72.4375 C-22.39783203 72.38142578 -21.23316406 72.32535156 -20.03320312 72.26757812 C-13.55270412 71.99375422 -7.41454357 71.98149729 -1 73 C0 74 0 74 0.1875 76.9375 C0 80 0 80 -2 82 C-4.84604901 82.93622021 -7.58074603 83.17671329 -10.5625 83.31640625 C-11.43640381 83.35854248 -12.31030762 83.40067871 -13.21069336 83.4440918 C-14.59140015 83.50270386 -14.59140015 83.50270386 -16 83.5625 C-16.94174072 83.6035083 -17.88348145 83.6445166 -18.85375977 83.68676758 C-40.33263421 84.57933373 -40.33263421 84.57933373 -45 82 C-46.71407067 78.5707047 -47.24926741 75.77244857 -47.24291992 71.96386719 C-47.24753487 70.49382233 -47.24753487 70.49382233 -47.25224304 68.99407959 C-47.24505753 67.93900208 -47.23787201 66.88392456 -47.23046875 65.796875 C-47.23001053 64.6868512 -47.22955231 63.57682739 -47.2290802 62.4331665 C-47.22605798 60.07278379 -47.21817261 57.71240306 -47.20581055 55.35205078 C-47.18791826 51.83228021 -47.18529869 48.31277939 -47.18554688 44.79296875 C-47.16094746 29.50906726 -46.73114266 14.26594734 -46 -1 C-40.71659769 -1.16843638 -35.43303388 -1.32890388 -30.14916992 -1.48217773 C-28.35385725 -1.53535662 -26.55860629 -1.59066504 -24.76342773 -1.64819336 C-22.17445172 -1.73078205 -19.58534623 -1.8055631 -16.99609375 -1.87890625 C-16.20101913 -1.90594131 -15.40594452 -1.93297638 -14.58677673 -1.96083069 C-2.28598298 -2.28598298 -2.28598298 -2.28598298 0 0 Z " fill="#2A2723" transform="translate(2016,2662)"/>
<path d="M0 0 C0.125 2.625 0.125 2.625 0 5 C-8.45285563 9.13650382 -16.78143207 9.1561027 -26.0625 9.0625 C-26.92810547 9.05798828 -27.79371094 9.05347656 -28.68554688 9.04882812 C-30.79039539 9.03719913 -32.89520758 9.01927073 -35 9 C-34.98839844 9.95519531 -34.97679688 10.91039063 -34.96484375 11.89453125 C-34.95130859 13.83392578 -34.95130859 13.83392578 -34.9375 15.8125 C-34.92589844 17.07707031 -34.91429688 18.34164062 -34.90234375 19.64453125 C-34.94047983 24.78798071 -35.47731431 29.88687287 -36 35 C-34.47076904 35.03758423 -34.47076904 35.03758423 -32.91064453 35.07592773 C-29.13479646 35.16997004 -25.35913373 35.27019837 -21.58349609 35.37231445 C-19.94812347 35.41567538 -18.31270523 35.45734961 -16.67724609 35.49731445 C-14.32896159 35.55498912 -11.98090696 35.61869129 -9.6328125 35.68359375 C-8.89942657 35.70030624 -8.16604065 35.71701874 -7.41043091 35.73423767 C-2.22774341 35.88612829 -2.22774341 35.88612829 0 37 C-0.3125 40.375 -0.3125 40.375 -1 44 C-4.72540662 46.48360441 -6.63062973 46.2315867 -11.07421875 46.1953125 C-11.7580513 46.1924826 -12.44188385 46.18965271 -13.1464386 46.18673706 C-15.32697165 46.17555684 -17.50709145 46.15045691 -19.6875 46.125 C-21.16731177 46.11496738 -22.64712999 46.10584202 -24.12695312 46.09765625 C-27.75158874 46.07732739 -31.3753327 46.03817672 -35 46 C-35.33 54.58 -35.66 63.16 -36 72 C-28.2225044 71.63394696 -28.2225044 71.63394696 -20.44580078 71.25170898 C-13.85813135 70.964939 -7.53686353 71.11331653 -1 72 C-0.3125 74.8125 -0.3125 74.8125 0 78 C-1.78779658 80.59230504 -2.96002815 80.98667605 -6 82 C-7.55779666 82.14741836 -9.12036275 82.24733078 -10.68359375 82.31640625 C-11.60591797 82.35854248 -12.52824219 82.40067871 -13.47851562 82.4440918 C-14.94321289 82.50270386 -14.94321289 82.50270386 -16.4375 82.5625 C-17.43072266 82.6035083 -18.42394531 82.6445166 -19.44726562 82.68676758 C-40.34786287 83.51206095 -40.34786287 83.51206095 -46 81 C-47.76365923 72.34529408 -48.22679628 64.15853711 -48.01171875 55.34375 C-47.98906448 54.0796228 -47.96641022 52.81549561 -47.94306946 51.51306152 C-47.89341889 48.85724303 -47.839756 46.20192202 -47.77856445 43.54638672 C-47.70105827 40.17832624 -47.63658167 36.81018375 -47.57690716 33.44176483 C-47.51837969 30.17982796 -47.45257884 26.9180459 -47.38671875 23.65625 C-47.36373215 22.4652771 -47.34074554 21.2743042 -47.31706238 20.04724121 C-47.14635898 12.66587384 -46.70299668 5.34985774 -46 -2 C-40.6982815 -2.16822981 -35.39640502 -2.32872181 -30.09423828 -2.48217773 C-28.29209151 -2.53541048 -26.49000492 -2.59072399 -24.68798828 -2.64819336 C-22.0916033 -2.73062966 -19.49509098 -2.8054781 -16.8984375 -2.87890625 C-15.69808365 -2.91945885 -15.69808365 -2.91945885 -14.47348022 -2.96083069 C-3.25728388 -3.25728388 -3.25728388 -3.25728388 0 0 Z " fill="#2A2723" transform="translate(2287,2663)"/>
<path d="M0 0 C2 3 2 3 1.625 5.6875 C1.41875 6.450625 1.2125 7.21375 1 8 C-9.70763971 12.22669989 -21.71407888 11.08422329 -33 11 C-33.33 19.58 -33.66 28.16 -34 37 C-22.78 37.33 -11.56 37.66 0 38 C0.66 39.32 1.32 40.64 2 42 C0.87755007 44.29834986 -0.18477881 46.18477881 -2 48 C-4.29151417 48.08790975 -6.58572524 48.10694038 -8.87890625 48.09765625 C-9.90889992 48.09553383 -9.90889992 48.09553383 -10.95970154 48.09336853 C-13.16067801 48.08775479 -15.36155409 48.07520007 -17.5625 48.0625 C-19.05143083 48.05748676 -20.54036324 48.05292355 -22.02929688 48.04882812 C-25.68626805 48.03863021 -29.34302117 48.01905779 -33 48 C-33.33 56.58 -33.66 65.16 -34 74 C-26.17747686 73.6336616 -26.17747686 73.6336616 -18.35571289 73.25170898 C-12.09480338 72.97984902 -6.205564 73.11161067 0 74 C1.1875 76.25 1.1875 76.25 2 79 C0.3358761 82.15307687 -0.57552315 82.85850772 -4 84 C-5.55779666 84.14741836 -7.12036275 84.24733078 -8.68359375 84.31640625 C-9.60591797 84.35854248 -10.52824219 84.40067871 -11.47851562 84.4440918 C-12.94321289 84.50270386 -12.94321289 84.50270386 -14.4375 84.5625 C-15.43072266 84.6035083 -16.42394531 84.6445166 -17.44726562 84.68676758 C-39.92402766 85.57429832 -39.92402766 85.57429832 -44 83 C-46.81814941 75.35185064 -46.17455839 67.36081752 -46.01171875 59.3359375 C-45.98804059 57.8147603 -45.96517122 56.29357031 -45.94306946 54.77236938 C-45.89474756 51.59679584 -45.8394369 48.42145108 -45.77856445 45.24609375 C-45.70091785 41.18676582 -45.63656349 37.12736757 -45.57690716 33.06773949 C-45.53007253 29.93119682 -45.47834454 26.79475081 -45.42493629 23.65831375 C-45.39962629 22.16168499 -45.3753194 20.6650389 -45.3520565 19.16837692 C-45.31835263 17.07486446 -45.2785851 14.98155376 -45.23706055 12.88818359 C-45.21548386 11.69985931 -45.19390717 10.51153503 -45.17167664 9.28720093 C-45.00627646 6.12017927 -44.5879451 3.11370342 -44 0 C-38.85901976 -0.16847531 -33.71787298 -0.32893801 -28.57641602 -0.48217773 C-26.82960383 -0.5353465 -25.08285532 -0.59065394 -23.33618164 -0.64819336 C-20.81670863 -0.73081081 -18.29710224 -0.80557899 -15.77734375 -0.87890625 C-14.6175425 -0.91945885 -14.6175425 -0.91945885 -13.43431091 -0.96083069 C-8.85689543 -1.08510004 -4.49541956 -1.01567015 0 0 Z " fill="#2A2723" transform="translate(2596,2661)"/>
<path d="M0 0 C3.62456014 -0.14728458 7.24833521 -0.23472226 10.875 -0.3125 C11.88820313 -0.35439453 12.90140625 -0.39628906 13.9453125 -0.43945312 C22.80753674 -0.58147595 29.26047031 2.02097227 36.3125 7.3125 C42.86228945 13.86228945 45.97068345 21.02626171 46.375 30.3125 C46.22684936 38.00575121 43.5906648 45.56463144 38 51 C29.71337359 57.08160136 23.57263014 58.03885181 13 59 C13 67.58 13 76.16 13 85 C6 86 6 86 3.60717773 84.54418945 C1.46595845 81.15460323 1.34752198 78.18955353 1.28515625 74.29296875 C1.25736588 73.48087448 1.2295755 72.66878021 1.20094299 71.83207703 C1.10981686 68.88820374 1.05349701 65.94479531 1 63 C0.97427917 61.81134338 0.94855835 60.62268677 0.92205811 59.39801025 C0.72972845 50.42948657 0.59049339 41.46067934 0.46777344 32.4909668 C0.41670647 28.81620443 0.36147441 25.14150462 0.30664062 21.46679688 C0.20045597 14.3112525 0.09872691 7.15565149 0 0 Z M13 10 C11.59374449 11.17829585 11.59374449 11.17829585 11.88647461 14.51000977 C11.88663374 16.07048422 11.89232858 17.63096393 11.90234375 19.19140625 C11.9037587 20.01124496 11.90517365 20.83108368 11.90663147 21.67576599 C11.91224711 24.30471382 11.92480221 26.93357773 11.9375 29.5625 C11.94251299 31.34049357 11.94707624 33.11848846 11.95117188 34.89648438 C11.96222161 39.26435545 11.97949669 43.63216348 12 48 C13.44920368 47.85221581 14.89802776 47.70070567 16.34667969 47.54760742 C17.1535321 47.46363205 17.96038452 47.37965668 18.79168701 47.2931366 C24.15567071 46.58110894 28.41877013 43.99059286 31.9375 39.9375 C35.04334535 35.51402328 35.5086592 32.3409216 35 27 C32.783292 20.16605144 29.54674676 15.72589758 23.35546875 12.0546875 C19.79805116 10.46181395 16.89323441 10.06952204 13 10 Z " fill="#2A2723" transform="translate(1872,2660)"/>
<path d="M0 0 C2.37496993 2.64819656 2.96599702 3.56646195 3.25 7.1875 C3 10 3 10 2 11 C-1.1875 11.375 -1.1875 11.375 -5 11 C-5.969375 10.175 -6.93875 9.35 -7.9375 8.5 C-11.28323695 5.76878616 -12.77979245 5.09735147 -16.98046875 5.39453125 C-21.86873765 6.86006641 -24.80369508 10.9129883 -27.25390625 15.1875 C-33.78456873 29.06817008 -35.13629603 46.8088117 -30.18359375 61.40625 C-27.79821502 66.75588598 -24.39916505 70.35524272 -19.0625 72.9375 C-15.63024985 73.04150758 -13.17159927 72.30262113 -10 71 C-7.59478763 68.06057006 -7.59478763 68.06057006 -6 65 C-5 64 -5 64 -2.0625 63.8125 C1 64 1 64 3 66 C2.90267958 70.96334139 1.72748111 74.56930053 -1.30078125 78.421875 C-6.07266549 82.85369392 -12.27559003 84.22739225 -18.625 84.5625 C-24.23741309 84.29411456 -27.91196168 82.86277906 -32 79 C-44.30830711 64.9809715 -44.87140863 49.8688851 -44 32 C-42.89560593 18.85162333 -37.85185792 6.79324599 -29 -3 C-20.15120783 -8.89919478 -8.22752316 -5.69479681 0 0 Z " fill="#2A2723" transform="translate(2494,2663)"/>
<path d="M0 0 C4.37899752 -0.26230268 6.10856593 -0.16277003 9.78515625 2.484375 C11.66015625 5.234375 11.66015625 5.234375 11.47265625 7.546875 C11.20453125 8.10375 10.93640625 8.660625 10.66015625 9.234375 C9.01015625 9.564375 7.36015625 9.894375 5.66015625 10.234375 C5.66015625 31.354375 5.66015625 52.474375 5.66015625 74.234375 C7.64015625 74.234375 9.62015625 74.234375 11.66015625 74.234375 C13.66015625 77.234375 13.66015625 77.234375 13.53515625 79.796875 C12.66015625 82.234375 12.66015625 82.234375 11.1015625 83.3046875 C7.71485188 84.5943469 4.29450688 85.08126457 0.72265625 85.546875 C0.01947266 85.65837891 -0.68371094 85.76988281 -1.40820312 85.88476562 C-4.99421439 86.3586434 -7.05562915 86.37223202 -10.34375 84.77734375 C-11.00246094 84.26816406 -11.66117188 83.75898438 -12.33984375 83.234375 C-12.00984375 81.254375 -11.67984375 79.274375 -11.33984375 77.234375 C-8.36984375 76.739375 -8.36984375 76.739375 -5.33984375 76.234375 C-5.33984375 54.784375 -5.33984375 33.334375 -5.33984375 11.234375 C-7.64984375 11.234375 -9.95984375 11.234375 -12.33984375 11.234375 C-14.27734375 10.046875 -14.27734375 10.046875 -15.33984375 8.234375 C-15.52734375 5.546875 -15.52734375 5.546875 -15.33984375 3.234375 C-10.34230582 0.8917791 -5.39303791 0.54020413 0 0 Z " fill="#2A2723" transform="translate(2177.33984375,2660.765625)"/>
</svg>
