<?xml version="1.0" encoding="UTF-8"?>
<svg version="1.1" xmlns="http://www.w3.org/2000/svg" width="4500" height="4500">
<path d="M0 0 C10.47453351 6.31934666 14.83272724 15.78255263 19.75 26.5 C20.245 27.49 20.245 27.49 20.75 28.5 C21.36962505 37.90479497 20.2656961 47.10048142 18.8125 56.375 C18.70463165 57.07463867 18.59676331 57.77427734 18.48562622 58.49511719 C6.65582367 134.3143119 -21.24850883 208.6547847 -52.25 278.5 C-53.01207764 280.22597412 -53.01207764 280.22597412 -53.78955078 281.98681641 C-57.55939107 290.51441518 -61.38737128 299.01411239 -65.25 307.5 C-65.77223145 308.65032715 -66.29446289 309.8006543 -66.83251953 310.98583984 C-80.68865143 341.40414487 -95.34259045 371.64816104 -111.73486328 400.78613281 C-113.51109451 403.9676646 -115.25466575 407.16653877 -116.99609375 410.3671875 C-125.11052436 425.25745295 -133.50874171 439.93018257 -142.35693359 454.40087891 C-144.28499068 457.55728292 -146.1995842 460.72159176 -148.11328125 463.88671875 C-157.11259596 478.70826488 -166.5400622 493.19634186 -176.25976562 507.55078125 C-178.02721292 510.16986409 -179.77565911 512.80012421 -181.515625 515.4375 C-185.29907562 521.12643742 -188.94795593 526.45376327 -194 531.125 C-203.22976735 539.77479992 -207.12625415 552.22987526 -207.625 564.5625 C-207.22091189 583.89138124 -198.51039872 601.91835539 -186.25 616.5 C-185.55261719 617.35980469 -184.85523437 618.21960937 -184.13671875 619.10546875 C-169.94182335 635.84350812 -150.35241105 646.38921234 -128.375 648.25 C-126.00092428 648.35646079 -123.62567399 648.43882385 -121.25 648.5 C-119.94546875 648.5515625 -118.6409375 648.603125 -117.296875 648.65625 C-71.72319176 649.96745116 -33.36966069 625.57765072 -0.8477478 595.8621521 C0.76009009 594.40013271 2.37557477 592.94641628 4.00302124 591.5062561 C10.2280027 585.99164127 16.15374281 580.21843387 22.00777054 574.31739426 C23.64652517 572.66561755 25.28860969 571.01721207 26.93148804 569.36953735 C30.41552314 565.87420383 33.89556547 562.37491242 37.375 558.875 C41.42047197 554.80577142 45.46764865 550.73826747 49.51908493 546.67497635 C51.12294695 545.06471705 52.72372606 543.45143804 54.32437134 541.83798218 C59.10718073 537.03134618 63.92057162 532.31882753 69.09031677 527.92596436 C70.77762458 526.47626555 72.39151868 524.97006329 73.99609375 523.4296875 C101.55245279 496.98740922 136.44089168 473.26010933 175.75 471.5 C176.85472656 471.44714844 177.95945312 471.39429687 179.09765625 471.33984375 C200.66906713 470.80921011 223.14874939 475.47321462 239.40209961 490.56469727 C244.78940615 495.82008376 249.03931696 501.4414345 252.80932617 507.95532227 C254.79291845 511.33404273 256.07918575 513.11970235 259.75 514.5 C262.5958354 514.86499083 262.5958354 514.86499083 265.78857422 514.91064453 C267.04268097 514.95051483 268.29678772 514.99038513 269.58889771 515.03146362 C270.99414878 515.06575008 272.39941272 515.09951177 273.8046875 515.1328125 C275.31421032 515.17456351 276.82372136 515.21674253 278.33322144 515.25930786 C282.5370175 515.3735803 286.74104991 515.47191998 290.94535828 515.56526184 C293.63277391 515.62517331 296.32010717 515.68810075 299.00744629 515.75134277 C334.94451396 516.58083515 370.88602239 516.71831473 406.8310324 516.74422681 C411.24502971 516.74748328 415.65901192 516.75334561 420.07300258 516.76164782 C452.67395585 516.82227213 485.20963811 516.74149516 517.75 514.5 C518.88638916 514.42438843 520.02277832 514.34877686 521.19360352 514.27087402 C527.51207117 513.8428646 533.81905473 513.33296902 540.125 512.75 C541.03482635 512.66763092 541.94465271 512.58526184 542.88204956 512.50039673 C641.73131747 503.45813781 742.71375499 478.31855417 836.609375 401.45703125 C838.53771843 399.69407494 840.5062799 398.00046051 842.5 396.3125 C852.59173006 387.51563551 861.92799618 377.71722128 870.328125 367.3046875 C876.03161062 360.30267121 880.85336347 354.46554551 889.75 351.5 C899.65358536 350.66327049 907.02213867 351.84973485 915.0625 357.75 C920.10031159 362.90497 922.17059449 367.83864189 922.28125 375.03125 C920.73968966 382.1949716 916.23508819 387.81350755 911.625 393.3125 C911.05313965 394.00537109 910.4812793 394.69824219 909.89208984 395.41210938 C905.70621364 400.44869753 901.3830934 405.33472357 896.9296875 410.13671875 C895.06580659 412.15759322 893.27548793 414.2145976 891.5 416.3125 C883.63916215 425.34966276 874.90488947 433.78800072 865.75 441.5 C864.7382917 442.38524476 863.72800865 443.27211968 862.71875 444.16015625 C840.75790952 463.39726976 816.37619074 479.56860193 790.75 493.5 C789.86054688 493.98919922 788.97109375 494.47839844 788.0546875 494.98242188 C709.39454604 538.06621731 617.86747383 555.06835683 401.69921875 565.625 C400.5867324 565.6236701 399.47424605 565.62234021 398.32804799 565.62097001 C381.03114945 565.59875579 363.73433387 565.5508107 346.4375 565.5 C331.18863201 565.45563076 315.93978721 565.41484841 300.69086772 565.39316368 C294.12618334 565.38324279 287.56162373 565.36360808 280.99698961 565.33630371 C276.95319608 565.32142989 272.90941969 565.31476472 268.86560249 565.3103714 C266.99181977 565.30662057 265.11804036 565.29940518 263.24428558 565.28850555 C260.69347213 565.27412548 258.14293376 565.27199545 255.59208679 565.27294922 C254.84886553 565.2657593 254.10564427 565.25856937 253.33990115 565.25116158 C249.65496608 565.26598219 246.83808008 565.38240051 243.75 567.5 C242.05128017 569.42720698 242.05128017 569.42720698 240.5 571.6875 C232.48951053 582.25524932 221.81499933 589.45636863 208.46875 591.31640625 C196.68276464 592.11229894 186.86611645 588.96570893 177.78515625 581.40625 C170.37923913 574.46942168 165.67982707 565.66015784 165.3125 555.375 C165.62756584 548.74811525 167.33077386 543.11340919 171.4375 537.875 C173.43281059 535.25501771 173.78009619 534.32544207 174.375 530.875 C173.93945207 527.41523462 173.93945207 527.41523462 171.9375 524.5 C167.91045803 521.97322857 165.84968227 521.9969847 161.22265625 522.67578125 C130.95804694 529.85894499 108.37909359 550.56630704 88.48730469 573.51098633 C79.73978545 583.52588785 70.36126618 593.00191154 61 602.4375 C59.72455322 603.73240356 59.72455322 603.73240356 58.42333984 605.0534668 C52.51557574 610.96977307 46.29729666 616.30592253 39.75 621.5 C38.59291176 622.44167929 37.43651534 623.38421025 36.28125 624.328125 C26.78844281 631.91258435 16.85914912 638.76574802 6.75 645.5 C6.11562012 645.92555176 5.48124023 646.35110352 4.82763672 646.78955078 C-39.87035467 676.68279757 -95.66135153 695.39024505 -149.65576172 685.04345703 C-188.0112632 677.00851008 -218.15209209 655.38364934 -239.77294922 622.82177734 C-243.1752877 617.47363867 -246.20030018 611.91359663 -249.19140625 606.328125 C-251.81435912 600.55998092 -251.81435912 600.55998092 -256.25 596.5 C-259.60887596 595.96257985 -262.1039348 595.78032035 -265.06640625 597.640625 C-267.2334819 599.50458151 -269.24030218 601.46641783 -271.25 603.5 C-272.21436145 604.46402438 -273.17923738 605.42753428 -274.14453125 606.390625 C-275.70715758 607.95325133 -277.26762602 609.51780115 -278.82250977 611.08813477 C-282.1863074 614.47745197 -285.63229874 617.70350903 -289.26953125 620.80078125 C-291.57669952 622.78030432 -293.81646782 624.8264212 -296.0625 626.875 C-300.3044085 630.69914478 -304.65551097 634.34889455 -309.09765625 637.9375 C-311.43859881 639.83020913 -313.75249212 641.75250175 -316.05859375 643.6875 C-326.47780391 652.40621993 -337.21499639 660.57755189 -348.25 668.5 C-348.99314453 669.03399414 -349.73628906 669.56798828 -350.50195312 670.11816406 C-355.38949408 673.62010667 -360.30520668 677.07939513 -365.25 680.5 C-365.86762207 680.92732422 -366.48524414 681.35464844 -367.12158203 681.79492188 C-407.11713434 709.30997315 -462.11211094 744.10797777 -513.0703125 735.22265625 C-524.1872187 732.69608666 -533.54114526 728.04224444 -541.25 719.5 C-541.95382812 718.78457031 -541.95382812 718.78457031 -542.671875 718.0546875 C-553.602987 706.3910783 -558.1263171 688.79429036 -559.59765625 673.234375 C-560.44465923 669.68406309 -561.57018074 667.98180306 -564.25 665.5 C-567.91725982 664.04541503 -570.16219774 664.05250736 -573.81738281 665.55615234 C-576.90353043 667.16804248 -579.88710272 668.90006857 -582.875 670.6875 C-583.98020996 671.3273584 -585.08541992 671.9672168 -586.22412109 672.62646484 C-589.57535656 674.5688823 -592.91277551 676.5336372 -596.25 678.5 C-599.78498759 680.55337621 -603.32798378 682.59248229 -606.875 684.625 C-607.71877197 685.10904297 -608.56254395 685.59308594 -609.43188477 686.09179688 C-631.60831747 698.73878384 -654.43106928 710.98109497 -679.25 717.5 C-679.95519775 717.69505127 -680.66039551 717.89010254 -681.38696289 718.09106445 C-689.16753992 719.96563139 -697.03298108 719.83716884 -704.98852539 719.81567383 C-707.41534022 719.81252872 -709.84091446 719.83598631 -712.26757812 719.86132812 C-729.5096876 719.93367801 -747.67416253 717.70933013 -760.80078125 705.2109375 C-771.78318783 692.24518525 -773.47641 677.36319319 -773.5 661.0625 C-773.50233643 660.33023193 -773.50467285 659.59796387 -773.50708008 658.84350586 C-773.52073214 647.47630474 -772.72147804 636.4873826 -770.90625 625.25 C-769.40042876 616.41875444 -769.40042876 616.41875444 -772.375 608.4375 C-775.79821236 606.13055254 -777.1995518 606.15160481 -781.25 606.5 C-783.86540492 607.44597693 -783.86540492 607.44597693 -786.3984375 608.88671875 C-787.38674561 609.40645264 -788.37505371 609.92618652 -789.39331055 610.46166992 C-790.45976807 611.03119385 -791.52622559 611.60071777 -792.625 612.1875 C-843.1495669 638.21965768 -900.94139465 655.24252456 -957.96875 655.73828125 C-958.93860336 655.74718887 -959.90845673 655.7560965 -960.90769958 655.76527405 C-964.87201936 655.79471741 -968.83585885 655.81462183 -972.80029297 655.80541992 C-975.75286285 655.80281123 -978.70388733 655.83075324 -981.65625 655.86328125 C-982.5488855 655.85307449 -983.441521 655.84286774 -984.36120605 655.83235168 C-988.81934967 655.90295028 -990.65211819 656.0193269 -994.23388672 658.89892578 C-994.8992041 659.75728027 -995.56452148 660.61563477 -996.25 661.5 C-996.86101562 662.24378906 -997.47203125 662.98757813 -998.1015625 663.75390625 C-998.97941406 664.89666016 -998.97941406 664.89666016 -999.875 666.0625 C-1007.81997716 676.07943181 -1016.1126031 684.68287923 -1026.25 692.5 C-1027.76207031 693.71816406 -1027.76207031 693.71816406 -1029.3046875 694.9609375 C-1056.64503091 716.8450369 -1092.38880403 732.87668499 -1127.97265625 729.10546875 C-1143.34644541 726.59975127 -1156.51462734 719.81984455 -1166.25 707.5 C-1172.75137685 698.19476475 -1176.42352176 688.43972955 -1179.25 677.5 C-1179.49621094 676.55640625 -1179.74242187 675.6128125 -1179.99609375 674.640625 C-1182.89818687 661.43109771 -1181.29372603 647.42713475 -1179.78613281 634.13793945 C-1179.00685076 626.41955201 -1178.69930303 618.13281083 -1183.3125 611.5625 C-1191.18580225 606.03443671 -1199.87613229 604.29382246 -1209.1678772 602.55084229 C-1211.49571261 602.11407775 -1213.82061605 601.6638567 -1216.14526367 601.21044922 C-1220.10516859 600.43995109 -1224.06698735 599.67993205 -1228.02966309 598.92382812 C-1247.09474091 595.28459836 -1266.00424831 591.26037346 -1284.85864258 586.65869141 C-1317.55425194 577.65524353 -1317.55425194 577.65524353 -1350.25 581.5 C-1352.83330497 583.91108464 -1353.22763979 585.32028245 -1353.66796875 588.859375 C-1353.18011757 593.10869559 -1351.95475013 595.23016432 -1349.5625 598.75 C-1337.99492235 616.452402 -1333.63383207 636.04945961 -1337.375 657 C-1347.40229285 701.72638998 -1386.59299633 733.11204954 -1423.17822266 756.74560547 C-1427.46406443 759.4573445 -1431.83784466 762.00027383 -1436.25 764.5 C-1437.49499268 765.2105957 -1437.49499268 765.2105957 -1438.76513672 765.93554688 C-1480.64570977 789.6875901 -1526.02449917 806.24529785 -1573.25 815.4375 C-1573.98900543 815.58152252 -1574.72801086 815.72554504 -1575.4894104 815.87393188 C-1617.72286117 824.00917759 -1669.75947936 828.58247014 -1708.125 805.125 C-1722.90606413 795.06687944 -1732.66277274 782.14619308 -1736.95703125 764.61328125 C-1737.80856125 760.12283886 -1738.26891583 755.70867108 -1738.41015625 751.14453125 C-1738.43754883 750.38688477 -1738.46494141 749.62923828 -1738.49316406 748.84863281 C-1738.53838465 747.35762722 -1738.56094536 745.86571091 -1738.55761719 744.37402344 C-1738.65642732 740.66604315 -1739.20714652 738.56635104 -1741.23046875 735.43359375 C-1744.89225459 733.08872442 -1746.4931095 733.09270834 -1750.66552734 733.82861328 C-1755.77054019 735.15477853 -1760.64255562 737.05236364 -1765.5625 738.9375 C-1835.1923757 764.58743621 -1910.18535897 771.98402079 -1983.44921875 779.9140625 C-2121.78497686 788.0072452 -2121.78497686 788.0072452 -2247.25 837.5 C-2249.67213873 842.11598393 -2251.01959038 846.93642526 -2252.4375 851.9375 C-2256.45160251 865.22524058 -2262.09127866 876.82238386 -2272.25 886.5 C-2272.82363281 887.08136719 -2273.39726562 887.66273438 -2273.98828125 888.26171875 C-2284.1368871 897.87746224 -2297.60899259 900.04506935 -2311.00390625 899.7421875 C-2328.46544558 898.95922836 -2343.79021461 889.57687729 -2355.5625 877.125 C-2363.09237902 868.30211145 -2366.82530697 858.20506281 -2366.55078125 846.6171875 C-2365.45813067 835.29335417 -2359.53658899 828.24848847 -2351.37890625 820.7890625 C-2342.86593309 813.86883916 -2332.12074921 809.41826635 -2321.67578125 806.421875 C-2319.12537756 805.45263946 -2317.91408955 804.63726517 -2316.25 802.5 C-2315.20297007 799.05975881 -2314.98895211 797.20156621 -2316.25 793.8125 C-2322.12928297 787.01457906 -2333.77945918 786.2215042 -2342.25 785.5 C-2358.87693391 784.71185988 -2376.07015907 784.15916297 -2392.25 788.5 C-2393.41281494 788.79003906 -2393.41281494 788.79003906 -2394.59912109 789.0859375 C-2414.65252935 794.14910078 -2433.20152542 802.57795288 -2445.77734375 819.61328125 C-2447.71590534 822.0969026 -2449.27850018 823.41286592 -2452.25 824.5 C-2458.54617358 825.22251172 -2463.03421788 824.15550542 -2468.25 820.5 C-2472.48095716 816.39471484 -2474.45366896 812.93358661 -2474.8125 807.0625 C-2474.6929774 797.9570507 -2469.61172654 793.04075339 -2463.609375 786.71875 C-2435.57916748 759.45439514 -2393.79861436 748.99551208 -2355.65942383 749.26806641 C-2333.97875166 749.68544833 -2312.67487514 753.61117002 -2293.25 763.5 C-2292.18394531 764.03367187 -2291.11789062 764.56734375 -2290.01953125 765.1171875 C-2277.36308315 771.96116591 -2266.59991231 782.77055984 -2258.375 794.5 C-2256.58262509 797.53009465 -2256.58262509 797.53009465 -2254.25 798.5 C-2249.28593009 798.79328367 -2245.58621205 798.20070131 -2240.953125 796.4453125 C-2239.76033936 796.00010254 -2238.56755371 795.55489258 -2237.33862305 795.09619141 C-2236.05906247 794.60584531 -2234.77952194 794.11544691 -2233.5 793.625 C-2232.16686848 793.12429929 -2230.83328334 792.62480488 -2229.49926758 792.12646484 C-2226.07777769 790.84583797 -2222.66094644 789.55327802 -2219.24542236 788.25683594 C-2214.94393974 786.62534343 -2210.63809253 785.00560797 -2206.32910156 783.39404297 C-2204.15809363 782.58171218 -2201.98924607 781.76356925 -2199.82324219 780.93798828 C-2185.05674511 775.39643045 -2170.09859905 771.57470352 -2154.625 768.625 C-2153.75318085 768.45702911 -2152.88136169 768.28905823 -2151.98312378 768.11599731 C-2104.61638278 759.03121541 -2056.62959306 753.76273448 -2008.72558403 748.42935371 C-1946.34209688 741.57193435 -1946.34209688 741.57193435 -1884.25 732.5 C-1883.32419128 732.34656128 -1882.39838257 732.19312256 -1881.44451904 732.03503418 C-1839.57295416 725.03284025 -1798.14777103 715.08558875 -1758.25 700.5 C-1757.29888336 700.15418884 -1757.29888336 700.15418884 -1756.32855225 699.8013916 C-1742.49218021 694.75947944 -1728.92919556 689.11270371 -1715.5625 682.9375 C-1714.45769287 682.44386963 -1713.35288574 681.95023926 -1712.21459961 681.44165039 C-1705.47322623 678.22832657 -1701.09032531 674.67111271 -1696.31982422 668.93896484 C-1693.29599816 665.3758577 -1689.85524981 662.45589566 -1686.25 659.5 C-1685.58790527 658.9529541 -1684.92581055 658.4059082 -1684.24365234 657.84228516 C-1662.69100931 640.27381831 -1638.64138336 626.82121568 -1613.69433594 614.68896484 C-1611.88623447 613.80947482 -1610.07985272 612.92644734 -1608.27441406 612.04150391 C-1594.65470664 605.36877488 -1580.972991 598.87646055 -1567.14233398 592.65203857 C-1552.8531968 586.24305394 -1552.8531968 586.24305394 -1538.8125 579.3125 C-1538.14508789 578.97436279 -1537.47767578 578.63622559 -1536.79003906 578.2878418 C-1534.26884157 576.9386772 -1532.47355545 575.82182159 -1530.828125 573.453125 C-1529.96011868 570.52067123 -1530.44343503 568.41604259 -1531.25 565.5 C-1533.57911472 562.58461034 -1536.36006764 561.32970212 -1539.7109375 559.78515625 C-1540.81187744 559.27009521 -1541.91281738 558.75503418 -1543.04711914 558.22436523 C-1544.81817017 557.40174194 -1544.81817017 557.40174194 -1546.625 556.5625 C-1575.85959728 542.76836439 -1602.79371457 525.82462254 -1626.25 503.5 C-1626.96671875 502.83613281 -1627.6834375 502.17226562 -1628.421875 501.48828125 C-1647.16617467 483.60621936 -1660.83211455 458.99886399 -1661.65405273 432.84301758 C-1661.78136865 422.49697287 -1660.45564846 413.3179965 -1657.25 403.5 C-1656.97285156 402.60410156 -1656.69570312 401.70820313 -1656.41015625 400.78515625 C-1647.19626138 374.58712337 -1622.43490546 355.17272028 -1598.42089844 343.31689453 C-1563.31526122 326.62195206 -1521.24990247 322.96393906 -1484.30761719 335.76123047 C-1461.10362253 344.09242266 -1433.15134651 358.31021573 -1420.15625 380.35546875 C-1416.90332357 387.65949338 -1417.14058004 396.23035763 -1419.75 403.6875 C-1423.13783616 411.09540936 -1428.58065644 417.61901164 -1436.18359375 420.84765625 C-1442.19274956 422.74468653 -1447.54766121 423.23653518 -1453.40625 420.62109375 C-1459.97434222 416.62735971 -1462.2742997 410.38944568 -1464.9765625 403.49609375 C-1470.20945208 391.1843566 -1479.37142037 383.2398892 -1491.25 377.5 C-1498.10476131 374.87999308 -1504.92306696 372.98045463 -1512.25 372.5 C-1512.94609375 372.4484375 -1513.6421875 372.396875 -1514.359375 372.34375 C-1530.5351936 371.69237475 -1548.65748595 376.29320286 -1561.01171875 387.03125 C-1569.49200464 395.72116093 -1576.08357103 409.34640668 -1576.3046875 421.5078125 C-1576.01477484 429.68334938 -1573.97455981 436.25671131 -1570.25 443.5 C-1569.57710937 444.82064453 -1569.57710937 444.82064453 -1568.890625 446.16796875 C-1555.65402049 469.26379672 -1529.72971122 483.91029705 -1507.25 496.5 C-1506.33089844 497.01933105 -1505.41179688 497.53866211 -1504.46484375 498.07373047 C-1487.33487434 507.70189304 -1469.68676824 516.25525192 -1451.98608398 524.77319336 C-1443.32377617 528.95389288 -1434.77461081 533.09242788 -1426.61523438 538.20581055 C-1412.38525878 545.99205132 -1387.68706368 542.84591606 -1372.19775391 542.14355469 C-1314.77181645 539.56556941 -1314.77181645 539.56556941 -1289.25 544.5 C-1286.4199481 545.03098365 -1283.58882606 545.55620173 -1280.7578125 546.08203125 C-1279.18040396 546.37532106 -1277.60301172 546.66869857 -1276.02563477 546.9621582 C-1275.22038361 547.11190094 -1274.41513245 547.26164368 -1273.58547974 547.41592407 C-1271.95016827 547.72104023 -1270.31513504 548.02765153 -1268.6803894 548.33578491 C-1256.34600258 550.66064791 -1243.99803804 552.6716396 -1231.5625 554.375 C-1230.81377625 554.47818542 -1230.06505249 554.58137085 -1229.29364014 554.68768311 C-1216.20491055 556.47970244 -1203.31013804 557.70414278 -1190.09008789 557.74023438 C-1187.9509386 557.74993903 -1185.81275368 557.7810777 -1183.67382812 557.8125 C-1161.96410858 557.97785321 -1146.41143757 551.40527527 -1130.23461914 537.09082031 C-1110.90802776 520.06274684 -1089.05459574 511.54070048 -1064.25 505.5 C-1063.53344238 505.32065918 -1062.81688477 505.14131836 -1062.07861328 504.95654297 C-1042.48486116 500.09311966 -1019.58911683 502.3032217 -1001.625 511.96484375 C-989.1324376 520.03980596 -981.32541962 531.57922002 -978.21777344 546.03955078 C-977.18536644 551.2973011 -976.93844383 556.36867043 -976.90625 561.71484375 C-976.8916272 562.65123184 -976.87700439 563.58761993 -976.86193848 564.55238342 C-976.81591481 567.51404651 -976.781455 570.47564869 -976.75 573.4375 C-977.93867059 593.59238513 -977.93867059 593.59238513 -971.25 611.5 C-965.70984323 614.45380807 -961.62870969 614.85433565 -955.4375 614.375 C-954.15020996 614.29040527 -954.15020996 614.29040527 -952.83691406 614.20410156 C-949.97132272 613.9993437 -947.11142866 613.75633143 -944.25 613.5 C-942.72463623 613.36416504 -942.72463623 613.36416504 -941.16845703 613.22558594 C-869.84462649 606.55651615 -798.16553684 576.94004156 -744.25 529.5 C-743.6521167 528.99404297 -743.0542334 528.48808594 -742.43823242 527.96679688 C-738.6445703 524.72868408 -735.08513612 521.36346829 -731.62890625 517.765625 C-730.83806641 516.94449219 -730.04722656 516.12335937 -729.23242188 515.27734375 C-727.61317641 513.58621894 -726.00382026 511.88557186 -724.40429688 510.17578125 C-718.35692947 503.94635315 -713.43707892 501.06586316 -704.8125 500.125 C-695.25561772 501.13098761 -688.60012721 504.1022958 -682.25 511.5 C-678.93417886 516.46926295 -677.39894676 521.75288205 -677.68359375 527.73046875 C-678.92901898 533.82016869 -682.21939647 539.14146385 -685.25 544.5 C-685.99508278 545.8279617 -686.73986723 547.15609084 -687.484375 548.484375 C-687.87181885 549.17523193 -688.2592627 549.86608887 -688.65844727 550.57788086 C-689.05990967 551.29468018 -689.46137207 552.01147949 -689.875 552.75 C-690.29128662 553.4932251 -690.70757324 554.2364502 -691.13647461 555.00219727 C-704.72794175 579.44762756 -717.56334529 605.20629121 -724.25 632.5 C-724.49234375 633.47195313 -724.7346875 634.44390625 -724.984375 635.4453125 C-727.15558644 645.50917094 -728.24151521 657.20545443 -723.25 666.5 C-719.19287093 671.71630881 -714.52190632 673.86077314 -708.109375 674.8203125 C-660.14532833 677.26745774 -605.66830579 629.14514902 -571.25 601.5 C-570.61497559 600.99114258 -569.97995117 600.48228516 -569.32568359 599.95800781 C-557.09362705 590.14013369 -545.11369197 580.06290436 -533.4921875 569.52734375 C-529.14577783 565.59740191 -524.77276474 561.71199642 -520.1875 558.0625 C-517.2718556 555.51906553 -514.86308734 552.8654564 -512.359375 549.9296875 C-509.25580608 546.3548359 -506.02506869 542.901169 -502.80322266 539.43310547 C-499.65391225 536.03752431 -496.5618945 532.60009133 -493.5 529.125 C-484.43525895 519.05486728 -471.58862191 506.13952676 -457.68359375 504.12890625 C-453.51381738 503.92383528 -450.77053725 504.26428502 -446.9375 506 C-442.16906633 510.43575226 -438.56321935 516.06522517 -437.25 522.5 C-437.13292565 529.55351565 -439.06086762 533.52582455 -443.6875 538.6875 C-444.79336226 539.99356146 -445.89617442 541.30221094 -446.99609375 542.61328125 C-447.54765137 543.26377441 -448.09920898 543.91426758 -448.66748047 544.58447266 C-451.00626988 547.4154109 -453.14073216 550.37095673 -455.25 553.375 C-455.65105957 553.94484619 -456.05211914 554.51469238 -456.46533203 555.10180664 C-457.29510117 556.28374334 -458.12353008 557.46662196 -458.95068359 558.65039062 C-460.31569611 560.59352005 -461.69714013 562.5241193 -463.08203125 564.453125 C-500.41031581 613.47606524 -500.41031581 613.47606524 -514.25 671.5 C-513.27833074 676.09484278 -511.78659743 678.92596554 -508.5625 682.375 C-499.07554895 688.4609686 -488.31906866 686.78761081 -477.76171875 684.5859375 C-428.61556838 673.30156009 -382.21736496 638.598489 -343.98242188 606.92822266 C-341.50689123 604.8873751 -339.00001785 602.88572864 -336.5 600.875 C-331.49918294 596.78410604 -326.75611808 592.44860291 -322.0234375 588.0546875 C-319.77922965 585.98748759 -317.50814141 583.9796492 -315.1875 582 C-309.93586265 577.45151074 -305.12648194 572.44208483 -300.25 567.5 C-297.37787165 564.6135349 -294.48581692 561.74897124 -291.578125 558.8984375 C-281.39236923 548.87963183 -281.39236923 548.87963183 -272.2109375 537.953125 C-270.25 535.5 -270.25 535.5 -268.0390625 533.484375 C-261.3146116 526.92985608 -261.14490512 519.66758425 -260.31958008 510.76977539 C-259.13222371 498.05964426 -256.30947912 485.87547986 -253.25 473.5 C-252.83886963 471.82284912 -252.83886963 471.82284912 -252.41943359 470.11181641 C-230.17856812 380.51877486 -195.30907629 292.63752959 -105.6640625 103.96533203 C-103.89566518 100.88223877 -102.20148046 97.7621536 -100.50854492 94.63720703 C-88.30204958 72.18762078 -74.08717129 49.78332636 -57.25 30.5 C-56.52554688 29.66597656 -55.80109375 28.83195312 -55.0546875 27.97265625 C-21.88442938 -9.53169483 -21.88442938 -9.53169483 0 0 Z M-65.125 119.5625 C-65.78377438 120.76715653 -66.4431283 121.97149629 -67.10302734 123.17553711 C-68.82277653 126.31991726 -70.53048733 129.47066905 -72.23461914 132.62353516 C-73.22070193 134.44585598 -74.21026704 136.26623496 -75.20117188 138.0859375 C-89.18042436 163.78372406 -102.10848942 189.88705143 -114.25 216.5 C-114.75966309 217.61052734 -115.26932617 218.72105469 -115.79443359 219.86523438 C-143.16584985 279.58786492 -166.54451403 341.14567422 -188.25 403.125 C-188.70312561 404.41842316 -188.70312561 404.41842316 -189.16540527 405.73797607 C-190.00882531 408.14990126 -190.84904411 410.56290767 -191.6875 412.9765625 C-191.93453674 413.68468079 -192.18157349 414.39279907 -192.43609619 415.12237549 C-194.38770266 420.76817493 -195.88473779 425.46999099 -195.25 431.5 C-192.82146618 434.7856634 -191.12725186 436.20758271 -187.25 437.5 C-183.57317684 437.5 -182.21756225 436.62084483 -179.25 434.5 C-177.54995332 432.37631983 -177.54995332 432.37631983 -176.19140625 429.87109375 C-175.64790527 428.93193115 -175.1044043 427.99276855 -174.54443359 427.02514648 C-173.68712646 425.49676147 -173.68712646 425.49676147 -172.8125 423.9375 C-172.20486816 422.874104 -171.59723633 421.81070801 -170.97119141 420.71508789 C-160.4709083 402.22675158 -150.59737626 383.39234748 -140.81689453 364.51611328 C-139.1445984 361.29711259 -137.46159167 358.08385593 -135.77734375 354.87109375 C-128.2858797 340.55386906 -121.07078747 326.14834933 -114.25 311.5 C-113.67561796 310.27303602 -113.10106644 309.04615137 -112.52636719 307.81933594 C-95.48461991 271.38740269 -79.81379906 234.36563823 -66.01312256 196.58361816 C-65.26962671 194.55358846 -64.51996419 192.5259544 -63.76806641 190.49902344 C-55.96771259 169.4455422 -49.39286236 148.08919791 -43.25 126.5 C-42.93353516 125.38995605 -42.61707031 124.27991211 -42.29101562 123.13623047 C-40.11691099 115.43157364 -40.11691099 115.43157364 -40.25 107.5 C-42.23921886 104.5161717 -43.63502568 102.89723159 -47.1875 102.0234375 C-57.41777634 101.28716761 -60.93654003 111.82004564 -65.125 119.5625 Z M-1061.76171875 553.62109375 C-1065.29850478 558.08617008 -1065.87302791 562.79563455 -1065.74609375 568.3359375 C-1064.00319595 579.4520573 -1056.82925576 588.64147691 -1048.25 595.5 C-1041.98996425 599.91029615 -1036.08282072 603.77483581 -1028.25 603.5 C-1025.38709496 602.31749574 -1023.8452335 601.44099413 -1022.1875 598.8203125 C-1017.08184591 586.18381863 -1017.27655606 566.3175969 -1022.3203125 553.85546875 C-1024.53298386 549.54841349 -1026.47230038 546.05794553 -1031.25 544.5 C-1042.37601432 543.02910319 -1053.49082093 545.9877812 -1061.76171875 553.62109375 Z M-1120.25 586.5 C-1134.68376558 602.3962176 -1140.19499587 626.6716466 -1139.37744141 647.49169922 C-1138.50597976 661.22473279 -1133.86799931 675.5720655 -1123.328125 684.9453125 C-1115.52014107 690.78662379 -1107.87918658 691.65675293 -1098.25 690.5 C-1077.64295978 685.64123104 -1061.55483113 667.59259045 -1048.6875 651.8125 C-1048.21610596 651.24885742 -1047.74471191 650.68521484 -1047.2590332 650.10449219 C-1045.3524164 647.66455342 -1044.28520772 645.95305026 -1044.04296875 642.8359375 C-1045.84051393 639.3571931 -1048.6934867 638.32962857 -1052.125 636.8125 C-1053.58165694 636.12435632 -1055.03734529 635.43415954 -1056.4921875 634.7421875 C-1057.26401367 634.38092773 -1058.03583984 634.01966797 -1058.83105469 633.64746094 C-1063.01498147 631.66275607 -1067.13541324 629.56143295 -1071.25 627.4375 C-1072.02585449 627.05053955 -1072.80170898 626.6635791 -1073.60107422 626.26489258 C-1081.99664742 621.92648869 -1088.24519326 616.38354321 -1093.25 608.375 C-1093.66515869 607.73336914 -1094.08031738 607.09173828 -1094.50805664 606.43066406 C-1097.96469286 601.0570518 -1101.28853943 595.59815093 -1104.55859375 590.109375 C-1106.82815433 586.60806676 -1108.10216837 584.84934006 -1112.125 583.625 C-1115.94014993 583.472394 -1117.16604439 584.32590707 -1120.25 586.5 Z M-1510.25 611.5 C-1511.72243164 611.89469482 -1511.72243164 611.89469482 -1513.22460938 612.29736328 C-1547.44678376 621.71645707 -1580.38120291 637.38854746 -1610.25 656.5 C-1611.01989258 656.99209961 -1611.78978516 657.48419922 -1612.58300781 657.99121094 C-1628.291274 668.10583395 -1643.22901985 679.14786712 -1657.25 691.5 C-1658.0231958 692.17844971 -1658.0231958 692.17844971 -1658.81201172 692.87060547 C-1672.97898226 705.36930763 -1692.91038834 723.53130683 -1695.0625 743.5625 C-1694.34584665 751.81275315 -1687.19876157 760.98684568 -1681.25 766.5 C-1666.62696551 778.60272693 -1647.92509332 782.89823776 -1629.25 781.5 C-1564.29854589 774.94423135 -1494.80118006 735.55910922 -1451.25 687.5 C-1447.33929886 682.46349096 -1445.54275285 677.18259906 -1443.625 671.1875 C-1443.3259375 670.28837891 -1443.026875 669.38925781 -1442.71875 668.46289062 C-1438.08994826 654.29998619 -1434.75865646 637.8624539 -1441.05859375 623.66015625 C-1444.86619485 616.75653852 -1450.23978524 612.28594863 -1457.68139648 609.63330078 C-1464.4430574 607.70175672 -1470.66719081 606.98827238 -1477.6875 607.0625 C-1478.73244629 607.07152344 -1479.77739258 607.08054687 -1480.85400391 607.08984375 C-1491.0066548 607.3120632 -1500.46041374 608.87157773 -1510.25 611.5 Z M-2313.25 842.5 C-2316.13104759 846.73506474 -2317.63974037 851.74502589 -2317.3125 856.875 C-2316.50393622 860.54506834 -2316.50393622 860.54506834 -2314.125 863 C-2310.34909606 864.97003684 -2308.48737191 865.12518602 -2304.25 864.5 C-2296.96627494 861.81025839 -2289.08606759 857.3986622 -2285.08984375 850.49609375 C-2284.14515063 848.40400733 -2284.14515063 848.40400733 -2283.25 845.5 C-2287.8213694 840.80833141 -2289.55706623 839.3586825 -2296.17578125 839.265625 C-2296.94277344 839.26046875 -2297.70976562 839.2553125 -2298.5 839.25 C-2299.25152344 839.229375 -2300.00304688 839.20875 -2300.77734375 839.1875 C-2305.65228042 839.15346903 -2309.09928817 839.6685549 -2313.25 842.5 Z " fill="#75A6A8" transform="translate(2972.25,1750.5)"/>
<path d="M0 0 C3.84018248 0.1223421 5.54461165 1.11575808 8.1875 3.875 C20.45279615 19.19459539 29.77472142 38.06318524 38.4375 55.625 C38.53825932 48.45989248 38.46934979 41.39626339 37.9375 34.25 C37.17682382 23.38625849 37.34888729 12.50936773 37.4375 1.625 C44.0625 0.5 44.0625 0.5 47.4375 1.625 C48.77640623 4.96402506 48.67102886 8.60614207 48.82641602 12.16259766 C48.85582275 12.81036163 48.88522949 13.45812561 48.91552734 14.1255188 C49.01150977 16.26321003 49.1015707 18.40110481 49.19140625 20.5390625 C49.25694182 22.03397907 49.32277802 23.52888248 49.38890076 25.02377319 C49.5267144 28.15913603 49.66175357 31.29460192 49.79467773 34.43017578 C49.9641031 38.42452548 50.13900615 42.41861066 50.31585789 46.41263771 C50.45230164 49.50288445 50.58646111 52.59322704 50.7198925 55.68360519 C50.78354539 57.1546396 50.84772852 58.62565116 50.91247749 60.09663773 C51.10989312 64.60543903 51.2861223 69.11436174 51.4375 73.625 C51.47326141 74.65679382 51.50902283 75.68858765 51.54586792 76.75164795 C51.56416656 77.65264221 51.58246521 78.55363647 51.60131836 79.48193359 C51.61891708 80.24508881 51.63651581 81.00824402 51.65464783 81.79452515 C51.4375 83.625 51.4375 83.625 49.4375 85.625 C46.625 86.0625 46.625 86.0625 43.4375 85.625 C39.5083146 82.25756835 37.25028513 78.84859625 34.9765625 74.234375 C34.34059327 72.96552681 33.70452126 71.69673013 33.06835938 70.42797852 C32.7411792 69.76629669 32.41399902 69.10461487 32.0769043 68.42288208 C24.60489302 53.33836593 16.33776262 38.91379119 7.4375 24.625 C7.43972061 25.17242355 7.44194122 25.71984711 7.44422913 26.28385925 C7.46656106 32.04396911 7.48152145 37.80406643 7.49243164 43.56420898 C7.497423 45.70646668 7.50421843 47.84872104 7.51293945 49.9909668 C7.64014464 82.06912217 7.64014464 82.06912217 5.05102539 85.41870117 C3.4375 86.625 3.4375 86.625 0.9375 87.125 C-1.5625 86.625 -1.5625 86.625 -3.19647217 84.58721924 C-4.89446547 80.90513581 -4.96918056 77.70104171 -4.91894531 73.72949219 C-4.92098969 72.9500827 -4.92303406 72.17067322 -4.92514038 71.36764526 C-4.9281386 68.80214666 -4.90970547 66.23729675 -4.890625 63.671875 C-4.88756652 61.88779866 -4.88569108 60.10371992 -4.88494873 58.31964111 C-4.88035225 54.58734958 -4.86594748 50.85527461 -4.84375 47.12304688 C-4.81538608 42.3287282 -4.80452963 37.5345794 -4.8000679 32.74018478 C-4.79592158 29.06002084 -4.78611207 25.37989151 -4.77419281 21.69974518 C-4.76848049 19.93102548 -4.76372498 18.16230242 -4.75992584 16.39357758 C-4.75308706 13.92996797 -4.73946835 11.46649579 -4.72363281 9.00292969 C-4.72251495 8.26632111 -4.72139709 7.52971252 -4.72024536 6.77078247 C-4.66931553 0.81917816 -4.66931553 0.81917816 0 0 Z M39.4375 57.625 C40.4375 59.625 40.4375 59.625 40.4375 59.625 Z " fill="#75A6A8" transform="translate(2344.5625,2659.375)"/>
<path d="M0 0 C6.42697356 5.20335382 10.19833627 11.28649122 11.1640625 19.56640625 C11.42032181 26.97095154 8.98870532 32.42905139 4.92578125 38.5234375 C5.52390625 39.0390625 6.12203125 39.5546875 6.73828125 40.0859375 C11.26633984 45.1314885 12.44828797 50.93402826 13.11328125 57.5234375 C13.23171387 58.61797241 13.23171387 58.61797241 13.35253906 59.73461914 C14.07039685 66.9310658 14.59130782 74.31030391 13.92578125 81.5234375 C11.92578125 83.5234375 11.92578125 83.5234375 8.48828125 83.9609375 C4.92578125 83.5234375 4.92578125 83.5234375 3.23828125 81.60546875 C1.4128735 77.31902019 1.43497554 73.38918397 1.36328125 68.7734375 C1.61769236 57.30914847 1.61769236 57.30914847 -3.07421875 47.5234375 C-5.3200038 47.46421553 -5.3200038 47.46421553 -7.82421875 47.8359375 C-8.6646875 47.93519531 -9.50515625 48.03445312 -10.37109375 48.13671875 C-13.27912141 48.55275161 -16.17655196 49.04049303 -19.07421875 49.5234375 C-19.40421875 60.4134375 -19.73421875 71.3034375 -20.07421875 82.5234375 C-23.48531764 84.22898695 -27.32185045 83.57704276 -31.07421875 83.5234375 C-31.95703486 73.30240271 -32.22306659 63.16547695 -32.20703125 52.9140625 C-32.20770685 51.36944565 -32.20867899 49.8248289 -32.20993042 48.2802124 C-32.21139007 45.07677171 -32.20930578 41.87335924 -32.20458984 38.66992188 C-32.1988352 34.56090228 -32.20221823 30.45194719 -32.20816231 26.34292984 C-32.21176576 23.16887927 -32.21063134 19.99484418 -32.20803452 16.82079315 C-32.20736763 15.30409487 -32.20818535 13.78739519 -32.21051407 12.27069855 C-32.21304325 10.16512776 -32.20919892 8.05966431 -32.20361328 5.95410156 C-32.20281769 4.75722717 -32.20202209 3.56035278 -32.20120239 2.32720947 C-32.07421875 -0.4765625 -32.07421875 -0.4765625 -31.07421875 -2.4765625 C-20.31871716 -4.84072974 -9.39490524 -6.68789865 0 0 Z M-21.07421875 8.5234375 C-20.74421875 18.0934375 -20.41421875 27.6634375 -20.07421875 37.5234375 C-9.93474006 35.3129285 -9.93474006 35.3129285 -2.69921875 28.8359375 C-0.58493811 24.52605774 -0.14461777 21.23500485 -1.07421875 16.5234375 C-2.71040454 12.74016205 -4.48205319 9.48999773 -8.0625 7.31640625 C-12.92942205 5.39798843 -16.33004006 6.62576603 -21.07421875 8.5234375 Z " fill="#75A6A8" transform="translate(2100.07421875,2662.4765625)"/>
<path d="M0 0 C2.9787979 0.33097754 5.35930766 0.6073176 7.9375 2.1875 C9.59495341 5.01492052 8.73023347 6.83207541 8 10 C6.8960228 13.09703666 5.61618694 16.10742336 4.3125 19.125 C3.95744385 19.96305176 3.6023877 20.80110352 3.23657227 21.66455078 C0.74953437 27.46670918 -1.97557899 33.0473953 -5.06640625 38.5546875 C-6.24617367 41.64478962 -6.12482309 42.89379397 -5 46 C-3.55794559 48.21458355 -2.09893551 50.28182104 -0.5 52.375 C3.64542228 57.97431317 7.35840566 63.70460354 10.86279297 69.72387695 C12.95709205 73.31120252 15.18081741 76.70597276 17.625 80.0625 C19.67935582 83.05631331 20.00533307 83.70134802 19.9375 87.5 C19 90 19 90 18 91 C14.875 91.5625 14.875 91.5625 11 91 C5.47233431 86.20207232 1.60468986 79.61645175 -2.1875 73.4375 C-2.94836914 72.22030273 -2.94836914 72.22030273 -3.72460938 70.97851562 C-6.58884716 66.37567435 -9.34255423 61.72505273 -12 57 C-15.40025095 60.86632896 -17.02326105 65.48029527 -18.9375 70.1875 C-20.28487766 73.46118639 -21.64012655 76.73148655 -23 80 C-23.51457764 81.26191162 -23.51457764 81.26191162 -24.03955078 82.54931641 C-24.37841309 83.3541748 -24.71727539 84.1590332 -25.06640625 84.98828125 C-25.36619385 85.71184814 -25.66598145 86.43541504 -25.97485352 87.1809082 C-27 89 -27 89 -30 91 C-35.44444444 90.55555556 -35.44444444 90.55555556 -38 88 C-37.66113057 83.2197781 -36.49520784 79.20476481 -34.671875 74.796875 C-34.20136719 73.65089844 -33.73085937 72.50492188 -33.24609375 71.32421875 C-32.75238281 70.14472656 -32.25867187 68.96523437 -31.75 67.75 C-31.27175781 66.58597656 -30.79351563 65.42195313 -30.30078125 64.22265625 C-29.82511719 63.07152344 -29.34945313 61.92039062 -28.859375 60.734375 C-28.39217041 59.59895264 -27.92496582 58.46353027 -27.44360352 57.29370117 C-26 54 -26 54 -24.38256836 50.98168945 C-21.6345982 46.13780862 -21.6345982 46.13780862 -21.38623047 40.77783203 C-22.41878565 38.54543619 -23.62268962 36.68072994 -25.0625 34.6875 C-25.52897949 33.97037842 -25.99545898 33.25325684 -26.47607422 32.5144043 C-28.84020865 28.93018642 -31.37466515 25.47197581 -33.91015625 22.0078125 C-34.36575928 21.38302002 -34.8213623 20.75822754 -35.29077148 20.11450195 C-36.15835505 18.9427482 -37.04387006 17.78399022 -37.94946289 16.64135742 C-40.02282222 13.9261944 -40.98131662 12.15331365 -41.3984375 8.73046875 C-41 6 -41 6 -39 4 C-35.60699002 3.54759867 -33.67803566 3.58758656 -30.7265625 5.3828125 C-26.77088253 9.1798119 -24.09289676 13.6246861 -21.1875 18.25 C-20.2912793 19.65378906 -20.2912793 19.65378906 -19.37695312 21.0859375 C-17.91018232 23.38583413 -16.45155928 25.69048424 -15 28 C-12.93460542 25.39388606 -11.39208388 22.94275571 -10.09765625 19.8828125 C-9.76443359 19.11066406 -9.43121094 18.33851563 -9.08789062 17.54296875 C-8.40770031 15.93901522 -7.72800769 14.33485053 -7.04882812 12.73046875 C-5.06275067 8.13072868 -2.92593352 4.07143322 0 0 Z " fill="#75A6A8" transform="translate(1803,2655)"/>
<path d="M0 0 C2.5625 2.3125 2.5625 2.3125 4 5 C3.75 8.8125 3.75 8.8125 3 12 C-1.25483427 11.64543048 -4.29992267 10.98915585 -8.0625 8.9375 C-11.57749367 7.08857269 -13.96811244 6.29880216 -18 7 C-22.84744581 9.47124688 -25.21658067 11.84789972 -27 17 C-27.47597759 20.48389155 -27.72766127 23.71589187 -25.9375 26.875 C-22.40654465 28.92523214 -18.62419502 29.73153801 -14.63671875 30.390625 C-4.9410017 32.01914357 2.88872709 36.14717263 9 44 C13.0569617 50.33750229 14.01282392 56.5865466 13 64 C11.257025 71.1575423 8.28228068 76.07818486 2 80 C-8.09757874 85.38653 -19.73592975 87.00765053 -30.9375 84 C-36.6589289 81.7583954 -40.52256937 77.01867057 -43.17578125 71.59765625 C-44.09176369 68.71079215 -44.26650015 66.33615328 -44.25 63.3125 C-44.25515625 62.35988281 -44.2603125 61.40726563 -44.265625 60.42578125 C-44 58 -44 58 -42 56 C-39.0625 55.625 -39.0625 55.625 -36 56 C-32.61237874 58.78268889 -32.25689485 62.75867956 -31.52734375 66.87890625 C-31.05707723 69.28007496 -31.05707723 69.28007496 -29 72 C-22.61057915 74.12980695 -14.59990967 74.19604264 -8.4375 71.3125 C-4.54696245 69.00608428 -2.02175345 66.04350689 0 62 C0.5649385 56.47012119 0.35444428 52.61236088 -3 48 C-3 47.34 -3 46.68 -3 46 C-8.59987413 43.46201131 -14.63343172 42.35977451 -20.60742188 41.03125 C-26.63381957 39.60477684 -31.56485297 37.96150898 -35.64453125 33 C-36.02996094 32.34 -36.41539062 31.68 -36.8125 31 C-37.21082031 30.34 -37.60914062 29.68 -38.01953125 29 C-40.92276282 23.07787027 -40.79798844 16.57129609 -38.875 10.375 C-34.38843107 2.29917593 -29.3302928 -1.83437352 -20.625 -4.8125 C-13.07831835 -5.35154869 -6.32069144 -4.31550657 0 0 Z " fill="#75A6A8" transform="translate(2692,2662)"/>
<path d="M0 0 C2 3 2 3 1.625 5.6875 C1.41875 6.450625 1.2125 7.21375 1 8 C-9.7099063 12.22759459 -21.6939617 11.11084351 -33 11 C-32.98839844 11.62003906 -32.97679687 12.24007812 -32.96484375 12.87890625 C-32.90679788 18.57569359 -33.09871905 24.22038043 -33.50390625 29.90234375 C-33.57502625 30.931922 -33.57502625 30.931922 -33.64758301 31.9822998 C-33.76336743 33.65498423 -33.88144339 35.32750978 -34 37 C-32.47076904 37.03758423 -32.47076904 37.03758423 -30.91064453 37.07592773 C-27.13479646 37.16997004 -23.35913373 37.27019837 -19.58349609 37.37231445 C-17.94812347 37.41567538 -16.31270523 37.45734961 -14.67724609 37.49731445 C-12.32896159 37.55498912 -9.98090696 37.61869129 -7.6328125 37.68359375 C-6.89942657 37.70030624 -6.16604065 37.71701874 -5.41043091 37.73423767 C-0.22774341 37.88612829 -0.22774341 37.88612829 2 39 C1.6875 42.375 1.6875 42.375 1 46 C-2.72540662 48.48360441 -4.63062973 48.2315867 -9.07421875 48.1953125 C-9.7580513 48.1924826 -10.44188385 48.18965271 -11.1464386 48.18673706 C-13.32697165 48.17555684 -15.50709145 48.15045691 -17.6875 48.125 C-19.16731177 48.11496738 -20.64712999 48.10584202 -22.12695312 48.09765625 C-25.75158874 48.07732739 -29.3753327 48.03817672 -33 48 C-33.33 56.58 -33.66 65.16 -34 74 C-26.2225044 73.63394696 -26.2225044 73.63394696 -18.44580078 73.25170898 C-11.85813135 72.964939 -5.53686353 73.11331653 1 74 C1.6875 76.8125 1.6875 76.8125 2 80 C0.21220342 82.59230504 -0.96002815 82.98667605 -4 84 C-5.55779666 84.14741836 -7.12036275 84.24733078 -8.68359375 84.31640625 C-9.60591797 84.35854248 -10.52824219 84.40067871 -11.47851562 84.4440918 C-12.94321289 84.50270386 -12.94321289 84.50270386 -14.4375 84.5625 C-15.43072266 84.6035083 -16.42394531 84.6445166 -17.44726562 84.68676758 C-40.07783509 85.58037165 -40.07783509 85.58037165 -44 83 C-46.49310214 75.05399928 -46.18851889 67.2155591 -46.01171875 58.96484375 C-45.98802543 57.51714865 -45.96515734 56.06943984 -45.94306946 54.62171936 C-45.89480011 51.60174051 -45.83950864 48.58200507 -45.77856445 45.56225586 C-45.70098248 41.71054525 -45.63658307 37.85876121 -45.57690716 34.0067358 C-45.52996473 31.02194977 -45.47826462 28.0372619 -45.42493629 25.05258369 C-45.39970457 23.63296683 -45.37539276 22.21333329 -45.3520565 20.79368401 C-45.23291402 13.79572038 -45.0734537 6.92264726 -44 0 C-38.6982815 -0.16822981 -33.39640502 -0.32872181 -28.09423828 -0.48217773 C-26.29209151 -0.53541048 -24.49000492 -0.59072399 -22.68798828 -0.64819336 C-20.0916033 -0.73062966 -17.49509098 -0.8054781 -14.8984375 -0.87890625 C-13.69808365 -0.91945885 -13.69808365 -0.91945885 -12.47348022 -0.96083069 C-8.20995135 -1.07351923 -4.15243955 -1.12355022 0 0 Z " fill="#75A6A8" transform="translate(2014,2661)"/>
<path d="M0 0 C2 3 2 3 1.625 5.6875 C1.41875 6.450625 1.2125 7.21375 1 8 C-9.70763971 12.22669989 -21.71407888 11.08422329 -33 11 C-33.33 19.58 -33.66 28.16 -34 37 C-31.56882812 37.06058594 -29.13765625 37.12117188 -26.6328125 37.18359375 C-24.28300827 37.24536947 -21.93325288 37.30876282 -19.58349609 37.37231445 C-17.94812347 37.41567538 -16.31270523 37.45734961 -14.67724609 37.49731445 C-12.32896159 37.55498912 -9.98090696 37.61869129 -7.6328125 37.68359375 C-6.89942657 37.70030624 -6.16604065 37.71701874 -5.41043091 37.73423767 C-0.22774341 37.88612829 -0.22774341 37.88612829 2 39 C1.6875 42.375 1.6875 42.375 1 46 C-2.72540662 48.48360441 -4.63062973 48.2315867 -9.07421875 48.1953125 C-9.7580513 48.1924826 -10.44188385 48.18965271 -11.1464386 48.18673706 C-13.32697165 48.17555684 -15.50709145 48.15045691 -17.6875 48.125 C-19.16731177 48.11496738 -20.64712999 48.10584202 -22.12695312 48.09765625 C-25.75158874 48.07732739 -29.3753327 48.03817672 -33 48 C-33.33 56.58 -33.66 65.16 -34 74 C-26.17747686 73.6336616 -26.17747686 73.6336616 -18.35571289 73.25170898 C-12.10613937 72.98034125 -6.17732317 72.94193542 0 74 C0.99 74.99 0.99 74.99 2 76 C1.9375 78.4375 1.9375 78.4375 1 81 C-3.60257547 84.92071244 -8.81442351 84.55383502 -14.5625 84.6875 C-16.03879883 84.73547729 -16.03879883 84.73547729 -17.54492188 84.78442383 C-20.36311937 84.87069043 -23.18120377 84.93697493 -26 85 C-27.28777344 85.04125 -28.57554688 85.0825 -29.90234375 85.125 C-40.44662433 85.33774715 -40.44662433 85.33774715 -44 83 C-46.52657368 74.98225354 -46.18697457 67.03777845 -46.01171875 58.7109375 C-45.98802909 57.23842625 -45.96516069 55.76590158 -45.94306946 54.29336548 C-45.89479902 51.22211469 -45.83950317 48.15110323 -45.77856445 45.08007812 C-45.70091469 41.15876517 -45.63655203 37.23737977 -45.57690716 33.31575584 C-45.53002081 30.28039808 -45.47830702 27.24513857 -45.42493629 24.20988846 C-45.39966893 22.76432563 -45.37535925 21.31874571 -45.3520565 19.87314987 C-45.31826461 17.84943437 -45.27778584 15.82583394 -45.23706055 13.80224609 C-45.21548386 12.65468842 -45.19390717 11.50713074 -45.17167664 10.32479858 C-44.99149829 6.8353505 -44.54435523 3.44986001 -44 0 C-38.6982815 -0.16822981 -33.39640502 -0.32872181 -28.09423828 -0.48217773 C-26.29209151 -0.53541048 -24.49000492 -0.59072399 -22.68798828 -0.64819336 C-20.0916033 -0.73062966 -17.49509098 -0.8054781 -14.8984375 -0.87890625 C-13.69808365 -0.91945885 -13.69808365 -0.91945885 -12.47348022 -0.96083069 C-8.20995135 -1.07351923 -4.15243955 -1.12355022 0 0 Z " fill="#75A6A8" transform="translate(1714,2661)"/>
<path d="M0 0 C1.35439668 2.70879335 1.06501451 5.00933268 1 8 C-7.62645898 10.75312521 -16.05052359 11.15338882 -25.0625 11.0625 C-25.92810547 11.05798828 -26.79371094 11.05347656 -27.68554688 11.04882812 C-29.79039539 11.03719913 -31.89520758 11.01927073 -34 11 C-33.99476318 11.71655762 -33.98952637 12.43311523 -33.98413086 13.17138672 C-33.96339333 16.40591562 -33.95035016 19.64043056 -33.9375 22.875 C-33.92912109 24.00292969 -33.92074219 25.13085938 -33.91210938 26.29296875 C-33.90888672 27.36933594 -33.90566406 28.44570312 -33.90234375 29.5546875 C-33.89710693 30.54968262 -33.89187012 31.54467773 -33.88647461 32.56982422 C-34 35 -34 35 -35 37 C-33.47076904 37.03758423 -33.47076904 37.03758423 -31.91064453 37.07592773 C-28.13479646 37.16997004 -24.35913373 37.27019837 -20.58349609 37.37231445 C-18.94812347 37.41567538 -17.31270523 37.45734961 -15.67724609 37.49731445 C-13.32896159 37.55498912 -10.98090696 37.61869129 -8.6328125 37.68359375 C-7.89942657 37.70030624 -7.16604065 37.71701874 -6.41043091 37.73423767 C-1.22774341 37.88612829 -1.22774341 37.88612829 1 39 C1.25 41.8125 1.25 41.8125 1 45 C-1.34222993 47.48000816 -2.76572572 47.97370942 -6.17626953 48.35644531 C-7.39942871 48.34709961 -8.62258789 48.33775391 -9.8828125 48.328125 C-10.53829071 48.32625183 -11.19376892 48.32437866 -11.86911011 48.32244873 C-13.24921791 48.31574728 -14.62930733 48.30187061 -16.00927734 48.28125 C-18.12485344 48.25000216 -20.23968437 48.24026718 -22.35546875 48.234375 C-32.67214662 48.16392669 -32.67214662 48.16392669 -35 47 C-35 55.91 -35 64.82 -35 74 C-26.8483952 73.63356512 -26.8483952 73.63356512 -18.69750977 73.25170898 C-12.33109847 72.98613159 -6.301025 72.99952179 0 74 C1 75 1 75 1.0625 78.0625 C1.041875 79.031875 1.02125 80.00125 1 81 C-3.66078536 83.69887069 -7.19704771 84.42234532 -12.55859375 84.58203125 C-13.26597183 84.6047258 -13.97334991 84.62742035 -14.7021637 84.65080261 C-16.19033357 84.69516451 -17.67872468 84.73259532 -19.16723633 84.76342773 C-21.42821328 84.81229927 -23.68715907 84.88789593 -25.94726562 84.96679688 C-27.40099853 85.0068075 -28.85477504 85.04527006 -30.30859375 85.08203125 C-31.61626709 85.11530518 -32.92394043 85.1485791 -34.27124023 85.18286133 C-38.24221793 84.98812144 -41.24695027 84.23665219 -45 83 C-45.82009927 79.41293698 -46.12634424 76.10208485 -46.12939453 72.42553711 C-46.13254669 71.32926498 -46.13569885 70.23299286 -46.13894653 69.10350037 C-46.1369223 67.92336868 -46.13489807 66.743237 -46.1328125 65.52734375 C-46.13376923 64.29448135 -46.13472595 63.06161896 -46.13571167 61.79139709 C-46.13656624 58.50619755 -46.1325526 55.22104531 -46.12695312 51.93585205 C-46.12375876 48.66751467 -46.13137666 45.39919229 -46.13671875 42.13085938 C-46.1400616 28.05579471 -45.90628154 14.04736381 -45 0 C-39.71659769 -0.16843638 -34.43303388 -0.32890388 -29.14916992 -0.48217773 C-27.35385725 -0.53535662 -25.55860629 -0.59066504 -23.76342773 -0.64819336 C-21.17445172 -0.73078205 -18.58534623 -0.8055631 -15.99609375 -0.87890625 C-15.20101913 -0.90594131 -14.40594452 -0.93297638 -13.58677673 -0.96083069 C-8.9309444 -1.08390035 -4.56905875 -0.9633356 0 0 Z " fill="#75A6A8" transform="translate(2596,2661)"/>
<path d="M0 0 C0.04092937 2.33297433 0.04241723 4.66705225 0 7 C-8.62530751 9.75275772 -17.0529913 10.15263497 -26.0625 10.0625 C-30.4865625 10.0315625 -30.4865625 10.0315625 -35 10 C-35 18.58 -35 27.16 -35 36 C-31.33583984 36.09087891 -31.33583984 36.09087891 -27.59765625 36.18359375 C-25.24125937 36.24533798 -22.8849127 36.30874433 -20.52856445 36.37231445 C-18.88635697 36.41572297 -17.24410261 36.45739358 -15.60180664 36.49731445 C-13.24611255 36.5548744 -10.89065572 36.61860892 -8.53515625 36.68359375 C-7.79660904 36.70030624 -7.05806183 36.71701874 -6.2971344 36.73423767 C-1.11387171 36.88612829 -1.11387171 36.88612829 0 38 C0.3125 40.875 0.3125 40.875 0 44 C-2.35854708 46.49551138 -3.77051792 46.97563718 -7.20800781 47.34057617 C-8.44389648 47.32486572 -9.67978516 47.30915527 -10.953125 47.29296875 C-11.94345734 47.28660149 -11.94345734 47.28660149 -12.95379639 47.28010559 C-15.05295391 47.26337435 -17.15113496 47.22573551 -19.25 47.1875 C-20.67706942 47.17244584 -22.10415396 47.15875871 -23.53125 47.14648438 C-27.02150793 47.11604608 -30.50966707 47.05732299 -34 47 C-34.66 55.58 -35.32 64.16 -36 73 C-27.8483952 72.63356512 -27.8483952 72.63356512 -19.69750977 72.25170898 C-13.33109847 71.98613159 -7.301025 71.99952179 -1 73 C0 74 0 74 0.1875 76.9375 C0 80 0 80 -2 82 C-4.84604901 82.93622021 -7.58074603 83.17671329 -10.5625 83.31640625 C-11.43640381 83.35854248 -12.31030762 83.40067871 -13.21069336 83.4440918 C-14.59140015 83.50270386 -14.59140015 83.50270386 -16 83.5625 C-16.94174072 83.6035083 -17.88348145 83.6445166 -18.85375977 83.68676758 C-40.53057916 84.58755944 -40.53057916 84.58755944 -45 82 C-46.84922266 77.65741211 -47.24697208 73.92390958 -47.23046875 69.234375 C-47.23037308 68.5792543 -47.2302774 67.92413361 -47.23017883 67.24916077 C-47.22643654 65.08259365 -47.20739194 62.91647458 -47.1875 60.75 C-47.18058812 59.22615737 -47.17408643 57.70231283 -47.16796875 56.1784668 C-47.06137731 37.11513881 -46.53006065 18.05539858 -46 -1 C-40.71659769 -1.16843638 -35.43303388 -1.32890388 -30.14916992 -1.48217773 C-28.35385725 -1.53535662 -26.55860629 -1.59066504 -24.76342773 -1.64819336 C-22.17445172 -1.73078205 -19.58534623 -1.8055631 -16.99609375 -1.87890625 C-16.20101913 -1.90594131 -15.40594452 -1.93297638 -14.58677673 -1.96083069 C-2.28598298 -2.28598298 -2.28598298 -2.28598298 0 0 Z " fill="#75A6A8" transform="translate(2286,2662)"/>
<path d="M0 0 C3.52333218 -0.07133789 7.04647607 -0.11428665 10.5703125 -0.15234375 C11.56200439 -0.17276733 12.55369629 -0.19319092 13.57543945 -0.2142334 C23.09068963 -0.29125597 29.19384697 1.65794358 36.38671875 8.15625 C43.07551382 15.16927751 45.97032502 22.34079498 46 32 C45.36472916 40.21709019 41.41704519 46.48803689 35.75 52.3125 C27.90954062 57.12369098 21.16789018 58.62746016 12 58 C12.16113281 58.96421875 12.32226562 59.9284375 12.48828125 60.921875 C13.12062103 65.3672796 13.18382453 69.76593134 13.1875 74.25 C13.19974609 75.05179688 13.21199219 75.85359375 13.22460938 76.6796875 C13.23956164 82.64065754 13.23956164 82.64065754 11 86 C7.6875 85.8125 7.6875 85.8125 4 85 C0.02516899 80.5335618 0.44373013 75.19498554 0.31640625 69.53125 C0.26656334 67.95941956 0.26656334 67.95941956 0.2157135 66.35583496 C-0.15947076 53.07374034 -0.10817676 39.78590526 -0.0625 26.5 C-0.05746709 23.91145921 -0.0529074 21.32291746 -0.04882812 18.734375 C-0.03798254 12.48956172 -0.0213909 6.24478562 0 0 Z M13 10 C11.59374449 11.17829585 11.59374449 11.17829585 11.88647461 14.51000977 C11.88663374 16.07048422 11.89232858 17.63096393 11.90234375 19.19140625 C11.9037587 20.01124496 11.90517365 20.83108368 11.90663147 21.67576599 C11.91224711 24.30471382 11.92480221 26.93357773 11.9375 29.5625 C11.94251299 31.34049357 11.94707624 33.11848846 11.95117188 34.89648438 C11.96222161 39.26435545 11.97949669 43.63216348 12 48 C13.27141846 47.85071045 14.54283691 47.7014209 15.8527832 47.54760742 C16.56795609 47.46363205 17.28312897 47.37965668 18.01997375 47.2931366 C23.26716458 46.51630666 27.53181067 43.87766361 30.9375 39.875 C34.49181673 34.92049789 34.75852139 31.01525099 34 25 C31.65448403 18.75259766 26.8464089 14.08382008 21 11 C18.17929381 10.21918168 15.96469814 10.05201225 13 10 Z " fill="#75A6A8" transform="translate(1872,2660)"/>
<path d="M0 0 C2.30255276 1.92231469 3.39037426 3.37094463 5 6 C4.81395349 10.18604651 4.81395349 10.18604651 3 12 C0.02279827 12.42531453 -2.12736683 12.57110546 -4.70703125 10.8828125 C-5.27808594 10.42648438 -5.84914063 9.97015625 -6.4375 9.5 C-9.09789054 7.44903813 -10.08320619 6.98540242 -13.5625 6.375 C-17.87393611 7.15889747 -20.28524285 8.66859442 -23 12 C-31.59047575 25.31158706 -32.53233205 41.04504909 -30.56640625 56.3828125 C-28.89171917 63.85129278 -25.02846159 69.41765283 -18.5625 73.5625 C-14.85017062 74.19631233 -11.70988231 73.62879361 -8 73 C-7.71125 72.236875 -7.4225 71.47375 -7.125 70.6875 C-6 68 -6 68 -4 65 C-1 64.6875 -1 64.6875 2 65 C4 67 4 67 4.5 69.625 C3.76629536 74.57750629 1.63131637 77.60016196 -2 81 C-8.22404843 84.82853838 -14.79717078 85.97878167 -22 85 C-29.21421237 82.83573629 -34.62289525 75.7988875 -38.3125 69.4375 C-45.82677917 52.73910184 -44.25773173 31.60903615 -38.19140625 14.8203125 C-35.03276006 7.34312381 -31.06674195 0.37234491 -24 -4 C-16.25325864 -6.72659634 -6.73517728 -4.25663204 0 0 Z " fill="#75A6A8" transform="translate(2492,2662)"/>
<path d="M0 0 C0.8125 3.5625 0.8125 3.5625 1 7 C0.67 7.33 0.34 7.66 0 8 C-1.65 8 -3.3 8 -5 8 C-5 29.12 -5 50.24 -5 72 C-3.02 72 -1.04 72 1 72 C3 74 3 74 3.4375 76.4375 C3 79 3 79 1.1875 80.6875 C-5.64752719 83.50192296 -12.7713189 84.80717027 -20 83 C-20.99 82.34 -21.98 81.68 -23 81 C-22.6875 78.625 -22.6875 78.625 -22 76 C-19 74 -19 74 -15 74 C-15.0707373 73.38358643 -15.14147461 72.76717285 -15.21435547 72.13208008 C-16.06123696 63.97805507 -16.15511131 55.87874838 -16.125 47.6875 C-16.12411377 46.99277588 -16.12322754 46.29805176 -16.12231445 45.58227539 C-16.104091 33.36835698 -15.72335699 21.19373212 -15 9 C-16.91619141 9.07154297 -16.91619141 9.07154297 -18.87109375 9.14453125 C-21.04858398 9.22583008 -21.04858398 9.22583008 -23 9 C-25.0625 6.6875 -25.0625 6.6875 -26 4 C-25 1 -25 1 -22.875 -0.125 C-16.18305845 -2.16167786 -6.20982388 -4.22159079 0 0 Z " fill="#75A6A8" transform="translate(2187,2663)"/>
</svg>
