<?xml version="1.0" encoding="UTF-8"?>
<svg version="1.1" xmlns="http://www.w3.org/2000/svg" width="1080" height="1080">
<path d="M0 0 C356.4 0 712.8 0 1080 0 C1080 356.4 1080 712.8 1080 1080 C723.6 1080 367.2 1080 0 1080 C0 723.6 0 367.2 0 0 Z " fill="#297479" transform="translate(0,0)"/>
<path d="M0 0 C356.4 0 712.8 0 1080 0 C1080 163.68 1080 327.36 1080 496 C1038.8395682 513.64018506 998.0994576 517.27933254 953.8125 517.25 C952.50970093 517.24940582 951.20690186 517.24881165 949.86462402 517.24819946 C942.40368409 517.23522157 934.9462653 517.16072741 927.48638916 517.03637695 C924.06618657 517.00069059 920.65193558 517.032826 917.23193359 517.07617188 C915.15852157 517.06804679 913.08511483 517.05837093 911.01171875 517.046875 C910.07963089 517.07565735 909.14754303 517.1044397 908.18721008 517.13409424 C905.50786891 517.08780958 903.50710957 516.95629857 901 516 C899.02554069 513.85163313 897.67512512 511.74066707 896.30232239 509.16998291 C893.27930866 504.1329136 887.40486184 502.5526694 882 501 C867.2574259 499.54769602 854.7334308 502.98974862 843 512 C839.24950688 515.26431809 835.94549936 518.49412459 833.29296875 522.71875 C830.39375262 527.17054418 826.52028552 530.72950615 822.75 534.4375 C822.02425781 535.16259766 821.29851563 535.88769531 820.55078125 536.63476562 C807.03464858 550.04248012 807.03464858 550.04248012 798.5625 554.0625 C797.88002197 554.39121094 797.19754395 554.71992187 796.49438477 555.05859375 C783.21695309 561.30323748 769.41962391 567.63112465 754.609375 562.921875 C747.87772551 559.90423902 743.60207641 556.4001179 740 550 C739.443125 549.05511719 738.88625 548.11023438 738.3125 547.13671875 C735.08338689 541.25405205 732.18036078 535.7675623 734 529 C735.63034645 525.72034959 737.80522371 522.92193449 740 520 C765.8279696 482.82563912 785.14540921 443.42207499 800.85595703 401.05175781 C801.81301578 398.49878419 802.79596992 395.96095558 803.80859375 393.4296875 C810.1070871 377.59285667 816.34419457 358.81550882 816.25 341.625 C816.25773438 340.19027344 816.25773438 340.19027344 816.265625 338.7265625 C815.97728386 335.76682554 815.39250601 333.62719468 814 331 C808.98270662 329.32756887 804.67486037 329.34319201 799.8125 331.25 C794.59587351 334.49590092 791.36136235 337.54313547 788.25 342.875 C787.55363762 344.05040139 786.85566662 345.22485096 786.15625 346.3984375 C785.80046875 346.99881836 785.4446875 347.59919922 785.078125 348.21777344 C783.37803735 351.02815384 781.55665139 353.75729372 779.75 356.5 C762.74760917 382.76967696 750.41409236 410.70377663 739.35041809 439.85354614 C737.17197013 445.58357835 734.88696355 451.26520216 732.5625 456.9375 C726.05685203 473.0273615 718.99825749 490.56848571 717.6328125 508.03515625 C716.821263 517.9222044 714.2909549 522.37700526 707 529 C705.39159919 530.64169573 703.78727669 532.28739921 702.1875 533.9375 C699.60062904 536.53379489 697.05307766 538.95821431 694 541 C693.34 541 692.68 541 692 541 C691.75636719 541.57621094 691.51273438 542.15242187 691.26171875 542.74609375 C683.91697031 555.86658865 663.95741114 566.28584323 651 573 C649.99324219 573.52851562 648.98648438 574.05703125 647.94921875 574.6015625 C640.43014726 578.16689706 633.28199611 579.08373227 625 578 C623 576 623 576 622.6875 572.5 C623.28509006 554.94972358 636.30682055 540.08324265 647.5546875 527.7890625 C649.89472869 524.89247097 650.92128113 522.64287079 651.375 518.9375 C651.26445541 515.97565152 651.26445541 515.97565152 649.4375 514.125 C645.99711101 512.53712816 643.76746198 512.54537447 640 513 C637.59851079 514.68731236 635.85416799 516.80363541 634 519.0625 C632.95656096 520.26114127 631.91229564 521.45906376 630.8671875 522.65625 C630.3731543 523.23503906 629.87912109 523.81382812 629.37011719 524.41015625 C625.8751803 528.46557838 622.34661024 532.11123724 617.875 535.0625 C615.11195427 536.92455256 613.49352618 538.84641362 611.41455078 541.40161133 C609.05886253 544.0634496 606.31794209 546.16217279 603.5 548.3125 C602.88688965 548.78469971 602.2737793 549.25689941 601.64208984 549.7434082 C599.76997421 551.17407792 597.88746661 552.58966249 596 554 C595.4524707 554.41217773 594.90494141 554.82435547 594.34082031 555.24902344 C588.04723839 559.9430028 581.62172885 563.90676579 574.625 567.4375 C573.64394287 567.93286255 573.64394287 567.93286255 572.64306641 568.43823242 C566.46591522 571.4449706 560.62962682 573.285284 553.6875 573.25 C552.66011719 573.25515625 551.63273438 573.2603125 550.57421875 573.265625 C548 573 548 573 546 571 C544.85445331 559.16268423 549.72543435 550.09801158 555.9609375 540.37109375 C560.501067 532.86509422 565.69343328 523.97519636 564 515 C562.21985591 512.62647455 560.93838556 512.16615277 558.05859375 511.65625 C555.62941743 511.40674701 555.62941743 511.40674701 552 512 C551.60296875 512.70640625 551.2059375 513.4128125 550.796875 514.140625 C548.14709538 518.35723082 544.41804801 520.5281857 540.3125 523.25 C539.4654248 523.81920166 538.61834961 524.38840332 537.74560547 524.97485352 C512.03518354 542.04536106 488.03908882 551.56191081 457 551 C457.06783691 550.34193359 457.13567383 549.68386719 457.20556641 549.00585938 C458.90018938 533.79868934 458.90018938 533.79868934 453 520 C447.87947057 514.40314225 441.68306808 512.49402308 434.296875 511.71484375 C423.63568415 511.36454748 415.54426487 513.79894858 407.40625 520.7265625 C404.20854631 523.74776956 401.25632534 526.96888418 398.3984375 530.3125 C392.99148195 534.11674234 383.66436216 531.6484919 377.3671875 530.94140625 C376.37171906 530.8327977 375.37625061 530.72418915 374.35061646 530.61228943 C372.25777268 530.38312011 370.16515371 530.15188933 368.07275391 529.91870117 C364.87842477 529.56288149 361.68344018 529.21351603 358.48828125 528.86523438 C356.44787523 528.64100172 354.40750921 528.41640478 352.3671875 528.19140625 C350.94199295 528.03509483 350.94199295 528.03509483 349.48800659 527.87562561 C345.92142721 527.47687 342.40181616 527.07529347 338.87304688 526.4140625 C335.11305796 525.87217423 331.44439254 526.03109027 327.6640625 526.18359375 C326.02479488 526.22552773 324.38546718 526.26516378 322.74609375 526.30273438 C320.19996851 526.36379662 317.65719747 526.4360763 315.11279297 526.54858398 C301.91644849 527.10845241 293.27360332 524.83691053 282 518 C280.40557023 517.124092 278.80959604 516.25097838 277.2109375 515.3828125 C275.92797664 514.63758795 274.64916171 513.88517112 273.375 513.125 C272.68043701 512.71282227 271.98587402 512.30064453 271.27026367 511.87597656 C266.49861671 509.00134624 261.86215172 505.9640416 257.3125 502.75 C256.76062012 502.36215332 256.20874023 501.97430664 255.64013672 501.57470703 C249.06723936 496.80708471 243.74191578 492.16253096 242 484 C241.42363843 479.33929844 241.3050487 475.48918135 243.3125 471.1875 C249.86484197 465.8541984 256.8973892 463.18134548 265.36328125 463.65234375 C272.5364688 464.59814181 277.34798524 466.30379076 281.85546875 472.15234375 C283.39258065 474.63375648 284.20148994 477.20521478 285 480 C287.80915474 481.40457737 289.88810534 481.24895157 293 481 C295.23868388 479.88363223 295.23868388 479.88363223 297 478 C298.16085017 473.40182723 297.7448375 468.83258131 295.96484375 464.453125 C292.45780988 458.63086264 288.20344517 455.58055223 282 453 C281.26136719 452.68160156 280.52273438 452.36320312 279.76171875 452.03515625 C265.47887731 446.82611996 248.17864756 449.8585348 234.58203125 455.87109375 C222.67597783 461.27344551 222.67597783 461.27344551 214.6875 471.125 C214.38199219 471.78757812 214.07648438 472.45015625 213.76171875 473.1328125 C210.99663136 479.91082158 210.71681293 487.89601377 212.90625 494.8984375 C214.11433636 497.41528409 215.43572901 499.68905033 217 502 C217.41121094 502.61101562 217.82242188 503.22203125 218.24609375 503.8515625 C228.96329433 517.78074308 248.64255921 527.05830973 264 535 C262.64040254 537.71919491 261.37091744 537.78808451 258.5390625 538.8125 C257.60167236 539.16062744 256.66428223 539.50875488 255.69848633 539.86743164 C254.68423584 540.2411792 253.66998535 540.61492676 252.625 541 C233.5205152 548.26395528 216.18547512 557.64659913 200.5703125 570.921875 C194.89476239 575.51061764 189.27816161 578.33452964 182.5 580.875 C181.58581299 581.22014648 180.67162598 581.56529297 179.72973633 581.92089844 C170.47339058 585.32984478 161.05054228 587.94238191 151.49511719 590.36376953 C148.65186303 591.08877152 145.82030524 591.85221828 142.99072266 592.62866211 C127.18724009 596.68315343 111.19744075 598.38133259 94.96200562 599.59225464 C79.2721627 600.78404923 63.71052701 602.34109483 48.1875 604.9375 C47.47884796 605.05284088 46.77019592 605.16818176 46.04006958 605.28701782 C31.67679059 607.6553737 17.92131777 611.59896336 4.44140625 617.08203125 C2 618 2 618 0 618 C0 414.06 0 210.12 0 0 Z " fill="#297479" transform="translate(0,0)"/>
<path d="M0 0 C3.24956129 2.62730487 5.75818503 4.8514145 6.23828125 9.1171875 C7.29477545 48.37428792 -15.87634611 97.10397931 -34.05224609 131.20605469 C-35.03474993 133.06577601 -35.98214179 134.94060162 -36.92578125 136.8203125 C-45.32251134 153.35162693 -55.32387587 169.15827046 -65.625 184.5625 C-66.21341675 185.44373535 -66.21341675 185.44373535 -66.8137207 186.34277344 C-68.46845993 188.80025711 -70.15915759 191.21210316 -71.9375 193.58203125 C-72.494375 194.33871094 -73.05125 195.09539062 -73.625 195.875 C-74.09164062 196.47054687 -74.55828125 197.06609375 -75.0390625 197.6796875 C-76.86919236 202.09878156 -76.73642251 206.68712544 -75.29199219 211.22363281 C-74.31925422 213.45177613 -73.24113803 215.56127747 -72.0625 217.6875 C-71.6593457 218.43136963 -71.25619141 219.17523926 -70.84082031 219.94165039 C-67.58330131 225.63219997 -64.13330431 229.39222645 -58 232 C-57.2265625 232.36222656 -56.453125 232.72445312 -55.65625 233.09765625 C-43.75936622 237.13909765 -31.92927404 232.64892517 -21 228 C-20.3282373 227.73219727 -19.65647461 227.46439453 -18.96435547 227.18847656 C-7.09404073 222.40556586 1.2642233 214.88713204 10.18066406 205.84130859 C11.7421149 204.26099965 13.32371275 202.71051865 14.9296875 201.17578125 C18.89990152 197.34224673 21.95598696 193.61511654 25 189 C33.92866337 178.33825455 45.80128576 171.98447458 59.6015625 170.65234375 C68.96883681 170.28032369 77.75105461 171.40465892 85.0390625 177.78515625 C87.45466459 180.48124294 88.84765429 182.54296288 90 186 C107.60627904 186.9280662 125.1827807 187.24195948 142.8125 187.25 C143.81318764 187.25066278 143.81318764 187.25066278 144.83409119 187.25133896 C166.00654387 187.25866318 187.00817446 187.003131 208 184 C209.093125 183.8443457 210.18625 183.68869141 211.3125 183.52832031 C228.13339394 180.97150361 243.97456389 175.71280044 259.96166992 170.06567383 C262.96373175 169.01272085 265.98189187 168.00603604 269 167 C269 173.27 269 179.54 269 186 C254.52655589 191.64100385 240.26518943 196.08834402 225 199 C224.23220215 199.14775879 223.4644043 199.29551758 222.67333984 199.44775391 C218.02662468 200.31588884 213.37145004 201.02644256 208.68505859 201.64404297 C206.83997102 201.88864541 204.99656877 202.14620098 203.15478516 202.41455078 C164.6641635 207.89555598 124.74231787 205.59307869 86 204 C85.70343506 204.63010986 85.40687012 205.26021973 85.10131836 205.90942383 C83.86325727 208.25957171 82.73938304 209.20347436 80.5625 210.6875 C79.96566406 211.10386719 79.36882813 211.52023437 78.75390625 211.94921875 C74.75644195 214.34413611 70.53395641 214.63423965 66 214 C62.24787724 211.98497111 60.36355905 210.54533858 58 207 C57.47655733 201.55619618 58.41278847 197.80482142 61 193 C63.36775923 190.78022572 64.90022776 190.03325741 68 189 C58.3271689 188.14315473 50.15005914 190.18541465 42.2734375 196.01953125 C39.82489174 198.15254276 37.99567732 200.44303843 36 203 C12.82631917 226.75199015 -12.62000989 248.27335921 -47.375 249.375 C-60.3835908 249.15048625 -70.33669308 244.91718373 -79.92578125 236.26171875 C-85.77389939 230.20612857 -92 220.48009108 -92 212 C-92.67804687 212.69609375 -93.35609375 213.3921875 -94.0546875 214.109375 C-97.26954883 217.32197711 -100.68187565 220.2860643 -104.125 223.25 C-104.78951172 223.82282715 -105.45402344 224.3956543 -106.13867188 224.98583984 C-111.68457489 229.75226806 -117.24976426 234.48026738 -123 239 C-123.54027832 239.42490723 -124.08055664 239.84981445 -124.63720703 240.28759766 C-144.04732272 255.40974834 -164.66049884 267.34897624 -190 265 C-194.63980039 263.8449999 -197.30177215 261.84522319 -200.375 258.125 C-203.82513481 251.49012537 -204.50146645 245.3730488 -205 238 C-205.63164063 238.4846875 -206.26328125 238.969375 -206.9140625 239.46875 C-224.72816762 252.81649447 -244.06700709 262.76294082 -267 260 C-272.32127878 258.17317922 -275.94701907 254.69689373 -279 250 C-284.28712103 238.71439983 -279.94465389 226.97459064 -276 216 C-277.34578125 216.76183594 -277.34578125 216.76183594 -278.71875 217.5390625 C-286.8166663 222.03583421 -294.90382735 225.68980197 -303.63671875 228.7734375 C-306.81278716 229.84735728 -306.81278716 229.84735728 -308.92993164 231.01196289 C-311.13061357 232.06234145 -313.09500871 232.56497279 -315.484375 233.03515625 C-316.33773438 233.20466797 -317.19109375 233.37417969 -318.0703125 233.54882812 C-318.95460938 233.71833984 -319.83890625 233.88785156 -320.75 234.0625 C-321.61882812 234.23587891 -322.48765625 234.40925781 -323.3828125 234.58789062 C-330.3302712 235.94921699 -337.03714705 237.04755671 -344.12890625 237.03515625 C-353.78661879 236.69098722 -353.78661879 236.69098722 -362.7109375 239.59765625 C-364.4520083 241.64203577 -365.72085067 243.64367228 -367 246 C-374.47138648 255.74528672 -382.97465923 261.04398004 -395 264 C-401.99210019 264.84109992 -409.05538042 265.15184061 -415.2578125 261.3984375 C-420.6857593 257.04147572 -426.3826976 250.99592131 -427.26733398 243.83642578 C-427.36672847 241.38368358 -427.36020932 238.95416753 -427.3125 236.5 C-427.31733398 235.25669922 -427.31733398 235.25669922 -427.32226562 233.98828125 C-427.28104579 229.27423082 -426.80422113 225.4278893 -425 221 C-425.82854492 220.84966309 -425.82854492 220.84966309 -426.67382812 220.69628906 C-436.04838626 218.98370408 -445.39581066 217.26430557 -454.625 214.875 C-467.16484232 211.66246622 -479.09507448 210.50817323 -492 210 C-491.51789063 210.66386719 -491.03578125 211.32773437 -490.5390625 212.01171875 C-489.90742188 212.89472656 -489.27578125 213.77773438 -488.625 214.6875 C-487.99851562 215.55761719 -487.37203125 216.42773438 -486.7265625 217.32421875 C-482.21938634 224.30932208 -481.7132503 231.91017514 -483 240 C-488.8033558 257.87657511 -504.0442013 268.46809064 -520.0703125 276.640625 C-525.31934191 279.23309523 -530.63908003 281.64907422 -536 284 C-536.6811084 284.30421875 -537.3622168 284.6084375 -538.06396484 284.921875 C-555.22053384 292.45814566 -574.30387577 296.50867337 -593 296.625 C-594.04269043 296.6357959 -595.08538086 296.6465918 -596.15966797 296.65771484 C-606.02168807 296.47481978 -616.25675265 293.79137512 -623.3984375 286.58984375 C-628.167116 281.2009614 -629.37468845 277.11908062 -629 270 C-628.68202734 267.99750044 -628.35108309 265.99696063 -628 264 C-629.13953125 264.44730469 -630.2790625 264.89460938 -631.453125 265.35546875 C-646.24807566 271.05398346 -661.01928625 275.36689111 -676.765625 277.42578125 C-678.16362083 277.61250145 -678.16362083 277.61250145 -679.58985901 277.80299377 C-693.98090885 279.692451 -708.41392793 281.26455539 -722.83862305 282.87231445 C-752.45394697 286.18233903 -780.20656369 290.71664829 -808.12084961 301.32910156 C-810 302 -810 302 -811 302 C-811 297.71 -811 293.42 -811 289 C-795.21855184 282.63016378 -779.83318069 277.83711009 -763 275 C-762.3001297 274.88165298 -761.6002594 274.76330597 -760.87918091 274.64137268 C-750.65524907 272.94279423 -740.43954996 271.678313 -730.11328125 270.7890625 C-728.99087036 270.69232742 -727.86845947 270.59559235 -726.71203613 270.4959259 C-722.09502218 270.10345026 -717.47754804 269.71822361 -712.85864258 269.34863281 C-690.23700723 267.51977923 -668.52078837 264.00284843 -647.00292969 256.66699219 C-644.15050196 255.71711011 -641.26302088 254.89681714 -638.375 254.0625 C-626.86040238 250.47429844 -616.25790632 247.03800578 -607.56640625 238.390625 C-591.273609 223.21377277 -568.5311653 214.59115896 -548 207 C-548.51272461 206.70867187 -549.02544922 206.41734375 -549.55371094 206.1171875 C-594.1575241 180.70919362 -594.1575241 180.70919362 -600 163 C-600.86209057 154.69987221 -600.65808631 147.11694498 -596 140 C-593.75 137.3125 -593.75 137.3125 -591 135 C-590.43539062 134.51917969 -589.87078125 134.03835938 -589.2890625 133.54296875 C-575.46399609 122.39827236 -556.45115977 118.25668126 -539 120 C-529.13842678 121.82142718 -520.28625271 125.78149348 -514.4375 134.25 C-512.1714602 138.87649792 -512.09020048 144.0000583 -513 149 C-515.56670685 152.24612925 -517.00424284 152.85774898 -521.0625 153.4375 C-524.43225536 152.93562154 -525.71811427 152.52637349 -528 150 C-528.28875 148.88625 -528.5775 147.7725 -528.875 146.625 C-530.30123777 142.02934495 -532.0192878 140.62877221 -536 138 C-542.88929525 135.16323137 -550.30134661 134.61409796 -557.3046875 137.23828125 C-563.49296269 140.10310565 -563.49296269 140.10310565 -568 145 C-569.07891836 151.9502415 -567.87414916 158.14596799 -564 164 C-552.94757374 177.23595437 -529.41779542 190.7271314 -513 196 C-510.41090875 196.11989848 -507.94048354 196.13957249 -505.359375 196.0546875 C-503.81423001 196.02602413 -502.26906223 195.99857035 -500.72387695 195.97216797 C-499.91326813 195.95555115 -499.1026593 195.93893433 -498.26748657 195.92181396 C-480.36644508 195.58893484 -463.19251643 196.98262067 -445.49121094 199.51269531 C-440.64935503 200.18852359 -435.79934679 200.74101392 -430.9375 201.25 C-430.22440674 201.32976074 -429.51131348 201.40952148 -428.77661133 201.49169922 C-426.85435293 201.69498115 -424.92703477 201.84854742 -423 202 C-422.32283936 202.08080811 -421.64567871 202.16161621 -420.94799805 202.24487305 C-416.77997299 202.56268557 -415.17555098 202.13605743 -411.83984375 199.55078125 C-410.85335502 198.48872745 -409.88628931 197.40836365 -408.9375 196.3125 C-407.89894936 195.20280468 -406.85731571 194.09598606 -405.8125 192.9921875 C-405.32394531 192.4672168 -404.83539063 191.94224609 -404.33203125 191.40136719 C-397.6181656 184.33802613 -388.98885124 181.93572288 -379.4375 181.625 C-370.86551553 181.9302701 -363.94901888 183.94103031 -357.6953125 189.9921875 C-352.81348147 195.77389522 -351.54742874 201.4806963 -351.6640625 208.93359375 C-352.14777118 213.34884157 -353.07519615 217.65853015 -354 222 C-320.14042663 221.11449461 -292.10818304 210.11957135 -265.5234375 189.03125 C-264 188 -264 188 -262 188 C-261.690625 187.195625 -261.38125 186.39125 -261.0625 185.5625 C-260 183 -260 183 -259 182 C-254.53787481 181.62815623 -252.02078059 181.4896097 -248 183.5 C-245.66774831 186.41531461 -245.64290866 188.16125283 -245.74169922 191.81982422 C-246.17272669 195.45789159 -247.51659218 198.5183553 -249.0625 201.8125 C-249.37614502 202.50827148 -249.68979004 203.20404297 -250.01293945 203.92089844 C-251.94450578 208.09127101 -254.12329332 211.9258909 -256.6875 215.75 C-262.10790087 223.88060131 -264.8009394 232.22853937 -264 242 C-262.25719026 243.74280974 -259.93299343 243.21376316 -257.5625 243.25 C-233.05024198 242.90394459 -209.41567464 221.51940718 -193 205 C-191.38509863 203.53049168 -189.76008147 202.07202098 -188.125 200.625 C-180.25476072 193.60804982 -180.25476072 193.60804982 -173.5 185.5625 C-171 183 -171 183 -167.5 182.375 C-163.44355276 183.09936558 -161.70105821 183.88969054 -159 187 C-158.17728237 190.21607801 -158.53477279 192.0887843 -160.0390625 195.03515625 C-162.75671188 199.33936631 -165.90055628 203.04071519 -169.375 206.75 C-179.76650383 218.01768459 -187.51690156 231.49295314 -187 247 C-185.14949565 248.85050435 -182.43328208 248.38745064 -179.9375 248.5 C-156.42851048 248.30887 -133.21364451 227.21364451 -117.4375 211.4375 C-115.43152082 209.43152082 -113.3992626 207.59524117 -111.25 205.75 C-100.68969888 197.3875846 -100.68969888 197.3875846 -95.359375 185.81640625 C-95.21278442 184.5639209 -95.21278442 184.5639209 -95.06323242 183.28613281 C-94.95986572 182.38733398 -94.85649902 181.48853516 -94.75 180.5625 C-93.33277573 169.60666625 -90.52776146 159.44519462 -87 149 C-86.62222412 147.87053955 -86.62222412 147.87053955 -86.23681641 146.71826172 C-83.53651089 138.70189484 -80.54718899 130.82950322 -77.38948059 122.9838562 C-75.58509794 118.49080698 -73.82810389 113.9820124 -72.10546875 109.45703125 C-59.29086664 75.83034515 -44.45601498 43.61980229 -23.5090332 14.17041016 C-22.27034096 12.38882561 -21.12154663 10.54506161 -20 8.6875 C-15.16286204 2.18759587 -8.24240372 -1.47816987 0 0 Z " fill="#F8FCFC" transform="translate(811,329)"/>
<path d="M0 0 C2.2421875 1.609375 2.2421875 1.609375 3.875 3.75 C4.42929687 4.44609375 4.98359375 5.1421875 5.5546875 5.859375 C8.69105743 10.50459316 10.02541031 14.36024331 9 20 C2.26276687 38.42831415 -14.03984037 47.01481873 -30.87109375 54.88842773 C-44.60459928 61.11315576 -62.66438695 68.38054441 -77.75 63.0234375 C-81.3468685 60.86796116 -83.4638516 58.97023863 -85 55 C-85.56880018 49.78100892 -84.21458451 45.74121861 -81.125 41.5625 C-64.59757338 22.32511071 -40.56480321 11.25126875 -17.0625 2.8125 C-16.26497314 2.52101074 -15.46744629 2.22952148 -14.64575195 1.92919922 C-9.57886194 0.19914669 -5.35589592 -0.59762919 0 0 Z " fill="#2B7579" transform="translate(284,547)"/>
<path d="M0 0 C0.33 0 0.66 0 1 0 C-0.02232832 43.03072831 -28.98387564 92.55359724 -50 129 C-50.53254395 129.92409668 -51.06508789 130.84819336 -51.61376953 131.80029297 C-53.25085164 134.62441504 -54.90273902 137.43915478 -56.5625 140.25 C-57.07554687 141.12696533 -57.58859375 142.00393066 -58.1171875 142.9074707 C-58.59542969 143.70628662 -59.07367187 144.50510254 -59.56640625 145.328125 C-60.19977905 146.39401855 -60.19977905 146.39401855 -60.84594727 147.48144531 C-61.41720337 148.23312988 -61.41720337 148.23312988 -62 149 C-62.66 149 -63.32 149 -64 149 C-62.56667721 139.78055243 -59.58969498 131.06175479 -56.625 122.25 C-56.36155792 121.46265472 -56.09811584 120.67530945 -55.82669067 119.86410522 C-43.73757839 83.84006669 -28.72548876 48.71173103 -10.125 15.5625 C-9.57730957 14.58458496 -9.02961914 13.60666992 -8.46533203 12.59912109 C-3.44823825 3.77702375 -3.44823825 3.77702375 0 0 Z " fill="#31767A" transform="translate(797,355)"/>
<path d="M0 0 C0.66 0 1.32 0 2 0 C2.51046875 1.06927734 2.51046875 1.06927734 3.03125 2.16015625 C8.27432478 12.52080669 14.73405375 17.84326311 25 23 C24.06933198 28.62225477 20.0521661 32.26056265 16 36 C10.22022137 39.96275502 4.99425367 42.06692005 -2 41 C-5.27981751 38.93228896 -6.84746007 37.22880989 -9 34 C-10.87539896 21.28725459 -7.35126608 12.76895432 -1 2 C-0.67 1.34 -0.34 0.68 0 0 Z " fill="#2F767A" transform="translate(408,538)"/>
<path d="M0 0 C2.69990662 1.79993774 4.5418865 3.083773 6 6 C6.12595108 8.89687477 6.17457063 11.38900279 5.375 14.1875 C5.25125 14.785625 5.1275 15.38375 5 16 C5.66 16.99 6.32 17.98 7 19 C7.1953125 21.91796875 7.1953125 21.91796875 7.125 25.1875 C7.10695313 26.27417969 7.08890625 27.36085938 7.0703125 28.48046875 C7.04710937 29.31191406 7.02390625 30.14335938 7 31 C5.68 31 4.36 31 3 31 C2.67 26.71 2.34 22.42 2 18 C0.02 18.33 -1.96 18.66 -4 19 C-4.33 22.96 -4.66 26.92 -5 31 C-6.32 31 -7.64 31 -9 31 C-9 21.1 -9 11.2 -9 1 C-5.66660588 -0.11113137 -3.49519344 -0.34951934 0 0 Z " fill="#E1F1F2" transform="translate(493,657)"/>
<path d="M0 0 C9.17647059 0 9.17647059 0 14 4 C15.74865494 7.49730988 15.69679591 11.19391668 15 15 C12.75363434 18.21878569 9.89004317 19.74846606 6.125 20.8125 C5.42375 20.874375 4.7225 20.93625 4 21 C4 23.97 4 26.94 4 30 C2.68 29.67 1.36 29.34 0 29 C0 19.43 0 9.86 0 0 Z " fill="#EAF9F9" transform="translate(414,658)"/>
<path d="M0 0 C4 1 4 1 5.81640625 3.328125 C6.39261719 4.29234375 6.96882812 5.2565625 7.5625 6.25 C8.14128906 7.20390625 8.72007812 8.1578125 9.31640625 9.140625 C9.87199219 10.08421875 10.42757812 11.0278125 11 12 C11.99 13.65 12.98 15.3 14 17 C14.33 11.39 14.66 5.78 15 0 C16.32 0.33 17.64 0.66 19 1 C19 10.57 19 20.14 19 30 C15 29 15 29 13.64379883 27.15820312 C13.25216553 26.37380859 12.86053223 25.58941406 12.45703125 24.78125 C11.80637695 23.50701172 11.80637695 23.50701172 11.14257812 22.20703125 C10.70365234 21.31371094 10.26472656 20.42039062 9.8125 19.5 C8.92436772 17.73898235 8.03510492 15.97853426 7.14453125 14.21875 C6.75628174 13.43435547 6.36803223 12.64996094 5.96801758 11.84179688 C5.13555397 10.03657157 5.13555397 10.03657157 4 9 C3.67 15.93 3.34 22.86 3 30 C2.01 30 1.02 30 0 30 C0 20.1 0 10.2 0 0 Z " fill="#C5E0E2" transform="translate(582,658)"/>
<path d="M0 0 C2.9375 1.6875 2.9375 1.6875 5 5 C5.22574868 10.7529502 4.54638762 16.45199531 3 22 C-3.30448146 21.84238796 -6.81587989 18.32392365 -11 14 C-12.58939347 10.82121306 -12.41576711 8.5043228 -12 5 C-8.35740398 0.92376159 -5.51295534 -1.17296922 0 0 Z " fill="#31767A" transform="translate(438,526)"/>
<path d="M0 0 C0.99 0.33 1.98 0.66 3 1 C1.99861373 4.23524795 0.95163931 7.0877657 -0.6875 10.0625 C-2.23815873 13.53302193 -2.10320581 14.43262419 -1 18 C0.28055637 20.10899241 1.6417041 22.17032063 3.0625 24.1875 C7 29.79964851 7 29.79964851 7 32 C3.80732289 31.68997854 2.38660367 31.42853465 0.19921875 29.00390625 C-0.29964844 28.19824219 -0.79851562 27.39257812 -1.3125 26.5625 C-1.82425781 25.75941406 -2.33601563 24.95632813 -2.86328125 24.12890625 C-4 22 -4 22 -4 20 C-4.66 20 -5.32 20 -6 20 C-6.20496094 20.69867187 -6.40992188 21.39734375 -6.62109375 22.1171875 C-6.89050781 23.02726563 -7.15992188 23.93734375 -7.4375 24.875 C-7.70433594 25.77992188 -7.97117187 26.68484375 -8.24609375 27.6171875 C-9 30 -9 30 -10 32 C-11.32 32 -12.64 32 -14 32 C-13.54636829 30.41531323 -13.08688548 28.83230076 -12.625 27.25 C-12.36976563 26.36828125 -12.11453125 25.4865625 -11.8515625 24.578125 C-11 22 -11 22 -9.8984375 19.984375 C-8.74467994 17.4360757 -8.64966794 15.77238085 -9 13 C-10.4214475 10.78748607 -12.05728584 8.94347086 -13.78515625 6.96484375 C-15 5 -15 5 -14.68359375 2.75390625 C-14.45800781 2.17511719 -14.23242188 1.59632813 -14 1 C-9.33845958 2.49835228 -8.13389249 5.88463591 -6 10 C-5.65066406 9.36191406 -5.30132812 8.72382812 -4.94140625 8.06640625 C-4.48636719 7.24011719 -4.03132813 6.41382813 -3.5625 5.5625 C-2.88380859 4.32693359 -2.88380859 4.32693359 -2.19140625 3.06640625 C-1 1 -1 1 0 0 Z " fill="#E9F7F7" transform="translate(389,656)"/>
<path d="M0 0 C0.99 0.66 1.98 1.32 3 2 C3 2.99 3 3.98 3 5 C0.98177083 4.67447917 -1.03645833 4.34895833 -3.0546875 4.0234375 C-3.69664062 4.01570312 -4.33859375 4.00796875 -5 4 C-7.28728734 5.83883881 -7.28728734 5.83883881 -7.125 8.625 C-7.08375 9.40875 -7.0425 10.1925 -7 11 C-5.96875 11.226875 -4.9375 11.45375 -3.875 11.6875 C0.43987361 12.94161977 2.8886722 14.74051374 6 18 C7.28963697 21.6413279 7.34449114 23.20223104 5.8125 26.75 C3.39641023 29.74928386 1.36792092 30.79174281 -2.4375 31.37109375 C-9.32480689 31.54957579 -9.32480689 31.54957579 -12.6875 28.8125 C-14.18232588 25.60930168 -14.12924853 24.29364156 -13 21 C-12.01 21.33 -11.02 21.66 -10 22 C-8.8125 24.5625 -8.8125 24.5625 -8 27 C-4.74704886 27.22179212 -2.57202207 27.28601103 0.375 25.8125 C2.26271671 24.06902646 2.26271671 24.06902646 2.25 21.3125 C2.1675 20.549375 2.085 19.78625 2 19 C-0.86759725 17.53285722 -3.64289267 16.12457232 -6.6875 15.0625 C-9.55009451 13.74725388 -10.61722893 12.84236275 -12 10 C-11.93480059 6.28363374 -11.79890124 3.95253609 -9.375 1.0625 C-6.09708604 -0.40393519 -3.55025388 -0.32275035 0 0 Z " fill="#E3F3F4" transform="translate(706,657)"/>
<path d="M0 0 C5.28 0 10.56 0 16 0 C16 0.99 16 1.98 16 3 C13.47524538 4.26237731 11.68799534 4.09856404 8.875 4.0625 C7.26625 4.041875 5.6575 4.02125 4 4 C4 7.3 4 10.6 4 14 C7.96 14 11.92 14 16 14 C16 14.99 16 15.98 16 17 C11.71 17 7.42 17 3 17 C3 20.3 3 23.6 3 27 C7.29 27 11.58 27 16 27 C15.67 27.99 15.34 28.98 15 30 C10.05 30 5.1 30 0 30 C0 20.1 0 10.2 0 0 Z " fill="#E5F5F6" transform="translate(658,658)"/>
<path d="M0 0 C5.28 0 10.56 0 16 0 C16 0.99 16 1.98 16 3 C13.35541621 4.32229189 11.32238699 4.09677194 8.375 4.0625 C7.37210937 4.05347656 6.36921875 4.04445313 5.3359375 4.03515625 C4.56507813 4.02355469 3.79421875 4.01195312 3 4 C3 7.3 3 10.6 3 14 C7.29 14 11.58 14 16 14 C15.67 14.99 15.34 15.98 15 17 C11.04 17 7.08 17 3 17 C3 20.3 3 23.6 3 27 C7.29 27 11.58 27 16 27 C15.67 27.99 15.34 28.98 15 30 C10.05 30 5.1 30 0 30 C0 20.1 0 10.2 0 0 Z " fill="#F0FCFC" transform="translate(341,658)"/>
<path d="M0 0 C5.28 0 10.56 0 16 0 C16 0.99 16 1.98 16 3 C12.98509443 4.00496852 10.95818308 4.10335303 7.8125 4.0625 C6.224375 4.041875 4.63625 4.02125 3 4 C3 7.3 3 10.6 3 14 C7.29 14 11.58 14 16 14 C15.67 14.99 15.34 15.98 15 17 C11.04 17 7.08 17 3 17 C3 20.3 3 23.6 3 27 C7.29 27 11.58 27 16 27 C15.67 27.99 15.34 28.98 15 30 C10.05 30 5.1 30 0 30 C0 20.1 0 10.2 0 0 Z " fill="#F0FDFD" transform="translate(449,658)"/>
<path d="M0 0 C5.28 0 10.56 0 16 0 C16 0.99 16 1.98 16 3 C13.00519083 3.8723412 10.36424089 4.10829766 7.25 4.0625 C5.14625 4.0315625 5.14625 4.0315625 3 4 C3 7.3 3 10.6 3 14 C7.29 14 11.58 14 16 14 C15.67 14.99 15.34 15.98 15 17 C11.04 17 7.08 17 3 17 C3 20.3 3 23.6 3 27 C7.29 27 11.58 27 16 27 C15.67 27.99 15.34 28.98 15 30 C10.05 30 5.1 30 0 30 C0 20.1 0 10.2 0 0 Z " fill="#EDFBFB" transform="translate(546,658)"/>
<path d="M0 0 C3.60283261 0.44245313 5.07814772 0.85377362 7.5625 3.4375 C7.5625 4.0975 7.5625 4.7575 7.5625 5.4375 C4.9225 5.1075 2.2825 4.7775 -0.4375 4.4375 C-5.23466275 9.53448542 -4.87832277 14.50492096 -4.87109375 21.29296875 C-4.69431882 24.39198059 -4.69431882 24.39198059 -3.078125 26.3203125 C-0.93790214 27.77770235 1.01993462 28.09391008 3.5625 28.4375 C3.8925 27.4475 4.2225 26.4575 4.5625 25.4375 C5.5525 25.4375 6.5425 25.4375 7.5625 25.4375 C7.20517506 28.02810578 6.7008604 29.28317494 4.9375 31.25 C1.35129432 33.04310284 -0.66002479 32.65168846 -4.4375 31.4375 C-8.30383626 26.89976403 -9.73591708 21.56136568 -9.66015625 15.6953125 C-9.02269932 9.23127556 -7.14053348 0.90879517 0 0 Z " fill="#DAEEEF" transform="translate(630.4375,656.5625)"/>
<path d="M0 0 C2.31 0 4.62 0 7 0 C6.67 8.91 6.34 17.82 6 27 C6.66 27 7.32 27 8 27 C8 27.99 8 28.98 8 30 C5.36 30 2.72 30 0 30 C0.33 29.01 0.66 28.02 1 27 C1.14835948 25.22833025 1.24770018 23.45232388 1.31640625 21.67578125 C1.35830078 20.64775391 1.40019531 19.61972656 1.44335938 18.56054688 C1.48267578 17.48869141 1.52199219 16.41683594 1.5625 15.3125 C1.60568359 14.22904297 1.64886719 13.14558594 1.69335938 12.02929688 C1.79946838 9.35299209 1.90152361 6.67659474 2 4 C1.01 4 0.02 4 -1 4 C-0.67 2.68 -0.34 1.36 0 0 Z " fill="#C1DDDF" transform="translate(519,658)"/>
<path d="M0 0 C6 1 6 1 7.875 2.75 C9.26158364 5.52316728 9.61113966 6.94430168 9 10 C6.75 12.3125 6.75 12.3125 4 14 C2.68 14 1.36 14 0 14 C0 9.38 0 4.76 0 0 Z " fill="#437E83" transform="translate(417,661)"/>
<path d="M0 0 C4 1 4 1 5 2 C5.04063832 3.66617115 5.042721 5.33388095 5 7 C4.01 7 3.02 7 2 7 C2.33 7.66 2.66 8.32 3 9 C3.08400529 10.59447464 3.10727467 12.19240545 3.09765625 13.7890625 C3.09443359 14.73007812 3.09121094 15.67109375 3.08789062 16.640625 C3.07951172 17.62546875 3.07113281 18.6103125 3.0625 19.625 C3.05798828 20.61757813 3.05347656 21.61015625 3.04882812 22.6328125 C3.03702145 25.0886016 3.020554 27.54427104 3 30 C2.01 30 1.02 30 0 30 C0 20.1 0 10.2 0 0 Z " fill="#F1FCFD" transform="translate(582,658)"/>
<path d="M0 0 C5.28 0 10.56 0 16 0 C16 0.99 16 1.98 16 3 C13.35541621 4.32229189 11.32238699 4.09677194 8.375 4.0625 C7.37210937 4.05347656 6.36921875 4.04445313 5.3359375 4.03515625 C4.56507813 4.02355469 3.79421875 4.01195312 3 4 C3.04125 5.03125 3.0825 6.0625 3.125 7.125 C3.00424851 10.86829627 2.35127982 13.53734547 1 17 C0.67 17 0.34 17 0 17 C0 11.39 0 5.78 0 0 Z " fill="#F4FEFE" transform="translate(341,658)"/>
<path d="M0 0 C3.70237797 0.31917051 5.08801878 0.67403953 7.625 3.3125 C7.625 3.9725 7.625 4.6325 7.625 5.3125 C4.985 4.9825 2.345 4.6525 -0.375 4.3125 C-3.69132363 8.62372073 -5.0016392 12.08906739 -5.8828125 17.45703125 C-6.04523437 18.06933594 -6.20765625 18.68164062 -6.375 19.3125 C-7.035 19.6425 -7.695 19.9725 -8.375 20.3125 C-8.70665262 13.51976311 -8.70598087 8.3338885 -5.375 2.3125 C-3.375 0.3125 -3.375 0.3125 0 0 Z " fill="#EAF8F9" transform="translate(630.375,656.6875)"/>
<path d="M0 0 C0.66 0 1.32 0 2 0 C2 5.61 2 11.22 2 17 C2.66 17.33 3.32 17.66 4 18 C3.67 18.33 3.34 18.66 3 19 C2.76712992 20.68183948 2.58735834 22.3712416 2.4375 24.0625 C2.31181641 25.44115234 2.31181641 25.44115234 2.18359375 26.84765625 C2.12300781 27.55792969 2.06242187 28.26820313 2 29 C1.01 28.67 0.02 28.34 -1 28 C-1.02886338 23.52084672 -1.04675187 19.04171709 -1.0625 14.5625 C-1.07087891 13.28310547 -1.07925781 12.00371094 -1.08789062 10.68554688 C-1.09111328 9.47060547 -1.09433594 8.25566406 -1.09765625 7.00390625 C-1.10289307 5.87799072 -1.10812988 4.7520752 -1.11352539 3.59204102 C-1 1 -1 1 0 0 Z " fill="#F5FEFE" transform="translate(415,659)"/>
<path d="M0 0 C0.99 0.66 1.98 1.32 3 2 C3 2.99 3 3.98 3 5 C0.98177083 4.67447917 -1.03645833 4.34895833 -3.0546875 4.0234375 C-3.69664062 4.01570312 -4.33859375 4.00796875 -5 4 C-7.25195569 5.81809477 -7.25195569 5.81809477 -7.1875 8.4375 C-7.09695513 11.11939103 -7.09695513 11.11939103 -6 14 C-7.875 13.6875 -7.875 13.6875 -10 13 C-12 10 -12 10 -11.875 6.5 C-11 3 -11 3 -9.375 1.0625 C-6.09708604 -0.40393519 -3.55025388 -0.32275035 0 0 Z " fill="#E6F6F7" transform="translate(706,657)"/>
<path d="M0 0 C-1 2 -1 2 -3.8125 3.25 C-7.52884773 5.29034777 -8.90463895 7.37341357 -11 11 C-11.12375 10.401875 -11.2475 9.80375 -11.375 9.1875 C-11.95475985 6.73768652 -11.95475985 6.73768652 -14 4 C-16.58380177 3.74969023 -16.58380177 3.74969023 -19 4 C-19 4.66 -19 5.32 -19 6 C-20.98 6.33 -22.96 6.66 -25 7 C-18.47213024 -0.27867906 -9.14791136 -0.56585019 0 0 Z " fill="#427D7F" transform="translate(880,517)"/>
<path d="M0 0 C1.32 0 2.64 0 4 0 C3.125 5.875 3.125 5.875 2 7 C1.76636119 8.84891946 1.58696365 10.70488031 1.4375 12.5625 C1.35371094 13.57441406 1.26992188 14.58632813 1.18359375 15.62890625 C1.12300781 16.41136719 1.06242187 17.19382812 1 18 C1.66 18 2.32 18 3 18 C3 21.96 3 25.92 3 30 C2.01 30 1.02 30 0 30 C0 20.1 0 10.2 0 0 Z " fill="#ECFAFA" transform="translate(484,658)"/>
<path d="M0 0 C0.66 0 1.32 0 2 0 C2.33 7.26 2.66 14.52 3 22 C3.66 22.33 4.32 22.66 5 23 C5 23.99 5 24.98 5 26 C2.36 26 -0.28 26 -3 26 C-3 25.34 -3 24.68 -3 24 C-2.01 24 -1.02 24 0 24 C0 16.08 0 8.16 0 0 Z " fill="#F2FCFC" transform="translate(522,662)"/>
<path d="M0 0 C1.65 0 3.3 0 5 0 C7 2 7 2 7.4375 4.9375 C7 8 7 8 4.625 9.875 C2 11 2 11 0 11 C0 7.37 0 3.74 0 0 Z " fill="#39777A" transform="translate(488,661)"/>
<path d="M0 0 C0 0.99 0 1.98 0 3 C-3.01490557 4.00496852 -5.04181692 4.10335303 -8.1875 4.0625 C-9.08855469 4.05347656 -9.98960937 4.04445313 -10.91796875 4.03515625 C-11.60503906 4.02355469 -12.29210937 4.01195312 -13 4 C-13 6.97 -13 9.94 -13 13 C-13.66 12.67 -14.32 12.34 -15 12 C-15 8.37 -15 4.74 -15 1 C-4.5 0 -4.5 0 0 0 Z " fill="#E6F3F4" transform="translate(465,658)"/>
<path d="M0 0 C2 2 2 2 2.1953125 3.9453125 C2.13020833 5.96354167 2.06510417 7.98177083 2 10 C6.29 10 10.58 10 15 10 C14.67 10.99 14.34 11.98 14 13 C11.85423363 13.02685938 9.70837355 13.04633088 7.5625 13.0625 C6.36753906 13.07410156 5.17257812 13.08570313 3.94140625 13.09765625 C1 13 1 13 0 12 C-0.07244053 9.98035801 -0.08377188 7.95832876 -0.0625 5.9375 C-0.05347656 4.83277344 -0.04445313 3.72804688 -0.03515625 2.58984375 C-0.02355469 1.73519531 -0.01195312 0.88054688 0 0 Z " fill="#F7FEFE" transform="translate(659,675)"/>
<path d="M0 0 C4.17906895 3.55994763 6.68559431 8.08663054 9 13 C9 13.66 9 14.32 9 15 C8.34 15 7.68 15 7 15 C6.67 15.66 6.34 16.32 6 17 C5.27683594 15.700625 5.27683594 15.700625 4.5390625 14.375 C3.90742187 13.26125 3.27578125 12.1475 2.625 11 C1.99851562 9.88625 1.37203125 8.7725 0.7265625 7.625 C0.15679688 6.75875 -0.41296875 5.8925 -1 5 C-1.66 5 -2.32 5 -3 5 C-3 4.34 -3 3.68 -3 3 C-2.01 3 -1.02 3 0 3 C0 2.01 0 1.02 0 0 Z " fill="#E3F3F4" transform="translate(587,662)"/>
<path d="M0 0 C0.99 0 1.98 0 3 0 C3 7.92 3 15.84 3 24 C-1.37670357 17.43494465 -0.14996503 7.68154222 0 0 Z " fill="#EFFCFC" transform="translate(597,658)"/>
<path d="M0 0 C0.33 0 0.66 0 1 0 C1 3.63 1 7.26 1 11 C1.99 11.33 2.98 11.66 4 12 C3.01 12.33 2.02 12.66 1 13 C1 17.62 1 22.24 1 27 C0.67 27 0.34 27 0 27 C0 23.04 0 19.08 0 15 C-0.66 15 -1.32 15 -2 15 C-2.05429959 13.25034642 -2.09292823 11.50020213 -2.125 9.75 C-2.15980469 8.28820312 -2.15980469 8.28820312 -2.1953125 6.796875 C-1.99862781 3.9803502 -1.44568916 2.39050964 0 0 Z " fill="#DCEAEB" transform="translate(487,661)"/>
<path d="M0 0 C0 4.02197773 -1.2932859 5.07959795 -4 8 C-5.96722008 9.38123963 -7.96868328 10.71488126 -10 12 C-10.86625 12.7425 -11.7325 13.485 -12.625 14.25 C-15 16 -15 16 -19 16 C-19.66 17.32 -20.32 18.64 -21 20 C-21 19.34 -21 18.68 -21 18 C-21.66 17.67 -22.32 17.34 -23 17 C-22.09378906 16.443125 -21.18757813 15.88625 -20.25390625 15.3125 C-12.92476685 10.74362044 -6.22641967 6.04522757 0 0 Z " fill="#427B7F" transform="translate(317,586)"/>
<path d="M0 0 C5.28 0 10.56 0 16 0 C16 0.99 16 1.98 16 3 C13.47524538 4.26237731 11.68799534 4.09856404 8.875 4.0625 C7.96492187 4.05347656 7.05484375 4.04445313 6.1171875 4.03515625 C5.41851563 4.02355469 4.71984375 4.01195312 4 4 C4.33 3.34 4.66 2.68 5 2 C3.68 1.67 2.36 1.34 1 1 C1 4.63 1 8.26 1 12 C0.67 12 0.34 12 0 12 C0 8.04 0 4.08 0 0 Z " fill="#D9ECED" transform="translate(658,658)"/>
<path d="M0 0 C0 0.99 0 1.98 0 3 C-4.95 3.66 -9.9 4.32 -15 5 C-15 3.68 -15 2.36 -15 1 C-10.03926578 -0.32286246 -5.08888488 -0.08893197 0 0 Z " fill="#EEF9FA" transform="translate(562,658)"/>
<path d="M0 0 C3.63 0 7.26 0 11 0 C11 0.33 11 0.66 11 1 C8.36 1.33 5.72 1.66 3 2 C2.67 3.98 2.34 5.96 2 8 C5.3 8 8.6 8 12 8 C12 8.66 12 9.32 12 10 C8.04 10 4.08 10 0 10 C0 6.7 0 3.4 0 0 Z " fill="#518284" transform="translate(549,675)"/>
<path d="M0 0 C0.33 0.99 0.66 1.98 1 3 C-4.625 7 -4.625 7 -8 7 C-8 9.97 -8 12.94 -8 16 C-8.33 16 -8.66 16 -9 16 C-9 11.66666667 -9 7.33333333 -9 3 C-6.03 2.01 -3.06 1.02 0 0 Z " fill="#D5E8E8" transform="translate(426,672)"/>
<path d="M0 0 C1.051875 0.12375 2.10375 0.2475 3.1875 0.375 C3.1875 0.705 3.1875 1.035 3.1875 1.375 C2.341875 1.560625 1.49625 1.74625 0.625 1.9375 C-3.93791928 3.84562988 -6.51417233 6.77541992 -9.8125 10.375 C-11.43419676 12.13220242 -13.04541801 13.75517484 -14.8125 15.375 C-15.8025 15.375 -16.7925 15.375 -17.8125 15.375 C-17.22082031 14.79492188 -16.62914062 14.21484375 -16.01953125 13.6171875 C-15.22933594 12.83601562 -14.43914063 12.05484375 -13.625 11.25 C-12.38556641 10.02603516 -12.38556641 10.02603516 -11.12109375 8.77734375 C-9.26752463 6.84850279 -7.73119233 4.97990641 -6.1875 2.8125 C-3.8125 0.375 -3.8125 0.375 0 0 Z " fill="#DCEEEF" transform="translate(643.8125,511.625)"/>
<path d="M0 0 C0.33 0 0.66 0 1 0 C1.33 5.28 1.66 10.56 2 16 C1.01 16.33 0.02 16.66 -1 17 C-2.76462683 13.91190305 -3 12.76687864 -3 9 C-2.01 9 -1.02 9 0 9 C0 6.03 0 3.06 0 0 Z " fill="#D7E8E9" transform="translate(597,668)"/>
<path d="M0 0 C0.33 0.66 0.66 1.32 1 2 C0.06553465 4.03144641 -0.93224776 6.03533587 -2 8 C-2.66 8 -3.32 8 -4 8 C-4 10.97 -4 13.94 -4 17 C-3.34 17 -2.68 17 -2 17 C-2.33 17.99 -2.66 18.98 -3 20 C-5 19 -5 19 -5.58984375 17.25 C-6.63101603 10.5116266 -4.8637594 6.51262488 -1 1 C-0.67 0.67 -0.34 0.34 0 0 Z " fill="#4E8285" transform="translate(205,586)"/>
<path d="M0 0 C3 1 3 1 4.1875 3.3125 C5 6 5 6 5 10 C1.83884224 8.63016497 1.0072908 8.0109362 -1 5 C-0.625 2.3125 -0.625 2.3125 0 0 Z " fill="#DCEFF0" transform="translate(693,678)"/>
<path d="M0 0 C3.29148243 1.13499394 3.9959869 1.99283376 5.75 5.125 C6.1625 6.07375 6.575 7.0225 7 8 C5.68 8.33 4.36 8.66 3 9 C0.9375 6.75 0.9375 6.75 -1 4 C-0.75 1.6875 -0.75 1.6875 0 0 Z " fill="#DBF0F1" transform="translate(375,657)"/>
<path d="M0 0 C3.3 0 6.6 0 10 0 C10 0.33 10 0.66 10 1 C7.69 1.66 5.38 2.32 3 3 C2.67 5.97 2.34 8.94 2 12 C1.34 11.67 0.68 11.34 0 11 C0 7.37 0 3.74 0 0 Z " fill="#F9FEFE" transform="translate(659,659)"/>
<path d="M0 0 C2.75 -0.25 2.75 -0.25 6 0 C8.375 2 8.375 2 10 4 C9.01 4.66 8.02 5.32 7 6 C3.875 5.375 3.875 5.375 1 4 C0.125 1.875 0.125 1.875 0 0 Z " fill="#DBEFF0" transform="translate(487,657)"/>
<path d="M0 0 C7.59498961 -0.26442904 14.57359158 0.39118425 22 2 C22 2.33 22 2.66 22 3 C19.64575325 3.02726927 17.29183038 3.04696719 14.9375 3.0625 C12.97103516 3.07990234 12.97103516 3.07990234 10.96484375 3.09765625 C7.1836481 3.00452335 3.72079293 2.61448726 0 2 C0 1.34 0 0.68 0 0 Z " fill="#4B8084" transform="translate(327,539)"/>
<path d="M0 0 C0.99 0.33 1.98 0.66 3 1 C1.25 6.75 1.25 6.75 -1 9 C-1.99 9 -2.98 9 -4 9 C-2.25 2.25 -2.25 2.25 0 0 Z " fill="#DFF1F1" transform="translate(389,656)"/>
<path d="M0 0 C4.95 0 9.9 0 15 0 C15 0.99 15 1.98 15 3 C12.47524538 4.26237731 10.68799534 4.09856404 7.875 4.0625 C6.96492188 4.05347656 6.05484375 4.04445313 5.1171875 4.03515625 C4.41851562 4.02355469 3.71984375 4.01195312 3 4 C3 3.67 3 3.34 3 3 C6.465 2.505 6.465 2.505 10 2 C6.7 1.67 3.4 1.34 0 1 C0 0.67 0 0.34 0 0 Z " fill="#CFE7E7" transform="translate(342,658)"/>
<path d="M0 0 C1.5625 1.1875 1.5625 1.1875 3 3 C2.79262457 6.94013311 1.27233314 9.81873361 -1 13 C-1.66 13 -2.32 13 -3 13 C-2.68991116 11.39536551 -2.37683713 9.79130769 -2.0625 8.1875 C-1.88847656 7.29417969 -1.71445312 6.40085937 -1.53515625 5.48046875 C-1 3 -1 3 0 0 Z " fill="#5B898C" transform="translate(736,491)"/>
<path d="M0 0 C0.66 0.33 1.32 0.66 2 1 C-2.62 5.62 -7.24 10.24 -12 15 C-12 12 -12 12 -10.64453125 10.3515625 C-10.03996094 9.78179688 -9.43539062 9.21203125 -8.8125 8.625 C-8.17828125 8.01785156 -7.5440625 7.41070313 -6.890625 6.78515625 C-5.95476563 5.90150391 -5.95476563 5.90150391 -5 5 C-4.01719109 4.02448918 -3.03745526 3.04586004 -2.0625 2.0625 C-1.381875 1.381875 -0.70125 0.70125 0 0 Z " fill="#3B7479" transform="translate(848,530)"/>
<path d="M0 0 C2.64 0 5.28 0 8 0 C7.01 0.33 6.02 0.66 5 1 C5.66 3.31 6.32 5.62 7 8 C3.28631113 6.76210371 2.22645819 5.14775123 0 2 C0 1.34 0 0.68 0 0 Z " fill="#3B7577" transform="translate(319,539)"/>
<path d="M0 0 C0.33 0 0.66 0 1 0 C1 6.27 1 12.54 1 19 C-3 14 -3 14 -3 12 C-2.01 12 -1.02 12 0 12 C0 8.04 0 4.08 0 0 Z " fill="#497D7F" transform="translate(596,658)"/>
<path d="M0 0 C0.66 0 1.32 0 2 0 C2.33 1.98 2.66 3.96 3 6 C2.34 6 1.68 6 1 6 C0.67 5.34 0.34 4.68 0 4 C-2.31 5.98 -4.62 7.96 -7 10 C-7.66 9.67 -8.32 9.34 -9 9 C-7.6078125 7.88625 -7.6078125 7.88625 -6.1875 6.75 C-3.71061648 4.70438561 -1.913529 2.58326416 0 0 Z " fill="#4E8385" transform="translate(717,541)"/>
<path d="M0 0 C3.96 0 7.92 0 12 0 C11.67 0.99 11.34 1.98 11 3 C5.04296875 3.29296875 5.04296875 3.29296875 3 3 C2.01 2.01 1.02 1.02 0 0 Z " fill="#E9FAFA" transform="translate(662,685)"/>
<path d="M0 0 C0.66 0.33 1.32 0.66 2 1 C1.875 2.875 1.875 2.875 1 5 C-2.01427603 6.40666215 -4.05977053 7.14845728 -7.375 6.625 C-7.91125 6.41875 -8.4475 6.2125 -9 6 C-7.2421875 5.0234375 -5.484375 4.046875 -3.7265625 3.0703125 C-1.8387386 1.99102726 -1.8387386 1.99102726 0 0 Z " fill="#417C81" transform="translate(436,582)"/>
<path d="M0 0 C2.31 0 4.62 0 7 0 C6.67 0.99 6.34 1.98 6 3 C2.37 3 -1.26 3 -5 3 C-5 2.67 -5 2.34 -5 2 C-3.35 1.67 -1.7 1.34 0 1 C0 0.67 0 0.34 0 0 Z " fill="#E4F7F9" transform="translate(350,672)"/>
<path d="M0 0 C0.93045933 2.55144824 1.08564091 3.74006478 0.22265625 6.359375 C-0.16019531 7.14828125 -0.54304687 7.9371875 -0.9375 8.75 C-1.50791016 9.94882812 -1.50791016 9.94882812 -2.08984375 11.171875 C-2.39019531 11.77515625 -2.69054687 12.3784375 -3 13 C-3.66 13 -4.32 13 -5 13 C-4.54554036 11.58208592 -4.08625056 10.16571954 -3.625 8.75 C-3.24214844 7.56664062 -3.24214844 7.56664062 -2.8515625 6.359375 C-2.04826333 4.13372042 -1.10288338 2.09068328 0 0 Z " fill="#4E8485" transform="translate(770,403)"/>
<path d="M0 0 C0 0.99 0 1.98 0 3 C-2.1875 4.4375 -2.1875 4.4375 -5 6 C-6.68477344 7.31037934 -8.35648543 8.63823078 -10 10 C-8.3814778 5.00955654 -6.29961186 3.21368404 -1.75 0.8125 C-0.88375 0.4103125 -0.88375 0.4103125 0 0 Z " fill="#D9EBEC" transform="translate(880,517)"/>
<path d="M0 0 C3.78611227 0.54087318 5.55400767 2.11722332 8 5 C8 5.66 8 6.32 8 7 C7.01 7 6.02 7 5 7 C4.67 6.01 4.34 5.02 4 4 C1.49552484 2.78130071 1.49552484 2.78130071 -1 2 C-0.67 1.34 -0.34 0.68 0 0 Z " fill="#3A7779" transform="translate(274,467)"/>
<path d="M0 0 C0.66 0.33 1.32 0.66 2 1 C-0.97 3.97 -3.94 6.94 -7 10 C-7.33 9.34 -7.66 8.68 -8 8 C-5.58443874 4.80800833 -3.31996462 2.25283313 0 0 Z " fill="#DDEFF1" transform="translate(798,331)"/>
<path d="M0 0 C1.32 0 2.64 0 4 0 C3.67 0.99 3.34 1.98 3 3 C-0.96 3 -4.92 3 -9 3 C-9 2.67 -9 2.34 -9 2 C-6.94921875 1.77213542 -4.8984375 1.54427083 -2.84765625 1.31640625 C-0.98859771 1.18113386 -0.98859771 1.18113386 0 0 Z " fill="#E0F7F7" transform="translate(461,672)"/>
<path d="M0 0 C1.33333333 2.66666667 2.66666667 5.33333333 4 8 C0.125 7.125 0.125 7.125 -1 6 C-1.125 3.5 -1.125 3.5 -1 1 C-0.67 0.67 -0.34 0.34 0 0 Z " fill="#F1FDFD" transform="translate(696,663)"/>
<path d="M0 0 C1.32 0 2.64 0 4 0 C3.625 2.9375 3.625 2.9375 3 6 C2.01 6.495 2.01 6.495 1 7 C0.67 4.69 0.34 2.38 0 0 Z " fill="#F6FEFE" transform="translate(484,658)"/>
<path d="M0 0 C2.1519437 3.22791555 2.20086443 4.28400809 2 8 C0.68 8 -0.64 8 -2 8 C-1.34 5.36 -0.68 2.72 0 0 Z " fill="#D7EDEE" transform="translate(377,680)"/>
<path d="M0 0 C3.63 0.66 7.26 1.32 11 2 C11 2.33 11 2.66 11 3 C7.37 3.33 3.74 3.66 0 4 C0 2.68 0 1.36 0 0 Z " fill="#D3E3E4" transform="translate(547,659)"/>
<path d="M0 0 C0.66 0.33 1.32 0.66 2 1 C-2.18586481 4.18923033 -4.70558305 5.50423019 -10 5 C-6.76527494 2.84351662 -3.62848922 1.38542316 0 0 Z " fill="#4D8286" transform="translate(520,552)"/>
<path d="M0 0 C2.31 0 4.62 0 7 0 C6.67 0.99 6.34 1.98 6 3 C4.02 3 2.04 3 0 3 C0 2.01 0 1.02 0 0 Z " fill="#F4FEFE" transform="translate(698,685)"/>
<path d="M0 0 C1.65 0 3.3 0 5 0 C5.33 0.66 5.66 1.32 6 2 C5.34 2 4.68 2 4 2 C4 2.66 4 3.32 4 4 C1.03 3.505 1.03 3.505 -2 3 C-1.34 2.67 -0.68 2.34 0 2 C0 1.34 0 0.68 0 0 Z " fill="#C9E2E4" transform="translate(700,669)"/>
<path d="M0 0 C1.485 0.99 1.485 0.99 3 2 C3.1875 5.625 3.1875 5.625 3 9 C2.01 9.495 2.01 9.495 1 10 C0.67 6.7 0.34 3.4 0 0 Z " fill="#4A8081" transform="translate(440,529)"/>
<path d="M0 0 C-1.65 0.33 -3.3 0.66 -5 1 C-5 1.66 -5 2.32 -5 3 C-6.98 3.33 -8.96 3.66 -11 4 C-7.64918101 0.31409911 -4.96535219 -1.77334007 0 0 Z " fill="#4C8284" transform="translate(866,520)"/>
<path d="M0 0 C2.05078125 0.03255208 4.1015625 0.06510417 6.15234375 0.09765625 C6.15234375 0.42765625 6.15234375 0.75765625 6.15234375 1.09765625 C5.07984375 1.36578125 4.00734375 1.63390625 2.90234375 1.91015625 C-0.41274553 2.95993452 -2.28643271 3.84377953 -4.84765625 6.09765625 C-2.55432956 0.13500685 -2.55432956 0.13500685 0 0 Z " fill="#DFF5F6" transform="translate(553.84765625,510.90234375)"/>
<path d="M0 0 C0 1.32 0 2.64 0 4 C-1.98 4 -3.96 4 -6 4 C-6 3.34 -6 2.68 -6 2 C-3 0 -3 0 0 0 Z " fill="#39797F" transform="translate(890,498)"/>
<path d="M0 0 C0.99 1.32 1.98 2.64 3 4 C2.01 4.99 1.02 5.98 0 7 C-0.33 6.01 -0.66 5.02 -1 4 C-1.66 3.67 -2.32 3.34 -3 3 C-2.01 2.01 -1.02 1.02 0 0 Z " fill="#DEEFF1" transform="translate(386,672)"/>
<path d="M0 0 C0.66 0.33 1.32 0.66 2 1 C-0.475 4.465 -0.475 4.465 -3 8 C-4 5 -4 5 -3 2 C-2.01 1.34 -1.02 0.68 0 0 Z " fill="#42787D" transform="translate(784,346)"/>
<path d="M0 0 C0.625 1.875 0.625 1.875 1 4 C0.34 4.66 -0.32 5.32 -1 6 C-1.99 6 -2.98 6 -4 6 C-2.84826645 3.53199953 -1.95216435 1.95216435 0 0 Z " fill="#EDF8F9" transform="translate(710,681)"/>
<path d="M0 0 C0.33 0.99 0.66 1.98 1 3 C-0.40445835 5.2636564 -2.1967913 7.0208685 -4 9 C-4.33 8.34 -4.66 7.68 -5 7 C-3.35 4.69 -1.7 2.38 0 0 Z " fill="#4A8083" transform="translate(556,541)"/>
<path d="M0 0 C0.66 0.33 1.32 0.66 2 1 C0.02 2.98 -1.96 4.96 -4 7 C-4.66 6.67 -5.32 6.34 -6 6 C-4 4 -2 2 0 0 Z " fill="#DCF0F0" transform="translate(619,533)"/>
</svg>
