<?xml version="1.0" encoding="UTF-8"?>
<svg version="1.1" xmlns="http://www.w3.org/2000/svg" width="1080" height="1080">
<path d="M0 0 C356.4 0 712.8 0 1080 0 C1080 356.4 1080 712.8 1080 1080 C723.6 1080 367.2 1080 0 1080 C0 723.6 0 367.2 0 0 Z " fill="#38122B" transform="translate(0,0)"/>
<path d="M0 0 C356.4 0 712.8 0 1080 0 C1080 149.49 1080 298.98 1080 453 C1055.46818801 469.35454133 1031.85828227 478.67958214 1003 484 C1002.18080078 484.15307617 1001.36160156 484.30615234 1000.51757812 484.46386719 C976.73273667 488.81236942 952.9303368 489.30431052 928.83111572 489.19561768 C925.79430729 489.18475121 922.75754386 489.18515121 919.72071934 489.18575573 C916.73740934 489.18548072 913.754127 489.17994888 910.77082634 489.17275429 C909.37455388 489.1696347 907.97827838 489.16761651 906.58200264 489.16686058 C902.05295172 489.16171185 897.52786574 489.10265736 893 489 C892.27681957 488.98495548 891.55363914 488.96991096 890.80854416 488.95441055 C888.59750138 488.89910029 886.38924168 488.81572237 884.17944336 488.72387695 C882.86447372 488.67608597 881.54950409 488.62829498 880.19468689 488.57905579 C877 488 877 488 875.34230042 486.21574402 C874.5 484.25 874.5 484.25 873.84375 482.07421875 C872.29609599 478.26956932 868.6029675 476.63963169 865 475 C853.53306342 471.62532326 838.61422868 472.87296009 828.2109375 478.51171875 C819.95726055 483.46170021 814.0656939 488.86421893 809.19140625 497.1328125 C807.43648251 499.88315201 805.46589751 501.86733189 803 504 C802.34 504 801.68 504 801 504 C801 504.66 801 505.32 801 506 C799.6015625 507.41015625 799.6015625 507.41015625 797.625 509.0625 C795.26918333 511.04072933 792.98853921 513.01137922 790.8046875 515.1796875 C777.93986327 527.78285429 759.33150451 535.26213866 741.45800781 535.39160156 C735.23884618 535.28193033 730.91482033 533.92359607 726 530 C725.18660156 529.44054687 724.37320313 528.88109375 723.53515625 528.3046875 C720.29482635 525.35893305 718.60085111 522.27361218 716.6875 518.375 C716.33719727 517.6629541 715.98689453 516.9509082 715.62597656 516.21728516 C713.16177547 510.93326212 711.23268706 505.81569257 713 500 C714.26366214 497.95526633 715.60703419 495.95893441 717 494 C746.25902581 450.83889563 768.04932717 406.02347448 784.6875 356.6875 C784.93798096 355.95203949 785.18846191 355.21657898 785.4465332 354.45883179 C789.6321745 342.108514 793.42410222 329.53161961 793.4375 316.375 C793.45683594 315.08335937 793.47617187 313.79171875 793.49609375 312.4609375 C792.91729056 308.42298767 791.96722773 306.76491675 789 304 C785.11480099 302.67026649 781.38986947 303.42456156 777.66015625 304.96875 C772.13144479 308.21982135 769.05441722 312.31768421 765.8984375 317.828125 C764.27012393 320.54868183 762.55024288 323.07815696 760.7109375 325.65625 C741.25425777 353.21688575 728.02737301 384.6056721 716.46484375 416.109375 C715.03692814 419.95880169 713.49053332 423.75705751 711.94335938 427.55981445 C708.96145774 434.89395689 706.1382706 442.1716722 703.93359375 449.78515625 C703.2309391 452.20475782 702.49622658 454.59921934 701.72265625 456.99609375 C697.42324952 469.11632331 697.42324952 469.11632331 696.15625 481.74609375 C696.37177483 488.50818538 694.63960326 492.0228691 690.21972656 496.94262695 C686.28292639 501.06034255 682.25872855 505.00957615 677.85546875 508.62890625 C675.05929698 510.9507616 672.55848635 513.42164962 670 516 C632.48061751 550.19425203 632.48061751 550.19425203 610.25 550.3125 C609.51265625 550.32925781 608.7753125 550.34601562 608.015625 550.36328125 C605.39587748 549.89111745 604.54737774 549.14913576 603 547 C600.75038267 537.12043055 606.15323924 527.82986732 611.11450195 519.67724609 C614.90016356 513.66869869 619.11945286 508.44014694 623.9765625 503.2421875 C627.75850128 499.05139048 631 495.42118061 631 489.625 C630.1756152 486.69813727 630.1756152 486.69813727 627 485 C624.9507906 484.54860541 624.9507906 484.54860541 622.8125 484.375 C621.554375 484.25125 620.29625 484.1275 619 484 C618.73735352 484.58265625 618.47470703 485.1653125 618.20410156 485.765625 C616.07172848 489.72253466 612.81810636 492.74933837 609.75 496 C609.09386719 496.7115625 608.43773437 497.423125 607.76171875 498.15625 C604.09417121 502.06441199 600.55016395 505.11500243 596 508 C594.6899915 509.27340148 593.41835959 510.58744138 592.1875 511.9375 C579.01583805 525.39791677 557.53298014 543.05713774 538.0546875 544.16796875 C536.48074219 544.17763672 536.48074219 544.17763672 534.875 544.1875 C533.82054687 544.20167969 532.76609375 544.21585938 531.6796875 544.23046875 C529 544 529 544 527 542 C525.17497682 531.28039017 529.72145082 522.27457962 535.5 513.5625 C540.61017326 505.82455712 545.58267169 496.49603016 544 487 C542.23024829 484.64033105 540.94188053 484.18721806 538.09375 483.62109375 C534.99615813 483.31404764 534.99615813 483.31404764 532 484 C531.10477104 485.41585857 530.21295193 486.83401221 529.34033203 488.26391602 C526.49206171 491.95317836 522.30858519 494.24684244 518.4375 496.75 C517.50873047 497.35835693 516.57996094 497.96671387 515.62304688 498.59350586 C498.88194298 509.39197248 481.68808493 518.17104262 462 522 C461.06800781 522.18949219 460.13601563 522.37898437 459.17578125 522.57421875 C455.13716666 523.11568122 451.19351956 523.10732267 447.125 523.0625 C446.34125 523.05798828 445.5575 523.05347656 444.75 523.04882812 C442.83329986 523.03714093 440.91663952 523.01920908 439 523 C439.0314209 522.01773437 439.0314209 522.01773437 439.06347656 521.015625 C439.14730383 518.01057672 439.19886895 515.00577536 439.25 512 C439.30027344 510.45505859 439.30027344 510.45505859 439.3515625 508.87890625 C439.44336787 501.67218449 438.637439 495.91085977 433.5871582 490.48095703 C427.66711375 485.21595673 422.32276214 484.65787261 414.75 484.6875 C413.94175781 484.67138672 413.13351562 484.65527344 412.30078125 484.63867188 C404.59559549 484.63250773 397.4987743 486.19376912 391.4375 491.1875 C390.68210937 491.79078125 389.92671875 492.3940625 389.1484375 493.015625 C386.95179511 494.93123053 386.95179511 494.93123053 385.2890625 497.234375 C383.30656609 499.7640763 381.74415135 501.29327781 379 503 C376.16674083 503.33136991 373.7052813 503.4557903 370.8828125 503.37890625 C370.09065842 503.36746582 369.29850433 503.35602539 368.48234558 503.34423828 C360.49074404 503.1418233 352.6688352 502.04483102 344.77368164 500.86459351 C333.27179319 499.16073152 321.93765015 497.76948523 310.29296875 497.94921875 C309.42400467 497.96215973 308.55504059 497.97510071 307.65974426 497.98843384 C303.51459558 498.06913753 299.3827547 498.21754755 295.2434082 498.44921875 C284.43112515 498.90557087 277.12077658 496.61600924 267.84437561 491.08370972 C265.87323218 489.92551435 263.87094423 488.84831898 261.84887695 487.78173828 C254.33697242 483.81913814 247.26230775 479.31845883 240.3125 474.4375 C239.55791504 473.91969971 238.80333008 473.40189941 238.02587891 472.8684082 C231.97778434 468.50610563 227.52287193 463.46827853 226 456 C225.43763684 451.05923792 225.09361917 447.30292245 228 443.125 C237.29765582 436.53916046 244.69578306 435.22381975 256 437 C259.82513219 438.30535071 262.33123164 440.12368283 264.8125 443.375 C266 446 266 446 267.0625 449.25 C267.68714055 452.13618706 267.68714055 452.13618706 270 453 C273.79877599 453.35173852 276.14360153 453.52701444 279.4375 451.5 C281.65544539 447.95128737 281.78949092 444.99679778 281 441 C278.43166271 433.70246473 273.89822012 429.32808866 267 426 C260.48321155 423.26492364 254.5376028 422.45125362 247.5 422.5 C246.54311279 422.50499512 245.58622559 422.50999023 244.6003418 422.51513672 C229.050867 422.89057154 213.18843069 428.194074 201.66015625 438.96484375 C196.66457314 445.08884093 195.33685682 452.71629871 195.6875 460.44140625 C196.84678187 469.93302657 202.1870901 476.98179162 209.48828125 482.921875 C221.50597715 492.30424262 234.55305359 499.87116146 248 507 C245.92066159 509.07933841 244.69432068 509.64453679 241.9921875 510.6640625 C241.17814453 510.97738525 240.36410156 511.29070801 239.52539062 511.61352539 C238.21344727 512.11420532 238.21344727 512.11420532 236.875 512.625 C217.30287951 520.28067778 197.97943471 529.85520809 182.4375 544.25 C157.23236785 566.1911582 103.72553475 569.77942414 71.96871948 571.30604553 C62.57948339 571.7677591 53.38301836 572.90795554 44.09863281 574.36425781 C41.63529133 574.74839515 39.16959938 575.11315424 36.703125 575.4765625 C24.24946259 577.3670463 11.96669447 580.01110184 0 584 C0 391.28 0 198.56 0 0 Z " fill="#38122B" transform="translate(0,0)"/>
<path d="M0 0 C3.38719063 3.20357687 4.78267203 4.8188697 5.62890625 9.41796875 C5.49951613 16.7627608 4.87104739 23.74536494 3.328125 30.93359375 C3.15255569 31.75477692 2.97698639 32.57596008 2.7960968 33.42202759 C0.8606394 42.11760911 -1.8646443 50.47784968 -4.8125 58.875 C-5.08978943 59.67494385 -5.36707886 60.4748877 -5.652771 61.29907227 C-19.99483906 102.61283616 -38.21991556 140.20917153 -61.625 177.1875 C-62.18034424 178.06535156 -62.73568848 178.94320312 -63.30786133 179.84765625 C-66.2980937 184.51640027 -69.42195725 189.01313236 -72.81396484 193.3996582 C-75.32638229 196.78971509 -75.57962985 199.65611533 -75.53125 203.8046875 C-74.24403671 211.54689687 -70.29936072 219.84596186 -64.60546875 225.2890625 C-62.445125 226.7436223 -60.36715265 227.92321251 -58 229 C-57.41992188 229.36738281 -56.83984375 229.73476563 -56.2421875 230.11328125 C-47.70148309 233.4908769 -35.21266682 231.42495944 -27 228 C-26.08903564 227.63745117 -26.08903564 227.63745117 -25.15966797 227.26757812 C-17.10019112 224.04764821 -9.52915113 220.84761134 -3 215 C-2.14535156 214.25105469 -1.29070313 213.50210938 -0.41015625 212.73046875 C4.25641027 208.61336615 4.25641027 208.61336615 8.66796875 204.23046875 C10 203 10 203 12 203 C12 202.34 12 201.68 12 201 C13.20739046 199.889318 14.46734831 198.83534451 15.75 197.8125 C18.43721222 195.53942906 20.45484501 193.637406 22.0625 190.5 C26.85106134 181.25312294 36.887273 174.65649002 46.4375 171.0625 C51.5968323 169.72489533 56.82418926 169.69010868 62.125 169.625 C63.39621704 169.60385132 63.39621704 169.60385132 64.69311523 169.58227539 C72.52728802 169.64266174 79.20926857 171.37471804 85 177 C87.11846092 179.99506543 88 181.30650564 88 185 C98.55499402 185.04681696 109.10996241 185.08211533 119.66504002 185.10362434 C124.56880483 185.11395954 129.47249743 185.12792518 134.3762207 185.15087891 C164.75194165 185.43748907 164.75194165 185.43748907 195 183 C195.70726227 182.910672 196.41452454 182.82134399 197.14321899 182.72930908 C201.48899567 182.16807754 205.80676355 181.49198054 210.125 180.75 C211.38779785 180.53529053 212.6505957 180.32058105 213.95166016 180.09936523 C224.88961936 178.16108942 235.46814578 175.52121274 246 172 C246.71784668 171.76168457 247.43569336 171.52336914 248.17529297 171.27783203 C262.07979918 166.57193992 275.37337408 160.57076356 286.9609375 151.46875 C289 150 289 150 291 150 C291.7980273 156.61087701 292.52305221 163.45323144 291 170 C287.96187945 173.79896249 284.56465453 175.42185386 280.07128906 177.18017578 C277.86229755 178.05450316 275.73229412 179.0405941 273.5859375 180.05859375 C269.78022474 181.84428219 265.93709097 183.51249898 262.05859375 185.13330078 C260.320224 185.86518083 258.59582864 186.6301219 256.875 187.40234375 C239.12902626 194.94920486 219.04124359 197.77670023 200 200 C199.18450684 200.09764648 198.36901367 200.19529297 197.52880859 200.29589844 C195.10356483 200.58246991 192.6774042 200.85737662 190.25 201.125 C189.56687744 201.20073242 188.88375488 201.27646484 188.17993164 201.35449219 C174.72232789 202.73636252 161.33236602 203.12641407 147.81663322 202.89177322 C143.48281963 202.82141368 139.14862493 202.78720816 134.81445312 202.74609375 C129.34989568 202.69210452 123.88603604 202.62747029 118.42211914 202.52685547 C113.95451763 202.44553601 109.48770416 202.39877533 105.0194416 202.37479782 C103.33169968 202.35944698 101.64401993 202.33156413 99.95670891 202.29045486 C89.27844209 201.74348962 89.27844209 201.74348962 80.09594727 206.47802734 C79.54584488 207.11026215 78.99574249 207.74249695 78.42897034 208.39389038 C76.45770471 210.60951978 74.58334898 210.93968765 71.6953125 211.23828125 C64.75217211 211.43876707 64.75217211 211.43876707 61 209.25 C58.60260547 206.55293116 57.07960254 204.48326059 56.8828125 200.81640625 C57.42546054 195.76627854 58.15410446 192.62613008 62 189 C63.3180589 188.30362153 64.64957621 187.6313302 66 187 C56.62084041 186.38497314 48.11250131 188.69646573 40.60546875 194.52734375 C38.12548009 196.8021752 35.978073 199.31900706 33.8125 201.890625 C28.4310211 208.15355303 22.3151851 213.70011797 16 219 C15.49114258 219.43860352 14.98228516 219.87720703 14.45800781 220.32910156 C-5.32878761 237.3200603 -27.42878174 247.56664544 -53.890625 246.18652344 C-63.6202986 245.32616804 -71.98837176 240.63318954 -79 234 C-84.7603587 226.98544189 -89.28224021 219.27621903 -93 211 C-93.54527344 211.56847656 -94.09054687 212.13695312 -94.65234375 212.72265625 C-99.04599253 217.22145218 -103.48263056 221.30066781 -108.51171875 225.0703125 C-110.89703038 226.92014601 -113.17518096 228.86456341 -115.44921875 230.84863281 C-134.93321541 247.77329092 -158.30007673 263.75530218 -185.15625 262.51953125 C-191.92943325 261.60405018 -195.93084702 258.71576329 -200 253.375 C-201.7198409 249.29037786 -202.13695234 245.80931997 -202.125 241.375 C-202.12757813 240.41335938 -202.13015625 239.45171875 -202.1328125 238.4609375 C-202 236 -202 236 -201 234 C-202.05316406 234.78503906 -203.10632813 235.57007813 -204.19140625 236.37890625 C-213.41548113 243.14215088 -222.39759127 248.70883344 -233 253 C-233.96808594 253.43183594 -234.93617188 253.86367188 -235.93359375 254.30859375 C-242.18504349 256.81437596 -248.08381124 257.39788786 -254.75 257.5 C-255.93867676 257.52791626 -255.93867676 257.52791626 -257.15136719 257.55639648 C-264.03677233 257.48218167 -269.46427224 255.53572776 -274.375 250.625 C-279.24694895 242.75492862 -279.16889935 233.62984809 -277.1015625 224.8203125 C-276.1658334 221.18254857 -275.11152189 217.5876354 -274 214 C-274.95777344 214.49628906 -275.91554688 214.99257813 -276.90234375 215.50390625 C-297.32714472 225.97576813 -318.63245096 235.08468845 -342.0390625 235.0234375 C-351.40673289 234.71761879 -351.40673289 234.71761879 -359.9140625 237.88671875 C-361.92042873 240.15984903 -363.49312733 242.37425181 -365 245 C-371.25154309 253.75216032 -380.58360796 258.83153177 -391 261 C-398.09692192 261.72367222 -405.82506215 262.07138759 -412 258 C-417.30878979 253.23817643 -421.54253771 247.68932195 -422.2512207 240.42480469 C-422.33037254 237.52709353 -422.31117265 234.64805421 -422.25 231.75 C-422.24484375 230.75742187 -422.2396875 229.76484375 -422.234375 228.7421875 C-422.15550595 221.46651786 -422.15550595 221.46651786 -421 218 C-422.72198608 217.80857422 -422.72198608 217.80857422 -424.47875977 217.61328125 C-428.83749959 217.06677131 -433.06387135 216.18030943 -437.33984375 215.1875 C-438.91340283 214.8306911 -440.48697081 214.47392147 -442.06054688 214.1171875 C-444.50058729 213.55909967 -446.9402416 212.99936962 -449.37963867 212.43847656 C-451.76127882 211.89231908 -454.14423399 211.35220303 -456.52734375 210.8125 C-457.60120583 210.56246216 -457.60120583 210.56246216 -458.69676208 210.30737305 C-466.12452297 208.62909226 -473.44231224 207.8572875 -481.0625 207.9375 C-482.75052734 207.95103516 -482.75052734 207.95103516 -484.47265625 207.96484375 C-485.72369141 207.98224609 -485.72369141 207.98224609 -487 208 C-486.60167969 208.49628906 -486.20335937 208.99257813 -485.79296875 209.50390625 C-478.46821351 218.89598901 -476.69679808 225.95487157 -478 238 C-482.20898947 252.80262962 -497.26755404 263.65883873 -509.99414062 270.90722656 C-516.82064077 274.62624003 -523.9009342 277.84185441 -531 281 C-532.66675781 281.74443359 -532.66675781 281.74443359 -534.3671875 282.50390625 C-544.2082336 286.58091106 -554.62060897 288.75005438 -565 291 C-565.83748779 291.19126465 -566.67497559 291.3825293 -567.5378418 291.57958984 C-573.23039746 292.82202366 -578.61599103 293.32042876 -584.4375 293.25 C-585.2637085 293.24250732 -586.08991699 293.23501465 -586.94116211 293.22729492 C-597.04288119 293.04989791 -606.50825947 291.95312579 -615 286 C-619.71730509 281.00464237 -622.14538819 277.01449205 -622.1875 270.125 C-622.20167969 269.07570313 -622.21585938 268.02640625 -622.23046875 266.9453125 C-622.00504937 264.06452929 -621.48964317 262.43759792 -620 260 C-620.88816406 260.35191406 -621.77632812 260.70382812 -622.69140625 261.06640625 C-642.81842841 268.91094205 -662.30585467 274.03337753 -683.8125 276.25 C-686.02708851 276.49505475 -688.24144378 276.74222604 -690.45556641 276.99145508 C-695.72601705 277.58086155 -700.99847113 278.14868381 -706.27215576 278.70831299 C-712.14337549 279.33611956 -718.009261 280.01059583 -723.875 280.6875 C-724.86556396 280.8006958 -725.85612793 280.9138916 -726.87670898 281.03051758 C-747.96533864 283.47071895 -769.1451569 286.23071357 -789 294 C-789 289.71 -789 285.42 -789 281 C-782.27307163 277.72669052 -775.96264773 275.87099384 -768.625 274.5 C-766.99739746 274.18808716 -766.99739746 274.18808716 -765.33691406 273.86987305 C-745.42057587 270.1323487 -725.69261734 267.67107801 -705.46875 266.41796875 C-697.9175675 265.94601984 -690.46931115 265.23780889 -683 264 C-682.07219727 263.84692383 -681.14439453 263.69384766 -680.18847656 263.53613281 C-665.21051691 260.99837015 -650.83009878 257.47641254 -636.39257812 252.76513672 C-633.26279423 251.7642446 -630.10032295 250.89002143 -626.9375 250 C-616.39102368 246.70248696 -607.71849335 242.06164067 -599.734375 234.390625 C-586.29028103 222.6366457 -568.5642498 215.28491192 -552.20581055 208.61279297 C-551.44051025 208.29971191 -550.67520996 207.98663086 -549.88671875 207.6640625 C-549.20826904 207.39029785 -548.52981934 207.1165332 -547.83081055 206.83447266 C-545.73221187 205.93678068 -545.73221187 205.93678068 -543 204 C-544.70542969 203.09121094 -544.70542969 203.09121094 -546.4453125 202.1640625 C-556.50938956 196.73130027 -565.89080604 190.90885049 -575 184 C-575.93714844 183.32195312 -576.87429688 182.64390625 -577.83984375 181.9453125 C-585.09323442 176.51345001 -592.30182616 169.24561313 -594 160 C-594.88974303 151.24379875 -593.86119115 142.82861047 -588.22265625 135.77734375 C-575.06138209 123.05722962 -556.84325691 118.34895596 -539.06054688 118.45458984 C-529.90867928 118.75467711 -522.05894148 120.82645949 -514.5 126.25 C-510.29520141 130.87527845 -506.81059941 135.84910869 -506.375 142.25 C-507 146 -507 146 -509.0625 149 C-512.74376653 151.50639423 -514.62901047 151.71525283 -519 151 C-523.01623698 148.21094655 -524.15915831 144.40201274 -526 140 C-528.65002817 136.65866013 -531.68919408 135.25532845 -535.84765625 134.4453125 C-545.3292778 133.50060659 -552.22425952 134.81617301 -560.1875 140.125 C-563.37340814 145.17850946 -562.56984213 149.83148125 -561.546875 155.51953125 C-556.98576531 170.92540708 -533.53418583 180.31865909 -520.48828125 187.50390625 C-513.31448378 191.39412437 -507.92895213 194.16910881 -499.58203125 193.921875 C-498.02111581 193.89060199 -496.46015782 193.86140319 -494.89916992 193.83398438 C-493.65736465 193.8121106 -493.65736465 193.8121106 -492.39047241 193.78979492 C-475.27445008 193.52558311 -458.75619604 194.69021597 -441.8293457 197.22167969 C-433.96586903 198.38389803 -426.17252766 199.29022435 -418.21875 199.48046875 C-417.48408005 199.51446777 -416.7494101 199.5484668 -415.99247742 199.58349609 C-412.0387591 199.60410463 -409.5641957 199.03035809 -406.55273438 196.56616211 C-403.83801692 193.83814196 -401.4232672 190.98701339 -399 188 C-391.88693419 181.48925024 -383.73179334 180.63981829 -374.5 180.625 C-373.69691406 180.60050781 -372.89382813 180.57601562 -372.06640625 180.55078125 C-365.27490222 180.51775935 -360.14722984 182.28414722 -354.9765625 186.74609375 C-354.53054688 187.30425781 -354.08453125 187.86242187 -353.625 188.4375 C-353.16351563 188.99308594 -352.70203125 189.54867187 -352.2265625 190.12109375 C-348.91965129 195.18677621 -348.7156002 199.56741197 -348.8125 205.4375 C-348.81314453 206.17548828 -348.81378906 206.91347656 -348.81445312 207.67382812 C-348.84813409 211.88394895 -349.17879035 215.85453367 -350 220 C-319.05563626 218.90160765 -292.97148441 208.25595657 -267.6875 190.75 C-266.96377197 190.2547583 -266.24004395 189.7595166 -265.49438477 189.24926758 C-261.58357627 186.47197264 -259.43002687 184.19047978 -257 180 C-252.37817759 179.32909029 -250.15852175 179.42073912 -246 181.5 C-243.28688179 184.89139776 -243.56239448 187.85827546 -244 192 C-246.49464197 200.59874759 -250.44434982 208.03799851 -255.38671875 215.45703125 C-260.17677869 223.00746471 -261.98973026 230.05997748 -261 239 C-259.28558384 240.71441616 -257.16015045 240.29436736 -254.8125 240.375 C-232.47933878 240.13656767 -211.9811675 222.04150574 -196.55078125 207.375 C-194.1198404 205.11158187 -191.61308298 203.04797723 -189 201 C-181.87557303 195.17882187 -175.12184815 188.68277223 -170 181 C-165.04163416 180.34972251 -163.0826309 180.24878672 -158.9375 183.125 C-157 186 -157 186 -156.8125 188.8125 C-159.10013448 194.95299254 -163.46948021 199.44309407 -167.875 204.1875 C-176.9955846 214.3369842 -185.75751213 227.99161784 -185.37109375 242.0390625 C-185.14754621 244.22798304 -185.14754621 244.22798304 -183 246 C-163.65067463 248.25742129 -145.32858172 233.2924836 -131 222 C-130.4337793 221.55769043 -129.86755859 221.11538086 -129.28417969 220.65966797 C-124.26445352 216.72607245 -119.96947723 212.9992161 -116 208 C-114.61779005 207.11143646 -113.23425567 206.22475863 -111.83984375 205.35546875 C-107.44657042 202.1188109 -103.71962588 197.97310276 -100 194 C-99.09636719 193.06027344 -98.19273437 192.12054688 -97.26171875 191.15234375 C-94.56404783 187.39237755 -94.2298688 185.01894719 -93.875 180.4375 C-93.73671758 179.00732556 -93.59342181 177.57762768 -93.4453125 176.1484375 C-93.37473633 175.44428711 -93.30416016 174.74013672 -93.23144531 174.01464844 C-92.11734332 164.31679014 -88.79356994 155.24562786 -85.47265625 146.13671875 C-84.1788057 142.56404825 -83.06228375 138.96160023 -82 135.3125 C-80.33503707 129.78292799 -78.15465829 124.63362772 -75.81640625 119.359375 C-73.87976287 114.84235888 -72.23684331 110.22668542 -70.56933594 105.60498047 C-59.48585768 74.91657739 -45.01900519 46.19161912 -27 19 C-26.45174561 18.17056885 -25.90349121 17.3411377 -25.33862305 16.48657227 C-11.82385329 -3.88557723 -11.82385329 -3.88557723 0 0 Z " fill="#FBF9FA" transform="translate(789,303)"/>
<path d="M0 0 C1.73046875 1.48828125 1.73046875 1.48828125 3.1875 3.3125 C3.67605469 3.90675781 4.16460937 4.50101563 4.66796875 5.11328125 C8.3211383 10.28771202 8.89894858 14.75322467 8 21 C6.72234935 24.29971759 5.01248537 27.09932276 3 30 C2.319375 30.99 1.63875 31.98 0.9375 33 C-11.61593594 47.06917589 -30.64035357 54.15090861 -48 60 C-49.03125 60.36351562 -50.0625 60.72703125 -51.125 61.1015625 C-59.14156054 63.65445529 -69.43336144 64.97257169 -77.30078125 61.57421875 C-82.18153118 58.72770324 -82.18153118 58.72770324 -84 56 C-85.04596818 51.43957873 -84.79218418 47.63357235 -82.7421875 43.40625 C-67.29158836 20.12255641 -33.70782706 6.99468231 -7.8828125 -0.50390625 C-4.80497542 -1.03356114 -2.94630039 -1.01356708 0 0 Z " fill="#39142C" transform="translate(268,519)"/>
<path d="M0 0 C0.33 0 0.66 0 1 0 C0.59524594 8.04177222 -0.92883788 15.21913183 -3.375 22.875 C-3.7265918 23.99140869 -4.07818359 25.10781738 -4.44042969 26.25805664 C-18.12515864 68.88237985 -36.79145297 110.89396115 -62 148 C-63.18835139 144.54015401 -62.80169529 142.43994688 -61.734375 138.9765625 C-61.42733643 137.97149658 -61.12029785 136.96643066 -60.80395508 135.9309082 C-60.4561499 134.8399585 -60.10834473 133.74900879 -59.75 132.625 C-59.38865967 131.47668701 -59.02731934 130.32837402 -58.6550293 129.14526367 C-49.29071835 99.84899615 -38.37091199 70.20295794 -24.00537109 42.94335938 C-22.851227 40.71242519 -21.74615175 38.46044959 -20.64453125 36.203125 C-7.10416847 8.51631205 -7.10416847 8.51631205 0 0 Z " fill="#3C192F" transform="translate(775,328)"/>
<path d="M0 0 C0.66 0 1.32 0 2 0 C2.35191406 0.72445313 2.70382812 1.44890625 3.06640625 2.1953125 C8.47068397 12.77810177 14.30201177 17.13532125 25 22 C23.95769408 28.14411912 18.8228336 32.3507696 14.375 36.375 C9.15405172 39.94722777 4.25596561 40.91966101 -2 40 C-6.13501628 37.62456512 -7.51708138 35.42966249 -9 31 C-10.96209477 19.59733447 -6.45458373 11.55993639 -1 2 C-0.67 1.34 -0.34 0.68 0 0 Z " fill="#3A162D" transform="translate(390,510)"/>
<path d="M0 0 C10 0 10 0 13.125 2.125 C15.31931945 5.48962316 15.50298891 7.05992017 15 11 C14.79375 11.721875 14.5875 12.44375 14.375 13.1875 C14.25125 13.785625 14.1275 14.38375 14 15 C14.99 16.485 14.99 16.485 16 18 C16.1953125 20.91796875 16.1953125 20.91796875 16.125 24.1875 C16.10695313 25.27417969 16.08890625 26.36085938 16.0703125 27.48046875 C16.04710937 28.31191406 16.02390625 29.14335938 16 30 C14.68 29.67 13.36 29.34 12 29 C11.67 25.37 11.34 21.74 11 18 C8.69 18 6.38 18 4 18 C4 21.96 4 25.92 4 30 C2.68 30 1.36 30 0 30 C0 20.1 0 10.2 0 0 Z " fill="#EEE6EC" transform="translate(465,628)"/>
<path d="M0 0 C4.77513944 1.19378486 5.04521121 2.00651943 7.5 6.0625 C8.0671875 6.98160156 8.634375 7.90070312 9.21875 8.84765625 C11.27867056 12.49317356 13.12740452 16.25480904 15 20 C15 13.73 15 7.46 15 1 C16.32 1 17.64 1 19 1 C19 10.57 19 20.14 19 30 C15 29 15 29 13.7355957 27.34179688 C13.38585693 26.64119141 13.03611816 25.94058594 12.67578125 25.21875 C12.28712891 24.45949219 11.89847656 23.70023438 11.49804688 22.91796875 C11.10681641 22.12003906 10.71558594 21.32210937 10.3125 20.5 C9.51811535 18.92648288 8.72260149 17.35353516 7.92578125 15.78125 C7.57942627 15.08064453 7.23307129 14.38003906 6.8762207 13.65820312 C6.11090662 12.01263008 6.11090662 12.01263008 5 11 C4.67 16.94 4.34 22.88 4 29 C2.68 29.33 1.36 29.66 0 30 C0 20.1 0 10.2 0 0 Z " fill="#E6DEE4" transform="translate(562,628)"/>
<path d="M0 0 C9.46986342 0 9.46986342 0 13.70703125 4.08203125 C15.69091548 7.02489275 15.78251064 9.47129943 15.49609375 12.94921875 C14.76682098 15.96392901 13.52097841 17.24932055 11 19 C8.30276096 20.63469033 7.21879014 21 4 21 C4 23.97 4 26.94 4 30 C2.68 29.67 1.36 29.34 0 29 C0 19.43 0 9.86 0 0 Z " fill="#F2EBF1" transform="translate(396,628)"/>
<path d="M0 0 C2.36497439 1.86708505 3.66030715 3.32061431 5 6 C5.34488139 11.63306277 4.37503178 16.58581238 3 22 C-2.35995109 21.66500306 -6.11910334 18.44397452 -10 15 C-12.4466605 11.33000925 -12.8237551 8.26464882 -12 4 C-8.51708493 -0.22171524 -5.31642554 -0.77329826 0 0 Z " fill="#3D1A31" transform="translate(420,498)"/>
<path d="M0 0 C5.28 0 10.56 0 16 0 C16.33 0.99 16.66 1.98 17 3 C13.98509443 4.00496852 11.95818308 4.10335303 8.8125 4.0625 C7.224375 4.041875 5.63625 4.02125 4 4 C4 7.3 4 10.6 4 14 C8.29 14 12.58 14 17 14 C16.67 14.99 16.34 15.98 16 17 C12.04 17 8.08 17 4 17 C4 20.3 4 23.6 4 27 C8.29 27 12.58 27 17 27 C16.67 27.99 16.34 28.98 16 30 C13.52076199 30.02685095 11.0418116 30.04676547 8.5625 30.0625 C7.85544922 30.07087891 7.14839844 30.07925781 6.41992188 30.08789062 C4.61306441 30.09653588 2.80612397 30.05220011 1 30 C0 29 0 29 -0.11352539 26.22436523 C-0.10828857 25.01466064 -0.10305176 23.80495605 -0.09765625 22.55859375 C-0.09443359 21.25341797 -0.09121094 19.94824219 -0.08789062 18.60351562 C-0.07953401 17.2148431 -0.07106905 15.82617123 -0.0625 14.4375 C-0.05748666 13.04492344 -0.05292347 11.65234519 -0.04882812 10.25976562 C-0.03699442 6.83982549 -0.01905831 3.4199075 0 0 Z " fill="#EBE3E8" transform="translate(637,628)"/>
<path d="M0 0 C5.28 0 10.56 0 16 0 C16.33 0.99 16.66 1.98 17 3 C13.98509443 4.00496852 11.95818308 4.10335303 8.8125 4.0625 C7.224375 4.041875 5.63625 4.02125 4 4 C4 7.3 4 10.6 4 14 C8.29 14 12.58 14 17 14 C16.67 14.99 16.34 15.98 16 17 C12.04 17 8.08 17 4 17 C4 20.3 4 23.6 4 27 C8.29 27 12.58 27 17 27 C16.67 27.99 16.34 28.98 16 30 C13.52076199 30.02685095 11.0418116 30.04676547 8.5625 30.0625 C7.85544922 30.07087891 7.14839844 30.07925781 6.41992188 30.08789062 C4.61306441 30.09653588 2.80612397 30.05220011 1 30 C0 29 0 29 -0.11352539 26.22436523 C-0.10828857 25.01466064 -0.10305176 23.80495605 -0.09765625 22.55859375 C-0.09443359 21.25341797 -0.09121094 19.94824219 -0.08789062 18.60351562 C-0.07953401 17.2148431 -0.07106905 15.82617123 -0.0625 14.4375 C-0.05748666 13.04492344 -0.05292347 11.65234519 -0.04882812 10.25976562 C-0.03699442 6.83982549 -0.01905831 3.4199075 0 0 Z " fill="#EBE3E9" transform="translate(430,628)"/>
<path d="M0 0 C5.28 0 10.56 0 16 0 C16.33 0.99 16.66 1.98 17 3 C13.98509443 4.00496852 11.95818308 4.10335303 8.8125 4.0625 C7.224375 4.041875 5.63625 4.02125 4 4 C4 7.3 4 10.6 4 14 C8.29 14 12.58 14 17 14 C16.67 14.99 16.34 15.98 16 17 C12.04 17 8.08 17 4 17 C4 20.3 4 23.6 4 27 C8.29 27 12.58 27 17 27 C16.67 27.99 16.34 28.98 16 30 C13.52076199 30.02685095 11.0418116 30.04676547 8.5625 30.0625 C7.85544922 30.07087891 7.14839844 30.07925781 6.41992188 30.08789062 C4.61306441 30.09653588 2.80612397 30.05220011 1 30 C0 29 0 29 -0.11352539 26.22436523 C-0.10828857 25.01466064 -0.10305176 23.80495605 -0.09765625 22.55859375 C-0.09443359 21.25341797 -0.09121094 19.94824219 -0.08789062 18.60351562 C-0.07953401 17.2148431 -0.07106905 15.82617123 -0.0625 14.4375 C-0.05748666 13.04492344 -0.05292347 11.65234519 -0.04882812 10.25976562 C-0.03699442 6.83982549 -0.01905831 3.4199075 0 0 Z " fill="#EAE2E8" transform="translate(323,628)"/>
<path d="M0 0 C0.99 0.33 1.98 0.66 3 1 C2.55138351 4.05059211 1.89882897 6.19020153 0.4375 8.9375 C-1.18853968 12.4016715 -1.36853423 14.21543691 -1 18 C0.44606493 20.69243512 0.44606493 20.69243512 2.4375 23.125 C4.71720581 26.08170935 6.39097019 28.27719809 7 32 C4.70703125 31.81640625 4.70703125 31.81640625 2 31 C0.19921875 28.71484375 0.19921875 28.71484375 -1.3125 25.9375 C-1.82425781 25.01839844 -2.33601563 24.09929688 -2.86328125 23.15234375 C-3.23839844 22.44207031 -3.61351562 21.73179687 -4 21 C-5.58971965 23.38457948 -6.86741593 25.6304124 -8.125 28.1875 C-8.47820312 28.90292969 -8.83140625 29.61835937 -9.1953125 30.35546875 C-9.46085937 30.89816406 -9.72640625 31.44085937 -10 32 C-10.99 32 -11.98 32 -13 32 C-12.50154426 27.14005655 -10.9280321 23.44475274 -8.7421875 19.1484375 C-7.84749624 16.55854175 -8.00729429 15.52915475 -9 13 C-10.22891111 10.90077808 -11.57729098 8.91566969 -12.94140625 6.90234375 C-14 5 -14 5 -14 2 C-12.25 2.125 -12.25 2.125 -10 3 C-6 8.22222222 -6 8.22222222 -6 11 C-5.34 11 -4.68 11 -4 11 C-3.8453125 9.948125 -3.8453125 9.948125 -3.6875 8.875 C-2.90640997 5.60862353 -1.57941257 2.9528148 0 0 Z " fill="#F0E9EF" transform="translate(371,626)"/>
<path d="M0 0 C5.28 0 10.56 0 16 0 C16 0.99 16 1.98 16 3 C13.47524538 4.26237731 11.68799534 4.09856404 8.875 4.0625 C7.26625 4.041875 5.6575 4.02125 4 4 C4 7.3 4 10.6 4 14 C7.96 14 11.92 14 16 14 C16 14.99 16 15.98 16 17 C12.04 17 8.08 17 4 17 C4 20.3 4 23.6 4 27 C7.96 27 11.92 27 16 27 C16 27.99 16 28.98 16 30 C13.52076199 30.02685095 11.0418116 30.04676547 8.5625 30.0625 C7.85544922 30.07087891 7.14839844 30.07925781 6.41992188 30.08789062 C4.61306441 30.09653588 2.80612397 30.05220011 1 30 C0 29 0 29 -0.11352539 26.22436523 C-0.10828857 25.01466064 -0.10305176 23.80495605 -0.09765625 22.55859375 C-0.09443359 21.25341797 -0.09121094 19.94824219 -0.08789062 18.60351562 C-0.07953401 17.2148431 -0.07106905 15.82617123 -0.0625 14.4375 C-0.05748666 13.04492344 -0.05292347 11.65234519 -0.04882812 10.25976562 C-0.03699442 6.83982549 -0.01905831 3.4199075 0 0 Z " fill="#EEE7ED" transform="translate(526,628)"/>
<path d="M0 0 C1.9375 1.3125 1.9375 1.3125 3 3 C3 3.99 3 4.98 3 6 C2.36191406 5.91621094 1.72382812 5.83242188 1.06640625 5.74609375 C0.24011719 5.64425781 -0.58617187 5.54242187 -1.4375 5.4375 C-2.26121094 5.33308594 -3.08492187 5.22867188 -3.93359375 5.12109375 C-4.61550781 5.08113281 -5.29742188 5.04117188 -6 5 C-7.29633621 6.06645115 -7.29633621 6.06645115 -7.0625 8.5625 C-7.041875 9.366875 -7.02125 10.17125 -7 11 C-6.31292969 11.25394531 -5.62585938 11.50789062 -4.91796875 11.76953125 C-4.01691406 12.11371094 -3.11585938 12.45789063 -2.1875 12.8125 C-0.84751953 13.31716797 -0.84751953 13.31716797 0.51953125 13.83203125 C2.98042848 14.99078444 4.38222173 15.82890995 6 18 C6.64739884 24.79768786 6.64739884 24.79768786 4.6875 28.4375 C1.40002968 31.481454 -2.50594511 31.39637808 -6.765625 31.34765625 C-9 31 -9 31 -12.125 28.8125 C-14 26 -14 26 -13.8125 23.1875 C-13.544375 22.465625 -13.27625 21.74375 -13 21 C-12.01 21.33 -11.02 21.66 -10 22 C-8.8125 24.5625 -8.8125 24.5625 -8 27 C-3.2102679 27.23428313 -3.2102679 27.23428313 1 25 C1.25015873 21.41642759 1.25015873 21.41642759 1 18 C0.31292969 17.82984375 -0.37414062 17.6596875 -1.08203125 17.484375 C-1.98308594 17.24203125 -2.88414062 16.9996875 -3.8125 16.75 C-4.70582031 16.51796875 -5.59914063 16.2859375 -6.51953125 16.046875 C-9.42541379 14.82045528 -10.42772856 13.70186451 -12 11 C-12.5 8.0625 -12.5 8.0625 -12 5 C-8.53085979 0.1642288 -5.86865756 -0.86943075 0 0 Z " fill="#EEE6EC" transform="translate(685,627)"/>
<path d="M0 0 C3.94232388 0.63358777 5.16488558 1.38674439 7.5 4.5625 C7.5 5.2225 7.5 5.8825 7.5 6.5625 C4.53 6.2325 1.56 5.9025 -1.5 5.5625 C-4.31780727 9.54014351 -4.88551055 12.27822258 -4.8125 17.125 C-4.80863281 18.24003906 -4.80476562 19.35507812 -4.80078125 20.50390625 C-4.5151431 23.4085124 -4.0090683 25.10350026 -2.5 27.5625 C1.12528568 27.76390476 3.36501708 27.42026765 6.5 25.5625 C6.25 27.9375 6.25 27.9375 5.5 30.5625 C3.33931571 32.18301322 1.65173397 32.53594656 -1 33 C-3.5 32.5625 -3.5 32.5625 -5.6875 30.375 C-10.23436436 23.31952083 -10.35081054 16.88745357 -8.75 8.75 C-6.78307393 3.73433851 -5.56376696 0.89417683 0 0 Z " fill="#EEE6EC" transform="translate(610.5,626.4375)"/>
<path d="M0 0 C2.64 0 5.28 0 8 0 C7.67 0.99 7.34 1.98 7 3 C6.85164052 4.77166975 6.75229982 6.54767612 6.68359375 8.32421875 C6.64169922 9.35224609 6.59980469 10.38027344 6.55664062 11.43945312 C6.51732422 12.51130859 6.47800781 13.58316406 6.4375 14.6875 C6.39431641 15.77095703 6.35113281 16.85441406 6.30664062 17.97070312 C6.20053162 20.64700791 6.09847639 23.32340526 6 26 C6.99 26 7.98 26 9 26 C9 26.99 9 27.98 9 29 C6.36 29 3.72 29 1 29 C1 28.34 1 27.68 1 27 C1.66 27 2.32 27 3 27 C3 19.08 3 11.16 3 3 C2.01 3 1.02 3 0 3 C0 2.01 0 1.02 0 0 Z " fill="#F6F1F6" transform="translate(499,629)"/>
<path d="M0 0 C6.17647059 1.23529412 6.17647059 1.23529412 9 5 C9.5625 7.5 9.5625 7.5 9 10 C6.75 12.3125 6.75 12.3125 4 14 C2.68 14 1.36 14 0 14 C0 9.38 0 4.76 0 0 Z " fill="#492A3D" transform="translate(399,631)"/>
<path d="M0 0 C3.94232388 0.63358777 5.16488558 1.38674439 7.5 4.5625 C7.5 5.2225 7.5 5.8825 7.5 6.5625 C4.53 6.2325 1.56 5.9025 -1.5 5.5625 C-5.31788025 10.37634901 -5.20067925 15.66897769 -5.5 21.5625 C-5.83 21.5625 -6.16 21.5625 -6.5 21.5625 C-6.83 18.5925 -7.16 15.6225 -7.5 12.5625 C-7.83 12.5625 -8.16 12.5625 -8.5 12.5625 C-7.99150172 6.07914692 -7.07229202 1.13661836 0 0 Z " fill="#E6DDE3" transform="translate(610.5,626.4375)"/>
<path d="M0 0 C0.33 0.66 0.66 1.32 1 2 C1.99 1.67 2.98 1.34 4 1 C4.66 1.33 5.32 1.66 6 2 C4.64737628 6.74130209 2.66645646 10.32288579 -0.125 14.375 C-0.84945312 15.43460937 -1.57390625 16.49421875 -2.3203125 17.5859375 C-2.87460937 18.38257813 -3.42890625 19.17921875 -4 20 C-4.97812873 16.94371936 -5.00835683 15.14722553 -4.00390625 12.109375 C-3.77509766 11.40039062 -3.54628906 10.69140625 -3.31054688 9.9609375 C-3.06369141 9.23132813 -2.81683594 8.50171875 -2.5625 7.75 C-2.19801758 6.63238281 -2.19801758 6.63238281 -1.82617188 5.4921875 C-1.22667019 3.65841765 -0.61455513 1.82877996 0 0 Z " fill="#432437" transform="translate(717,456)"/>
<path d="M0 0 C1.65 0 3.3 0 5 0 C7 2 7 2 7.375 4.9375 C7 8 7 8 5.1875 9.875 C3 11 3 11 0 11 C0 7.37 0 3.74 0 0 Z " fill="#3F2033" transform="translate(469,631)"/>
<path d="M0 0 C1.32 0.66 2.64 1.32 4 2 C4.48468708 8.42210386 4.48468708 8.42210386 2.375 10.9375 C-0.56030453 12.25066255 -2.81863606 12.21691118 -6 12 C-4.84826645 9.53199953 -3.95216435 7.95216435 -2 6 C-1.28591666 4.01643517 -0.61382258 2.01684563 0 0 Z " fill="#412135" transform="translate(683,643)"/>
<path d="M0 0 C0.99 0 1.98 0 3 0 C3 6.6 3 13.2 3 20 C2.34 19.67 1.68 19.34 1 19 C-0.20255163 14.92342562 -0.10196591 10.91035258 -0.0625 6.6875 C-0.05347656 5.43324219 -0.04445313 4.17898438 -0.03515625 2.88671875 C-0.01775391 1.45779297 -0.01775391 1.45779297 0 0 Z " fill="#F9F3F7" transform="translate(577,629)"/>
<path d="M0 0 C0.598125 0.185625 1.19625 0.37125 1.8125 0.5625 C4.16408762 1.22093687 4.16408762 1.22093687 7 0 C6.67 2.64 6.34 5.28 6 8 C5.34 8 4.68 8 4 8 C0 2.58823529 0 2.58823529 0 0 Z " fill="#422738" transform="translate(361,629)"/>
<path d="M0 0 C0.33 0 0.66 0 1 0 C1.33 6.6 1.66 13.2 2 20 C0 19 0 19 -1.125 15.9375 C-1.41375 14.968125 -1.7025 13.99875 -2 13 C-1.34 13 -0.68 13 0 13 C0 8.71 0 4.42 0 0 Z " fill="#553F4D" transform="translate(576,629)"/>
<path d="M0 0 C1 3 1 3 0.00390625 5.04296875 C-0.47175781 5.75066406 -0.94742188 6.45835937 -1.4375 7.1875 C-1.91058594 7.90292969 -2.38367188 8.61835938 -2.87109375 9.35546875 C-3.24363281 9.89816406 -3.61617187 10.44085938 -4 11 C-5.19873962 7.05272168 -4.6900877 4.80269732 -3 1 C-2.01 0.67 -1.02 0.34 0 0 Z " fill="#4F3544" transform="translate(717,465)"/>
<path d="M0 0 C0.33 0.66 0.66 1.32 1 2 C0.39671875 2.03738281 -0.2065625 2.07476562 -0.828125 2.11328125 C-6.99367772 2.56253341 -6.99367772 2.56253341 -12 6 C-9.40401988 0.00927665 -6.20086134 -0.23399477 0 0 Z " fill="#503947" transform="translate(420,498)"/>
<path d="M0 0 C1.9453125 -0.29296875 1.9453125 -0.29296875 4.125 -0.1875 C5.40375 -0.125625 6.6825 -0.06375 8 0 C7.67 0.99 7.34 1.98 7 3 C4.03 3 1.06 3 -2 3 C-1.34 2.01 -0.68 1.02 0 0 Z " fill="#EEE5EC" transform="translate(646,655)"/>
<path d="M0 0 C1.9453125 -0.29296875 1.9453125 -0.29296875 4.125 -0.1875 C5.40375 -0.125625 6.6825 -0.06375 8 0 C7.67 0.99 7.34 1.98 7 3 C4.03 3 1.06 3 -2 3 C-1.34 2.01 -0.68 1.02 0 0 Z " fill="#EFE6EC" transform="translate(439,655)"/>
<path d="M0 0 C2.64 0 5.28 0 8 0 C7.67 0.99 7.34 1.98 7 3 C3.04 3 -0.92 3 -5 3 C-5 2.67 -5 2.34 -5 2 C-3.35 1.67 -1.7 1.34 0 1 C0 0.67 0 0.34 0 0 Z " fill="#EFE4EC" transform="translate(646,642)"/>
<path d="M0 0 C2 1 2 1 2 1 Z M-2 1 C-1.34 1.33 -0.68 1.66 0 2 C-2.64 4.97 -5.28 7.94 -8 11 C-8.66 10.67 -9.32 10.34 -10 10 C-7.36 7.03 -4.72 4.06 -2 1 Z " fill="#4D3343" transform="translate(197,550)"/>
<path d="M0 0 C0.99 0.66 1.98 1.32 3 2 C1.44499019 5.81684226 -1.03595495 8.19195732 -4 11 C-2.7874262 7.27566618 -1.49140021 3.62197194 0 0 Z " fill="#482B3C" transform="translate(763,414)"/>
<path d="M0 0 C2.64 0 5.28 0 8 0 C7.01 1.485 7.01 1.485 6 3 C3.375 3.1875 3.375 3.1875 1 3 C0.67 2.01 0.34 1.02 0 0 Z " fill="#402537" transform="translate(607,652)"/>
<path d="M0 0 C0.66 0.99 1.32 1.98 2 3 C0.35 5.31 -1.3 7.62 -3 10 C-3.33 9.34 -3.66 8.68 -4 8 C-3.22265625 6.0546875 -3.22265625 6.0546875 -2.0625 3.875 C-1.49208984 2.78832031 -1.49208984 2.78832031 -0.91015625 1.6796875 C-0.60980469 1.12539063 -0.30945313 0.57109375 0 0 Z " fill="#472D3D" transform="translate(755,431)"/>
<path d="M0 0 C0.33 0 0.66 0 1 0 C1 2.31 1 4.62 1 7 C0.01 7 -0.98 7 -2 7 C-2.33 6.01 -2.66 5.02 -3 4 C-1.625 1.8125 -1.625 1.8125 0 0 Z " fill="#432939" transform="translate(422,513)"/>
<path d="M0 0 C0.66 0.99 1.32 1.98 2 3 C-0.94837771 4.80178638 -3.89978679 6.47639094 -7 8 C-6.02133662 6.85373678 -5.04205413 5.70800212 -4.0625 4.5625 C-3.51722656 3.92441406 -2.97195313 3.28632812 -2.41015625 2.62890625 C-1.63204305 1.73008851 -0.84063472 0.84063472 0 0 Z " fill="#402836" transform="translate(696,513)"/>
<path d="M0 0 C-1.50223584 4.20626034 -4.28550034 5.73900021 -8 8 C-6.48291727 4.46014029 -4.24676932 0 0 0 Z " fill="#4D3443" transform="translate(876,505)"/>
</svg>
