<?xml version="1.0" standalone="no"?>
<!DOCTYPE svg PUBLIC "-//W3C//DTD SVG 20010904//EN"
 "http://www.w3.org/TR/2001/REC-SVG-20010904/DTD/svg10.dtd">
<svg version="1.0" xmlns="http://www.w3.org/2000/svg"
 width="2000.000000pt" height="2000.000000pt" viewBox="0 0 2000.000000 2000.000000"
 preserveAspectRatio="xMidYMid meet">
<metadata>
Created by potrace 1.16, written by Peter Selinger 2001-2019
</metadata>
<g transform="translate(0.000000,2000.000000) scale(0.100000,-0.100000)"
fill="#000000" stroke="none">
<path d="M6533 17991 c-10 -10 -27 -21 -38 -23 -28 -5 -43 -69 -25 -104 12
-21 12 -29 1 -46 -11 -18 -11 -23 3 -33 12 -9 14 -21 10 -44 -5 -21 -3 -31 6
-31 8 0 10 -8 6 -24 -3 -14 -1 -37 4 -51 7 -17 7 -39 1 -60 -9 -33 1 -71 12
-44 3 8 6 3 6 -11 1 -15 -5 -32 -11 -39 -11 -10 -9 -15 5 -26 13 -9 17 -20 12
-34 -3 -12 -2 -21 3 -21 9 0 11 -27 13 -150 1 -14 5 -30 10 -37 6 -6 7 -28 3
-47 -4 -24 -2 -36 5 -36 14 0 15 -37 1 -45 -11 -7 -4 -45 9 -55 4 -3 8 -14 9
-25 0 -11 2 -41 4 -67 2 -25 6 -50 11 -54 11 -12 8 -49 -5 -63 -11 -10 -10
-15 5 -25 13 -10 15 -21 11 -45 -5 -21 -3 -31 6 -31 7 0 10 -8 7 -20 -3 -11
-1 -38 4 -60 5 -24 6 -48 0 -58 -12 -23 -3 -50 11 -31 6 9 7 -2 3 -33 -4 -29
-2 -48 3 -48 6 0 8 -17 5 -40 -4 -24 -2 -40 5 -40 5 0 10 -10 11 -22 3 -61 8
-95 16 -112 5 -11 4 -26 -3 -37 -12 -19 -6 -52 8 -44 5 3 9 -3 9 -12 0 -10 3
-40 6 -68 4 -27 6 -67 5 -88 0 -27 3 -36 11 -31 9 5 10 -1 5 -20 -4 -16 -2
-26 5 -26 7 0 9 -9 5 -25 -4 -16 -2 -25 5 -25 7 0 9 -9 6 -21 -3 -12 -1 -32 5
-45 8 -17 8 -28 1 -35 -7 -7 -8 -23 -3 -42 4 -18 11 -45 14 -60 4 -15 10 -26
15 -23 9 6 12 -13 11 -61 0 -18 5 -33 11 -33 6 0 9 -7 5 -15 -7 -19 3 -47 15
-39 5 3 9 -18 9 -45 0 -28 4 -51 10 -51 5 0 9 -8 8 -17 -3 -41 3 -63 17 -63
17 0 21 -26 5 -32 -11 -3 10 -58 22 -58 4 0 5 -7 2 -15 -3 -8 -2 -20 2 -27 5
-7 9 -17 9 -23 1 -5 5 -19 9 -30 4 -11 12 -32 18 -47 6 -16 15 -28 20 -28 5 0
6 -4 3 -10 -3 -5 2 -24 12 -42 9 -18 18 -43 20 -56 1 -13 6 -29 11 -35 6 -7
15 -30 21 -52 6 -23 19 -50 29 -61 10 -11 17 -25 14 -32 -2 -6 3 -15 12 -18 8
-3 12 -12 9 -20 -4 -10 2 -17 16 -21 16 -4 19 -11 15 -27 -3 -14 2 -28 15 -40
11 -10 17 -24 14 -32 -3 -8 2 -16 10 -20 9 -3 13 -12 10 -20 -3 -7 2 -16 10
-20 9 -3 14 -11 11 -18 -3 -7 2 -19 11 -26 8 -7 15 -19 15 -27 0 -7 7 -16 15
-19 8 -4 15 -14 15 -24 0 -10 11 -31 24 -47 12 -15 31 -44 40 -64 10 -20 30
-52 47 -70 16 -18 29 -36 29 -40 0 -14 61 -99 71 -99 5 0 9 -7 9 -15 0 -8 9
-19 20 -25 11 -6 20 -17 20 -25 0 -8 9 -19 20 -25 11 -6 20 -17 20 -26 0 -8 7
-17 15 -20 8 -4 15 -12 15 -20 0 -8 9 -19 20 -26 11 -7 20 -17 20 -22 0 -6 21
-30 48 -55 49 -48 151 -163 165 -187 4 -8 15 -14 22 -14 8 0 15 -8 15 -18 0
-10 27 -42 60 -71 33 -29 60 -59 60 -65 0 -18 53 -66 73 -66 9 0 17 -6 17 -12
1 -16 85 -108 98 -108 6 0 12 -8 14 -18 2 -10 30 -43 64 -73 33 -31 59 -60 57
-66 -2 -5 12 -22 32 -37 19 -15 35 -33 35 -41 0 -8 11 -22 24 -30 13 -9 26
-25 29 -37 4 -13 11 -19 20 -15 9 3 14 -1 13 -11 0 -9 9 -21 21 -27 12 -5 23
-19 25 -30 2 -11 10 -20 18 -20 8 0 17 -11 20 -25 3 -14 16 -30 28 -36 12 -6
19 -13 16 -17 -9 -9 46 -77 62 -77 8 0 14 -9 14 -21 0 -12 8 -23 19 -26 11 -3
17 -11 15 -18 -3 -8 3 -18 14 -24 11 -6 25 -24 30 -41 6 -17 19 -34 29 -38 10
-4 18 -14 18 -22 0 -8 9 -19 21 -25 11 -5 19 -16 16 -23 -2 -7 5 -16 17 -19
11 -3 18 -9 15 -15 -8 -13 24 -58 42 -58 8 0 13 -4 10 -9 -9 -14 123 -201 141
-201 9 0 13 -6 10 -14 -6 -14 76 -160 108 -196 8 -9 15 -24 15 -33 0 -9 11
-24 25 -33 15 -10 25 -26 25 -39 0 -28 49 -125 67 -132 8 -3 11 -14 7 -29 -4
-15 1 -33 14 -51 10 -15 17 -33 15 -40 -5 -14 20 -65 41 -82 10 -9 14 -22 10
-37 -7 -29 12 -90 31 -98 10 -4 13 -14 9 -36 -4 -20 -2 -30 5 -30 8 0 10 -11
6 -33 -5 -25 -1 -39 15 -60 16 -20 20 -35 15 -57 -5 -21 -3 -30 6 -30 10 0 10
-3 2 -11 -14 -14 -5 -42 9 -33 6 4 8 -1 4 -13 -3 -10 0 -28 8 -39 10 -12 13
-31 9 -56 -6 -42 3 -91 16 -83 5 3 7 -4 4 -15 -3 -11 -1 -20 5 -20 14 0 25
-49 14 -63 -13 -17 5 -80 20 -71 8 5 9 1 4 -11 -3 -10 0 -28 9 -41 9 -15 13
-34 9 -53 -4 -20 -2 -31 5 -31 6 0 8 -11 4 -30 -4 -24 0 -36 17 -55 17 -18 20
-30 15 -54 -4 -18 -3 -31 3 -31 6 0 8 -9 5 -20 -3 -11 0 -20 6 -20 5 0 8 -6 5
-14 -3 -8 2 -26 11 -39 10 -16 14 -34 9 -51 -8 -34 3 -79 18 -70 8 5 9 2 5 -9
-3 -10 -3 -17 2 -17 12 0 21 -53 10 -66 -12 -14 10 -84 35 -112 16 -19 18 -26
9 -41 -15 -24 1 -86 31 -119 16 -17 18 -27 10 -40 -13 -21 2 -86 17 -76 6 3 9
0 8 -7 -2 -8 2 -24 9 -36 7 -13 10 -34 6 -49 -4 -17 -3 -25 3 -21 5 4 10 -7
10 -25 0 -18 5 -34 11 -36 7 -2 12 -24 12 -51 0 -57 16 -107 36 -115 16 -6 19
-36 3 -36 -14 0 -2 -38 24 -75 13 -18 20 -43 19 -65 -1 -45 15 -97 33 -104 16
-6 21 -36 6 -36 -6 0 -6 -12 0 -30 6 -17 16 -27 22 -23 6 4 7 1 3 -6 -5 -7 0
-21 9 -31 9 -10 14 -24 10 -30 -9 -15 4 -68 22 -86 9 -9 16 -29 16 -45 0 -16
4 -29 9 -29 5 0 6 -10 3 -23 -4 -16 0 -29 14 -41 15 -14 19 -26 14 -48 -4 -21
0 -37 16 -58 12 -17 21 -44 21 -64 0 -22 9 -45 24 -63 17 -20 22 -36 19 -59
-4 -23 2 -38 21 -62 20 -23 25 -37 20 -56 -4 -19 0 -31 19 -48 19 -18 24 -30
20 -51 -4 -22 1 -35 22 -57 20 -21 25 -34 20 -50 -7 -22 11 -80 25 -80 4 0 10
-18 14 -40 3 -23 14 -43 24 -49 13 -7 17 -18 14 -43 -3 -25 3 -40 22 -61 15
-16 26 -34 25 -40 -4 -35 3 -55 21 -60 17 -4 20 -10 14 -33 -5 -18 -2 -31 7
-38 14 -11 18 -20 27 -66 2 -14 16 -36 29 -49 18 -17 21 -26 13 -31 -14 -9 13
-70 31 -70 6 0 9 -7 6 -15 -8 -18 45 -134 71 -158 11 -11 18 -25 16 -32 -7
-18 14 -55 31 -55 11 0 13 -8 9 -29 -5 -22 -1 -32 16 -44 12 -8 19 -20 16 -25
-9 -15 15 -62 32 -62 10 0 13 -7 9 -21 -7 -25 12 -59 32 -59 9 0 11 -7 8 -22
-4 -15 0 -30 12 -43 11 -11 21 -31 23 -45 2 -14 9 -24 15 -23 7 2 10 -4 7 -12
-4 -10 0 -15 11 -15 13 0 16 -6 11 -24 -4 -17 1 -30 20 -49 14 -14 23 -31 19
-36 -3 -6 6 -22 20 -37 14 -14 24 -31 23 -37 -4 -18 91 -196 111 -209 10 -6
16 -18 14 -27 -2 -9 5 -25 16 -35 12 -11 21 -25 21 -32 0 -8 11 -21 25 -30 26
-17 34 -44 13 -44 -15 0 -100 66 -98 75 1 4 -12 17 -28 29 -16 11 -64 48 -107
81 -109 84 -138 105 -148 105 -5 0 -18 11 -28 25 -11 13 -26 22 -33 19 -7 -3
-21 6 -30 20 -9 15 -24 26 -34 26 -9 0 -22 8 -29 19 -6 10 -32 28 -57 40 -24
12 -46 26 -48 30 -5 11 -95 71 -100 66 -3 -3 -15 6 -28 20 -13 14 -31 25 -41
25 -9 0 -19 7 -23 15 -3 8 -13 15 -22 15 -9 0 -29 11 -46 25 -16 14 -37 25
-45 25 -9 0 -26 11 -39 25 -13 14 -32 25 -44 25 -11 0 -20 4 -20 9 0 5 -10 13
-22 17 -13 4 -34 15 -48 26 -14 10 -36 20 -50 23 -14 3 -26 9 -28 15 -2 5 -13
10 -24 10 -11 0 -31 12 -44 26 -17 18 -30 23 -44 19 -13 -4 -22 -1 -26 9 -3 9
-10 13 -15 11 -4 -3 -32 10 -60 30 -28 19 -62 35 -75 35 -13 0 -24 4 -24 8 0
11 -46 32 -70 32 -11 0 -20 4 -20 9 0 12 -79 43 -91 35 -6 -3 -19 3 -30 15
-11 12 -32 21 -48 21 -16 0 -34 7 -41 15 -8 9 -21 13 -36 9 -17 -4 -26 -1 -30
11 -4 9 -13 14 -20 11 -7 -3 -21 2 -30 12 -11 10 -32 16 -56 16 -21 -1 -38 3
-38 8 0 14 -69 40 -90 33 -10 -3 -25 1 -33 10 -9 8 -42 20 -74 26 -32 6 -66
18 -75 26 -9 8 -31 16 -48 17 -17 1 -34 6 -38 12 -11 17 -51 36 -62 29 -6 -4
-18 3 -28 14 -9 12 -28 23 -41 26 -14 3 -29 11 -33 19 -5 9 -14 13 -22 10 -7
-3 -34 16 -60 42 -48 49 -87 74 -113 74 -10 0 -13 6 -9 16 7 19 -47 80 -62 70
-5 -3 -9 2 -8 12 0 9 -9 21 -21 27 -13 5 -23 15 -23 21 0 6 -7 18 -16 25 -9 7
-20 23 -25 36 -5 13 -16 23 -24 23 -9 0 -13 4 -10 10 9 14 -13 50 -30 50 -9 0
-12 6 -9 15 4 8 -6 27 -24 44 -16 17 -27 32 -24 35 7 8 -27 76 -39 76 -6 0 -8
4 -4 9 7 12 -25 81 -37 81 -5 0 -6 5 -3 10 4 6 0 22 -9 35 -9 13 -16 33 -16
44 0 11 -9 25 -20 31 -14 8 -19 17 -15 30 3 10 1 21 -5 25 -6 4 -8 15 -5 25 3
10 2 21 -3 24 -6 3 -13 22 -16 41 -4 20 -14 39 -22 42 -7 3 -14 9 -14 15 0 5
5 6 10 3 13 -8 13 -5 -1 34 -9 24 -14 29 -20 19 -5 -7 -6 3 -2 24 4 26 2 38
-6 38 -7 0 -12 10 -11 23 4 38 0 48 -12 41 -8 -5 -9 -2 -5 9 3 10 2 17 -4 17
-5 0 -7 11 -3 25 4 15 2 25 -5 25 -6 0 -11 17 -11 40 0 22 -4 40 -10 40 -5 0
-10 5 -10 11 0 5 5 7 10 4 11 -7 13 6 4 29 -3 9 -10 14 -14 11 -5 -3 -6 4 -3
15 3 11 1 20 -5 20 -13 0 -21 47 -10 58 10 10 -10 74 -22 67 -12 -7 -21 24
-14 50 3 13 3 33 -1 46 -6 17 -9 19 -17 8 -8 -11 -9 -10 -4 4 10 31 -38 187
-57 187 -5 0 -5 9 -2 20 4 12 2 26 -3 33 -5 7 -17 36 -26 64 -10 29 -22 55
-27 58 -5 4 -9 15 -9 26 0 11 -7 22 -15 25 -8 4 -12 10 -9 15 3 5 -2 19 -10
31 -9 12 -16 30 -16 39 0 9 -9 28 -20 42 -11 14 -20 32 -20 40 0 8 -10 25 -23
39 -13 14 -21 30 -19 36 2 7 -10 26 -27 42 -16 17 -28 36 -26 43 2 7 -9 30
-25 52 -16 22 -41 63 -55 90 -14 28 -34 57 -44 66 -10 8 -21 24 -25 35 -3 11
-19 34 -36 52 -16 18 -30 38 -30 43 0 5 -7 12 -15 15 -8 4 -15 13 -15 20 0 8
-7 17 -15 20 -8 4 -15 12 -15 20 0 7 -22 35 -49 62 -26 26 -50 53 -52 59 -2 6
-22 26 -44 44 -22 19 -40 39 -40 44 0 17 -261 265 -279 265 -13 0 -16 5 -11
20 5 15 0 22 -17 29 -13 5 -48 34 -80 65 -31 31 -61 56 -67 56 -6 0 -15 9 -21
20 -6 11 -17 20 -25 20 -8 0 -19 9 -25 20 -6 11 -17 20 -25 20 -8 0 -19 9 -25
20 -6 11 -16 20 -23 20 -7 0 -18 9 -25 20 -7 11 -20 20 -30 20 -10 0 -38 18
-62 40 -24 22 -49 40 -56 40 -7 0 -24 10 -37 23 -33 30 -75 58 -82 55 -4 -2
-11 5 -16 15 -6 9 -19 17 -29 17 -11 0 -24 9 -30 20 -6 11 -18 20 -28 20 -9 0
-28 12 -41 25 -13 14 -26 23 -29 20 -3 -3 -18 6 -33 21 -14 14 -34 26 -42 28
-9 1 -24 9 -34 17 -31 24 -62 39 -83 39 -11 0 -20 7 -20 15 0 8 -12 18 -27 21
-16 4 -43 20 -61 36 -18 15 -36 28 -40 29 -30 3 -45 10 -56 25 -8 10 -18 14
-25 10 -7 -5 -22 3 -36 18 -14 15 -35 26 -50 26 -14 0 -25 5 -25 10 0 6 -8 10
-19 10 -10 0 -24 7 -31 15 -7 8 -18 15 -25 15 -7 0 -16 7 -19 16 -4 9 -13 13
-24 10 -12 -4 -27 3 -42 19 -13 14 -32 25 -42 25 -10 0 -27 9 -38 20 -11 11
-31 20 -45 20 -14 0 -25 5 -25 10 0 6 -8 10 -17 10 -10 1 -34 14 -53 30 -19
17 -44 30 -56 30 -12 0 -24 7 -28 15 -3 8 -14 15 -24 15 -11 0 -25 7 -32 15
-7 8 -20 15 -29 15 -10 0 -28 11 -41 25 -13 14 -31 25 -40 25 -9 0 -25 9 -35
20 -10 11 -26 20 -37 20 -10 0 -28 10 -40 22 -13 13 -28 22 -34 20 -6 -1 -14
7 -17 18 -3 13 -13 20 -31 20 -15 0 -30 8 -36 20 -6 11 -19 20 -29 20 -10 0
-21 9 -24 20 -3 12 -14 20 -27 20 -12 0 -31 11 -42 25 -11 14 -24 25 -29 25
-5 0 -18 9 -29 20 -11 11 -27 20 -35 20 -8 0 -15 4 -15 10 0 13 -72 79 -86 80
-7 0 -14 7 -18 15 -14 37 -111 -13 -116 -60 -4 -33 -1 -47 9 -41 5 4 7 -3 4
-13 -3 -13 1 -20 12 -23 11 -2 19 -14 21 -31 1 -16 11 -35 20 -41 9 -7 14 -18
10 -25 -4 -6 -1 -14 8 -17 8 -3 12 -12 9 -20 -3 -7 2 -16 10 -20 9 -3 13 -12
10 -20 -3 -7 5 -25 16 -40 12 -15 21 -32 21 -38 0 -24 26 -65 43 -70 13 -3 16
-10 11 -30 -4 -18 1 -34 20 -59 14 -18 23 -37 19 -41 -4 -3 3 -20 15 -36 12
-16 22 -38 22 -48 0 -11 9 -31 20 -45 11 -14 20 -33 20 -42 0 -25 19 -55 36
-55 10 0 13 -7 8 -25 -4 -15 -2 -25 5 -25 6 0 11 -9 11 -20 0 -11 7 -23 15
-26 10 -4 13 -13 9 -26 -7 -24 14 -68 33 -68 17 0 17 -17 1 -24 -10 -3 -9 -8
3 -18 9 -7 14 -18 12 -24 -2 -6 3 -17 12 -24 8 -7 15 -25 15 -40 0 -15 11 -39
26 -55 18 -20 22 -30 14 -35 -14 -9 0 -41 32 -77 13 -14 18 -28 13 -42 -7 -22
13 -61 32 -61 16 0 17 -17 1 -22 -16 -6 6 -59 33 -84 15 -13 18 -25 14 -46 -5
-22 -1 -33 19 -51 21 -20 25 -30 20 -55 -5 -24 -1 -36 19 -56 16 -16 23 -32
20 -45 -6 -24 17 -81 33 -81 7 0 11 -18 11 -42 0 -27 6 -45 17 -53 9 -7 16
-22 16 -33 0 -31 21 -72 37 -72 9 0 11 -8 7 -26 -5 -18 0 -34 15 -54 11 -16
21 -39 21 -50 0 -12 11 -32 24 -45 15 -15 22 -32 19 -43 -2 -10 3 -24 11 -31
9 -8 16 -19 16 -25 0 -11 37 -85 148 -298 21 -42 42 -68 56 -72 16 -5 18 -8 8
-14 -10 -7 -6 -20 19 -60 18 -29 36 -52 40 -52 5 0 9 -9 9 -20 0 -13 10 -24
26 -30 18 -7 24 -15 20 -26 -6 -16 87 -164 104 -164 6 0 10 -9 10 -20 0 -11 9
-25 20 -32 11 -7 20 -18 20 -24 0 -7 11 -19 25 -28 14 -9 25 -23 25 -32 0 -21
49 -84 65 -84 7 0 12 -8 11 -17 0 -10 9 -22 22 -28 12 -5 22 -18 22 -27 0 -10
11 -25 25 -34 14 -9 25 -22 25 -28 0 -7 13 -22 30 -34 16 -13 30 -28 30 -35 0
-7 25 -33 55 -60 30 -26 60 -60 67 -75 8 -15 21 -26 31 -26 9 1 14 -2 11 -8
-9 -13 16 -38 38 -38 10 0 16 -5 13 -10 -7 -11 43 -70 59 -70 12 0 91 -73 92
-85 1 -6 11 -15 23 -21 12 -6 32 -21 45 -33 12 -11 26 -21 32 -21 5 0 22 -18
38 -40 17 -22 35 -40 41 -40 5 0 16 -9 23 -20 7 -11 18 -20 26 -20 7 0 21 -9
31 -20 10 -11 26 -20 37 -20 10 0 18 -5 18 -10 0 -11 183 -150 198 -150 5 0
17 -9 27 -20 10 -11 21 -18 25 -15 4 2 18 -7 30 -20 13 -14 29 -25 36 -25 6 0
17 -7 24 -15 7 -8 21 -15 31 -15 10 0 22 -6 26 -13 10 -18 63 -52 63 -41 0 4
11 -3 24 -15 13 -12 31 -23 39 -25 9 -1 25 -10 35 -19 11 -10 29 -20 42 -22
12 -2 28 -12 35 -21 7 -10 17 -14 24 -10 7 5 22 -3 36 -18 13 -14 33 -26 45
-26 11 0 29 -9 41 -21 13 -13 27 -18 40 -14 12 4 21 1 25 -10 4 -9 13 -13 24
-10 10 3 24 -3 36 -16 22 -25 66 -49 89 -49 9 0 23 -7 32 -16 9 -8 22 -13 30
-10 14 6 39 -6 82 -36 13 -10 36 -18 51 -18 15 0 33 -7 40 -15 7 -8 28 -15 46
-15 21 0 42 -8 54 -20 11 -11 33 -20 50 -20 17 0 30 -5 30 -11 0 -6 7 -9 15
-5 8 3 22 -2 31 -11 9 -9 32 -17 52 -19 53 -3 54 -3 47 -13 -7 -12 32 -25 69
-22 36 2 68 -8 61 -19 -8 -13 30 -22 59 -14 16 4 26 2 26 -5 0 -6 6 -11 13
-11 7 0 30 -9 52 -20 22 -11 51 -20 65 -20 14 0 34 -7 44 -15 11 -8 32 -15 48
-15 15 0 28 -4 28 -10 0 -5 7 -6 17 -3 10 4 14 2 10 -4 -8 -13 15 -23 53 -23
16 0 36 -7 44 -16 9 -8 21 -12 27 -8 7 4 9 3 6 -3 -9 -14 15 -23 41 -16 14 3
24 -2 32 -17 8 -15 17 -19 31 -15 11 4 19 2 19 -4 0 -6 11 -11 25 -11 14 0 25
-5 25 -11 0 -6 7 -8 16 -5 8 3 13 2 10 -3 -8 -12 20 -22 40 -14 10 4 22 0 28
-9 14 -19 50 -38 71 -38 9 0 23 -7 31 -15 9 -8 25 -15 36 -15 11 0 31 -9 45
-20 14 -11 34 -20 44 -20 10 0 35 -11 55 -25 20 -14 47 -25 59 -25 12 0 28 -7
35 -15 7 -9 21 -13 31 -10 11 4 19 2 19 -4 0 -15 62 -52 77 -46 7 2 24 -7 38
-21 14 -14 32 -23 40 -20 8 3 26 -6 40 -20 14 -14 32 -23 40 -20 8 3 26 -6 40
-20 14 -14 32 -23 40 -20 8 3 26 -6 39 -19 14 -14 37 -25 51 -25 14 0 25 -4
25 -10 0 -5 7 -10 16 -10 9 0 29 -11 46 -25 16 -14 40 -25 53 -25 14 0 25 -7
28 -20 4 -14 14 -20 34 -20 16 0 36 -9 46 -20 9 -11 28 -20 42 -20 14 0 25 -5
25 -10 0 -13 61 -51 71 -45 4 3 12 -2 19 -10 7 -8 19 -15 26 -15 8 0 23 -9 34
-20 11 -11 28 -20 39 -20 10 0 24 -7 31 -15 7 -8 20 -15 29 -15 10 0 28 -11
41 -25 13 -14 34 -25 47 -25 13 0 23 -4 23 -10 0 -5 8 -10 18 -10 10 0 32 -13
50 -30 18 -16 41 -30 51 -30 10 0 24 -7 31 -15 7 -8 23 -15 36 -15 14 0 24 -6
24 -14 0 -14 21 -26 47 -26 8 0 24 -11 35 -25 11 -14 28 -25 38 -25 11 0 24
-9 30 -20 6 -11 19 -20 30 -20 11 0 24 -9 30 -20 6 -11 18 -20 26 -20 9 0 25
-11 36 -25 11 -14 24 -25 30 -25 28 0 368 -310 368 -336 0 -8 14 -23 30 -36
17 -12 30 -27 30 -34 0 -7 6 -17 13 -21 8 -4 16 -16 20 -25 3 -10 13 -18 21
-18 9 0 13 -6 10 -14 -3 -9 3 -20 15 -28 12 -7 21 -20 21 -29 0 -20 44 -62 55
-52 4 5 5 0 2 -10 -4 -11 -1 -20 8 -23 8 -4 15 -13 15 -20 0 -18 50 -94 62
-94 4 0 13 -11 18 -25 5 -14 16 -25 25 -25 9 0 15 -9 15 -25 0 -14 9 -30 20
-37 11 -7 20 -18 20 -25 0 -7 9 -18 20 -25 11 -7 20 -18 20 -25 0 -7 11 -20
25 -29 14 -9 25 -22 25 -30 0 -7 11 -20 23 -29 13 -8 29 -27 35 -40 7 -14 23
-30 37 -35 15 -6 23 -14 20 -20 -6 -10 89 -110 106 -110 5 0 9 -6 9 -12 0 -18
380 -399 391 -392 5 3 9 0 9 -6 0 -12 29 -39 169 -161 122 -106 165 -140 189
-150 13 -5 21 -13 18 -18 -3 -5 8 -14 25 -20 17 -6 28 -15 25 -20 -4 -5 7 -15
24 -23 16 -7 30 -17 30 -22 0 -12 29 -34 69 -52 18 -8 31 -18 28 -21 -3 -3 17
-23 46 -44 28 -21 55 -45 60 -54 4 -8 14 -15 21 -15 8 0 16 -6 19 -14 3 -7 17
-16 31 -20 15 -4 44 -24 65 -46 21 -22 44 -40 51 -40 6 0 33 -18 59 -40 26
-22 52 -40 58 -40 6 0 13 -7 17 -15 3 -8 12 -15 20 -15 9 0 23 -11 32 -25 9
-14 24 -25 33 -25 10 0 37 -18 61 -40 24 -22 49 -40 55 -40 7 0 20 -9 30 -20
10 -11 25 -20 34 -20 9 0 22 -9 28 -19 7 -11 32 -32 57 -46 24 -14 47 -32 50
-40 3 -8 14 -15 25 -15 10 0 33 -14 51 -30 18 -17 43 -33 55 -36 13 -3 25 -14
28 -25 3 -10 14 -19 24 -19 11 0 30 -11 43 -25 13 -14 29 -25 35 -25 7 0 20
-9 30 -20 10 -11 26 -20 37 -20 10 0 18 -4 18 -10 0 -5 15 -20 34 -32 18 -13
62 -43 97 -68 35 -24 69 -43 76 -42 7 1 17 -7 23 -18 6 -11 17 -20 25 -20 8 0
19 -9 25 -20 8 -14 17 -19 30 -15 10 3 21 1 25 -5 10 -17 55 -11 91 11 33 20
33 21 17 43 -10 13 -30 29 -45 35 -15 7 -45 30 -67 52 -23 21 -48 39 -56 39
-8 0 -15 4 -15 9 0 5 -10 13 -22 17 -13 4 -29 15 -36 25 -7 11 -33 28 -56 39
-25 11 -46 28 -49 40 -3 13 -13 20 -29 20 -17 0 -29 8 -36 25 -7 15 -20 25
-32 25 -11 0 -20 4 -20 9 0 5 -10 13 -22 17 -12 4 -30 16 -39 28 -10 12 -34
31 -56 41 -21 11 -43 27 -49 35 -7 9 -33 26 -58 38 -25 13 -46 27 -46 32 0 8
-85 70 -96 70 -2 0 -18 15 -34 34 -17 19 -42 37 -55 40 -14 4 -43 24 -64 46
-21 22 -43 40 -49 40 -5 0 -12 6 -15 14 -3 7 -17 16 -32 20 -14 4 -45 27 -70
51 -24 25 -48 45 -53 45 -6 0 -12 7 -16 15 -3 8 -12 15 -19 15 -8 0 -22 9 -32
20 -10 11 -22 20 -27 20 -4 0 -17 9 -28 20 -11 11 -27 20 -35 20 -8 0 -15 4
-15 9 0 11 -123 111 -136 111 -5 0 -22 18 -37 40 -16 22 -34 40 -41 40 -8 0
-21 11 -30 25 -9 14 -21 25 -28 25 -15 0 -147 109 -159 132 -5 10 -16 18 -23
18 -8 0 -33 23 -56 50 -23 28 -47 50 -53 50 -14 1 -68 49 -83 76 -6 10 -21 24
-34 31 -34 17 -260 244 -271 271 -5 13 -18 26 -29 29 -11 3 -20 10 -20 17 -1
6 -18 25 -39 41 -21 17 -37 33 -35 37 3 4 -25 37 -61 74 -36 37 -65 73 -65 80
0 8 -11 21 -25 30 -14 9 -25 22 -25 29 0 7 -11 20 -25 29 -14 9 -25 21 -25 27
0 6 -19 29 -43 53 -24 23 -42 47 -39 54 2 6 -7 22 -21 36 -13 13 -27 31 -30
40 -4 9 -13 16 -22 16 -8 0 -15 8 -15 18 0 10 -9 25 -20 35 -11 9 -20 23 -20
31 0 7 -18 32 -40 54 -22 22 -40 47 -40 56 0 9 -7 19 -15 22 -8 4 -15 14 -15
25 0 10 -9 24 -20 32 -10 7 -24 25 -29 40 -6 15 -15 27 -21 27 -5 0 -10 6 -10
14 0 7 -11 22 -25 32 -14 10 -23 25 -20 32 7 18 -24 62 -42 62 -9 0 -13 6 -9
15 3 8 -8 36 -24 63 -16 26 -39 64 -50 85 -11 20 -27 37 -35 37 -8 0 -12 6 -9
14 3 8 -7 36 -22 63 -15 26 -34 60 -41 75 -8 15 -24 34 -35 42 -11 8 -17 19
-14 25 7 11 -12 50 -33 67 -8 6 -11 16 -7 22 4 7 -5 24 -21 39 -15 16 -26 32
-25 37 7 20 -9 56 -24 56 -12 0 -15 6 -11 21 3 12 0 22 -8 25 -8 3 -11 12 -8
20 3 7 -2 16 -10 20 -9 3 -13 12 -11 19 7 17 -25 67 -37 59 -5 -3 -8 7 -7 23
2 29 -27 83 -44 83 -5 0 -7 9 -3 20 7 21 -20 80 -36 80 -7 0 -9 9 -6 22 7 26
-8 58 -28 58 -18 0 -19 12 -4 27 13 13 -14 71 -36 79 -10 4 -12 15 -9 34 5 20
0 34 -15 49 -12 12 -21 33 -21 49 0 15 -9 42 -20 59 -11 18 -17 39 -14 47 3 8
1 17 -5 21 -6 3 -11 15 -11 25 0 10 -9 25 -20 33 -15 11 -19 21 -14 44 4 22 0
36 -19 59 -18 21 -24 37 -20 56 4 18 -2 33 -18 49 -16 16 -22 33 -20 51 1 16
-6 40 -18 57 -11 15 -18 31 -15 34 9 9 -6 45 -31 75 -13 15 -23 35 -23 43 3
43 -4 61 -22 66 -17 5 -19 11 -14 38 4 25 0 38 -19 61 -17 19 -23 35 -17 43
11 19 -5 70 -31 97 -16 17 -19 30 -14 52 4 20 1 34 -9 45 -9 9 -13 23 -10 32
4 8 -1 24 -10 33 -8 10 -15 31 -15 48 0 68 -3 94 -12 94 -12 0 -12 33 1 46 10
10 3 54 -9 54 -8 0 -15 128 -15 250 1 193 7 320 15 320 6 0 7 29 3 67 -3 44
-2 63 4 55 8 -11 10 -11 15 1 3 7 1 20 -4 28 -12 19 -11 79 1 79 5 0 9 28 9
63 -1 117 3 167 13 167 6 0 7 13 3 31 -5 23 -3 34 12 44 14 11 16 16 6 26 -16
16 -17 85 -3 94 6 4 10 34 10 68 -1 104 1 127 12 127 6 0 7 15 3 40 -5 28 -3
40 5 40 8 0 9 10 5 30 -4 20 -3 30 5 30 9 0 10 13 6 43 -5 35 -3 48 14 67 22
25 26 40 10 40 -5 0 -10 7 -10 15 0 8 5 15 11 15 6 0 9 7 5 15 -3 8 0 15 6 15
7 0 9 13 5 36 -4 26 -2 37 9 41 11 4 14 13 9 30 -3 15 -2 22 4 19 14 -9 24 31
17 69 -5 22 -2 36 6 42 13 8 31 40 42 75 3 10 0 20 -6 24 -7 5 -5 11 6 20 10
7 15 17 12 22 -3 6 1 13 10 16 11 4 15 16 13 41 -3 24 2 38 15 48 10 7 19 26
19 42 1 16 12 39 25 52 12 12 22 33 22 46 0 13 9 32 21 43 13 11 19 27 16 40
-3 15 2 24 13 27 10 2 23 21 30 42 7 20 21 46 32 57 11 11 17 26 14 36 -4 12
2 21 17 27 12 6 24 19 26 30 2 11 9 24 17 28 8 4 14 19 14 32 0 15 6 25 14 25
17 0 54 49 84 113 16 32 30 47 43 47 10 0 19 5 19 11 0 6 11 20 25 31 14 11
25 26 25 33 0 8 18 29 40 46 23 18 38 39 36 46 -3 7 0 13 7 13 7 0 30 23 51
50 21 28 52 60 68 71 16 12 27 26 25 33 -2 6 9 19 25 28 15 10 28 24 28 32 0
8 7 16 15 20 8 3 15 11 15 18 0 7 9 19 20 26 11 7 20 19 20 27 0 8 9 19 20 25
11 6 20 17 20 24 0 7 18 32 40 56 22 24 40 49 40 55 0 6 11 22 24 35 14 12 34
41 45 64 10 23 26 48 35 55 9 8 16 19 16 26 0 6 8 19 18 28 10 9 35 49 56 89
21 40 42 81 47 91 5 9 14 25 19 35 6 9 15 28 21 42 5 14 26 57 45 97 20 43 31
78 27 88 -4 12 1 23 16 34 16 13 23 29 25 60 1 23 8 46 15 51 8 4 11 12 7 18
-3 5 1 13 10 16 10 4 15 16 14 33 -4 50 0 74 9 69 5 -3 12 1 15 10 8 22 8 26
-4 19 -15 -10 -12 11 4 24 9 8 14 29 13 57 -1 29 3 48 12 53 8 5 11 16 8 25
-4 9 -2 16 3 16 5 0 10 15 10 33 0 17 2 46 4 62 2 17 4 40 5 53 0 13 5 21 10
18 5 -3 12 2 16 11 3 10 1 19 -4 21 -6 2 -11 13 -11 25 0 16 3 18 9 9 7 -11 9
-11 14 1 3 8 1 19 -5 25 -7 7 -7 20 0 40 6 17 8 49 5 71 -4 29 -2 41 7 41 8 0
10 8 6 26 -5 19 -2 30 11 39 14 11 16 16 6 26 -14 14 -18 79 -5 79 9 0 11 27
11 148 0 55 4 82 12 82 8 0 9 11 4 36 -5 28 -2 39 12 49 14 11 16 16 6 26 -15
15 -18 109 -4 109 9 0 10 21 10 168 0 49 4 82 10 82 7 0 8 28 4 80 -3 45 -2
80 3 80 5 0 7 90 5 210 -2 163 0 214 10 226 11 14 10 18 -5 29 -13 10 -16 21
-11 49 4 21 3 36 -3 36 -5 0 -7 10 -5 23 6 31 -52 75 -104 78 -44 3 -63 -5
-63 -28 0 -11 -6 -14 -21 -10 -16 4 -35 -8 -79 -51 -32 -31 -99 -97 -149 -145
-50 -49 -89 -92 -86 -97 3 -4 -3 -7 -12 -6 -9 0 -22 -10 -29 -23 -7 -13 -25
-36 -40 -51 -53 -52 -84 -89 -84 -99 0 -6 -9 -15 -20 -21 -11 -6 -20 -17 -20
-25 0 -8 -9 -19 -20 -25 -11 -6 -20 -16 -20 -23 0 -7 -9 -18 -21 -25 -13 -8
-18 -19 -14 -31 4 -13 0 -20 -15 -24 -11 -3 -23 -13 -27 -24 -4 -10 -15 -24
-25 -31 -10 -7 -18 -20 -18 -28 0 -8 -9 -23 -20 -34 -11 -11 -20 -27 -20 -35
0 -8 -4 -15 -9 -15 -8 0 -21 -19 -74 -110 -55 -95 -147 -282 -147 -300 0 -11
-4 -20 -9 -20 -14 0 -33 -57 -26 -79 4 -14 0 -23 -14 -31 -12 -6 -23 -26 -27
-47 -4 -21 -13 -44 -21 -51 -7 -7 -13 -22 -13 -32 0 -10 -5 -22 -10 -25 -6 -4
-8 -16 -5 -27 4 -12 0 -27 -10 -38 -11 -12 -14 -26 -10 -39 4 -13 2 -21 -5
-21 -8 0 -10 -9 -6 -23 3 -13 -1 -32 -9 -44 -8 -12 -12 -29 -8 -39 4 -11 3
-15 -4 -11 -15 9 -23 -16 -23 -68 0 -24 -5 -47 -11 -51 -6 -3 -8 -17 -5 -30 4
-15 2 -24 -5 -24 -7 0 -9 -11 -5 -30 3 -19 2 -29 -4 -25 -6 3 -10 -14 -10 -42
0 -76 -1 -83 -12 -83 -6 0 -8 -13 -4 -35 4 -21 3 -35 -3 -35 -6 0 -8 -13 -5
-32 4 -23 3 -29 -4 -19 -14 20 -22 -7 -10 -38 5 -13 6 -33 2 -43 -3 -11 -6
-35 -6 -54 0 -21 -4 -32 -11 -27 -7 4 -8 -4 -4 -25 4 -20 2 -32 -4 -32 -6 0
-8 -17 -4 -47 4 -32 3 -43 -3 -34 -14 20 -21 -7 -11 -43 5 -16 5 -46 0 -68 -5
-21 -7 -47 -4 -58 3 -12 0 -20 -7 -20 -8 0 -10 -9 -6 -26 5 -19 2 -30 -11 -39
-14 -11 -16 -16 -5 -26 14 -15 16 -55 2 -64 -5 -3 -9 -23 -8 -43 2 -63 -5
-112 -15 -112 -5 0 -6 -15 -2 -36 4 -24 3 -34 -4 -29 -6 3 -14 -2 -18 -11 -4
-10 -2 -19 5 -22 7 -2 12 -13 12 -23 0 -11 -5 -17 -10 -14 -15 9 -24 -23 -11
-39 8 -10 10 -28 5 -53 -5 -21 -7 -44 -5 -52 1 -7 -2 -10 -7 -7 -6 3 -13 -2
-17 -11 -3 -10 -1 -19 4 -21 6 -2 11 -10 11 -18 0 -9 -5 -12 -10 -9 -6 3 -13
-2 -17 -11 -4 -10 -2 -19 5 -22 7 -2 12 -13 12 -25 0 -16 -3 -18 -9 -8 -13 20
-21 -9 -9 -33 7 -13 5 -31 -6 -61 -9 -23 -14 -49 -10 -59 4 -9 1 -16 -6 -16
-8 0 -10 -9 -6 -26 4 -15 3 -23 -3 -20 -14 9 -20 -16 -9 -37 6 -11 4 -28 -7
-52 -9 -18 -14 -42 -11 -53 4 -12 0 -24 -10 -32 -11 -10 -14 -23 -9 -46 4 -25
2 -35 -12 -43 -13 -7 -18 -21 -17 -55 0 -25 -2 -43 -7 -41 -11 8 -18 -22 -7
-33 7 -7 5 -21 -7 -45 -9 -20 -14 -41 -10 -46 3 -6 1 -11 -6 -11 -6 0 -9 -8
-6 -20 3 -11 1 -20 -4 -20 -5 0 -9 -15 -9 -33 0 -19 -7 -48 -16 -66 -9 -19
-13 -42 -10 -56 4 -14 2 -25 -4 -25 -5 0 -10 -22 -10 -50 0 -29 -5 -50 -11
-50 -6 0 -8 -9 -4 -21 5 -14 3 -19 -3 -15 -14 9 -22 -20 -22 -80 1 -68 -2 -84
-13 -84 -5 0 -7 -9 -4 -20 3 -11 1 -20 -5 -20 -5 0 -7 -12 -3 -30 4 -17 2 -30
-3 -30 -5 0 -10 -21 -10 -47 -1 -25 -6 -50 -13 -53 -6 -5 -8 -17 -4 -29 4 -13
2 -21 -5 -21 -9 0 -10 -12 -6 -37 4 -24 3 -33 -2 -25 -13 19 -24 -9 -11 -29 5
-8 6 -27 2 -44 -3 -16 -6 -40 -5 -52 1 -13 -3 -23 -9 -23 -6 0 -8 -7 -5 -16 4
-10 -1 -22 -11 -30 -14 -10 -16 -15 -5 -25 6 -7 12 -22 12 -33 0 -16 -2 -18
-9 -7 -13 21 -20 -7 -10 -44 5 -17 5 -45 0 -61 -5 -17 -7 -43 -4 -58 4 -17 1
-26 -7 -26 -8 0 -10 -9 -6 -26 5 -19 2 -30 -11 -39 -14 -11 -16 -16 -5 -26 14
-15 17 -73 2 -64 -14 9 -24 -23 -12 -38 5 -6 8 -41 6 -77 -3 -36 -5 -104 -5
-152 1 -50 -4 -88 -9 -88 -6 0 -7 -29 -3 -75 5 -67 4 -77 -13 -90 -15 -11 -17
-16 -6 -26 7 -8 12 -37 11 -68 0 -40 -3 -50 -9 -36 -7 18 -8 19 -15 2 -4 -9
-2 -23 4 -30 15 -19 10 -179 -7 -185 -6 -2 -14 2 -15 10 -2 7 -9 29 -15 47 -9
26 -9 37 -1 42 8 4 5 13 -8 26 -11 11 -19 34 -20 57 -1 21 -9 46 -19 57 -10
11 -19 37 -20 56 0 21 -8 41 -18 49 -11 8 -17 26 -18 54 0 28 -8 50 -23 68
-17 20 -22 35 -18 56 5 22 1 33 -18 47 -19 14 -23 26 -23 58 1 25 -2 38 -9 34
-6 -4 -8 3 -3 20 4 19 1 31 -15 46 -17 15 -19 24 -11 33 7 9 7 19 2 28 -6 8
-10 11 -10 5 0 -5 -5 -3 -10 5 -5 8 -7 23 -4 34 4 10 0 22 -7 26 -7 5 -13 29
-13 60 -1 37 -6 55 -18 64 -11 8 -17 25 -16 47 1 46 -19 106 -39 113 -11 5
-13 10 -6 17 11 11 6 49 -7 49 -4 0 -7 13 -6 30 0 16 -3 29 -8 29 -16 -1 -26
26 -20 54 3 16 1 27 -5 27 -6 0 -11 5 -11 11 0 5 5 7 11 3 18 -11 1 49 -18 63
-10 8 -14 22 -11 45 6 41 -9 99 -29 115 -11 8 -16 28 -15 57 0 28 -5 50 -14
57 -10 8 -13 22 -9 40 3 15 1 30 -4 34 -6 3 -11 24 -11 46 0 21 -4 39 -8 39
-5 0 -7 13 -4 28 2 18 -2 33 -12 41 -10 9 -16 30 -16 60 0 27 -8 63 -20 86
-11 22 -20 47 -20 57 0 10 -4 18 -10 18 -5 0 -10 5 -10 11 0 5 5 7 10 4 17
-11 11 20 -14 67 -15 29 -21 49 -15 55 13 13 0 45 -14 36 -6 -4 -8 0 -4 10 4
10 2 17 -4 17 -6 0 -9 7 -5 15 3 8 0 15 -6 15 -6 0 -8 3 -5 6 3 4 2 15 -4 26
-7 13 -7 23 0 32 12 15 4 49 -9 41 -5 -3 -6 4 -3 15 3 12 0 20 -7 20 -7 0 -9
8 -5 21 5 13 2 25 -6 30 -7 4 -13 24 -12 43 1 20 -3 36 -8 36 -13 0 -11 28 2
32 5 2 7 11 4 21 -4 9 -11 14 -16 11 -6 -3 -7 5 -3 20 4 18 2 26 -7 26 -7 0
-10 3 -7 6 3 3 2 20 -3 38 -5 18 -5 45 0 63 9 32 -1 67 -13 42 -3 -8 -3 12 0
44 3 37 2 57 -5 57 -14 0 -15 622 -1 636 11 11 2 54 -11 54 -5 0 -9 26 -8 58
1 31 -1 85 -4 118 -2 34 -1 67 3 74 5 7 6 20 3 27 -5 12 -7 12 -14 1 -6 -9 -9
-2 -9 19 0 17 4 34 10 38 5 3 6 13 3 21 -5 13 -7 13 -14 2 -6 -9 -9 -8 -9 7 0
12 6 27 13 34 10 10 9 15 -3 24 -16 12 -21 40 -20 115 0 30 -3 41 -11 36 -9
-5 -10 1 -5 20 4 16 2 26 -5 26 -7 0 -8 11 -4 30 4 17 2 30 -3 30 -9 0 -12 15
-13 73 0 20 -4 37 -9 37 -4 0 -6 9 -3 20 3 11 1 20 -5 20 -6 0 -8 9 -5 20 3
12 0 20 -7 20 -7 0 -11 14 -10 38 3 56 1 64 -12 56 -8 -5 -9 -2 -5 9 3 10 2
17 -4 17 -5 0 -7 11 -3 25 4 15 2 25 -5 25 -6 0 -10 17 -9 43 1 27 -6 60 -22
92 -13 27 -23 58 -23 68 1 10 -7 34 -18 53 -10 19 -19 45 -19 57 0 31 -22 77
-37 77 -16 0 -16 13 0 29 10 10 7 16 -13 31 -14 11 -19 20 -12 20 16 0 15 15
-3 34 -8 8 -15 26 -15 40 0 14 -9 35 -20 46 -11 11 -20 28 -20 37 0 31 -32
103 -43 96 -7 -4 -8 0 -3 12 4 11 -1 28 -11 44 -9 14 -18 31 -18 36 -1 26 -18
55 -31 55 -10 0 -13 6 -9 19 3 12 -4 30 -20 50 -15 17 -23 36 -20 42 4 6 -5
23 -19 38 -16 16 -24 34 -21 43 4 10 -4 24 -20 36 -15 12 -25 27 -22 34 6 18
-11 48 -28 48 -19 0 -30 21 -15 30 16 10 -16 60 -39 60 -13 0 -14 2 -2 9 11 7
7 19 -24 62 -21 29 -41 64 -44 78 -4 15 -17 30 -29 36 -12 5 -20 16 -17 23 6
17 -23 62 -42 62 -10 0 -12 6 -8 21 5 15 2 22 -13 26 -12 3 -18 11 -16 18 3 7
-6 25 -20 40 -14 15 -26 34 -26 42 0 7 -6 16 -14 19 -8 3 -19 19 -25 35 -5 16
-16 29 -24 29 -8 0 -14 8 -13 17 0 10 -9 22 -21 28 -15 6 -21 16 -18 26 4 10
-2 23 -14 31 -11 8 -25 26 -30 41 -6 15 -15 27 -21 27 -5 0 -10 7 -10 15 0 8
-9 19 -20 25 -11 6 -20 17 -20 25 0 8 -9 19 -19 24 -10 6 -24 24 -29 41 -6 17
-18 33 -27 36 -8 3 -15 11 -15 16 0 6 -16 25 -35 44 -19 18 -35 39 -35 46 0
17 -103 128 -118 128 -7 0 -12 6 -12 13 0 8 -17 32 -37 54 -21 23 -38 47 -38
54 0 7 -10 18 -22 25 -13 6 -20 14 -16 18 4 3 -12 24 -35 45 -23 22 -42 44
-42 49 0 5 -7 12 -15 16 -8 3 -20 17 -25 31 -5 14 -14 25 -20 25 -6 0 -15 11
-20 25 -5 14 -24 34 -42 45 -18 11 -33 27 -33 37 0 10 -10 22 -22 29 -13 6
-20 14 -17 17 4 3 -23 36 -60 73 -36 37 -66 73 -66 80 0 8 -10 19 -22 26 -13
7 -23 20 -23 28 0 8 -9 19 -21 25 -11 5 -19 15 -17 22 2 6 -10 21 -27 33 -16
12 -30 28 -30 35 0 8 -9 19 -20 25 -11 6 -20 17 -20 25 0 8 -9 19 -19 25 -11
5 -29 26 -41 45 -12 19 -26 33 -30 30 -5 -3 -19 16 -32 42 -24 49 -105 163
-117 163 -3 0 -12 13 -19 30 -7 16 -27 44 -43 61 -16 17 -29 33 -29 35 0 15
-76 114 -87 114 -8 0 -11 5 -8 10 7 12 -52 110 -65 110 -5 0 -12 10 -16 23 -3
12 -19 41 -35 65 -16 24 -29 47 -29 52 0 5 -10 21 -23 37 -13 15 -26 36 -30
46 -3 9 -13 17 -22 17 -8 0 -24 9 -35 20 -25 25 -64 26 -87 1z m332 -598 c28
-36 56 -76 63 -90 8 -14 20 -22 27 -19 9 3 12 0 9 -8 -3 -7 6 -21 20 -30 15
-9 26 -23 26 -31 0 -8 6 -18 13 -22 6 -4 19 -21 27 -37 8 -16 23 -31 32 -34 9
-2 14 -10 12 -17 -3 -7 6 -25 19 -41 13 -16 26 -37 30 -46 3 -10 14 -18 22
-18 12 0 15 -6 10 -20 -4 -14 2 -28 20 -46 14 -14 24 -31 22 -37 -6 -16 21
-67 34 -67 6 0 8 -9 4 -19 -4 -14 0 -23 15 -31 13 -7 19 -17 16 -26 -3 -8 1
-26 10 -39 9 -13 13 -28 10 -33 -7 -12 19 -78 34 -87 6 -4 8 -11 5 -16 -4 -5
1 -16 9 -25 10 -10 14 -24 10 -40 -4 -14 -2 -24 5 -24 6 0 11 -16 11 -35 0
-19 5 -35 10 -35 7 0 8 -13 4 -35 -5 -27 -3 -36 10 -41 13 -5 15 -14 11 -34
-4 -17 -1 -31 5 -35 7 -4 9 -18 5 -33 -4 -16 -1 -28 7 -33 10 -6 10 -13 2 -26
-14 -23 -7 -53 8 -32 6 9 7 -1 3 -28 -5 -28 -3 -43 4 -43 6 0 11 -18 11 -41 0
-22 4 -48 9 -57 15 -31 21 -122 8 -122 -14 0 -39 58 -31 71 3 5 -2 9 -10 9 -8
0 -14 8 -14 18 1 30 -21 74 -34 66 -7 -4 -8 -3 -4 5 9 13 -29 101 -43 101 -5
0 -11 12 -14 28 -3 15 -20 42 -37 60 -16 19 -28 37 -25 42 8 12 -62 150 -76
150 -5 0 -7 4 -4 10 3 5 -12 47 -35 93 -22 46 -40 89 -40 95 0 7 -7 12 -16 12
-12 0 -15 6 -10 23 6 24 -26 87 -44 87 -6 0 -8 10 -4 25 4 16 0 34 -10 50 -9
13 -16 31 -16 39 0 25 -34 85 -48 86 -8 0 -10 8 -6 26 5 19 3 25 -4 20 -8 -5
-10 2 -6 22 5 23 1 33 -16 45 -16 11 -20 21 -15 36 4 13 2 21 -5 21 -6 0 -8
10 -4 24 4 17 -1 30 -16 44 -12 11 -19 25 -16 31 8 12 -13 91 -24 91 -3 0 -12
24 -20 53 -7 28 -19 61 -26 72 -8 11 -14 25 -14 32 0 29 28 9 75 -54z m-161
-44 c9 -47 7 -81 -4 -74 -5 3 -10 1 -10 -4 0 -6 7 -11 15 -11 9 0 15 -6 14
-12 -1 -7 3 -26 10 -43 7 -16 9 -40 6 -52 -4 -16 0 -25 9 -29 8 -3 13 -11 10
-19 -3 -7 2 -20 11 -29 11 -11 15 -25 11 -42 -5 -17 -2 -26 8 -30 8 -3 13 -11
10 -19 -3 -7 2 -19 10 -28 9 -9 16 -32 16 -51 0 -25 4 -36 15 -36 11 0 15 -11
15 -40 0 -27 5 -43 15 -46 8 -4 13 -10 10 -14 -8 -12 16 -60 27 -54 5 3 6 -6
3 -19 -5 -18 -1 -31 15 -47 13 -13 19 -28 15 -39 -3 -10 1 -24 10 -31 8 -7 15
-19 15 -26 0 -8 5 -14 11 -14 6 0 8 -8 4 -19 -4 -13 1 -27 14 -40 10 -10 17
-21 15 -24 -3 -2 7 -30 21 -60 14 -31 25 -59 25 -63 0 -4 11 -22 26 -41 14
-18 22 -38 19 -43 -3 -5 5 -21 19 -35 15 -14 26 -31 26 -36 0 -6 10 -19 23
-29 16 -14 19 -22 11 -30 -8 -8 -23 -2 -58 24 -25 20 -49 36 -52 36 -3 0 -22
18 -43 40 -20 22 -41 40 -46 40 -11 0 -95 81 -95 92 0 18 -56 98 -69 98 -8 0
-11 7 -8 20 3 11 1 23 -4 26 -5 3 -9 13 -9 23 0 10 -9 26 -20 36 -12 10 -19
24 -16 31 2 6 -2 24 -10 39 -17 34 -18 57 -1 74 10 10 8 15 -7 26 -17 13 -18
24 -14 105 3 51 1 93 -4 96 -5 3 -6 25 -2 49 3 24 2 50 -2 57 -5 7 -9 15 -10
18 0 3 -4 13 -9 24 -5 12 -3 21 6 27 12 8 11 12 -3 22 -22 18 -40 130 -32 202
7 61 28 74 38 24z m810 -786 c135 -146 196 -204 207 -198 8 5 10 4 5 -4 -12
-18 14 -42 36 -35 16 5 19 2 14 -13 -4 -13 4 -26 30 -46 19 -16 39 -40 44 -53
5 -13 16 -24 24 -24 7 0 13 -8 12 -17 0 -9 8 -22 20 -27 11 -6 19 -16 17 -22
-2 -6 8 -19 22 -28 14 -9 25 -23 25 -30 0 -19 33 -76 43 -76 15 0 38 -30 32
-40 -7 -12 32 -80 46 -80 4 0 6 -6 3 -14 -3 -7 7 -23 21 -34 14 -12 25 -27 23
-34 -3 -17 24 -78 36 -78 4 0 5 -7 2 -16 -8 -20 11 -54 29 -54 18 0 19 -12 5
-26 -8 -8 -7 -19 1 -38 8 -16 15 -22 19 -15 4 6 7 -8 7 -32 0 -28 6 -46 17
-54 17 -13 23 -30 6 -20 -12 7 -12 3 -4 -19 3 -9 10 -13 16 -10 5 3 8 0 7 -7
-2 -8 2 -24 9 -36 7 -13 10 -34 6 -48 -4 -15 -2 -25 5 -25 15 0 14 -27 -1 -34
-9 -3 -7 -9 7 -21 15 -12 17 -18 7 -24 -7 -4 -10 -15 -6 -24 3 -9 11 -14 17
-10 7 4 8 0 4 -11 -4 -10 -4 -23 0 -29 13 -19 17 -152 15 -487 0 -25 0 -58 1
-75 2 -24 -2 -30 -18 -30 -15 0 -19 6 -18 22 2 14 -4 24 -17 28 -12 4 -19 14
-18 23 2 9 -7 21 -19 27 -13 7 -20 15 -16 18 3 4 -6 19 -20 33 -15 15 -27 33
-27 41 0 7 -7 16 -15 19 -8 4 -15 10 -15 15 0 20 -53 87 -72 92 -15 4 -19 11
-14 23 4 11 -1 24 -14 36 -11 10 -20 25 -20 32 0 7 -9 21 -20 31 -11 10 -20
26 -20 35 0 10 -7 23 -15 30 -8 7 -15 16 -15 21 0 5 -12 28 -27 50 -28 43 -61
102 -113 209 -18 36 -36 66 -41 68 -4 2 -5 10 -2 18 3 7 -2 16 -10 20 -9 3
-13 12 -11 19 3 7 -4 22 -16 33 -12 11 -20 24 -17 29 6 10 -11 64 -31 100 -7
12 -12 28 -12 37 0 8 -7 22 -16 31 -9 8 -13 22 -10 30 6 16 -18 80 -33 90 -6
3 -8 12 -4 20 3 8 0 15 -6 15 -6 0 -8 7 -5 15 4 8 1 15 -5 15 -7 0 -9 9 -5 25
4 15 2 25 -5 25 -6 0 -11 18 -11 43 0 23 -7 53 -16 65 -8 12 -13 26 -10 31 3
5 -1 22 -9 37 -8 17 -11 32 -6 37 12 12 2 39 -11 31 -6 -4 -8 2 -3 15 4 13 2
21 -5 21 -7 0 -9 12 -4 35 4 22 2 35 -4 35 -6 0 -11 17 -11 38 0 20 -1 54 -1
75 0 20 -4 37 -9 37 -5 0 -11 26 -13 58 -2 31 -8 65 -12 75 -12 26 9 21 38
-10z m-663 -363 c18 -22 35 -40 39 -40 9 0 85 -65 137 -117 24 -24 47 -43 51
-43 5 0 31 -25 57 -55 27 -30 55 -55 62 -55 7 0 13 -6 13 -12 0 -7 25 -35 55
-61 30 -27 55 -54 55 -62 0 -7 14 -23 30 -35 17 -12 30 -28 30 -35 0 -8 11
-22 25 -31 14 -9 25 -22 25 -30 0 -7 6 -17 14 -21 8 -4 24 -25 36 -46 14 -23
28 -36 36 -33 8 3 15 0 15 -7 1 -7 2 -16 3 -22 2 -16 58 -95 67 -95 5 0 9 -7
9 -15 0 -9 6 -18 14 -21 8 -3 19 -19 25 -35 5 -16 14 -29 20 -29 5 0 13 -10
17 -22 9 -28 52 -97 76 -121 10 -10 18 -24 18 -32 0 -8 9 -19 20 -25 11 -6 18
-15 15 -20 -3 -5 4 -15 16 -24 12 -8 18 -19 15 -25 -10 -15 24 -69 46 -74 11
-3 16 -11 12 -20 -5 -13 2 -28 58 -124 12 -21 28 -50 35 -65 8 -16 21 -28 30
-28 9 0 13 -6 9 -15 -6 -16 27 -83 50 -101 7 -6 11 -13 8 -16 -9 -10 38 -88
49 -81 6 3 7 1 3 -5 -8 -13 10 -47 42 -78 12 -12 22 -26 22 -32 0 -5 6 -12 14
-15 20 -8 39 -44 27 -52 -5 -3 -37 18 -71 47 -97 84 -144 117 -161 118 -9 0
-24 12 -34 26 -9 14 -22 23 -29 21 -8 -3 -18 5 -25 19 -7 15 -19 24 -33 24
-13 0 -29 9 -36 20 -7 11 -20 20 -30 20 -9 0 -23 9 -30 20 -7 11 -20 20 -30
20 -9 0 -23 9 -30 20 -7 11 -20 20 -30 20 -11 0 -24 12 -31 26 -8 18 -17 24
-27 20 -10 -4 -23 3 -36 19 -11 15 -23 24 -26 20 -3 -3 -18 7 -34 22 -15 15
-28 23 -28 18 0 -5 -13 4 -30 20 -16 16 -30 25 -30 20 0 -5 -13 4 -30 20 -16
16 -30 25 -30 20 0 -5 -13 3 -28 18 -16 15 -31 25 -34 21 -4 -3 -14 6 -24 21
-10 16 -23 24 -32 20 -8 -3 -21 3 -29 15 -8 11 -22 20 -31 20 -10 0 -23 9 -30
20 -7 11 -20 20 -30 20 -9 0 -28 16 -41 35 -13 19 -30 35 -37 35 -8 0 -14 6
-14 13 0 21 -39 90 -55 100 -10 5 -13 16 -9 32 4 18 1 27 -11 31 -11 5 -15 14
-11 28 7 27 -14 97 -31 103 -15 6 -17 35 -3 49 13 13 -12 93 -34 109 -13 10
-16 21 -11 49 5 25 4 36 -5 36 -8 0 -10 9 -6 25 8 33 -3 75 -20 75 -16 0 -19
16 -3 25 7 5 5 15 -6 32 -10 14 -14 31 -9 41 4 9 6 24 5 32 -4 38 -12 60 -20
56 -8 -5 -12 11 -12 54 0 14 -5 40 -10 58 -8 24 -8 37 1 47 12 14 10 16 -7 14
-12 -2 -24 31 -18 50 3 11 1 22 -5 26 -15 9 -12 25 5 25 8 0 29 -18 46 -40z
m6 -292 c-3 -8 -6 -5 -6 6 -1 11 2 17 5 13 3 -3 4 -12 1 -19z m-90 -210 c-3
-8 -6 -5 -6 6 -1 11 2 17 5 13 3 -3 4 -12 1 -19z m1693 -355 c0 -7 7 -13 15
-13 8 0 12 -6 9 -14 -3 -8 3 -19 15 -26 12 -6 21 -15 21 -21 0 -20 62 -97 82
-102 15 -4 18 -11 13 -26 -4 -14 -1 -23 9 -27 9 -3 16 -14 16 -23 1 -23 24
-51 44 -51 18 0 22 -16 5 -22 -17 -6 7 -48 27 -48 9 0 14 -7 13 -17 -4 -29 11
-63 28 -63 11 0 14 -6 10 -21 -8 -29 13 -71 31 -64 11 4 13 -1 9 -22 -5 -29
25 -93 44 -93 6 0 7 -14 4 -33 -5 -27 -1 -40 20 -66 21 -25 26 -38 21 -62 -4
-21 -1 -31 9 -35 8 -4 12 -10 9 -16 -3 -5 2 -16 12 -23 15 -11 17 -18 8 -32
-12 -21 1 -87 16 -78 6 4 10 -5 10 -19 0 -14 4 -27 8 -30 5 -3 9 -28 10 -57 0
-29 6 -55 13 -59 6 -4 8 -16 4 -29 -4 -13 -2 -21 5 -21 8 0 10 -9 6 -24 -3
-14 -1 -28 4 -31 7 -4 8 -28 4 -66 -5 -41 -3 -59 5 -59 8 0 11 -49 11 -165 0
-117 -3 -165 -11 -165 -8 0 -10 -17 -5 -54 4 -34 2 -57 -4 -61 -6 -4 -8 -16
-5 -28 5 -17 4 -18 -4 -8 -7 12 -11 7 -19 -20 -5 -21 -5 -36 1 -40 5 -4 6 -13
1 -20 -4 -8 -7 -26 -5 -41 1 -14 -2 -29 -7 -32 -12 -7 -36 20 -28 33 3 5 0 11
-8 14 -8 3 -17 19 -21 36 -4 17 -12 34 -18 38 -7 5 -18 20 -24 36 -7 15 -17
27 -23 27 -5 0 -10 6 -10 14 0 8 -16 43 -36 78 -21 34 -43 75 -51 91 -8 15
-19 27 -24 27 -5 0 -8 3 -7 8 4 19 -25 93 -43 105 -12 9 -17 20 -13 31 8 21
-25 98 -39 89 -6 -4 -8 3 -4 18 6 24 -11 79 -25 79 -5 0 -8 18 -8 39 0 48 -9
73 -23 64 -6 -4 -8 0 -4 10 3 9 1 17 -5 19 -6 2 -11 23 -11 46 0 23 -3 42 -7
42 -5 0 -6 9 -3 20 3 11 0 20 -6 20 -5 0 -8 7 -5 15 4 8 2 15 -4 15 -10 0 -12
18 -12 93 0 26 -4 36 -12 31 -7 -5 -9 1 -4 20 4 16 2 26 -4 26 -7 0 -9 13 -4
35 4 22 2 35 -4 35 -6 0 -11 12 -11 28 0 57 -6 107 -14 120 -5 7 -6 31 -2 52
5 28 3 40 -5 40 -8 0 -10 14 -5 50 4 31 3 50 -3 50 -9 0 -13 49 -15 203 0 31
-5 57 -10 57 -6 0 -8 33 -5 80 3 59 1 83 -9 91 -14 12 -18 61 -6 73 9 8 62
-53 63 -71z m3601 9 c-5 -9 -23 -33 -40 -52 -17 -19 -34 -40 -39 -46 -5 -6
-13 -21 -17 -35 -4 -13 -12 -29 -17 -36 -5 -7 -7 -16 -4 -22 3 -5 -1 -12 -10
-15 -10 -4 -13 -13 -9 -26 3 -11 2 -20 -2 -20 -14 0 -43 -68 -37 -85 3 -8 -4
-26 -15 -41 -13 -16 -21 -41 -21 -65 0 -20 -5 -39 -10 -41 -15 -5 -41 -84 -34
-103 4 -8 1 -15 -6 -15 -8 0 -10 -9 -6 -24 4 -16 1 -26 -9 -30 -8 -3 -15 -16
-15 -30 0 -14 -4 -27 -9 -30 -5 -3 -7 -15 -4 -26 3 -11 0 -20 -5 -20 -6 0 -11
-12 -10 -27 0 -16 -7 -53 -17 -83 -9 -30 -19 -70 -22 -87 -6 -41 -33 -45 -33
-5 0 16 3 32 7 35 3 4 8 80 10 169 2 89 8 167 13 173 5 6 9 31 9 55 0 69 3 84
19 96 8 6 16 29 18 51 2 26 18 66 43 107 23 36 38 72 35 81 -4 10 2 18 18 24
24 9 39 25 103 106 53 68 145 121 116 67z m71 -194 c1 -18 1 -42 0 -53 -1 -11
-2 -107 -3 -212 0 -110 -5 -193 -10 -193 -5 0 -7 -11 -3 -25 4 -16 2 -25 -6
-25 -7 0 -10 -7 -6 -15 3 -8 1 -15 -4 -15 -6 0 -10 -15 -10 -33 0 -20 -9 -44
-20 -57 -11 -13 -18 -31 -15 -41 3 -9 -1 -19 -8 -22 -8 -3 -25 -26 -37 -52
-12 -26 -35 -61 -51 -78 -16 -17 -29 -37 -29 -43 0 -7 -11 -22 -25 -35 -13
-13 -25 -28 -25 -34 -1 -15 -33 -50 -53 -58 -9 -3 -17 -10 -16 -14 4 -21 -3
-33 -17 -33 -12 0 -15 6 -10 23 3 12 6 28 6 35 0 6 6 12 14 12 9 0 12 8 8 25
-2 15 0 25 8 25 8 0 9 10 5 31 -5 22 -2 36 10 49 10 11 15 26 12 35 -4 8 -1
15 4 15 6 0 9 9 6 20 -3 11 -2 20 3 20 13 0 18 38 6 50 -8 9 -5 16 12 27 21
15 33 51 12 38 -5 -3 -10 -2 -10 4 0 5 4 11 10 13 5 2 11 22 13 46 1 24 8 46
15 51 6 4 13 18 14 31 2 14 9 31 16 39 7 7 10 21 7 31 -3 10 -2 21 4 24 5 3 7
16 4 29 -3 15 -2 18 5 9 7 -10 12 -6 22 17 7 17 10 37 6 46 -3 8 -1 15 4 15 5
0 12 17 16 38 4 20 13 45 22 55 8 9 16 26 17 36 1 11 7 27 15 35 7 9 10 19 7
22 -3 3 -1 18 5 33 9 23 13 40 17 79 0 6 8 12 16 12 10 0 16 -11 17 -32z
m-4903 -290 c20 -18 35 -36 33 -40 -1 -5 6 -11 15 -15 10 -4 20 -9 23 -13 11
-14 128 -89 132 -84 3 2 13 -5 23 -16 10 -11 24 -20 31 -20 7 0 24 -11 38 -25
14 -14 32 -25 39 -25 8 0 17 -7 21 -15 3 -8 12 -15 20 -15 8 0 27 -11 42 -25
14 -13 30 -23 34 -20 4 2 15 -4 25 -15 10 -11 26 -20 35 -20 10 0 20 -7 24
-15 3 -8 14 -15 25 -15 10 0 26 -11 35 -25 9 -14 21 -23 26 -20 5 3 17 -6 26
-20 10 -15 26 -25 40 -25 13 0 24 -4 24 -9 0 -6 24 -26 54 -46 30 -20 57 -43
60 -51 3 -9 12 -14 20 -11 8 3 16 -2 19 -14 3 -10 13 -22 24 -26 45 -16 298
-249 298 -274 0 -7 9 -18 21 -24 11 -5 19 -15 17 -20 -2 -6 15 -30 37 -54 22
-23 40 -49 40 -57 0 -8 7 -17 15 -20 8 -4 15 -13 15 -21 0 -8 8 -27 18 -41 10
-15 24 -42 32 -60 8 -20 18 -31 29 -30 12 2 15 -4 13 -24 -1 -16 2 -28 8 -28
5 0 10 -8 10 -19 0 -10 7 -24 15 -31 9 -8 12 -22 8 -40 -4 -23 0 -34 22 -54
21 -19 26 -31 21 -50 -4 -15 -1 -26 7 -29 9 -4 9 -8 -2 -15 -11 -8 -11 -11 0
-18 18 -11 40 -50 32 -57 -7 -7 -78 30 -94 49 -7 8 -20 12 -31 8 -12 -3 -29 4
-49 20 -17 15 -43 26 -59 26 -16 0 -30 7 -34 16 -3 8 -10 13 -15 10 -12 -8
-68 21 -75 39 -3 8 -16 15 -28 15 -13 0 -31 9 -41 20 -9 11 -26 20 -37 20 -10
0 -24 9 -30 20 -6 10 -16 17 -23 15 -6 -3 -31 13 -55 35 -24 21 -53 42 -64 46
-11 3 -37 24 -58 45 -21 21 -43 39 -49 39 -6 0 -18 11 -27 25 -9 14 -22 25
-30 25 -7 0 -26 16 -41 35 -20 25 -33 33 -47 29 -15 -5 -18 -3 -12 11 8 22
-32 65 -61 65 -16 0 -22 5 -20 18 1 12 -14 33 -38 53 -22 19 -40 41 -40 49 0
8 -9 19 -20 25 -11 5 -20 17 -20 25 0 8 -9 19 -20 25 -11 5 -20 17 -20 25 0 8
-9 19 -21 25 -11 5 -19 16 -16 23 2 7 -5 16 -17 19 -11 3 -18 9 -15 14 5 8
-71 131 -105 171 -6 7 -22 33 -35 58 -13 25 -29 44 -36 42 -7 -2 -10 3 -7 12
8 21 -30 96 -49 96 -11 0 -14 5 -10 16 4 9 2 22 -3 28 -5 6 -19 37 -31 69 -16
41 -26 57 -36 53 -11 -4 -13 0 -8 19 4 18 1 27 -10 31 -9 3 -16 15 -16 25 0
10 -6 19 -14 19 -7 0 -16 8 -19 18 -2 9 -8 25 -12 35 -11 27 13 21 54 -15z
m4368 -55 c-24 -89 -33 -113 -40 -113 -6 0 -7 -16 -4 -35 3 -20 2 -35 -4 -35
-6 0 -7 -21 -4 -52 3 -29 2 -47 -1 -39 -5 11 -8 11 -15 0 -4 -7 -3 -21 2 -31
5 -10 7 -44 3 -75 -4 -32 -6 -100 -5 -150 1 -58 -2 -93 -8 -93 -7 0 -8 -28 -4
-80 5 -72 4 -82 -13 -95 -15 -11 -17 -16 -6 -26 14 -15 17 -139 3 -139 -5 0
-9 -21 -9 -47 0 -91 -5 -133 -14 -133 -6 0 -8 -14 -4 -35 5 -23 3 -35 -4 -35
-7 0 -9 -8 -5 -20 4 -12 2 -20 -5 -20 -8 0 -10 -10 -7 -27 3 -15 -1 -40 -9
-56 -8 -15 -12 -36 -9 -46 3 -11 -1 -26 -10 -34 -8 -9 -15 -25 -15 -36 0 -11
-5 -23 -11 -27 -6 -3 -9 -17 -6 -31 3 -16 -2 -27 -15 -34 -11 -6 -17 -17 -14
-24 3 -8 1 -17 -5 -20 -5 -4 -7 -11 -3 -16 3 -5 1 -15 -4 -22 -5 -7 -9 -19 -9
-27 0 -26 -32 -92 -42 -86 -14 9 -12 188 2 204 9 11 7 17 -6 27 -20 14 -22 36
-4 54 10 10 8 15 -6 26 -13 9 -16 20 -12 38 4 14 2 28 -5 32 -7 4 -9 26 -4 67
5 46 4 62 -7 69 -11 6 -11 14 -3 36 12 33 7 64 -7 42 -6 -10 -9 -5 -9 16 0 17
6 37 13 44 10 10 8 15 -7 26 -16 12 -18 22 -12 64 4 30 3 52 -4 56 -13 8 -13
152 0 160 6 4 7 23 4 46 -5 27 -3 39 6 39 8 0 10 13 6 43 -3 23 -3 36 0 28 5
-11 8 -11 14 -1 5 7 3 22 -3 32 -9 15 -9 20 2 27 9 6 12 18 7 35 -5 19 -2 28
9 32 10 4 13 14 9 33 -4 17 -2 22 3 13 7 -9 13 -6 22 14 8 19 9 30 1 38 -15
15 -12 26 5 26 17 0 39 45 36 71 -1 9 6 19 16 21 10 3 29 27 43 54 13 27 33
55 43 62 10 8 16 19 14 25 -2 7 6 17 17 22 12 6 21 18 21 26 0 8 15 33 33 54
17 22 32 43 32 47 0 5 7 8 16 8 10 0 14 -6 11 -17z m481 -569 c15 -26 2 -167
-17 -181 -13 -9 -14 -14 -3 -24 14 -15 16 -115 2 -124 -6 -3 -7 -17 -4 -31 4
-14 2 -24 -4 -24 -7 0 -9 -14 -5 -35 4 -24 2 -35 -7 -35 -8 0 -11 -10 -8 -30
3 -16 0 -30 -5 -30 -5 0 -7 -13 -3 -30 3 -17 1 -30 -4 -30 -6 0 -10 -11 -10
-24 0 -13 -5 -26 -11 -28 -7 -2 -12 -18 -13 -36 0 -17 -7 -34 -14 -37 -8 -3
-11 -13 -7 -24 3 -11 1 -22 -5 -26 -6 -4 -8 -15 -5 -25 4 -13 -1 -22 -15 -30
-12 -6 -19 -17 -17 -23 2 -7 -3 -18 -10 -25 -8 -8 -11 -23 -8 -33 4 -12 2 -18
-5 -17 -6 2 -25 -22 -41 -52 -16 -30 -41 -70 -56 -88 -15 -18 -33 -46 -39 -61
-7 -16 -26 -39 -43 -52 -17 -12 -31 -28 -31 -34 0 -14 -52 -65 -66 -65 -6 0
-23 -18 -40 -40 -16 -22 -49 -50 -73 -62 -24 -13 -51 -32 -60 -43 -27 -34 -82
-75 -92 -69 -16 9 -10 24 14 34 12 5 16 9 10 9 -16 1 -17 31 -2 31 6 0 8 9 4
20 -4 14 -2 20 8 20 8 0 17 8 21 18 21 57 23 72 15 78 -15 9 -10 24 14 47 27
25 40 64 25 74 -7 4 -5 11 6 19 10 7 15 17 12 22 -3 6 0 12 8 15 16 6 27 55
15 63 -13 8 -11 24 4 24 16 0 51 75 43 89 -4 6 2 24 13 40 12 16 21 41 21 54
0 14 5 29 10 32 6 3 17 20 26 36 11 23 12 34 4 44 -9 11 -6 16 10 25 13 7 19
18 16 26 -3 8 -1 14 4 14 5 0 6 7 3 17 -4 10 -2 14 4 10 12 -7 26 20 18 33 -3
4 2 11 11 14 10 4 13 13 9 25 -3 12 0 21 10 25 9 3 14 10 11 15 -3 5 1 12 10
15 10 4 14 14 11 26 -3 12 0 20 7 20 11 0 54 64 115 173 10 18 32 48 50 67 17
19 31 38 31 42 0 11 92 128 101 128 4 0 5 9 2 20 -6 24 12 27 25 4z m-956
-406 c1 -18 3 -71 4 -118 6 -170 12 -259 19 -270 8 -13 9 -450 1 -458 -4 -3
-6 7 -6 22 0 16 -4 25 -10 21 -13 -8 -13 -55 0 -55 7 0 8 -27 4 -77 -3 -43 -6
-87 -7 -98 0 -11 -4 -22 -8 -25 -13 -10 -20 -48 -9 -55 5 -3 10 -16 9 -28 0
-13 -3 -16 -6 -8 -4 10 -7 11 -13 1 -5 -7 -3 -22 3 -32 9 -13 9 -21 1 -26 -6
-4 -11 -20 -11 -37 -1 -39 -6 -58 -17 -67 -6 -4 -10 -23 -10 -42 0 -20 -4 -36
-8 -36 -4 0 -8 -13 -8 -28 0 -15 -9 -45 -20 -67 -11 -22 -20 -59 -20 -82 0
-24 -4 -43 -8 -43 -14 0 -41 -67 -35 -89 3 -12 1 -21 -6 -21 -13 0 -34 -46
-33 -72 0 -10 -3 -18 -7 -18 -10 0 -33 -51 -27 -58 3 -2 -1 -14 -9 -24 -7 -11
-11 -27 -8 -36 5 -11 3 -13 -6 -7 -16 9 -31 -11 -31 -41 0 -12 -6 -27 -14 -33
-7 -6 -16 -29 -20 -51 -3 -22 -11 -40 -16 -40 -6 0 -10 -8 -10 -19 0 -10 -6
-24 -14 -30 -7 -6 -16 -25 -20 -41 -3 -18 -12 -30 -21 -30 -8 0 -15 3 -15 7 0
8 17 63 35 113 21 57 39 123 40 147 0 11 7 28 14 37 8 9 11 26 7 41 -4 15 -2
25 4 25 7 0 9 8 5 20 -4 12 -2 20 5 20 9 0 10 11 6 36 -5 22 -3 41 4 49 7 8 9
23 5 35 -4 12 -2 20 5 20 7 0 9 7 6 16 -4 10 0 22 10 29 14 10 15 14 3 34 -11
17 -11 23 -2 29 7 5 12 30 12 62 0 81 1 91 11 85 14 -8 21 27 8 42 -9 11 -9
16 1 22 8 5 10 21 5 49 -5 31 -3 42 6 42 9 0 11 13 6 51 -5 33 -3 56 5 65 6 7
8 21 5 30 -4 10 1 22 11 30 14 10 16 15 6 25 -7 7 -13 24 -13 39 0 17 3 21 9
12 7 -11 9 -11 14 2 3 8 2 18 -3 21 -14 9 -12 55 1 55 8 0 10 15 5 49 -4 32
-3 52 5 56 6 4 8 17 5 28 -3 12 1 25 11 32 13 10 13 15 2 33 -11 17 -11 26 -2
41 6 10 9 28 6 40 -3 12 -1 21 6 21 7 0 11 18 11 43 0 77 2 97 12 97 5 0 6 10
3 21 -5 14 -3 19 3 15 15 -9 21 16 8 37 -8 13 -8 20 3 26 9 6 12 19 8 40 -4
16 -2 33 2 36 5 3 7 15 4 28 -4 17 -2 19 5 8 8 -12 12 -7 20 20 5 19 5 36 0
37 -12 5 -10 32 3 32 7 0 9 10 5 26 -4 14 -2 31 3 38 6 7 10 26 10 42 -1 16 2
48 6 72 9 51 34 58 37 10z m-1928 -279 c3 -33 3 -72 0 -85 -5 -18 -2 -24 10
-24 14 0 16 -6 10 -35 -9 -51 4 -123 27 -146 16 -16 19 -28 14 -51 -5 -21 -3
-33 6 -39 11 -6 11 -13 3 -26 -13 -21 -7 -46 8 -37 6 4 8 -1 3 -15 -4 -13 -2
-21 5 -21 7 0 9 -8 5 -20 -4 -12 -2 -27 5 -35 7 -8 9 -27 5 -48 -4 -21 -3 -37
4 -41 15 -10 14 -59 -1 -75 -11 -10 -9 -15 5 -26 15 -11 17 -21 12 -59 -5 -30
-4 -46 3 -46 7 0 11 -46 13 -127 1 -71 2 -158 3 -195 0 -37 -3 -69 -8 -70 -13
-4 -37 70 -25 77 15 10 10 35 -6 35 -8 0 -15 9 -15 19 0 11 -5 23 -10 26 -6 4
-8 21 -5 38 4 22 -1 45 -15 72 -11 21 -20 45 -20 52 0 7 -4 13 -10 13 -5 0
-10 5 -10 11 0 5 5 7 10 4 12 -7 12 -3 4 20 -6 13 -9 14 -16 3 -5 -8 -6 -4 -2
13 3 15 1 30 -5 33 -6 4 -11 23 -11 42 0 19 -4 34 -10 34 -5 0 -10 5 -10 11 0
5 5 7 10 4 11 -7 13 6 4 29 -3 9 -10 13 -15 10 -5 -3 -6 9 -3 26 4 17 2 30 -3
30 -15 0 -23 54 -14 87 10 35 3 63 -10 42 -5 -9 -9 9 -9 47 0 35 5 65 13 73
10 10 9 15 -5 25 -19 14 -24 36 -8 36 6 0 7 33 5 83 -4 53 -2 75 4 62 8 -18 9
-19 16 -2 4 9 2 24 -4 31 -12 14 -10 64 5 154 10 63 30 53 38 -19z m1853 29
c-3 -8 -6 -5 -6 6 -1 11 2 17 5 13 3 -3 4 -12 1 -19z m-2050 -160 c-3 -8 -6
-5 -6 6 -1 11 2 17 5 13 3 -3 4 -12 1 -19z m-644 -65 c20 -9 37 -20 37 -25 0
-4 11 -6 25 -2 18 4 27 1 31 -10 3 -9 10 -13 15 -10 5 3 9 1 9 -4 0 -9 51 -35
67 -34 4 1 18 -9 31 -20 12 -12 22 -18 22 -14 0 8 70 -48 125 -100 17 -16 33
-27 38 -26 4 1 7 -5 7 -14 0 -21 60 -94 77 -94 8 0 11 -5 7 -11 -3 -6 2 -23
12 -37 11 -15 26 -39 33 -54 8 -16 23 -28 33 -28 20 0 25 -16 6 -22 -7 -3 -5
-13 7 -31 9 -15 21 -25 25 -22 14 9 23 -15 11 -29 -8 -9 -3 -23 17 -52 14 -21
28 -55 29 -74 1 -22 10 -40 25 -51 18 -14 20 -20 10 -32 -9 -11 -10 -17 -2
-22 6 -3 8 -10 5 -15 -6 -10 14 -49 33 -65 14 -11 46 -124 38 -132 -11 -11
-36 7 -36 25 0 11 -7 25 -15 32 -12 10 -12 16 -4 26 9 11 5 16 -15 24 -19 7
-26 17 -26 35 0 14 -7 28 -15 31 -8 4 -15 12 -15 20 0 7 -8 19 -17 26 -10 7
-25 26 -33 42 -8 16 -27 42 -42 59 -16 16 -28 33 -28 38 0 5 -9 14 -20 21 -11
7 -20 18 -20 25 0 7 -9 17 -20 23 -11 6 -20 17 -20 25 0 8 -9 19 -20 25 -11 6
-20 17 -20 25 0 8 -10 20 -22 27 -13 7 -23 20 -23 28 0 8 -9 19 -20 25 -11 5
-20 17 -20 25 0 8 -9 19 -21 25 -11 5 -19 15 -17 21 2 6 -15 25 -37 43 -22 17
-40 37 -40 44 0 7 -20 28 -44 47 -24 19 -42 40 -39 46 2 5 -14 25 -37 43 -22
17 -40 38 -40 45 0 18 -60 68 -117 98 -13 6 -23 17 -23 25 0 16 34 10 93 -14z
m3427 -412 c0 -11 -58 -101 -74 -116 -18 -17 -36 -64 -30 -80 4 -10 2 -13 -8
-10 -10 4 -19 -5 -28 -27 -8 -18 -29 -57 -47 -86 -18 -29 -33 -61 -33 -72 0
-11 -7 -20 -15 -20 -9 0 -20 -11 -24 -24 -5 -13 -22 -36 -36 -52 -15 -16 -32
-41 -37 -57 -6 -15 -19 -32 -29 -38 -10 -5 -19 -16 -19 -24 0 -8 -9 -19 -21
-25 -12 -7 -18 -18 -15 -26 3 -8 -1 -14 -9 -14 -8 0 -21 -13 -30 -30 -8 -16
-25 -34 -36 -40 -11 -7 -18 -18 -15 -25 3 -9 0 -12 -9 -8 -9 3 -18 -3 -22 -13
-4 -11 -15 -25 -26 -33 -10 -7 -16 -18 -14 -25 3 -6 -13 -25 -35 -41 -22 -16
-46 -44 -55 -62 -8 -18 -25 -43 -36 -56 -12 -12 -28 -35 -36 -50 -8 -15 -20
-27 -27 -27 -18 0 -7 58 16 85 17 20 33 52 35 70 0 6 4 15 8 22 4 6 3 14 -3
18 -14 9 -13 25 3 25 17 0 40 55 32 79 -4 13 0 21 12 25 10 4 31 34 48 69 16
34 40 75 53 91 13 16 21 35 18 42 -3 8 1 14 9 14 8 0 21 16 29 35 8 19 20 35
26 35 6 0 14 10 19 23 11 27 232 262 247 262 9 0 80 73 169 172 21 23 45 30
45 14z m-7292 -820 c12 -17 19 -37 16 -45 -4 -11 0 -16 15 -16 12 0 22 -4 22
-10 3 -20 5 -25 14 -40 6 -8 15 -24 20 -35 6 -11 20 -24 31 -30 11 -6 19 -15
17 -21 -2 -6 15 -30 37 -52 22 -23 40 -46 40 -52 0 -5 9 -14 20 -20 11 -6 20
-17 20 -25 0 -8 9 -20 20 -27 11 -7 20 -18 20 -25 0 -7 9 -18 20 -25 11 -7 20
-18 20 -25 0 -7 9 -18 20 -25 11 -7 20 -16 20 -20 0 -4 23 -30 50 -58 28 -28
50 -58 50 -65 0 -8 6 -18 13 -22 7 -4 23 -23 36 -40 12 -18 28 -33 36 -33 7 0
16 -8 19 -17 12 -32 34 -66 50 -75 9 -5 16 -15 16 -23 0 -8 9 -19 20 -25 11
-6 20 -17 20 -25 0 -8 9 -19 20 -25 11 -6 20 -17 20 -25 0 -8 9 -19 20 -25 11
-6 20 -17 20 -25 0 -8 8 -20 18 -27 10 -7 21 -21 25 -31 4 -9 15 -21 24 -25
10 -4 18 -14 18 -22 0 -8 9 -19 20 -25 11 -5 20 -17 20 -25 0 -8 9 -19 21 -25
11 -5 19 -15 17 -22 -4 -11 14 -28 32 -28 6 0 11 -10 13 -22 2 -12 21 -40 43
-62 21 -23 39 -45 39 -51 0 -5 6 -13 13 -17 8 -4 16 -16 20 -25 3 -10 13 -18
21 -18 8 0 19 -14 25 -31 6 -17 20 -33 31 -36 11 -3 17 -10 14 -15 -4 -5 15
-30 40 -55 25 -24 46 -49 46 -55 0 -7 15 -26 33 -44 77 -77 109 -113 107 -119
-1 -4 4 -11 12 -16 10 -7 10 -11 -3 -25 -15 -15 -19 -15 -43 1 -14 10 -23 21
-21 26 5 8 -34 35 -46 32 -4 -1 -15 7 -24 17 -10 11 -25 20 -34 20 -9 0 -22 9
-29 20 -7 11 -18 20 -26 20 -7 0 -21 9 -31 20 -10 11 -22 20 -27 20 -4 0 -27
14 -50 30 -22 17 -49 30 -59 30 -9 0 -30 14 -46 30 -15 17 -33 30 -39 30 -6 0
-19 9 -29 20 -10 11 -23 20 -30 20 -7 0 -20 9 -30 20 -10 11 -24 20 -31 20 -7
0 -25 11 -40 25 -14 13 -30 23 -34 20 -4 -2 -15 4 -25 15 -10 11 -24 20 -31
20 -7 0 -24 11 -38 25 -14 14 -32 25 -39 25 -8 0 -17 7 -21 15 -3 8 -11 12
-19 9 -8 -3 -21 6 -31 20 -9 15 -23 26 -31 26 -7 0 -21 8 -31 18 -10 9 -22 17
-28 17 -6 0 -12 11 -12 24 -1 12 -14 34 -29 48 -18 17 -23 28 -15 33 8 5 6 17
-6 43 -10 21 -21 37 -26 37 -4 0 -8 9 -8 20 0 26 -27 80 -40 80 -5 0 -7 14 -3
31 5 25 2 31 -16 36 -21 5 -25 13 -21 46 2 26 -23 77 -39 77 -9 0 -11 7 -7 25
4 14 2 25 -3 25 -5 0 -7 9 -4 19 3 13 -1 21 -14 25 -14 4 -18 16 -18 45 0 24
-8 47 -19 60 -10 11 -15 24 -12 29 6 10 -22 73 -37 83 -6 4 -7 14 -4 23 7 18
-19 86 -33 86 -6 0 -10 14 -10 30 0 17 -4 30 -10 30 -5 0 -7 6 -4 14 3 8 -4
23 -16 33 -12 12 -18 26 -14 36 4 10 -6 35 -25 64 -17 25 -31 54 -31 64 0 10
-3 24 -6 33 -10 26 11 18 34 -13z m277 -91 c20 -16 45 -32 56 -35 10 -4 19
-11 19 -16 0 -5 8 -9 18 -9 10 0 29 -11 42 -25 13 -14 33 -25 46 -25 12 0 24
-7 28 -15 3 -8 16 -15 29 -15 13 0 32 -9 42 -20 10 -11 35 -25 57 -30 21 -6
38 -15 38 -20 0 -6 8 -10 18 -10 10 0 29 -11 42 -25 13 -14 33 -25 46 -25 12
0 24 -7 28 -15 3 -8 16 -15 29 -15 13 0 34 -11 47 -25 13 -14 33 -25 46 -25
12 0 24 -7 28 -15 3 -8 15 -15 27 -15 11 0 34 -11 51 -25 16 -14 37 -25 47
-25 10 0 26 -9 36 -20 10 -11 21 -18 25 -15 9 5 72 -71 95 -115 10 -19 21 -37
24 -40 15 -12 35 -43 24 -36 -19 11 -16 -4 8 -43 11 -18 18 -36 15 -38 -7 -7
20 -70 38 -88 8 -8 12 -23 9 -34 -3 -11 3 -27 15 -39 10 -10 19 -32 20 -48 0
-16 8 -42 16 -59 9 -16 16 -38 16 -47 0 -10 5 -18 11 -18 6 0 8 -9 4 -20 -4
-13 -1 -22 9 -26 9 -3 13 -10 10 -15 -3 -5 -2 -15 3 -21 4 -7 8 -26 9 -43 1
-18 10 -35 23 -43 16 -11 21 -25 21 -57 0 -56 9 -82 22 -63 7 9 8 7 5 -9 -3
-12 1 -27 9 -34 17 -14 18 -36 2 -41 -8 -3 -7 -14 5 -38 9 -18 17 -39 17 -47
0 -7 7 -16 16 -20 11 -4 14 -13 10 -29 -4 -14 -2 -24 4 -24 5 0 10 -7 10 -15
0 -8 4 -15 9 -15 9 0 33 -81 26 -88 -11 -12 -36 11 -41 37 -4 18 -14 31 -26
34 -14 4 -18 11 -13 25 4 15 0 22 -15 27 -12 4 -19 14 -18 23 2 10 -7 21 -19
27 -13 5 -23 18 -23 27 0 10 -9 22 -20 28 -11 6 -20 17 -20 25 0 8 -9 20 -20
27 -11 7 -20 18 -20 25 0 7 -9 18 -20 25 -11 7 -20 17 -20 23 0 5 -16 23 -35
38 -19 15 -35 33 -35 39 0 5 -19 29 -42 52 -24 23 -43 48 -43 56 0 8 -9 19
-21 25 -11 5 -19 15 -17 22 2 6 -7 19 -21 29 -14 9 -26 23 -26 30 0 8 -7 17
-16 21 -8 3 -20 16 -25 30 -5 13 -17 27 -26 31 -10 4 -18 14 -18 22 0 8 -10
19 -22 26 -13 6 -20 14 -16 17 6 7 -24 43 -79 95 -16 15 -28 32 -28 39 0 7 -9
17 -20 23 -11 6 -20 17 -20 25 0 8 -10 20 -22 27 -13 7 -23 20 -23 28 0 8 -10
19 -22 25 -13 5 -23 15 -23 21 0 6 -9 19 -20 29 -11 10 -20 24 -20 32 0 7 -7
16 -15 19 -8 4 -15 12 -15 19 0 6 -28 41 -61 76 -79 82 -179 204 -179 218 0 6
-10 16 -22 23 -13 7 -23 20 -23 28 0 8 -9 19 -21 25 -11 5 -19 15 -17 22 2 6
-4 17 -15 25 -10 7 -21 21 -25 31 -4 9 -18 22 -32 27 -14 5 -25 16 -25 25 0 8
-6 15 -13 15 -8 0 -21 8 -30 18 -13 14 -14 21 -5 30 17 17 21 16 63 -18z
m1208 -691 c7 -11 19 -19 27 -19 21 0 70 -23 70 -32 0 -5 8 -8 18 -8 9 0 28
-12 41 -25 12 -14 26 -23 31 -20 4 2 18 -7 30 -20 13 -14 27 -25 31 -25 4 0
23 -13 41 -30 18 -16 36 -30 41 -30 13 0 72 -66 72 -81 0 -7 9 -18 21 -24 11
-5 19 -16 17 -22 -3 -7 5 -18 16 -25 12 -7 21 -18 21 -24 0 -16 35 -45 45 -37
4 5 5 0 2 -10 -5 -12 5 -40 28 -78 19 -33 38 -71 41 -85 4 -14 12 -28 20 -31
7 -2 11 -10 8 -18 -3 -7 2 -20 11 -29 9 -9 13 -20 10 -26 -3 -5 -1 -10 5 -10
7 0 9 -8 5 -20 -4 -13 1 -34 14 -56 12 -19 21 -44 21 -55 0 -10 4 -19 10 -19
5 0 7 -6 4 -14 -3 -7 2 -20 10 -29 9 -9 16 -31 16 -50 0 -20 9 -46 22 -62 14
-18 21 -40 20 -61 -2 -23 4 -40 18 -54 13 -13 19 -28 15 -40 -3 -10 -1 -21 4
-24 6 -4 8 -13 5 -21 -4 -8 1 -18 10 -21 10 -4 16 -18 16 -36 0 -19 4 -27 11
-22 8 4 9 -1 4 -15 -7 -24 11 -81 26 -81 5 0 9 -18 9 -40 0 -36 14 -76 31 -90
3 -3 9 -25 12 -50 3 -24 10 -46 16 -48 6 -2 8 -14 5 -28 -4 -15 -2 -24 5 -24
6 0 11 -11 11 -25 0 -14 4 -25 8 -25 5 0 8 -23 8 -51 0 -38 5 -54 18 -61 13
-7 16 -17 11 -39 -4 -18 -3 -29 4 -29 6 0 11 -5 11 -11 0 -5 -5 -7 -11 -3 -13
8 -4 -44 16 -91 22 -51 25 -64 14 -70 -5 -4 -7 -11 -3 -16 3 -5 10 -6 16 -3 7
5 9 -2 5 -18 -5 -17 -2 -28 7 -31 17 -7 30 -57 18 -69 -6 -6 -24 10 -48 41
-22 28 -45 50 -52 51 -7 0 -10 5 -7 10 4 6 1 17 -5 26 -10 12 -16 12 -28 2
-13 -11 -15 -10 -9 6 6 14 -2 27 -32 53 -22 18 -49 49 -61 68 -11 19 -29 37
-39 40 -10 3 -18 13 -17 22 0 9 -8 22 -20 27 -11 6 -19 17 -17 23 3 7 -7 18
-21 24 -14 7 -23 16 -20 21 8 13 -66 118 -83 118 -8 0 -11 4 -8 10 8 13 -44
100 -60 100 -8 0 -15 14 -17 32 -2 20 -11 36 -23 43 -13 6 -19 18 -17 32 2 15
-5 27 -23 39 -15 10 -24 23 -20 31 5 15 -24 73 -37 73 -4 0 -5 7 -2 15 3 8 -5
24 -20 38 -17 16 -23 30 -20 44 4 14 -2 27 -21 41 -20 16 -24 26 -20 45 5 19
1 29 -16 40 -13 10 -19 22 -15 32 3 9 -5 33 -19 55 -14 22 -25 49 -25 60 0 11
-5 20 -11 20 -5 0 -8 4 -5 9 9 14 -4 41 -20 41 -17 0 -18 12 -1 29 10 10 7 16
-12 30 -18 14 -20 20 -10 23 11 4 11 9 -4 25 -9 11 -15 27 -12 36 4 8 2 18 -4
22 -6 3 -11 15 -11 25 0 10 -9 25 -20 33 -16 11 -19 21 -15 39 5 19 2 27 -11
32 -16 6 -16 8 -4 17 13 8 12 12 -7 28 -26 21 -29 37 -10 44 8 4 4 12 -12 25
-18 14 -20 21 -10 24 11 4 8 12 -11 32 -18 20 -21 29 -12 35 15 9 0 61 -17 61
-6 0 -8 6 -5 14 3 7 -2 16 -12 20 -12 5 -14 9 -5 20 13 16 4 49 -12 39 -6 -4
-8 3 -4 19 5 18 1 30 -13 43 -12 11 -17 22 -12 29 5 6 6 20 2 31 -4 11 -10 30
-15 43 -4 12 -13 22 -20 22 -14 0 -28 27 -20 40 3 5 1 11 -5 15 -6 4 -8 10 -5
15 8 13 65 -10 78 -31z m843 -679 c22 -25 44 -53 47 -64 4 -10 13 -16 22 -13
9 4 12 1 8 -8 -3 -8 1 -17 9 -20 8 -3 30 -26 48 -51 19 -24 40 -44 47 -44 7 0
13 -9 13 -20 0 -10 9 -24 20 -30 11 -6 20 -17 20 -26 0 -8 11 -19 24 -25 14
-7 22 -17 20 -23 -3 -7 14 -32 36 -56 22 -24 40 -47 40 -51 0 -18 63 -99 76
-99 11 0 13 -6 9 -19 -4 -12 1 -24 12 -33 10 -7 19 -20 21 -28 1 -8 14 -25 27
-37 14 -12 25 -30 25 -39 0 -23 68 -144 81 -144 6 0 8 -4 4 -9 -3 -5 5 -29 18
-53 13 -24 34 -69 47 -101 13 -33 28 -61 34 -63 6 -2 12 -18 12 -36 1 -17 8
-37 17 -43 10 -7 14 -20 11 -32 -4 -15 1 -25 16 -33 15 -8 19 -15 11 -19 -14
-9 13 -81 30 -81 6 0 8 -11 4 -29 -4 -20 -1 -34 10 -45 9 -9 14 -20 11 -24 -7
-12 15 -82 26 -82 5 0 6 -11 2 -25 -4 -16 -2 -27 7 -30 10 -4 14 -25 14 -71 0
-47 4 -69 15 -77 8 -7 14 -23 12 -36 -3 -16 3 -30 14 -38 14 -11 16 -17 8 -31
-13 -20 -7 -45 9 -35 6 4 8 0 4 -10 -3 -10 -2 -17 4 -17 5 0 7 -11 3 -25 -4
-16 -2 -25 5 -25 7 0 9 -9 5 -24 -7 -28 24 -146 38 -146 6 0 7 -11 4 -25 -5
-18 -2 -27 8 -31 8 -3 12 -12 9 -20 -3 -7 2 -17 12 -20 12 -5 15 -14 10 -31
-4 -16 -2 -22 4 -18 7 4 9 -4 5 -22 -4 -20 1 -35 15 -52 13 -14 19 -32 16 -42
-6 -19 20 -79 34 -79 4 0 6 -11 4 -24 -3 -16 3 -32 19 -47 21 -21 68 -100 68
-114 0 -17 -28 5 -112 86 -51 50 -104 95 -117 100 -13 5 -21 12 -19 15 3 2
-24 33 -59 67 -36 34 -69 73 -74 85 -5 13 -18 26 -29 29 -11 3 -20 8 -20 12 0
3 -25 33 -55 66 -30 32 -55 64 -55 72 0 7 -10 18 -22 25 -13 7 -23 20 -23 28
0 8 -9 19 -21 25 -11 5 -19 16 -16 23 2 6 -3 15 -12 18 -9 3 -16 12 -16 19 0
7 -11 20 -25 29 -14 9 -25 22 -25 29 0 18 -69 157 -78 157 -4 0 -8 14 -8 32
-1 17 -8 36 -17 42 -9 7 -18 37 -22 79 -4 37 -11 67 -16 67 -5 0 -6 7 -3 15 4
8 1 15 -5 15 -6 0 -8 11 -4 30 3 19 1 30 -5 30 -8 0 -9 11 -5 32 4 21 3 29 -4
25 -8 -5 -9 7 -6 35 5 32 2 44 -12 54 -12 9 -16 21 -12 36 3 13 -1 32 -8 42
-10 13 -11 23 -5 31 12 14 2 48 -11 39 -5 -3 -10 2 -10 10 -2 25 -4 30 -12 44
-5 7 -5 21 -2 32 4 11 2 20 -4 20 -6 0 -11 5 -11 11 0 5 5 7 10 4 11 -7 13 6
4 29 -3 9 -11 13 -17 9 -6 -4 -8 0 -4 10 3 9 1 17 -5 19 -5 2 -10 22 -10 43 0
22 -3 45 -6 50 -4 6 -8 19 -9 30 -2 23 -27 122 -38 148 -6 15 -10 16 -16 5 -8
-12 -11 2 -13 81 -1 13 -6 26 -13 28 -7 2 -10 10 -7 17 3 8 -2 16 -11 20 -13
4 -15 13 -10 36 6 25 2 36 -20 57 -18 19 -24 34 -21 48 7 26 -9 86 -24 95 -6
4 -13 24 -16 46 -2 21 -11 44 -19 50 -8 6 -15 23 -15 38 0 14 -5 26 -11 26 -6
0 -8 8 -4 19 4 13 -1 24 -15 34 -13 9 -18 20 -14 31 5 12 1 19 -13 22 -16 4
-19 13 -17 47 2 56 2 56 27 22 12 -16 40 -50 63 -75z m-1768 45 c17 -14 35
-25 41 -25 5 0 15 -9 21 -20 6 -11 20 -20 30 -20 11 0 29 -9 40 -20 11 -11 27
-20 36 -20 9 0 30 -11 46 -25 16 -14 33 -23 38 -20 4 3 13 -2 20 -10 7 -8 21
-15 32 -15 11 0 29 -11 40 -25 11 -14 28 -25 38 -25 11 0 24 -9 30 -20 6 -11
21 -20 35 -20 15 0 26 -7 30 -20 6 -19 17 -25 39 -21 5 1 15 -7 23 -19 8 -11
21 -20 30 -20 8 0 24 -11 35 -25 11 -14 24 -25 30 -25 5 0 29 -16 52 -35 24
-19 47 -35 53 -35 5 0 32 -20 59 -45 27 -25 52 -45 56 -45 5 0 16 -8 26 -17
74 -71 115 -102 160 -123 13 -5 21 -14 18 -18 -3 -4 15 -24 39 -43 24 -18 46
-42 48 -51 3 -10 16 -22 29 -27 13 -5 56 -43 96 -85 39 -42 76 -76 82 -76 5 0
10 -8 10 -17 0 -20 58 -83 77 -83 7 0 13 -7 13 -15 0 -8 16 -29 35 -48 19 -19
35 -39 35 -45 0 -7 9 -17 20 -24 11 -7 20 -18 20 -25 0 -7 9 -18 20 -25 11 -7
20 -18 20 -25 0 -7 9 -18 20 -25 11 -7 20 -18 20 -25 0 -7 9 -17 20 -23 11 -6
20 -17 20 -26 0 -8 7 -17 15 -20 8 -4 15 -12 15 -19 0 -7 15 -31 33 -53 17
-21 46 -62 62 -90 18 -31 35 -50 43 -47 9 3 11 -1 7 -14 -3 -11 1 -24 11 -32
9 -7 20 -23 25 -36 5 -13 16 -23 24 -23 12 0 15 -6 10 -19 -3 -11 0 -23 7 -28
7 -4 19 -20 27 -35 7 -14 24 -29 37 -32 23 -6 35 -36 15 -36 -14 0 -102 48
-121 65 -9 8 -26 15 -37 15 -11 0 -26 7 -33 15 -7 9 -20 15 -29 14 -29 -3 -38
1 -65 26 -15 14 -36 25 -47 25 -12 0 -32 9 -46 20 -15 12 -34 18 -44 15 -12
-4 -22 1 -29 15 -6 11 -21 20 -34 20 -13 0 -35 11 -50 25 -17 16 -35 24 -46
20 -11 -4 -23 3 -34 20 -10 15 -26 25 -40 25 -12 0 -31 9 -41 20 -10 11 -25
20 -34 20 -9 0 -27 9 -41 20 -14 11 -32 20 -40 20 -8 0 -26 9 -40 20 -14 11
-33 20 -43 20 -11 0 -30 9 -44 20 -15 11 -34 18 -44 15 -12 -4 -20 1 -24 15
-5 17 -12 20 -32 15 -19 -4 -33 2 -59 25 -19 16 -42 30 -52 30 -9 0 -28 12
-41 25 -12 14 -26 23 -30 20 -4 -2 -26 14 -49 35 -23 22 -46 40 -52 40 -5 0
-15 9 -22 20 -7 11 -21 20 -31 20 -10 0 -15 5 -12 10 3 6 0 13 -8 16 -8 3 -17
14 -20 25 -3 11 -14 19 -27 19 -12 0 -18 4 -15 11 4 5 -14 30 -39 54 -25 23
-46 49 -46 57 -1 18 -41 63 -64 72 -11 4 -16 12 -12 22 7 19 -21 64 -41 64 -9
0 -12 6 -9 18 4 12 -1 25 -13 36 -11 10 -18 23 -15 30 3 7 -7 25 -22 39 -15
15 -24 30 -21 33 10 10 -12 44 -28 44 -19 0 -30 21 -16 30 17 10 -6 57 -32 64
-17 4 -18 8 -8 20 11 13 8 22 -17 54 -21 26 -29 46 -26 59 4 14 -2 29 -15 42
-12 12 -21 27 -21 34 0 6 -9 27 -20 44 -11 18 -17 39 -14 47 3 7 -7 23 -22 35
-20 16 -25 26 -20 45 5 20 -1 33 -30 61 -29 29 -33 39 -24 50 10 12 9 15 -9
15 -11 0 -21 2 -21 4 0 2 -3 11 -6 20 -9 25 20 20 54 -9z m858 -1450 c35 -25
68 -45 72 -45 5 0 17 -9 27 -20 10 -11 27 -20 38 -20 10 0 32 -11 49 -25 16
-14 38 -25 49 -25 10 0 28 -9 40 -21 13 -13 27 -18 40 -14 14 5 26 -1 40 -20
14 -16 27 -24 38 -20 11 3 29 -5 45 -20 18 -16 35 -24 46 -20 12 4 28 -3 44
-20 18 -18 33 -24 45 -20 13 4 28 -3 45 -20 19 -19 32 -24 47 -20 15 5 25 1
36 -14 8 -12 20 -21 26 -20 24 3 35 -2 61 -26 19 -17 34 -24 47 -20 14 5 26
-1 41 -20 12 -16 26 -24 35 -21 8 4 28 -5 45 -19 16 -14 38 -25 49 -25 10 0
28 -9 39 -20 11 -11 31 -20 45 -20 14 0 25 -4 25 -10 0 -5 7 -10 16 -10 8 0
32 -14 53 -31 21 -17 45 -31 53 -33 8 -1 27 -12 42 -24 16 -12 32 -20 36 -17
4 2 15 -4 25 -15 10 -11 21 -18 25 -15 4 2 18 -7 30 -20 13 -14 29 -25 37 -25
7 0 13 -7 13 -15 0 -9 12 -20 26 -25 36 -14 234 -217 234 -239 0 -6 16 -22 35
-37 19 -14 35 -33 35 -40 0 -8 11 -20 25 -26 14 -6 25 -20 25 -31 0 -10 9 -21
20 -24 11 -3 20 -14 20 -24 0 -11 7 -22 15 -25 8 -4 15 -12 15 -20 0 -8 9 -19
20 -26 11 -7 20 -18 20 -25 0 -7 14 -20 32 -29 32 -16 88 -72 88 -87 0 -5 -10
-5 -22 -2 -34 9 -88 38 -88 47 0 4 -16 10 -35 14 -19 3 -39 12 -46 20 -6 8
-22 14 -35 14 -13 0 -24 5 -24 10 0 6 -11 10 -25 10 -14 0 -25 5 -25 10 0 6
-9 10 -21 10 -11 0 -32 9 -46 20 -16 12 -34 18 -45 14 -13 -4 -25 3 -40 21
-15 20 -26 25 -44 21 -16 -4 -30 1 -48 19 -16 16 -36 25 -55 25 -20 0 -34 7
-41 20 -7 13 -21 20 -40 20 -19 0 -33 7 -40 20 -6 11 -17 20 -25 20 -8 0 -35
13 -61 30 -26 16 -50 27 -54 25 -4 -3 -13 2 -20 10 -7 8 -20 15 -29 15 -9 0
-24 9 -34 20 -9 11 -26 20 -37 20 -10 0 -24 9 -30 20 -6 11 -19 20 -29 20 -10
0 -26 9 -36 20 -10 11 -26 20 -36 20 -10 0 -23 9 -29 20 -6 11 -21 22 -35 26
-13 3 -26 12 -29 20 -3 7 -11 11 -19 8 -8 -3 -21 6 -31 20 -9 15 -24 26 -34
26 -9 0 -23 9 -29 19 -7 11 -23 26 -37 33 -13 7 -60 40 -103 74 -43 33 -87 63
-97 67 -10 4 -17 10 -14 12 6 6 -57 75 -67 75 -12 0 -64 47 -59 53 3 3 -10 15
-28 27 -43 30 -118 102 -118 113 0 5 -25 32 -55 61 -30 28 -55 57 -55 64 0 7
-20 27 -45 44 -25 18 -45 37 -45 43 0 7 -11 17 -25 23 -14 6 -25 18 -25 27 0
8 -4 15 -9 15 -5 0 -17 7 -25 16 -18 18 -21 34 -5 34 5 0 39 -20 75 -45z"/>
<path d="M11120 13416 c0 -14 5 -28 10 -31 6 -3 10 5 10 19 0 14 -4 28 -10 31
-6 3 -10 -5 -10 -19z"/>
</g>
</svg>
