<?xml version="1.0" standalone="no"?>
<!DOCTYPE svg PUBLIC "-//W3C//DTD SVG 20010904//EN"
 "http://www.w3.org/TR/2001/REC-SVG-20010904/DTD/svg10.dtd">
<svg version="1.0" xmlns="http://www.w3.org/2000/svg"
 width="2000.000000pt" height="2000.000000pt" viewBox="0 0 2000.000000 2000.000000"
 preserveAspectRatio="xMidYMid meet">
<metadata>
Created by potrace 1.16, written by Peter Selinger 2001-2019
</metadata>
<g transform="translate(0.000000,2000.000000) scale(0.100000,-0.100000)"
fill="#000000" stroke="none">
<path d="M10745 13216 c-50 -51 -109 -140 -96 -144 5 -2 -2 -14 -16 -28 -15
-15 -23 -32 -20 -44 3 -10 0 -21 -7 -23 -6 -3 -26 -40 -45 -83 -18 -44 -42
-97 -53 -120 -10 -23 -16 -49 -12 -58 4 -10 1 -16 -9 -16 -21 0 -30 -17 -29
-51 0 -16 -3 -29 -8 -29 -12 0 -40 -54 -40 -75 0 -9 -7 -23 -15 -32 -8 -8 -13
-18 -10 -23 3 -4 -2 -11 -11 -14 -14 -5 -14 -9 -3 -22 11 -13 8 -19 -16 -38
-15 -12 -29 -32 -30 -43 0 -12 -7 -29 -15 -38 -7 -8 -13 -29 -12 -45 0 -17 -3
-30 -8 -30 -12 0 -80 -138 -80 -161 0 -10 -4 -19 -9 -21 -5 -1 -11 -10 -13
-18 -2 -8 -10 -20 -18 -27 -13 -11 -13 -14 0 -23 13 -8 10 -14 -18 -36 -24
-19 -31 -31 -26 -46 4 -14 -1 -24 -15 -34 -12 -9 -21 -26 -21 -41 0 -14 -8
-31 -17 -38 -10 -7 -18 -25 -18 -39 -1 -14 -10 -32 -20 -40 -11 -8 -20 -26
-20 -40 -1 -14 -10 -32 -20 -40 -11 -8 -20 -26 -20 -40 -1 -14 -10 -32 -20
-40 -11 -8 -20 -25 -20 -38 -1 -13 -11 -34 -23 -46 -12 -12 -22 -31 -22 -42 0
-11 -9 -29 -20 -40 -11 -11 -20 -28 -20 -39 0 -10 -7 -24 -15 -31 -8 -7 -12
-16 -9 -21 3 -5 -2 -9 -11 -9 -13 0 -16 -6 -11 -23 4 -16 -1 -26 -14 -35 -13
-8 -20 -23 -20 -42 0 -19 -5 -29 -12 -28 -7 2 -12 -3 -10 -9 1 -7 -1 -14 -5
-14 -5 -1 -19 -4 -33 -6 -14 -3 -42 -4 -62 -4 -21 0 -38 -4 -38 -9 0 -5 -15
-7 -32 -4 -27 5 -30 3 -18 -6 12 -10 11 -11 -9 -6 -13 3 -39 -1 -58 -9 -19 -8
-47 -12 -63 -8 -20 4 -30 1 -30 -7 0 -8 -8 -10 -25 -6 -16 4 -25 2 -25 -5 0
-7 -9 -9 -24 -5 -14 3 -28 1 -31 -4 -4 -6 -11 -8 -16 -4 -5 3 -16 1 -24 -6 -8
-7 -27 -9 -49 -4 -25 4 -36 3 -36 -5 0 -8 -12 -10 -37 -6 -30 5 -35 4 -23 -5
12 -9 9 -11 -16 -6 -18 3 -35 2 -38 -1 -8 -8 -39 -14 -88 -16 -20 -1 -40 -5
-44 -9 -4 -4 -26 -5 -48 -2 -32 4 -38 3 -26 -6 12 -9 5 -10 -30 -5 -32 4 -41
3 -30 -4 12 -8 9 -11 -15 -11 -79 -2 -121 -6 -132 -13 -7 -4 -28 -5 -48 -1
-24 4 -35 3 -35 -6 0 -8 -13 -10 -42 -5 -32 4 -39 3 -28 -4 12 -9 7 -11 -20
-11 -98 -2 -146 -6 -158 -13 -6 -5 -33 -5 -60 -2 -36 5 -44 4 -32 -5 12 -9 6
-10 -27 -6 -26 4 -43 2 -43 -4 0 -9 -21 -11 -134 -11 -33 1 -65 -4 -72 -10 -8
-6 -32 -8 -61 -4 -37 5 -45 4 -33 -5 12 -9 6 -10 -27 -6 -25 4 -43 2 -43 -3 0
-6 -12 -10 -27 -11 -74 -2 -112 -6 -119 -13 -4 -4 -23 -4 -42 -1 -27 5 -33 4
-27 -6 6 -10 4 -12 -8 -7 -8 3 -21 -1 -28 -9 -7 -8 -19 -13 -28 -11 -40 9
-113 -65 -94 -96 4 -6 7 -20 8 -31 1 -26 18 -47 119 -153 44 -46 86 -83 93
-83 8 0 16 -7 20 -16 8 -22 99 -114 113 -114 6 0 24 -16 41 -35 17 -19 36 -35
43 -35 6 0 24 -16 39 -36 16 -19 40 -39 53 -44 13 -5 23 -13 22 -18 -2 -4 17
-25 42 -47 25 -22 69 -64 98 -93 30 -29 58 -50 63 -47 5 4 9 2 9 -4 0 -16 110
-122 120 -116 5 3 7 0 4 -9 -3 -9 2 -17 15 -21 11 -3 36 -24 54 -46 21 -24 43
-39 56 -39 18 0 21 -4 16 -19 -4 -15 1 -23 19 -33 27 -14 226 -206 226 -218 0
-4 33 -37 73 -73 100 -92 120 -112 189 -189 33 -38 64 -68 68 -68 4 0 22 -13
39 -29 22 -20 31 -38 31 -60 0 -17 -5 -31 -11 -31 -7 0 -9 -12 -5 -35 5 -22 3
-35 -4 -35 -6 0 -10 -23 -9 -57 1 -82 -1 -94 -13 -87 -7 5 -9 -5 -4 -32 5 -30
4 -35 -4 -24 -9 12 -10 6 -5 -22 4 -26 2 -38 -6 -38 -8 0 -9 -10 -5 -31 3 -19
0 -42 -10 -60 -8 -17 -12 -39 -9 -49 4 -12 2 -20 -5 -20 -8 0 -10 -11 -6 -34
4 -20 2 -37 -4 -41 -5 -3 -7 -17 -4 -31 3 -13 1 -30 -5 -38 -6 -7 -9 -21 -5
-30 3 -9 1 -16 -5 -16 -6 0 -8 -7 -5 -15 4 -8 1 -15 -5 -15 -6 0 -11 -15 -11
-32 1 -28 -3 -69 -11 -125 -1 -7 -7 -13 -12 -13 -5 0 -6 -11 -3 -25 4 -15 2
-25 -5 -25 -7 0 -8 -11 -4 -30 4 -19 3 -30 -4 -30 -6 0 -10 -17 -10 -37 1 -54
-3 -73 -13 -73 -5 0 -7 -13 -3 -30 4 -19 3 -30 -4 -30 -7 0 -9 -10 -5 -25 4
-15 2 -25 -5 -25 -6 0 -10 -17 -10 -37 1 -54 -3 -73 -13 -73 -5 0 -7 -15 -3
-32 5 -26 4 -30 -5 -18 -9 12 -10 7 -5 -22 4 -26 2 -38 -6 -38 -7 0 -9 -11 -5
-35 5 -24 2 -42 -9 -59 -12 -17 -15 -35 -10 -56 4 -19 3 -30 -4 -30 -7 0 -9
-10 -5 -25 4 -16 2 -25 -6 -25 -9 0 -10 -11 -6 -36 5 -22 3 -41 -4 -49 -7 -8
-9 -19 -5 -25 3 -5 1 -10 -6 -10 -7 0 -9 -11 -5 -35 5 -23 3 -35 -4 -35 -8 0
-9 -11 -5 -30 4 -19 3 -30 -4 -30 -6 0 -11 -22 -10 -52 1 -104 -1 -114 -12
-98 -8 11 -9 5 -4 -22 3 -21 2 -38 -2 -38 -4 0 -8 -45 -8 -100 0 -88 2 -101
18 -106 10 -3 23 -1 30 4 7 5 24 12 40 16 15 3 27 11 27 16 0 6 8 10 19 10 10
0 30 9 44 20 14 11 34 20 46 20 11 0 25 9 31 20 6 11 20 20 32 20 12 0 35 11
52 23 17 13 43 27 59 31 15 3 27 11 27 16 0 6 10 10 23 10 13 0 34 11 47 25
13 14 31 25 41 25 10 0 24 7 33 15 8 8 21 15 28 15 8 0 19 5 24 10 12 12 82
51 137 75 20 10 37 21 37 26 0 5 8 9 19 9 10 0 24 6 30 14 7 8 24 17 39 21 15
4 35 15 45 26 10 10 26 19 37 19 10 0 23 6 27 14 4 8 25 21 46 29 20 9 40 23
43 32 3 8 17 15 29 15 13 0 27 5 30 10 4 6 21 17 38 26 77 36 108 56 113 69 4
8 17 15 30 15 13 0 29 9 36 20 7 11 23 20 35 20 12 0 25 5 28 10 4 6 21 17 38
26 75 35 107 55 107 64 0 6 10 10 22 10 11 0 36 11 54 25 18 14 40 25 48 25 9
0 16 3 16 8 0 4 15 13 33 20 68 28 83 35 99 43 10 5 24 9 32 9 7 0 19 7 26 15
7 9 21 13 31 10 9 -3 20 -2 23 4 3 5 16 7 28 3 16 -4 19 -2 13 8 -6 10 -4 12
7 7 9 -3 21 0 27 6 16 16 201 23 201 7 0 -7 7 -10 16 -6 22 8 65 -4 57 -17 -4
-6 2 -8 15 -5 12 4 25 2 28 -4 3 -5 13 -7 22 -3 8 3 23 -3 34 -15 11 -11 32
-20 48 -20 16 0 46 -11 66 -25 20 -14 45 -25 54 -25 10 0 20 -7 23 -14 3 -8
22 -18 41 -22 20 -3 36 -10 36 -14 0 -5 20 -16 45 -26 25 -9 45 -21 45 -25 0
-5 9 -9 19 -9 11 0 26 -7 35 -15 8 -8 21 -15 29 -15 7 0 24 -11 36 -24 13 -13
34 -27 47 -30 13 -4 40 -17 60 -31 20 -14 44 -25 53 -25 9 0 32 -14 51 -30 19
-16 43 -30 52 -30 9 0 23 -7 32 -15 8 -8 23 -15 34 -15 11 0 22 -7 26 -15 5
-14 59 -46 139 -81 20 -10 37 -21 37 -26 0 -4 11 -8 25 -8 14 0 25 -5 25 -11
0 -5 19 -19 43 -30 23 -11 60 -31 82 -44 22 -13 47 -24 56 -25 9 0 22 -7 29
-15 7 -8 20 -15 30 -15 10 0 20 -7 24 -15 3 -8 10 -15 15 -15 5 0 37 -16 70
-35 34 -19 68 -32 75 -29 7 3 16 -2 19 -10 4 -9 16 -16 27 -16 11 0 20 -4 20
-10 0 -5 9 -10 20 -10 10 0 24 -9 30 -20 7 -13 21 -20 40 -20 19 0 33 -7 40
-20 7 -13 21 -20 40 -20 19 0 33 -7 40 -20 7 -13 21 -20 40 -20 19 0 33 -7 40
-20 14 -26 36 -25 54 3 16 26 20 97 5 97 -8 0 -9 15 -5 45 5 28 3 45 -3 45 -9
0 -10 9 -11 120 -1 41 -3 51 -11 40 -8 -11 -9 -5 -4 23 3 22 2 37 -4 37 -6 0
-8 12 -4 30 4 20 2 30 -7 30 -8 0 -10 8 -6 24 3 14 1 28 -5 31 -6 4 -7 19 -4
36 4 19 3 29 -5 29 -8 0 -9 10 -5 30 4 20 3 30 -6 30 -8 0 -10 11 -6 34 3 20
0 45 -8 60 -9 16 -12 39 -8 58 5 24 3 29 -7 23 -9 -5 -10 -2 -5 14 4 13 2 21
-5 21 -8 0 -10 9 -6 25 4 14 2 25 -3 25 -10 0 -12 16 -12 100 1 34 -2 41 -10
30 -8 -11 -9 -7 -4 18 4 20 3 32 -4 32 -7 0 -9 10 -5 25 4 16 2 25 -6 25 -7 0
-9 8 -5 19 3 11 1 22 -5 26 -7 4 -9 19 -5 36 7 29 -13 129 -25 129 -3 0 -7 21
-8 47 -1 26 -7 50 -13 54 -6 4 -8 16 -4 28 4 12 2 21 -4 21 -6 0 -8 12 -4 30
3 18 1 30 -5 30 -6 0 -11 8 -11 18 0 9 -1 32 -1 50 -1 17 -6 32 -11 32 -7 0
-8 12 -4 30 4 20 3 30 -5 30 -7 0 -10 7 -6 15 3 8 1 15 -4 15 -5 0 -9 12 -9
28 0 68 -3 92 -12 92 -7 0 -8 12 -4 30 4 20 3 30 -5 30 -8 0 -10 9 -6 25 4 14
1 35 -5 47 -7 12 -12 35 -11 50 0 15 -4 28 -9 28 -7 0 -8 12 -4 30 4 19 3 30
-4 30 -7 0 -9 10 -5 25 3 14 2 25 -4 25 -5 0 -10 10 -11 23 0 12 -1 39 -2 60
0 20 -5 37 -10 37 -5 0 -9 9 -9 20 0 11 5 20 11 20 6 0 8 8 4 19 -4 14 3 24
29 41 43 26 78 68 69 83 -3 5 -1 7 4 4 14 -9 285 262 276 276 -3 6 -1 7 5 3 7
-4 104 86 234 217 123 124 233 231 245 239 12 8 23 20 25 28 2 8 8 17 15 20 6
3 84 75 172 160 88 85 178 170 201 189 22 18 40 40 40 47 0 8 4 14 8 14 14 0
372 361 372 374 0 24 -27 49 -44 43 -10 -4 -29 -1 -44 7 -15 7 -33 11 -41 8
-9 -3 -11 0 -6 8 6 10 1 12 -22 7 -17 -3 -34 -3 -37 1 -4 3 -21 7 -39 9 -42 2
-65 8 -73 16 -3 3 -20 4 -38 1 -25 -5 -28 -3 -16 6 12 9 7 10 -22 5 -24 -4
-38 -2 -38 4 0 6 -21 10 -47 10 -54 -1 -89 4 -100 14 -3 4 -23 5 -42 1 -28 -4
-33 -3 -21 6 12 9 5 10 -27 5 -28 -5 -43 -3 -43 4 0 6 -20 11 -47 10 -87 -1
-123 3 -123 13 0 5 -13 7 -30 3 -20 -4 -30 -3 -30 5 0 9 -11 10 -35 6 -20 -4
-41 -3 -48 1 -11 7 -41 10 -139 13 -16 0 -28 5 -28 11 0 6 -14 7 -35 3 -24 -4
-35 -3 -35 6 0 9 -11 10 -36 6 -20 -4 -41 -3 -48 3 -7 6 -34 10 -62 10 -111 0
-120 1 -104 11 11 8 1 9 -35 5 -38 -5 -46 -4 -35 5 11 8 4 9 -32 4 -33 -4 -48
-3 -48 5 0 7 -21 11 -57 11 -117 -2 -129 -1 -113 11 11 7 4 8 -27 4 -29 -5
-43 -3 -43 5 0 7 -12 9 -35 4 -23 -4 -35 -2 -35 5 0 7 -21 11 -57 10 -79 -1
-93 1 -93 13 0 6 -16 7 -42 3 -33 -5 -40 -4 -28 5 12 9 7 10 -22 5 -25 -4 -38
-2 -38 5 0 8 -13 10 -39 5 -24 -4 -42 -2 -46 4 -3 6 -19 11 -34 11 -28 0 -57
21 -45 33 3 3 -10 36 -30 74 -20 37 -36 73 -36 80 0 7 -7 13 -16 13 -8 0 -13
4 -10 9 3 5 -1 14 -9 21 -8 7 -15 23 -15 35 0 20 -29 57 -36 45 -1 -3 -6 -2
-10 3 -4 4 -2 7 4 7 19 0 14 23 -12 52 -14 14 -23 28 -20 30 2 3 -7 22 -21 42
-14 20 -25 46 -25 56 0 11 -9 25 -20 32 -12 8 -20 24 -20 40 0 17 -8 33 -20
40 -12 8 -20 24 -20 39 0 14 -9 34 -19 43 -11 10 -23 31 -26 47 -4 16 -14 33
-22 38 -10 5 -14 15 -9 26 4 13 -3 26 -26 47 -26 23 -30 31 -19 38 12 7 12 12
-3 34 -9 15 -21 24 -26 21 -6 -4 -10 5 -10 19 0 30 -20 76 -33 76 -5 0 -7 6
-4 14 5 13 -46 128 -70 158 -6 7 -14 27 -17 45 -4 17 -14 37 -22 44 -8 6 -14
20 -14 30 0 11 -9 28 -21 40 -13 13 -18 27 -14 40 4 10 2 19 -3 19 -6 0 -13
11 -16 25 -4 14 -11 25 -16 25 -6 0 -10 11 -10 25 0 14 -11 37 -25 51 -13 13
-22 31 -19 38 3 8 -1 25 -9 38 -7 13 -25 52 -38 87 -13 35 -36 76 -51 92 -17
17 -23 29 -16 31 8 3 5 14 -10 35 -12 17 -22 38 -22 47 0 9 -7 16 -16 16 -8 0
-13 3 -10 8 7 12 -36 76 -80 114 -56 51 -95 50 -149 -6z"/>
</g>
</svg>
