<?xml version="1.0" standalone="no"?>
<!DOCTYPE svg PUBLIC "-//W3C//DTD SVG 20010904//EN"
 "http://www.w3.org/TR/2001/REC-SVG-20010904/DTD/svg10.dtd">
<svg version="1.0" xmlns="http://www.w3.org/2000/svg"
 width="1999.000000pt" height="2000.000000pt" viewBox="0 0 1999.000000 2000.000000"
 preserveAspectRatio="xMidYMid meet">
<metadata>
Created by potrace 1.16, written by Peter Selinger 2001-2019
</metadata>
<g transform="translate(0.000000,2000.000000) scale(0.100000,-0.100000)"
fill="#000000" stroke="none">
<path d="M12425 14023 c-12 -11 -15 -25 -11 -45 3 -16 2 -27 -3 -24 -14 9 -11
-277 3 -287 8 -6 8 -10 -1 -13 -13 -6 3 -64 18 -64 5 0 9 -11 9 -25 0 -32 32
-93 59 -112 12 -8 21 -20 21 -27 0 -12 44 -67 96 -120 29 -28 112 -89 135 -98
11 -4 19 -12 19 -18 0 -5 5 -10 11 -10 7 0 22 -10 34 -22 33 -34 76 -68 84
-68 4 0 30 -20 57 -45 27 -25 52 -45 55 -45 4 0 9 -9 12 -19 2 -11 15 -21 28
-23 13 -1 25 -9 25 -15 1 -7 2 -17 3 -22 0 -5 10 -12 20 -16 10 -3 21 -15 24
-25 3 -11 13 -20 22 -20 9 0 13 -4 10 -10 -3 -5 8 -24 26 -42 17 -18 42 -50
55 -70 14 -21 29 -38 34 -38 6 0 9 -4 7 -9 -3 -13 74 -131 86 -131 6 0 7 -3 4
-6 -6 -7 3 -27 47 -104 11 -19 22 -44 23 -55 2 -11 10 -25 18 -31 8 -6 12 -14
8 -17 -3 -4 -1 -13 5 -20 7 -8 9 -16 6 -19 -9 -9 24 -65 42 -72 11 -4 14 -13
10 -30 -6 -26 8 -76 26 -87 5 -4 11 -25 12 -48 1 -24 8 -46 14 -50 7 -4 10
-15 7 -23 -4 -9 0 -29 8 -45 8 -15 13 -42 10 -58 -3 -23 -2 -27 6 -15 9 13 11
13 11 -2 0 -9 -5 -18 -11 -20 -8 -3 -6 -9 4 -20 9 -9 14 -24 10 -37 -3 -11 -1
-21 5 -21 10 0 13 -32 13 -115 -1 -29 2 -36 9 -25 8 12 10 10 10 -11 0 -14 -5
-30 -11 -36 -7 -7 -5 -15 6 -27 12 -11 15 -25 10 -46 -4 -19 -3 -30 4 -30 15
0 16 -52 14 -1315 0 -593 0 -591 10 -601 11 -11 9 -58 -4 -71 -7 -7 -6 -15 5
-26 11 -11 14 -25 10 -46 -5 -21 -3 -31 6 -31 8 0 10 -8 7 -21 -3 -12 -1 -32
5 -45 8 -17 8 -27 -1 -38 -9 -11 -9 -17 1 -27 7 -8 14 -32 15 -53 1 -22 7 -42
13 -46 6 -4 8 -14 4 -23 -3 -10 -1 -17 5 -17 8 0 10 -11 6 -33 -5 -24 -1 -38
14 -56 19 -21 25 -46 24 -88 -1 -7 5 -13 13 -13 8 0 14 -9 14 -19 0 -11 5 -23
10 -26 14 -9 12 -35 -3 -35 -13 0 -89 93 -100 123 -3 9 -13 17 -20 17 -8 0
-39 26 -69 58 -31 31 -78 75 -106 97 -28 22 -51 46 -52 53 0 7 -13 20 -28 30
-42 26 -239 201 -246 217 -3 8 -13 15 -23 15 -10 0 -31 19 -47 41 -15 22 -32
39 -38 37 -5 -2 -30 16 -56 39 -26 24 -52 43 -59 43 -7 0 -13 6 -14 13 0 6
-14 23 -30 37 -17 14 -40 34 -52 45 -12 12 -35 29 -52 39 -16 10 -39 27 -50
37 -39 37 -83 69 -94 69 -6 0 -11 5 -11 10 0 6 -12 16 -27 23 -14 6 -44 29
-65 49 -22 21 -44 38 -50 38 -5 0 -31 18 -57 40 -26 22 -55 40 -64 40 -9 0
-17 5 -17 10 0 6 -12 16 -27 23 -15 6 -36 20 -45 30 -10 9 -25 17 -33 17 -8 0
-15 5 -15 11 0 5 -15 16 -34 24 -18 8 -36 21 -39 29 -4 9 -13 13 -22 10 -8 -4
-17 1 -21 10 -6 17 -88 66 -110 66 -7 0 -18 9 -24 20 -6 11 -17 20 -25 20 -8
0 -15 5 -15 10 0 6 -12 16 -27 23 -16 6 -30 14 -33 18 -3 3 -25 19 -49 35 -24
16 -51 34 -59 39 -8 6 -24 18 -34 28 -10 9 -24 17 -32 17 -8 0 -16 7 -20 15
-3 8 -12 15 -20 15 -9 0 -20 9 -26 20 -6 11 -16 20 -23 20 -7 0 -26 18 -43 40
-16 22 -33 40 -38 40 -5 0 -29 20 -55 45 -25 24 -79 75 -120 112 -40 37 -96
95 -124 128 -27 33 -65 71 -83 86 -18 14 -30 29 -27 33 4 4 -11 24 -33 44 -45
43 -134 150 -134 162 0 5 -17 21 -37 37 -21 15 -38 35 -38 43 0 8 -10 19 -22
25 -13 5 -23 16 -23 23 0 7 -7 15 -15 18 -8 4 -15 12 -15 20 0 7 -9 18 -20 24
-11 6 -25 21 -32 35 -7 13 -27 35 -43 47 -17 13 -30 30 -30 38 0 8 -9 19 -20
25 -11 6 -21 16 -23 23 -2 12 -16 28 -109 128 -24 25 -43 52 -43 61 0 8 -9 17
-20 20 -11 3 -18 9 -15 13 7 11 -25 50 -41 50 -8 0 -14 9 -14 19 0 11 -6 26
-13 33 -7 7 -26 34 -42 60 -17 27 -36 48 -43 48 -7 0 -10 5 -7 11 8 12 -42 92
-54 85 -4 -3 -7 5 -7 17 1 13 -4 21 -12 19 -8 -1 -11 2 -7 8 4 6 -1 23 -11 38
-10 15 -26 44 -36 65 -9 20 -24 37 -33 37 -10 0 -15 10 -15 31 0 38 -16 69
-36 69 -10 0 -13 7 -8 24 6 27 -20 86 -39 86 -8 0 -7 3 2 9 12 8 12 13 -3 35
-9 14 -20 26 -25 26 -5 0 -9 16 -8 36 1 19 -3 38 -8 42 -6 4 -11 22 -12 41 -1
19 -8 38 -14 42 -6 4 -11 18 -11 33 0 14 -5 26 -9 26 -5 0 -7 11 -3 24 3 14 0
34 -9 48 -7 12 -15 47 -15 75 -1 34 -12 75 -32 118 -16 36 -30 69 -30 74 0 4
-9 16 -20 26 -11 10 -20 25 -20 34 -1 19 -34 61 -48 61 -6 0 -10 8 -9 18 1 23
-33 73 -45 66 -6 -4 -8 -1 -5 7 5 15 -60 143 -101 197 -13 17 -31 32 -38 32
-8 0 -22 8 -32 18 -13 13 -36 19 -76 21 -50 1 -63 -3 -101 -30 -25 -18 -46
-37 -46 -43 -6 -42 -3 -176 4 -176 11 0 8 -105 -4 -117 -7 -7 -5 -15 7 -28 14
-14 15 -21 6 -36 -9 -14 -8 -21 4 -34 9 -8 13 -22 10 -30 -3 -9 0 -26 6 -40 7
-16 8 -29 1 -37 -12 -15 2 -78 17 -78 5 0 7 -7 3 -16 -3 -9 -1 -19 5 -23 6 -3
12 -32 15 -63 2 -32 12 -69 21 -83 9 -13 16 -36 16 -50 0 -14 9 -34 20 -45 11
-11 19 -23 18 -28 -4 -12 34 -102 43 -102 5 0 6 -6 4 -12 -3 -7 6 -31 20 -53
13 -22 31 -53 39 -70 9 -16 28 -48 44 -71 15 -22 44 -66 65 -97 21 -32 44 -57
53 -57 8 0 13 -4 10 -9 -9 -13 16 -41 234 -259 107 -108 201 -195 208 -194 6
2 12 -2 12 -7 0 -5 69 -79 153 -164 202 -205 286 -296 303 -329 8 -15 23 -29
33 -33 11 -3 18 -11 16 -18 -3 -7 13 -31 34 -54 22 -23 42 -51 46 -63 3 -11
13 -20 21 -20 8 0 12 -5 9 -10 -9 -15 22 -60 41 -60 10 0 14 -6 10 -15 -3 -9
6 -23 24 -36 60 -45 46 -70 -21 -34 -79 43 -109 54 -124 49 -8 -4 -29 6 -46
20 -25 22 -37 25 -65 20 -22 -4 -34 -2 -34 5 0 16 -64 39 -94 34 -19 -4 -26
-1 -26 10 0 17 -62 39 -85 31 -8 -3 -27 4 -44 17 -16 12 -46 22 -66 23 -20 1
-39 6 -43 12 -10 15 -63 33 -92 31 -15 -1 -24 3 -23 10 3 14 -62 34 -83 26 -7
-3 -28 7 -46 22 -25 22 -38 25 -65 20 -24 -4 -35 -2 -39 9 -6 16 -46 30 -89
31 -19 0 -29 5 -28 13 3 14 2 14 -49 17 -22 1 -54 14 -77 29 -31 22 -46 26
-70 21 -23 -5 -33 -3 -37 9 -3 8 -12 12 -21 9 -10 -4 -14 -2 -9 5 8 14 -26 24
-57 17 -16 -4 -28 -2 -34 7 -13 21 -62 39 -89 32 -18 -5 -24 -2 -24 10 0 17 1
17 -52 20 -20 2 -49 11 -64 21 -16 10 -43 19 -62 21 -18 1 -45 11 -60 21 -15
10 -44 19 -65 20 -24 1 -48 11 -69 28 -25 21 -38 25 -63 21 -24 -5 -36 -1 -50
14 -12 14 -31 20 -57 20 -25 0 -50 8 -65 20 -15 11 -34 18 -44 15 -9 -3 -20
-2 -23 4 -3 5 -15 7 -26 4 -13 -4 -20 0 -20 10 0 18 -24 29 -45 21 -8 -4 -15
-1 -15 6 0 8 -10 9 -30 5 -22 -5 -32 -3 -36 9 -3 8 -12 12 -21 9 -11 -4 -14
-2 -9 5 5 9 -5 12 -34 12 -26 0 -51 8 -70 22 -18 13 -45 22 -68 22 -23 1 -46
8 -57 19 -11 12 -26 16 -41 13 -12 -3 -25 -2 -29 4 -3 5 -12 6 -21 3 -9 -3
-24 4 -36 17 -14 15 -27 20 -44 16 -12 -3 -25 -2 -29 4 -3 5 -12 6 -21 3 -9
-3 -24 4 -36 17 -14 15 -27 20 -44 16 -12 -3 -25 -2 -29 4 -3 5 -13 6 -22 3
-9 -4 -21 0 -27 9 -15 20 -73 39 -100 33 -14 -4 -31 3 -51 20 -22 20 -37 25
-57 21 -21 -4 -34 1 -52 19 -17 17 -36 25 -59 25 -22 0 -37 6 -41 15 -3 9 -11
15 -18 14 -16 -3 -41 7 -89 32 -20 10 -44 19 -52 19 -8 0 -17 7 -20 14 -3 8
-22 18 -41 22 -20 3 -36 10 -36 14 0 4 -17 15 -37 24 -55 24 -97 49 -106 63
-4 7 -13 10 -21 7 -7 -3 -24 6 -37 20 -13 14 -29 26 -35 26 -6 0 -20 11 -32
25 -12 14 -28 25 -36 25 -8 0 -16 7 -20 15 -3 8 -12 15 -20 15 -8 0 -33 17
-54 38 -37 35 -97 82 -105 82 -8 0 -95 91 -101 105 -3 8 -12 15 -21 15 -8 0
-15 7 -15 16 0 9 -9 18 -20 21 -11 3 -20 10 -20 17 0 6 -16 24 -35 39 -19 15
-35 33 -35 40 0 7 -14 23 -30 37 -40 32 -117 130 -130 165 -6 15 -19 29 -30
32 -11 3 -18 9 -15 12 4 8 -40 79 -61 96 -6 6 -15 23 -18 39 -4 15 -15 30 -26
33 -10 3 -18 12 -17 21 1 23 -90 189 -114 205 -10 8 -16 17 -12 20 3 4 -1 22
-9 39 -9 18 -23 50 -32 71 -9 20 -23 37 -31 37 -12 0 -14 6 -9 26 5 18 1 30
-15 45 -15 14 -21 32 -21 65 0 30 -5 46 -14 50 -8 3 -12 12 -9 19 6 18 -58 78
-119 110 -50 26 -122 33 -134 14 -10 -17 -12 -159 -2 -159 12 0 10 -28 -3 -32
-8 -3 -5 -10 6 -22 10 -9 20 -32 22 -49 11 -80 19 -107 34 -107 5 0 9 -10 9
-23 0 -13 12 -34 27 -47 17 -14 23 -25 15 -28 -13 -4 14 -58 72 -141 20 -28
36 -55 36 -61 0 -5 14 -25 31 -45 17 -19 28 -35 25 -35 -4 0 3 -18 14 -40 11
-22 27 -40 35 -40 10 0 15 -10 15 -29 0 -17 5 -33 11 -37 6 -3 19 -26 30 -50
10 -25 25 -47 34 -50 10 -4 15 -19 15 -45 0 -26 5 -42 15 -45 8 -4 15 -12 15
-20 0 -7 9 -28 20 -46 40 -65 18 -65 -47 1 -54 54 -134 111 -157 111 -8 0 -20
9 -26 20 -6 11 -22 23 -36 26 -13 3 -29 15 -35 25 -5 11 -19 19 -29 19 -11 0
-20 7 -20 15 0 9 -12 18 -30 22 -16 3 -30 10 -30 14 0 5 -12 15 -27 22 -16 6
-36 22 -46 34 -10 13 -24 23 -32 23 -7 0 -18 7 -25 15 -7 8 -21 15 -31 15 -11
0 -19 5 -19 10 0 6 -12 16 -27 23 -15 6 -36 20 -45 30 -10 9 -25 17 -33 17 -7
0 -18 6 -22 14 -11 17 -89 66 -107 66 -8 0 -16 7 -20 15 -3 8 -16 15 -30 15
-13 0 -27 7 -30 15 -3 9 -21 22 -40 30 -19 8 -37 19 -41 25 -3 5 -18 10 -32
10 -16 0 -27 7 -30 20 -3 10 -15 22 -27 26 -31 9 -146 67 -152 76 -3 4 -14 8
-24 8 -11 0 -34 9 -52 20 -18 11 -39 20 -46 20 -8 0 -25 9 -39 20 -14 11 -38
20 -52 20 -14 0 -43 9 -64 20 -20 11 -47 20 -59 20 -13 0 -36 9 -53 20 -16 11
-45 20 -62 20 -18 0 -33 5 -33 11 0 6 -9 8 -21 4 -16 -5 -19 -4 -14 6 6 9 2
11 -13 7 -12 -4 -22 -2 -22 3 0 4 -12 8 -28 8 -45 0 -62 4 -62 14 0 5 -9 7
-20 4 -11 -3 -20 -1 -20 5 0 6 -11 7 -26 4 -16 -4 -23 -3 -19 3 6 10 -13 12
-123 11 -17 0 -32 5 -32 11 0 7 -10 9 -25 5 -17 -4 -31 -1 -41 9 -11 10 -20
12 -28 6 -14 -11 -93 -18 -102 -8 -4 4 4 7 17 7 22 1 22 2 5 11 -13 8 -24 8
-41 -1 -16 -8 -55 -11 -117 -8 -64 2 -98 0 -105 -8 -8 -8 -28 -9 -69 -2 -41 6
-59 6 -64 -3 -5 -7 -19 -9 -39 -4 -20 4 -31 3 -31 -4 0 -6 -15 -11 -33 -11
-109 1 -128 -1 -122 -11 4 -6 -3 -7 -19 -3 -15 3 -26 2 -26 -4 0 -6 -9 -8 -20
-5 -11 3 -20 1 -20 -4 0 -10 -17 -14 -63 -14 -15 0 -27 -4 -27 -8 0 -5 -10 -7
-22 -3 -16 4 -19 2 -13 -8 6 -10 4 -12 -9 -7 -10 4 -27 0 -39 -8 -12 -8 -31
-12 -44 -9 -16 4 -25 1 -29 -10 -3 -9 -13 -16 -21 -16 -8 0 -28 -14 -45 -30
-24 -25 -29 -36 -24 -60 3 -16 1 -32 -4 -35 -6 -3 -10 -11 -10 -16 0 -16 111
-120 121 -113 5 3 30 -8 54 -24 28 -18 53 -28 65 -25 11 3 20 0 20 -6 0 -16
54 -40 86 -38 18 1 28 -2 27 -10 -3 -14 40 -28 56 -18 6 3 11 1 11 -5 0 -8 13
-10 40 -5 23 4 40 3 40 -3 0 -5 11 -14 25 -20 15 -7 25 -8 25 -2 0 6 10 10 23
10 18 0 19 -2 7 -11 -11 -8 -3 -9 31 -5 26 3 49 3 52 0 8 -9 323 -8 336 1 6 3
32 3 59 0 36 -5 44 -4 32 5 -12 9 -7 10 23 5 24 -4 37 -2 37 5 0 6 5 8 10 5 6
-4 17 -1 25 5 8 6 23 9 34 5 10 -3 22 -1 26 4 3 6 20 8 37 4 24 -5 29 -3 23 7
-5 9 -2 10 13 6 13 -5 22 -1 26 10 5 13 14 15 41 10 20 -4 35 -3 35 3 0 5 10
7 22 4 19 -4 20 -3 8 7 -12 9 -8 10 17 5 22 -4 33 -3 33 5 0 6 5 8 10 5 6 -4
16 -2 23 3 7 5 75 10 152 10 106 0 145 -4 162 -15 13 -9 30 -13 38 -9 8 3 15
1 15 -5 0 -7 10 -9 24 -5 14 3 27 2 31 -4 3 -5 12 -7 21 -3 8 3 21 -2 28 -12
7 -10 21 -19 32 -20 31 -4 64 -17 64 -25 0 -4 17 -15 38 -24 53 -24 79 -40
107 -66 13 -12 28 -19 34 -16 5 4 12 -3 16 -13 3 -11 16 -23 28 -27 11 -4 27
-13 35 -20 7 -8 20 -14 28 -14 8 0 14 -4 14 -9 0 -10 95 -81 108 -81 5 0 17
-9 27 -20 10 -12 24 -19 31 -16 7 3 16 -4 19 -15 6 -18 17 -24 39 -20 4 1 18
-10 30 -24 12 -14 27 -25 33 -25 6 0 16 -7 23 -15 7 -9 37 -27 67 -41 29 -14
53 -30 53 -35 0 -5 11 -11 24 -15 13 -3 34 -17 47 -30 12 -13 30 -24 39 -24 9
0 21 -5 27 -11 14 -14 46 -33 99 -58 23 -10 44 -26 47 -35 4 -9 14 -16 23 -16
9 0 27 -9 41 -20 14 -11 31 -20 38 -20 7 0 18 -7 25 -15 7 -8 21 -15 32 -15
10 0 21 -7 24 -15 3 -7 26 -22 50 -31 24 -9 44 -21 44 -25 0 -5 11 -9 24 -9
13 0 26 -7 30 -15 3 -8 14 -15 24 -15 10 0 27 -9 37 -20 19 -21 97 -60 120
-60 7 0 18 -7 25 -15 7 -8 21 -15 31 -15 11 0 19 -4 19 -10 0 -5 5 -10 11 -10
6 0 22 -9 36 -20 14 -11 33 -20 43 -20 9 0 27 -9 40 -20 13 -11 31 -20 40 -20
9 0 27 -9 40 -20 13 -11 31 -20 40 -20 9 0 27 -9 40 -20 23 -20 34 -24 57 -21
7 1 17 -8 23 -19 6 -11 20 -20 32 -20 12 0 36 -11 54 -25 18 -14 44 -25 58
-25 14 0 26 -4 26 -10 0 -5 12 -13 27 -16 14 -4 44 -17 66 -30 22 -12 46 -20
53 -17 7 2 18 -5 24 -17 9 -16 18 -20 34 -16 16 4 29 -1 41 -14 10 -11 26 -18
35 -15 10 3 26 -5 40 -20 15 -16 30 -23 44 -19 13 3 30 -3 44 -16 12 -11 22
-18 22 -14 0 4 11 -3 24 -16 16 -14 31 -20 42 -16 9 4 24 0 33 -7 9 -8 44 -20
79 -27 76 -16 81 -35 13 -44 -28 -4 -66 -13 -86 -22 -20 -8 -40 -12 -45 -9 -5
3 -30 -6 -56 -20 -26 -14 -55 -23 -64 -20 -9 3 -28 -4 -42 -15 -19 -14 -35
-18 -55 -14 -23 4 -37 0 -61 -20 -23 -20 -37 -25 -57 -20 -19 5 -36 -1 -64
-21 -22 -14 -56 -28 -77 -30 -21 -1 -43 -10 -50 -20 -8 -11 -20 -15 -32 -11
-22 7 -73 -12 -85 -32 -6 -8 -18 -11 -32 -8 -13 3 -27 1 -30 -4 -4 -6 -11 -8
-16 -5 -10 7 -44 -10 -44 -22 0 -4 -12 -8 -26 -8 -15 -1 -34 -7 -43 -14 -9 -7
-16 -10 -16 -5 0 4 -6 -1 -14 -11 -8 -11 -19 -16 -30 -12 -20 8 -76 -18 -76
-34 0 -7 -10 -9 -23 -5 -14 3 -33 -1 -45 -10 -12 -8 -22 -12 -22 -7 0 4 -5 1
-10 -7 -6 -9 -25 -15 -52 -16 -23 0 -44 -6 -46 -12 -2 -7 -8 -9 -13 -6 -6 3
-21 -1 -34 -10 -16 -11 -34 -14 -56 -9 -24 5 -30 3 -24 -7 6 -9 -2 -11 -36 -6
-32 5 -40 4 -29 -3 11 -8 -22 -11 -115 -11 -94 0 -126 3 -115 11 11 8 5 9 -23
4 -29 -5 -37 -3 -32 6 6 9 -2 10 -29 5 -28 -5 -41 -3 -49 7 -15 19 -73 38 -92
30 -9 -3 -23 4 -33 17 -11 13 -31 23 -52 24 -18 1 -36 8 -38 14 -2 7 -12 12
-22 12 -9 0 -23 7 -31 16 -18 22 -61 41 -81 37 -10 -3 -18 0 -18 6 0 17 -55
41 -78 34 -14 -3 -24 0 -28 10 -3 9 -12 13 -21 10 -10 -4 -14 -2 -10 4 8 13
-41 24 -71 16 -13 -3 -32 3 -49 17 -16 12 -29 17 -31 11 -5 -14 -32 -14 -32
-1 0 7 -13 8 -35 4 -19 -3 -35 -2 -35 2 0 10 -387 11 -397 1 -3 -4 -23 -4 -45
-1 -26 5 -38 3 -38 -5 0 -8 -11 -10 -35 -5 -19 3 -35 2 -35 -3 0 -10 -26 -14
-88 -13 -30 0 -41 -3 -36 -11 4 -8 -3 -9 -25 -4 -19 4 -31 3 -31 -4 0 -6 -7
-8 -15 -5 -8 4 -27 -1 -41 -11 -14 -9 -31 -14 -39 -12 -36 14 -49 -62 -15 -90
11 -10 20 -23 20 -29 0 -6 9 -21 20 -34 11 -13 20 -26 20 -30 0 -8 88 -70 100
-70 5 0 14 -9 20 -20 6 -10 16 -17 23 -14 7 2 24 -4 36 -15 13 -11 33 -23 45
-26 11 -4 40 -15 63 -26 24 -11 64 -29 90 -41 27 -12 64 -30 84 -40 20 -10 46
-18 57 -18 10 0 31 -9 45 -20 14 -11 39 -20 56 -20 17 0 31 -4 31 -9 0 -10 40
-23 90 -28 57 -5 60 -6 60 -15 0 -5 15 -7 33 -3 25 5 29 4 17 -5 -12 -9 -8
-11 18 -6 17 3 32 2 32 -3 0 -8 53 -12 143 -12 20 0 37 -3 37 -7 0 -4 70 -7
155 -7 85 0 155 3 155 8 0 4 19 7 43 6 99 -2 157 3 151 13 -4 7 4 8 25 3 18
-4 31 -3 31 3 0 6 9 8 20 5 11 -3 20 -1 20 4 0 10 13 13 68 14 17 1 32 5 32 9
0 4 10 6 22 2 15 -4 19 -2 13 7 -5 10 -2 11 14 6 12 -4 21 -2 21 4 0 6 15 11
33 11 17 0 46 9 62 20 17 11 41 20 55 20 14 0 40 9 58 20 18 11 40 20 48 20 9
0 33 8 53 18 20 10 56 27 81 38 25 11 65 30 90 42 25 12 55 22 68 22 12 0 25
6 28 14 3 8 20 18 37 21 49 10 91 27 103 44 6 8 18 11 27 8 18 -7 82 16 92 33
4 7 19 8 36 5 16 -4 29 -2 29 3 0 14 47 32 85 32 19 0 35 5 35 10 0 6 11 8 26
4 20 -5 25 -4 19 6 -5 9 -2 10 14 5 11 -3 21 -2 21 3 0 5 6 9 13 10 38 5 54 9
64 15 7 4 24 5 38 1 15 -4 25 -2 25 5 0 6 7 8 15 5 8 -4 15 -1 15 4 0 10 26
14 98 12 17 0 32 5 32 11 0 7 11 8 30 4 20 -4 30 -3 30 5 0 9 11 10 35 6 20
-4 35 -3 35 3 0 9 30 11 208 14 45 1 82 5 82 9 0 10 204 11 213 2 7 -7 170
-15 260 -14 29 0 47 -4 47 -11 0 -7 9 -9 25 -5 17 4 31 1 42 -9 11 -12 19 -13
26 -6 6 6 20 11 32 11 16 0 17 -2 5 -10 -11 -7 -3 -10 30 -9 61 2 144 -11 151
-23 4 -6 16 -7 29 -3 15 5 20 3 16 -3 -4 -7 8 -11 31 -12 63 -1 73 -3 73 -13
0 -5 11 -6 25 -3 14 4 25 2 25 -3 0 -6 7 -7 17 -4 12 5 14 3 8 -7 -6 -10 0
-11 27 -6 26 5 39 2 48 -9 8 -9 21 -13 33 -9 14 4 17 3 12 -6 -6 -10 -1 -11
19 -6 15 4 26 2 26 -4 0 -5 17 -10 38 -10 32 0 85 -19 57 -20 -5 0 -2 -5 8
-11 10 -6 30 -8 46 -4 19 4 32 1 40 -9 7 -8 20 -12 28 -9 10 4 14 2 10 -4 -9
-14 15 -23 57 -23 19 0 45 -9 59 -20 18 -14 34 -19 51 -14 18 4 28 2 32 -9 3
-9 12 -13 21 -10 10 4 14 2 9 -5 -8 -13 25 -25 47 -16 9 3 28 -3 43 -15 14
-11 30 -18 34 -16 5 3 11 1 15 -5 3 -5 14 -10 23 -10 10 0 35 -9 56 -19 21
-11 44 -17 52 -14 7 3 28 -7 45 -22 23 -19 39 -25 56 -20 16 4 34 -2 57 -20
18 -14 43 -25 55 -25 13 0 34 -9 48 -20 14 -11 40 -20 59 -20 18 0 34 -5 36
-11 2 -5 11 -11 20 -13 10 -1 21 -5 24 -9 4 -4 20 -7 35 -7 18 0 32 -7 39 -20
6 -12 21 -20 36 -20 14 0 37 -9 51 -20 14 -11 36 -20 49 -20 13 0 38 -9 55
-19 17 -11 38 -17 46 -14 7 3 24 -6 38 -21 13 -14 34 -26 47 -26 13 0 41 -9
63 -19 22 -11 73 -36 113 -55 40 -20 78 -34 83 -30 6 3 20 -3 32 -14 29 -26
61 -42 85 -42 11 0 23 -7 26 -16 4 -10 12 -14 22 -10 9 4 28 -4 46 -19 16 -14
38 -25 47 -25 10 0 28 -9 41 -20 13 -11 31 -20 40 -20 9 0 27 -9 40 -20 13
-11 31 -20 40 -20 10 0 23 -7 30 -15 15 -18 106 -65 126 -65 8 0 24 -11 36
-25 12 -14 31 -25 43 -25 12 0 30 -9 40 -20 10 -11 26 -20 37 -20 10 0 18 -4
18 -9 0 -5 12 -14 28 -21 46 -20 110 -56 127 -74 9 -9 25 -16 35 -16 11 0 24
-9 30 -20 6 -11 18 -20 26 -20 9 0 27 -9 41 -20 14 -11 32 -20 39 -20 7 0 18
-9 24 -20 6 -11 16 -17 25 -13 9 3 23 -5 36 -21 11 -14 29 -26 40 -26 10 0 19
-5 19 -10 0 -6 12 -16 27 -23 15 -6 36 -20 45 -29 10 -10 22 -18 28 -18 5 0
20 -10 33 -22 45 -42 114 -88 131 -88 10 0 20 -9 23 -19 3 -11 17 -24 32 -30
14 -5 43 -24 63 -43 20 -18 46 -40 58 -48 12 -8 36 -25 53 -37 17 -13 35 -23
39 -23 4 0 27 -18 49 -40 23 -22 47 -40 55 -40 7 0 18 -9 24 -20 6 -11 17 -20
24 -20 8 0 21 -11 29 -24 19 -29 29 -38 111 -101 36 -27 65 -55 65 -62 1 -6
16 -21 34 -32 44 -29 87 -68 87 -80 0 -6 17 -22 38 -35 36 -23 168 -157 225
-230 16 -20 34 -36 40 -36 7 0 19 -15 28 -33 8 -17 25 -36 37 -42 12 -5 22
-15 22 -22 0 -7 9 -22 19 -32 11 -11 24 -29 31 -40 6 -12 17 -21 24 -21 8 0
13 -8 12 -17 0 -9 8 -22 19 -28 11 -6 21 -16 22 -23 2 -6 11 -21 20 -31 29
-32 40 -46 53 -70 14 -26 131 -193 141 -201 3 -3 16 -24 28 -47 11 -23 27 -46
35 -50 8 -4 15 -12 16 -18 1 -5 7 -9 12 -7 6 2 8 -4 5 -13 -9 -23 3 -45 30
-56 17 -6 23 -14 19 -25 -8 -20 10 -54 29 -54 7 0 13 -8 12 -18 -1 -24 79
-168 105 -186 11 -8 17 -19 14 -25 -10 -16 12 -51 32 -51 11 0 13 -3 6 -8 -15
-9 47 -128 65 -124 8 2 10 -4 6 -18 -4 -12 1 -31 13 -48 10 -15 22 -35 25 -44
4 -10 11 -18 17 -18 5 0 10 -6 10 -14 0 -8 16 -31 35 -52 19 -20 35 -41 35
-45 0 -24 -42 1 -111 64 -16 15 -36 27 -44 27 -9 0 -23 9 -32 20 -10 11 -26
20 -36 20 -9 0 -20 6 -23 14 -3 8 -22 22 -42 31 -20 9 -55 27 -77 40 -22 14
-47 28 -55 31 -8 4 -23 15 -33 25 -9 10 -24 16 -33 12 -9 -3 -21 3 -30 15 -8
11 -29 26 -48 32 -19 6 -37 17 -40 25 -3 8 -15 15 -26 15 -11 0 -23 6 -26 14
-3 8 -20 20 -37 27 -18 7 -36 19 -40 26 -4 7 -15 13 -23 13 -9 0 -27 9 -41 20
-14 11 -31 20 -38 20 -7 0 -24 11 -39 25 -15 14 -33 25 -40 25 -8 0 -16 7 -20
15 -3 8 -12 12 -21 9 -9 -4 -23 4 -36 20 -11 14 -29 26 -39 26 -11 0 -24 9
-30 20 -6 10 -16 17 -23 14 -7 -2 -26 9 -44 25 -17 15 -52 38 -76 50 -25 12
-48 28 -51 36 -3 8 -13 15 -23 15 -10 0 -28 11 -41 24 -12 14 -43 34 -67 46
-25 12 -48 26 -51 32 -4 5 -36 29 -73 53 -36 24 -77 52 -90 64 -13 12 -30 21
-37 21 -7 0 -25 12 -41 26 -42 38 -131 104 -142 104 -5 0 -11 7 -15 15 -3 8
-12 15 -19 15 -8 0 -22 9 -32 20 -10 11 -21 20 -25 20 -4 0 -25 16 -46 35 -21
19 -44 35 -51 35 -7 0 -17 9 -23 20 -6 11 -17 20 -24 20 -8 0 -21 11 -30 25
-9 14 -23 25 -31 25 -8 0 -15 3 -15 8 0 14 -186 181 -202 182 -4 0 -29 21 -55
46 -26 25 -56 50 -67 55 -12 5 -28 13 -36 18 -83 47 -115 56 -205 53 -49 -1
-63 -5 -79 -24 -10 -12 -25 -23 -33 -23 -31 0 -55 -49 -59 -123 -4 -63 -2 -72
16 -85 11 -8 18 -20 15 -28 -3 -8 13 -33 34 -56 21 -23 40 -45 42 -50 2 -4 24
-24 49 -44 25 -20 71 -61 103 -90 31 -30 67 -62 80 -71 12 -10 48 -38 79 -63
32 -25 64 -45 72 -45 8 0 16 -7 20 -15 3 -8 12 -15 20 -15 9 0 20 -9 26 -20 6
-11 19 -20 29 -20 11 0 21 -7 25 -15 3 -8 14 -15 25 -15 11 0 33 -13 49 -30
17 -16 37 -30 45 -30 8 0 20 -7 27 -14 6 -8 27 -20 45 -26 18 -6 36 -18 39
-26 4 -10 13 -13 25 -9 11 3 21 0 24 -7 3 -7 22 -21 43 -32 57 -27 67 -32 89
-43 11 -6 38 -19 60 -29 22 -9 56 -25 76 -36 20 -10 44 -18 52 -18 8 0 18 -7
21 -16 3 -9 13 -14 20 -11 16 6 66 -13 66 -25 0 -4 20 -13 45 -19 25 -6 45
-15 45 -20 0 -5 20 -14 45 -20 25 -6 45 -15 45 -19 0 -4 15 -13 33 -20 37 -14
106 -45 158 -72 20 -10 44 -18 52 -18 8 0 17 -6 20 -14 3 -8 21 -17 39 -21 18
-4 41 -14 50 -22 9 -8 21 -12 27 -9 5 4 22 -5 37 -19 15 -14 34 -23 41 -21 7
3 25 -6 40 -20 15 -14 33 -22 43 -19 11 3 20 -1 24 -10 3 -8 15 -15 26 -15 11
0 20 -4 20 -10 0 -5 26 -22 58 -36 31 -15 61 -33 65 -41 4 -7 16 -13 25 -13
10 0 25 -9 35 -20 9 -11 23 -17 32 -14 8 4 17 -1 21 -10 3 -9 12 -16 19 -16 7
0 15 -7 19 -15 3 -8 12 -15 19 -15 8 0 22 -9 32 -20 10 -11 23 -20 30 -20 7 0
20 -9 29 -19 10 -11 24 -17 31 -15 7 3 18 -4 25 -15 6 -12 17 -21 24 -21 8 0
16 -7 20 -15 3 -8 10 -15 16 -15 13 0 249 -235 270 -269 8 -13 22 -32 30 -40
8 -9 23 -29 33 -44 10 -15 22 -25 27 -22 5 3 8 -3 8 -12 -1 -10 17 -49 39 -88
22 -38 43 -80 47 -92 4 -11 13 -27 21 -33 8 -7 15 -23 15 -37 0 -32 17 -63 35
-63 10 0 12 -9 8 -33 -4 -25 1 -38 22 -61 21 -23 24 -31 13 -43 -10 -12 -8
-18 11 -33 18 -13 20 -19 10 -22 -11 -4 -11 -9 4 -25 9 -11 17 -31 17 -46 0
-14 7 -32 15 -40 8 -8 11 -18 7 -22 -4 -3 1 -11 11 -17 14 -7 17 -17 12 -38
-4 -18 -1 -33 9 -43 8 -8 12 -18 8 -22 -4 -3 1 -11 11 -17 13 -7 15 -13 8 -22
-8 -9 -8 -23 0 -45 9 -25 14 -29 21 -19 5 8 6 3 2 -14 -5 -21 -2 -28 9 -28 11
0 15 -13 15 -47 1 -26 6 -49 11 -51 5 -2 7 -10 4 -18 -3 -8 3 -21 13 -29 15
-11 17 -18 8 -32 -11 -20 -7 -56 6 -48 4 3 6 -5 2 -17 -4 -15 -2 -19 7 -14 8
5 11 3 10 -5 -1 -8 4 -26 11 -42 9 -19 10 -31 3 -38 -7 -7 -7 -21 0 -45 7 -24
13 -30 19 -22 6 10 8 8 8 -4 0 -10 -4 -18 -10 -18 -13 0 0 -33 18 -44 10 -6
12 -18 7 -42 -3 -21 -2 -34 5 -34 14 0 13 -27 -1 -32 -8 -3 -6 -10 5 -21 10
-9 14 -21 11 -27 -3 -5 -1 -10 5 -10 7 0 9 -8 5 -19 -3 -11 -1 -22 5 -26 7 -5
9 -20 6 -40 -4 -19 -2 -36 4 -40 6 -4 8 -24 4 -48 -4 -33 -3 -39 6 -27 9 12
10 5 5 -27 -5 -30 -3 -43 5 -43 7 0 9 -8 5 -19 -3 -11 -1 -22 5 -26 8 -5 9
-28 5 -71 -6 -48 -4 -64 5 -64 10 0 11 -17 6 -68 -4 -46 -3 -62 4 -52 7 11 10
-2 10 -46 0 -33 -5 -65 -11 -71 -7 -7 -5 -15 6 -27 14 -13 17 -39 17 -144 0
-183 2 -235 11 -249 4 -7 5 -24 1 -38 -4 -15 -2 -25 5 -25 7 0 9 -13 5 -39 -5
-30 -3 -39 11 -45 14 -5 16 -13 11 -41 -4 -19 -3 -35 2 -35 5 0 7 -11 5 -24
-3 -15 2 -30 15 -42 13 -13 18 -30 16 -53 -3 -42 11 -82 28 -79 9 2 12 -7 10
-30 -2 -20 4 -42 17 -61 12 -16 19 -35 16 -43 -7 -18 33 -80 48 -75 7 2 12 25
13 58 0 30 4 62 8 71 9 21 -1 41 -16 32 -8 -5 -9 12 -4 55 5 44 4 61 -5 61 -8
0 -10 16 -5 55 4 32 2 55 -3 55 -13 0 -19 354 -12 729 2 129 6 167 17 179 11
10 12 18 5 25 -16 16 -13 86 4 104 10 10 12 19 6 27 -11 14 -19 96 -9 96 5 0
8 -5 8 -11 0 -5 5 -7 10 -4 13 8 13 45 0 45 -7 0 -8 26 -4 72 4 40 6 85 6 101
-1 15 3 27 9 27 6 0 8 17 3 45 -4 31 -3 45 5 45 7 0 9 15 6 42 -3 28 -2 36 3
24 15 -34 24 0 12 44 -8 29 -8 46 0 60 6 12 8 30 5 40 -4 12 -2 20 5 20 8 0
10 10 7 27 -3 16 1 32 9 41 11 11 12 17 3 28 -8 10 -7 17 5 30 12 12 14 20 6
29 -7 9 -8 28 -4 52 5 21 7 46 5 56 -1 9 3 17 9 17 6 0 8 10 4 25 -4 16 -2 25
5 25 7 0 9 10 5 26 -5 18 -3 25 4 20 7 -4 11 10 10 45 -1 32 3 54 12 59 8 5
11 17 7 30 -4 14 0 29 10 38 10 11 12 17 4 20 -13 4 -15 32 -2 32 8 0 13 37
12 98 -1 12 4 22 10 22 5 0 7 5 4 10 -3 6 1 18 10 27 13 13 14 18 3 24 -9 6
-10 11 -2 17 6 4 11 22 11 40 0 19 4 37 10 40 19 12 34 85 20 94 -9 6 -9 10 2
17 7 5 11 17 7 27 -3 11 1 32 9 48 9 16 13 37 10 46 -3 9 4 27 14 39 16 18 18
27 9 40 -9 14 -6 25 13 51 17 23 20 34 12 37 -18 6 -16 16 6 41 11 14 16 31
13 47 -2 14 1 32 8 40 6 8 9 22 6 33 -4 11 2 28 14 42 14 16 17 27 10 34 -6 6
-2 21 11 43 13 20 19 44 16 58 -2 14 0 25 6 25 5 0 7 12 4 28 -3 15 0 34 7 42
24 29 36 68 23 74 -9 3 -8 7 2 14 7 5 11 15 7 21 -4 6 -1 21 6 33 7 13 11 27
10 31 -1 4 4 15 13 23 9 9 15 33 15 60 0 24 4 44 8 44 14 0 31 58 18 64 -8 3
-7 7 2 14 7 5 10 16 6 27 -5 12 -1 22 11 31 10 8 15 20 11 29 -3 9 -2 14 3 11
5 -3 12 1 15 10 10 25 7 72 -4 79 -17 10 -60 -23 -60 -45 0 -11 -5 -20 -10
-20 -6 0 -15 -11 -20 -25 -5 -14 -14 -25 -20 -25 -14 0 -64 -81 -62 -102 0
-10 -6 -18 -13 -18 -8 0 -27 -24 -41 -52 -15 -29 -35 -64 -45 -77 -10 -12 -21
-38 -25 -57 -3 -19 -10 -34 -14 -34 -12 0 -60 -100 -60 -126 0 -13 -4 -24 -10
-24 -13 0 -42 -58 -35 -70 3 -4 -4 -24 -16 -44 -11 -19 -19 -46 -18 -58 2 -14
-6 -33 -20 -47 -19 -19 -22 -31 -18 -62 4 -27 1 -41 -9 -47 -16 -9 -47 -92
-34 -92 17 0 11 -39 -7 -49 -11 -6 -17 -22 -17 -45 0 -20 -4 -36 -9 -36 -5 0
-6 -17 -2 -39 5 -31 3 -40 -10 -45 -13 -4 -15 -13 -11 -32 5 -18 3 -24 -5 -18
-9 5 -10 -3 -5 -29 4 -22 2 -38 -4 -42 -6 -4 -8 -15 -5 -25 3 -11 -1 -33 -10
-50 -10 -20 -14 -42 -10 -64 4 -19 2 -36 -3 -40 -6 -3 -8 -15 -5 -26 3 -12 0
-20 -7 -20 -9 0 -10 -14 -5 -49 4 -32 3 -51 -5 -56 -6 -4 -8 -15 -5 -26 4 -11
0 -26 -9 -35 -13 -12 -13 -19 -3 -35 10 -16 9 -21 -3 -29 -12 -8 -13 -11 -1
-19 8 -5 9 -11 3 -15 -6 -4 -8 -22 -5 -41 4 -23 2 -35 -6 -35 -8 0 -10 -23 -5
-79 3 -46 2 -81 -4 -85 -6 -3 -5 -21 2 -46 7 -29 7 -46 0 -58 -15 -24 -29 -16
-27 15 1 17 -6 32 -22 45 -20 15 -24 25 -19 45 5 19 2 30 -11 40 -11 7 -15 13
-11 13 5 0 3 6 -3 14 -7 8 -11 20 -10 28 3 28 -2 47 -17 62 -8 9 -12 20 -9 26
3 5 2 10 -3 10 -14 0 -22 53 -11 66 6 8 5 17 -3 25 -8 8 -14 34 -15 58 0 24
-5 46 -10 50 -11 7 -14 25 -14 96 0 38 -2 46 -10 35 -8 -11 -9 -7 -5 18 3 20
1 32 -5 32 -7 0 -9 10 -5 25 4 14 2 25 -3 25 -4 0 -9 23 -10 52 0 29 -6 56
-13 61 -9 6 -10 10 -2 13 9 4 9 13 1 34 -6 17 -14 30 -18 30 -4 0 -10 20 -14
45 -4 29 -13 50 -25 58 -14 8 -18 18 -13 36 4 16 1 28 -11 37 -10 7 -17 15
-16 18 5 17 -47 141 -68 163 -12 14 -21 30 -19 37 2 6 -6 32 -19 58 -13 26
-24 54 -24 62 0 8 -7 19 -16 24 -9 5 -15 11 -14 13 4 10 -14 66 -28 89 -9 14
-18 34 -19 45 -2 10 -12 28 -22 40 -10 11 -16 26 -14 32 3 7 -2 16 -11 19 -9
3 -13 10 -10 15 3 6 0 17 -7 25 -7 9 -15 25 -16 37 -4 26 -30 67 -43 67 -5 0
-7 7 -4 15 4 8 -1 32 -10 53 -25 56 -33 67 -45 65 -6 -2 -8 3 -5 10 2 7 -2 27
-11 43 -8 16 -15 34 -15 41 0 7 -8 16 -17 22 -10 5 -15 13 -11 17 9 8 -19 64
-32 64 -6 0 -10 14 -10 32 0 33 -29 108 -42 108 -4 0 -5 6 -2 14 3 8 -4 24
-16 36 -11 11 -18 26 -14 31 9 15 -37 110 -49 102 -5 -3 -6 3 -2 17 5 15 1 28
-13 43 -11 13 -20 37 -20 57 -1 19 -8 39 -17 46 -8 6 -13 18 -9 27 3 8 1 18
-5 22 -6 3 -11 18 -11 33 0 30 -19 69 -20 42 -1 -8 -5 -5 -11 8 -5 13 -8 40
-7 60 1 40 -20 109 -40 130 -8 9 -10 26 -6 48 4 24 1 42 -10 59 -9 14 -14 30
-11 35 3 5 1 20 -6 32 -7 12 -12 35 -11 50 0 15 -4 28 -9 28 -7 0 -8 12 -4 30
4 20 3 30 -5 30 -8 0 -10 12 -5 40 4 25 3 40 -3 40 -7 0 -10 62 -10 170 0 105
4 170 10 170 6 0 8 18 4 48 -5 36 -4 43 4 32 9 -12 10 -8 6 18 -3 17 -2 32 3
32 5 0 11 25 13 56 3 33 11 62 19 68 13 10 50 94 50 113 0 5 7 12 15 16 8 4
14 16 14 25 0 9 7 25 15 35 7 11 11 25 9 32 -3 7 4 15 16 18 13 3 22 16 26 36
4 17 13 31 20 31 8 0 14 4 14 9 0 5 36 45 80 90 44 44 80 85 80 91 0 5 8 10
18 10 10 0 25 9 35 20 9 11 23 20 32 20 8 0 19 9 25 20 6 11 19 20 29 20 10 0
30 9 44 20 14 11 32 20 40 20 9 0 19 5 22 11 4 6 13 8 21 5 7 -3 20 1 28 9 8
8 26 15 39 15 14 0 33 3 42 6 13 6 14 9 3 16 -9 7 -5 8 13 4 18 -4 31 0 40 10
8 9 21 13 35 10 13 -4 26 -1 29 4 4 6 22 8 43 5 29 -5 34 -4 22 5 -12 9 -7 10
23 5 21 -3 37 -2 37 4 0 8 112 15 222 12 26 0 50 4 53 9 4 6 21 8 41 4 22 -4
34 -2 34 5 0 6 6 8 14 5 8 -3 26 2 40 11 14 9 30 14 35 10 13 -7 71 22 71 36
0 6 8 8 19 4 12 -4 26 3 42 20 13 13 30 25 37 25 7 0 15 7 18 15 4 8 11 15 18
15 16 0 133 118 150 152 13 24 12 28 -4 43 -10 9 -24 14 -29 10 -6 -3 -36 6
-67 20 -31 15 -62 24 -70 21 -8 -3 -14 -1 -14 5 0 7 -10 9 -25 5 -15 -4 -37 0
-54 9 -18 9 -42 13 -63 9 -26 -4 -30 -3 -18 6 12 9 6 10 -27 5 -23 -4 -48 -3
-55 1 -17 11 -308 11 -308 1 0 -5 -19 -6 -41 -2 -31 5 -40 4 -34 -5 5 -9 2
-10 -13 -6 -13 4 -31 1 -45 -9 -15 -10 -34 -13 -54 -9 -23 4 -36 0 -61 -21
-18 -15 -39 -25 -47 -22 -7 3 -30 -5 -50 -19 -20 -13 -42 -24 -50 -24 -7 0
-20 -6 -27 -13 -7 -8 -26 -17 -41 -21 -15 -3 -36 -15 -46 -25 -9 -9 -25 -20
-34 -24 -9 -3 -17 -11 -17 -17 0 -5 -5 -10 -11 -10 -6 0 -25 -11 -43 -25 -45
-36 -199 -187 -211 -207 -5 -9 -26 -34 -46 -55 -43 -47 -74 -93 -63 -93 5 0
-2 -6 -16 -13 -17 -9 -24 -20 -23 -35 2 -12 -3 -22 -10 -22 -16 0 -63 -77 -59
-97 2 -9 -1 -12 -8 -8 -6 4 -21 -16 -36 -49 -14 -31 -30 -58 -35 -61 -5 -4 -7
-16 -4 -28 6 -27 -8 -52 -25 -42 -7 5 -11 37 -11 94 0 47 1 109 1 136 0 38 -2
47 -11 35 -8 -11 -9 -3 -4 33 4 28 2 47 -3 47 -6 0 -8 17 -5 40 4 25 2 40 -5
40 -6 0 -11 15 -11 33 0 53 -6 105 -14 113 -11 11 -8 59 4 71 7 7 6 15 -5 26
-12 12 -14 27 -10 61 5 34 3 46 -6 46 -10 0 -11 16 -7 65 4 44 3 65 -5 65 -7
0 -9 18 -5 54 3 34 1 56 -5 58 -13 5 -11 462 2 466 6 2 7 21 4 43 -5 27 -3 39
6 39 9 0 10 14 5 50 -5 33 -3 50 4 50 6 0 8 12 5 30 -5 20 -1 34 11 47 11 11
14 18 6 21 -6 2 -11 13 -11 25 0 18 2 19 10 7 7 -11 10 -6 10 20 1 64 5 85 24
113 12 18 17 37 13 56 -3 15 -1 33 5 39 18 18 36 81 30 104 -3 13 -1 19 5 15
13 -8 43 62 43 98 0 14 4 25 9 25 5 0 22 26 36 58 15 31 35 74 46 95 11 21 17
43 14 48 -4 5 -1 9 4 9 6 0 11 6 11 13 0 8 9 22 20 32 11 10 41 54 67 99 26
45 56 88 66 96 31 26 12 46 -44 48 -34 1 -47 -3 -43 -10 5 -7 2 -8 -6 -3 -8 5
-18 1 -26 -10 -7 -9 -19 -15 -26 -12 -16 5 -68 -20 -68 -33 0 -6 -7 -10 -15
-10 -9 0 -18 -7 -21 -15 -4 -8 -20 -22 -38 -30 -28 -14 -132 -151 -125 -165 2
-3 -9 -18 -25 -33 -16 -16 -25 -34 -22 -42 3 -9 -1 -15 -9 -15 -14 0 -20 -12
-16 -33 1 -5 -3 -6 -8 -2 -6 3 -15 -4 -21 -15 -6 -11 -15 -18 -20 -15 -5 3
-14 -4 -20 -15 -16 -29 -30 -24 -30 11 0 23 -5 32 -21 36 -13 4 -18 11 -14 20
6 17 -31 83 -46 83 -6 0 -7 5 -4 10 7 12 -32 80 -46 80 -5 0 -8 3 -8 8 4 21
-3 32 -18 33 -10 0 -13 3 -6 5 8 4 2 24 -20 66 -18 33 -40 75 -49 93 -10 18
-27 40 -39 48 -12 9 -18 20 -15 26 10 15 -83 171 -101 171 -10 0 -13 6 -9 16
8 21 -19 64 -39 64 -9 0 -15 9 -15 23 0 26 -109 201 -156 251 -6 6 -17 23 -25
38 -15 28 -55 76 -130 158 -25 27 -44 52 -41 55 3 3 -11 22 -31 43 -20 20 -68
69 -106 107 -77 79 -261 235 -293 250 -11 5 -33 22 -49 37 -32 32 -51 35 -74
11z"/>
</g>
</svg>
