<?xml version="1.0" standalone="no"?>
<!DOCTYPE svg PUBLIC "-//W3C//DTD SVG 20010904//EN"
 "http://www.w3.org/TR/2001/REC-SVG-20010904/DTD/svg10.dtd">
<svg version="1.0" xmlns="http://www.w3.org/2000/svg"
 width="1999.000000pt" height="2000.000000pt" viewBox="0 0 1999.000000 2000.000000"
 preserveAspectRatio="xMidYMid meet">
<metadata>
Created by potrace 1.16, written by Peter Selinger 2001-2019
</metadata>
<g transform="translate(0.000000,2000.000000) scale(0.100000,-0.100000)"
fill="#000000" stroke="none">
<path d="M10720 15851 c0 -5 -9 -7 -20 -4 -12 3 -22 -1 -26 -11 -3 -9 -15 -16
-25 -16 -20 0 -127 -99 -131 -122 -2 -7 -12 -17 -23 -23 -11 -6 -20 -17 -20
-25 0 -8 -12 -23 -27 -33 -16 -11 -28 -25 -28 -32 0 -7 -11 -22 -24 -32 -14
-10 -26 -25 -28 -33 -2 -8 -12 -19 -23 -25 -11 -6 -19 -19 -19 -28 1 -9 -4
-17 -10 -17 -13 0 -56 -53 -56 -69 0 -5 -7 -11 -15 -15 -8 -3 -15 -10 -15 -15
0 -5 -13 -24 -29 -41 -16 -18 -35 -44 -42 -58 -8 -15 -20 -31 -26 -35 -7 -4
-13 -12 -13 -17 0 -5 -10 -20 -22 -34 -13 -13 -32 -41 -43 -63 -10 -21 -26
-46 -34 -56 -8 -9 -19 -26 -25 -36 -6 -10 -37 -61 -69 -113 -37 -61 -55 -101
-51 -111 4 -12 1 -17 -10 -17 -10 0 -36 -42 -73 -117 -32 -65 -58 -122 -58
-128 0 -5 -6 -16 -13 -24 -7 -7 -11 -19 -8 -26 3 -8 -2 -16 -10 -19 -8 -3 -14
-14 -14 -25 0 -11 -11 -37 -25 -57 -14 -20 -26 -45 -26 -55 -1 -11 -2 -25 -3
-31 -1 -7 -7 -17 -13 -21 -7 -4 -13 -24 -13 -42 0 -19 -4 -35 -8 -35 -14 0
-34 -52 -37 -98 -3 -27 -11 -49 -21 -57 -12 -8 -18 -25 -17 -49 1 -20 -3 -36
-9 -36 -5 0 -7 -12 -3 -29 5 -23 1 -34 -16 -50 -16 -15 -20 -24 -12 -32 12
-12 5 -59 -9 -59 -6 0 -8 -9 -5 -19 3 -11 -1 -22 -8 -25 -16 -6 -26 -58 -13
-73 6 -8 6 -18 -1 -30 -5 -10 -9 -25 -9 -33 3 -39 -3 -71 -11 -66 -5 3 -12 -2
-16 -11 -3 -10 -1 -19 4 -21 6 -2 11 -13 11 -25 0 -16 -3 -18 -9 -9 -7 11 -9
11 -14 -1 -3 -8 -1 -19 5 -25 6 -6 6 -22 -1 -48 -6 -21 -8 -48 -5 -61 4 -15 2
-23 -6 -23 -9 0 -10 -15 -5 -56 6 -47 4 -58 -12 -69 -14 -11 -16 -16 -5 -26
15 -16 17 -225 2 -234 -13 -8 -13 -48 0 -61 12 -12 15 -545 2 -553 -5 -3 -9
-24 -9 -46 -2 -85 -6 -125 -13 -125 -14 0 -19 -42 -7 -62 9 -16 9 -22 0 -25
-8 -3 -11 -14 -7 -29 4 -15 2 -24 -5 -24 -7 0 -11 -20 -11 -50 0 -38 -5 -54
-20 -67 -11 -10 -20 -28 -20 -42 0 -13 -7 -33 -17 -43 -19 -21 -40 -56 -49
-80 -5 -15 -19 -18 -79 -18 -64 0 -75 3 -97 25 -15 15 -32 23 -41 19 -10 -3
-20 2 -26 15 -10 18 -40 39 -81 57 -8 4 -37 33 -65 66 -27 32 -65 74 -82 92
-18 18 -33 36 -33 40 0 4 -16 23 -35 43 -19 20 -35 40 -35 45 0 12 -71 108
-80 108 -5 0 -12 10 -15 21 -11 35 -68 109 -83 109 -9 0 -12 6 -8 16 4 10 -1
25 -10 36 -21 22 -39 53 -55 91 -6 15 -17 27 -25 27 -8 0 -14 6 -14 13 0 27
-65 147 -77 143 -17 -7 -29 14 -13 24 10 6 6 16 -14 42 -14 19 -24 37 -21 40
10 10 -18 59 -31 54 -16 -6 -26 19 -18 49 4 18 -1 30 -20 48 -17 16 -23 30
-20 44 4 14 -2 29 -16 43 -13 13 -19 28 -15 40 4 13 -1 22 -16 30 -17 10 -19
14 -8 21 11 8 10 13 -9 29 -17 14 -22 25 -17 41 7 22 -11 68 -32 82 -16 10
-17 34 -2 39 12 4 -23 92 -41 103 -6 4 -8 16 -4 27 4 13 1 24 -7 29 -12 8 -11
11 1 19 13 9 13 12 -2 24 -10 7 -15 16 -12 19 4 3 0 23 -9 44 -8 21 -13 50
-10 65 6 33 -9 61 -50 92 -41 31 -127 45 -148 23 -8 -8 -24 -17 -36 -21 -26
-8 -56 -52 -55 -82 0 -13 -6 -25 -14 -28 -25 -10 -118 -171 -108 -187 3 -5 -2
-9 -10 -9 -20 0 -48 -43 -41 -62 4 -10 -1 -17 -15 -21 -13 -3 -22 -16 -26 -36
-4 -17 -11 -31 -16 -31 -5 0 -15 -15 -23 -34 -8 -19 -19 -37 -25 -41 -5 -3
-10 -13 -10 -21 0 -8 -10 -28 -21 -44 -12 -16 -19 -35 -16 -42 3 -8 -3 -19
-12 -25 -20 -13 -151 -265 -151 -292 0 -10 -9 -26 -21 -37 -12 -10 -18 -26
-15 -36 2 -11 -6 -29 -21 -44 -17 -17 -23 -32 -20 -46 4 -15 -2 -27 -19 -40
-15 -12 -24 -30 -24 -48 0 -15 -6 -30 -14 -33 -7 -3 -16 -21 -20 -41 -4 -19
-18 -55 -32 -81 -21 -36 -24 -48 -14 -60 10 -12 7 -20 -13 -45 -21 -25 -25
-38 -21 -75 3 -28 0 -45 -6 -45 -16 0 -45 -73 -31 -78 14 -5 14 -32 0 -32 -7
0 -8 -14 -4 -39 4 -24 2 -41 -4 -46 -6 -3 -8 -17 -5 -31 4 -15 2 -24 -6 -24
-8 0 -9 -10 -5 -31 5 -20 3 -29 -3 -25 -5 3 -12 -4 -15 -15 -4 -15 -2 -19 9
-15 14 6 19 -5 7 -17 -4 -4 -5 -32 -4 -62 1 -30 -1 -55 -6 -55 -5 0 -9 -40 -8
-90 0 -49 3 -90 8 -90 13 0 8 -145 -5 -159 -11 -10 -9 -15 5 -26 16 -11 18
-21 12 -54 -4 -25 -3 -41 3 -41 10 0 13 -22 13 -107 0 -29 4 -53 9 -53 13 0
13 -37 0 -45 -5 -3 -6 -13 -3 -21 5 -13 7 -13 14 -2 6 9 9 7 9 -9 0 -12 -5
-23 -11 -25 -5 -2 -7 -11 -4 -21 4 -9 10 -15 14 -12 9 5 13 -16 12 -72 0 -24
5 -43 10 -43 6 0 8 -9 4 -20 -4 -11 -2 -20 4 -20 6 0 11 -7 11 -15 0 -8 -4
-15 -10 -15 -16 0 -11 -19 10 -40 16 -16 19 -28 14 -55 -4 -23 -2 -35 5 -35
14 0 15 -27 0 -32 -5 -2 -7 -11 -4 -21 4 -9 12 -14 18 -10 7 4 8 0 3 -12 -3
-10 0 -27 7 -39 7 -12 14 -43 15 -71 1 -27 6 -51 12 -53 5 -2 7 -15 4 -28 -4
-15 -1 -31 8 -42 9 -10 16 -39 16 -72 1 -30 6 -56 11 -58 14 -5 14 -29 0 -34
-5 -2 -7 -11 -4 -21 4 -9 10 -15 14 -12 10 5 13 -17 12 -77 0 -27 4 -48 9 -48
14 0 12 -34 -2 -49 -11 -10 -9 -15 5 -26 14 -10 17 -21 12 -49 -5 -25 -4 -36
5 -36 8 0 9 -10 5 -30 -4 -17 -2 -36 4 -43 6 -8 8 -95 6 -247 -2 -129 -5 -252
-5 -272 0 -21 -5 -38 -11 -38 -6 0 -7 -14 -3 -35 4 -24 3 -35 -6 -35 -8 0 -9
-10 -5 -30 4 -20 3 -30 -5 -30 -8 0 -10 -12 -5 -39 5 -29 2 -42 -11 -55 -21
-21 -37 -86 -20 -86 7 0 6 -4 -3 -9 -9 -6 -11 -18 -6 -39 5 -23 1 -35 -15 -50
-12 -11 -22 -30 -24 -44 -1 -13 -5 -29 -9 -35 -4 -6 -3 -14 3 -18 16 -10 12
-22 -11 -28 -15 -4 -20 -11 -16 -22 4 -9 -7 -35 -28 -64 -22 -31 -33 -55 -29
-65 4 -9 2 -16 -2 -14 -5 2 -28 -16 -50 -39 -23 -24 -50 -43 -59 -43 -10 0
-23 -8 -30 -17 -20 -27 -143 -31 -170 -6 -31 28 -73 53 -89 53 -9 0 -13 6 -10
13 3 8 -9 29 -26 46 -16 18 -30 39 -30 46 0 6 -10 23 -22 37 -13 13 -29 35
-36 49 -8 14 -29 43 -48 64 -19 21 -34 43 -34 48 0 21 -104 177 -117 177 -10
0 -13 6 -9 16 4 10 -3 29 -17 48 -13 17 -27 41 -31 54 -4 12 -16 27 -27 33
-13 6 -18 17 -14 28 5 18 -29 73 -43 68 -4 -1 -9 3 -10 8 -9 26 -27 33 -86 33
-75 0 -104 -18 -108 -66 -1 -19 -5 -35 -9 -38 -4 -2 -5 -30 -3 -63 3 -45 1
-60 -11 -64 -9 -4 -15 -20 -15 -44 -1 -69 -1 -73 -12 -73 -6 0 -8 -12 -4 -30
3 -19 1 -30 -5 -30 -7 0 -9 -12 -5 -34 5 -23 3 -36 -6 -39 -10 -4 -10 -7 1
-15 7 -5 9 -12 4 -15 -10 -6 -8 -745 2 -755 9 -9 5 -156 -4 -171 -13 -20 -2
-48 11 -29 6 8 7 -11 3 -49 -5 -42 -3 -63 4 -63 10 0 11 -12 12 -92 0 -21 5
-38 11 -38 6 0 7 -12 3 -30 -4 -18 -2 -36 4 -44 6 -8 14 -38 17 -67 3 -30 11
-57 18 -61 8 -6 7 -10 -3 -17 -10 -6 -11 -13 -2 -29 6 -11 11 -30 11 -41 0
-10 4 -21 10 -23 5 -1 12 -23 14 -48 3 -26 11 -49 22 -57 13 -9 15 -21 11 -48
-4 -24 -2 -38 6 -41 7 -2 13 -18 14 -36 1 -17 7 -36 13 -42 5 -5 10 -19 10
-30 0 -12 9 -36 20 -54 11 -18 20 -39 20 -46 0 -8 7 -27 15 -42 8 -16 15 -37
15 -47 0 -10 7 -20 15 -23 8 -4 13 -10 10 -14 -7 -11 34 -100 45 -100 5 0 7
-6 4 -14 -3 -7 1 -20 8 -27 7 -8 13 -18 14 -24 1 -21 24 -65 34 -65 6 0 9 -4
5 -9 -3 -6 13 -45 36 -88 23 -43 51 -95 61 -116 11 -20 24 -40 29 -43 5 -3 16
-21 24 -40 8 -19 21 -34 31 -34 10 0 14 -5 10 -15 -7 -19 91 -175 111 -175 8
0 11 -5 8 -11 -8 -12 40 -89 55 -89 6 0 10 -5 10 -11 0 -14 101 -149 112 -149
4 0 8 -6 8 -14 0 -8 12 -22 28 -33 15 -10 27 -25 27 -33 0 -8 10 -20 23 -26
13 -6 22 -15 20 -20 -1 -5 12 -24 30 -44 104 -111 141 -147 155 -153 9 -3 14
-12 12 -19 -3 -8 24 -39 62 -73 37 -33 88 -81 114 -108 26 -26 52 -47 57 -47
6 0 26 -18 43 -40 18 -22 37 -39 42 -37 6 2 28 -15 51 -38 23 -23 57 -51 77
-63 19 -12 44 -30 54 -42 10 -11 26 -20 35 -20 10 0 20 -6 23 -14 7 -17 152
-117 159 -110 3 2 13 -5 23 -16 10 -11 26 -20 35 -20 10 0 24 -9 31 -21 8 -11
22 -21 31 -23 9 -1 26 -10 36 -19 11 -10 30 -20 43 -22 12 -3 27 -11 31 -20 5
-8 16 -15 25 -15 9 0 21 -7 27 -15 6 -9 29 -18 51 -22 22 -3 43 -11 47 -17 4
-6 13 -12 20 -12 7 -1 18 -2 24 -3 6 0 23 -12 38 -26 15 -14 39 -25 53 -25 15
0 35 -8 45 -17 10 -9 33 -16 51 -16 19 0 41 -8 55 -20 16 -15 35 -21 62 -20
22 1 40 -2 40 -8 0 -13 46 -30 95 -35 22 -3 45 -5 52 -6 7 -1 10 -5 8 -9 -3
-4 2 -9 10 -13 8 -3 15 0 15 6 0 7 5 6 15 -2 8 -6 19 -9 25 -5 5 3 10 1 10 -6
0 -8 10 -9 31 -5 19 3 42 0 60 -10 17 -8 39 -12 51 -8 13 4 18 2 14 -4 -8 -14
19 -23 32 -10 6 6 18 7 29 2 18 -8 66 -13 131 -15 17 0 32 -5 32 -10 0 -5 17
-6 40 -3 27 4 40 3 40 -5 0 -7 19 -9 60 -5 33 3 60 1 60 -3 0 -4 155 -8 345
-8 190 0 345 3 345 8 0 10 142 9 159 -2 20 -13 48 -2 29 11 -8 6 27 8 95 5 59
-2 107 0 107 5 0 5 42 9 93 9 182 1 265 4 273 11 10 11 56 10 73 -1 8 -5 21
-7 28 -4 12 5 12 7 1 15 -8 6 0 7 25 3 21 -3 37 -2 37 4 0 9 17 11 118 11 30
0 41 3 36 11 -5 9 1 10 19 5 16 -4 27 -1 30 7 3 9 7 9 17 0 13 -12 43 -7 35 6
-5 9 16 13 68 12 20 0 37 4 37 9 0 5 6 7 14 4 7 -3 31 3 52 12 22 10 55 18 74
19 19 1 51 9 70 19 19 10 50 20 69 21 19 2 47 13 63 25 16 12 36 19 43 16 20
-7 72 13 79 30 4 12 14 14 36 9 24 -5 35 -1 56 20 16 16 32 24 43 20 10 -3 29
4 44 15 14 11 35 20 47 20 11 0 31 10 44 23 15 15 35 24 56 24 18 0 38 6 44
15 6 8 23 18 37 21 15 4 34 18 43 32 10 16 26 25 41 25 14 0 25 5 25 10 0 6 9
10 20 10 11 0 28 9 37 20 10 11 25 20 34 20 9 0 28 9 42 20 14 11 30 20 36 20
6 0 16 9 23 20 7 11 20 20 29 20 9 0 24 9 34 20 10 11 21 17 26 15 4 -3 16 6
27 20 11 14 27 25 36 25 8 0 23 11 32 25 9 14 25 25 35 25 11 0 22 7 25 15 4
8 14 15 25 15 10 0 22 6 26 13 4 7 37 36 73 65 92 74 224 197 361 337 149 151
159 163 159 178 0 7 16 23 35 36 19 13 35 27 35 31 0 4 14 22 31 39 17 18 28
38 26 45 -3 8 5 18 19 25 13 6 24 17 24 26 0 8 4 15 9 15 14 0 63 78 56 89 -3
6 0 11 8 11 19 0 77 90 77 118 0 12 6 22 14 22 19 0 67 84 60 104 -4 10 -1 16
9 16 17 0 81 106 72 120 -4 6 -2 10 4 10 12 0 45 59 38 67 -3 2 4 14 14 24 11
11 19 30 17 42 -2 12 7 31 19 43 12 12 27 40 33 62 6 23 15 44 20 47 6 3 10
14 10 23 0 9 11 39 25 66 13 27 22 53 19 58 -3 5 0 15 6 23 6 8 9 18 6 24 -3
5 1 12 10 15 10 4 13 13 9 26 -4 11 -2 20 4 20 6 0 11 7 11 16 0 8 9 35 20 59
11 25 21 64 23 87 1 24 9 49 17 55 13 11 13 14 0 24 -11 8 -12 12 -2 16 6 2
12 15 12 27 0 12 5 27 12 34 6 6 11 32 12 57 1 25 5 45 9 45 5 0 6 13 2 29 -4
17 -2 32 5 36 7 4 9 19 5 36 -4 19 -3 29 5 29 7 0 9 8 5 21 -5 14 -2 25 6 30
9 5 15 31 17 71 1 35 4 92 7 128 3 36 5 86 5 113 0 26 3 47 7 47 4 0 6 101 5
225 -3 174 -1 230 9 242 11 13 10 17 -4 28 -11 8 -17 26 -16 51 0 37 -9 167
-15 209 -1 11 -6 28 -11 39 -5 12 -3 26 5 39 10 17 10 22 -3 32 -10 7 -13 20
-10 37 3 15 -2 41 -12 60 -14 28 -16 59 -13 200 3 167 3 167 -31 202 -30 31
-38 34 -92 34 -48 0 -61 -4 -69 -19 -6 -10 -17 -16 -24 -13 -16 6 -52 -59 -41
-75 3 -6 1 -11 -6 -11 -6 0 -9 -8 -6 -20 3 -11 1 -20 -4 -20 -5 0 -9 -21 -9
-48 1 -84 -1 -102 -10 -102 -14 0 -77 -132 -72 -152 2 -11 -2 -18 -12 -18 -17
0 -35 -29 -29 -47 2 -6 -7 -22 -21 -36 -17 -17 -23 -32 -19 -46 3 -13 1 -21
-7 -21 -15 0 -39 -29 -40 -47 0 -7 -11 -24 -25 -39 -14 -15 -25 -32 -25 -38
-1 -15 -57 -76 -71 -76 -7 0 -17 -7 -23 -16 -20 -26 -86 -29 -139 -5 -26 12
-47 28 -47 37 0 8 -7 17 -15 20 -8 4 -15 14 -15 24 0 10 -7 23 -15 30 -18 15
-21 135 -4 146 6 3 8 17 4 31 -4 17 -1 29 11 37 23 17 45 107 31 125 -9 10 -7
16 6 26 9 6 18 23 19 36 2 13 9 30 16 38 10 10 10 16 1 27 -9 12 -8 17 6 28
11 8 16 20 12 30 -4 9 -2 16 3 16 6 0 10 15 10 33 0 18 5 38 11 44 8 8 8 13 0
17 -16 11 -13 26 5 26 12 0 15 6 10 25 -4 16 -2 25 5 25 6 0 9 9 6 20 -3 11
-1 20 5 20 6 0 8 14 3 36 -5 30 -2 41 17 61 19 20 20 26 8 34 -12 7 -12 11 -2
17 7 5 10 16 6 25 -3 9 1 26 10 38 10 15 12 26 6 35 -12 13 -2 47 11 39 8 -5
15 16 20 55 1 8 -1 23 -6 33 -4 10 -2 23 5 32 6 8 9 23 5 34 -3 12 1 31 10 45
12 17 15 35 10 56 -4 20 -3 30 5 30 8 0 10 9 6 26 -4 14 -2 31 3 38 5 6 10 30
10 51 0 63 2 76 11 70 12 -8 22 27 10 39 -13 13 -13 46 0 46 6 0 8 15 4 40 -4
27 -3 40 5 40 8 0 10 21 6 69 -3 45 -1 72 6 76 6 5 8 22 4 47 -6 32 -3 42 12
53 14 11 16 16 6 26 -8 8 -13 41 -13 89 0 45 4 70 9 62 7 -11 9 -11 14 1 3 7
1 20 -4 28 -14 22 -11 193 4 208 10 10 8 15 -7 26 -17 13 -18 23 -13 95 4 53
3 80 -4 80 -7 0 -8 14 -4 39 4 24 2 42 -4 46 -7 4 -9 28 -5 66 3 41 2 59 -7
59 -7 0 -9 11 -5 34 5 23 3 36 -6 39 -10 3 -10 9 -2 23 12 21 8 47 -6 39 -10
-6 -12 9 -11 78 1 26 -3 47 -9 47 -5 0 -7 7 -4 15 4 8 1 15 -5 15 -7 0 -9 9
-6 23 3 12 -1 35 -9 51 -8 16 -12 35 -9 43 3 8 0 19 -8 24 -12 8 -12 11 1 19
13 9 13 12 -4 25 -10 7 -15 18 -11 24 3 6 1 11 -6 11 -7 0 -9 10 -6 25 7 41
-12 114 -34 126 -16 8 -19 17 -14 40 4 18 3 29 -4 29 -7 0 -9 10 -5 24 4 17 0
28 -17 39 -13 10 -19 22 -16 31 8 21 -11 73 -29 80 -11 4 -14 14 -9 35 7 34
-9 71 -30 71 -18 0 -19 12 -4 27 9 9 6 21 -11 47 -12 20 -26 36 -32 36 -6 0
-7 7 -4 16 7 17 -31 114 -45 114 -5 0 -6 7 -3 15 4 8 -1 17 -9 21 -8 3 -13 13
-10 23 2 9 -7 29 -20 43 -14 15 -22 29 -19 32 9 10 -20 56 -36 56 -9 0 -13 7
-9 20 3 11 -3 30 -13 42 -9 13 -20 33 -24 45 -4 12 -18 31 -32 42 -13 10 -22
25 -19 32 2 8 -9 32 -25 54 -16 22 -36 55 -44 73 -8 17 -19 32 -25 32 -5 0
-14 14 -20 30 -5 17 -14 30 -20 30 -5 0 -14 14 -20 30 -5 17 -15 30 -20 30 -6
0 -11 6 -11 13 0 17 -70 71 -92 70 -10 -1 -20 2 -23 8 -10 15 -73 10 -91 -8
-9 -10 -24 -18 -32 -19 -31 -5 -37 -25 -35 -117 1 -50 6 -93 11 -95 5 -1 7
-14 4 -27 -3 -16 1 -27 10 -30 16 -6 20 -32 20 -140 0 -115 -4 -155 -14 -155
-5 0 -7 -9 -3 -19 4 -13 -2 -27 -17 -41 -16 -16 -19 -24 -10 -27 14 -5 17 -33
2 -33 -14 0 -29 -33 -34 -73 -2 -20 -15 -50 -27 -67 -18 -24 -21 -33 -10 -39
10 -7 9 -9 -3 -14 -9 -4 -13 -13 -10 -22 3 -8 1 -15 -5 -15 -13 0 -40 -51 -34
-67 2 -6 -8 -23 -22 -37 -15 -15 -24 -33 -21 -41 3 -9 -1 -15 -10 -15 -8 0
-18 -8 -21 -17 -4 -10 -18 -33 -31 -51 -20 -27 -30 -32 -50 -27 -17 4 -22 2
-16 -6 12 -20 -106 -6 -121 14 -7 10 -20 17 -29 17 -9 0 -16 5 -16 10 0 6 -7
10 -15 10 -9 0 -48 33 -88 73 -39 39 -85 83 -102 97 -16 14 -30 32 -30 40 0 8
-9 19 -21 25 -11 5 -19 16 -16 23 2 7 -5 16 -16 19 -11 3 -19 10 -16 17 3 7
-5 25 -18 41 -23 29 -34 48 -82 143 -15 28 -31 52 -36 52 -5 0 -7 7 -4 15 3 8
-5 25 -19 39 -17 17 -23 32 -20 49 3 17 -2 32 -16 46 -12 12 -21 34 -21 50 0
15 -9 40 -20 54 -11 14 -20 39 -20 55 0 16 -7 43 -15 58 -8 16 -15 37 -15 47
0 9 -5 17 -11 17 -6 0 -8 8 -4 19 4 14 0 23 -16 31 -17 10 -20 18 -16 46 5 27
2 36 -15 45 -16 8 -18 13 -8 19 11 7 10 13 -3 34 -9 14 -14 32 -11 40 3 9 -3
19 -17 26 -17 9 -19 14 -8 20 11 7 10 13 -5 29 -11 12 -15 27 -11 40 4 14 0
23 -16 31 -17 10 -19 14 -8 20 11 7 10 13 -5 29 -11 12 -15 27 -11 40 4 14 0
23 -16 31 -16 9 -19 14 -9 20 11 7 10 13 -4 34 -9 15 -14 31 -11 36 7 12 -24
81 -44 96 -8 7 -12 18 -8 29 8 19 -12 95 -25 95 -4 0 -8 16 -8 35 0 19 -5 35
-11 35 -6 0 -8 8 -5 18 3 9 -1 30 -9 46 -8 15 -15 46 -15 67 0 39 -14 59 -24
37 -4 -7 -4 -2 -1 12 2 14 -2 32 -12 42 -10 11 -13 24 -8 35 12 27 6 56 -16
76 -15 14 -19 30 -18 75 2 61 -17 146 -30 137 -5 -2 -11 11 -13 31 -2 19 -1
37 3 39 11 8 -3 59 -20 73 -12 10 -13 15 -3 21 7 4 10 15 6 24 -3 9 -10 14
-15 11 -9 -5 -14 39 -10 85 1 13 -4 28 -11 32 -11 7 -11 12 1 30 12 20 11 24
-3 34 -18 14 -21 35 -5 35 11 0 2 41 -11 50 -4 3 -7 12 -8 20 0 8 -3 37 -6 64
-4 30 -2 54 5 62 14 17 4 48 -12 38 -9 -5 -10 8 -5 49 4 40 3 57 -5 57 -9 0
-10 31 -7 110 3 61 2 110 -3 110 -5 0 -9 25 -9 55 0 30 5 55 10 55 6 0 10 9
10 20 0 11 -5 20 -11 20 -6 0 -10 26 -9 68 1 136 3 130 -44 180 -47 50 -106
90 -106 73 0 -6 -7 -11 -15 -11 -8 0 -15 5 -15 10 0 6 -9 10 -20 10 -11 0 -20
-4 -20 -9z m-5 -331 c2 -24 9 -46 15 -50 6 -4 8 -14 4 -24 -4 -11 2 -26 15
-40 14 -15 18 -26 12 -30 -11 -7 -3 -37 13 -48 8 -5 8 -13 0 -25 -6 -10 -9
-24 -6 -32 4 -11 6 -11 13 0 6 10 9 7 9 -11 0 -15 -6 -32 -12 -39 -11 -10 -9
-15 6 -26 15 -12 18 -22 13 -59 -4 -28 -2 -48 4 -52 7 -4 9 -69 7 -195 -2
-111 0 -189 5 -189 5 0 7 -15 4 -34 -3 -19 0 -39 6 -45 8 -8 8 -11 -1 -11 -13
0 -16 -28 -6 -54 3 -9 10 -13 15 -10 5 3 10 -1 10 -8 13 -129 18 -152 34 -161
13 -7 15 -17 10 -43 -3 -19 -2 -34 3 -34 5 0 7 -13 4 -29 -3 -22 1 -33 17 -43
23 -14 27 -38 9 -56 -9 -9 -7 -16 10 -32 25 -24 28 -36 10 -44 -9 -3 -6 -11
10 -24 25 -22 28 -42 10 -60 -9 -9 -7 -16 10 -32 25 -23 28 -36 10 -42 -7 -3
-4 -12 11 -27 17 -17 21 -29 16 -53 -5 -21 -4 -28 4 -24 6 4 11 3 11 -3 0 -5
-6 -12 -12 -15 -9 -3 -8 -9 6 -20 10 -8 15 -19 12 -24 -3 -5 1 -15 9 -22 18
-15 20 -47 3 -53 -10 -3 -8 -9 5 -24 9 -11 14 -23 10 -26 -3 -4 -1 -7 5 -7 6
0 9 -6 6 -13 -3 -8 2 -20 11 -27 11 -9 14 -22 9 -46 -7 -39 11 -100 33 -108
12 -5 13 -9 4 -20 -6 -7 -9 -22 -5 -32 12 -37 29 -69 42 -77 9 -6 11 -19 7
-38 -7 -31 11 -92 25 -84 12 8 21 -24 14 -51 -4 -15 -2 -24 6 -24 7 0 10 -7 6
-17 -4 -10 2 -25 15 -39 11 -12 18 -27 15 -32 -11 -18 6 -70 25 -75 14 -4 17
-12 13 -39 -5 -26 -1 -39 19 -60 14 -15 23 -29 20 -31 -12 -12 11 -77 29 -83
15 -4 18 -12 13 -34 -5 -21 -1 -34 14 -49 12 -12 21 -29 21 -40 0 -10 8 -29
19 -42 10 -13 21 -41 25 -61 4 -21 16 -44 27 -52 15 -10 19 -20 14 -35 -4 -15
1 -28 19 -45 15 -16 22 -32 19 -45 -3 -13 3 -24 20 -35 17 -12 23 -23 20 -40
-3 -16 3 -29 19 -42 13 -10 22 -27 20 -36 -4 -20 55 -104 70 -100 6 2 8 -4 5
-12 -4 -10 7 -30 29 -53 19 -21 42 -50 50 -65 8 -16 21 -28 29 -28 8 0 15 -6
15 -14 0 -8 8 -17 19 -21 10 -3 26 -14 36 -25 10 -11 26 -20 37 -20 10 0 18
-4 18 -8 0 -4 20 -14 45 -21 24 -7 50 -19 56 -27 7 -8 18 -13 26 -10 8 3 12 2
8 -3 -8 -13 17 -20 37 -10 10 5 27 5 41 0 14 -5 46 -7 73 -5 27 3 66 5 87 5
20 -1 37 2 37 6 0 5 12 9 28 9 26 1 70 19 119 47 12 8 54 43 93 80 54 51 70
72 65 86 -4 13 0 20 15 24 13 3 20 13 20 28 0 12 6 30 14 38 21 25 35 76 25
94 -6 10 -5 19 3 24 7 4 19 19 26 32 12 20 12 25 0 32 -11 8 -11 10 1 18 9 6
11 18 7 38 -5 22 -3 32 8 36 20 8 39 77 25 93 -7 8 -7 14 1 19 6 4 8 16 5 26
-4 11 0 30 9 43 8 13 12 34 10 47 -4 18 -3 20 4 10 7 -9 8 0 5 31 -4 32 -1 47
11 57 13 11 17 11 22 -3 3 -9 1 -23 -6 -31 -10 -12 -9 -15 4 -15 9 0 16 -7 16
-15 0 -8 7 -15 16 -15 11 0 15 -6 11 -19 -2 -10 4 -29 14 -42 10 -13 19 -29
19 -34 0 -6 11 -27 25 -47 14 -20 34 -60 46 -90 11 -29 29 -62 39 -73 10 -11
21 -35 25 -53 4 -18 13 -36 21 -39 9 -3 12 -13 8 -27 -3 -14 5 -37 25 -66 16
-24 27 -48 24 -53 -7 -11 17 -67 28 -67 5 0 9 -15 9 -33 0 -37 26 -97 42 -97
5 0 7 -12 3 -29 -7 -31 12 -111 27 -111 4 0 8 -16 8 -35 0 -19 3 -35 8 -35 4
0 7 -18 7 -41 0 -22 6 -44 13 -48 7 -4 14 -23 14 -42 1 -19 6 -37 12 -41 8 -5
8 -10 0 -18 -12 -12 -1 -89 14 -100 7 -5 13 -29 16 -70 1 -14 5 -31 10 -38 4
-7 5 -29 1 -49 -4 -25 -2 -38 7 -44 10 -7 10 -12 1 -28 -12 -20 -7 -61 8 -61
5 0 9 -19 8 -42 -1 -73 8 -214 14 -225 10 -16 10 -445 0 -452 -5 -3 -9 -31
-10 -61 -3 -164 -5 -190 -14 -190 -6 0 -8 -18 -3 -45 4 -31 3 -45 -5 -45 -8 0
-10 -13 -6 -37 3 -21 2 -32 -1 -24 -12 26 -23 -10 -12 -41 7 -19 7 -32 -1 -41
-5 -7 -8 -23 -4 -35 3 -14 1 -22 -7 -22 -9 0 -10 -11 -6 -37 4 -24 3 -33 -2
-25 -8 11 -10 11 -15 -2 -3 -8 -2 -18 3 -21 6 -4 10 -14 10 -23 0 -13 -2 -14
-9 -4 -7 11 -9 11 -14 -2 -3 -8 -2 -18 4 -22 5 -3 7 -15 3 -27 -4 -12 -7 -30
-6 -39 0 -10 -4 -18 -10 -18 -6 0 -8 -12 -4 -30 3 -19 1 -30 -5 -30 -6 0 -9
-7 -5 -15 3 -8 1 -15 -4 -15 -8 0 -10 -18 -10 -97 0 -13 -5 -23 -10 -23 -5 0
-6 -7 -3 -17 4 -10 2 -14 -4 -10 -16 10 -26 -25 -11 -35 10 -8 10 -11 1 -15
-7 -2 -13 -20 -13 -38 0 -18 -5 -35 -11 -37 -7 -2 -12 -25 -13 -51 -1 -26 -4
-47 -8 -47 -5 0 -8 -21 -8 -46 0 -25 -4 -43 -9 -40 -5 3 -12 -2 -15 -11 -4 -9
-2 -20 4 -23 8 -5 6 -9 -5 -14 -12 -4 -16 -16 -14 -44 3 -57 0 -84 -10 -78
-18 11 -39 -67 -28 -101 5 -13 2 -36 -8 -59 -9 -23 -13 -50 -10 -69 4 -20 3
-25 -3 -17 -7 11 -10 11 -15 -2 -3 -8 -2 -18 3 -21 6 -4 10 -16 9 -28 0 -13
-3 -16 -6 -8 -4 11 -7 11 -14 0 -4 -7 -3 -22 3 -33 7 -13 9 -57 4 -123 -5 -94
-4 -105 14 -123 11 -11 20 -29 20 -41 0 -12 8 -23 20 -26 11 -3 17 -10 14 -15
-7 -11 24 -48 41 -48 7 0 18 -7 26 -16 22 -26 108 -66 130 -59 11 4 25 2 32
-3 14 -11 96 -11 114 1 6 4 18 4 27 1 9 -3 28 2 44 12 15 11 32 21 38 24 27
12 165 151 159 160 -3 5 1 10 10 10 8 0 19 10 24 23 5 13 28 43 50 67 23 25
39 50 37 57 -3 7 4 17 15 23 11 6 19 16 18 23 -3 20 12 47 27 47 18 0 18 -9
-2 -31 -15 -16 -14 -17 4 -13 17 5 19 1 17 -45 -1 -28 -4 -54 -8 -57 -3 -3 -3
-13 0 -21 5 -12 7 -12 14 -1 6 9 9 7 9 -9 0 -12 -6 -24 -12 -27 -10 -3 -8 -9
5 -19 13 -11 16 -22 11 -41 -4 -17 -2 -26 5 -26 12 0 12 7 13 -345 1 -253 -2
-338 -12 -345 -13 -9 -22 -50 -11 -50 6 0 11 -7 11 -15 0 -8 -5 -15 -11 -15
-7 0 -8 -14 -4 -40 4 -25 3 -40 -3 -40 -10 0 -13 -23 -13 -92 0 -16 -4 -28
-10 -28 -5 0 -7 -12 -3 -27 4 -21 3 -24 -4 -14 -8 12 -12 7 -20 -20 -6 -21 -5
-39 1 -46 6 -9 6 -18 -2 -27 -6 -7 -9 -20 -6 -28 4 -9 -1 -22 -9 -31 -8 -8
-12 -17 -9 -21 4 -3 -2 -13 -13 -21 -16 -13 -17 -16 -4 -24 13 -9 13 -12 -1
-23 -21 -18 -42 -84 -34 -109 5 -14 0 -27 -15 -41 -12 -11 -19 -26 -16 -34 3
-8 1 -14 -5 -14 -6 0 -9 -7 -5 -15 3 -8 2 -15 -2 -15 -5 0 -16 -16 -26 -37
-12 -26 -14 -38 -6 -43 8 -5 7 -9 -4 -13 -9 -4 -13 -13 -10 -22 3 -8 1 -15 -5
-15 -14 0 -73 -128 -66 -140 3 -5 -6 -21 -20 -36 -14 -15 -23 -34 -21 -41 3
-7 1 -13 -3 -13 -14 0 -53 -81 -47 -96 3 -8 -1 -14 -9 -14 -19 0 -37 -34 -29
-54 4 -11 1 -16 -10 -16 -10 0 -23 -16 -33 -38 -8 -20 -22 -41 -30 -45 -7 -5
-11 -16 -9 -25 4 -12 -2 -21 -17 -27 -13 -6 -23 -21 -25 -36 -2 -17 -11 -29
-23 -32 -16 -4 -19 -11 -14 -26 5 -16 1 -23 -18 -30 -14 -6 -33 -28 -46 -53
-11 -24 -39 -62 -61 -85 -22 -23 -40 -46 -40 -50 0 -5 -27 -37 -60 -71 -33
-35 -60 -67 -60 -72 0 -4 -34 -39 -75 -77 -41 -37 -75 -72 -76 -78 0 -5 -27
-32 -59 -60 -32 -27 -56 -53 -53 -58 2 -4 -6 -11 -19 -17 -30 -12 -68 -45 -68
-59 0 -6 -7 -11 -15 -11 -8 0 -22 -11 -31 -25 -9 -14 -22 -25 -30 -25 -7 0
-17 -7 -22 -16 -8 -15 -35 -33 -79 -53 -13 -6 -23 -15 -23 -21 0 -5 -6 -10
-14 -10 -8 0 -23 -11 -34 -25 -11 -14 -27 -25 -36 -25 -9 0 -21 -9 -28 -20 -7
-11 -21 -20 -30 -20 -10 0 -23 -9 -30 -20 -7 -11 -20 -20 -29 -20 -9 0 -24 -9
-34 -20 -10 -11 -22 -17 -26 -14 -5 3 -20 -6 -33 -20 -13 -14 -31 -26 -40 -26
-9 0 -24 -9 -33 -20 -10 -11 -27 -20 -40 -20 -12 0 -26 -7 -31 -15 -4 -9 -18
-17 -29 -19 -30 -6 -63 -25 -63 -36 0 -6 -11 -10 -25 -10 -14 0 -37 -11 -51
-25 -17 -17 -32 -24 -45 -20 -13 4 -27 -2 -43 -20 -17 -18 -31 -25 -44 -21
-13 5 -30 -2 -51 -20 -17 -14 -38 -24 -46 -20 -19 7 -77 -13 -69 -25 3 -5 -11
-9 -30 -9 -20 0 -36 -5 -36 -11 0 -5 -4 -8 -8 -5 -5 3 -20 -3 -33 -12 -13 -9
-40 -17 -60 -18 -19 0 -54 -10 -77 -22 -23 -12 -49 -19 -57 -16 -9 4 -24 -1
-35 -11 -10 -9 -24 -14 -30 -10 -6 4 -26 0 -45 -9 -18 -9 -40 -13 -49 -10 -9
4 -16 1 -16 -6 0 -8 -10 -9 -30 -5 -18 4 -30 2 -30 -3 0 -6 -9 -8 -20 -5 -11
3 -20 1 -20 -4 0 -10 -15 -13 -72 -14 -21 0 -38 -4 -38 -10 0 -5 -11 -7 -25
-3 -15 4 -25 2 -25 -5 0 -6 -7 -8 -15 -5 -8 4 -15 2 -15 -3 0 -10 -19 -12
-100 -13 -19 -1 -38 -6 -42 -13 -5 -9 -12 -9 -25 -1 -23 14 -52 7 -32 -8 10
-7 4 -8 -18 -4 -21 3 -33 1 -33 -5 0 -6 -9 -9 -20 -6 -11 3 -37 1 -58 -4 -22
-5 -52 -5 -68 0 -37 10 -63 3 -43 -11 9 -6 -2 -8 -33 -4 -32 4 -48 2 -48 -5 0
-8 -16 -9 -50 -5 -29 4 -50 3 -50 -3 0 -10 -107 -14 -380 -14 -261 0 -360 4
-360 15 0 5 -18 6 -45 2 -31 -4 -45 -3 -45 5 0 7 -15 9 -42 6 -24 -3 -37 -2
-29 1 26 12 -10 22 -45 12 -23 -6 -41 -5 -54 2 -12 6 -30 8 -42 4 -15 -4 -18
-3 -13 6 6 9 -1 10 -24 5 -21 -4 -31 -3 -31 5 0 7 -8 9 -20 5 -11 -4 -20 -2
-20 4 0 5 -17 10 -37 10 -58 1 -73 4 -73 13 0 5 -10 6 -21 3 -13 -5 -19 -3
-15 3 3 5 -1 12 -9 16 -8 3 -15 0 -15 -7 0 -9 -2 -9 -8 0 -4 6 -18 11 -32 11
-14 1 -36 3 -50 5 -14 2 -29 5 -33 6 -5 0 -6 5 -3 10 3 5 -1 11 -9 15 -8 3
-15 0 -15 -6 0 -9 -3 -9 -12 0 -7 7 -25 12 -40 12 -15 0 -28 5 -28 11 0 6 -7
9 -15 5 -8 -3 -21 1 -29 9 -8 8 -28 15 -45 15 -16 0 -36 7 -45 15 -8 8 -30 18
-48 22 -18 3 -41 12 -50 20 -9 8 -22 12 -27 8 -6 -3 -11 -1 -11 4 0 6 -9 11
-21 11 -11 0 -32 9 -46 20 -15 11 -34 18 -44 15 -11 -4 -27 4 -43 20 -14 14
-34 25 -46 25 -11 0 -29 9 -40 20 -11 11 -30 20 -43 20 -12 0 -30 9 -40 20 -9
11 -23 20 -31 20 -8 0 -16 7 -20 15 -3 8 -15 15 -27 15 -11 0 -34 11 -51 25
-16 14 -38 25 -48 25 -11 0 -24 9 -30 20 -6 10 -16 17 -24 14 -8 -3 -16 3 -19
15 -3 13 -13 21 -25 21 -11 0 -22 3 -24 8 -5 12 -107 82 -119 82 -6 0 -20 11
-31 25 -11 14 -26 25 -34 25 -8 0 -14 5 -14 10 0 6 -7 13 -15 17 -16 6 -64 45
-117 96 -16 15 -35 27 -43 27 -8 0 -15 7 -15 15 0 9 -11 20 -24 25 -13 5 -27
14 -31 19 -3 6 -15 11 -26 11 -16 0 -19 5 -14 20 4 12 2 20 -6 20 -6 0 -32 20
-58 44 -25 25 -97 93 -159 153 -63 59 -120 120 -128 135 -8 16 -36 45 -62 65
-26 21 -47 45 -47 53 0 8 -10 19 -22 25 -13 5 -23 15 -23 22 0 7 -10 23 -22
37 -13 14 -36 44 -52 66 -17 22 -33 40 -38 40 -4 0 -8 7 -8 15 0 8 -8 19 -18
24 -10 5 -29 31 -42 57 -14 25 -34 51 -46 56 -13 6 -22 18 -22 27 2 26 -41 88
-64 94 -14 4 -19 11 -14 22 3 9 -10 41 -32 78 -20 34 -51 88 -67 121 -17 32
-38 61 -48 64 -13 3 -17 11 -13 25 3 11 -7 42 -22 71 -15 28 -38 75 -50 104
-13 29 -27 50 -33 46 -6 -3 -7 4 -3 19 4 19 0 30 -14 43 -11 9 -18 23 -15 31
7 19 -17 74 -30 66 -7 -4 -8 5 -4 26 5 23 2 36 -11 49 -9 9 -18 30 -19 47 0
16 -6 31 -12 33 -5 2 -7 10 -4 18 3 8 -2 21 -12 28 -11 8 -14 15 -7 19 5 4 8
16 5 27 -3 11 -8 18 -12 16 -3 -2 -6 16 -6 41 0 32 -5 48 -19 58 -10 8 -15 19
-11 25 4 6 2 17 -5 24 -6 8 -8 26 -4 40 4 18 2 26 -7 26 -10 0 -10 3 -2 11 6
6 9 18 6 26 -5 12 -7 12 -15 1 -7 -9 -8 -4 -4 15 4 17 2 27 -5 27 -7 0 -9 11
-6 30 4 16 1 43 -5 60 -7 22 -7 35 0 42 6 6 8 17 5 25 -5 12 -7 12 -15 1 -6
-8 -8 2 -4 30 4 25 2 42 -4 42 -5 0 -10 17 -10 38 -10 460 -10 632 0 632 8 0
10 19 5 65 -5 47 -4 65 4 65 8 0 10 11 6 33 -5 24 -1 38 14 56 12 13 22 29 22
35 4 32 20 76 29 76 9 0 35 -30 34 -39 0 -3 8 -4 19 -3 14 3 18 0 14 -12 -4
-9 5 -27 23 -44 15 -16 35 -45 44 -65 9 -22 22 -37 32 -37 11 0 14 -5 10 -16
-8 -21 26 -77 86 -139 26 -28 55 -60 64 -73 8 -12 22 -22 31 -22 8 0 24 -11
35 -25 11 -14 28 -25 39 -25 11 0 22 -7 26 -15 8 -22 76 -55 113 -55 16 0 30
-5 30 -11 0 -7 12 -9 36 -4 24 4 34 3 29 -4 -4 -7 4 -11 19 -11 13 0 26 6 29
13 3 9 9 9 23 1 21 -12 47 -7 38 7 -3 5 11 9 30 9 22 0 43 7 55 19 11 11 21
17 24 15 5 -5 118 104 165 158 30 35 104 177 97 188 -2 4 4 19 15 33 11 14 20
33 20 44 0 10 6 30 14 45 8 15 12 37 9 50 -3 16 -2 19 5 10 12 -17 22 5 22 48
0 16 5 32 11 35 6 4 8 14 5 22 -4 9 1 22 11 29 16 12 16 15 3 24 -12 8 -12 12
-2 18 7 5 13 31 13 60 1 29 6 52 11 52 6 0 8 7 4 15 -3 8 -1 15 5 15 6 0 8 18
5 48 -4 32 -3 41 3 27 8 -18 9 -19 16 -2 4 9 3 23 -2 30 -6 6 -8 35 -7 62 2
28 3 118 3 200 -1 83 -1 176 0 208 1 34 -2 57 -9 57 -14 0 -13 33 3 49 10 10
8 15 -6 25 -10 8 -15 20 -11 29 3 8 -1 35 -10 60 -8 24 -12 54 -9 67 4 13 0
25 -8 31 -11 6 -11 13 -3 26 13 21 7 46 -8 37 -7 -4 -8 5 -3 26 5 22 3 35 -6
40 -7 5 -12 28 -12 54 0 25 -4 46 -9 46 -12 0 -10 28 3 32 5 2 7 11 4 21 -4 9
-12 14 -18 10 -6 -4 -8 0 -4 10 3 10 2 17 -3 17 -8 0 -11 22 -11 85 0 17 0 44
1 60 0 17 -8 36 -18 43 -13 10 -14 15 -4 21 12 7 7 40 -8 51 -12 9 -20 69 -10
75 5 3 6 13 3 21 -5 13 -7 13 -14 2 -7 -10 -9 -9 -9 4 0 9 4 19 10 23 5 3 6
13 3 21 -5 13 -8 13 -15 2 -6 -8 -7 -1 -4 23 4 23 1 46 -9 65 -9 18 -13 40 -9
58 4 19 2 31 -7 37 -11 6 -11 13 -3 26 14 23 7 53 -8 32 -6 -9 -7 0 -3 26 4
27 1 53 -10 79 -12 27 -14 46 -7 65 11 33 4 60 -10 40 -6 -9 -7 -2 -3 24 4 23
2 37 -5 37 -13 0 -13 37 0 45 11 7 4 45 -9 55 -4 3 -8 14 -9 25 0 11 -4 59 -8
108 -4 61 -3 87 5 87 7 0 11 23 11 60 0 36 -4 60 -11 60 -7 0 -8 28 -4 88 4
48 7 97 7 110 0 12 5 22 10 22 6 0 8 12 5 27 -3 18 1 32 11 41 13 10 14 15 5
18 -15 6 -18 34 -4 34 4 0 8 19 8 42 0 23 5 44 12 46 6 2 8 8 5 14 -3 5 2 15
11 22 12 9 17 26 17 56 -1 28 5 48 14 55 9 6 18 32 20 60 3 27 9 52 14 55 14
8 30 58 24 74 -3 7 2 16 11 20 10 3 15 13 12 20 -3 8 1 17 9 20 8 3 14 19 14
36 0 16 4 30 10 30 5 0 17 14 26 31 12 24 13 33 4 39 -15 9 -4 30 15 30 14 0
31 36 27 57 -2 6 9 23 22 36 17 17 23 32 19 46 -4 15 -1 21 10 21 17 0 32 34
28 63 -1 10 4 17 13 17 9 0 25 21 38 48 12 26 35 67 50 91 21 34 25 47 15 53
-8 5 -7 8 5 8 10 0 24 14 33 30 9 17 13 30 9 30 -4 0 5 12 20 26 14 15 26 35
26 44 0 10 6 20 13 23 6 3 23 27 37 53 13 27 35 63 47 80 13 17 21 38 18 47
-4 8 -2 18 4 22 6 3 11 17 11 31 0 14 6 24 14 24 11 0 16 -22 21 -85 4 -47 12
-85 17 -85 5 0 6 -9 3 -21 -5 -14 0 -28 15 -44 16 -17 20 -30 15 -45 -7 -24
11 -69 33 -83 8 -6 11 -20 7 -41 -5 -26 -1 -39 18 -62 18 -21 24 -37 20 -56
-3 -18 2 -33 16 -47 12 -12 20 -24 20 -28 -5 -30 5 -58 27 -80 14 -14 23 -32
20 -40 -8 -20 11 -53 30 -53 11 0 13 -6 9 -20 -9 -27 3 -60 21 -60 9 0 14 -8
13 -17 -4 -29 11 -63 28 -63 10 0 14 -6 10 -19 -6 -24 10 -51 30 -51 10 0 13
-6 9 -16 -8 -20 11 -54 30 -54 10 0 13 -6 9 -18 -3 -11 3 -29 15 -45 11 -14
20 -29 20 -35 0 -5 9 -17 20 -27 11 -10 20 -22 20 -26 0 -14 61 -99 71 -99 5
0 9 -7 9 -15 0 -9 7 -18 15 -21 8 -4 15 -10 15 -15 0 -18 82 -119 96 -119 8 0
11 -6 7 -16 -4 -10 1 -17 16 -21 11 -3 21 -8 21 -12 0 -3 27 -36 61 -71 33
-36 72 -80 86 -98 15 -19 32 -31 40 -28 8 3 12 2 9 -3 -6 -9 56 -61 72 -61 5
0 17 -11 26 -25 9 -14 22 -25 30 -25 7 0 18 -12 25 -26 8 -18 17 -24 28 -20
10 4 21 -1 30 -14 8 -11 21 -20 30 -20 9 0 25 -7 35 -17 17 -15 51 -23 106
-25 12 0 22 -4 22 -9 0 -5 11 -9 25 -9 14 0 25 4 25 8 0 4 17 8 38 9 45 2 134
51 127 71 -3 7 6 17 19 22 14 5 27 18 31 29 3 10 13 22 21 25 10 4 13 13 9 25
-4 13 0 20 15 24 11 3 20 12 20 20 0 8 11 34 24 57 17 31 23 52 19 75 -4 26
-1 35 15 44 22 12 34 55 19 70 -7 7 -6 15 2 25 8 9 10 27 6 45 -4 18 -2 32 5
36 7 4 9 18 5 32 -4 18 -1 29 12 38 15 11 15 15 4 29 -10 12 -13 49 -9 156 2
77 1 140 -4 140 -4 0 -8 118 -8 263 0 146 4 256 9 249 7 -11 9 -11 14 1 3 7 1
20 -4 28 -11 18 -12 109 -1 109 5 0 9 15 10 33 0 17 3 61 6 97 3 36 6 73 6 83
1 9 5 15 10 12 4 -3 11 3 15 12 3 10 1 19 -4 21 -6 2 -11 13 -10 25 0 13 3 16
6 8 4 -10 7 -11 13 -1 5 7 3 22 -3 32 -9 14 -9 20 -1 26 15 9 21 43 11 59 -9
14 2 45 14 38 8 -5 15 16 20 55 1 8 -2 23 -6 34 -6 13 -3 21 9 28 13 7 16 17
12 34 -4 15 -2 24 5 24 7 0 9 9 5 26 -5 17 -3 23 4 19 6 -4 10 9 10 34 0 27 7
48 19 60 12 12 19 33 19 62 1 24 6 45 11 47 6 2 9 8 6 12 -3 5 3 18 14 29 15
15 19 28 15 51 -5 25 -1 35 21 56 19 18 26 32 23 49 -3 15 0 26 9 29 8 4 13
16 11 29 -1 13 5 31 14 40 9 10 14 25 11 37 -4 14 0 20 10 20 9 0 20 16 28 38
6 20 16 42 21 49 5 7 8 20 6 30 -2 9 7 28 20 40 13 13 21 30 18 38 -3 8 -1 15
4 15 13 0 42 58 35 70 -3 6 -1 10 5 10 6 0 14 8 17 18 4 9 15 28 25 41 10 13
18 32 18 42 0 11 5 19 11 19 5 0 19 19 30 43 11 23 42 77 69 120 27 42 47 83
44 91 -3 8 3 16 15 19 12 3 21 12 21 21 0 9 5 16 11 16 5 0 15 13 20 29 6 16
17 32 25 35 8 3 14 12 14 20 0 8 15 30 33 49 18 20 39 48 47 64 8 15 23 34 33
41 10 8 16 19 14 25 -2 7 6 17 17 23 12 5 20 18 20 27 -1 9 4 17 12 17 7 0 18
9 24 21 14 26 33 49 87 104 22 24 47 53 53 65 16 30 29 14 35 -40z m332 -1022
c-3 -8 -6 -5 -6 6 -1 11 2 17 5 13 3 -3 4 -12 1 -19z m-1400 -910 c-3 -8 -6
-5 -6 6 -1 11 2 17 5 13 3 -3 4 -12 1 -19z m-2587 -2029 c0 -31 -4 -48 -10
-44 -17 11 -12 95 7 95 2 0 3 -23 3 -51z m6247 -131 c-3 -8 -6 -5 -6 6 -1 11
2 17 5 13 3 -3 4 -12 1 -19z m-6090 -1030 c-3 -8 -6 -5 -6 6 -1 11 2 17 5 13
3 -3 4 -12 1 -19z m6260 -880 c-3 -8 -6 -5 -6 6 -1 11 2 17 5 13 3 -3 4 -12 1
-19z m-6400 -640 c-3 -8 -6 -5 -6 6 -1 11 2 17 5 13 3 -3 4 -12 1 -19z"/>
</g>
</svg>
