<?xml version="1.0" standalone="no"?>
<!DOCTYPE svg PUBLIC "-//W3C//DTD SVG 20010904//EN"
 "http://www.w3.org/TR/2001/REC-SVG-20010904/DTD/svg10.dtd">
<svg version="1.0" xmlns="http://www.w3.org/2000/svg"
 width="1999.000000pt" height="2000.000000pt" viewBox="0 0 1999.000000 2000.000000"
 preserveAspectRatio="xMidYMid meet">
<metadata>
Created by potrace 1.16, written by Peter Selinger 2001-2019
</metadata>
<g transform="translate(0.000000,2000.000000) scale(0.100000,-0.100000)"
fill="#000000" stroke="none">
<path d="M11260 15966 c-5 -5 -61 -7 -124 -4 -71 3 -116 1 -116 -5 0 -6 -26
-7 -65 -4 -37 4 -65 2 -65 -3 0 -9 -39 -12 -142 -11 -37 1 -58 -3 -58 -10 0
-7 -12 -9 -35 -5 -24 5 -35 3 -35 -5 0 -7 -9 -9 -25 -5 -14 4 -31 3 -38 -1
-14 -8 -40 -13 -84 -16 -17 -1 -35 -5 -39 -10 -4 -4 -24 -5 -43 -1 -28 4 -33
3 -21 -6 12 -9 8 -10 -16 -5 -22 4 -36 1 -48 -10 -11 -12 -25 -15 -45 -10 -16
3 -32 2 -35 -4 -4 -6 -13 -8 -20 -5 -8 3 -17 0 -21 -5 -3 -6 -10 -9 -15 -6 -5
3 -23 -1 -41 -10 -17 -9 -38 -14 -46 -11 -8 3 -20 3 -26 -1 -6 -4 -22 -8 -34
-9 -13 -2 -37 -10 -55 -18 -17 -9 -39 -14 -49 -11 -9 3 -20 2 -23 -4 -3 -5
-16 -7 -28 -3 -16 4 -19 2 -13 -8 6 -10 4 -12 -8 -7 -9 3 -23 0 -31 -9 -8 -8
-37 -16 -65 -17 -31 -2 -58 -10 -70 -21 -11 -10 -27 -16 -35 -13 -18 7 -74
-10 -97 -30 -9 -7 -24 -13 -35 -12 -34 4 -67 -1 -61 -8 9 -9 -44 -35 -60 -29
-14 6 -78 -19 -87 -33 -3 -5 -22 -9 -42 -9 -19 0 -43 -7 -53 -16 -10 -9 -27
-16 -38 -16 -11 0 -37 -12 -58 -26 -21 -14 -43 -23 -50 -20 -7 2 -26 -4 -42
-14 -16 -10 -44 -21 -62 -25 -17 -4 -40 -16 -51 -27 -10 -11 -24 -18 -32 -15
-17 6 -68 -20 -68 -34 0 -7 -10 -9 -23 -5 -14 3 -32 -1 -43 -9 -10 -8 -38 -24
-61 -34 -24 -11 -43 -25 -43 -32 0 -7 -9 -9 -23 -5 -17 4 -30 -1 -47 -19 -13
-14 -31 -25 -41 -25 -10 0 -24 -6 -31 -14 -8 -7 -28 -17 -45 -20 -18 -4 -37
-14 -44 -22 -6 -8 -17 -14 -24 -14 -6 0 -20 -9 -30 -20 -10 -11 -26 -20 -35
-20 -9 0 -25 -9 -35 -20 -10 -11 -26 -20 -35 -20 -9 0 -25 -9 -35 -20 -10 -11
-24 -20 -32 -20 -8 0 -25 -11 -39 -25 -14 -14 -31 -24 -37 -23 -12 3 -52 -22
-86 -52 -9 -8 -29 -21 -44 -27 -15 -7 -27 -17 -27 -23 0 -5 -7 -10 -15 -10 -8
0 -24 -9 -35 -20 -11 -11 -25 -20 -31 -20 -10 0 -49 -28 -91 -65 -10 -8 -22
-15 -27 -15 -5 0 -28 -18 -50 -39 -23 -22 -49 -42 -59 -46 -23 -8 -72 -51 -72
-65 0 -5 -6 -10 -14 -10 -8 0 -35 -20 -60 -45 -26 -25 -49 -45 -52 -45 -24 0
-444 -403 -444 -426 0 -8 -3 -13 -7 -12 -13 3 -114 -103 -108 -113 4 -5 0 -9
-7 -9 -11 0 -42 -31 -91 -90 -6 -8 -22 -30 -35 -50 -13 -19 -33 -44 -43 -55
-45 -46 -82 -92 -96 -120 -9 -16 -22 -37 -30 -45 -28 -30 -53 -63 -53 -70 0
-4 -9 -17 -20 -30 -11 -13 -20 -29 -20 -36 0 -7 -6 -17 -14 -21 -22 -12 -100
-135 -98 -155 0 -10 -6 -18 -14 -18 -8 0 -18 -8 -21 -17 -4 -10 -22 -43 -42
-73 -19 -30 -34 -60 -34 -67 0 -7 -3 -13 -7 -13 -9 0 -42 -60 -33 -60 4 0 3
-4 -3 -8 -20 -14 -44 -57 -44 -78 0 -12 -6 -24 -13 -27 -15 -5 -50 -73 -50
-94 0 -7 -4 -13 -9 -13 -4 0 -8 -7 -8 -16 0 -8 -7 -22 -15 -31 -8 -8 -13 -19
-10 -24 4 -5 1 -9 -4 -9 -6 0 -11 -9 -11 -20 0 -11 -5 -20 -10 -20 -9 0 -29
-38 -34 -65 -1 -6 -9 -21 -19 -35 -9 -13 -17 -28 -17 -32 0 -8 -34 -88 -51
-120 -5 -10 -6 -24 -3 -33 4 -8 -1 -17 -10 -21 -9 -3 -16 -17 -16 -30 0 -13
-4 -24 -9 -24 -5 0 -14 -13 -20 -30 -5 -16 -7 -30 -4 -30 3 0 0 -7 -7 -15 -7
-8 -9 -15 -6 -15 4 0 0 -7 -9 -16 -9 -9 -14 -23 -11 -30 3 -8 1 -14 -3 -14 -9
0 -52 -118 -55 -150 -1 -8 -7 -26 -15 -38 -7 -13 -15 -40 -17 -60 -3 -20 -8
-39 -12 -42 -13 -9 -32 -60 -32 -85 0 -13 -4 -26 -10 -30 -5 -3 -7 -12 -4 -20
3 -7 -2 -25 -12 -40 -9 -15 -18 -45 -19 -67 -1 -22 -8 -43 -15 -48 -7 -4 -10
-15 -7 -24 3 -8 2 -18 -3 -21 -6 -4 -10 -16 -10 -29 0 -12 -5 -27 -10 -32 -6
-6 -12 -26 -14 -46 -2 -19 -6 -40 -10 -47 -4 -6 -5 -15 -2 -19 3 -5 -2 -21
-10 -37 -8 -16 -13 -39 -10 -51 4 -13 0 -27 -9 -34 -8 -6 -15 -28 -15 -48 0
-21 0 -45 -1 -54 0 -10 -5 -18 -11 -18 -6 0 -8 -9 -5 -20 3 -11 1 -20 -5 -20
-5 0 -7 -13 -3 -32 5 -25 4 -29 -4 -18 -8 11 -11 4 -10 -30 0 -84 -2 -100 -12
-100 -5 0 -7 -11 -3 -25 4 -16 2 -25 -5 -25 -7 0 -9 -9 -5 -25 4 -15 2 -25 -4
-25 -6 0 -11 -15 -11 -32 -2 -73 -3 -88 -11 -88 -5 0 -6 -18 -3 -40 4 -27 2
-40 -6 -40 -9 0 -10 -14 -6 -47 5 -35 4 -44 -4 -33 -8 11 -11 0 -11 -45 0 -33
1 -93 1 -132 0 -43 -5 -73 -11 -73 -6 0 -7 -22 -3 -60 3 -33 2 -60 -3 -60 -5
0 -9 -133 -9 -305 0 -171 4 -305 9 -305 5 0 6 -29 2 -65 -4 -42 -3 -65 4 -65
6 0 10 -30 10 -72 0 -113 1 -122 12 -135 6 -7 7 -30 3 -53 -4 -27 -3 -40 4
-40 7 0 9 -10 5 -25 -4 -15 -2 -25 4 -25 6 0 11 -17 10 -37 -1 -84 10 -161 26
-185 11 -17 15 -35 10 -52 -4 -17 -2 -26 6 -26 8 0 10 -9 6 -24 -3 -14 -2 -27
4 -31 5 -3 7 -12 3 -20 -3 -8 0 -15 6 -15 7 0 9 -9 5 -25 -4 -17 -1 -32 11
-45 11 -12 14 -26 10 -39 -4 -13 -2 -21 5 -21 6 0 8 -10 4 -25 -4 -16 -2 -25
6 -25 7 0 10 -8 7 -20 -3 -11 -1 -23 4 -26 5 -3 9 -16 9 -29 0 -13 4 -26 10
-30 5 -3 6 -13 3 -21 -3 -9 0 -20 7 -24 7 -4 14 -21 16 -37 6 -62 15 -91 30
-97 10 -4 13 -15 11 -33 -5 -32 11 -83 25 -83 5 0 7 -4 4 -8 -6 -10 21 -93 35
-106 5 -6 9 -18 9 -27 0 -10 11 -39 25 -65 14 -26 25 -55 25 -64 0 -10 7 -21
16 -24 9 -4 14 -13 10 -21 -3 -9 -2 -23 3 -33 5 -9 26 -55 46 -102 71 -162
137 -292 151 -297 8 -3 14 -16 14 -29 0 -13 10 -34 22 -46 13 -13 22 -28 20
-35 -4 -18 28 -64 40 -57 5 3 8 0 6 -8 -5 -21 43 -108 59 -108 8 0 13 -6 10
-12 -8 -22 89 -178 110 -178 8 0 13 -6 12 -12 -3 -26 1 -38 14 -38 7 0 13 -9
14 -21 2 -26 21 -49 40 -49 9 0 13 -6 9 -15 -3 -9 3 -24 14 -35 10 -10 26 -32
34 -47 14 -26 44 -65 79 -103 8 -8 22 -30 31 -47 9 -18 24 -33 33 -33 9 0 13
-3 10 -6 -10 -10 12 -44 28 -44 8 0 14 -3 14 -7 -3 -21 3 -32 22 -38 11 -4 18
-9 15 -12 -10 -10 14 -43 31 -43 9 0 13 -3 10 -6 -10 -10 12 -44 29 -44 8 0
13 -4 9 -9 -3 -6 12 -27 32 -49 77 -79 198 -213 205 -227 12 -20 370 -372 428
-420 27 -22 49 -46 49 -52 1 -7 5 -13 10 -13 6 0 38 -25 73 -55 34 -30 66 -55
70 -55 4 0 36 -28 72 -62 86 -84 115 -108 132 -108 8 0 14 -5 14 -10 0 -6 12
-16 26 -22 14 -7 42 -27 62 -46 34 -31 177 -133 222 -158 11 -6 28 -18 38 -27
10 -10 23 -17 29 -17 5 0 18 -9 28 -20 10 -11 23 -20 30 -20 7 0 20 -9 30 -20
10 -11 26 -20 37 -20 10 0 18 -4 18 -9 0 -11 97 -71 115 -71 8 0 19 -9 25 -20
6 -12 21 -20 35 -20 14 0 29 -8 35 -20 6 -11 21 -20 34 -20 13 0 31 -9 41 -20
10 -11 26 -20 37 -20 10 0 18 -4 18 -10 0 -5 12 -13 28 -16 15 -4 38 -15 51
-26 13 -10 32 -18 41 -18 10 0 23 -7 30 -15 7 -8 30 -20 51 -25 22 -6 39 -15
39 -19 0 -5 15 -14 33 -21 34 -13 98 -42 157 -70 19 -10 40 -16 47 -13 6 2 21
-5 33 -17 11 -11 25 -18 30 -15 9 6 41 -9 71 -33 10 -7 32 -14 50 -14 19 -1
46 -10 61 -21 14 -11 39 -19 55 -19 15 0 35 -6 43 -13 8 -7 36 -16 62 -19 25
-4 52 -13 58 -21 11 -13 55 -28 90 -31 37 -2 79 -17 74 -25 -5 -8 27 -13 66
-11 7 0 25 -5 40 -12 14 -7 31 -11 39 -8 9 3 11 0 6 -8 -6 -9 0 -10 23 -5 18
3 33 2 37 -5 3 -5 11 -8 16 -4 6 3 26 -2 45 -11 19 -9 38 -13 43 -10 5 3 13 0
16 -6 4 -5 13 -8 21 -5 7 3 16 1 20 -5 3 -6 18 -8 33 -4 15 3 43 -1 63 -10 20
-8 45 -12 54 -8 13 5 15 3 9 -7 -6 -10 0 -11 29 -6 22 4 36 3 36 -3 0 -6 21
-10 48 -10 85 0 102 -2 102 -12 0 -6 15 -7 38 -4 29 5 34 4 22 -5 -12 -9 -4
-10 33 -5 29 4 53 2 61 -4 7 -6 37 -10 67 -10 117 1 179 -2 179 -10 0 -4 47
-6 105 -3 58 3 105 1 105 -4 0 -5 63 -9 140 -9 77 0 140 4 140 9 0 5 45 7 100
4 55 -3 100 -1 100 4 0 8 50 10 203 8 43 0 67 4 67 11 0 8 14 9 45 5 32 -5 45
-4 45 5 0 7 11 9 35 5 21 -4 35 -3 35 3 0 6 12 10 28 11 73 2 111 6 118 12 4
4 26 5 48 2 32 -4 38 -3 26 6 -12 8 -6 9 24 4 27 -5 37 -3 32 4 -4 6 1 11 11
12 61 3 82 6 89 13 4 4 23 4 42 1 27 -5 33 -4 27 6 -6 10 -4 12 9 7 9 -4 30 0
47 8 16 9 39 13 53 9 13 -3 27 -1 30 5 4 5 13 8 20 5 8 -3 17 0 21 5 3 6 10 9
15 6 5 -3 23 1 40 10 17 9 39 13 50 10 10 -3 21 -1 25 5 3 6 11 8 16 5 5 -3
30 3 55 14 25 12 50 19 54 16 5 -3 12 0 15 6 4 5 14 8 22 5 8 -4 35 3 60 14
25 11 49 18 53 15 11 -7 71 15 92 33 10 8 24 12 32 9 17 -7 78 11 87 25 3 5
21 11 40 14 19 3 44 7 57 9 13 2 29 11 36 20 8 11 21 15 39 11 19 -3 35 2 55
18 15 13 40 24 55 24 16 0 42 9 59 22 16 12 35 19 42 17 8 -3 30 6 50 20 21
13 44 22 51 19 8 -3 17 -1 20 5 4 5 12 9 18 8 26 -3 37 2 37 17 0 11 6 15 20
11 12 -3 35 5 56 19 20 14 41 24 47 23 25 -3 37 2 56 22 11 12 25 19 33 16 15
-5 68 20 68 33 0 5 14 8 32 8 21 -1 37 6 49 20 9 12 25 22 34 22 9 0 29 6 43
14 15 8 42 20 60 26 17 7 32 16 32 20 0 4 12 10 28 13 15 3 38 15 51 26 13 12
30 21 38 21 7 0 35 12 63 27 39 21 47 30 38 40 -12 15 -68 18 -68 3 0 -5 -13
-7 -30 -4 -19 4 -30 2 -30 -5 0 -6 -17 -10 -37 -10 -150 0 -196 -3 -182 -12
10 -8 -3 -9 -41 -5 -41 5 -51 4 -40 -5 11 -8 5 -9 -27 -5 -26 4 -43 2 -43 -4
0 -5 -15 -10 -32 -10 -109 2 -168 -3 -168 -12 0 -6 -13 -8 -35 -4 -24 5 -35 3
-35 -5 0 -7 -11 -9 -35 -5 -21 4 -35 3 -35 -3 0 -6 -12 -10 -27 -10 -16 -1
-64 -1 -107 -2 -57 0 -76 -3 -65 -10 10 -7 -5 -8 -46 -4 -46 4 -56 3 -45 -5
11 -9 1 -10 -42 -6 -33 4 -58 2 -58 -3 0 -11 -102 -14 -480 -14 -380 0 -480 3
-480 14 0 6 -22 7 -52 4 -41 -5 -49 -4 -38 5 11 8 1 9 -45 5 -43 -5 -56 -3
-45 4 11 8 -5 11 -60 11 -41 0 -87 0 -102 1 -16 0 -28 4 -28 9 0 5 -15 7 -32
4 -26 -5 -30 -3 -18 6 12 9 7 10 -23 5 -21 -3 -44 -2 -50 4 -7 5 -23 9 -37 10
-74 1 -90 3 -90 12 0 5 -12 7 -27 3 -22 -4 -25 -3 -13 6 12 9 11 11 -10 9 -14
-1 -27 0 -30 1 -3 2 -21 4 -40 6 -46 4 -68 9 -76 16 -3 4 -13 4 -22 1 -11 -5
-13 -3 -7 7 6 10 2 11 -19 6 -15 -4 -32 -3 -39 1 -6 4 -18 8 -27 9 -19 3 -54
12 -57 14 -2 2 -7 3 -12 4 -5 0 -12 4 -16 8 -4 4 -14 4 -23 1 -11 -5 -13 -3
-7 7 6 10 1 12 -21 7 -19 -4 -44 2 -73 15 -24 12 -59 21 -78 22 -18 1 -37 6
-41 13 -11 18 -53 31 -89 27 -18 -2 -35 1 -38 6 -10 16 -74 40 -90 34 -7 -3
-27 4 -43 16 -17 13 -43 23 -58 23 -15 -1 -43 10 -62 23 -19 13 -44 24 -56 24
-12 0 -30 7 -40 15 -10 8 -22 12 -27 10 -4 -3 -29 7 -56 22 -26 15 -58 26 -70
25 -13 -1 -23 3 -23 8 0 14 -52 38 -69 32 -8 -3 -19 2 -25 10 -15 20 -50 38
-74 38 -11 0 -23 7 -26 16 -4 10 -12 14 -22 10 -9 -4 -28 4 -46 19 -16 14 -37
25 -47 25 -10 0 -28 11 -41 25 -13 14 -30 23 -38 20 -8 -3 -27 6 -44 20 -16
14 -38 25 -48 25 -11 0 -24 9 -30 20 -6 11 -21 20 -34 20 -13 0 -31 9 -41 20
-10 11 -26 20 -35 20 -9 0 -25 9 -35 20 -10 11 -26 20 -36 20 -10 0 -23 9 -29
20 -6 11 -19 20 -30 20 -10 0 -22 5 -26 11 -3 6 -22 17 -40 25 -19 8 -34 18
-34 23 0 5 -12 16 -27 23 -53 27 -78 43 -86 56 -4 6 -15 12 -23 12 -8 0 -17 7
-20 15 -3 8 -15 17 -27 21 -23 7 -235 158 -252 178 -5 7 -20 18 -32 25 -32 17
-222 169 -258 206 -16 18 -38 36 -47 41 -29 16 -166 141 -307 281 -74 73 -138
133 -143 133 -5 0 -7 4 -4 9 3 4 -15 30 -40 57 -43 47 -71 78 -132 151 -15 18
-34 40 -42 50 -8 9 -26 33 -39 53 -13 19 -30 42 -37 50 -46 50 -84 100 -128
165 -19 28 -39 49 -45 47 -7 -1 -11 4 -9 12 4 20 -44 95 -61 96 -8 0 -11 3 -8
6 10 10 -34 84 -50 84 -7 0 -10 6 -7 14 3 7 -6 30 -20 51 -14 21 -26 42 -26
46 0 5 -10 9 -21 9 -17 0 -20 5 -16 21 7 25 -12 59 -33 60 -10 0 -11 2 -2 6 9
3 7 15 -10 44 -12 21 -25 39 -30 39 -4 0 -7 3 -6 8 4 12 -24 72 -33 72 -5 0
-8 3 -7 8 4 12 -24 72 -34 72 -5 0 -7 4 -4 9 7 10 -54 132 -74 148 -9 7 -10
12 -3 13 18 0 3 40 -23 57 -17 11 -22 21 -18 38 3 13 -1 28 -9 36 -7 8 -12 20
-9 27 2 6 -3 15 -12 18 -10 4 -15 18 -14 41 1 26 -5 40 -22 53 -14 11 -21 23
-17 33 3 9 2 19 -4 22 -5 4 -7 11 -3 16 3 6 -1 18 -9 27 -8 9 -17 37 -20 61
-3 24 -15 57 -26 72 -14 19 -19 37 -16 52 7 26 -8 71 -31 94 -9 10 -13 25 -10
39 3 12 2 25 -3 28 -5 3 -7 16 -3 28 4 15 2 19 -8 13 -8 -5 -11 -3 -8 6 3 8
-1 29 -9 47 -7 18 -11 37 -8 42 4 6 3 16 -2 23 -4 6 -8 26 -9 43 0 18 -8 48
-17 67 -10 19 -14 42 -11 50 3 8 0 18 -6 22 -6 4 -8 20 -4 41 4 22 2 34 -5 34
-7 0 -9 9 -5 25 3 14 2 25 -3 25 -11 0 -13 14 -14 95 0 44 -3 56 -10 45 -8
-11 -9 -5 -4 23 4 25 2 37 -6 37 -8 0 -9 14 -5 45 5 29 4 45 -3 45 -6 0 -11
15 -10 33 1 17 -2 63 -5 101 -4 44 -2 74 5 83 6 7 8 21 4 30 -7 17 -8 16 -16
-2 -6 -13 -8 16 -6 83 2 56 0 102 -5 102 -4 0 -8 86 -8 190 0 107 4 190 9 190
5 0 7 45 5 103 -3 66 -1 95 5 82 8 -18 9 -19 16 -2 4 9 2 23 -4 30 -6 8 -8 38
-5 78 3 35 6 81 5 102 0 20 4 37 10 37 7 0 9 12 5 35 -5 23 -3 35 4 35 8 0 10
13 5 40 -5 28 -3 40 5 40 9 0 11 10 6 30 -3 17 1 50 9 75 9 24 13 56 9 70 -4
15 -2 25 5 25 6 0 8 7 5 15 -4 8 -1 15 6 15 9 0 11 10 6 31 -4 19 0 43 9 63 9
18 15 41 14 52 -4 37 1 55 13 48 8 -5 9 2 4 26 -4 22 -2 39 8 49 19 22 36 78
36 117 0 18 5 36 11 39 6 4 8 14 4 23 -3 8 0 19 6 23 6 3 14 26 16 50 3 24 12
48 20 54 8 6 15 26 15 45 1 19 12 55 25 79 12 24 23 55 23 69 0 14 7 34 16 44
9 10 17 32 18 50 1 18 9 39 18 46 10 7 20 29 24 49 4 20 17 52 30 71 18 27 21
38 13 48 -9 11 -4 21 21 44 19 18 30 36 27 45 -4 8 -2 17 4 20 14 9 69 127 63
137 -3 4 -1 8 4 8 11 0 82 136 82 159 0 9 8 21 18 27 9 6 31 38 47 70 17 33
32 61 35 64 14 13 70 108 70 118 0 7 5 12 10 12 6 0 16 12 23 27 6 15 20 36
30 45 9 10 17 25 17 33 0 8 4 15 9 15 5 0 24 24 42 53 19 28 39 58 46 65 7 7
13 19 13 25 0 6 9 20 20 32 47 48 69 78 64 86 -3 5 2 9 10 9 8 0 20 9 26 20 6
11 9 20 6 20 -3 0 15 21 39 48 43 47 78 86 135 151 16 18 27 38 23 44 -3 5 -2
7 3 4 6 -3 34 23 64 58 30 35 61 64 67 64 7 1 15 12 19 26 3 14 10 25 16 25
13 0 102 91 111 113 4 10 10 16 14 14 5 -3 35 21 68 54 33 32 63 59 68 59 4 0
7 7 7 15 0 9 8 19 18 22 25 9 77 55 74 65 -1 5 9 13 23 18 14 5 28 17 31 25 4
8 10 15 15 15 10 0 72 42 94 64 9 9 21 16 26 16 5 0 9 6 9 13 0 8 11 19 25 25
14 6 25 16 25 22 0 5 7 10 14 10 8 0 26 10 40 23 13 12 34 29 47 37 12 8 33
27 47 43 14 15 31 27 39 27 7 0 16 6 19 14 3 8 16 17 30 20 13 4 24 10 24 15
0 5 24 25 54 46 30 21 57 44 60 52 3 8 11 13 18 11 13 -3 54 22 89 55 10 9 23
17 28 17 6 0 17 9 25 21 8 12 19 18 25 15 6 -4 20 5 33 19 12 14 27 25 33 25
7 0 20 9 30 20 10 11 24 20 31 20 6 0 22 11 35 25 13 13 32 25 42 25 10 0 20
7 23 15 4 8 14 15 24 15 10 0 23 7 30 16 8 8 28 21 47 29 18 8 36 21 39 30 3
8 17 15 30 15 13 0 29 9 36 20 8 12 24 20 39 20 14 0 36 11 49 25 13 14 32 25
42 25 10 0 18 4 18 9 0 5 13 11 29 14 16 3 36 13 44 22 9 8 22 15 30 15 8 0
25 8 38 18 13 11 37 22 52 26 15 3 35 15 44 26 11 13 24 18 39 14 16 -4 25 0
33 14 6 12 25 22 49 26 21 3 47 15 57 26 11 12 27 19 37 17 10 -3 34 6 54 20
20 13 42 22 50 19 7 -3 29 6 50 20 20 14 42 23 49 20 7 -2 28 3 46 13 19 10
55 21 82 25 26 4 45 11 42 17 -4 5 3 9 14 9 11 0 23 5 27 11 3 6 16 8 27 5 12
-3 32 -3 45 1 18 4 21 8 10 15 -9 7 -8 8 7 5 11 -2 32 2 47 10 15 7 33 10 41
7 8 -3 18 -1 21 4 3 6 16 8 28 4 15 -4 19 -2 13 8 -5 8 -3 11 6 8 8 -3 28 1
44 8 17 7 43 10 59 7 22 -4 27 -3 21 7 -5 9 -2 10 13 6 11 -4 23 -2 27 4 3 6
11 8 16 5 5 -4 15 -3 22 2 18 11 37 15 80 14 20 0 37 5 37 10 0 7 12 8 30 4
20 -4 30 -3 30 5 0 8 10 9 30 5 17 -4 30 -2 30 3 0 9 57 15 153 13 40 0 56 3
51 11 -5 8 14 10 69 5 51 -4 77 -2 77 5 0 7 29 9 88 6 113 -7 152 9 166 65 7
26 6 41 -1 45 -6 4 -10 17 -9 30 1 19 -7 27 -39 39 -22 8 -48 15 -58 14 -9 0
-15 5 -11 10 4 6 -14 8 -48 4 -41 -5 -50 -4 -38 5 12 9 3 10 -37 5 -29 -4 -58
-3 -65 2 -12 8 -97 13 -200 13 -27 -1 -48 4 -48 9 0 6 -26 8 -67 5 -43 -4 -63
-2 -55 4 8 5 -36 7 -117 4 -71 -3 -138 -1 -148 3 -26 10 -252 12 -263 1z"/>
</g>
</svg>
