<?xml version="1.0" standalone="no"?>
<!DOCTYPE svg PUBLIC "-//W3C//DTD SVG 20010904//EN"
 "http://www.w3.org/TR/2001/REC-SVG-20010904/DTD/svg10.dtd">
<svg version="1.0" xmlns="http://www.w3.org/2000/svg"
 width="2000.000000pt" height="2000.000000pt" viewBox="0 0 2000.000000 2000.000000"
 preserveAspectRatio="xMidYMid meet">
<metadata>
Created by potrace 1.16, written by Peter Selinger 2001-2019
</metadata>
<g transform="translate(0.000000,2000.000000) scale(0.100000,-0.100000)"
fill="#000000" stroke="none">
<path d="M9951 14341 c-13 -10 -22 -24 -19 -32 3 -8 -6 -22 -19 -33 -17 -13
-23 -25 -19 -40 3 -12 -1 -32 -9 -43 -8 -11 -12 -23 -8 -26 3 -3 -2 -14 -12
-23 -12 -13 -14 -19 -4 -25 9 -5 8 -11 -5 -24 -11 -11 -14 -21 -7 -29 6 -7 9
-630 8 -1700 -2 -1356 -5 -1690 -15 -1694 -16 -5 -42 -55 -42 -80 0 -10 -12
-25 -26 -32 -14 -8 -30 -22 -35 -32 -5 -10 -21 -18 -34 -18 -14 0 -25 -4 -25
-10 0 -5 -7 -7 -15 -4 -8 4 -15 1 -15 -5 0 -6 -7 -8 -15 -5 -8 4 -15 2 -15 -3
0 -12 -19 -14 -90 -13 -40 0 -51 -2 -40 -10 11 -7 -17 -10 -92 -10 -63 0 -109
4 -113 10 -4 6 -15 8 -26 5 -12 -4 -29 1 -45 14 -13 11 -38 23 -54 26 -16 4
-28 12 -27 18 1 7 -5 11 -13 9 -8 -2 -12 0 -8 3 11 11 -11 45 -28 45 -11 0
-14 6 -10 16 7 18 -8 51 -36 77 -14 14 -18 26 -13 48 4 19 3 29 -5 29 -8 0
-10 12 -5 40 5 29 3 40 -6 40 -9 0 -10 18 -5 70 4 47 3 70 -4 70 -7 0 -10 42
-9 123 0 67 -2 171 -5 230 -5 76 -3 113 5 123 6 7 8 22 4 31 -7 17 -8 16 -15
-2 -6 -14 -9 -6 -9 31 -1 27 4 55 10 61 7 7 6 15 -5 26 -18 18 -21 53 -6 62
11 7 4 45 -9 55 -8 6 -11 32 -11 120 0 48 -3 61 -11 50 -8 -11 -9 -5 -4 23 4
24 2 37 -5 37 -7 0 -9 12 -4 35 4 24 1 47 -11 72 -14 28 -15 41 -7 54 9 14 8
22 -5 34 -12 13 -13 19 -4 24 10 6 9 12 -3 24 -9 8 -13 23 -10 31 3 9 1 16 -5
16 -6 0 -11 19 -11 44 0 26 -5 46 -12 49 -10 4 -10 7 0 15 11 7 8 20 -12 65
-15 31 -31 59 -37 63 -19 11 -32 -14 -34 -65 -1 -27 -7 -57 -14 -65 -7 -8 -10
-24 -6 -36 4 -12 2 -20 -5 -20 -8 0 -9 -10 -5 -31 5 -22 4 -29 -4 -25 -7 5
-11 -10 -10 -46 1 -89 -1 -108 -12 -108 -5 0 -7 -18 -3 -42 4 -32 3 -39 -5
-28 -7 11 -9 -10 -4 -72 3 -47 2 -94 -2 -105 -4 -10 -6 -61 -5 -113 2 -52 3
-139 3 -192 0 -54 4 -98 10 -98 5 0 6 -21 2 -50 -4 -33 -3 -50 4 -50 11 0 13
-19 12 -117 -1 -40 3 -63 10 -63 8 0 9 -15 5 -47 -5 -34 -4 -44 3 -33 9 12 11
10 11 -10 0 -15 -5 -31 -11 -37 -7 -7 -6 -15 6 -27 10 -9 14 -24 10 -35 -3
-11 -1 -22 5 -26 6 -4 9 -40 6 -96 -2 -50 0 -89 5 -89 5 0 9 -13 9 -30 0 -16
-5 -30 -11 -30 -8 0 -10 -16 -6 -53 6 -45 4 -55 -13 -70 -11 -9 -17 -23 -14
-31 7 -17 -108 -136 -131 -136 -8 0 -24 -9 -35 -20 -11 -11 -36 -21 -57 -24
-20 -2 -42 -11 -48 -20 -7 -9 -22 -16 -34 -16 -12 0 -30 -4 -41 -10 -11 -5
-29 -14 -40 -20 -11 -5 -31 -10 -44 -10 -35 0 -57 -10 -49 -23 4 -6 0 -8 -10
-4 -8 3 -18 0 -20 -8 -4 -8 -20 -13 -41 -12 -22 1 -47 -7 -66 -21 -20 -15 -38
-20 -53 -17 -15 4 -28 1 -36 -9 -9 -10 -22 -14 -40 -10 -18 4 -22 3 -12 -4 9
-7 1 -10 -30 -12 -69 -4 -133 0 -139 8 -3 4 -14 9 -25 10 -23 4 -48 22 -40 30
5 6 -31 69 -52 91 -8 7 -11 22 -8 32 4 11 2 19 -5 19 -8 0 -9 14 -4 45 4 31 3
45 -5 45 -8 0 -12 41 -12 143 0 169 -3 206 -14 231 -5 11 -4 26 3 37 9 14 8
21 -3 33 -8 8 -15 30 -14 48 1 86 -66 308 -94 308 -5 0 -5 4 -2 10 12 19 -67
140 -91 140 -17 0 -35 -48 -28 -76 4 -15 2 -24 -5 -24 -8 0 -9 -13 -5 -40 5
-28 3 -40 -6 -40 -8 0 -9 -10 -5 -30 5 -21 2 -35 -10 -46 -12 -13 -13 -19 -4
-30 8 -10 10 -55 7 -149 -3 -81 -1 -135 5 -135 5 0 6 -19 3 -45 -5 -30 -4 -45
4 -45 7 0 11 -29 11 -82 0 -46 1 -157 2 -248 1 -203 -2 -239 -24 -261 -10 -10
-24 -37 -30 -61 -7 -24 -16 -45 -20 -48 -4 -3 -9 -12 -11 -20 -2 -8 -12 -19
-23 -25 -11 -6 -19 -19 -19 -28 1 -9 -3 -14 -8 -11 -5 3 -17 -1 -26 -10 -69
-64 -109 -96 -124 -96 -10 0 -22 -9 -28 -20 -6 -11 -20 -20 -31 -20 -11 0 -31
-11 -45 -25 -13 -13 -30 -22 -37 -20 -6 3 -25 -6 -41 -20 -16 -14 -37 -25 -46
-25 -9 0 -27 -9 -40 -20 -13 -11 -31 -20 -40 -20 -9 0 -27 -9 -40 -20 -13 -11
-30 -20 -38 -20 -9 0 -23 -7 -33 -16 -12 -11 -27 -14 -48 -9 -29 6 -36 17 -33
55 2 23 -19 83 -35 98 -15 16 -17 29 -4 36 11 7 2 46 -10 46 -5 0 -6 14 -2 32
5 24 3 29 -7 23 -10 -6 -12 -4 -6 10 4 10 0 28 -9 42 -9 13 -14 27 -11 31 9
16 -14 116 -29 125 -12 6 -14 17 -10 38 7 31 -9 64 -26 53 -5 -3 -9 11 -9 31
0 29 -5 38 -20 42 -11 3 -20 10 -19 17 3 25 -3 35 -40 75 -40 42 -40 42 -70
20 -17 -13 -31 -29 -31 -36 0 -8 -7 -25 -16 -38 -9 -14 -12 -29 -8 -37 5 -7 7
-21 5 -32 -1 -10 3 -22 9 -26 7 -4 12 -32 12 -65 0 -35 4 -52 9 -43 7 10 9 9
9 -4 0 -9 -5 -18 -11 -20 -6 -2 -1 -14 10 -27 16 -18 21 -38 21 -81 0 -43 5
-63 20 -80 14 -16 20 -37 20 -72 0 -26 5 -48 10 -48 14 0 13 -27 -1 -32 -8 -3
-6 -9 4 -20 12 -11 14 -26 10 -52 -4 -24 -2 -36 6 -36 6 0 11 -9 11 -20 0 -11
-5 -20 -11 -20 -7 0 -9 -9 -5 -24 4 -16 1 -26 -9 -30 -8 -3 -15 -13 -15 -21 0
-9 -11 -32 -24 -52 -14 -19 -22 -42 -19 -49 3 -8 -1 -14 -10 -14 -15 0 -64
-57 -69 -81 -2 -7 -12 -18 -23 -24 -11 -6 -20 -17 -20 -25 0 -8 -16 -28 -35
-45 -64 -54 -114 -100 -141 -127 -15 -16 -34 -28 -43 -28 -9 0 -19 -6 -22 -14
-3 -8 -16 -17 -30 -20 -13 -4 -24 -10 -24 -15 0 -5 -35 -26 -77 -46 -43 -20
-86 -44 -95 -52 -10 -9 -25 -12 -37 -8 -13 4 -21 2 -21 -5 0 -7 -16 -10 -42
-8 -36 3 -43 6 -44 25 -2 30 -24 83 -36 83 -5 0 -7 4 -3 9 3 5 0 13 -6 16 -7
5 -8 25 -4 57 5 37 4 49 -4 44 -8 -5 -10 4 -5 31 5 30 2 42 -14 56 -11 11 -18
26 -15 37 3 11 -2 22 -15 29 -11 6 -34 24 -50 41 -40 39 -88 41 -131 4 -28
-23 -31 -30 -25 -63 3 -20 16 -45 27 -56 12 -11 21 -29 19 -40 -1 -11 8 -35
22 -54 14 -18 22 -40 19 -49 -4 -8 -2 -13 3 -9 5 3 10 -13 10 -35 1 -22 6 -43
12 -47 14 -8 14 -211 0 -211 -6 0 -7 -13 -3 -32 5 -26 4 -30 -5 -18 -10 12
-11 11 -7 -7 3 -13 1 -23 -5 -23 -6 0 -7 -11 -4 -25 5 -18 2 -27 -9 -32 -9 -3
-14 -11 -11 -18 3 -8 -2 -16 -10 -19 -8 -3 -14 -17 -14 -32 0 -15 -8 -33 -17
-40 -11 -7 -18 -25 -18 -43 0 -17 -3 -30 -6 -28 -14 5 -39 -27 -34 -44 4 -13
1 -19 -9 -19 -18 0 -36 -30 -36 -59 0 -12 -6 -21 -13 -21 -19 0 -67 -77 -60
-96 4 -10 -2 -17 -16 -21 -11 -3 -21 -9 -21 -13 0 -5 -11 -22 -25 -38 -15 -18
-23 -37 -19 -46 4 -11 1 -16 -10 -16 -22 0 -48 -43 -40 -65 5 -12 4 -16 -4
-11 -13 8 -36 -30 -27 -44 3 -6 -1 -10 -9 -10 -17 0 -39 -35 -33 -53 2 -6 -7
-20 -20 -31 -15 -11 -23 -27 -21 -39 2 -12 -7 -31 -20 -44 -26 -26 -26 -56 -1
-61 16 -3 39 18 111 101 102 116 195 216 335 356 84 85 153 159 153 163 0 5 4
6 10 3 9 -5 104 88 123 121 4 8 13 14 18 14 6 0 56 39 112 88 55 48 117 100
137 115 53 42 121 99 147 125 13 12 27 22 32 22 4 0 24 16 45 35 21 19 44 35
52 35 7 0 21 11 32 25 11 14 25 25 31 25 5 0 15 9 21 20 6 11 16 19 23 18 12
-3 53 23 88 55 10 9 21 17 23 17 12 0 96 62 96 71 0 5 8 9 18 9 11 0 27 9 37
20 10 11 22 20 28 20 14 0 107 62 107 72 0 4 7 8 16 8 21 0 124 67 124 81 0 5
9 9 21 9 12 0 34 11 51 25 16 14 38 25 49 25 10 0 19 5 19 10 0 6 11 10 25 10
14 0 28 7 31 15 3 8 21 19 39 25 18 6 43 20 56 30 12 11 30 20 39 20 9 0 27 9
40 20 13 11 31 20 42 20 10 0 27 9 39 21 11 11 26 18 34 15 7 -2 28 7 47 20
18 14 41 23 50 21 9 -3 27 6 39 19 18 19 30 23 50 19 22 -5 31 -1 45 20 11 18
23 25 36 22 10 -3 34 6 54 20 20 13 43 22 50 19 7 -3 16 -1 19 5 4 5 12 9 18
8 26 -3 37 2 37 17 0 12 6 15 24 10 16 -4 35 2 60 19 26 18 45 23 62 19 15 -4
24 -2 24 6 0 6 4 9 9 6 5 -3 19 3 32 13 13 10 39 18 57 18 19 0 46 10 64 23
19 14 45 23 69 23 21 0 36 4 33 9 -3 5 0 8 7 7 8 -2 24 2 37 9 12 7 27 10 32
7 13 -8 80 13 101 31 10 10 27 12 49 8 21 -5 31 -3 27 3 -4 5 7 10 24 10 17 0
34 6 39 13 4 7 26 13 49 13 22 0 38 3 36 7 -5 8 32 25 78 36 43 10 32 -16 -26
-61 -29 -22 -60 -43 -69 -47 -10 -4 -18 -13 -18 -19 0 -7 -18 -28 -39 -48 -22
-20 -41 -43 -43 -51 -2 -8 -12 -19 -23 -25 -11 -6 -19 -19 -19 -28 1 -9 -7
-19 -17 -22 -11 -4 -19 -11 -19 -16 0 -5 -8 -17 -17 -27 -25 -26 -63 -80 -63
-89 0 -5 -10 -13 -22 -18 -12 -6 -32 -29 -44 -53 -13 -24 -37 -58 -54 -75 -17
-17 -44 -54 -61 -82 -16 -27 -43 -70 -59 -95 -17 -25 -39 -63 -51 -85 -11 -22
-47 -91 -79 -154 -33 -63 -57 -118 -54 -122 3 -5 1 -9 -5 -9 -13 0 -53 -89
-49 -109 2 -9 -5 -24 -15 -34 -13 -13 -17 -27 -13 -43 4 -15 2 -24 -5 -24 -6
0 -9 -6 -6 -14 3 -8 -3 -26 -14 -39 -12 -17 -19 -41 -19 -71 0 -27 -5 -46 -11
-46 -7 0 -9 -10 -5 -25 4 -14 2 -25 -3 -25 -6 0 -7 -7 -4 -17 4 -11 3 -14 -5
-9 -8 5 -12 -5 -12 -31 -1 -77 -2 -83 -12 -83 -6 0 -8 -12 -5 -27 3 -16 -1
-32 -10 -41 -10 -10 -11 -18 -4 -25 13 -13 14 -54 2 -61 -4 -3 -6 -37 -3 -76
3 -44 1 -70 -6 -70 -5 0 -10 -22 -10 -50 0 -27 5 -50 11 -50 6 0 8 -24 5 -65
-4 -41 -2 -65 4 -65 7 0 8 -19 4 -51 -5 -35 -4 -49 4 -44 7 4 9 -8 6 -39 -2
-25 0 -48 5 -51 4 -3 6 -12 2 -20 -3 -8 -1 -15 3 -15 5 0 9 -21 10 -47 1 -26
6 -49 12 -51 7 -2 9 -14 6 -28 -4 -15 -2 -24 6 -24 6 0 10 -8 8 -18 -3 -22 22
-102 33 -102 5 0 6 -7 2 -16 -5 -13 2 -31 38 -106 5 -10 9 -23 9 -30 0 -7 13
-40 30 -73 16 -33 36 -77 44 -98 8 -20 22 -37 30 -37 10 0 16 -9 16 -25 0 -14
5 -25 11 -25 5 0 8 -4 5 -9 -8 -12 99 -201 114 -201 4 0 13 -13 20 -30 7 -17
16 -30 20 -30 4 0 13 -14 20 -30 7 -16 16 -30 19 -30 4 0 15 -16 24 -35 9 -19
24 -35 32 -35 9 0 13 -4 10 -10 -8 -13 43 -80 62 -80 8 0 12 -4 9 -9 -3 -5 4
-20 17 -34 12 -14 47 -53 77 -87 30 -34 60 -70 65 -80 6 -10 26 -30 45 -46 19
-16 37 -32 38 -36 2 -5 8 -8 14 -8 12 0 72 -59 66 -66 -3 -2 -24 -2 -48 2 -29
5 -44 13 -50 28 -5 12 -9 15 -9 9 -1 -14 -43 -18 -55 -5 -4 4 -24 8 -44 9 -65
4 -82 7 -82 16 0 5 -13 6 -29 2 -17 -4 -32 -2 -36 5 -4 6 -15 8 -25 5 -10 -3
-21 -1 -25 5 -4 6 -15 8 -25 5 -11 -3 -33 1 -50 10 -18 9 -40 13 -52 9 -15 -4
-18 -3 -13 6 6 10 1 12 -23 7 -17 -4 -34 -2 -37 4 -4 5 -15 7 -25 4 -11 -3
-30 1 -43 10 -14 9 -32 13 -42 9 -14 -6 -16 -4 -10 6 6 10 1 12 -23 7 -17 -4
-34 -2 -37 3 -4 6 -11 8 -16 4 -5 -3 -30 4 -54 16 -25 12 -52 19 -60 16 -8 -3
-15 -1 -15 5 0 6 -11 8 -29 4 -23 -5 -35 -1 -51 15 -15 15 -30 20 -46 17 -13
-2 -24 0 -24 5 0 5 -13 7 -31 3 -21 -5 -34 -2 -42 8 -15 18 -83 41 -97 32 -14
-8 -52 4 -45 15 7 12 -31 23 -80 23 -24 0 -44 6 -51 15 -7 9 -30 17 -58 18
-28 2 -57 11 -73 24 -14 11 -34 18 -43 15 -9 -3 -38 6 -64 20 -26 14 -51 23
-56 20 -9 -6 -61 12 -70 23 -8 12 -60 32 -81 32 -12 0 -32 9 -46 20 -14 11
-41 20 -59 20 -18 0 -35 4 -38 9 -3 5 -14 7 -25 4 -11 -3 -21 2 -24 11 -4 9
-13 13 -22 10 -9 -4 -24 1 -34 10 -11 10 -34 19 -52 21 -17 3 -43 15 -56 27
-17 15 -37 23 -61 23 -24 0 -36 4 -35 12 3 13 -38 28 -71 25 -10 0 -31 8 -47
20 -15 12 -41 21 -56 22 -15 1 -26 5 -25 10 5 12 -25 29 -37 21 -5 -3 -12 -1
-16 4 -3 6 -12 8 -19 5 -8 -3 -26 7 -40 21 -21 21 -32 25 -56 20 -19 -4 -30
-3 -30 4 0 14 -54 41 -82 41 -13 0 -29 9 -36 21 -9 14 -20 19 -33 16 -12 -3
-35 4 -56 19 -20 13 -48 24 -62 24 -16 0 -31 8 -39 21 -10 16 -19 19 -43 14
-18 -4 -29 -3 -29 4 0 6 -17 19 -37 28 -21 8 -49 21 -62 27 -13 6 -29 11 -35
11 -6 0 -38 13 -71 29 -33 16 -80 38 -105 49 -25 11 -57 26 -72 34 -14 7 -34
13 -45 13 -10 0 -24 9 -31 21 -10 16 -19 19 -42 14 -19 -4 -31 -2 -37 7 -4 7
-20 19 -35 25 -21 10 -29 9 -38 -2 -7 -9 -9 -22 -5 -32 5 -10 7 -23 6 -30 -2
-16 70 -82 90 -83 8 0 26 -11 39 -25 13 -14 31 -25 40 -25 9 0 25 -9 35 -20
10 -11 22 -20 27 -20 6 0 28 -16 51 -35 22 -19 48 -35 58 -35 9 0 24 -11 33
-25 9 -14 27 -27 40 -31 14 -3 27 -12 30 -20 3 -7 11 -11 19 -8 8 3 25 -6 38
-20 13 -14 30 -26 37 -26 7 0 20 -7 28 -15 9 -8 23 -15 33 -15 10 0 28 -11 41
-25 13 -14 32 -25 43 -25 10 0 30 -9 44 -20 14 -11 34 -20 44 -20 11 0 19 -4
19 -10 0 -5 16 -13 35 -19 19 -5 42 -16 51 -25 8 -9 23 -16 33 -16 10 0 28 -9
41 -20 13 -11 35 -23 49 -27 14 -3 37 -14 50 -25 13 -10 29 -18 36 -18 7 0 32
-11 55 -24 24 -13 49 -22 56 -19 8 3 17 -2 20 -12 4 -9 13 -14 21 -11 8 4 28
-5 45 -19 30 -25 39 -29 69 -26 9 1 24 -10 33 -24 14 -22 22 -25 46 -20 21 5
31 2 39 -12 6 -10 11 -14 11 -10 0 5 10 1 22 -7 12 -9 31 -16 42 -16 10 0 24
-7 31 -16 6 -9 29 -18 50 -21 23 -2 44 -12 52 -23 9 -12 26 -20 44 -20 16 0
41 -7 55 -17 14 -9 38 -16 54 -15 17 0 33 -5 37 -11 11 -17 59 -37 87 -37 13
0 35 -9 49 -20 14 -11 39 -20 56 -20 17 0 31 -4 31 -10 0 -5 7 -6 17 -3 10 4
14 2 10 -4 -9 -14 15 -23 62 -23 24 0 42 -7 54 -20 12 -14 29 -20 57 -20 23 0
40 -5 40 -11 0 -6 7 -9 15 -5 8 3 21 -2 30 -10 9 -9 22 -13 30 -10 9 3 34 -4
56 -16 23 -12 63 -23 90 -26 27 -2 49 -8 49 -12 0 -10 79 -32 91 -25 5 4 21 0
34 -9 13 -9 32 -13 41 -9 13 5 15 3 9 -7 -6 -10 -3 -12 13 -8 12 4 22 2 22 -3
0 -5 21 -9 46 -9 28 0 51 -6 61 -16 9 -8 24 -13 34 -11 11 3 19 1 19 -4 0 -4
12 -8 28 -8 45 0 62 -4 62 -14 0 -5 9 -7 20 -4 11 3 20 1 20 -5 0 -6 9 -8 20
-5 10 3 20 1 22 -4 2 -4 26 -9 53 -10 68 -2 96 -9 88 -22 -4 -6 4 -8 21 -5 14
3 26 1 26 -3 0 -5 15 -9 33 -9 70 2 97 -2 97 -11 0 -6 9 -7 21 -4 16 5 19 4
14 -5 -6 -10 1 -11 31 -6 28 5 35 4 24 -4 -12 -8 -7 -10 20 -9 71 2 120 -4
114 -13 -4 -6 9 -7 33 -3 29 5 35 4 23 -5 -12 -9 -5 -10 30 -5 32 4 41 3 30
-4 -11 -7 3 -10 50 -11 36 0 77 0 93 -1 15 0 27 -4 27 -10 0 -5 18 -7 43 -3
33 4 39 3 27 -6 -12 -9 -3 -10 36 -5 31 4 54 3 58 -3 5 -9 59 -13 175 -13 18
0 40 -7 49 -15 10 -11 18 -12 25 -5 16 16 66 13 84 -4 10 -10 19 -12 27 -6 6
5 38 10 71 11 76 3 83 2 65 -10 -19 -12 -6 -25 17 -15 28 13 885 13 905 1 9
-6 21 -6 25 -2 4 5 2 11 -5 13 -20 8 -3 23 21 19 57 -12 151 -16 137 -6 -11 7
-3 10 30 10 26 0 51 -5 57 -11 7 -7 15 -6 25 5 9 8 31 15 49 15 100 -1 169 5
169 14 0 6 23 8 63 4 45 -5 58 -4 47 4 -11 8 -6 9 23 4 23 -4 37 -2 37 5 0 5
15 10 33 10 129 -1 161 1 147 10 -12 8 -11 10 5 10 12 0 26 -5 32 -11 7 -7 15
-6 26 6 11 11 25 13 43 9 17 -4 25 -3 21 3 -6 10 17 13 101 13 30 0 41 3 36
11 -5 9 1 10 20 5 16 -4 26 -2 26 5 0 7 11 8 30 4 17 -4 30 -2 30 3 0 10 16
13 78 13 23 0 42 4 42 8 0 5 12 6 28 4 22 -4 24 -2 12 7 -12 9 -8 10 18 5 17
-4 32 -2 32 3 0 9 15 12 73 13 20 0 37 4 37 9 0 4 9 6 20 3 11 -3 20 -1 20 5
0 6 9 8 20 5 11 -3 20 -1 20 4 0 5 21 10 48 12 26 1 48 6 50 10 2 5 12 7 22 4
11 -3 20 -1 20 5 0 6 9 8 20 5 11 -3 20 0 20 6 0 6 19 11 45 11 25 0 45 4 45
9 0 5 10 7 22 3 15 -4 19 -2 13 7 -5 10 -2 11 14 6 11 -3 21 -2 21 3 0 5 24
12 54 14 32 3 61 11 71 21 9 9 32 17 51 17 19 0 34 5 34 11 0 6 11 8 28 5 18
-4 40 1 65 14 21 11 43 18 48 14 6 -3 22 -3 37 1 21 5 23 8 11 16 -10 8 -7 9
14 5 15 -4 27 -2 27 4 0 5 12 10 26 10 35 0 104 21 104 32 0 4 18 8 40 8 28 0
45 6 57 20 12 14 30 20 59 20 31 0 51 7 73 25 21 18 37 24 54 20 17 -5 33 1
56 20 17 15 38 25 46 22 7 -3 30 5 51 19 20 14 42 23 49 20 7 -2 22 2 34 10
11 8 21 12 21 9 0 -3 10 4 22 15 12 11 30 19 39 18 9 -2 27 2 40 8 13 6 44 20
69 31 25 11 62 27 83 36 20 9 37 22 37 28 0 6 7 8 16 5 9 -3 28 3 44 14 15 11
35 20 43 20 26 0 47 12 47 26 0 8 10 14 24 14 35 0 56 10 56 26 0 8 10 14 24
14 14 0 38 11 54 25 17 14 37 25 46 25 9 0 19 7 22 15 4 8 16 15 29 15 12 0
30 9 40 20 10 11 26 20 37 20 10 0 26 9 35 20 10 11 25 20 35 20 10 0 26 9 35
20 10 11 25 20 34 20 9 0 24 9 34 20 10 11 26 20 36 20 10 0 23 9 29 20 6 11
19 20 30 20 11 0 24 9 30 20 6 11 19 20 29 20 10 0 30 9 44 20 14 11 30 20 36
20 6 0 15 9 21 20 6 11 20 20 31 20 11 0 22 7 25 15 3 8 26 24 51 36 24 12 50
30 56 40 7 11 17 19 24 19 6 0 25 11 41 25 17 14 34 25 39 25 11 0 33 18 101
81 28 27 42 49 43 67 1 15 2 47 3 72 2 36 -2 49 -23 68 -14 13 -37 29 -51 35
-38 16 -108 17 -121 1 -17 -21 -38 -17 -32 6 3 11 0 20 -6 20 -6 0 -11 19 -11
45 0 25 -4 45 -10 45 -14 0 -13 27 1 32 8 3 6 10 -5 20 -9 9 -13 24 -10 32 3
9 1 16 -5 16 -7 0 -11 20 -11 50 0 28 -4 50 -10 50 -14 0 -13 27 1 32 8 3 6
10 -5 21 -10 9 -14 21 -11 27 3 5 2 10 -3 10 -9 0 -12 24 -12 103 0 20 -5 37
-10 37 -13 0 -13 33 1 47 7 7 6 15 -6 26 -10 11 -13 25 -9 42 3 14 2 25 -3 25
-11 0 -15 78 -16 270 0 176 4 232 20 249 10 10 11 16 2 27 -8 10 -7 18 6 31
12 11 14 18 6 21 -14 5 -14 32 0 32 7 0 9 10 5 25 -5 18 0 34 15 54 13 18 22
46 23 74 2 28 10 54 25 73 14 18 20 36 17 50 -4 16 2 31 19 50 15 16 25 39 26
58 3 137 3 137 -27 162 -41 34 -71 40 -94 19 -11 -10 -20 -24 -20 -31 0 -7 -9
-15 -19 -19 -25 -8 -64 -73 -56 -93 3 -8 -4 -25 -16 -38 -15 -16 -22 -36 -22
-66 1 -30 -5 -49 -19 -62 -13 -12 -18 -27 -15 -42 2 -14 0 -21 -6 -17 -6 4 -7
-7 -3 -30 5 -29 2 -43 -15 -66 -13 -17 -22 -46 -23 -75 -2 -31 -9 -51 -21 -60
-10 -7 -15 -18 -11 -24 4 -7 3 -12 -2 -12 -5 0 -23 -29 -41 -64 -26 -54 -46
-76 -67 -76 -2 0 -10 12 -18 28 -8 15 -25 39 -37 54 -13 14 -35 39 -47 55 -62
75 -153 164 -162 158 -5 -3 -10 -2 -10 4 0 5 -47 57 -105 116 -58 58 -105 109
-105 113 0 4 -20 29 -45 56 -24 27 -42 52 -40 57 6 9 -15 59 -26 59 -13 0 -20
33 -9 40 8 5 6 12 -5 24 -13 13 -14 20 -6 30 9 11 8 18 -4 29 -21 22 -21 142
1 164 11 11 12 19 5 26 -6 6 -11 25 -11 42 0 24 2 27 11 15 8 -11 9 -4 5 30
-3 32 1 57 16 88 16 36 17 46 6 53 -11 8 -11 10 1 18 9 6 11 19 6 42 -5 27 -4
31 5 19 9 -12 11 -7 6 23 -3 26 2 55 14 88 16 39 18 53 8 68 -9 15 -8 22 6 36
10 11 13 21 8 29 -13 16 -21 105 -11 112 5 3 9 -7 9 -21 0 -15 4 -24 10 -20 6
3 10 17 10 31 0 13 -4 24 -10 24 -5 0 -10 20 -10 45 0 25 5 45 10 45 6 0 10
11 10 24 0 14 -4 28 -10 31 -6 4 -10 -6 -10 -21 0 -20 -3 -25 -11 -17 -8 8 -8
17 1 32 13 25 5 61 -14 61 -11 0 -33 -31 -100 -140 -41 -67 -47 -81 -41 -100
4 -12 0 -22 -11 -28 -10 -6 -15 -16 -11 -26 4 -9 1 -16 -4 -16 -6 0 -9 -9 -6
-20 3 -11 0 -20 -5 -20 -6 0 -8 -12 -5 -29 4 -17 0 -36 -8 -47 -8 -11 -11 -30
-9 -44 4 -17 3 -21 -3 -12 -7 9 -13 -1 -20 -33 -6 -25 -6 -48 -2 -51 13 -8 11
-21 -7 -38 -22 -22 -35 -74 -21 -80 9 -3 8 -7 -1 -14 -8 -6 -11 -18 -7 -35 5
-19 1 -34 -14 -53 -17 -21 -19 -29 -9 -36 10 -6 10 -10 -1 -17 -7 -5 -10 -14
-7 -20 4 -6 3 -11 -2 -11 -6 0 -10 -26 -9 -58 0 -73 -8 -90 -34 -66 -10 9 -17
21 -16 27 1 7 -8 13 -20 15 -12 2 -25 12 -28 23 -4 10 -17 22 -31 25 -13 3
-24 10 -24 14 0 5 -9 12 -21 15 -12 4 -30 16 -40 26 -10 10 -25 19 -33 19 -8
0 -16 7 -19 15 -7 16 -78 55 -101 55 -8 0 -22 8 -32 17 -9 9 -33 18 -53 19
-21 1 -54 13 -75 28 -22 14 -47 26 -58 26 -10 0 -21 7 -24 15 -3 8 -15 17 -27
21 -26 8 -137 123 -137 143 0 19 -42 101 -51 101 -7 0 -8 13 -4 33 5 25 4 29
-5 17 -9 -12 -10 -4 -5 33 4 30 2 47 -4 47 -17 0 -13 70 5 87 11 11 12 19 5
26 -6 6 -11 25 -11 42 0 22 3 26 10 15 6 -11 9 -2 10 30 1 81 2 90 12 90 6 0
8 12 5 30 -4 19 -2 30 4 30 6 0 9 7 5 15 -3 8 -1 15 5 15 7 0 9 12 5 34 -4 21
-2 37 5 41 6 5 8 20 5 40 -4 20 -2 36 4 40 6 4 9 13 6 21 -3 8 -1 14 5 14 6 0
8 22 3 60 -4 33 -3 60 2 60 9 0 9 209 -1 218 -9 9 -5 23 5 17 6 -3 10 1 10 9
0 9 -5 16 -10 16 -6 0 -8 11 -4 25 4 16 2 25 -5 25 -8 0 -10 11 -5 35 4 21 2
35 -4 35 -12 0 -22 49 -11 56 8 5 -14 69 -38 109 -19 31 -43 8 -70 -66 -14
-35 -26 -68 -27 -74 -2 -5 -6 -18 -10 -27 -4 -9 -5 -22 -1 -29 4 -6 2 -15 -5
-19 -7 -5 -14 -23 -15 -42 0 -18 -7 -44 -15 -58 -7 -13 -14 -44 -14 -67 -1
-24 -4 -43 -9 -43 -4 0 -5 -11 -1 -25 4 -16 2 -25 -6 -25 -8 0 -9 -13 -4 -45
4 -31 3 -45 -5 -45 -8 0 -10 -11 -5 -35 4 -24 2 -35 -5 -35 -9 0 -10 -13 -6
-44 5 -28 3 -46 -4 -50 -7 -5 -9 -22 -5 -47 4 -24 3 -39 -4 -39 -7 0 -8 -34
-5 -100 4 -74 3 -100 -6 -100 -9 0 -10 -16 -5 -60 5 -45 3 -60 -6 -60 -7 0
-10 -7 -6 -15 3 -8 1 -15 -5 -15 -6 0 -9 -8 -7 -17 2 -9 -9 -31 -25 -47 -15
-17 -25 -36 -23 -42 6 -16 -37 -34 -65 -27 -20 4 -21 3 -9 -7 12 -9 1 -10 -45
-5 -43 4 -56 3 -45 -4 11 -8 5 -11 -27 -11 -24 0 -43 5 -43 10 0 6 -20 8 -55
4 -40 -5 -55 -3 -55 5 0 9 -9 11 -29 6 -17 -4 -32 -2 -36 5 -4 6 -16 8 -27 5
-12 -4 -27 0 -39 11 -10 9 -22 14 -25 11 -4 -3 -15 0 -26 7 -11 8 -27 12 -37
9 -10 -3 -28 6 -42 21 -13 14 -34 26 -46 26 -12 0 -27 9 -33 20 -6 11 -17 20
-24 20 -8 0 -19 7 -26 15 -7 8 -21 15 -32 15 -15 0 -18 5 -13 20 6 19 -3 25
-28 21 -5 -1 -6 3 -2 8 3 6 -3 19 -13 29 -11 11 -28 33 -38 51 -10 17 -24 31
-30 31 -7 0 -10 8 -7 19 3 11 -3 27 -15 39 -10 10 -23 37 -27 58 -4 22 -16 47
-26 57 -15 14 -19 26 -14 48 4 18 3 29 -4 29 -6 0 -11 9 -11 20 0 11 4 20 9
20 5 0 7 9 4 20 -3 11 -9 20 -14 20 -13 0 -11 88 2 92 9 3 9 9 0 25 -16 31
-14 111 4 129 11 12 12 19 3 34 -9 14 -9 25 0 44 6 14 9 39 6 56 -4 17 -2 36
5 44 6 7 9 28 5 47 -4 26 -3 31 5 19 9 -11 10 1 6 50 -4 36 -3 60 2 53 4 -6 8
114 8 267 0 153 -3 273 -7 267 -4 -7 -8 6 -8 29 0 22 5 45 11 51 7 7 6 15 -6
27 -10 10 -14 24 -10 36 4 12 2 27 -4 33 -5 7 -10 40 -10 72 -1 96 -2 110 -14
117 -9 6 -9 12 0 27 10 16 10 23 -1 33 -7 7 -14 22 -15 33 -1 11 -3 31 -5 45
-1 14 -4 31 -4 38 -1 6 -9 12 -17 12 -19 0 -35 -40 -35 -85 0 -19 -5 -37 -11
-41 -6 -3 -9 -15 -6 -25 3 -11 1 -19 -4 -19 -13 0 -27 -63 -17 -77 6 -7 6 -18
0 -29 -5 -9 -7 -25 -5 -35 3 -11 0 -19 -6 -19 -7 0 -9 -5 -6 -10 3 -6 -1 -18
-10 -27 -13 -12 -14 -18 -4 -24 9 -5 8 -11 -5 -24 -11 -11 -13 -21 -7 -29 6
-7 4 -25 -5 -51 -8 -22 -12 -50 -9 -63 3 -14 -1 -29 -10 -38 -12 -12 -13 -19
-4 -30 8 -10 7 -17 -5 -30 -13 -12 -14 -19 -5 -30 8 -10 9 -25 1 -56 -6 -24
-8 -55 -5 -70 3 -18 1 -28 -7 -28 -8 0 -10 -12 -5 -41 5 -28 3 -44 -5 -49 -8
-5 -9 -21 -2 -61 10 -55 3 -94 -9 -49 -5 22 -7 23 -14 7 -4 -11 -2 -28 5 -42
10 -19 11 -69 5 -227 -4 -112 -7 -227 -6 -255 1 -34 -2 -53 -9 -53 -8 0 -10
-14 -5 -42 5 -33 4 -40 -5 -28 -9 12 -10 10 -6 -12 4 -16 1 -28 -6 -30 -7 -3
-11 -19 -10 -41 2 -20 -1 -37 -5 -37 -11 0 -38 -62 -35 -77 2 -7 -3 -13 -10
-13 -15 0 -68 -50 -68 -64 0 -13 -50 -37 -61 -30 -5 3 -19 -2 -31 -10 -15 -11
-34 -13 -65 -9 -29 4 -43 2 -43 -6 0 -7 -23 -11 -65 -11 -36 0 -65 4 -65 9 0
5 -33 9 -72 9 -129 0 -168 4 -168 13 0 6 -16 7 -37 4 -30 -5 -35 -4 -23 5 12
9 7 10 -22 5 -26 -4 -38 -2 -38 6 0 7 -9 9 -26 5 -18 -5 -32 -2 -46 11 -11 10
-21 17 -22 15 -3 -7 -66 21 -66 29 0 5 -11 14 -25 19 -16 6 -23 15 -19 24 4 9
-6 28 -24 46 -26 26 -30 35 -25 72 3 33 2 39 -6 28 -8 -11 -10 302 -8 1108 1
643 -2 1122 -7 1122 -5 0 -7 71 -4 160 3 88 1 160 -3 160 -7 0 -11 77 -10 220
0 52 -3 70 -10 60 -7 -11 -8 3 -4 45 4 43 3 56 -4 45 -9 -12 -11 -10 -11 11 0
14 5 30 11 36 7 7 6 14 -3 24 -8 8 -15 23 -16 34 -1 11 -3 43 -5 70 -2 28 -7
58 -12 69 -5 11 -4 26 3 37 9 14 8 21 -3 33 -18 17 -19 33 -4 38 8 3 6 16 -6
42 -10 21 -18 52 -18 70 0 17 -4 36 -9 43 -5 6 -6 23 -2 37 4 17 2 26 -6 26
-8 0 -9 10 -5 30 4 18 3 30 -4 30 -6 0 -8 6 -5 13 2 7 -1 20 -8 29 -12 16 -15
16 -37 -1z m312 -4172 c15 0 27 -4 27 -10 0 -5 11 -7 25 -3 16 4 25 2 25 -6 0
-7 8 -9 20 -5 12 4 20 2 20 -6 0 -8 10 -9 31 -5 22 4 38 0 59 -15 17 -13 37
-20 49 -16 12 3 21 1 21 -5 0 -6 7 -7 16 -4 8 3 25 0 37 -6 12 -7 25 -12 29
-13 4 0 13 -6 20 -12 6 -7 22 -13 35 -13 12 0 37 -9 54 -19 17 -11 37 -17 45
-14 7 2 22 -5 33 -16 12 -12 28 -21 37 -21 9 0 29 -11 46 -25 16 -14 38 -25
48 -25 11 0 24 -9 30 -20 6 -11 19 -20 29 -20 10 0 26 -9 36 -20 10 -11 24
-20 30 -20 7 0 15 -7 19 -15 3 -8 12 -15 20 -15 16 0 79 -53 153 -128 23 -24
47 -41 53 -37 6 4 9 2 8 -3 -5 -15 62 -83 74 -76 6 4 8 3 5 -3 -4 -6 15 -33
41 -60 26 -27 48 -56 50 -64 2 -7 14 -24 28 -37 13 -13 24 -27 24 -32 0 -6 7
-10 16 -10 8 0 12 -5 9 -11 -4 -6 2 -20 13 -32 11 -12 34 -48 52 -79 17 -32
38 -58 46 -58 13 0 19 -13 15 -34 -3 -14 29 -76 39 -76 6 0 9 -3 8 -7 -4 -14
14 -56 42 -102 16 -26 32 -64 35 -86 4 -22 13 -49 19 -60 6 -11 11 -24 12 -30
3 -30 18 -64 30 -69 9 -3 14 -21 14 -50 0 -26 5 -46 13 -49 9 -4 9 -8 -1 -15
-12 -8 -12 -12 0 -23 8 -7 13 -23 10 -35 -2 -12 4 -36 12 -53 12 -21 15 -44
11 -69 -5 -29 -4 -34 5 -22 9 12 10 4 5 -32 -4 -33 -3 -48 5 -48 9 0 10 -17 5
-60 -5 -41 -4 -60 4 -60 7 0 11 -31 11 -90 0 -54 -4 -90 -10 -90 -6 0 -8 -20
-4 -55 5 -39 3 -55 -5 -55 -8 0 -9 -14 -5 -42 4 -32 3 -39 -5 -28 -8 12 -11 3
-11 -35 1 -89 -1 -105 -11 -105 -6 0 -8 -9 -4 -20 4 -11 2 -20 -4 -20 -6 0 -7
-7 -4 -17 5 -12 3 -14 -7 -8 -10 6 -12 1 -7 -23 4 -17 2 -34 -3 -37 -6 -3 -10
-15 -10 -26 0 -11 -7 -27 -15 -35 -8 -9 -15 -33 -15 -55 0 -21 -4 -39 -10 -39
-5 0 -6 -7 -3 -17 4 -10 2 -14 -4 -10 -15 9 -24 -19 -17 -48 3 -14 0 -26 -8
-32 -23 -14 -48 -61 -42 -77 3 -9 1 -16 -5 -16 -6 0 -17 -15 -26 -32 -8 -18
-30 -62 -50 -97 -19 -35 -35 -69 -35 -76 0 -7 -7 -19 -16 -26 -26 -21 -68 -92
-66 -111 0 -9 -8 -20 -18 -23 -11 -3 -22 -14 -25 -25 -3 -10 -12 -21 -20 -24
-8 -3 -15 -12 -15 -20 0 -16 -47 -70 -142 -165 -32 -32 -58 -62 -59 -67 0 -5
-22 -27 -49 -49 -27 -22 -64 -53 -82 -69 -18 -15 -44 -35 -58 -44 -14 -9 -31
-25 -38 -34 -7 -10 -19 -18 -27 -18 -8 0 -18 -6 -22 -13 -4 -7 -20 -18 -35
-24 -16 -7 -28 -17 -28 -23 0 -5 -9 -10 -20 -10 -10 0 -24 -9 -30 -20 -6 -11
-21 -20 -34 -20 -12 0 -33 -11 -46 -25 -13 -14 -32 -25 -42 -25 -10 0 -27 -9
-39 -21 -11 -11 -26 -18 -32 -16 -16 6 -67 -21 -67 -34 0 -7 -9 -9 -21 -6 -26
7 -70 -8 -86 -29 -7 -10 -28 -16 -57 -16 -25 -1 -43 -5 -41 -9 3 -4 -4 -5 -15
-2 -13 3 -22 -1 -26 -12 -5 -13 -14 -15 -45 -10 -27 5 -39 3 -39 -5 0 -7 -8
-9 -20 -5 -12 4 -20 2 -20 -5 0 -8 -9 -10 -25 -6 -14 4 -25 2 -25 -3 0 -12 -2
-12 -265 -12 -269 0 -275 1 -275 12 0 5 -12 6 -26 3 -21 -5 -25 -4 -19 6 6 10
0 11 -28 6 -22 -4 -38 -2 -42 4 -4 6 -15 8 -25 5 -11 -3 -30 1 -44 10 -14 9
-29 14 -35 11 -5 -3 -11 0 -13 6 -3 8 -21 12 -51 11 -26 -1 -47 3 -47 8 0 12
-68 39 -84 33 -7 -3 -30 6 -50 19 -21 15 -44 23 -56 20 -11 -3 -20 0 -20 6 0
13 -51 40 -67 34 -6 -2 -16 5 -22 16 -6 10 -24 22 -40 26 -16 3 -35 13 -42 21
-6 8 -17 14 -23 14 -6 0 -19 9 -29 20 -9 11 -26 20 -37 20 -11 0 -23 7 -26 15
-3 8 -15 17 -27 21 -12 4 -30 17 -40 30 -10 13 -23 24 -28 24 -5 0 -24 15 -44
33 -51 47 -92 77 -105 77 -6 0 -8 5 -5 10 9 15 -14 40 -37 40 -10 0 -17 4 -13
9 3 6 -14 30 -37 55 -68 73 -98 108 -98 117 0 5 -6 9 -14 9 -8 0 -13 8 -12 17
0 9 -10 23 -24 30 -14 7 -21 13 -17 13 14 0 -27 60 -41 60 -8 0 -12 6 -8 15 3
8 -1 21 -9 29 -8 8 -15 21 -15 29 0 8 -10 25 -22 39 -13 14 -24 32 -26 39 -2
8 -12 21 -22 31 -13 10 -16 18 -8 20 8 3 3 20 -14 54 -14 27 -35 70 -47 97
-11 26 -26 47 -33 47 -10 0 -10 2 0 9 11 6 10 15 -4 44 -10 21 -21 37 -26 37
-4 0 -7 15 -6 33 1 39 -19 106 -39 125 -9 9 -12 25 -8 42 6 29 -12 110 -26
110 -7 0 -9 14 -10 94 0 37 -3 46 -10 35 -8 -10 -9 3 -5 41 5 41 4 51 -5 40
-8 -11 -9 1 -4 48 4 40 2 62 -5 62 -6 0 -10 42 -10 116 0 91 3 119 16 131 11
11 12 19 5 26 -16 16 -13 46 5 64 11 11 12 19 5 26 -14 14 -14 47 0 47 7 0 8
11 4 31 -5 20 -2 36 8 47 17 20 27 57 34 127 3 28 8 52 12 55 12 10 31 62 25
71 -3 5 2 16 10 25 9 8 16 24 16 34 0 10 5 22 11 26 6 3 9 19 5 35 -4 21 -2
29 9 29 21 0 51 60 35 70 -9 6 -6 11 9 20 13 7 20 17 17 26 -3 8 0 13 7 11 7
-1 11 9 10 26 -1 17 3 27 12 27 17 0 64 89 58 108 -3 6 2 12 10 12 7 0 22 16
33 35 10 19 21 35 25 35 3 0 11 12 18 27 7 15 21 33 32 41 11 8 18 20 15 28
-3 8 1 14 9 14 8 0 20 10 26 23 14 25 17 30 131 150 46 49 98 97 115 109 18
11 33 26 33 34 0 8 6 14 14 14 7 0 25 10 39 23 59 52 84 71 119 94 21 13 38
28 38 33 0 6 9 10 19 10 11 0 28 11 39 25 11 14 29 25 41 25 11 0 26 9 33 20
7 11 22 20 34 20 11 0 31 9 44 20 13 11 31 20 40 20 9 0 25 7 36 15 10 8 28
15 40 15 24 0 74 22 74 33 0 4 14 7 31 7 20 0 28 4 23 12 -5 8 0 9 15 5 13 -3
28 1 38 11 10 10 33 17 57 18 22 0 41 5 44 12 2 6 10 8 18 5 8 -3 14 -1 14 4
0 11 18 14 68 13 17 0 32 5 32 11 0 6 9 8 20 4 12 -4 20 -2 20 5 0 8 9 10 25
6 16 -4 25 -2 25 5 0 7 11 10 28 7 15 -3 38 -2 52 2 14 4 111 6 215 4 105 -2
202 -4 218 -5z m1178 -120 c9 -4 25 -5 37 -2 13 3 22 1 22 -6 0 -7 9 -9 25 -5
16 4 25 2 25 -5 0 -7 10 -9 26 -5 19 5 25 3 20 -4 -5 -8 7 -12 36 -12 63 0 78
-2 78 -13 0 -5 9 -7 20 -4 11 3 20 1 20 -5 0 -6 9 -8 20 -5 11 3 20 2 20 -3 0
-4 18 -7 41 -7 23 0 45 -6 49 -13 5 -7 22 -13 39 -13 16 0 28 -4 25 -9 -3 -4
10 -8 28 -8 19 0 52 -9 73 -20 24 -12 49 -18 63 -15 16 4 33 -2 53 -20 17 -14
43 -25 58 -25 15 0 44 -9 65 -19 21 -11 43 -17 51 -15 7 3 29 -6 49 -20 21
-14 43 -23 50 -20 8 3 25 -6 39 -20 17 -17 32 -23 46 -19 14 4 27 -2 39 -17
11 -14 29 -22 46 -22 15 0 39 -11 54 -25 14 -13 32 -21 39 -19 7 3 24 -6 37
-19 15 -15 31 -22 41 -19 10 4 22 -1 31 -15 8 -11 23 -21 33 -21 10 0 28 -11
41 -25 13 -14 31 -25 41 -25 9 0 22 -7 29 -15 6 -8 21 -17 32 -21 11 -3 29
-15 39 -25 10 -10 28 -19 39 -19 11 0 20 -7 20 -15 0 -14 11 -19 36 -16 6 1
19 -10 28 -24 9 -14 22 -25 30 -25 7 0 21 -9 30 -19 10 -11 24 -17 31 -15 7 3
18 -3 24 -15 6 -11 20 -22 31 -26 11 -3 38 -24 61 -46 22 -21 45 -39 50 -39 5
0 18 -9 29 -20 11 -11 27 -20 35 -20 8 0 15 -5 15 -10 0 -6 11 -15 25 -20 14
-5 25 -13 25 -18 0 -4 42 -44 93 -87 89 -77 314 -299 383 -380 19 -22 52 -59
74 -83 22 -24 40 -48 40 -52 0 -5 9 -14 20 -20 11 -6 20 -16 20 -23 0 -20 49
-81 71 -89 13 -5 19 -14 15 -23 -5 -15 46 -95 94 -144 13 -14 23 -34 21 -44
-1 -12 5 -20 18 -24 14 -4 21 -13 21 -29 0 -14 7 -27 15 -30 8 -4 15 -17 15
-29 0 -13 11 -37 25 -53 14 -17 25 -36 25 -44 0 -8 9 -24 20 -36 11 -12 20
-29 20 -39 0 -10 9 -29 20 -43 11 -14 20 -34 20 -46 0 -12 11 -33 25 -48 13
-14 22 -32 19 -40 -7 -18 54 -116 72 -116 9 0 13 -4 10 -9 -7 -11 84 -101 101
-101 7 0 12 -5 10 -12 -1 -7 17 -16 41 -22 55 -12 52 -32 -7 -56 -24 -9 -49
-24 -56 -33 -7 -10 -20 -17 -29 -17 -9 0 -19 -7 -22 -15 -4 -8 -12 -15 -18
-15 -7 0 -23 -11 -36 -25 -13 -14 -29 -25 -36 -25 -7 0 -21 -8 -31 -19 -10
-10 -30 -21 -45 -25 -16 -4 -28 -13 -28 -22 0 -10 -6 -14 -14 -11 -8 3 -24 -5
-37 -19 -12 -13 -28 -24 -35 -24 -6 0 -17 -7 -24 -15 -7 -8 -21 -15 -32 -15
-10 0 -21 -7 -24 -15 -4 -8 -12 -15 -19 -15 -7 0 -15 -7 -19 -15 -3 -8 -14
-15 -25 -15 -11 0 -23 -5 -26 -10 -4 -6 -22 -17 -41 -25 -19 -8 -37 -21 -40
-30 -3 -8 -17 -15 -30 -15 -13 0 -24 -4 -24 -10 0 -5 -11 -10 -25 -10 -13 0
-28 -6 -32 -14 -4 -7 -29 -23 -55 -34 -27 -12 -48 -25 -48 -30 0 -5 -12 -9
-27 -9 -14 0 -33 -9 -40 -19 -8 -11 -26 -20 -41 -21 -15 -1 -33 -10 -40 -20
-7 -10 -18 -18 -25 -19 -23 -1 -57 -15 -57 -25 0 -5 -14 -9 -30 -9 -18 0 -33
-6 -36 -15 -3 -8 -24 -20 -46 -25 -21 -6 -48 -20 -59 -31 -11 -11 -26 -18 -32
-16 -7 2 -36 -9 -65 -24 -30 -16 -58 -27 -62 -24 -5 3 -19 -4 -30 -15 -14 -14
-28 -18 -44 -14 -16 4 -32 -2 -54 -21 -17 -14 -45 -28 -62 -30 -18 -2 -40 -11
-51 -21 -10 -9 -25 -14 -35 -10 -23 9 -56 -3 -48 -16 4 -6 2 -8 -4 -4 -6 3
-13 2 -17 -4 -3 -5 -17 -10 -30 -10 -30 0 -77 -20 -88 -38 -6 -9 -18 -11 -34
-7 -31 7 -65 -3 -57 -17 5 -7 1 -9 -9 -5 -9 3 -17 1 -20 -6 -2 -7 -22 -12 -45
-13 -27 0 -53 -8 -73 -23 -17 -13 -37 -20 -46 -17 -20 8 -84 -11 -98 -29 -6
-7 -28 -12 -50 -12 -24 1 -58 -8 -83 -21 -24 -12 -47 -20 -52 -17 -5 3 -11 1
-15 -5 -3 -5 -16 -8 -28 -5 -12 3 -39 -3 -61 -14 -24 -13 -49 -18 -63 -15 -13
4 -23 2 -23 -4 0 -6 -9 -8 -20 -5 -11 3 -20 0 -20 -6 0 -5 -7 -8 -15 -4 -9 3
-24 -2 -35 -12 -11 -10 -26 -14 -38 -10 -11 3 -23 1 -27 -4 -3 -6 -20 -8 -37
-4 -24 5 -29 3 -23 -7 5 -9 2 -10 -13 -6 -13 4 -31 1 -45 -9 -16 -10 -34 -13
-55 -9 -21 4 -32 3 -32 -5 0 -7 -9 -9 -25 -5 -15 4 -25 2 -25 -5 0 -6 -6 -8
-14 -5 -8 3 -28 -1 -44 -10 -19 -10 -42 -13 -67 -9 -30 5 -36 3 -30 -7 6 -10
2 -11 -19 -6 -16 4 -26 2 -26 -5 0 -7 -11 -8 -30 -4 -18 4 -30 3 -30 -4 0 -6
-6 -8 -14 -5 -8 3 -17 0 -21 -6 -4 -7 -22 -9 -51 -4 -32 4 -44 3 -44 -6 0 -8
-9 -10 -25 -6 -15 4 -25 2 -25 -5 0 -7 -11 -8 -30 -4 -19 4 -30 3 -30 -4 0 -6
-9 -11 -20 -11 -10 0 -30 -5 -44 -11 -14 -7 -33 -8 -43 -5 -16 6 -14 11 17 36
19 16 40 30 45 30 11 0 260 242 273 265 6 12 33 42 170 192 13 14 35 44 50 67
27 41 38 56 57 79 14 16 65 91 100 147 15 25 35 56 44 70 33 49 82 150 78 158
-2 4 4 21 14 37 31 51 49 97 42 107 -3 6 4 18 17 28 17 13 22 27 22 59 -1 23
3 39 9 36 9 -6 20 14 24 43 1 10 5 26 9 37 21 54 26 75 30 132 3 41 10 69 21
80 12 11 14 18 6 21 -13 4 -15 32 -2 32 10 0 13 31 11 113 0 29 4 47 11 47 7
0 9 12 5 35 -5 26 -3 40 9 52 12 11 13 19 6 26 -15 15 -15 319 0 334 7 7 6 15
-6 26 -12 13 -14 27 -9 67 5 36 3 50 -6 50 -8 0 -10 9 -5 29 4 17 2 32 -5 36
-7 4 -9 19 -5 36 4 18 3 29 -4 29 -15 0 -14 27 1 32 8 3 7 8 -3 18 -9 8 -13
25 -11 42 3 19 -1 30 -12 34 -13 5 -15 14 -11 34 4 18 1 33 -9 42 -8 9 -12 24
-9 37 3 13 1 21 -7 21 -6 0 -10 10 -9 23 3 28 -11 77 -21 77 -4 0 -8 6 -7 13
1 37 -5 57 -28 81 -15 16 -25 39 -25 56 0 29 -28 89 -56 121 -8 8 -14 20 -14
26 0 16 -39 101 -50 108 -5 3 -19 25 -30 48 -30 63 -86 148 -123 187 -18 19
-38 47 -45 63 -6 15 -18 27 -26 27 -9 0 -13 6 -11 13 3 6 -15 35 -40 62 -25
28 -63 69 -83 93 -64 73 -165 171 -210 203 -23 17 -40 35 -36 40 6 11 77 3
105 -12z m3047 -1508 c-5 -24 -33 -19 -36 6 -3 17 1 20 18 16 12 -3 20 -12 18
-22z"/>
<path d="M9921 9115 c-27 -15 -45 -41 -37 -54 3 -4 -4 -28 -15 -51 -12 -24
-19 -54 -16 -67 3 -15 -2 -27 -12 -33 -9 -4 -13 -12 -9 -15 4 -4 0 -14 -8 -23
-11 -10 -14 -25 -10 -45 5 -23 2 -30 -13 -34 -22 -6 -48 -56 -32 -61 19 -6 12
-22 -14 -32 -17 -6 -27 -20 -31 -40 -4 -16 -10 -30 -14 -30 -4 0 -13 -13 -20
-30 -7 -16 -16 -30 -21 -30 -5 0 -15 -12 -22 -27 -18 -43 -217 -233 -243 -233
-7 0 -18 -9 -24 -20 -6 -11 -20 -20 -31 -20 -11 0 -31 -11 -45 -25 -14 -14
-30 -23 -35 -19 -6 3 -19 -2 -30 -12 -10 -9 -19 -13 -19 -9 0 5 -6 0 -14 -10
-7 -10 -20 -16 -29 -12 -8 3 -23 0 -33 -8 -10 -7 -24 -11 -31 -8 -7 3 -13 0
-13 -6 0 -6 -18 -11 -41 -11 -28 0 -38 -4 -33 -12 5 -7 2 -9 -8 -5 -9 3 -24
-1 -35 -8 -10 -8 -26 -15 -35 -15 -10 0 -23 -9 -30 -20 -7 -11 -17 -20 -23
-20 -5 0 -25 -15 -44 -32 -34 -31 -34 -31 -10 -49 14 -10 40 -17 63 -17 21 0
41 -4 45 -9 9 -15 79 -36 92 -28 6 4 19 -2 30 -14 11 -12 25 -19 30 -15 5 3
16 0 24 -6 8 -6 18 -9 23 -6 5 3 17 -3 27 -14 10 -11 28 -20 40 -20 12 0 32
-9 45 -20 13 -11 30 -20 39 -20 9 0 24 -9 34 -20 9 -11 22 -20 29 -20 7 0 35
-20 61 -45 27 -25 52 -43 57 -40 4 3 10 -5 13 -16 4 -16 11 -20 27 -16 16 4
20 2 16 -9 -3 -9 2 -18 14 -22 18 -7 20 -10 20 -31 0 -5 18 -22 40 -39 22 -16
37 -32 33 -36 -4 -4 5 -18 19 -31 15 -13 29 -34 33 -45 3 -11 11 -20 16 -20 5
0 9 -9 9 -19 0 -11 4 -22 9 -25 5 -3 19 -27 31 -53 12 -26 30 -53 40 -60 11
-8 16 -20 13 -32 -3 -11 4 -33 15 -48 11 -16 23 -42 26 -58 9 -50 18 -75 27
-75 6 0 9 -17 7 -37 -1 -22 3 -38 10 -41 7 -2 12 -12 12 -22 0 -29 11 -50 26
-50 20 0 94 48 94 61 0 5 10 23 21 39 17 22 20 36 15 64 -5 27 -3 38 8 42 18
7 37 59 30 79 -3 8 6 29 20 48 15 20 26 47 26 65 0 20 5 31 12 30 7 -2 20 12
29 29 9 18 22 39 28 47 6 7 9 21 5 30 -4 9 -1 16 6 16 13 0 49 40 50 55 0 6 9
16 21 23 11 7 19 18 17 24 -2 6 28 40 66 76 39 36 78 73 88 83 9 11 24 19 32
19 9 0 19 7 22 15 4 8 12 15 19 15 8 0 20 6 27 13 7 6 27 19 43 27 17 8 36 21
43 28 7 6 21 12 30 12 9 0 32 9 50 20 18 11 40 20 50 20 31 0 93 21 87 29 -7
12 33 21 64 15 18 -4 40 4 74 26 44 30 47 35 47 75 0 48 -24 75 -67 75 -13 0
-23 5 -23 11 0 6 -9 9 -20 6 -11 -3 -20 -1 -20 5 0 6 -9 8 -20 5 -11 -3 -20
-1 -20 4 0 5 -11 7 -24 3 -15 -3 -27 -1 -33 8 -12 19 -49 38 -74 38 -11 0 -34
9 -50 21 -16 11 -34 17 -39 14 -6 -4 -23 5 -37 19 -14 14 -34 26 -45 26 -10 0
-21 7 -24 15 -3 8 -16 17 -27 21 -34 10 -240 187 -230 197 5 5 -51 86 -85 124
-11 12 -23 36 -27 53 -4 17 -13 34 -21 37 -8 3 -11 9 -8 14 3 5 -2 12 -10 15
-11 4 -14 14 -10 29 7 28 -11 65 -32 65 -10 0 -13 7 -8 25 7 28 -15 85 -33 85
-16 0 -17 12 -2 27 9 9 5 24 -16 60 -53 92 -80 108 -134 78z"/>
</g>
</svg>
