<?xml version="1.0" standalone="no"?>
<!DOCTYPE svg PUBLIC "-//W3C//DTD SVG 20010904//EN"
 "http://www.w3.org/TR/2001/REC-SVG-20010904/DTD/svg10.dtd">
<svg version="1.0" xmlns="http://www.w3.org/2000/svg"
 width="2000.000000pt" height="2000.000000pt" viewBox="0 0 2000.000000 2000.000000"
 preserveAspectRatio="xMidYMid meet">
<metadata>
Created by potrace 1.16, written by Peter Selinger 2001-2019
</metadata>
<g transform="translate(0.000000,2000.000000) scale(0.100000,-0.100000)"
fill="#000000" stroke="none">
<path d="M10706 14031 c-3 -4 -19 -11 -35 -14 -18 -4 -32 -14 -36 -27 -3 -11
-22 -37 -41 -57 -26 -27 -34 -43 -30 -59 4 -16 1 -23 -14 -27 -14 -3 -20 -14
-20 -32 0 -17 -9 -35 -26 -47 -14 -11 -23 -27 -20 -34 3 -8 -6 -26 -20 -41
-14 -15 -22 -33 -19 -43 3 -10 -5 -26 -20 -40 -18 -17 -23 -30 -19 -47 4 -16
2 -23 -9 -23 -17 0 -27 -21 -27 -56 0 -14 -6 -24 -14 -24 -14 0 -26 -21 -26
-46 0 -9 -12 -31 -26 -50 -15 -19 -23 -34 -18 -34 4 0 -2 -10 -13 -22 -32 -37
-64 -100 -58 -115 3 -9 -2 -17 -15 -20 -10 -3 -31 -25 -46 -50 -14 -25 -35
-54 -45 -64 -10 -10 -19 -25 -19 -33 0 -8 -7 -16 -15 -20 -8 -3 -14 -10 -13
-17 2 -6 -7 -18 -20 -26 -21 -15 -22 -14 -28 15 -3 17 -14 39 -24 50 -10 10
-25 33 -34 50 -9 18 -20 32 -25 32 -5 0 -12 11 -15 25 -4 15 -18 30 -32 35
-17 7 -24 15 -20 25 3 8 -8 34 -25 58 -16 23 -46 66 -66 95 -20 28 -39 52 -43
52 -4 0 -13 14 -20 30 -7 17 -18 30 -26 30 -7 0 -11 6 -8 14 5 13 -35 70 -67
93 -9 7 -20 24 -23 38 -4 14 -13 25 -21 25 -8 0 -12 6 -9 13 6 18 -77 85 -131
105 -37 13 -49 14 -65 4 -11 -6 -27 -12 -35 -12 -8 0 -20 -9 -27 -20 -7 -11
-18 -20 -25 -20 -30 0 -59 -119 -33 -135 6 -3 10 -14 10 -23 0 -9 11 -30 25
-47 13 -16 32 -40 42 -53 10 -13 23 -29 29 -36 6 -6 15 -22 19 -35 3 -12 18
-26 31 -31 17 -7 23 -16 21 -32 -1 -15 6 -26 23 -35 14 -7 21 -13 17 -13 -14
0 23 -52 96 -134 43 -49 51 -58 81 -103 16 -24 32 -43 37 -43 4 0 10 -9 14
-19 3 -11 15 -23 26 -26 13 -4 18 -12 15 -22 -4 -8 6 -27 24 -45 17 -16 28
-34 25 -39 -4 -5 4 -19 17 -32 13 -13 22 -31 20 -40 -2 -10 8 -33 21 -50 18
-24 24 -41 20 -61 -5 -22 -3 -27 7 -21 9 5 10 2 5 -14 -4 -12 -2 -21 4 -21 13
0 15 -46 2 -54 -10 -7 -2 -56 9 -56 4 0 8 -10 8 -22 0 -13 3 -59 6 -102 3 -51
2 -84 -5 -93 -6 -7 -8 -21 -4 -30 7 -17 8 -16 16 2 6 13 8 -14 5 -77 -3 -56 0
-98 5 -98 5 0 9 -139 9 -337 0 -226 -4 -333 -10 -323 -9 14 -6 -89 5 -162 5
-33 -12 -48 -18 -16 -3 21 -4 22 -12 4 -5 -11 -4 -26 3 -37 8 -13 10 -47 6
-106 -4 -49 -7 -103 -6 -122 0 -18 -6 -40 -14 -49 -11 -10 -12 -18 -5 -25 14
-14 14 -67 1 -67 -6 0 -8 -16 -4 -42 5 -30 4 -39 -5 -34 -15 10 -26 -21 -13
-37 5 -6 8 -34 5 -62 -3 -27 -5 -65 -4 -82 1 -18 -4 -33 -9 -33 -7 0 -9 -14
-5 -37 5 -29 4 -35 -5 -23 -8 11 -9 3 -5 -35 5 -37 4 -46 -4 -35 -8 11 -10
-10 -7 -78 4 -99 -6 -123 -33 -81 -32 49 -84 99 -103 99 -14 0 -18 5 -14 18 4
13 -1 22 -16 31 -46 24 -64 39 -126 99 -34 34 -69 62 -77 62 -8 0 -15 7 -15
15 0 9 -8 19 -17 22 -10 4 -59 40 -109 80 -50 40 -96 73 -101 73 -6 0 -23 18
-38 40 -15 22 -36 42 -46 45 -11 4 -33 24 -51 46 -17 21 -39 39 -49 39 -9 0
-19 9 -22 21 -3 11 -15 23 -26 26 -11 3 -18 9 -15 14 3 5 -14 28 -38 52 -24
24 -52 56 -63 71 -11 14 -25 32 -31 39 -17 19 -134 234 -134 246 0 6 -4 11
-10 11 -5 0 -10 13 -10 29 0 43 -10 66 -22 49 -7 -10 -8 -8 -7 7 1 11 0 23 -1
28 -1 4 -3 10 -4 15 -1 4 -6 17 -10 30 -5 14 -3 28 4 37 15 18 5 49 -11 39 -9
-5 -10 4 -5 34 4 26 2 42 -4 42 -6 0 -10 32 -10 78 0 56 3 73 11 62 7 -11 8
-1 4 36 -4 30 -3 54 3 58 12 7 -6 86 -20 86 -5 0 -8 8 -7 18 3 32 -1 40 -32
71 -24 24 -39 31 -70 31 -24 0 -38 -4 -34 -10 3 -5 0 -7 -9 -4 -9 3 -30 -11
-56 -37 -33 -34 -40 -48 -35 -67 4 -15 2 -21 -5 -17 -6 3 -10 -3 -10 -14 0
-12 4 -21 9 -21 6 0 7 -16 4 -35 -4 -26 -2 -36 10 -41 11 -4 14 -14 10 -40 -4
-22 -2 -34 6 -34 14 0 14 -27 0 -32 -8 -3 -5 -10 6 -22 14 -13 15 -20 6 -25
-10 -6 -9 -11 1 -22 18 -18 19 -30 19 -226 1 -206 1 -200 -18 -207 -12 -5 -13
-9 -3 -21 7 -9 10 -18 6 -22 -6 -6 -16 -2 -91 33 -19 9 -44 12 -65 8 -23 -4
-31 -3 -22 4 19 13 -11 24 -42 16 -17 -4 -27 1 -40 20 -10 16 -26 26 -40 26
-12 0 -31 9 -41 20 -10 11 -26 20 -36 20 -9 0 -19 5 -21 11 -4 11 -32 16 -114
20 -64 3 -95 -18 -124 -83 -32 -73 -27 -120 16 -168 20 -22 42 -40 50 -40 7 0
18 -9 24 -20 6 -12 21 -20 35 -20 14 0 25 -4 25 -9 0 -5 15 -14 33 -21 17 -6
48 -21 68 -31 20 -10 44 -19 53 -19 9 0 25 -9 36 -20 11 -11 27 -20 35 -20 8
0 15 -4 15 -9 0 -9 28 -22 60 -27 21 -4 54 -12 58 -14 1 -2 6 -3 11 -4 5 0 12
-4 16 -8 4 -4 14 -4 23 -1 10 4 13 2 8 -5 -5 -8 4 -12 31 -13 34 0 92 -16 68
-18 -18 -2 19 -21 40 -21 18 0 80 -26 125 -52 8 -5 29 -15 47 -23 17 -8 34
-19 38 -25 3 -5 14 -10 24 -10 10 0 26 -11 35 -25 9 -14 23 -25 31 -25 8 0 33
-18 57 -40 24 -22 48 -40 53 -40 6 0 15 -10 20 -22 6 -13 17 -23 25 -23 8 0
27 -16 43 -37 21 -27 32 -35 48 -31 17 5 20 2 15 -13 -8 -25 85 -121 105 -109
7 5 10 4 5 -3 -7 -11 93 -118 107 -114 5 1 6 -2 2 -8 -4 -6 13 -30 37 -54 23
-24 61 -64 83 -90 22 -26 59 -66 83 -90 23 -24 42 -48 42 -54 0 -5 34 -35 76
-67 52 -41 72 -61 65 -68 -8 -8 -21 -7 -44 1 -18 7 -44 12 -58 12 -19 0 -21 2
-9 10 11 8 -4 9 -50 5 -43 -3 -58 -2 -45 4 18 8 19 9 2 16 -9 4 -23 2 -31 -4
-9 -8 -49 -10 -127 -6 -63 4 -240 5 -394 4 -634 -6 -965 -2 -944 12 9 7 -6 8
-43 3 -40 -4 -58 -3 -58 5 0 7 -14 9 -42 5 -31 -4 -39 -3 -28 5 11 7 -1 10
-45 10 -64 -1 -90 3 -101 14 -4 4 -18 4 -30 1 -16 -4 -24 -2 -24 6 0 7 -7 10
-15 7 -8 -4 -17 -2 -20 3 -3 5 -18 9 -33 9 -24 -1 -62 6 -69 11 -2 2 -6 3 -10
5 -5 1 -20 7 -35 13 -15 6 -34 9 -41 6 -7 -2 -27 2 -43 11 -16 8 -24 15 -19
15 6 0 2 5 -8 11 -9 6 -26 8 -36 4 -12 -3 -33 4 -56 19 -20 14 -43 22 -51 19
-8 -3 -22 5 -32 17 -11 14 -29 23 -46 23 -16 0 -38 10 -51 23 -13 13 -33 24
-44 24 -11 0 -25 9 -31 20 -6 11 -20 20 -30 20 -11 0 -20 5 -20 10 0 6 -13 16
-29 23 -16 7 -46 27 -67 44 -22 18 -73 59 -114 91 -41 33 -94 80 -118 106 -24
25 -49 46 -56 46 -7 0 -21 9 -31 20 -10 11 -24 20 -32 20 -7 0 -24 6 -36 14
-29 19 -103 19 -121 0 -8 -8 -18 -14 -21 -14 -28 0 -108 -100 -99 -123 3 -8
-2 -20 -11 -27 -17 -14 -21 -70 -5 -70 6 0 10 -13 10 -29 0 -39 9 -61 26 -61
7 0 11 -6 8 -13 -5 -14 94 -97 116 -97 5 0 10 -6 10 -12 0 -14 62 -58 80 -58
6 0 16 -11 22 -25 10 -23 20 -29 40 -27 3 1 12 -5 18 -13 7 -8 21 -15 31 -15
10 0 29 -11 43 -25 14 -14 33 -25 43 -25 10 0 27 -7 37 -15 11 -8 28 -15 37
-15 10 0 30 -12 44 -26 17 -17 32 -23 45 -19 12 4 26 -1 39 -14 12 -12 30 -21
41 -21 10 0 30 -11 44 -25 14 -14 32 -25 39 -25 8 0 17 -7 21 -15 3 -8 12 -15
19 -15 8 0 22 -9 32 -20 10 -11 24 -20 31 -20 7 0 26 -11 41 -24 28 -24 28
-24 0 -35 -16 -6 -51 -12 -79 -13 -27 -1 -51 -6 -54 -9 -2 -4 -14 -5 -26 -1
-16 4 -19 2 -13 -8 6 -10 4 -12 -8 -7 -9 3 -19 2 -22 -3 -4 -6 -19 -10 -36
-10 -16 0 -29 -5 -29 -11 0 -7 -9 -9 -21 -6 -12 3 -33 1 -48 -5 -34 -14 -51
-19 -81 -23 -14 -1 -27 -4 -30 -5 -3 -1 -13 -1 -24 0 -12 1 -16 -2 -10 -11 5
-9 2 -11 -8 -6 -9 3 -24 -1 -35 -8 -11 -9 -30 -12 -52 -8 -26 4 -32 3 -26 -7
6 -10 4 -12 -7 -7 -9 3 -28 -1 -43 -9 -15 -8 -44 -14 -65 -14 -51 0 -76 -10
-58 -22 9 -7 7 -8 -8 -3 -13 3 -26 -1 -34 -10 -9 -10 -22 -14 -36 -11 -17 5
-26 1 -34 -14 -6 -11 -16 -20 -23 -20 -7 0 -23 -9 -36 -19 -21 -16 -24 -27
-25 -94 -1 -45 2 -73 8 -70 5 4 7 -1 3 -11 -9 -24 10 -56 33 -56 11 0 20 -4
20 -10 0 -20 49 -34 133 -35 48 -1 90 2 94 7 3 5 16 7 28 4 13 -3 27 -1 30 4
4 6 11 8 16 4 5 -3 23 2 40 10 17 9 42 13 59 10 15 -3 31 -1 34 5 4 5 13 8 20
5 8 -3 17 0 21 5 3 6 10 9 15 6 5 -3 22 1 38 9 15 8 35 14 42 14 39 -2 71 3
66 11 -7 11 27 21 71 21 19 0 43 10 62 25 22 19 36 24 55 19 19 -4 31 0 51 20
19 19 32 25 50 20 18 -4 31 1 51 21 14 14 32 24 40 21 7 -3 16 -1 19 5 4 5 12
9 18 8 26 -3 37 2 37 17 0 11 6 15 20 11 12 -3 35 5 56 20 20 13 43 22 50 19
7 -3 16 -1 19 5 4 5 12 9 18 8 26 -3 37 2 37 17 0 12 6 15 21 11 23 -6 63 8
91 31 10 8 25 12 33 8 9 -3 45 5 80 19 34 14 69 23 78 19 8 -3 18 -1 21 5 4 6
21 8 39 5 26 -5 29 -3 17 6 -12 9 -9 11 18 6 17 -3 32 -1 32 4 0 11 66 13 510
13 426 0 480 -2 480 -14 0 -5 18 -6 40 -3 29 5 40 3 40 -6 0 -9 10 -10 35 -6
20 4 41 3 48 -1 11 -7 38 -11 110 -14 15 -1 27 -6 27 -11 0 -4 12 -6 28 -2 22
4 24 3 12 -6 -12 -9 -10 -11 13 -7 15 2 30 0 33 -5 4 -5 17 -7 30 -4 14 4 37
0 54 -9 17 -9 35 -13 40 -10 5 3 21 -1 34 -10 15 -10 33 -14 45 -10 11 3 29 2
38 -4 10 -6 14 -11 8 -11 -16 -1 18 -20 35 -20 13 0 13 1 0 10 -11 8 -7 9 15
4 55 -11 58 -13 45 -29 -6 -7 -21 -15 -33 -17 -14 -2 -21 -10 -21 -21 1 -9 -4
-17 -12 -17 -7 0 -18 -9 -24 -21 -7 -11 -19 -29 -28 -39 -9 -9 -26 -30 -37
-45 -75 -102 -272 -299 -402 -404 -56 -44 -106 -81 -111 -81 -6 0 -19 -11 -30
-25 -11 -14 -26 -25 -34 -25 -8 0 -23 -9 -33 -20 -10 -11 -23 -20 -30 -20 -7
0 -20 -9 -30 -20 -10 -11 -28 -20 -41 -20 -13 0 -28 -9 -34 -20 -6 -11 -20
-20 -31 -20 -12 0 -32 -9 -46 -20 -14 -11 -33 -20 -42 -20 -9 0 -31 -9 -49
-20 -18 -11 -42 -20 -55 -20 -21 0 -62 -19 -42 -20 6 0 -3 -7 -19 -15 -16 -9
-37 -13 -46 -10 -21 7 -52 -4 -45 -15 5 -8 -28 -20 -57 -20 -9 0 -29 -5 -45
-12 -15 -6 -31 -12 -35 -13 -5 -2 -9 -3 -10 -5 -5 -3 -43 -12 -68 -15 -14 -1
-25 -3 -25 -4 0 -1 -11 -4 -25 -6 -14 -2 -38 -9 -55 -16 -16 -7 -34 -13 -40
-14 -24 -3 -55 -17 -55 -26 0 -5 -6 -9 -13 -9 -18 0 -67 -48 -68 -68 0 -9 -3
-38 -5 -64 -2 -26 0 -49 5 -52 5 -3 7 -14 5 -24 -5 -19 0 -27 39 -61 23 -21
39 -25 97 -27 39 -1 70 2 70 7 0 5 15 6 33 3 25 -5 29 -3 17 6 -12 9 -8 10 20
5 26 -5 31 -4 20 4 -11 8 22 11 115 11 103 0 135 -3 153 -16 16 -11 21 -22 17
-35 -4 -11 -2 -19 4 -19 6 0 11 -9 11 -20 0 -11 -4 -20 -10 -20 -7 0 -17 -31
-25 -80 0 -3 -7 -16 -14 -28 -7 -13 -10 -26 -7 -29 3 -4 2 -11 -3 -17 -15 -19
-23 -104 -11 -111 6 -4 8 -15 5 -24 -3 -10 1 -24 10 -31 8 -7 15 -19 15 -26 0
-8 7 -14 15 -14 9 0 25 -9 37 -19 16 -16 34 -19 85 -18 62 1 68 3 114 45 37
33 49 51 49 72 0 16 5 32 11 36 6 3 8 17 5 30 -4 15 -2 24 5 24 7 0 9 11 5 30
-4 22 -2 29 6 24 7 -5 9 3 4 28 -5 26 -2 39 9 48 10 9 14 22 11 36 -4 15 -1
26 10 32 11 6 17 21 16 41 0 20 4 31 13 31 7 0 18 14 24 30 5 17 6 30 1 30 -5
0 5 13 21 30 22 22 29 35 24 51 -5 15 -2 22 12 25 11 3 34 30 52 60 17 29 48
66 67 80 21 16 33 33 30 41 -3 8 -2 12 3 8 13 -8 42 24 34 38 -3 7 -3 9 2 5
12 -11 47 12 41 27 -3 9 0 12 9 9 8 -3 21 6 30 20 10 15 41 44 69 66 28 22 62
49 74 60 13 11 28 20 33 20 5 0 9 6 9 13 0 6 11 19 24 27 13 8 62 47 108 86
45 39 91 73 101 77 9 3 17 12 18 19 1 7 47 56 104 108 59 54 102 101 99 108
-2 8 5 16 16 19 12 3 20 14 20 27 0 12 6 31 14 41 13 18 14 18 25 -3 8 -14 8
-23 1 -27 -8 -5 -8 -11 -1 -19 6 -7 8 -16 3 -20 -4 -4 1 -12 11 -17 12 -7 15
-17 11 -33 -3 -13 -1 -27 5 -30 5 -4 8 -13 4 -21 -3 -8 0 -15 7 -15 8 0 10 -9
6 -25 -4 -14 -2 -25 3 -25 6 0 11 -12 11 -27 9 -381 10 -693 1 -693 -14 0 -15
-67 -1 -75 6 -4 10 9 10 31 0 21 3 34 7 30 10 -10 3 -379 -8 -392 -6 -8 -4
-17 6 -27 9 -10 15 -34 15 -62 0 -28 -6 -52 -15 -62 -10 -10 -12 -19 -6 -27
11 -13 19 -256 9 -256 -5 0 -8 7 -8 16 0 8 -4 12 -10 9 -13 -8 -13 -55 0 -55
6 0 8 -28 4 -77 -4 -43 -6 -89 -6 -102 0 -13 -7 -31 -15 -39 -10 -10 -11 -18
-4 -25 6 -6 11 -20 11 -31 0 -18 -2 -19 -11 -6 -8 12 -9 8 -6 -14 3 -17 -1
-35 -9 -43 -10 -10 -11 -19 -3 -37 9 -18 7 -32 -6 -59 -9 -20 -14 -44 -11 -55
4 -12 0 -24 -10 -32 -11 -10 -14 -23 -9 -46 4 -23 1 -35 -8 -41 -20 -11 -40
-78 -32 -104 5 -14 1 -27 -14 -40 -11 -11 -18 -25 -15 -33 3 -8 1 -17 -5 -20
-6 -4 -8 -13 -5 -20 3 -8 -6 -25 -20 -39 -20 -20 -26 -36 -26 -67 0 -24 -4
-39 -10 -35 -5 3 -17 -6 -26 -21 -15 -21 -15 -27 -3 -34 7 -5 11 -10 9 -12 -3
-2 -14 -8 -25 -14 -11 -6 -21 -23 -23 -38 -2 -14 -15 -38 -29 -52 -19 -19 -23
-28 -14 -34 9 -5 7 -9 -6 -12 -17 -5 -49 -50 -105 -150 -17 -32 -24 -39 -87
-106 -23 -23 -41 -46 -41 -50 0 -4 -17 -25 -38 -47 -46 -50 -73 -92 -71 -108
1 -6 -1 -20 -6 -30 -14 -33 4 -81 44 -114 46 -39 116 -51 173 -30 36 13 108
70 108 85 0 4 14 22 30 40 17 18 30 40 30 48 0 8 5 14 11 14 5 0 15 13 20 30
6 16 14 30 18 30 13 0 73 99 66 110 -3 5 1 10 9 10 9 0 23 15 32 33 9 17 31
53 50 79 18 25 42 65 54 89 12 24 29 49 36 57 8 7 14 17 14 21 0 4 9 18 19 30
11 13 18 28 15 35 -3 8 3 16 14 18 10 3 35 35 56 71 20 36 41 69 46 72 6 4 8
16 4 29 -7 27 19 55 32 34 5 -7 7 -25 5 -40 -1 -16 2 -28 8 -28 6 0 10 -3 9
-7 -6 -27 28 -113 45 -113 8 0 12 -14 12 -41 0 -29 6 -45 21 -57 11 -9 21 -30
22 -46 1 -17 12 -40 24 -53 12 -13 16 -23 10 -23 -15 0 6 -60 24 -67 8 -3 14
-14 14 -24 0 -11 9 -36 20 -56 11 -21 20 -44 20 -51 0 -8 9 -27 21 -43 11 -16
18 -33 14 -39 -8 -13 21 -66 41 -74 9 -3 14 -12 11 -20 -6 -15 48 -86 65 -86
5 0 16 -6 23 -14 22 -21 121 -20 137 2 7 9 25 23 41 31 18 10 27 22 27 38 0
14 6 31 14 38 17 17 12 72 -9 96 -10 11 -14 26 -10 42 4 14 2 28 -5 32 -6 4
-8 15 -5 24 3 10 -3 29 -14 42 -13 16 -17 33 -14 55 3 18 0 36 -8 45 -26 28
-37 55 -32 81 5 24 -29 74 -97 143 -11 12 -20 26 -20 32 0 6 -6 18 -13 25 -7
7 -18 25 -24 41 -7 15 -19 27 -28 27 -10 0 -15 10 -15 31 0 23 -5 32 -20 36
-14 4 -19 11 -15 23 3 9 -6 33 -20 54 -14 20 -25 46 -25 56 0 11 -10 30 -22
43 -15 14 -23 34 -23 57 0 24 -4 34 -14 32 -8 -2 -11 3 -8 12 3 8 -1 20 -9 27
-8 7 -13 18 -10 26 3 8 -2 25 -11 39 -12 19 -13 28 -4 33 8 6 6 14 -9 33 -22
29 -25 49 -9 65 7 7 5 15 -7 28 -13 13 -14 19 -5 24 9 6 8 13 -6 26 -11 12
-14 20 -6 22 12 4 6 40 -10 61 -6 7 -10 42 -9 78 0 35 -4 64 -9 64 -13 0 -11
164 2 177 7 7 6 15 -5 26 -13 13 -16 43 -16 166 0 87 4 151 9 151 6 0 8 37 6
88 -13 253 -13 302 -4 302 5 0 9 -18 9 -41 0 -24 4 -38 10 -34 6 3 10 28 10
56 0 27 -4 49 -10 49 -6 0 -10 38 -10 95 0 57 4 95 10 95 6 0 10 15 10 34 0
19 -4 38 -10 41 -6 4 -10 -8 -10 -30 0 -21 -4 -34 -10 -30 -5 3 -8 31 -5 63
13 165 14 216 5 202 -6 -10 -10 53 -10 190 0 142 3 200 10 190 8 -10 9 4 4 48
-5 43 -3 62 5 62 7 0 10 16 9 43 -2 55 10 141 21 145 5 2 6 12 3 24 -3 12 43
-27 107 -91 62 -61 116 -111 120 -111 4 0 33 -24 65 -54 66 -61 111 -96 124
-96 5 0 22 -18 37 -40 15 -22 35 -40 44 -40 9 0 27 -16 41 -35 14 -19 41 -46
61 -60 20 -14 94 -85 165 -158 71 -72 134 -132 139 -132 6 0 10 -6 10 -13 0
-13 24 -47 61 -85 11 -12 30 -39 43 -59 12 -21 28 -41 35 -45 15 -9 106 -148
106 -162 0 -5 12 -19 26 -30 14 -11 23 -24 20 -30 -9 -14 4 -41 20 -41 9 0 14
-11 14 -30 0 -19 9 -40 23 -53 13 -13 21 -32 19 -45 -2 -13 3 -25 12 -28 9 -3
13 -10 11 -15 -3 -5 1 -19 10 -32 8 -13 13 -26 10 -29 -7 -7 16 -60 29 -70 5
-3 9 -27 9 -52 -1 -32 4 -49 15 -55 16 -9 25 -60 23 -129 -1 -18 3 -31 8 -28
5 3 9 -5 9 -18 0 -40 23 -96 39 -96 9 0 13 -6 9 -15 -6 -16 7 -31 59 -71 29
-22 41 -25 90 -21 53 4 93 27 126 71 9 11 -2 251 -11 251 -1 0 -3 18 -5 39 -1
22 -7 42 -12 43 -6 2 -9 13 -6 23 3 12 -1 22 -11 26 -10 4 -15 17 -14 41 1 20
-5 38 -13 43 -8 6 -12 22 -11 45 2 22 -1 35 -8 35 -9 0 -11 23 -9 79 2 44 7
82 10 85 3 3 21 -2 40 -11 19 -10 41 -16 50 -15 9 2 21 -4 28 -12 7 -8 20 -12
28 -9 12 5 14 3 8 -7 -6 -10 -3 -12 13 -8 12 4 25 2 28 -4 3 -5 19 -6 34 -3
16 4 31 2 35 -5 4 -7 19 -9 36 -5 18 4 29 3 29 -4 0 -8 19 -9 58 -5 44 4 54 3
42 -6 -12 -9 -6 -10 27 -6 23 3 44 2 47 -2 3 -5 57 -8 121 -7 115 1 115 1 156
41 22 21 42 50 45 64 3 14 8 34 11 45 4 17 2 18 -7 5 -9 -12 -10 -3 -5 37 5
51 4 54 -34 96 -37 39 -85 64 -141 72 -8 1 -22 5 -30 8 -8 3 -26 6 -40 6 -14
0 -65 2 -115 5 -49 3 -102 6 -117 6 -16 1 -28 6 -28 11 0 6 -7 8 -16 5 -9 -4
-22 -2 -28 3 -6 5 -22 9 -36 9 -22 0 -61 7 -67 12 -2 2 -6 3 -10 5 -5 1 -21 7
-36 13 -16 7 -38 12 -50 12 -12 0 -35 9 -50 19 -16 10 -37 16 -48 14 -12 -3
-19 0 -19 8 0 17 -45 39 -77 39 -13 0 -23 4 -23 10 0 9 -32 29 -106 64 -17 8
-34 22 -37 31 -4 8 -13 15 -22 15 -8 0 -31 16 -51 35 -19 19 -39 35 -42 35 -4
0 -28 19 -55 43 -26 23 -63 53 -82 67 -19 14 -35 30 -35 37 0 6 -15 21 -34 32
-19 12 -65 54 -102 94 -38 39 -73 72 -79 72 -5 0 -10 8 -10 17 0 18 -134 153
-148 149 -5 -1 -6 3 -2 9 4 6 -22 39 -57 74 -35 35 -69 71 -76 80 -7 9 -18 13
-24 10 -7 -5 -9 -2 -5 9 7 18 -17 42 -33 32 -5 -3 -13 0 -16 8 -3 8 -14 17
-25 20 -10 3 -19 9 -19 14 0 9 128 9 523 0 79 -2 132 0 125 5 -8 5 65 8 170 6
100 -2 182 0 182 5 0 4 61 7 135 7 74 0 135 -4 135 -8 0 -5 50 -6 110 -4 76 3
110 1 110 -6 0 -8 21 -9 65 -5 47 4 65 3 65 -6 0 -8 21 -12 63 -11 102 1 127
-1 127 -10 0 -5 15 -7 33 -4 25 5 29 3 17 -6 -12 -9 -7 -10 23 -5 21 3 37 2
37 -4 0 -5 15 -9 33 -9 36 1 63 -5 73 -14 3 -4 13 -4 22 -1 11 5 13 3 7 -7 -6
-10 -3 -12 13 -8 12 4 24 2 27 -3 3 -4 19 -6 35 -2 22 4 31 1 36 -10 7 -20 67
-40 94 -32 14 4 30 -2 52 -20 23 -20 37 -25 59 -20 22 5 30 2 39 -15 6 -11 16
-20 23 -19 11 2 26 -2 72 -21 11 -4 35 -13 53 -20 17 -7 32 -16 32 -21 0 -5 8
-9 18 -9 9 0 36 -14 60 -30 24 -16 50 -26 58 -23 7 3 28 -7 46 -22 24 -20 39
-25 60 -21 32 6 61 -2 53 -15 -7 -10 40 -23 54 -15 5 4 13 2 16 -4 4 -6 15 -8
24 -5 10 3 34 -1 54 -10 20 -8 48 -15 61 -15 35 0 137 50 143 69 2 9 11 28 19
43 18 34 18 68 -1 115 -16 38 -81 93 -110 93 -8 0 -15 4 -15 9 0 5 -15 14 -32
21 -18 8 -41 20 -50 28 -9 8 -22 11 -28 7 -6 -4 -30 5 -55 19 -24 15 -57 28
-72 30 -34 5 -92 24 -78 25 25 3 -24 21 -56 21 -20 0 -51 8 -70 17 -18 9 -48
16 -66 16 -18 -1 -37 5 -44 13 -6 8 -20 14 -30 14 -10 0 -21 5 -24 10 -3 6
-14 10 -23 10 -15 0 -78 27 -122 52 -21 12 -49 24 -88 38 -39 15 -40 42 -2 50
26 5 150 97 150 112 0 4 8 8 19 8 18 0 72 42 132 103 15 15 32 27 38 27 7 0
14 6 17 14 3 8 18 16 35 20 17 3 29 12 29 21 0 8 7 15 14 15 8 0 27 11 42 25
15 14 30 25 34 25 4 0 18 16 31 35 13 19 31 35 40 35 9 0 24 9 34 20 10 11 26
22 36 25 11 4 19 12 19 18 0 7 17 20 38 30 47 23 86 78 80 112 -3 14 -2 28 3
30 12 8 -10 60 -37 86 -13 12 -24 18 -24 14 0 -5 -6 0 -14 11 -9 13 -27 21
-53 22 -21 1 -50 5 -64 7 -17 4 -37 -2 -63 -20 -20 -14 -44 -25 -52 -25 -8 0
-17 -7 -20 -15 -4 -8 -14 -15 -23 -15 -9 0 -27 -9 -41 -20 -14 -11 -31 -20
-37 -20 -7 0 -20 -11 -29 -25 -9 -14 -25 -25 -35 -25 -11 0 -22 -6 -25 -14 -3
-8 -29 -26 -59 -40 -29 -13 -56 -30 -60 -36 -3 -5 -21 -17 -38 -25 -18 -8 -41
-20 -52 -27 -51 -32 -71 -42 -82 -43 -6 0 -22 -9 -35 -20 -12 -11 -35 -26 -50
-32 -16 -7 -28 -17 -28 -23 0 -5 -9 -10 -20 -10 -10 0 -38 -18 -62 -40 -24
-22 -46 -40 -50 -40 -4 0 -18 -10 -33 -22 -14 -13 -37 -32 -51 -43 -15 -11
-36 -30 -47 -42 -11 -13 -27 -23 -34 -23 -8 0 -16 -7 -19 -15 -4 -8 -14 -15
-24 -15 -9 0 -34 -11 -55 -25 -22 -15 -44 -23 -55 -20 -10 3 -21 1 -24 -4 -4
-6 -13 -8 -21 -4 -8 3 -15 0 -15 -7 0 -9 -11 -11 -40 -6 -22 3 -40 2 -40 -3 0
-11 -95 -14 -410 -14 -367 0 -490 3 -490 13 0 5 -31 6 -70 3 -45 -4 -70 -2
-70 4 0 7 -31 9 -87 7 -58 -3 -81 -1 -68 5 18 8 19 9 2 16 -9 4 -24 2 -31 -4
-10 -9 -51 -10 -143 -5 -145 8 -131 8 -281 4 -65 -1 -118 2 -124 8 -6 6 10 21
47 42 48 27 181 138 235 196 8 9 49 51 90 94 41 43 91 98 110 121 19 24 47 55
61 69 14 14 34 40 44 58 11 17 25 32 32 32 7 0 18 10 24 23 7 12 21 28 31 36
11 7 17 19 14 27 -3 8 6 20 24 29 17 9 30 23 30 33 0 9 19 30 41 46 24 17 38
34 35 42 -3 8 -1 14 4 14 6 0 49 37 95 82 65 62 84 86 79 101 -4 14 -1 18 13
15 12 -2 34 11 56 32 79 77 116 108 136 115 11 3 23 15 26 26 4 10 13 19 21
19 8 0 23 9 34 20 11 11 26 20 33 20 8 0 22 9 32 20 10 11 28 20 41 20 13 0
28 9 34 20 6 11 21 20 33 20 12 0 36 9 52 20 17 11 45 20 63 20 20 0 31 4 27
10 -5 8 19 15 28 8 2 -2 15 5 29 14 19 12 37 16 59 11 24 -4 30 -3 25 6 -6 9
0 10 20 5 20 -5 25 -4 19 5 -4 8 -2 11 7 9 22 -5 161 57 181 81 16 18 14 139
-2 177 -6 16 -28 41 -48 57 -32 24 -44 27 -92 23 -36 -2 -58 -9 -67 -21 -8
-11 -19 -15 -33 -10 -12 3 -31 3 -42 0 -17 -6 -19 -9 -8 -17 11 -7 9 -8 -6 -5
-11 2 -32 -3 -47 -10 -15 -7 -31 -12 -35 -11 -13 3 -53 -13 -53 -22 0 -8 -32
-21 -62 -25 -10 -1 -24 -8 -32 -14 -8 -7 -35 -11 -63 -9 -39 2 -47 6 -45 21 2
9 -4 20 -12 23 -11 4 -14 14 -10 30 4 15 2 24 -6 24 -8 0 -11 44 -10 168 1 92
1 172 0 177 -1 6 -1 21 -1 35 1 14 -8 39 -21 55 -12 16 -23 35 -25 43 -2 21
-54 62 -73 59 -8 -1 -16 -13 -17 -27 -1 -14 -3 -46 -4 -72 -2 -27 -7 -48 -12
-48 -5 0 -6 -20 -3 -45 5 -31 4 -45 -4 -45 -7 0 -9 -8 -5 -21 5 -13 3 -19 -3
-15 -6 4 -10 -15 -11 -50 0 -41 -5 -60 -18 -69 -12 -9 -17 -28 -18 -64 -1 -36
-6 -55 -19 -64 -16 -12 -35 -65 -40 -113 -1 -12 -10 -29 -19 -38 -9 -9 -14
-23 -11 -31 4 -8 -6 -25 -23 -39 -23 -21 -25 -27 -14 -35 12 -8 9 -15 -17 -39
-18 -17 -32 -37 -32 -45 0 -8 -7 -20 -16 -28 -8 -7 -27 -36 -41 -63 -14 -28
-29 -53 -33 -56 -4 -3 -13 -16 -20 -30 -7 -14 -22 -31 -32 -39 -11 -7 -17 -19
-14 -27 3 -8 -1 -14 -9 -14 -7 0 -17 -9 -20 -20 -3 -11 -10 -20 -15 -20 -5 0
-11 -8 -14 -17 -3 -10 -25 -39 -48 -65 -59 -65 -88 -104 -88 -117 0 -6 -6 -8
-14 -5 -9 4 -20 -5 -29 -23 -17 -33 -291 -303 -307 -303 -7 0 -9 -8 -5 -20 5
-15 2 -20 -12 -20 -19 0 -106 -78 -116 -104 -4 -9 -12 -16 -20 -16 -7 0 -28
-16 -47 -35 -19 -19 -38 -35 -44 -35 -5 0 -24 -18 -43 -39 -18 -22 -43 -43
-54 -46 -14 -5 -18 -12 -14 -26 5 -14 2 -19 -14 -19 -11 0 -32 -16 -47 -36
-21 -27 -29 -32 -37 -22 -6 9 -7 8 -3 -5 7 -21 -13 -57 -32 -57 -10 0 -12 5
-6 18 5 9 11 454 14 987 4 773 2 974 -8 991 -10 16 -11 76 -6 265 4 134 11
234 15 224 6 -19 7 -19 14 -2 4 9 2 23 -4 31 -6 7 -9 32 -6 57 5 49 23 113 24
89 2 -26 21 11 21 41 0 15 7 32 16 40 22 18 46 68 39 79 -3 6 0 10 7 10 7 0
24 18 38 40 13 22 30 40 37 40 13 0 39 40 26 40 -4 0 3 6 17 13 14 7 25 19 25
27 0 8 9 20 20 26 11 5 19 18 19 27 -1 9 4 17 11 17 7 0 18 14 24 30 5 17 15
30 20 30 16 0 63 80 57 96 -3 8 0 14 6 14 16 0 37 32 38 55 0 11 9 26 20 33
13 8 20 23 20 43 0 16 4 28 9 24 12 -7 31 26 31 54 0 12 6 21 13 21 18 0 43
53 28 58 -18 6 -12 19 10 25 15 4 20 11 16 21 -4 9 -2 16 3 16 6 0 10 7 10 16
0 9 9 29 21 45 11 16 18 36 15 44 -3 8 8 35 25 60 25 37 29 49 19 60 -10 12
-9 16 5 21 13 5 15 14 11 40 -4 18 -2 35 4 39 5 3 10 23 10 43 0 29 -9 48 -41
85 -23 27 -47 46 -54 43 -7 -2 -21 2 -32 9 -20 16 -59 20 -67 6z"/>
<path d="M6950 13277 c0 -5 -13 -6 -29 -2 -16 3 -32 2 -35 -4 -4 -6 -13 -8
-20 -5 -8 3 -17 1 -21 -5 -3 -6 -17 -8 -31 -5 -16 4 -26 1 -30 -9 -3 -9 -20
-21 -37 -26 -49 -17 -127 -97 -127 -132 0 -15 -5 -31 -10 -34 -6 -3 -7 -17 -4
-29 4 -16 0 -25 -10 -29 -20 -8 -21 -36 0 -44 11 -4 13 -13 9 -34 -4 -16 -2
-29 3 -29 5 0 9 -19 8 -42 -1 -49 21 -85 97 -156 47 -44 120 -86 131 -75 3 3
12 1 20 -6 7 -6 30 -12 49 -13 20 -1 34 -5 31 -10 -3 -4 9 -8 25 -8 17 0 31 5
31 10 0 6 13 10 30 10 40 0 85 21 68 32 -8 5 -2 8 18 8 17 0 43 9 57 20 14 11
28 20 32 20 17 0 105 65 110 82 4 10 11 18 16 18 17 0 36 63 34 108 -2 23 1
45 6 48 11 7 12 44 1 44 -4 0 -8 25 -8 56 1 44 -3 59 -18 70 -11 8 -16 14 -12
14 14 0 -28 60 -46 66 -10 3 -18 12 -18 19 0 8 -12 18 -27 21 -16 4 -32 13
-38 21 -5 7 -25 14 -43 16 -17 2 -35 7 -38 10 -4 3 -20 4 -38 1 -21 -4 -27 -3
-17 4 9 6 -8 9 -53 9 -36 0 -66 -5 -66 -10z"/>
<path d="M12901 13075 c-35 -13 -67 -27 -70 -32 -3 -5 -16 -13 -27 -18 -61
-28 -140 -127 -128 -159 3 -9 2 -16 -4 -16 -6 0 -9 -36 -7 -95 2 -78 7 -103
29 -148 24 -49 91 -117 115 -117 6 0 11 -4 11 -9 0 -22 68 -35 177 -34 93 1
119 5 140 20 14 10 38 25 53 33 56 31 110 86 110 113 0 14 5 29 11 32 6 4 8
13 5 21 -3 7 -2 16 3 18 7 5 8 132 1 146 -1 3 -2 9 -1 14 1 5 -5 16 -14 26 -9
10 -13 24 -9 34 5 13 -7 32 -42 67 -26 27 -52 49 -57 49 -4 0 -17 8 -28 19
-11 10 -38 22 -60 25 -26 4 -38 10 -33 18 5 7 0 9 -14 6 -12 -4 -25 -2 -28 3
-9 16 -67 9 -133 -16z"/>
<path d="M10180 12051 c0 -61 4 -101 10 -101 6 0 10 38 10 94 0 53 -4 98 -10
101 -6 4 -10 -30 -10 -94z"/>
<path d="M7015 9670 c3 -5 8 -10 11 -10 2 0 4 5 4 10 0 6 -5 10 -11 10 -5 0
-7 -4 -4 -10z"/>
<path d="M6055 9288 c-4 -10 -4 -26 0 -35 8 -17 8 -17 12 0 3 9 3 25 0 35 -4
16 -4 16 -12 0z"/>
<path d="M13445 7349 c-3 -4 -18 -6 -34 -3 -20 4 -35 -1 -58 -20 -17 -14 -35
-26 -41 -26 -37 0 -113 -74 -135 -131 -8 -21 -13 -74 -12 -139 1 -91 5 -113
28 -162 14 -32 31 -58 36 -58 6 0 11 -6 11 -14 0 -18 116 -106 140 -106 11 0
22 -5 25 -11 4 -6 14 -8 22 -5 8 3 20 3 26 -1 19 -11 157 -12 150 0 -4 6 0 8
8 5 18 -7 119 37 119 52 0 5 5 10 11 10 16 0 79 53 79 67 0 7 8 28 19 46 16
28 19 54 19 155 -1 81 -4 119 -11 115 -6 -4 -7 -1 -2 6 8 14 -23 91 -37 91 -5
0 -13 11 -18 24 -5 14 -26 32 -47 41 -21 10 -60 28 -88 40 -27 13 -61 24 -75
24 -14 0 -49 2 -78 5 -28 2 -54 0 -57 -5z"/>
<path d="M7214 7068 c-3 -5 -14 -6 -24 -3 -12 4 -27 -2 -40 -15 -12 -12 -28
-19 -37 -16 -17 7 -58 -23 -120 -86 -24 -26 -57 -113 -48 -128 3 -6 3 -15 -1
-22 -6 -10 -7 -108 -3 -223 3 -48 43 -158 61 -163 10 -2 15 -8 13 -13 -8 -11
47 -59 67 -59 10 0 18 -4 18 -9 0 -5 8 -12 18 -16 26 -11 172 -14 178 -3 3 4
9 6 14 3 4 -3 21 2 36 10 16 8 35 15 42 15 16 0 81 45 134 92 43 39 112 162
105 189 -3 11 -1 22 4 25 6 3 7 14 4 25 -4 11 -2 19 5 19 13 0 4 88 -10 104
-5 5 -6 14 -3 22 6 16 -50 123 -86 162 -14 16 -52 44 -83 61 -51 29 -66 33
-148 35 -50 1 -94 -2 -96 -6z"/>
</g>
</svg>
